<svg width="14" height="15" viewBox="0 0 14 15" fill="none" xmlns="http://www.w3.org/2000/svg">
<path d="M13.6189 12.7846C14.0277 13.1934 14.0277 13.8568 13.6189 14.2656C13.21 14.6745 12.5467 14.6745 12.1378 14.2656L6.98179 9.07117L1.78908 14.2639C1.38025 14.6727 0.716933 14.6727 0.308061 14.2639C-0.100811 13.8551 -0.100767 13.1917 0.308061 12.7829L5.50252 7.5919L0.306621 2.35992C-0.102207 1.95109 -0.102207 1.28777 0.306621 0.878903C0.715449 0.470031 1.37876 0.470075 1.78763 0.878903L6.98179 6.11263L12.1745 0.919921C12.5833 0.511093 13.2466 0.511093 13.6555 0.919921C14.0644 1.32875 14.0643 1.99206 13.6555 2.40093L8.46106 7.5919L13.6189 12.7846Z" fill="white"/>
</svg>
