<svg width="21" height="16" viewBox="0 0 21 16" fill="none" xmlns="http://www.w3.org/2000/svg">
<path d="M0.5 0H20.5V16H0.5V0Z" fill="#012169"/>
<path d="M2.84375 0L10.4688 6.03333L18.0625 0H20.5V2.06667L13 8.03333L20.5 13.9667V16H18L10.5 10.0333L3.03125 16H0.5V14L7.96875 8.06667L0.5 2.13333V0H2.84375Z" fill="white"/>
<path d="M13.75 9.36667L20.5 14.6667V16L12.0312 9.36667H13.75ZM8 10.0333L8.1875 11.2L2.1875 16H0.5L8 10.0333ZM20.5 0V0.1L12.7188 6.36667L12.7812 4.9L18.9375 0H20.5ZM0.5 0L7.96875 5.86667H6.09375L0.5 1.4V0Z" fill="#C8102E"/>
<path d="M8.03125 0V16H13.0312V0H8.03125ZM0.5 5.33333V10.6667H20.5V5.33333H0.5Z" fill="white"/>
<path d="M0.5 6.43333V9.63333H20.5V6.43333H0.5ZM9.03125 0V16H12.0312V0H9.03125Z" fill="#C8102E"/>
</svg>
