<svg width="56" height="56" viewBox="0 0 56 56" fill="none" xmlns="http://www.w3.org/2000/svg">
<circle cx="28" cy="28" r="28" fill="url(#paint0_diamond_13962_53340)"/>
<path d="M45.75 33.5625C45.75 38.2207 41.9707 42 37.3125 42C32.6543 42 28.875 38.2207 28.875 33.5625C28.875 28.9043 32.6543 25.125 37.3125 25.125C41.9707 25.125 45.75 28.9043 45.75 33.5625ZM37.3125 36.375C36.5332 36.375 35.9062 37.002 35.9062 37.7812C35.9062 38.5605 36.5332 39.1875 37.3125 39.1875C38.0918 39.1875 38.7188 38.5605 38.7188 37.7812C38.7188 37.002 38.0918 36.375 37.3125 36.375ZM36 28.4062C34.6523 28.4062 33.5625 29.4961 33.5625 30.8438V31.2188C33.5625 31.7344 33.9844 32.1562 34.5 32.1562C35.0156 32.1562 35.4375 31.7344 35.4375 31.2188V30.8438C35.4375 30.5332 35.6895 30.2812 36 30.2812H38.373C38.8242 30.2812 39.1875 30.6445 39.1875 31.0957C39.1875 31.4004 39.0176 31.6758 38.7539 31.8223L36.8789 32.8066C36.5684 32.9707 36.375 33.2871 36.375 33.6328V34.5C36.375 35.0156 36.7969 35.4375 37.3125 35.4375C37.8281 35.4375 38.25 35.0156 38.25 34.5V34.2012L39.627 33.4805C40.5117 33.0117 41.0625 32.0449 41.0625 31.0957C41.0625 29.6133 39.8555 28.4062 38.373 28.4062H36Z" fill="white"/>
<path opacity="0.4" d="M18.5627 14.8125C18.5627 13.2592 19.8225 12 21.3752 12C22.928 12 24.1877 13.2592 24.1877 14.8125C24.1877 16.3658 22.928 17.625 21.3752 17.625C19.8225 17.625 18.5627 16.3658 18.5627 14.8125ZM19.0315 42C17.9944 42 17.1565 41.1621 17.1565 40.125V27.0527L15.4825 29.8418C14.9493 30.7266 13.7973 31.0137 12.9096 30.4805C12.0219 29.9473 11.7347 28.7988 12.2682 27.9082L15.6828 22.2305C16.6994 20.5371 18.5276 19.5 20.5022 19.5H22.2483C24.2229 19.5 26.051 20.5371 27.0705 22.2305L29.7014 26.6074C28.7053 27.6387 28.0198 28.8574 27.5569 30.2109C27.4455 30.0996 27.2991 29.9766 27.2698 29.8418L25.594 27.0527V40.125C25.594 41.1621 24.7561 42 23.719 42C22.6819 42 21.844 41.1621 21.844 40.125V32.625H20.9065V40.125C20.9065 41.1621 20.0686 42 19.0315 42Z" fill="white"/>
<defs>
<radialGradient id="paint0_diamond_13962_53340" cx="0" cy="0" r="1" gradientUnits="userSpaceOnUse" gradientTransform="translate(37.3864 56) rotate(-56.547) scale(230.302 61.9014)">
<stop stop-color="#1A4549"/>
<stop offset="0.840538" stop-color="#020F19"/>
</radialGradient>
</defs>
</svg>
