<svg width="92" height="20" viewBox="0 0 92 20" fill="none" xmlns="http://www.w3.org/2000/svg">
<path d="M18.8398 7.5C20.1758 7.5 22.5 8.63281 22.5 10C22.5 11.4062 20.1758 12.5 18.8398 12.5H4.375L2.6875 14.75C2.56953 14.9062 2.38438 15 2.1875 15H0.548047C0.245469 15 0 14.7539 0 14.418C0 14.4023 0.00710156 14.3516 0.0210859 14.3008L1.25 10L0.0210859 5.69922C0.00710156 5.64844 0 5.59766 0 5.54688C0 5.24609 0.245469 5 0.548047 5H2.1875C2.38438 5 2.56953 5.09375 2.6875 5.25L4.375 7.5H18.8398Z" fill="white"/>
<path opacity="0.4" d="M8.39517 12.5H14.2858L10.36 19.3711C10.1374 19.7578 9.7233 20 9.27408 20H7.07877C6.6647 20 6.36392 19.6016 6.4772 19.2031L8.39517 12.5ZM14.2858 7.5H8.39517L6.4772 0.796875C6.36392 0.397266 6.6647 0 7.07877 0H9.27408C9.7233 0 10.1374 0.240352 10.36 0.629688L14.2858 7.5Z" fill="white"/>
<path d="M53.3398 7.5C54.6758 7.5 57 8.63281 57 10C57 11.4062 54.6758 12.5 53.3398 12.5H38.875L37.1875 14.75C37.0695 14.9062 36.8844 15 36.6875 15H35.048C34.7455 15 34.5 14.7539 34.5 14.418C34.5 14.4023 34.5071 14.3516 34.5211 14.3008L35.75 10L34.5211 5.69922C34.5071 5.64844 34.5 5.59766 34.5 5.54688C34.5 5.24609 34.7455 5 35.048 5H36.6875C36.8844 5 37.0695 5.09375 37.1875 5.25L38.875 7.5H53.3398Z" fill="white"/>
<path opacity="0.4" d="M42.8952 12.5H48.7858L44.86 19.3711C44.6374 19.7578 44.2233 20 43.7741 20H41.5788C41.1647 20 40.8639 19.6016 40.9772 19.2031L42.8952 12.5ZM48.7858 7.5H42.8952L40.9772 0.796875C40.8639 0.397266 41.1647 0 41.5788 0H43.7741C44.2233 0 44.6374 0.240352 44.86 0.629688L48.7858 7.5Z" fill="white"/>
<path d="M70.7683 7.35714L72.3393 2.87009C72.9406 1.15089 74.5625 0 76.3839 0H84.4732C86.2946 0 87.9152 1.15089 88.5179 2.87009L90.0893 7.35714C91.125 7.78571 91.8571 8.80803 91.8571 10V16.4286H69V10C69 8.80803 69.7304 7.78571 70.7683 7.35714ZM73.8705 7.14286H86.9866L85.8214 3.8125C85.6205 3.24107 85.0804 2.85714 84.4732 2.85714H76.3839C75.7768 2.85714 75.2366 3.24107 75.0357 3.8125L73.8705 7.14286ZM73.2857 10C72.4969 10 71.8571 10.6384 71.8571 11.4286C71.8571 12.2187 72.4969 12.8571 73.2857 12.8571C74.0759 12.8571 74.7143 12.2187 74.7143 11.4286C74.7143 10.6384 74.0759 10 73.2857 10ZM87.5714 12.8571C88.3616 12.8571 89 12.2187 89 11.4286C89 10.6384 88.3616 10 87.5714 10C86.7812 10 86.1429 10.6384 86.1429 11.4286C86.1429 12.2187 86.7812 12.8571 87.5714 12.8571Z" fill="white"/>
<path opacity="0.4" d="M84.4732 2.85742C85.0804 2.85742 85.6205 3.24135 85.8214 3.81278L86.9866 7.14314H73.8705L75.0357 3.81278C75.2366 3.24135 75.7768 2.85742 76.3839 2.85742H84.4732ZM69 16.4288H73.2857V18.5717C73.2857 19.3619 72.646 20.0003 71.8571 20.0003H70.4286C69.6397 20.0003 69 19.3619 69 18.5717V16.4288ZM91.8571 18.5717C91.8571 19.3619 91.2188 20.0003 90.4286 20.0003H89C88.2098 20.0003 87.5714 19.3619 87.5714 18.5717V16.4288H91.8571V18.5717Z" fill="white"/>
</svg>
