<svg width="61" height="20" viewBox="0 0 61 20" fill="none" xmlns="http://www.w3.org/2000/svg">
<path d="M15.4994 0C15.986 0 16.5084 0.2875 16.7584 0.749107L23.7985 13.7768C24.0798 14.2946 23.8878 14.9464 23.3655 15.2277C22.8477 15.5089 22.1959 15.317 21.9146 14.7946L18.2762 8.06696L14.495 14.4732C14.2985 14.7991 13.9503 15 13.5709 15H5.94587C5.00391 15 4.45525 14.0491 4.85658 13.2411L8.29409 6.37054L7.30748 5H5.35658C4.76283 5 4.28516 4.52232 4.28516 3.92857C4.28516 3.33482 4.76283 2.85714 5.35658 2.85714H7.85659C8.20033 2.85714 8.48605 3.02277 8.72712 3.26339L9.95033 5H16.62L15.0753 2.14286H13.8878C13.3343 2.14286 12.8164 1.66295 12.8164 1.07143C12.8164 0.479911 13.3343 0 13.8878 0H15.4994ZM12.9593 12.8571L12.9637 12.8527L9.70926 8.33482L7.44587 12.8571H12.9593ZM11.4905 7.14286L14.1512 10.8393L16.3343 7.14286H11.4905Z" fill="white"/>
<path opacity="0.4" d="M20.4732 12.1293C19.9554 12.7008 19.6429 13.4552 19.6429 14.2856C19.6429 16.0624 21.0804 17.4999 22.8571 17.4999C24.6339 17.4999 26.0714 16.0624 26.0714 14.2856C26.0714 12.5088 24.6339 11.0713 22.8571 11.0713C22.6875 11.0713 22.5223 11.0847 22.3571 11.1115L21.1295 8.79897C21.6741 8.66504 22.2545 8.57129 22.8571 8.57129C26.0134 8.57129 28.5714 11.1293 28.5714 14.2856C28.5714 17.4418 26.0134 19.9999 22.8571 19.9999C19.7009 19.9999 17.1429 17.4418 17.1429 14.2856C17.1429 12.4597 17.9643 10.9061 19.2455 9.857L20.4732 12.1293ZM5.67411 8.57129C6.19196 8.57129 6.66071 8.62932 7.10714 8.74093L5.94196 11.0802C5.86607 11.0758 5.79018 11.0713 5.67411 11.0713C3.93929 11.0713 2.45982 12.5088 2.45982 14.2856C2.45982 16.0624 3.93929 17.4999 5.67411 17.4999C7.24554 17.4999 8.52232 16.4329 8.84821 14.9999H11.3839C11.0312 17.8168 8.62947 19.9999 5.71429 19.9999C2.55848 19.9999 0 17.4418 0 14.2856C0 11.1293 2.55848 8.57129 5.71429 8.57129H5.67411Z" fill="white"/>
<path d="M50.5703 0C55.8203 0 59.3203 1.375 59.3203 3.125V5C60.0117 5 60.5703 5.55859 60.5703 6.25V8.75C60.5703 9.44141 60.0117 10 59.3203 10V16.25C59.3203 16.9414 58.7617 17.5 58.0703 17.5H43.0703C42.3801 17.5 41.8203 16.9414 41.8203 16.25V10C41.1301 10 40.5703 9.44141 40.5703 8.75V6.25C40.5703 5.55859 41.1301 5 41.8203 5V3.125C41.8203 1.375 45.3203 0 50.5703 0ZM44.3203 10C44.3203 10.6914 44.8789 11.25 45.5703 11.25H49.9453V5H45.5703C44.8789 5 44.3203 5.55859 44.3203 6.25V10ZM51.1953 11.25H55.5703C56.2617 11.25 56.8203 10.6914 56.8203 10V6.25C56.8203 5.55859 56.2617 5 55.5703 5H51.1953V11.25ZM44.9453 15.625C45.6367 15.625 46.1953 15.0664 46.1953 14.375C46.1953 13.6836 45.6367 13.125 44.9453 13.125C44.2539 13.125 43.6953 13.6836 43.6953 14.375C43.6953 15.0664 44.2539 15.625 44.9453 15.625ZM56.1953 15.625C56.8867 15.625 57.4453 15.0664 57.4453 14.375C57.4453 13.6836 56.8867 13.125 56.1953 13.125C55.5039 13.125 54.9453 13.6836 54.9453 14.375C54.9453 15.0664 55.5039 15.625 56.1953 15.625ZM53.6953 2.5H47.4453C47.1016 2.5 46.8203 2.77969 46.8203 3.125C46.8203 3.47031 47.1016 3.75 47.4453 3.75H53.6953C54.0391 3.75 54.3203 3.47031 54.3203 3.125C54.3203 2.77969 54.0391 2.5 53.6953 2.5Z" fill="white"/>
<path opacity="0.4" d="M44.3203 6.25C44.3203 5.55859 44.8789 5 45.5703 5H49.9453V11.25H45.5703C44.8789 11.25 44.3203 10.6914 44.3203 10V6.25ZM51.1953 11.25V5H55.5703C56.2617 5 56.8203 5.55859 56.8203 6.25V10C56.8203 10.6914 56.2617 11.25 55.5703 11.25H51.1953ZM43.0703 17.5H46.8203V18.75C46.8203 19.4414 46.2617 20 45.5703 20H44.3203C43.6289 20 43.0703 19.4414 43.0703 18.75V17.5ZM54.3203 17.5H58.0703V18.75C58.0703 19.4414 57.5117 20 56.8203 20H55.5703C54.8789 20 54.3203 19.4414 54.3203 18.75V17.5Z" fill="white"/>
</svg>
