<svg width="196" height="20" viewBox="0 0 196 20" fill="none" xmlns="http://www.w3.org/2000/svg">
<path d="M18.8398 7.5C20.1758 7.5 22.5 8.63281 22.5 10C22.5 11.4062 20.1758 12.5 18.8398 12.5H4.375L2.6875 14.75C2.56953 14.9062 2.38438 15 2.1875 15H0.548047C0.245469 15 0 14.7539 0 14.418C0 14.4023 0.00710156 14.3516 0.0210859 14.3008L1.25 10L0.0210859 5.69922C0.00710156 5.64844 0 5.59766 0 5.54688C0 5.24609 0.245469 5 0.548047 5H2.1875C2.38438 5 2.56953 5.09375 2.6875 5.25L4.375 7.5H18.8398Z" fill="white"/>
<path opacity="0.4" d="M8.39517 12.5H14.2858L10.36 19.3711C10.1374 19.7578 9.7233 20 9.27408 20H7.07877C6.6647 20 6.36392 19.6016 6.4772 19.2031L8.39517 12.5ZM14.2858 7.5H8.39517L6.4772 0.796875C6.36392 0.397266 6.6647 0 7.07877 0H9.27408C9.7233 0 10.1374 0.240352 10.36 0.629688L14.2858 7.5Z" fill="white"/>
<path d="M53.3398 7.5C54.6758 7.5 57 8.63281 57 10C57 11.4062 54.6758 12.5 53.3398 12.5H38.875L37.1875 14.75C37.0695 14.9062 36.8844 15 36.6875 15H35.048C34.7455 15 34.5 14.7539 34.5 14.418C34.5 14.4023 34.5071 14.3516 34.5211 14.3008L35.75 10L34.5211 5.69922C34.5071 5.64844 34.5 5.59766 34.5 5.54688C34.5 5.24609 34.7455 5 35.048 5H36.6875C36.8844 5 37.0695 5.09375 37.1875 5.25L38.875 7.5H53.3398Z" fill="white"/>
<path opacity="0.4" d="M42.8952 12.5H48.7858L44.86 19.3711C44.6374 19.7578 44.2233 20 43.7741 20H41.5788C41.1647 20 40.8639 19.6016 40.9772 19.2031L42.8952 12.5ZM48.7858 7.5H42.8952L40.9772 0.796875C40.8639 0.397266 41.1647 0 41.5788 0H43.7741C44.2233 0 44.6374 0.240352 44.86 0.629688L48.7858 7.5Z" fill="white"/>
<path d="M87.8398 7.5C89.1758 7.5 91.5 8.63281 91.5 10C91.5 11.4062 89.1758 12.5 87.8398 12.5H73.375L71.6875 14.75C71.5695 14.9062 71.3844 15 71.1875 15H69.548C69.2455 15 69 14.7539 69 14.418C69 14.4023 69.0071 14.3516 69.0211 14.3008L70.25 10L69.0211 5.69922C69.0071 5.64844 69 5.59766 69 5.54688C69 5.24609 69.2455 5 69.548 5H71.1875C71.3844 5 71.5695 5.09375 71.6875 5.25L73.375 7.5H87.8398Z" fill="white"/>
<path opacity="0.4" d="M77.3952 12.5H83.2858L79.36 19.3711C79.1374 19.7578 78.7233 20 78.2741 20H76.0788C75.6647 20 75.3639 19.6016 75.4772 19.2031L77.3952 12.5ZM83.2858 7.5H77.3952L75.4772 0.796875C75.3639 0.397266 75.6647 0 76.0788 0H78.2741C78.7233 0 79.1374 0.240352 79.36 0.629688L83.2858 7.5Z" fill="white"/>
<path d="M122.34 7.5C123.676 7.5 126 8.63281 126 10C126 11.4062 123.676 12.5 122.34 12.5H107.875L106.188 14.75C106.07 14.9062 105.884 15 105.688 15H104.048C103.745 15 103.5 14.7539 103.5 14.418C103.5 14.4023 103.507 14.3516 103.521 14.3008L104.75 10L103.521 5.69922C103.507 5.64844 103.5 5.59766 103.5 5.54688C103.5 5.24609 103.745 5 104.048 5H105.688C105.884 5 106.07 5.09375 106.188 5.25L107.875 7.5H122.34Z" fill="white"/>
<path opacity="0.4" d="M111.895 12.5H117.786L113.86 19.3711C113.637 19.7578 113.223 20 112.774 20H110.579C110.165 20 109.864 19.6016 109.977 19.2031L111.895 12.5ZM117.786 7.5H111.895L109.977 0.796875C109.864 0.397266 110.165 0 110.579 0H112.774C113.223 0 113.637 0.240352 113.86 0.629688L117.786 7.5Z" fill="white"/>
<path d="M139.768 7.35714L141.339 2.87009C141.941 1.15089 143.562 0 145.384 0H153.473C155.295 0 156.915 1.15089 157.518 2.87009L159.089 7.35714C160.125 7.78571 160.857 8.80803 160.857 10V16.4286H138V10C138 8.80803 138.73 7.78571 139.768 7.35714ZM142.871 7.14286H155.987L154.821 3.8125C154.621 3.24107 154.08 2.85714 153.473 2.85714H145.384C144.777 2.85714 144.237 3.24107 144.036 3.8125L142.871 7.14286ZM142.286 10C141.497 10 140.857 10.6384 140.857 11.4286C140.857 12.2187 141.497 12.8571 142.286 12.8571C143.076 12.8571 143.714 12.2187 143.714 11.4286C143.714 10.6384 143.076 10 142.286 10ZM156.571 12.8571C157.362 12.8571 158 12.2187 158 11.4286C158 10.6384 157.362 10 156.571 10C155.781 10 155.143 10.6384 155.143 11.4286C155.143 12.2187 155.781 12.8571 156.571 12.8571Z" fill="white"/>
<path opacity="0.4" d="M153.473 2.85742C154.08 2.85742 154.621 3.24135 154.821 3.81278L155.987 7.14314H142.871L144.036 3.81278C144.237 3.24135 144.777 2.85742 145.384 2.85742H153.473ZM138 16.4288H142.286V18.5717C142.286 19.3619 141.646 20.0003 140.857 20.0003H139.429C138.64 20.0003 138 19.3619 138 18.5717V16.4288ZM160.857 18.5717C160.857 19.3619 160.219 20.0003 159.429 20.0003H158C157.21 20.0003 156.571 19.3619 156.571 18.5717V16.4288H160.857V18.5717Z" fill="white"/>
<path d="M174.624 7.35714L176.195 2.87009C176.796 1.15089 178.418 0 180.239 0H188.329C190.15 0 191.771 1.15089 192.373 2.87009L193.945 7.35714C194.98 7.78571 195.713 8.80803 195.713 10V16.4286H172.855V10C172.855 8.80803 173.586 7.78571 174.624 7.35714ZM177.726 7.14286H190.842L189.677 3.8125C189.476 3.24107 188.936 2.85714 188.329 2.85714H180.239C179.632 2.85714 179.092 3.24107 178.891 3.8125L177.726 7.14286ZM177.141 10C176.352 10 175.713 10.6384 175.713 11.4286C175.713 12.2187 176.352 12.8571 177.141 12.8571C177.931 12.8571 178.57 12.2187 178.57 11.4286C178.57 10.6384 177.931 10 177.141 10ZM191.427 12.8571C192.217 12.8571 192.855 12.2187 192.855 11.4286C192.855 10.6384 192.217 10 191.427 10C190.637 10 189.998 10.6384 189.998 11.4286C189.998 12.2187 190.637 12.8571 191.427 12.8571Z" fill="white"/>
<path opacity="0.4" d="M188.329 2.85742C188.936 2.85742 189.476 3.24135 189.677 3.81278L190.842 7.14314H177.726L178.891 3.81278C179.092 3.24135 179.632 2.85742 180.239 2.85742H188.329ZM172.855 16.4288H177.141V18.5717C177.141 19.3619 176.501 20.0003 175.713 20.0003H174.284C173.495 20.0003 172.855 19.3619 172.855 18.5717V16.4288ZM195.713 18.5717C195.713 19.3619 195.074 20.0003 194.284 20.0003H192.855C192.065 20.0003 191.427 19.3619 191.427 18.5717V16.4288H195.713V18.5717Z" fill="white"/>
</svg>
