<svg width="57" height="56" viewBox="0 0 57 56" fill="none" xmlns="http://www.w3.org/2000/svg">
<circle cx="28.6641" cy="28" r="28" fill="url(#paint0_diamond_13962_53354)"/>
<path d="M26.6131 22.375V28C26.6131 29.0312 27.5096 29.875 28.4881 29.875C29.4666 29.875 30.3631 29.0312 30.3631 28.0527V22.375C30.3631 17.1971 26.166 13 20.9881 13H17.2891C17.2891 18.1785 21.4861 22.375 26.6131 22.375Z" fill="white"/>
<path opacity="0.4" d="M44.957 32.7051C44.1883 31.6615 42.7223 31.4359 41.6799 32.2088L34.6662 37.3751H27.5998C27.0872 37.3751 26.715 36.9503 26.715 36.4381C26.715 35.9254 27.1398 35.5006 27.5998 35.5006H32.1848C33.0695 35.5006 33.9865 34.8631 34.14 33.9409C34.3305 32.769 33.4299 31.7506 32.2873 31.7506H22.8613C21.332 31.7506 19.7488 32.2926 18.5184 33.2887L15.7937 35.5001L12.5488 35.4473C12.0362 35.4473 11.6641 35.8735 11.6641 36.3859L11.6641 42.0625C11.6641 42.5781 12.0889 43 12.5488 43H32.8281C34.1189 43 35.4016 42.5788 36.4434 41.8123L44.3594 35.9811C45.5019 35.2129 45.7246 33.748 44.957 32.7051ZM30.3613 22.375C35.5398 22.375 39.7363 18.1779 39.7363 13H35.9863C32.9043 13 30.1949 14.5064 28.5391 16.8021C29.6992 18.3637 30.3613 20.2773 30.3613 22.375Z" fill="white"/>
<defs>
<radialGradient id="paint0_diamond_13962_53354" cx="0" cy="0" r="1" gradientUnits="userSpaceOnUse" gradientTransform="translate(38.0504 56) rotate(-56.547) scale(230.302 61.9014)">
<stop stop-color="#1A4549"/>
<stop offset="0.840538" stop-color="#020F19"/>
</radialGradient>
</defs>
</svg>
