<svg width="57" height="56" viewBox="0 0 57 56" fill="none" xmlns="http://www.w3.org/2000/svg">
<circle cx="28.3359" cy="28" r="28" fill="url(#paint0_diamond_13962_53365)"/>
<path opacity="0.4" d="M43.7901 32.1548H40.6521C40.5149 32.1553 40.3791 32.1282 40.2528 32.075C40.1264 32.0218 40.012 31.9436 39.9166 31.8452L37.8521 29.7419C37.7118 29.5973 37.6339 29.4034 37.6351 29.2019C37.6363 29.0004 37.7165 28.8075 37.8585 28.6645L38.665 27.8581V27.2968C38.6648 27.1034 38.5883 26.9179 38.4521 26.7806L37.8456 26.1742C37.7084 26.038 37.5229 25.9615 37.3295 25.9613H36.2972C36.153 25.9612 36.012 25.9184 35.8921 25.8383C35.7722 25.7581 35.6787 25.6443 35.6235 25.511C35.5682 25.3778 35.5537 25.2312 35.5818 25.0897C35.6098 24.9482 35.6792 24.8182 35.7811 24.7161L36.3875 24.1097C36.5248 23.9735 36.7103 23.8969 36.9037 23.8968H38.9682C39.1613 23.8959 39.3462 23.8188 39.4828 23.6823C39.6193 23.5458 39.6964 23.3608 39.6972 23.1677V22.5613C39.6964 22.3682 39.6193 22.1833 39.4828 22.0467C39.3462 21.9102 39.1613 21.8331 38.9682 21.8323H36.6004C36.3267 21.8323 36.0641 21.941 35.8705 22.1346C35.6769 22.3282 35.5682 22.5907 35.5682 22.8645V23.1548C35.5687 23.3714 35.501 23.5826 35.3748 23.7586C35.2486 23.9346 35.0702 24.0665 34.865 24.1355L32.8263 24.8129C32.723 24.8469 32.6331 24.9126 32.5694 25.0006C32.5057 25.0886 32.4714 25.1945 32.4714 25.3032V25.4452C32.4714 25.5821 32.417 25.7133 32.3202 25.8101C32.2235 25.9069 32.0922 25.9613 31.9553 25.9613H30.923C30.7861 25.9613 30.6549 25.9069 30.5581 25.8101C30.4613 25.7133 30.4069 25.5821 30.4069 25.4452C30.4069 25.3083 30.3525 25.177 30.2557 25.0802C30.1589 24.9834 30.0277 24.929 29.8908 24.929H29.6908C29.5948 24.9294 29.5008 24.956 29.4189 25.0061C29.337 25.0561 29.2704 25.1277 29.2263 25.2129L28.6198 26.4194C28.5341 26.5905 28.4023 26.7343 28.2393 26.8346C28.0763 26.9349 27.8886 26.9877 27.6972 26.9871H26.2714C25.9976 26.9871 25.7351 26.8783 25.5415 26.6848C25.3479 26.4912 25.2392 26.2286 25.2392 25.9548V24.3226C25.2396 24.049 25.3487 23.7868 25.5424 23.5936L26.8392 22.2968C27.1373 21.9967 27.3044 21.5907 27.3037 21.1677C27.3037 21.0591 27.338 20.9532 27.4017 20.8651C27.4654 20.7771 27.5553 20.7114 27.6585 20.6774L30.2392 19.8194C30.3456 19.7832 30.4426 19.7237 30.523 19.6452L32.2521 17.9161C32.354 17.8141 32.4233 17.6841 32.4514 17.5426C32.4794 17.4011 32.4649 17.2545 32.4097 17.1212C32.3545 16.988 32.261 16.8741 32.1411 16.794C32.0211 16.7138 31.8802 16.671 31.7359 16.671H30.4004L29.3682 17.7032V18.2194C29.3682 18.3562 29.3138 18.4875 29.217 18.5843C29.1202 18.6811 28.9889 18.7355 28.8521 18.7355H27.8198C27.6829 18.7355 27.5516 18.6811 27.4548 18.5843C27.3581 18.4875 27.3037 18.3562 27.3037 18.2194V16.929C27.3039 16.849 27.3227 16.77 27.3585 16.6984C27.3943 16.6268 27.4462 16.5644 27.5101 16.5161L32.8275 12.64C31.3684 12.2142 29.8559 11.9987 28.3359 12C19.4972 12 12.3359 19.1613 12.3359 28C12.3359 36.8387 19.4972 44 28.3359 44C29.0284 43.9999 29.7201 43.9555 30.4069 43.8671V40.4129C30.4069 40.1391 30.2981 39.8766 30.1046 39.683C29.911 39.4894 29.6484 39.3806 29.3746 39.3806H28.0714C27.3746 39.3806 26.3488 39.0387 25.7875 38.6194L24.3553 37.5419C23.9904 37.2688 23.6943 36.9143 23.4905 36.5066C23.2866 36.0989 23.1807 35.6493 23.1811 35.1936V33.6516C23.1811 33.1448 23.3124 32.6466 23.5623 32.2056C23.8122 31.7646 24.1721 31.3959 24.6069 31.1355L27.3746 29.4774C27.8314 29.2053 28.3527 29.0605 28.8843 29.0581H30.8972C31.5971 29.0579 32.2742 29.3073 32.8069 29.7613L35.594 32.1548H36.7746C37.3218 32.1558 37.8463 32.3739 38.2327 32.7613L39.3488 33.8774L39.354 33.8826C40.2069 34.649 40.723 35.7174 40.723 36.8626V38.129C42.158 36.378 43.2035 34.3414 43.7901 32.1548ZM24.4263 21.6194C24.289 21.7556 24.1035 21.8321 23.9101 21.8323H22.8779C22.7336 21.8322 22.5927 21.7894 22.4727 21.7093C22.3528 21.6291 22.2593 21.5152 22.2041 21.382C22.1489 21.2487 22.1344 21.1021 22.1624 20.9607C22.1905 20.8192 22.2598 20.6892 22.3617 20.5871L24.0005 18.9484C24.1025 18.8465 24.2325 18.7771 24.374 18.7491C24.5155 18.721 24.6621 18.7355 24.7953 18.7908C24.9286 18.846 25.0425 18.9395 25.1226 19.0594C25.2027 19.1793 25.2456 19.3203 25.2456 19.4645V20.4968C25.2455 20.6902 25.1689 20.8757 25.0327 21.0129L24.4263 21.6194Z" fill="white"/>
<path d="M24.4262 21.6195L25.0326 21.013C25.1689 20.8758 25.2454 20.6903 25.2456 20.4969V19.4647C25.2455 19.3204 25.2027 19.1794 25.1225 19.0595C25.0424 18.9396 24.9285 18.8461 24.7953 18.7909C24.662 18.7357 24.5154 18.7212 24.3739 18.7492C24.2325 18.7773 24.1025 18.8466 24.0004 18.9485L22.3617 20.5872C22.2598 20.6893 22.1904 20.8193 22.1624 20.9608C22.1343 21.1023 22.1488 21.2489 22.2041 21.3821C22.2593 21.5154 22.3528 21.6292 22.4727 21.7094C22.5926 21.7895 22.7336 21.8323 22.8778 21.8324H23.9101C24.1034 21.8322 24.2889 21.7557 24.4262 21.6195ZM39.3539 33.8827L39.3488 33.8776L38.2326 32.7614C37.8462 32.374 37.3218 32.1559 36.7746 32.155H35.5939L32.8068 29.7614C32.2741 29.3074 31.5971 29.0581 30.8972 29.0582H28.8843C28.3526 29.0606 27.8313 29.2054 27.3746 29.4776L24.6068 31.1356C24.172 31.3961 23.8121 31.7648 23.5622 32.2057C23.3124 32.6467 23.181 33.1449 23.181 33.6517V35.1937C23.1806 35.6495 23.2866 36.0991 23.4904 36.5067C23.6942 36.9144 23.9904 37.2689 24.3552 37.5421L25.7875 38.6195C26.3488 39.0388 27.3746 39.3808 28.0714 39.3808H29.3746C29.6484 39.3808 29.9109 39.4895 30.1045 39.6831C30.2981 39.8767 30.4068 40.1393 30.4068 40.413V43.8672C34.4521 43.3421 38.1432 41.289 40.723 38.1292V36.8627C40.723 35.7176 40.2068 34.6492 39.3539 33.8827ZM32.8275 12.6401L27.5101 16.5163C27.4461 16.5645 27.3943 16.6269 27.3584 16.6985C27.3226 16.7701 27.3039 16.8491 27.3036 16.9292V18.2195C27.3036 18.3564 27.358 18.4877 27.4548 18.5844C27.5516 18.6812 27.6829 18.7356 27.8197 18.7356H28.852C28.9889 18.7356 29.1202 18.6812 29.217 18.5844C29.3138 18.4877 29.3681 18.3564 29.3681 18.2195V17.7034L30.4004 16.6711H31.7359C31.8801 16.6712 32.0211 16.714 32.141 16.7941C32.2609 16.8743 32.3544 16.9881 32.4096 17.1214C32.4649 17.2546 32.4794 17.4012 32.4513 17.5427C32.4233 17.6842 32.3539 17.8142 32.252 17.9163L30.523 19.6453C30.4425 19.7238 30.3455 19.7834 30.2391 19.8195L27.6585 20.6776C27.5552 20.7115 27.4653 20.7772 27.4016 20.8652C27.3379 20.9533 27.3036 21.0592 27.3036 21.1679C27.3043 21.5909 27.1373 21.9969 26.8391 22.2969L25.5423 23.5937C25.3486 23.7869 25.2396 24.0491 25.2391 24.3227V25.955C25.2391 26.2287 25.3479 26.4913 25.5414 26.6849C25.735 26.8785 25.9976 26.9872 26.2714 26.9872H27.6972C27.8885 26.9878 28.0763 26.935 28.2393 26.8347C28.4023 26.7344 28.534 26.5906 28.6197 26.4195L29.2262 25.213C29.2703 25.1278 29.3369 25.0563 29.4188 25.0062C29.5007 24.9562 29.5947 24.9295 29.6907 24.9292H29.8907C30.0276 24.9292 30.1589 24.9835 30.2557 25.0803C30.3525 25.1771 30.4068 25.3084 30.4068 25.4453C30.4068 25.5822 30.4612 25.7135 30.558 25.8103C30.6548 25.907 30.7861 25.9614 30.923 25.9614H31.9552C32.0921 25.9614 32.2234 25.907 32.3202 25.8103C32.417 25.7135 32.4714 25.5822 32.4714 25.4453V25.3034C32.4713 25.1947 32.5056 25.0888 32.5694 25.0007C32.6331 24.9127 32.723 24.847 32.8262 24.813L34.8649 24.1356C35.0702 24.0666 35.2485 23.9347 35.3747 23.7588C35.5009 23.5828 35.5686 23.3715 35.5681 23.155V22.8647C35.5681 22.5909 35.6769 22.3283 35.8705 22.1347C36.0641 21.9411 36.3266 21.8324 36.6004 21.8324H38.9681C39.1612 21.8332 39.3462 21.9103 39.4827 22.0469C39.6192 22.1834 39.6963 22.3683 39.6972 22.5614V23.1679C39.6963 23.361 39.6192 23.5459 39.4827 23.6824C39.3462 23.819 39.1612 23.8961 38.9681 23.8969H36.9036C36.7102 23.8971 36.5247 23.9736 36.3875 24.1098L35.781 24.7163C35.6791 24.8183 35.6098 24.9483 35.5817 25.0898C35.5537 25.2313 35.5682 25.3779 35.6234 25.5112C35.6786 25.6444 35.7721 25.7583 35.892 25.8384C36.0119 25.9186 36.1529 25.9614 36.2972 25.9614H37.3294C37.5228 25.9616 37.7083 26.0381 37.8455 26.1743L38.452 26.7808C38.5882 26.918 38.6647 27.1035 38.6649 27.2969V27.8582L37.8585 28.6646C37.7164 28.8076 37.6362 29.0006 37.635 29.202C37.6338 29.4035 37.7117 29.5974 37.852 29.7421L39.9165 31.8453C40.012 31.9437 40.1263 32.0219 40.2527 32.0751C40.3791 32.1283 40.5149 32.1555 40.652 32.155H43.7901C44.1531 30.7999 44.3367 29.403 44.3359 28.0001C44.3359 20.7214 39.4785 14.5808 32.8275 12.6401Z" fill="white"/>
<defs>
<radialGradient id="paint0_diamond_13962_53365" cx="0" cy="0" r="1" gradientUnits="userSpaceOnUse" gradientTransform="translate(37.7223 56) rotate(-56.547) scale(230.302 61.9014)">
<stop stop-color="#1A4549"/>
<stop offset="0.840538" stop-color="#020F19"/>
</radialGradient>
</defs>
</svg>
