<svg width="56" height="56" viewBox="0 0 56 56" fill="none" xmlns="http://www.w3.org/2000/svg">
<circle cx="28" cy="28" r="28" fill="url(#paint0_diamond_11186_104986)"/>
<path d="M25.9505 22.75V28C25.9505 28.9625 26.7872 29.75 27.7005 29.75C28.6137 29.75 29.4505 28.9625 29.4505 28.0492V22.75C29.4505 17.9173 25.5332 14 20.7005 14H17.248C17.248 18.8333 21.1653 22.75 25.9505 22.75Z" fill="white"/>
<path opacity="0.4" d="M43.0734 32.3914C42.3559 31.4174 40.9877 31.2069 40.0148 31.9283L33.4687 36.7501H26.8734C26.395 36.7501 26.0476 36.3536 26.0476 35.8756C26.0476 35.3971 26.4441 35.0006 26.8734 35.0006H31.1527C31.9784 35.0006 32.8343 34.4056 32.9776 33.5448C33.1553 32.4511 32.3148 31.5006 31.2484 31.5006H22.4508C21.0234 31.5006 19.5458 32.0065 18.3973 32.9361L15.8544 35.0001L12.8258 34.9508C12.3474 34.9508 12 35.3486 12 35.8269L12 41.125C12 41.6063 12.3965 42 12.8258 42H31.7531C32.9579 42 34.155 41.6069 35.1273 40.8915L42.5156 35.449C43.582 34.732 43.7898 33.3648 43.0734 32.3914ZM29.4508 22.75C34.2841 22.75 38.2008 18.8327 38.2008 14H34.7008C31.8242 14 29.2955 15.406 27.75 17.5487C28.8328 19.0061 29.4508 20.7922 29.4508 22.75Z" fill="white"/>
<defs>
<radialGradient id="paint0_diamond_11186_104986" cx="0" cy="0" r="1" gradientUnits="userSpaceOnUse" gradientTransform="translate(37.3864 56) rotate(-56.547) scale(230.302 61.9014)">
<stop stop-color="#1A4549"/>
<stop offset="0.840538" stop-color="#020F19"/>
</radialGradient>
</defs>
</svg>
