<svg width="56" height="56" viewBox="0 0 56 56" fill="none" xmlns="http://www.w3.org/2000/svg">
<circle cx="28" cy="28" r="28" fill="url(#paint0_diamond_11186_34798)"/>
<path d="M42.9998 25.6737C42.9998 25.3149 42.8625 24.956 42.5879 24.6818L41.2596 23.3593C40.9849 23.0847 40.6245 22.9475 40.3163 22.9475C40.0081 22.9475 39.595 23.0848 39.3729 23.3593L39.0433 23.6889L32.3124 17.0593L32.642 16.7298C32.9166 16.4551 33.0539 16.0946 33.0539 15.7864C33.0539 15.4782 32.9166 15.0651 32.642 14.8431L31.3166 13.5177C31.0409 13.1373 30.6835 13 30.3261 13C29.9687 13 29.6142 13.1373 29.3394 13.412L22.0352 20.705C21.7656 20.9804 21.625 21.3378 21.625 21.7011C21.625 22.0644 21.7623 22.4189 22.037 22.6937L23.3624 24.0191C23.637 24.2937 23.9975 24.431 24.3057 24.431C24.6664 24.431 25.027 24.2937 25.2491 24.0191L25.5786 23.6895L32.2055 30.3164L31.876 30.6457C31.6013 30.9204 31.464 31.2809 31.464 31.5891C31.464 31.8973 31.6013 32.3104 31.876 32.5324L33.2013 33.8578C33.476 34.1325 33.8347 34.2698 34.1939 34.2698C34.5531 34.2698 34.9117 34.1324 35.1865 33.8578L42.4813 26.5571C42.8651 26.3886 42.9998 26.037 42.9998 25.6737Z" fill="white"/>
<path opacity="0.4" d="M25.5738 33.0748C25.94 33.441 26.1231 33.9208 26.1231 34.4001C26.1231 34.8798 25.94 35.3593 25.5737 35.7255L18.8531 42.4462C18.4852 42.8188 18.0053 43.0005 17.526 43.0005C17.0467 43.0005 16.5669 42.8174 16.2007 42.4511L13.5493 39.7998C13.1831 39.4337 13 38.9543 13 38.4744C13 37.9945 13.1831 37.5152 13.5493 37.149L20.2711 30.4263C20.6373 30.0602 21.1172 29.8772 21.5965 29.8772C22.0758 29.8772 22.5563 30.0572 22.9254 30.4263L27.675 25.6768L30.3263 28.3281L25.5738 33.0748Z" fill="white"/>
<defs>
<radialGradient id="paint0_diamond_11186_34798" cx="0" cy="0" r="1" gradientUnits="userSpaceOnUse" gradientTransform="translate(37.3864 56) rotate(-56.547) scale(230.302 61.9014)">
<stop stop-color="#1A4549"/>
<stop offset="0.840538" stop-color="#020F19"/>
</radialGradient>
</defs>
</svg>
