<svg width="56" height="56" viewBox="0 0 56 56" fill="none" xmlns="http://www.w3.org/2000/svg">
<circle cx="28" cy="28" r="28" fill="url(#paint0_diamond_11186_34778)"/>
<path d="M18.5466 22.6724C18.3016 22.939 17.9561 23.1001 17.5905 23.0612C17.225 23.1224 16.8716 22.9779 16.6128 22.6724L14.3905 20.4502C13.8698 19.9779 13.8698 19.1335 14.3905 18.6129C14.9111 18.0924 15.7555 18.0924 16.2761 18.6129L17.5044 19.839L20.5666 16.4413C21.0555 15.8941 21.8999 15.8496 22.4499 16.3424C22.9944 16.8352 23.0388 17.6779 22.5444 18.2257L18.5466 22.6724ZM18.5466 31.5612C18.3016 31.8278 17.9561 31.9889 17.5905 31.9501C17.225 32.0112 16.8716 31.8667 16.6128 31.5612L14.3905 29.339C13.8698 28.8668 13.8698 28.0223 14.3905 27.5001C14.9111 26.9834 15.7555 26.9834 16.2761 27.5001L17.5044 28.7279L20.5666 25.3279C21.0555 24.7835 21.8999 24.739 22.4499 25.2334C22.9944 25.7223 23.0388 26.5668 22.5444 27.1168L18.5466 31.5612ZM14 37.3334C14 35.8611 15.1939 34.6667 16.6666 34.6667C18.1394 34.6667 19.3333 35.8611 19.3333 37.3334C19.3333 38.8056 18.1394 40 16.6666 40C15.1939 40 14 38.8056 14 37.3334Z" fill="white"/>
<path opacity="0.4" d="M24.6664 35.556H40.6663C41.6496 35.556 42.4441 36.3504 42.4441 37.3337C42.4441 38.3171 41.6496 39.1115 40.6663 39.1115H24.6664C23.6831 39.1115 22.8887 38.3171 22.8887 37.3337C22.8887 36.3504 23.6831 35.556 24.6664 35.556ZM28.222 26.6671H40.6663C41.6496 26.6671 42.4441 27.4616 42.4441 28.4449C42.4441 29.4282 41.6496 30.2227 40.6663 30.2227H28.222C27.2386 30.2227 26.4442 29.4282 26.4442 28.4449C26.4442 27.4616 27.2386 26.6671 28.222 26.6671ZM28.222 21.3338C27.2386 21.3338 26.4442 20.5394 26.4442 19.5561C26.4442 18.5744 27.2386 17.7783 28.222 17.7783H40.6663C41.6496 17.7783 42.4441 18.5744 42.4441 19.5561C42.4441 20.5394 41.6496 21.3338 40.6663 21.3338H28.222Z" fill="white"/>
<defs>
<radialGradient id="paint0_diamond_11186_34778" cx="0" cy="0" r="1" gradientUnits="userSpaceOnUse" gradientTransform="translate(37.3864 56) rotate(-56.547) scale(230.302 61.9014)">
<stop stop-color="#1A4549"/>
<stop offset="0.840538" stop-color="#020F19"/>
</radialGradient>
</defs>
</svg>
