<svg width="56" height="56" viewBox="0 0 56 56" fill="none" xmlns="http://www.w3.org/2000/svg">
<circle cx="28" cy="28" r="28" fill="url(#paint0_diamond_11186_104976)"/>
<path d="M31.5709 19.4286C31.5709 21.3196 30.0334 22.8571 28.1423 22.8571C26.2512 22.8571 24.7137 21.3196 24.7137 19.4286C24.7137 17.5348 26.2512 16 28.1423 16C30.0334 16 31.5709 17.5348 31.5709 19.4286ZM31.5709 38.2857C31.5709 39.2339 30.8048 40 29.8566 40H26.428C25.4798 40 24.7137 39.2339 24.7137 38.2857V35.9929C22.6887 35.0286 21.2852 32.9661 21.2852 30.5714C21.2852 27.2554 23.9691 24.5714 27.2852 24.5714H28.9994C32.3155 24.5714 34.9994 27.2554 34.9994 30.5714C34.9994 32.9661 33.5959 35.0286 31.5709 35.9929V38.2857ZM24.7137 28.3054C24.178 28.9054 23.8566 29.7036 23.8566 30.5714C23.8566 31.4393 24.178 32.2375 24.7137 32.8375V28.3054ZM32.428 30.5714C32.428 29.7036 32.0584 28.9054 31.5709 28.3054V32.8375C32.0584 32.2321 32.428 31.4393 32.428 30.5714Z" fill="white"/>
<path opacity="0.4" d="M14.4286 19.4286C14.4286 17.5348 15.9634 16 17.8571 16C19.7482 16 21.2857 17.5348 21.2857 19.4286C21.2857 21.3196 19.7482 22.8571 17.8571 22.8571C15.9634 22.8571 14.4286 21.3196 14.4286 19.4286ZM21.2857 35.4196V38.2857C21.2857 39.2339 20.5196 40 19.5714 40H16.1429C15.1962 40 14.4286 39.2339 14.4286 38.2857V35.9929C12.4014 35.0286 11 32.9661 11 30.5714C11 27.2554 13.6861 24.5714 17 24.5714H18.7143C19.7696 24.5714 20.7661 24.8446 21.6286 25.3268C20.3536 26.7036 19.5714 28.5464 19.5714 30.5714C19.5714 32.4089 20.1661 34.0964 21.2857 35.4196ZM14.4286 32.8375V28.3054C13.895 28.9054 13.5714 29.7036 13.5714 30.5714C13.5714 31.4393 13.895 32.2375 14.4286 32.8375ZM35 35.4196C36.0714 34.0964 36.7143 32.4089 36.7143 30.5714C36.7143 28.5464 35.9321 26.7036 34.6571 25.3268C35.5196 24.8446 36.5161 24.5714 37.5714 24.5714H39.2857C42.6018 24.5714 45.2857 27.2554 45.2857 30.5714C45.2857 32.9661 43.8821 35.0286 41.8571 35.9929V38.2857C41.8571 39.2339 41.0911 40 40.1429 40H36.7143C35.7661 40 35 39.2339 35 38.2857V35.4196ZM42.7143 30.5714C42.7143 29.7036 42.3446 28.9054 41.8571 28.3054V32.8375C42.3446 32.2321 42.7143 31.4393 42.7143 30.5714ZM35 19.4286C35 17.5348 36.5375 16 38.4286 16C40.3196 16 41.8571 17.5348 41.8571 19.4286C41.8571 21.3196 40.3196 22.8571 38.4286 22.8571C36.5375 22.8571 35 21.3196 35 19.4286Z" fill="white"/>
<defs>
<radialGradient id="paint0_diamond_11186_104976" cx="0" cy="0" r="1" gradientUnits="userSpaceOnUse" gradientTransform="translate(37.3864 56) rotate(-56.547) scale(230.302 61.9014)">
<stop stop-color="#1A4549"/>
<stop offset="0.840538" stop-color="#020F19"/>
</radialGradient>
</defs>
</svg>
