<svg width="56" height="56" viewBox="0 0 56 56" fill="none" xmlns="http://www.w3.org/2000/svg">
<circle cx="28" cy="28" r="28" fill="url(#paint0_linear_11186_104432)"/>
<path d="M26.487 34.3712C26.2994 31.7086 24.1853 29.6553 21.5508 29.51C22.554 27.2646 24.2884 23.5754 25.7135 21.4706C29.5527 15.8092 35.2717 15.6183 38.6844 16.2473C39.2329 16.3476 39.6548 16.7702 39.7532 17.3154C40.3814 20.7299 40.1938 26.4489 34.5311 30.2882C32.4357 31.7039 28.7605 33.3868 26.487 34.3712ZM34.0014 20.1252C32.9654 20.1252 32.1263 20.9643 32.1263 22.0003C32.1263 23.0363 32.9654 23.8754 34.0014 23.8754C35.0374 23.8754 35.8765 23.0363 35.8765 22.0003C35.8765 20.9643 35.0374 20.1252 34.0014 20.1252Z" fill="white"/>
<path opacity="0.4" d="M17.0829 29.5008C16.7186 29.5008 16.3438 29.2805 16.1445 28.9289C15.9453 28.5727 15.9525 28.0992 16.1635 27.7898L18.6373 23.7209C19.2491 22.713 20.3427 22.0942 21.5222 22.0942H25.3098C23.9738 24.2459 22.4644 27.4617 21.555 29.5008H17.0829ZM33.8649 34.4792C33.8649 35.6605 33.2883 36.7527 32.2805 37.3668L28.2115 39.8373C27.8599 40.0482 27.4287 40.0576 27.0724 39.856C26.7208 39.6591 26.4583 39.2841 26.4583 38.8763V34.3667C28.5584 33.476 31.7695 32.0088 33.8649 30.6915V34.4792ZM23.8051 38.0325C21.4846 40.3529 16.0224 39.9779 16.0224 39.9779C16.0224 39.9779 15.6477 34.4745 17.9679 32.1963C19.58 30.5837 22.1925 30.5837 23.8051 32.1963C25.4176 33.8089 25.4176 36.4199 23.8051 38.0325ZM21.6159 34.3854C21.0768 33.851 20.2101 33.851 19.6743 34.3854C18.9027 35.1589 19.0273 36.9731 19.0273 36.9731C19.0273 36.9731 20.8424 37.0996 21.6159 36.3262C22.1503 35.7918 22.1503 34.9245 21.6159 34.3854Z" fill="white"/>
<defs>
<linearGradient id="paint0_linear_11186_104432" x1="28" y1="0" x2="28" y2="56" gradientUnits="userSpaceOnUse">
<stop stop-color="#00DAF9"/>
<stop offset="1" stop-color="#00AFC8"/>
</linearGradient>
</defs>
</svg>
