<svg width="56" height="56" viewBox="0 0 56 56" fill="none" xmlns="http://www.w3.org/2000/svg">
<circle cx="28" cy="28" r="28" fill="url(#paint0_linear_11186_104422)"/>
<path d="M32.2004 21.1814L31.6691 18.0152C31.5629 17.3783 31.7691 16.7289 32.2254 16.2727L35.4254 13.0727C35.8816 12.5649 36.7941 12.7414 37.0629 13.4083L38.5004 17.0002L42.0941 18.3814C42.7566 18.7064 42.8816 19.5627 42.4254 20.0752L39.2254 23.2752C38.7691 23.7314 38.1191 23.8814 37.4879 23.8314L34.3191 23.3002L28.5066 29.0064C27.9754 29.6439 27.0254 29.6439 26.4379 29.0064C25.8566 28.4752 25.8566 27.5252 26.4379 26.9377L32.2004 21.1814Z" fill="white"/>
<path opacity="0.4" d="M34.4 25.3438L36.1875 25.6438C36.3937 26.3938 36.5 27.1812 36.5 28C36.5 32.9688 32.4688 37 27.5 37C22.5312 37 18.5 32.9688 18.5 28C18.5 23.0312 22.5312 19 27.5 19C28.3188 19 29.1063 19.1062 29.8563 19.2562L30.1562 21.1L28.2062 23.05C27.975 23.0188 27.7375 22.9438 27.5 22.9438C24.7375 22.9438 22.5 25.2375 22.5 27.9438C22.5 30.7625 24.7375 33 27.5 33C30.2625 33 32.5 30.7625 32.5 27.9438C32.5 27.7625 32.4813 27.525 32.45 27.2937L34.4 25.3438ZM42.6063 22.7188C43.1313 24.3188 43.5 26.15 43.5 28C43.5 36.8375 36.3375 44 27.5 44C18.6625 44 11.5 36.8375 11.5 28C11.5 19.1625 18.6625 12 27.5 12C29.35 12 31.125 12.314 32.7812 12.8919L29.5063 16.1669C28.85 16.0569 28.1812 16 27.5 16C20.8188 16 15.5 21.3188 15.5 28C15.5 34.625 20.8188 40 27.5 40C34.125 40 39.5 34.625 39.5 28C39.5 27.3188 39.4437 26.65 39.3312 25.9937L42.6063 22.7188Z" fill="white"/>
<defs>
<linearGradient id="paint0_linear_11186_104422" x1="28" y1="0" x2="28" y2="56" gradientUnits="userSpaceOnUse">
<stop stop-color="#00DAF9"/>
<stop offset="1" stop-color="#00AFC8"/>
</linearGradient>
</defs>
</svg>
