<svg width="56" height="56" viewBox="0 0 56 56" fill="none" xmlns="http://www.w3.org/2000/svg">
<circle cx="28" cy="28" r="28" fill="url(#paint0_linear_11186_104442)"/>
<path d="M24.4458 28.4449C26.407 28.4449 28.0015 26.8504 28.0015 24.8892C28.0015 24.2503 27.7849 23.6502 27.5348 23.1336C27.6904 23.1169 27.846 23.1113 28.0015 23.1113C30.9461 23.1113 33.3351 25.4503 33.3351 28.4449C33.3351 31.3895 30.9461 33.7785 28.0015 33.7785C25.007 33.7785 22.668 31.3895 22.668 28.4449C22.668 28.2893 22.6735 28.1338 22.6902 27.9782C23.2069 28.2282 23.8069 28.4449 24.4458 28.4449Z" fill="white"/>
<path opacity="0.4" d="M17.3013 20.478C19.917 18.0468 23.5116 16 28.0007 16C32.4898 16 36.0844 18.0468 38.7012 20.478C41.3013 22.8892 43.0402 25.7282 43.8625 27.7616C44.0458 28.2005 44.0458 28.6894 43.8625 29.1283C43.0402 31.1118 41.3013 33.9508 38.7012 36.412C36.0844 38.8454 32.4898 40.89 28.0007 40.89C23.5116 40.89 19.917 38.8454 17.3013 36.412C14.7012 33.9508 12.9634 31.1118 12.1367 29.1283C11.9544 28.6894 11.9544 28.2005 12.1367 27.7616C12.9634 25.7282 14.7012 22.8892 17.3013 20.478ZM28.0007 36.4453C32.4176 36.4453 36.001 32.8618 36.001 28.445C36.001 24.0281 32.4176 20.4446 28.0007 20.4446C23.5838 20.4446 20.0004 24.0281 20.0004 28.445C20.0004 32.8618 23.5838 36.4453 28.0007 36.4453Z" fill="white"/>
<defs>
<linearGradient id="paint0_linear_11186_104442" x1="28" y1="0" x2="28" y2="56" gradientUnits="userSpaceOnUse">
<stop stop-color="#00DAF9"/>
<stop offset="1" stop-color="#00AFC8"/>
</linearGradient>
</defs>
</svg>
