<svg width="16" height="17" viewBox="0 0 16 17" fill="none" xmlns="http://www.w3.org/2000/svg">
<path d="M9.21875 6.57422C8.925 6.86797 8.925 7.34297 9.21875 7.63359C9.5125 7.92422 9.9875 7.92734 10.2781 7.63359L14.4969 3.41484V6.10547C14.4969 6.52109 14.8313 6.85547 15.2469 6.85547C15.6625 6.85547 15.9969 6.52109 15.9969 6.10547V1.60547C15.9969 1.18984 15.6625 0.855469 15.2469 0.855469H10.75C10.3344 0.855469 10 1.18984 10 1.60547C10 2.02109 10.3344 2.35547 10.75 2.35547H13.4406L9.21875 6.57422ZM6.78125 11.1367C7.075 10.843 7.075 10.368 6.78125 10.0773C6.4875 9.78672 6.0125 9.78359 5.72188 10.0773L1.5 14.2961V11.6055C1.5 11.1898 1.16562 10.8555 0.75 10.8555C0.334375 10.8555 0 11.1898 0 11.6055V16.1055C0 16.5211 0.334375 16.8555 0.75 16.8555H5.25C5.66563 16.8555 6 16.5211 6 16.1055C6 15.6898 5.66563 15.3555 5.25 15.3555H2.55938L6.78125 11.1367Z" fill="#00734F"/>
</svg>
