<svg width="39" height="30" viewBox="0 0 39 30" fill="none" xmlns="http://www.w3.org/2000/svg">
<g opacity="0.4">
<path d="M1.48711 12.2385L31.2889 29.1489C31.7278 29.3977 32.2466 29.4648 32.7343 29.3359C33.222 29.2069 33.6398 28.8922 33.8984 28.4591L38.6734 20.323C38.7977 20.1088 38.8782 19.872 38.91 19.6264C38.9419 19.3808 38.9245 19.1313 38.859 18.8925C38.7934 18.6537 38.681 18.4303 38.5282 18.2354C38.3754 18.0405 38.1854 17.878 37.9691 17.7573L33.83 15.4118L30.2487 21.4945C30.1848 21.604 30.0802 21.6837 29.9577 21.7163C29.8352 21.7489 29.7047 21.7317 29.5949 21.6685L28.767 21.2006C28.7131 21.1702 28.6658 21.1294 28.6278 21.0806C28.5898 21.0317 28.5619 20.9758 28.5457 20.9161C28.5295 20.8563 28.5254 20.794 28.5335 20.7326C28.5416 20.6713 28.5619 20.6122 28.5931 20.5587L32.1683 14.4688L28.8576 12.59L27.1894 15.4298C27.1255 15.5393 27.0208 15.619 26.8983 15.6516C26.7758 15.6842 26.6454 15.667 26.5355 15.6037L25.7077 15.1358C25.6536 15.1056 25.6062 15.0648 25.5681 15.016C25.53 14.9672 25.502 14.9112 25.4858 14.8515C25.4696 14.7917 25.4655 14.7293 25.4737 14.6679C25.482 14.6065 25.5024 14.5474 25.5337 14.494L27.2092 11.6506L23.8985 9.77236L20.3172 15.8719C20.2533 15.9814 20.1487 16.0611 20.0261 16.0937C19.9036 16.1263 19.7732 16.1091 19.6633 16.0459L18.8355 15.578C18.7816 15.5476 18.7343 15.5068 18.6963 15.4579C18.6583 15.4091 18.6303 15.3532 18.6142 15.2934C18.598 15.2337 18.5938 15.1714 18.602 15.11C18.6101 15.0487 18.6303 14.9895 18.6615 14.9361L22.2488 8.83656L18.9375 6.95955L17.2638 9.79696C17.1999 9.90644 17.0953 9.98618 16.9728 10.0188C16.8503 10.0514 16.7198 10.0342 16.61 9.97092L15.7821 9.50302C15.7281 9.47276 15.6807 9.43202 15.6426 9.38319C15.6045 9.33436 15.5765 9.27841 15.5603 9.21864C15.5441 9.15886 15.54 9.09646 15.5482 9.03507C15.5564 8.97369 15.5768 8.91456 15.6082 8.86115L17.2812 6.01895L13.9705 4.14014L10.3893 10.2343C10.3253 10.3437 10.2207 10.4235 10.0982 10.4561C9.97569 10.4887 9.84526 10.4715 9.7354 10.4082L8.90757 9.94033C8.85353 9.91007 8.80608 9.86933 8.76798 9.8205C8.72989 9.77167 8.70193 9.71572 8.68572 9.65595C8.66952 9.59617 8.66541 9.53376 8.67363 9.47238C8.68186 9.411 8.70224 9.35187 8.7336 9.29846L12.3137 3.19893L8.17452 0.851024C7.73567 0.602261 7.21688 0.535165 6.72918 0.664096C6.24149 0.793027 5.82364 1.10774 5.56506 1.54088L0.790051 9.66919C0.66404 9.88287 0.582062 10.1196 0.548931 10.3655C0.515804 10.6113 0.5322 10.8613 0.597157 11.1007C0.662109 11.3401 0.774311 11.5641 0.927151 11.7595C1.07999 11.9549 1.27038 12.1178 1.48711 12.2385Z" fill="white"/>
<path d="M1.48711 12.2385L31.2889 29.1489C31.7278 29.3977 32.2466 29.4648 32.7343 29.3359C33.222 29.2069 33.6398 28.8922 33.8984 28.4591L38.6734 20.323C38.7977 20.1088 38.8782 19.872 38.91 19.6264C38.9419 19.3808 38.9245 19.1313 38.859 18.8925C38.7934 18.6537 38.681 18.4303 38.5282 18.2354C38.3754 18.0405 38.1854 17.878 37.9691 17.7573L33.83 15.4118L30.2487 21.4945C30.1848 21.604 30.0802 21.6837 29.9577 21.7163C29.8352 21.7489 29.7047 21.7317 29.5949 21.6685L28.767 21.2006C28.7131 21.1702 28.6658 21.1294 28.6278 21.0806C28.5898 21.0317 28.5619 20.9758 28.5457 20.9161C28.5295 20.8563 28.5254 20.794 28.5335 20.7326C28.5416 20.6713 28.5619 20.6122 28.5931 20.5587L32.1683 14.4688L28.8576 12.59L27.1894 15.4298C27.1255 15.5393 27.0208 15.619 26.8983 15.6516C26.7758 15.6842 26.6454 15.667 26.5355 15.6037L25.7077 15.1358C25.6536 15.1056 25.6062 15.0648 25.5681 15.016C25.53 14.9672 25.502 14.9112 25.4858 14.8515C25.4696 14.7917 25.4655 14.7293 25.4737 14.6679C25.482 14.6065 25.5024 14.5474 25.5337 14.494L27.2092 11.6506L23.8985 9.77236L20.3172 15.8719C20.2533 15.9814 20.1487 16.0611 20.0261 16.0937C19.9036 16.1263 19.7732 16.1091 19.6633 16.0459L18.8355 15.578C18.7816 15.5476 18.7343 15.5068 18.6963 15.4579C18.6583 15.4091 18.6303 15.3532 18.6142 15.2934C18.598 15.2337 18.5938 15.1714 18.602 15.11C18.6101 15.0487 18.6303 14.9895 18.6615 14.9361L22.2488 8.83656L18.9375 6.95955L17.2638 9.79696C17.1999 9.90644 17.0953 9.98618 16.9728 10.0188C16.8503 10.0514 16.7198 10.0342 16.61 9.97092L15.7821 9.50302C15.7281 9.47276 15.6807 9.43202 15.6426 9.38319C15.6045 9.33436 15.5765 9.27841 15.5603 9.21864C15.5441 9.15886 15.54 9.09646 15.5482 9.03507C15.5564 8.97369 15.5768 8.91456 15.6082 8.86115L17.2812 6.01895L13.9705 4.14014L10.3893 10.2343C10.3253 10.3437 10.2207 10.4235 10.0982 10.4561C9.97569 10.4887 9.84526 10.4715 9.7354 10.4082L8.90757 9.94033C8.85353 9.91007 8.80608 9.86933 8.76798 9.8205C8.72989 9.77167 8.70193 9.71572 8.68572 9.65595C8.66952 9.59617 8.66541 9.53376 8.67363 9.47238C8.68186 9.411 8.70224 9.35187 8.7336 9.29846L12.3137 3.19893L8.17452 0.851024C7.73567 0.602261 7.21688 0.535165 6.72918 0.664096C6.24149 0.793027 5.82364 1.10774 5.56506 1.54088L0.790051 9.66919C0.66404 9.88287 0.582062 10.1196 0.548931 10.3655C0.515804 10.6113 0.5322 10.8613 0.597157 11.1007C0.662109 11.3401 0.774311 11.5641 0.927151 11.7595C1.07999 11.9549 1.27038 12.1178 1.48711 12.2385Z" fill="url(#paint0_linear_17104_70528)" fill-opacity="0.88"/>
<path d="M1.48711 12.2385L31.2889 29.1489C31.7278 29.3977 32.2466 29.4648 32.7343 29.3359C33.222 29.2069 33.6398 28.8922 33.8984 28.4591L38.6734 20.323C38.7977 20.1088 38.8782 19.872 38.91 19.6264C38.9419 19.3808 38.9245 19.1313 38.859 18.8925C38.7934 18.6537 38.681 18.4303 38.5282 18.2354C38.3754 18.0405 38.1854 17.878 37.9691 17.7573L33.83 15.4118L30.2487 21.4945C30.1848 21.604 30.0802 21.6837 29.9577 21.7163C29.8352 21.7489 29.7047 21.7317 29.5949 21.6685L28.767 21.2006C28.7131 21.1702 28.6658 21.1294 28.6278 21.0806C28.5898 21.0317 28.5619 20.9758 28.5457 20.9161C28.5295 20.8563 28.5254 20.794 28.5335 20.7326C28.5416 20.6713 28.5619 20.6122 28.5931 20.5587L32.1683 14.4688L28.8576 12.59L27.1894 15.4298C27.1255 15.5393 27.0208 15.619 26.8983 15.6516C26.7758 15.6842 26.6454 15.667 26.5355 15.6037L25.7077 15.1358C25.6536 15.1056 25.6062 15.0648 25.5681 15.016C25.53 14.9672 25.502 14.9112 25.4858 14.8515C25.4696 14.7917 25.4655 14.7293 25.4737 14.6679C25.482 14.6065 25.5024 14.5474 25.5337 14.494L27.2092 11.6506L23.8985 9.77236L20.3172 15.8719C20.2533 15.9814 20.1487 16.0611 20.0261 16.0937C19.9036 16.1263 19.7732 16.1091 19.6633 16.0459L18.8355 15.578C18.7816 15.5476 18.7343 15.5068 18.6963 15.4579C18.6583 15.4091 18.6303 15.3532 18.6142 15.2934C18.598 15.2337 18.5938 15.1714 18.602 15.11C18.6101 15.0487 18.6303 14.9895 18.6615 14.9361L22.2488 8.83656L18.9375 6.95955L17.2638 9.79696C17.1999 9.90644 17.0953 9.98618 16.9728 10.0188C16.8503 10.0514 16.7198 10.0342 16.61 9.97092L15.7821 9.50302C15.7281 9.47276 15.6807 9.43202 15.6426 9.38319C15.6045 9.33436 15.5765 9.27841 15.5603 9.21864C15.5441 9.15886 15.54 9.09646 15.5482 9.03507C15.5564 8.97369 15.5768 8.91456 15.6082 8.86115L17.2812 6.01895L13.9705 4.14014L10.3893 10.2343C10.3253 10.3437 10.2207 10.4235 10.0982 10.4561C9.97569 10.4887 9.84526 10.4715 9.7354 10.4082L8.90757 9.94033C8.85353 9.91007 8.80608 9.86933 8.76798 9.8205C8.72989 9.77167 8.70193 9.71572 8.68572 9.65595C8.66952 9.59617 8.66541 9.53376 8.67363 9.47238C8.68186 9.411 8.70224 9.35187 8.7336 9.29846L12.3137 3.19893L8.17452 0.851024C7.73567 0.602261 7.21688 0.535165 6.72918 0.664096C6.24149 0.793027 5.82364 1.10774 5.56506 1.54088L0.790051 9.66919C0.66404 9.88287 0.582062 10.1196 0.548931 10.3655C0.515804 10.6113 0.5322 10.8613 0.597157 11.1007C0.662109 11.3401 0.774311 11.5641 0.927151 11.7595C1.07999 11.9549 1.27038 12.1178 1.48711 12.2385Z" fill="url(#paint1_linear_17104_70528)"/>
</g>
<path d="M32.1701 14.467L33.8293 15.41L30.2481 21.4928C30.1842 21.6023 30.0795 21.682 29.957 21.7146C29.8345 21.7472 29.7041 21.73 29.5942 21.6667L28.7664 21.1988C28.7125 21.1685 28.6651 21.1277 28.6271 21.0788C28.5891 21.03 28.5612 20.9741 28.545 20.9143C28.5289 20.8546 28.5247 20.7922 28.5328 20.7309C28.541 20.6695 28.5612 20.6104 28.5924 20.557L32.1701 14.467ZM22.2481 8.83542L23.8978 9.77182L20.3165 15.872C20.2526 15.9814 20.148 16.0612 20.0255 16.0938C19.903 16.1264 19.7726 16.1092 19.6627 16.0459L18.8349 15.578C18.7809 15.5476 18.7336 15.5068 18.6956 15.458C18.6576 15.4091 18.6297 15.3532 18.6135 15.2935C18.5973 15.2338 18.5932 15.1714 18.6013 15.1101C18.6094 15.0487 18.6297 14.9896 18.6609 14.9361L22.2481 8.83542ZM27.2085 11.6506L28.8594 12.5882L27.1911 15.428C27.1272 15.5375 27.0226 15.6173 26.9001 15.6499C26.7776 15.6825 26.6471 15.6653 26.5373 15.602L25.7094 15.1341C25.6554 15.1038 25.6079 15.0631 25.5698 15.0143C25.5318 14.9654 25.5038 14.9095 25.4876 14.8497C25.4714 14.79 25.4673 14.7275 25.4755 14.6662C25.4837 14.6048 25.5041 14.5456 25.5355 14.4922L27.2085 11.6506ZM8.73235 9.29732L12.3136 3.19659L13.9699 4.1402L10.3886 10.2349C10.3247 10.3444 10.2201 10.4242 10.0976 10.4567C9.97504 10.4893 9.84461 10.4721 9.73474 10.4089L8.90692 9.94099C8.85288 9.91073 8.80542 9.86999 8.76733 9.82116C8.72924 9.77233 8.70127 9.71638 8.68507 9.65661C8.66887 9.59683 8.66476 9.53442 8.67298 9.47304C8.6812 9.41165 8.70159 9.35253 8.73295 9.29912L8.73235 9.29732ZM17.2806 6.01601L18.9368 6.95961L17.2632 9.79702C17.1993 9.9065 17.0946 9.98624 16.9721 10.0188C16.8496 10.0514 16.7192 10.0342 16.6093 9.97098L15.7815 9.50308C15.7275 9.47282 15.68 9.43208 15.6419 9.38325C15.6038 9.33442 15.5758 9.27847 15.5596 9.2187C15.5434 9.15892 15.5393 9.09651 15.5476 9.03513C15.5558 8.97375 15.5762 8.91462 15.6075 8.86121L17.2806 6.01601Z" fill="white"/>
<path d="M32.1701 14.467L33.8293 15.41L30.2481 21.4928C30.1842 21.6023 30.0795 21.682 29.957 21.7146C29.8345 21.7472 29.7041 21.73 29.5942 21.6667L28.7664 21.1988C28.7125 21.1685 28.6651 21.1277 28.6271 21.0788C28.5891 21.03 28.5612 20.9741 28.545 20.9143C28.5289 20.8546 28.5247 20.7922 28.5328 20.7309C28.541 20.6695 28.5612 20.6104 28.5924 20.557L32.1701 14.467ZM22.2481 8.83542L23.8978 9.77182L20.3165 15.872C20.2526 15.9814 20.148 16.0612 20.0255 16.0938C19.903 16.1264 19.7726 16.1092 19.6627 16.0459L18.8349 15.578C18.7809 15.5476 18.7336 15.5068 18.6956 15.458C18.6576 15.4091 18.6297 15.3532 18.6135 15.2935C18.5973 15.2338 18.5932 15.1714 18.6013 15.1101C18.6094 15.0487 18.6297 14.9896 18.6609 14.9361L22.2481 8.83542ZM27.2085 11.6506L28.8594 12.5882L27.1911 15.428C27.1272 15.5375 27.0226 15.6173 26.9001 15.6499C26.7776 15.6825 26.6471 15.6653 26.5373 15.602L25.7094 15.1341C25.6554 15.1038 25.6079 15.0631 25.5698 15.0143C25.5318 14.9654 25.5038 14.9095 25.4876 14.8497C25.4714 14.79 25.4673 14.7275 25.4755 14.6662C25.4837 14.6048 25.5041 14.5456 25.5355 14.4922L27.2085 11.6506ZM8.73235 9.29732L12.3136 3.19659L13.9699 4.1402L10.3886 10.2349C10.3247 10.3444 10.2201 10.4242 10.0976 10.4567C9.97504 10.4893 9.84461 10.4721 9.73474 10.4089L8.90692 9.94099C8.85288 9.91073 8.80542 9.86999 8.76733 9.82116C8.72924 9.77233 8.70127 9.71638 8.68507 9.65661C8.66887 9.59683 8.66476 9.53442 8.67298 9.47304C8.6812 9.41165 8.70159 9.35253 8.73295 9.29912L8.73235 9.29732ZM17.2806 6.01601L18.9368 6.95961L17.2632 9.79702C17.1993 9.9065 17.0946 9.98624 16.9721 10.0188C16.8496 10.0514 16.7192 10.0342 16.6093 9.97098L15.7815 9.50308C15.7275 9.47282 15.68 9.43208 15.6419 9.38325C15.6038 9.33442 15.5758 9.27847 15.5596 9.2187C15.5434 9.15892 15.5393 9.09651 15.5476 9.03513C15.5558 8.97375 15.5762 8.91462 15.6075 8.86121L17.2806 6.01601Z" fill="url(#paint2_linear_17104_70528)" fill-opacity="0.88"/>
<path d="M32.1701 14.467L33.8293 15.41L30.2481 21.4928C30.1842 21.6023 30.0795 21.682 29.957 21.7146C29.8345 21.7472 29.7041 21.73 29.5942 21.6667L28.7664 21.1988C28.7125 21.1685 28.6651 21.1277 28.6271 21.0788C28.5891 21.03 28.5612 20.9741 28.545 20.9143C28.5289 20.8546 28.5247 20.7922 28.5328 20.7309C28.541 20.6695 28.5612 20.6104 28.5924 20.557L32.1701 14.467ZM22.2481 8.83542L23.8978 9.77182L20.3165 15.872C20.2526 15.9814 20.148 16.0612 20.0255 16.0938C19.903 16.1264 19.7726 16.1092 19.6627 16.0459L18.8349 15.578C18.7809 15.5476 18.7336 15.5068 18.6956 15.458C18.6576 15.4091 18.6297 15.3532 18.6135 15.2935C18.5973 15.2338 18.5932 15.1714 18.6013 15.1101C18.6094 15.0487 18.6297 14.9896 18.6609 14.9361L22.2481 8.83542ZM27.2085 11.6506L28.8594 12.5882L27.1911 15.428C27.1272 15.5375 27.0226 15.6173 26.9001 15.6499C26.7776 15.6825 26.6471 15.6653 26.5373 15.602L25.7094 15.1341C25.6554 15.1038 25.6079 15.0631 25.5698 15.0143C25.5318 14.9654 25.5038 14.9095 25.4876 14.8497C25.4714 14.79 25.4673 14.7275 25.4755 14.6662C25.4837 14.6048 25.5041 14.5456 25.5355 14.4922L27.2085 11.6506ZM8.73235 9.29732L12.3136 3.19659L13.9699 4.1402L10.3886 10.2349C10.3247 10.3444 10.2201 10.4242 10.0976 10.4567C9.97504 10.4893 9.84461 10.4721 9.73474 10.4089L8.90692 9.94099C8.85288 9.91073 8.80542 9.86999 8.76733 9.82116C8.72924 9.77233 8.70127 9.71638 8.68507 9.65661C8.66887 9.59683 8.66476 9.53442 8.67298 9.47304C8.6812 9.41165 8.70159 9.35253 8.73295 9.29912L8.73235 9.29732ZM17.2806 6.01601L18.9368 6.95961L17.2632 9.79702C17.1993 9.9065 17.0946 9.98624 16.9721 10.0188C16.8496 10.0514 16.7192 10.0342 16.6093 9.97098L15.7815 9.50308C15.7275 9.47282 15.68 9.43208 15.6419 9.38325C15.6038 9.33442 15.5758 9.27847 15.5596 9.2187C15.5434 9.15892 15.5393 9.09651 15.5476 9.03513C15.5558 8.97375 15.5762 8.91462 15.6075 8.86121L17.2806 6.01601Z" fill="url(#paint3_linear_17104_70528)"/>
<defs>
<linearGradient id="paint0_linear_17104_70528" x1="19.7289" y1="0.599976" x2="19.7289" y2="29.4" gradientUnits="userSpaceOnUse">
<stop stop-color="#15C8DC"/>
<stop offset="1" stop-color="#128E9C"/>
</linearGradient>
<linearGradient id="paint1_linear_17104_70528" x1="19.7289" y1="0.599976" x2="19.7289" y2="29.4" gradientUnits="userSpaceOnUse">
<stop stop-color="#15C8DC"/>
<stop offset="1" stop-color="#128E9C"/>
</linearGradient>
<linearGradient id="paint2_linear_17104_70528" x1="21.2491" y1="3.19659" x2="21.2491" y2="21.7307" gradientUnits="userSpaceOnUse">
<stop stop-color="#15C8DC"/>
<stop offset="1" stop-color="#128E9C"/>
</linearGradient>
<linearGradient id="paint3_linear_17104_70528" x1="21.2491" y1="3.19659" x2="21.2491" y2="21.7307" gradientUnits="userSpaceOnUse">
<stop stop-color="#15C8DC"/>
<stop offset="1" stop-color="#128E9C"/>
</linearGradient>
</defs>
</svg>
