<svg width="15" height="20" viewBox="0 0 15 20" fill="none" xmlns="http://www.w3.org/2000/svg">
<path d="M2.38853 2.02231L2.69656 1.71427L1.9421 1.33928C1.7055 1.21874 1.55371 0.973208 1.55371 0.705353C1.55371 0.316962 1.87067 0 2.25906 0H5.89743C10.2054 0 13.6965 3.49105 13.6965 7.79906C13.6965 8.31245 13.6474 8.82584 13.5447 9.3303L12.2679 15.7142H2.26799V14.5401C2.26799 13.2097 2.88406 11.9553 3.94209 11.1428L7.12064 8.70084C7.48224 8.42405 7.47778 7.87495 7.11171 7.59817C6.86618 7.41513 6.52689 7.41513 6.28136 7.59817L4.54923 8.89726C4.45994 8.96423 4.36173 9.02673 4.25905 9.07583C3.64745 9.38387 2.91977 9.33476 2.34835 8.9553L2.1921 8.84816C1.79032 8.58923 1.55371 8.1428 1.55371 7.66513V4.04015C1.55371 3.28123 1.85282 2.55355 2.38853 2.01784V2.02231ZM4.26798 4.85711C4.45742 4.85711 4.6391 4.78186 4.77305 4.6479C4.90701 4.51395 4.98226 4.33227 4.98226 4.14283C4.98226 3.95339 4.90701 3.77171 4.77305 3.63776C4.6391 3.5038 4.45742 3.42855 4.26798 3.42855C4.07854 3.42855 3.89686 3.5038 3.76291 3.63776C3.62895 3.77171 3.5537 3.95339 3.5537 4.14283C3.5537 4.33227 3.62895 4.51395 3.76291 4.6479C3.89686 4.78186 4.07854 4.85711 4.26798 4.85711Z" fill="url(#paint0_linear_17204_62097)"/>
<path opacity="0.4" d="M12.2678 15.7143H2.26784L0.339284 18.2857C0.200892 18.4732 0.125 18.6964 0.125 18.9285C0.125 19.5223 0.602676 20 1.19642 20H13.3392C13.9329 20 14.4106 19.5223 14.4106 18.9285C14.4106 18.6964 14.3347 18.4732 14.1963 18.2857L12.2678 15.7143Z" fill="url(#paint1_linear_17204_62097)"/>
<defs>
<linearGradient id="paint0_linear_17204_62097" x1="7.6251" y1="0" x2="7.6251" y2="15.7142" gradientUnits="userSpaceOnUse">
<stop stop-color="#00AF78"/>
<stop offset="1" stop-color="#00734F"/>
</linearGradient>
<linearGradient id="paint1_linear_17204_62097" x1="7.26781" y1="15.7143" x2="7.26781" y2="20" gradientUnits="userSpaceOnUse">
<stop stop-color="#00AF78"/>
<stop offset="1" stop-color="#00734F"/>
</linearGradient>
</defs>
</svg>
