<svg width="42" height="29" viewBox="0 0 42 29" fill="none" xmlns="http://www.w3.org/2000/svg">
<g opacity="0.4">
<path d="M9.34202 28.8003C4.22942 28.8003 0.0849609 24.6539 0.0849609 19.5432C0.0849609 15.506 2.66729 12.0732 6.26919 10.8067C6.26083 10.6332 6.25633 10.4596 6.25633 10.286C6.25633 4.60316 10.8591 0.000305176 16.542 0.000305176C20.3541 0.000305176 23.6776 2.07352 25.4583 5.15602C26.4354 4.44245 27.6183 4.11459 28.8847 4.11459C32.2918 4.11459 35.0561 6.82102 35.0561 10.286C35.0561 11.0703 34.9082 11.816 34.6446 12.5103C38.3989 13.2689 41.2274 16.5924 41.2274 20.5717C41.2274 25.1167 37.5439 28.8003 32.9989 28.8003H9.34202Z" fill="white"/>
<path d="M9.34202 28.8003C4.22942 28.8003 0.0849609 24.6539 0.0849609 19.5432C0.0849609 15.506 2.66729 12.0732 6.26919 10.8067C6.26083 10.6332 6.25633 10.4596 6.25633 10.286C6.25633 4.60316 10.8591 0.000305176 16.542 0.000305176C20.3541 0.000305176 23.6776 2.07352 25.4583 5.15602C26.4354 4.44245 27.6183 4.11459 28.8847 4.11459C32.2918 4.11459 35.0561 6.82102 35.0561 10.286C35.0561 11.0703 34.9082 11.816 34.6446 12.5103C38.3989 13.2689 41.2274 16.5924 41.2274 20.5717C41.2274 25.1167 37.5439 28.8003 32.9989 28.8003H9.34202Z" fill="url(#paint0_linear_17104_72508)"/>
</g>
<path fill-rule="evenodd" clip-rule="evenodd" d="M24.3738 18.3967L22.4566 16.5179C22.0482 16.0711 21.3178 16.0711 20.8661 16.5179C20.4193 16.9696 20.4193 17.7 20.8661 18.1084L24.7101 21.9524C25.1618 22.4425 25.8921 22.4425 26.3006 21.9524L30.1445 18.1084C30.6346 17.7 30.6346 16.9696 30.1445 16.5179C29.7361 16.0711 29.0058 16.0711 28.5541 16.5179L26.6801 18.3967V11.9532C26.6801 11.3141 26.166 10.8 25.527 10.8C24.8879 10.8 24.3738 11.3141 24.3738 11.9532V18.3967ZM14.0073 14.7234L12.0901 16.6021C11.6817 17.049 10.9514 17.049 10.4997 16.6021C10.0528 16.1504 10.0528 15.4201 10.4997 15.0117L14.3437 11.1677C14.7953 10.6775 15.5257 10.6775 15.9341 11.1677L19.7781 15.0117C20.2682 15.4201 20.2682 16.1504 19.7781 16.6021C19.3697 17.049 18.6393 17.049 18.1876 16.6021L16.3137 14.7234V21.1669C16.3137 21.8059 15.7996 22.3201 15.1605 22.3201C14.5214 22.3201 14.0073 21.8059 14.0073 21.1669V14.7234Z" fill="white"/>
<path fill-rule="evenodd" clip-rule="evenodd" d="M24.3738 18.3967L22.4566 16.5179C22.0482 16.0711 21.3178 16.0711 20.8661 16.5179C20.4193 16.9696 20.4193 17.7 20.8661 18.1084L24.7101 21.9524C25.1618 22.4425 25.8921 22.4425 26.3006 21.9524L30.1445 18.1084C30.6346 17.7 30.6346 16.9696 30.1445 16.5179C29.7361 16.0711 29.0058 16.0711 28.5541 16.5179L26.6801 18.3967V11.9532C26.6801 11.3141 26.166 10.8 25.527 10.8C24.8879 10.8 24.3738 11.3141 24.3738 11.9532V18.3967ZM14.0073 14.7234L12.0901 16.6021C11.6817 17.049 10.9514 17.049 10.4997 16.6021C10.0528 16.1504 10.0528 15.4201 10.4997 15.0117L14.3437 11.1677C14.7953 10.6775 15.5257 10.6775 15.9341 11.1677L19.7781 15.0117C20.2682 15.4201 20.2682 16.1504 19.7781 16.6021C19.3697 17.049 18.6393 17.049 18.1876 16.6021L16.3137 14.7234V21.1669C16.3137 21.8059 15.7996 22.3201 15.1605 22.3201C14.5214 22.3201 14.0073 21.8059 14.0073 21.1669V14.7234Z" fill="url(#paint1_linear_17104_72508)"/>
<defs>
<linearGradient id="paint0_linear_17104_72508" x1="20.6562" y1="0.000305176" x2="20.6562" y2="28.8003" gradientUnits="userSpaceOnUse">
<stop stop-color="#9BCA46"/>
<stop offset="1" stop-color="#659B02"/>
</linearGradient>
<linearGradient id="paint1_linear_17104_72508" x1="20.3383" y1="10.8" x2="20.3383" y2="22.32" gradientUnits="userSpaceOnUse">
<stop stop-color="#9BCA46"/>
<stop offset="1" stop-color="#659B02"/>
</linearGradient>
</defs>
</svg>
