<svg width="273" height="273" viewBox="0 0 273 273" fill="none" xmlns="http://www.w3.org/2000/svg">
<path fill-rule="evenodd" clip-rule="evenodd" d="M120.409 5.11538e-07C57.2929 7.20131 7.20131 57.2929 5.07949e-07 120.409C2.61692 125.048 4.11011 130.405 4.11011 136.11C4.11011 141.816 2.61692 147.172 5.46832e-07 151.811C7.20131 214.927 57.2929 265.019 120.409 272.22C125.048 269.603 130.405 268.11 136.11 268.11C141.816 268.11 147.172 269.603 151.811 272.22C214.927 265.019 265.019 214.927 272.22 151.811C269.603 147.172 268.11 141.816 268.11 136.11C268.11 130.405 269.603 125.048 272.22 120.409C265.019 57.2929 214.927 7.20131 151.811 6.00676e-07C147.172 2.61692 141.816 4.11011 136.11 4.11011C130.405 4.11011 125.048 2.61692 120.409 5.11538e-07ZM26.5101 136.11C26.5101 196.641 75.5797 245.71 136.11 245.71C196.641 245.71 245.71 196.641 245.71 136.11C245.71 75.5797 196.641 26.5101 136.11 26.5101C75.5797 26.5101 26.5101 75.5797 26.5101 136.11Z" fill="white"/>
<path d="M17 135.957C17 138.166 15.2091 139.957 13 139.957C10.7909 139.957 9 138.166 9 135.957C9 133.748 10.7909 131.957 13 131.957C15.2091 131.957 17 133.748 17 135.957Z" fill="url(#paint0_linear_16692_175751)"/>
<path d="M263.22 135.957C263.22 138.166 261.429 139.957 259.22 139.957C257.011 139.957 255.22 138.166 255.22 135.957C255.22 133.748 257.011 131.957 259.22 131.957C261.429 131.957 263.22 133.748 263.22 135.957Z" fill="url(#paint1_linear_16692_175751)"/>
<path d="M44.7512 50.4336L45.7724 51.3139L43.1359 54.3727L45.0494 56.0221L47.1266 53.6122L48.1144 54.4636L46.0373 56.8735L47.989 58.5558L50.6255 55.4969L51.6515 56.3812L47.9003 60.7333L41 54.7857L44.7512 50.4336Z" fill="url(#paint2_linear_16692_175751)"/>
<path d="M51.05 46.2539C51.0835 46.3516 51.0917 46.4362 51.0745 46.5076C51.0602 46.576 51.0236 46.6402 50.9647 46.7001C50.9058 46.76 50.8171 46.8053 50.6986 46.836C50.577 46.8638 50.4378 46.9006 50.2808 46.9465C50.1237 46.9923 49.955 47.0621 49.7747 47.1557C49.5942 47.2434 49.4128 47.38 49.2302 47.5657C49.0653 47.7334 48.942 47.9008 48.8602 48.0678C48.7785 48.2289 48.7308 48.3882 48.7173 48.5457C48.7067 48.7002 48.7317 48.8485 48.7924 48.9906C48.85 49.1297 48.9387 49.2581 49.0585 49.3759C49.2112 49.526 49.3797 49.6093 49.564 49.6255C49.7512 49.6388 49.95 49.6104 50.1602 49.5403C50.3705 49.4702 50.5924 49.3732 50.826 49.2495C51.0596 49.1257 51.3006 49.0034 51.549 48.8825C51.7974 48.7556 52.0534 48.6451 52.3169 48.5508C52.5775 48.4535 52.8428 48.3993 53.113 48.3881C53.3801 48.3739 53.6493 48.4177 53.9204 48.5193C54.1945 48.618 54.4663 48.7998 54.7359 49.0648C55.0294 49.3534 55.2549 49.6752 55.4123 50.0302C55.5697 50.3793 55.6486 50.7455 55.6488 51.1286C55.6491 51.5058 55.5677 51.8881 55.4047 52.2756C55.2386 52.6601 54.979 53.0321 54.6256 53.3915C54.4224 53.5981 54.2013 53.7812 53.962 53.9406C53.7258 54.103 53.479 54.2402 53.2216 54.3523C52.9671 54.4614 52.7079 54.5453 52.4441 54.6039C52.1832 54.6596 51.9265 54.687 51.6741 54.6862L51.4391 53.766C51.4295 53.6919 51.4334 53.6191 51.4506 53.5476C51.4677 53.4703 51.5043 53.4031 51.5602 53.3462C51.6338 53.2714 51.7448 53.2214 51.8931 53.1964C52.0384 53.1684 52.2059 53.1329 52.3956 53.0897C52.5882 53.0435 52.794 52.9719 53.013 52.875C53.2319 52.7722 53.4518 52.6085 53.6726 52.3838C54.0112 52.0394 54.1924 51.6934 54.2162 51.3457C54.237 50.9951 54.0946 50.6696 53.7891 50.3692C53.6184 50.2014 53.4365 50.1079 53.2432 50.0887C53.053 50.0666 52.8527 50.0906 52.6424 50.1607C52.4292 50.2278 52.2088 50.3262 51.9812 50.4559C51.7536 50.5855 51.5186 50.7137 51.2761 50.8405C51.0336 50.9673 50.7822 51.0794 50.5216 51.1766C50.2611 51.2739 49.9942 51.3266 49.7211 51.3349C49.4479 51.3431 49.1683 51.292 48.8822 51.1816C48.5961 51.0653 48.3048 50.8613 48.0083 50.5698C47.7717 50.3372 47.5868 50.064 47.4534 49.7504C47.323 49.4337 47.2593 49.1001 47.2623 48.7496C47.2682 48.3962 47.3483 48.0361 47.5026 47.6695C47.6568 47.3029 47.9004 46.9504 48.2331 46.6119C48.61 46.2286 49.0173 45.934 49.4551 45.7284C49.893 45.5227 50.3316 45.4121 50.771 45.3964L51.05 46.2539Z" fill="url(#paint3_linear_16692_175751)"/>
<path d="M60.8019 45.6885C61.0899 45.4373 61.3179 45.1939 61.4859 44.9583C61.6542 44.7168 61.7949 44.4659 61.9079 44.2058L60.819 42.957L59.9595 43.7064C59.8772 43.7782 59.793 43.8126 59.7069 43.8097C59.618 43.8036 59.5446 43.7673 59.4866 43.7008L58.8573 42.9791L61.1412 40.9875L63.5634 43.7653C63.4997 44.0437 63.4143 44.3132 63.3072 44.5738C63.2004 44.8285 63.0657 45.0797 62.9029 45.3276C62.7432 45.5727 62.5539 45.8157 62.335 46.0568C62.1189 46.301 61.87 46.5459 61.5882 46.7916C61.0881 47.2277 60.5516 47.5423 59.9787 47.7353C59.4059 47.9283 58.8307 48.0036 58.2531 47.9611C57.6756 47.9186 57.112 47.758 56.5625 47.4793C56.0162 47.1979 55.5208 46.8023 55.0764 46.2927C54.6265 45.7767 54.2977 45.2303 54.09 44.6535C53.8824 44.0767 53.7969 43.4993 53.8334 42.9213C53.8731 42.3406 54.0385 41.7729 54.3294 41.2183C54.6204 40.6637 55.0397 40.1476 55.5873 39.67C56.1476 39.1815 56.7051 38.843 57.2597 38.6547C57.8148 38.4605 58.3507 38.3721 58.8675 38.3896L59.0022 39.2918C59.0316 39.4724 58.9861 39.6152 58.8658 39.7201C58.7898 39.7863 58.6902 39.8286 58.5669 39.847C58.4131 39.8752 58.2562 39.9061 58.0961 39.9398C57.9392 39.9708 57.7766 40.0207 57.6081 40.0895C57.4429 40.1556 57.2671 40.2448 57.0808 40.3571C56.8977 40.4666 56.7017 40.6125 56.4927 40.7947C56.154 41.09 55.8967 41.4148 55.7206 41.7689C55.5478 42.1202 55.4573 42.4861 55.4491 42.8666C55.4409 43.2471 55.5144 43.6316 55.6694 44.0203C55.8244 44.4089 56.062 44.7868 56.3822 45.154C56.7272 45.5497 57.0904 45.8544 57.4717 46.068C57.8502 46.2785 58.2317 46.4028 58.6161 46.441C59.0004 46.4792 59.38 46.4352 59.7548 46.309C60.1268 46.1796 60.4758 45.9728 60.8019 45.6885Z" fill="url(#paint4_linear_16692_175751)"/>
<path d="M68.452 31.9729C68.4671 32.0751 68.4597 32.1597 68.4298 32.2268C68.4033 32.2915 68.3556 32.3479 68.2868 32.3961C68.2179 32.4442 68.1225 32.4726 68.0003 32.4812C67.8757 32.4863 67.7321 32.4971 67.5693 32.5136C67.4066 32.5301 67.228 32.5679 67.0336 32.627C66.8402 32.6803 66.6368 32.7816 66.4235 32.9309C66.2308 33.0657 66.079 33.2078 65.9681 33.3571C65.8584 33.5005 65.7825 33.6485 65.7404 33.8009C65.7019 33.9509 65.6994 34.1012 65.7331 34.252C65.7644 34.3992 65.8282 34.5417 65.9245 34.6794C66.0473 34.8549 66.1978 34.9674 66.376 35.017C66.5577 35.0642 66.7583 35.0725 66.9778 35.0419C67.1973 35.0113 67.4332 34.9565 67.6854 34.8774C67.9377 34.7984 68.1969 34.722 68.4633 34.6485C68.7306 34.569 69.0025 34.507 69.2788 34.4623C69.5527 34.4142 69.8235 34.4093 70.0912 34.4475C70.3564 34.4824 70.6131 34.5745 70.8611 34.7238C71.1126 34.8708 71.3467 35.0992 71.5634 35.4089C71.7994 35.7461 71.9624 36.1037 72.0524 36.4815C72.1435 36.8535 72.1543 37.2278 72.0847 37.6046C72.0161 37.9755 71.8664 38.3365 71.6354 38.6878C71.4021 39.0356 71.0789 39.354 70.6659 39.6429C70.4285 39.809 70.1776 39.9487 69.9133 40.0618C69.6515 40.1784 69.3838 40.2683 69.1102 40.3316C68.8401 40.3924 68.57 40.4276 68.2999 40.4372C68.0332 40.4443 67.7759 40.4245 67.5278 40.3776L67.4645 39.43C67.4687 39.3554 67.4857 39.2845 67.5157 39.2174C67.5466 39.1445 67.5948 39.0851 67.6602 39.0394C67.7463 38.9792 67.8644 38.9503 68.0148 38.9528C68.1628 38.9518 68.3339 38.9473 68.5284 38.9395C68.7262 38.9292 68.9416 38.8964 69.1745 38.841C69.4085 38.7798 69.6546 38.6589 69.9127 38.4784C70.3084 38.2015 70.5497 37.8943 70.6365 37.5568C70.7209 37.2158 70.6403 36.8698 70.3947 36.5188C70.2574 36.3226 70.0956 36.1975 69.9091 36.1435C69.726 36.087 69.5248 36.074 69.3052 36.1046C69.0833 36.1317 68.8486 36.1883 68.6012 36.2743C68.3538 36.3602 68.0993 36.4434 67.8378 36.5239C67.5763 36.6043 67.3086 36.6686 67.0347 36.7167C66.7608 36.7648 66.4888 36.768 66.2187 36.7263C65.9486 36.6846 65.683 36.5834 65.4219 36.4227C65.1618 36.2561 64.9126 36.0024 64.6742 35.6617C64.484 35.3899 64.352 35.0876 64.2781 34.7548C64.2076 34.4197 64.2058 34.0801 64.2726 33.736C64.3429 33.3896 64.4873 33.0502 64.7059 32.7178C64.9244 32.3855 65.2282 32.0833 65.617 31.8112C66.0575 31.503 66.5118 31.2877 66.9797 31.1654C67.4477 31.043 67.8991 31.0142 68.334 31.079L68.452 31.9729Z" fill="url(#paint5_linear_16692_175751)"/>
<path d="M77.0139 35.4579C76.5377 35.7499 76.0884 35.8407 75.6659 35.7303C75.2413 35.6163 74.8829 35.3212 74.5909 34.845L72.7037 31.7677L72.1452 32.1102C72.0736 32.1541 71.9966 32.1692 71.9144 32.1556C71.8357 32.1398 71.7678 32.0854 71.7107 31.9923L71.388 31.466L72.1852 30.7775L71.5423 29.1025C71.5127 29.0221 71.5109 28.9469 71.5368 28.8768C71.5664 28.8044 71.6205 28.7441 71.6993 28.6958L72.3868 28.2743L73.4506 30.0089L74.9006 29.1197L75.4803 30.0649L74.0302 30.9542L75.8614 33.9402C75.9668 34.112 76.0921 34.2199 76.2373 34.2639C76.3825 34.3079 76.5268 34.286 76.67 34.1981C76.7523 34.1476 76.8149 34.097 76.8576 34.0461C76.9017 33.9895 76.9369 33.9384 76.9631 33.8928C76.9929 33.8449 77.0184 33.8022 77.0396 33.7645C77.0587 33.7233 77.0843 33.6928 77.1165 33.673C77.1559 33.6489 77.1947 33.6398 77.233 33.646C77.269 33.6485 77.3134 33.6607 77.3662 33.6825L78.1589 34.0832C78.0643 34.3629 77.917 34.6208 77.7169 34.8568C77.5167 35.0929 77.2824 35.2932 77.0139 35.4579Z" fill="url(#paint6_linear_16692_175751)"/>
<path d="M80.0035 33.5492L76.8969 27.8809L77.6979 27.4419C77.8379 27.3652 77.9496 27.3375 78.0331 27.3587C78.1166 27.38 78.2019 27.4482 78.289 27.5634L78.7473 28.203C78.7581 27.7421 78.8443 27.3357 79.0058 26.9837C79.1673 26.6318 79.4175 26.3629 79.7563 26.1772C80.0363 26.0238 80.3036 25.9611 80.5584 25.9891L80.9418 27.108C80.9671 27.1804 80.9694 27.2414 80.9487 27.291C80.926 27.337 80.8834 27.3771 80.8207 27.4115C80.7655 27.4417 80.6829 27.4702 80.573 27.4969C80.4631 27.5236 80.329 27.5804 80.1706 27.6672C79.887 27.8226 79.6873 28.035 79.5716 28.3044C79.4538 28.5701 79.4077 28.8924 79.4332 29.2711L81.3681 32.8013L80.0035 33.5492Z" fill="url(#paint7_linear_16692_175751)"/>
<path d="M89.7352 28.5787L89.1042 28.88C88.9715 28.9433 88.8582 28.9741 88.7643 28.9724C88.6686 28.9669 88.5729 28.9126 88.4771 28.8094L88.1538 28.4541C88.0693 28.6573 87.9795 28.8445 87.8844 29.0156C87.7912 29.1811 87.6851 29.3341 87.566 29.4748C87.447 29.6154 87.3103 29.7434 87.1561 29.859C87.0018 29.9745 86.8204 30.0821 86.612 30.1816C86.3656 30.2992 86.1228 30.3756 85.8836 30.4107C85.6426 30.442 85.4146 30.4275 85.1996 30.3672C84.9885 30.3051 84.7942 30.1955 84.6167 30.0382C84.4392 29.8809 84.288 29.6715 84.1632 29.41C84.0582 29.1902 84.0119 28.947 84.0243 28.6805C84.0386 28.4083 84.1396 28.1227 84.3273 27.8237C84.5132 27.5209 84.8026 27.2058 85.1955 26.8786C85.5885 26.5513 86.1129 26.2218 86.769 25.8899L86.6061 25.5488C86.4197 25.1584 86.1988 24.9102 85.9434 24.8041C85.6899 24.6924 85.4059 24.7117 85.0913 24.8619C84.8639 24.9705 84.6871 25.0875 84.5608 25.2129C84.4345 25.3384 84.3308 25.4623 84.2497 25.5848C84.1705 25.7018 84.0963 25.8094 84.0268 25.9077C83.9574 26.006 83.8659 26.0823 83.7522 26.1366C83.6574 26.1818 83.5641 26.1961 83.4724 26.1794C83.3806 26.1627 83.2967 26.1283 83.2207 26.0762L82.7504 25.7492C83.1281 24.8149 83.7907 24.1215 84.7382 23.6691C85.0794 23.5062 85.4097 23.4183 85.7293 23.4054C86.0509 23.3868 86.3525 23.4336 86.6341 23.5458C86.9139 23.6542 87.1673 23.8241 87.3941 24.0556C87.6248 24.2852 87.8188 24.5649 87.9763 24.8947L89.7352 28.5787ZM86.5883 29.0061C86.7323 28.9373 86.8586 28.8607 86.9673 28.7763C87.0759 28.6918 87.1706 28.5978 87.2514 28.494C87.336 28.3885 87.4094 28.2743 87.4718 28.1514C87.5361 28.023 87.5941 27.8813 87.6458 27.7263L87.1762 26.7427C86.7759 26.9571 86.4501 27.1569 86.1987 27.3421C85.9493 27.5216 85.7603 27.691 85.6315 27.8502C85.5027 28.0095 85.4277 28.1593 85.4063 28.2998C85.3888 28.4385 85.4099 28.5704 85.4696 28.6955C85.5872 28.9418 85.7434 29.0837 85.9381 29.1211C86.1366 29.1566 86.3533 29.1183 86.5883 29.0061Z" fill="url(#paint8_linear_16692_175751)"/>
<path d="M93.3592 27.155C92.8426 27.3673 92.3845 27.3853 91.9851 27.2089C91.584 27.0286 91.2774 26.6801 91.0651 26.1634L89.693 22.8244L89.0869 23.0734C89.0092 23.1054 88.9309 23.1081 88.8519 23.0815C88.7767 23.0534 88.7184 22.9888 88.6769 22.8878L88.4422 22.3167L89.3391 21.7643L88.9716 20.0081C88.9552 19.9241 88.9654 19.8495 89.0023 19.7844C89.043 19.7177 89.1061 19.6668 89.1915 19.6317L89.9374 19.3252L90.7108 21.2074L92.2842 20.5608L92.7056 21.5864L91.1323 22.233L92.4637 25.4729C92.5403 25.6594 92.6468 25.7859 92.7831 25.8525C92.9194 25.919 93.0653 25.9204 93.2207 25.8565C93.31 25.8198 93.3799 25.7798 93.4302 25.7364C93.4827 25.6876 93.5256 25.6427 93.5588 25.6018C93.5958 25.5594 93.6278 25.5212 93.6548 25.4874C93.6802 25.4498 93.7103 25.4237 93.7453 25.4094C93.788 25.3918 93.8278 25.3891 93.8646 25.4012C93.8997 25.4095 93.9417 25.4286 93.9903 25.4586L94.7088 25.9806C94.5709 26.2416 94.3843 26.4727 94.1491 26.6738C93.9139 26.8749 93.6506 27.0353 93.3592 27.155Z" fill="url(#paint9_linear_16692_175751)"/>
<path d="M96.8876 18.684C97.2724 18.5502 97.6469 18.4889 98.011 18.5001C98.379 18.51 98.7215 18.5932 99.0383 18.7499C99.3537 18.9025 99.6369 19.1287 99.8878 19.4283C100.137 19.7239 100.339 20.0919 100.492 20.5323C100.53 20.6433 100.557 20.7386 100.571 20.8181C100.588 20.8923 100.59 20.956 100.578 21.0093C100.568 21.0573 100.544 21.0987 100.508 21.1338C100.469 21.1648 100.417 21.192 100.349 21.2155L96.5766 22.5273C96.8382 23.1389 97.1668 23.5405 97.5624 23.732C97.9581 23.9235 98.3979 23.9351 98.8818 23.7668C99.1199 23.684 99.3145 23.5852 99.4658 23.4703C99.621 23.3541 99.7504 23.2402 99.8539 23.1286C99.9613 23.0157 100.053 22.9149 100.129 22.8262C100.209 22.7362 100.294 22.6753 100.386 22.6436C100.445 22.6229 100.501 22.6169 100.553 22.6255C100.605 22.6341 100.654 22.6547 100.701 22.6873L101.316 23.0739C101.219 23.3209 101.093 23.545 100.936 23.7463C100.778 23.9435 100.601 24.1205 100.407 24.2771C100.215 24.4283 100.009 24.5598 99.7901 24.6716C99.575 24.7819 99.3604 24.8743 99.1461 24.9488C98.7217 25.0964 98.3028 25.1643 97.8896 25.1523C97.4749 25.1364 97.0852 25.0385 96.7202 24.8586C96.3539 24.6747 96.023 24.4073 95.7276 24.0565C95.4308 23.7017 95.1893 23.2565 95.0031 22.721C94.8582 22.3044 94.7898 21.8902 94.7978 21.4784C94.8044 21.0625 94.8857 20.6763 95.0419 20.3196C95.2006 19.9576 95.4328 19.6345 95.7386 19.3503C96.0484 19.0647 96.4314 18.8426 96.8876 18.684ZM97.2836 19.7269C96.8552 19.8758 96.562 20.1134 96.4042 20.4395C96.2464 20.7657 96.211 21.1626 96.298 21.6304L99.0591 20.6703C98.9929 20.4799 98.905 20.3103 98.7955 20.1616C98.6846 20.009 98.5535 19.8878 98.4023 19.7981C98.251 19.7084 98.0817 19.6561 97.8942 19.6413C97.7053 19.6225 97.5018 19.651 97.2836 19.7269Z" fill="url(#paint10_linear_16692_175751)"/>
<path d="M104.237 16.3546C104.504 16.28 104.762 16.2383 105.013 16.2294C105.262 16.2164 105.499 16.2354 105.722 16.2864L107.512 15.7864L107.668 16.3446C107.694 16.4377 107.69 16.5173 107.656 16.5834C107.622 16.6496 107.55 16.7091 107.438 16.7621L106.908 17.0212C106.978 17.1151 107.04 17.2178 107.093 17.3295C107.15 17.44 107.196 17.56 107.233 17.6895C107.318 17.9969 107.334 18.2935 107.278 18.5794C107.226 18.86 107.115 19.1178 106.945 19.3528C106.779 19.5866 106.56 19.7938 106.288 19.9745C106.018 20.1501 105.71 20.2864 105.362 20.3836C105.127 20.4491 104.893 20.4907 104.658 20.5083C104.496 20.6799 104.436 20.8384 104.477 20.9841C104.512 21.1095 104.594 21.1867 104.724 21.2157C104.858 21.2396 105.021 21.2377 105.213 21.21C105.41 21.1812 105.629 21.1375 105.87 21.0789C106.11 21.0163 106.358 20.96 106.615 20.9102C106.871 20.8604 107.126 20.8285 107.379 20.8144C107.631 20.7963 107.866 20.8158 108.082 20.8731C108.303 20.9292 108.497 21.0365 108.663 21.195C108.832 21.3483 108.958 21.5726 109.041 21.8679C109.117 22.143 109.123 22.4292 109.058 22.7265C108.997 23.0226 108.865 23.308 108.663 23.5826C108.464 23.856 108.196 24.1054 107.858 24.3307C107.521 24.56 107.113 24.7414 106.636 24.8747C106.163 25.0069 105.739 25.075 105.365 25.0792C104.993 25.0873 104.669 25.0468 104.396 24.9575C104.128 24.8711 103.909 24.7446 103.74 24.578C103.572 24.4114 103.458 24.2209 103.398 24.0065C103.316 23.7153 103.337 23.4457 103.46 23.1978C103.582 22.9498 103.785 22.7231 104.068 22.5177C103.89 22.4757 103.735 22.3969 103.603 22.2813C103.47 22.1657 103.372 21.9946 103.309 21.7681C103.283 21.6751 103.273 21.5755 103.278 21.4694C103.282 21.3592 103.303 21.2465 103.34 21.1314C103.382 21.0151 103.442 20.9003 103.519 20.7871C103.595 20.6699 103.692 20.5577 103.811 20.4505C103.448 20.3687 103.136 20.2117 102.875 19.9794C102.618 19.7459 102.436 19.4391 102.33 19.0588C102.244 18.7514 102.227 18.4573 102.28 18.1767C102.335 17.8909 102.448 17.6305 102.617 17.3955C102.79 17.1554 103.013 16.947 103.287 16.7704C103.564 16.5926 103.881 16.454 104.237 16.3546ZM107.728 22.5092C107.694 22.3878 107.63 22.2989 107.536 22.2423C107.442 22.1858 107.326 22.1548 107.19 22.1494C107.052 22.1399 106.895 22.1488 106.72 22.1761C106.548 22.2021 106.366 22.2377 106.174 22.2827C105.984 22.3225 105.787 22.3667 105.583 22.4151C105.381 22.4583 105.184 22.4938 104.991 22.5215C104.847 22.6619 104.741 22.8116 104.672 22.9704C104.606 23.1241 104.596 23.2838 104.642 23.4497C104.672 23.5589 104.727 23.6527 104.806 23.731C104.889 23.8123 104.999 23.8709 105.136 23.9069C105.277 23.9418 105.447 23.9509 105.647 23.9342C105.849 23.9216 106.087 23.8768 106.362 23.8C106.641 23.722 106.876 23.6326 107.065 23.5316C107.256 23.4346 107.406 23.3296 107.514 23.2166C107.627 23.1065 107.699 22.9904 107.731 22.8683C107.763 22.7502 107.762 22.6305 107.728 22.5092ZM105.094 19.4249C105.28 19.3729 105.435 19.3034 105.559 19.2165C105.682 19.1255 105.776 19.023 105.84 18.9092C105.908 18.7942 105.947 18.6678 105.956 18.53C105.97 18.391 105.956 18.2467 105.914 18.097C105.828 17.7896 105.667 17.5729 105.431 17.4469C105.198 17.3157 104.898 17.3015 104.53 17.4043C104.162 17.5071 103.91 17.6755 103.775 17.9095C103.643 18.1383 103.619 18.4065 103.705 18.7139C103.746 18.8595 103.806 18.9888 103.885 19.1018C103.969 19.2136 104.068 19.3037 104.183 19.3718C104.301 19.4349 104.436 19.4734 104.588 19.4876C104.744 19.4966 104.912 19.4757 105.094 19.4249Z" fill="url(#paint11_linear_16692_175751)"/>
<path d="M110.678 14.8471L112.12 21.1481L110.603 21.4951L109.161 15.1941L110.678 14.8471ZM110.485 12.9588C110.515 13.0898 110.517 13.2187 110.49 13.3456C110.463 13.4724 110.414 13.5891 110.344 13.6957C110.277 13.8013 110.191 13.8943 110.084 13.9747C109.977 14.051 109.856 14.1046 109.72 14.1355C109.589 14.1655 109.459 14.1695 109.329 14.1475C109.202 14.1205 109.086 14.0739 108.98 14.0076C108.875 13.9413 108.782 13.8569 108.703 13.7544C108.627 13.651 108.575 13.5338 108.545 13.4028C108.514 13.2677 108.509 13.1352 108.531 13.0052C108.557 12.8743 108.603 12.756 108.67 12.6504C108.736 12.5447 108.821 12.4542 108.924 12.3788C109.031 12.2985 109.15 12.2433 109.281 12.2133C109.416 12.1824 109.549 12.18 109.68 12.206C109.81 12.228 109.927 12.2721 110.033 12.3384C110.143 12.4038 110.238 12.4898 110.318 12.5963C110.399 12.7029 110.454 12.8237 110.485 12.9588Z" fill="url(#paint12_linear_16692_175751)"/>
<path d="M117.847 14.8398C117.812 14.9058 117.774 14.9594 117.735 15.0007C117.699 15.0412 117.64 15.0688 117.558 15.0837C117.479 15.0978 117.399 15.0888 117.316 15.0566C117.233 15.0204 117.134 14.9826 117.02 14.9433C116.906 14.8998 116.772 14.8683 116.619 14.8488C116.47 14.8244 116.29 14.8312 116.079 14.869C115.81 14.9172 115.584 15.0091 115.399 15.1447C115.213 15.2761 115.069 15.4451 114.965 15.6514C114.865 15.8571 114.806 16.096 114.786 16.3683C114.766 16.6365 114.785 16.9339 114.844 17.2605C114.905 17.5995 114.994 17.8949 115.112 18.1469C115.234 18.3981 115.379 18.6024 115.548 18.7598C115.717 18.9131 115.907 19.0199 116.118 19.0801C116.329 19.1361 116.556 19.1423 116.8 19.0985C117.044 19.0547 117.235 18.9906 117.373 18.906C117.515 18.8165 117.631 18.7274 117.722 18.6385C117.812 18.5456 117.889 18.4635 117.953 18.3923C118.021 18.3162 118.102 18.2696 118.197 18.2525C118.321 18.2302 118.422 18.2611 118.501 18.345L119.042 18.8241C118.908 19.053 118.754 19.2534 118.58 19.4254C118.405 19.5933 118.218 19.7379 118.018 19.8592C117.821 19.9756 117.612 20.0707 117.391 20.1446C117.169 20.2184 116.947 20.2754 116.724 20.3155C116.331 20.386 115.948 20.38 115.575 20.2977C115.201 20.2112 114.858 20.0507 114.548 19.8164C114.241 19.5813 113.975 19.2749 113.749 18.8972C113.527 18.5146 113.369 18.0629 113.275 17.5421C113.191 17.0749 113.18 16.6311 113.241 16.2105C113.306 15.785 113.442 15.4042 113.65 15.0681C113.858 14.7278 114.14 14.4405 114.494 14.2061C114.849 13.9718 115.277 13.8097 115.777 13.7199C116.252 13.6346 116.681 13.6365 117.064 13.7257C117.451 13.8141 117.813 13.9753 118.15 14.2093L117.847 14.8398Z" fill="url(#paint13_linear_16692_175751)"/>
<path d="M132.704 18.3856L131.397 18.4849C131.25 18.496 131.126 18.4696 131.024 18.4057C130.927 18.3374 130.853 18.2503 130.802 18.1446L129.983 16.343L126.22 16.6289L125.683 18.5336C125.656 18.6324 125.596 18.7255 125.502 18.8127C125.411 18.8996 125.295 18.9484 125.153 18.9592L123.84 19.059L126.718 9.70429L128.445 9.57305L132.704 18.3856ZM126.563 15.4024L129.459 15.1824L128.124 12.2448C128.063 12.1146 127.995 11.9618 127.918 11.7865C127.846 11.6067 127.772 11.4122 127.697 11.2031C127.655 11.4211 127.611 11.6245 127.567 11.8132C127.526 12.0017 127.484 12.167 127.44 12.3094L126.563 15.4024Z" fill="url(#paint14_linear_16692_175751)"/>
<path d="M138.876 18.3621C138.674 18.362 138.542 18.2674 138.479 18.0784L138.353 17.4546C138.219 17.6058 138.078 17.7422 137.931 17.8639C137.784 17.9856 137.624 18.0905 137.452 18.1786C137.284 18.2667 137.101 18.3338 136.904 18.3799C136.711 18.4302 136.501 18.4553 136.274 18.4552C135.921 18.455 135.598 18.3813 135.304 18.2342C135.01 18.087 134.756 17.8748 134.542 17.5974C134.332 17.3159 134.168 16.9693 134.051 16.5577C133.938 16.146 133.881 15.6756 133.882 15.1464C133.882 14.6676 133.947 14.2224 134.078 13.8109C134.208 13.3993 134.395 13.0424 134.639 12.7402C134.883 12.4379 135.175 12.2029 135.515 12.0351C135.855 11.8631 136.238 11.7772 136.662 11.7774C137.023 11.7776 137.332 11.8366 137.588 11.9543C137.844 12.0679 138.073 12.2213 138.274 12.4146L138.276 9L139.832 9.00086L139.827 18.3627L138.876 18.3621ZM136.804 17.2207C137.127 17.2209 137.402 17.1538 137.629 17.0195C137.856 16.8853 138.07 16.6943 138.272 16.4466L138.274 13.5486C138.097 13.3343 137.904 13.183 137.694 13.0947C137.489 13.0064 137.266 12.9621 137.027 12.962C136.791 12.9619 136.577 13.0059 136.384 13.094C136.195 13.182 136.033 13.3164 135.899 13.4969C135.768 13.6732 135.667 13.9 135.596 14.1771C135.524 14.4501 135.488 14.7735 135.488 15.1473C135.488 15.5253 135.517 15.8466 135.576 16.1112C135.639 16.3716 135.727 16.5859 135.84 16.754C135.953 16.9178 136.092 17.0376 136.256 17.1133C136.42 17.1848 136.602 17.2206 136.804 17.2207Z" fill="url(#paint15_linear_16692_175751)"/>
<path d="M145.249 18.626L143.841 18.5326L141.704 11.9128L142.992 11.9983C143.105 12.0058 143.198 12.0393 143.27 12.0988C143.346 12.1586 143.396 12.2313 143.419 12.3171L144.436 15.8445C144.493 16.0504 144.539 16.2512 144.572 16.447C144.61 16.6432 144.641 16.8389 144.666 17.0341C144.717 16.8439 144.771 16.6539 144.83 16.4641C144.893 16.2747 144.969 16.0819 145.058 15.8857L146.562 12.5256C146.597 12.4437 146.654 12.378 146.733 12.3285C146.812 12.2791 146.904 12.2578 147.009 12.2647L148.235 12.346L145.249 18.626Z" fill="url(#paint16_linear_16692_175751)"/>
<path d="M152.119 12.7813L151.385 19.2032L149.839 19.0265L150.573 12.6045L152.119 12.7813ZM152.565 10.9363C152.549 11.0698 152.508 11.1919 152.44 11.3025C152.373 11.4131 152.288 11.507 152.186 11.5842C152.089 11.6618 151.976 11.7208 151.849 11.7612C151.722 11.7974 151.59 11.8077 151.452 11.7919C151.319 11.7767 151.194 11.7371 151.079 11.6732C150.969 11.6056 150.874 11.5229 150.797 11.4253C150.719 11.3276 150.66 11.2173 150.619 11.0942C150.582 10.9717 150.572 10.8436 150.587 10.7101C150.603 10.5724 150.642 10.4459 150.706 10.3306C150.774 10.2158 150.857 10.1196 150.955 10.042C151.053 9.96438 151.163 9.90722 151.285 9.87051C151.412 9.8301 151.543 9.81752 151.676 9.83279C151.814 9.84853 151.94 9.89045 152.055 9.95853C152.17 10.0224 152.267 10.1032 152.344 10.2009C152.426 10.299 152.487 10.4117 152.528 10.5389C152.568 10.6661 152.581 10.7985 152.565 10.9363Z" fill="url(#paint17_linear_16692_175751)"/>
<path d="M158.168 14.9358C158.116 14.9956 158.065 15.0364 158.015 15.0581C157.965 15.0757 157.905 15.0789 157.835 15.0677C157.76 15.0558 157.683 15.0222 157.602 14.9668C157.526 14.9121 157.436 14.851 157.332 14.7834C157.228 14.7116 157.107 14.6434 156.969 14.5788C156.834 14.5149 156.67 14.4674 156.475 14.4364C156.172 14.3881 155.923 14.4144 155.728 14.5153C155.534 14.6161 155.42 14.7702 155.387 14.9776C155.365 15.1144 155.39 15.2375 155.462 15.3468C155.539 15.4526 155.644 15.5523 155.778 15.6459C155.916 15.7402 156.074 15.8313 156.251 15.9191C156.429 16.0027 156.61 16.0933 156.795 16.1907C156.979 16.2881 157.158 16.3952 157.331 16.512C157.504 16.6247 157.653 16.759 157.777 16.9148C157.906 17.0672 157.999 17.2416 158.057 17.438C158.119 17.635 158.13 17.8621 158.089 18.1192C158.04 18.4262 157.939 18.7014 157.785 18.9448C157.632 19.1842 157.433 19.382 157.187 19.5385C156.941 19.6908 156.65 19.7954 156.314 19.8524C155.982 19.9058 155.611 19.8999 155.2 19.8345C154.98 19.7994 154.768 19.7444 154.563 19.6692C154.361 19.5988 154.169 19.5129 153.985 19.4113C153.806 19.3104 153.64 19.199 153.49 19.0772C153.343 18.956 153.217 18.8295 153.11 18.6977L153.558 18.1694C153.615 18.1062 153.677 18.0608 153.745 18.0334C153.814 18.006 153.895 17.9999 153.991 18.0151C154.086 18.0303 154.171 18.0714 154.245 18.1386C154.324 18.2064 154.414 18.2803 154.516 18.3603C154.618 18.4404 154.74 18.5193 154.88 18.597C155.025 18.6753 155.214 18.733 155.446 18.77C155.629 18.7991 155.787 18.8031 155.923 18.7821C156.063 18.7577 156.18 18.7168 156.274 18.6595C156.372 18.6028 156.447 18.5319 156.499 18.4466C156.556 18.3578 156.592 18.2636 156.608 18.1641C156.632 18.0147 156.606 17.8851 156.53 17.7752C156.458 17.6659 156.353 17.5641 156.215 17.4698C156.081 17.3762 155.923 17.2872 155.74 17.2029C155.563 17.1151 155.38 17.0222 155.192 16.9241C155.007 16.8267 154.827 16.7192 154.65 16.6017C154.478 16.4807 154.328 16.3399 154.2 16.1793C154.077 16.0193 153.985 15.8325 153.926 15.6188C153.87 15.4059 153.865 15.1584 153.91 14.8763C153.952 14.615 154.043 14.3744 154.185 14.1545C154.326 13.9346 154.51 13.7534 154.737 13.6109C154.969 13.4649 155.242 13.3639 155.557 13.3078C155.877 13.2482 156.234 13.2497 156.628 13.3125C157.068 13.3825 157.456 13.5189 157.794 13.7215C158.132 13.9242 158.402 14.1629 158.605 14.4376L158.168 14.9358Z" fill="url(#paint18_linear_16692_175751)"/>
<path d="M163.342 14.5733C163.814 14.6773 164.224 14.8473 164.572 15.0832C164.924 15.32 165.204 15.6077 165.414 15.9463C165.623 16.2849 165.757 16.6714 165.816 17.1059C165.875 17.5404 165.85 18.0058 165.74 18.5021C165.63 19.0025 165.456 19.4373 165.22 19.8067C164.984 20.1761 164.699 20.4724 164.366 20.6957C164.033 20.919 163.657 21.064 163.238 21.1307C162.823 21.1983 162.38 21.1801 161.908 21.0761C161.436 20.972 161.024 20.8016 160.672 20.5648C160.32 20.328 160.038 20.0378 159.826 19.6942C159.617 19.3515 159.482 18.9624 159.419 18.527C159.36 18.0925 159.385 17.6251 159.496 17.1247C159.605 16.6284 159.778 16.1956 160.014 15.8263C160.255 15.4578 160.541 15.164 160.873 14.9448C161.21 14.7265 161.587 14.584 162.006 14.5173C162.425 14.4506 162.871 14.4692 163.342 14.5733ZM162.166 19.9072C162.691 20.023 163.117 19.9321 163.445 19.6346C163.777 19.3379 164.018 18.8492 164.169 18.1684C164.319 17.4875 164.306 16.9407 164.13 16.5277C163.959 16.1157 163.611 15.8518 163.086 15.736C162.553 15.6184 162.119 15.712 161.785 16.0169C161.452 16.3176 161.211 16.8063 161.062 17.4831C160.912 18.1598 160.926 18.7046 161.101 19.1175C161.278 19.5263 161.633 19.7896 162.166 19.9072Z" fill="url(#paint19_linear_16692_175751)"/>
<path d="M166.757 22.1264L168.499 15.9018L169.378 16.148C169.532 16.191 169.631 16.2493 169.676 16.3229C169.721 16.3965 169.734 16.5049 169.716 16.6481L169.597 17.4258C169.927 17.1038 170.272 16.8735 170.634 16.7348C170.995 16.5961 171.362 16.5789 171.734 16.683C172.042 16.769 172.277 16.9111 172.439 17.1093L171.931 18.1773C171.899 18.2467 171.858 18.292 171.808 18.313C171.76 18.33 171.701 18.3289 171.632 18.3096C171.572 18.2926 171.493 18.2553 171.396 18.1975C171.298 18.1398 171.163 18.0866 170.989 18.0379C170.677 17.9507 170.386 17.963 170.115 18.0746C169.845 18.1823 169.587 18.3804 169.34 18.669L168.255 22.5458L166.757 22.1264Z" fill="url(#paint20_linear_16692_175751)"/>
<path d="M173.871 26.1293C173.791 26.2175 173.707 26.275 173.618 26.3019C173.531 26.3341 173.416 26.3256 173.273 26.2762L172.178 25.8974L174.167 23.8454L173.651 17.3346L174.937 17.7792C175.056 17.8204 175.138 17.8797 175.182 17.9572C175.227 18.0348 175.252 18.1147 175.259 18.1972L175.468 21.8156C175.476 21.9339 175.477 22.0541 175.47 22.1763C175.464 22.2984 175.453 22.4191 175.439 22.5385C175.51 22.4344 175.582 22.3349 175.655 22.2401C175.732 22.1466 175.811 22.0518 175.893 21.9558L178.213 19.218C178.272 19.1496 178.346 19.1019 178.435 19.075C178.529 19.0495 178.621 19.0525 178.712 19.0841L179.891 19.4916L173.871 26.1293Z" fill="url(#paint21_linear_16692_175751)"/>
<path d="M190.754 23.0709C190.674 23.1353 190.597 23.1713 190.524 23.1791C190.454 23.1886 190.382 23.1756 190.305 23.1402C190.229 23.1049 190.157 23.0365 190.088 22.9351C190.021 22.8299 189.94 22.7111 189.844 22.5785C189.748 22.446 189.626 22.3105 189.477 22.1719C189.334 22.0314 189.144 21.9062 188.908 21.7965C188.695 21.6975 188.496 21.6374 188.311 21.6164C188.132 21.5934 187.966 21.602 187.813 21.6421C187.664 21.6839 187.533 21.7573 187.419 21.862C187.307 21.9629 187.216 22.0896 187.145 22.2419C187.055 22.4362 187.033 22.6229 187.08 22.8019C187.13 22.9827 187.223 23.1604 187.36 23.335C187.497 23.5096 187.662 23.6861 187.857 23.8647C188.052 24.0432 188.248 24.2292 188.445 24.4227C188.648 24.6142 188.838 24.8182 189.016 25.0349C189.195 25.2477 189.335 25.4795 189.436 25.7302C189.539 25.9772 189.588 26.2454 189.583 26.5349C189.582 26.8262 189.502 27.1433 189.343 27.4861C189.169 27.8594 188.942 28.1797 188.66 28.4472C188.384 28.7126 188.065 28.9096 187.705 29.0384C187.349 29.1652 186.962 29.2167 186.542 29.1931C186.124 29.1657 185.687 29.0458 185.23 28.8335C184.967 28.7114 184.72 28.5644 184.49 28.3925C184.258 28.2245 184.045 28.038 183.854 27.8331C183.665 27.6299 183.499 27.4139 183.356 27.185C183.216 26.9579 183.104 26.7253 183.02 26.4872L183.808 25.9572C183.875 25.9233 183.944 25.9025 184.018 25.8948C184.096 25.885 184.172 25.8969 184.244 25.9305C184.339 25.9747 184.424 26.0625 184.497 26.1938C184.572 26.3213 184.662 26.4672 184.766 26.6314C184.874 26.7974 185.011 26.9673 185.175 27.1411C185.346 27.3128 185.574 27.465 185.859 27.5977C186.297 27.8012 186.684 27.8558 187.02 27.7616C187.357 27.6636 187.616 27.4203 187.796 27.0317C187.897 26.8146 187.924 26.6118 187.877 26.4234C187.834 26.2367 187.745 26.0561 187.608 25.8815C187.473 25.7031 187.307 25.5285 187.108 25.3576C186.91 25.1867 186.71 25.0083 186.509 24.8224C186.309 24.6365 186.119 24.4371 185.94 24.2243C185.761 24.0115 185.621 23.7778 185.522 23.5233C185.423 23.2687 185.377 22.9881 185.385 22.6816C185.399 22.373 185.493 22.0302 185.668 21.6531C185.808 21.3522 186.003 21.0863 186.254 20.8555C186.509 20.6264 186.802 20.4545 187.133 20.3397C187.468 20.2267 187.834 20.1814 188.231 20.2038C188.628 20.2262 189.042 20.3374 189.472 20.5373C189.96 20.7638 190.374 21.0487 190.715 21.3922C191.055 21.7356 191.307 22.1117 191.469 22.5205L190.754 23.0709Z" fill="url(#paint22_linear_16692_175751)"/>
<path d="M195.639 26.5943C196.063 26.8258 196.409 27.1033 196.678 27.4268C196.95 27.7524 197.139 28.1069 197.245 28.4904C197.352 28.8739 197.373 29.2825 197.308 29.7162C197.244 30.15 197.09 30.5899 196.846 31.0359C196.601 31.4857 196.313 31.855 195.983 32.1438C195.653 32.4326 195.297 32.6378 194.915 32.7594C194.533 32.8809 194.131 32.9153 193.71 32.8625C193.293 32.8118 192.872 32.6707 192.448 32.4393C192.024 32.2079 191.676 31.9294 191.404 31.6038C191.132 31.2782 190.942 30.9208 190.834 30.5316C190.73 30.1445 190.708 29.733 190.769 29.2973C190.833 28.8635 190.988 28.4218 191.234 27.972C191.477 27.526 191.764 27.1585 192.094 26.8697C192.427 26.5829 192.784 26.3805 193.164 26.2627C193.548 26.1468 193.951 26.1153 194.372 26.1681C194.793 26.2208 195.215 26.3629 195.639 26.5943ZM193.022 31.3886C193.494 31.6462 193.929 31.6779 194.327 31.4836C194.728 31.2913 195.096 30.8892 195.43 30.2772C195.764 29.6653 195.905 29.1366 195.851 28.6911C195.801 28.2476 195.54 27.8971 195.069 27.6395C194.589 27.3779 194.147 27.3469 193.741 27.5465C193.338 27.7425 192.97 28.1446 192.638 28.7529C192.306 29.3611 192.166 29.888 192.22 30.3335C192.275 30.7753 192.543 31.127 193.022 31.3886Z" fill="url(#paint23_linear_16692_175751)"/>
<path d="M203.15 27.7313L198.261 35.7149L196.934 34.9022L201.823 26.9186L203.15 27.7313Z" fill="url(#paint24_linear_16692_175751)"/>
<path d="M204.891 32.2925L202.574 35.6838C202.351 36.0098 202.252 36.3138 202.278 36.596C202.31 36.8772 202.477 37.1208 202.778 37.327C203 37.4787 203.242 37.5723 203.502 37.6079C203.765 37.64 204.042 37.6287 204.334 37.5738L206.972 33.7144L208.257 34.5924L204.609 39.929L203.824 39.3922C203.658 39.2785 203.602 39.1258 203.656 38.9342L203.859 38.4473C203.673 38.4824 203.488 38.5065 203.306 38.5196C203.127 38.5291 202.947 38.5207 202.767 38.4941C202.592 38.4665 202.415 38.4167 202.235 38.3447C202.057 38.2786 201.879 38.1851 201.702 38.0642C201.411 37.8652 201.186 37.6401 201.027 37.389C200.874 37.1367 200.782 36.8683 200.753 36.5837C200.724 36.2992 200.753 36.0065 200.842 35.7058C200.936 35.404 201.085 35.104 201.289 34.8058L203.607 31.4145L204.891 32.2925Z" fill="url(#paint25_linear_16692_175751)"/>
<path d="M208.028 42.6427C207.586 42.3014 207.341 41.9137 207.294 41.4795C207.25 41.0421 207.398 40.6023 207.74 40.1601L209.945 37.3024L209.427 36.9021C209.36 36.8507 209.319 36.7842 209.302 36.7025C209.289 36.6234 209.316 36.5406 209.383 36.4541L209.76 35.9654L210.687 36.4659L212.024 35.2696C212.088 35.2134 212.158 35.1849 212.233 35.1843C212.311 35.1862 212.387 35.2154 212.46 35.2719L213.098 35.7646L211.855 37.3755L213.201 38.4148L212.524 39.2925L211.177 38.2532L209.037 41.0261C208.914 41.1857 208.857 41.3411 208.868 41.4925C208.878 41.6439 208.95 41.7709 209.083 41.8735C209.16 41.9325 209.229 41.973 209.292 41.9949C209.361 42.016 209.421 42.0307 209.473 42.0389C209.528 42.0498 209.577 42.0585 209.62 42.0649C209.665 42.0681 209.703 42.0812 209.733 42.1043C209.769 42.1325 209.792 42.1656 209.799 42.2035C209.81 42.2381 209.814 42.2839 209.813 42.341L209.72 43.2244C209.425 43.2354 209.131 43.1893 208.84 43.0862C208.548 42.983 208.277 42.8352 208.028 42.6427Z" fill="url(#paint26_linear_16692_175751)"/>
<path d="M216.766 41.2979L212.584 46.2264L211.397 45.2196L215.579 40.291L216.766 41.2979ZM218.162 40.0124C218.075 40.1149 217.973 40.1933 217.855 40.2476C217.738 40.302 217.615 40.3329 217.487 40.3403C217.363 40.3505 217.237 40.337 217.109 40.2999C216.983 40.2595 216.868 40.1944 216.762 40.1048C216.659 40.0178 216.578 39.9157 216.518 39.7985C216.463 39.6808 216.431 39.5597 216.421 39.4354C216.411 39.3111 216.423 39.1865 216.457 39.0615C216.495 38.9392 216.557 38.8268 216.644 38.7243C216.734 38.6187 216.837 38.5357 216.955 38.4754C217.075 38.4179 217.198 38.384 217.322 38.3738C217.446 38.3636 217.569 38.3774 217.692 38.415C217.82 38.4522 217.935 38.5143 218.038 38.6012C218.143 38.6909 218.225 38.796 218.283 38.9164C218.343 39.0336 218.378 39.1544 218.388 39.2787C218.402 39.4058 218.39 39.5334 218.353 39.6616C218.315 39.7898 218.252 39.9067 218.162 40.0124Z" fill="url(#paint27_linear_16692_175751)"/>
<path d="M220.711 44.6913C221.063 45.0219 221.328 45.3775 221.507 45.7581C221.688 46.1416 221.782 46.5324 221.789 46.9303C221.795 47.3283 221.713 47.729 221.542 48.1326C221.37 48.5362 221.11 48.9232 220.763 49.2938C220.412 49.6674 220.041 49.9525 219.649 50.1491C219.257 50.3457 218.861 50.4548 218.46 50.4764C218.06 50.4979 217.662 50.4303 217.268 50.2734C216.877 50.1193 216.505 49.877 216.153 49.5465C215.801 49.2159 215.534 48.8588 215.353 48.4753C215.171 48.0918 215.077 47.6981 215.07 47.2942C215.066 46.8932 215.149 46.4895 215.317 46.083C215.489 45.6795 215.75 45.2909 216.1 44.9173C216.448 44.5468 216.818 44.2632 217.21 44.0666C217.605 43.8729 218.001 43.7667 218.399 43.7482C218.8 43.7326 219.197 43.8032 219.591 43.9601C219.985 44.117 220.359 44.3608 220.711 44.6913ZM216.972 48.6737C217.364 49.0417 217.777 49.1816 218.211 49.0936C218.648 49.0085 219.106 48.7118 219.583 48.2034C220.06 47.6951 220.329 47.2186 220.389 46.774C220.452 46.3323 220.288 45.9274 219.896 45.5595C219.498 45.1858 219.077 45.0446 218.634 45.1358C218.195 45.224 217.737 45.5207 217.263 46.026C216.789 46.5313 216.522 47.0062 216.461 47.4508C216.404 47.8924 216.574 48.3 216.972 48.6737Z" fill="url(#paint28_linear_16692_175751)"/>
<path d="M219.79 52.8999L224.512 48.4863L225.161 49.1813C225.299 49.3286 225.32 49.4898 225.225 49.6649L224.926 50.0915C225.113 50.0949 225.295 50.1115 225.472 50.1412C225.652 50.1741 225.826 50.2215 225.993 50.2836C226.164 50.3488 226.327 50.4346 226.484 50.5409C226.641 50.6472 226.794 50.7802 226.943 50.9397C227.184 51.1975 227.353 51.4677 227.45 51.7503C227.551 52.0301 227.583 52.3105 227.547 52.5915C227.516 52.8728 227.422 53.1504 227.265 53.4244C227.113 53.6986 226.905 53.959 226.641 54.2057L223.635 57.0147L222.573 55.8779L225.578 53.0688C225.867 52.7992 226.026 52.5238 226.056 52.2425C226.093 51.9615 225.986 51.6874 225.737 51.4205C225.553 51.2241 225.336 51.0816 225.087 50.9929C224.837 50.9042 224.564 50.8549 224.267 50.8449L220.852 54.0368L219.79 52.8999Z" fill="url(#paint29_linear_16692_175751)"/>
<path d="M231.467 58.2278C231.388 58.2385 231.323 58.2355 231.271 58.2188C231.222 58.1995 231.175 58.1623 231.129 58.1074C231.081 58.0493 231.044 57.973 231.02 57.8783C230.999 57.7869 230.971 57.6815 230.937 57.5621C230.907 57.44 230.861 57.309 230.799 57.1691C230.74 57.0325 230.647 56.8884 230.521 56.7366C230.325 56.501 230.12 56.357 229.907 56.3047C229.694 56.2525 229.507 56.2935 229.346 56.4278C229.239 56.5165 229.177 56.6256 229.159 56.7552C229.147 56.8854 229.161 57.0298 229.2 57.1884C229.242 57.3503 229.301 57.5227 229.376 57.7056C229.455 57.8858 229.532 58.0732 229.607 58.2679C229.681 58.4626 229.745 58.6608 229.798 58.8625C229.855 59.0615 229.878 59.2605 229.869 59.4595C229.866 59.659 229.821 59.8517 229.736 60.0377C229.653 60.227 229.511 60.4049 229.311 60.5715C229.072 60.7703 228.815 60.9108 228.539 60.9929C228.266 61.0724 227.986 61.09 227.698 61.0457C227.413 60.9988 227.125 60.8859 226.834 60.7072C226.549 60.5291 226.273 60.2802 226.007 59.9606C225.865 59.7896 225.741 59.6083 225.637 59.4168C225.531 59.2312 225.443 59.0397 225.372 58.8423C225.303 58.6481 225.252 58.4556 225.219 58.2647C225.188 58.077 225.176 57.8984 225.183 57.729L225.868 57.6262C225.952 57.616 226.029 57.623 226.098 57.6473C226.168 57.6715 226.233 57.7207 226.295 57.795C226.357 57.8692 226.394 57.9561 226.405 58.0556C226.42 58.1583 226.439 58.2734 226.463 58.4009C226.487 58.5283 226.527 58.6676 226.582 58.8188C226.639 58.9731 226.743 59.1407 226.894 59.3215C227.012 59.4635 227.129 59.5711 227.244 59.6443C227.366 59.7181 227.481 59.7644 227.589 59.7833C227.701 59.8054 227.804 59.8014 227.899 59.7713C228 59.7418 228.09 59.6948 228.167 59.6303C228.283 59.5336 228.349 59.4188 228.364 59.286C228.382 59.1564 228.37 59.0107 228.328 58.8488C228.289 58.6901 228.228 58.5191 228.147 58.3357C228.071 58.1528 227.995 57.9624 227.917 57.7644C227.843 57.5697 227.777 57.3699 227.722 57.165C227.672 56.9606 227.652 56.756 227.661 56.5511C227.674 56.3495 227.728 56.1487 227.824 55.9487C227.922 55.7519 228.081 55.5622 228.301 55.3794C228.504 55.2102 228.732 55.0893 228.983 55.0168C229.234 54.9444 229.492 54.9292 229.756 54.9713C230.027 55.0139 230.299 55.1179 230.573 55.2831C230.853 55.4489 231.121 55.6851 231.376 55.9918C231.661 56.334 231.864 56.6925 231.985 57.0674C232.105 57.4422 232.152 57.7999 232.124 58.1403L231.467 58.2278Z" fill="url(#paint30_linear_16692_175751)"/>
<path d="M50.6268 217.577L49.6187 218.472L46.9372 215.452L45.0482 217.13L47.1608 219.509L46.1857 220.375L44.0731 217.996L42.1464 219.707L44.8279 222.726L43.8151 223.626L40 219.33L46.8116 213.281L50.6268 217.577Z" fill="url(#paint31_linear_16692_175751)"/>
<path d="M54.243 223.582C54.1452 223.616 54.0606 223.624 53.9893 223.606C53.9209 223.592 53.8568 223.555 53.797 223.496C53.7372 223.437 53.6921 223.348 53.6617 223.23C53.6342 223.108 53.5977 222.969 53.5521 222.811C53.5066 222.654 53.4372 222.486 53.344 222.305C53.2568 222.124 53.1205 221.943 52.9352 221.76C52.7679 221.594 52.6008 221.471 52.4339 221.389C52.273 221.306 52.1138 221.258 51.9564 221.244C51.8019 221.234 51.6535 221.258 51.5113 221.319C51.3721 221.376 51.2435 221.464 51.1254 221.584C50.9749 221.736 50.8913 221.905 50.8747 222.089C50.861 222.276 50.889 222.475 50.9586 222.685C51.0282 222.896 51.1247 223.118 51.2479 223.352C51.3712 223.585 51.493 223.827 51.6133 224.075C51.7396 224.324 51.8496 224.58 51.9433 224.844C52.04 225.105 52.0937 225.37 52.1043 225.641C52.1178 225.908 52.0735 226.177 51.9712 226.448C51.872 226.722 51.6896 226.993 51.424 227.262C51.1348 227.555 50.8124 227.78 50.457 227.936C50.1076 228.093 49.7413 228.171 49.3582 228.17C48.981 228.17 48.5988 228.087 48.2117 227.924C47.8276 227.757 47.4562 227.496 47.0975 227.142C46.8913 226.938 46.7088 226.717 46.5499 226.477C46.388 226.241 46.2513 225.994 46.1398 225.736C46.0313 225.481 45.948 225.222 45.8899 224.958C45.8348 224.697 45.8079 224.44 45.8093 224.188L46.73 223.955C46.8042 223.945 46.877 223.949 46.9484 223.967C47.0257 223.984 47.0928 224.021 47.1495 224.077C47.2243 224.151 47.274 224.262 47.2986 224.41C47.3263 224.555 47.3615 224.723 47.4043 224.913C47.45 225.105 47.5211 225.311 47.6175 225.531C47.7199 225.75 47.8831 225.97 48.1073 226.191C48.4509 226.531 48.7966 226.713 49.1442 226.737C49.4948 226.759 49.8206 226.617 50.1216 226.312C50.2898 226.142 50.3837 225.96 50.4033 225.767C50.4259 225.577 50.4023 225.376 50.3327 225.166C50.266 224.953 50.1681 224.732 50.039 224.504C49.9098 224.276 49.7821 224.041 49.6559 223.798C49.5296 223.555 49.4181 223.304 49.3215 223.043C49.2248 222.782 49.1726 222.515 49.165 222.242C49.1573 221.969 49.209 221.689 49.3201 221.404C49.4371 221.118 49.6417 220.827 49.9338 220.531C50.167 220.295 50.4405 220.111 50.7545 219.978C51.0715 219.848 51.4052 219.785 51.7556 219.789C52.1091 219.796 52.469 219.877 52.8352 220.032C53.2015 220.187 53.5535 220.431 53.8912 220.765C54.2737 221.142 54.5673 221.55 54.772 221.989C54.9768 222.427 55.0864 222.866 55.1011 223.305L54.243 223.582Z" fill="url(#paint32_linear_16692_175751)"/>
<path d="M55.6505 233.171C55.9423 233.418 56.2172 233.607 56.4755 233.737C56.7396 233.867 57.0088 233.968 57.283 234.041L58.3534 232.776L57.483 232.039C57.3996 231.969 57.3529 231.891 57.3428 231.805C57.3354 231.716 57.3602 231.638 57.4171 231.571L58.0358 230.84L60.3489 232.798L57.968 235.611C57.6832 235.59 57.4039 235.546 57.1301 235.48C56.8623 235.412 56.5936 235.317 56.324 235.194C56.0577 235.073 55.7889 234.922 55.5176 234.742C55.2436 234.565 54.9639 234.356 54.6786 234.115C54.172 233.686 53.7802 233.203 53.503 232.666C53.2258 232.129 53.0647 231.571 53.0196 230.994C52.9745 230.417 53.0483 229.835 53.241 229.25C53.4368 228.668 53.7532 228.118 54.19 227.602C54.6323 227.079 55.1229 226.672 55.6618 226.38C56.2007 226.088 56.7586 225.916 57.3355 225.865C57.9156 225.817 58.5017 225.895 59.0938 226.099C59.686 226.303 60.2594 226.639 60.814 227.109C61.3815 227.589 61.8001 228.089 62.0699 228.609C62.3456 229.128 62.5137 229.645 62.5743 230.158L61.7027 230.428C61.5286 230.484 61.3806 230.46 61.2588 230.357C61.1818 230.292 61.125 230.2 61.0883 230.081C61.0372 229.933 60.983 229.783 60.9255 229.629C60.8713 229.479 60.7974 229.326 60.704 229.17C60.6137 229.016 60.499 228.856 60.3599 228.689C60.2241 228.524 60.0503 228.352 59.8387 228.173C59.4957 227.883 59.1359 227.677 58.7593 227.557C58.3859 227.439 58.0105 227.405 57.6331 227.454C57.2558 227.503 56.8867 227.634 56.5259 227.846C56.165 228.057 55.8272 228.349 55.5125 228.721C55.1734 229.122 54.9269 229.527 54.7732 229.936C54.6223 230.342 54.5569 230.738 54.5771 231.124C54.5973 231.509 54.698 231.878 54.8792 232.229C55.0632 232.578 55.3203 232.891 55.6505 233.171Z" fill="url(#paint33_linear_16692_175751)"/>
<path d="M71.0184 236.918C70.9283 236.969 70.8466 236.992 70.7732 236.988C70.7034 236.986 70.6337 236.962 70.5641 236.915C70.4946 236.867 70.434 236.788 70.3825 236.677C70.3333 236.563 70.272 236.432 70.1985 236.286C70.1251 236.14 70.0261 235.987 69.9015 235.826C69.7828 235.664 69.6156 235.51 69.4001 235.364C69.2054 235.232 69.0186 235.141 68.8396 235.091C68.6664 235.04 68.5011 235.021 68.3437 235.036C68.1898 235.054 68.0485 235.105 67.9197 235.19C67.7932 235.272 67.6829 235.383 67.5886 235.522C67.4684 235.699 67.417 235.88 67.4342 236.064C67.4549 236.25 67.5186 236.441 67.6255 236.635C67.7323 236.829 67.8676 237.03 68.0315 237.237C68.1953 237.445 68.359 237.66 68.5227 237.883C68.6923 238.104 68.8472 238.336 68.9874 238.578C69.13 238.817 69.2312 239.068 69.2909 239.332C69.353 239.592 69.3584 239.865 69.3073 240.15C69.2597 240.437 69.1298 240.737 68.9177 241.05C68.6867 241.391 68.4108 241.671 68.09 241.889C67.7749 242.107 67.429 242.251 67.0522 242.32C66.6812 242.388 66.2905 242.377 65.88 242.286C65.4718 242.192 65.0592 242.004 64.642 241.721C64.4021 241.559 64.1822 241.374 63.9822 241.168C63.7799 240.964 63.6005 240.746 63.4439 240.513C63.2907 240.283 63.1615 240.043 63.0563 239.794C62.9545 239.547 62.8812 239.3 62.8366 239.051L63.6993 238.654C63.7706 238.632 63.8428 238.622 63.9162 238.626C63.9954 238.629 64.068 238.653 64.1341 238.698C64.221 238.757 64.2901 238.857 64.3414 238.998C64.3951 239.136 64.4603 239.295 64.537 239.473C64.6171 239.655 64.7246 239.844 64.8594 240.042C65 240.239 65.2006 240.426 65.4614 240.602C65.8612 240.873 66.2342 240.989 66.5805 240.95C66.9291 240.907 67.2236 240.708 67.464 240.354C67.5983 240.156 67.6575 239.96 67.6415 239.766C67.629 239.575 67.5693 239.383 67.4625 239.188C67.358 238.991 67.2215 238.792 67.053 238.591C66.8845 238.391 66.716 238.183 66.5476 237.967C66.3792 237.751 66.2236 237.524 66.081 237.285C65.9384 237.047 65.8384 236.794 65.7811 236.526C65.7237 236.259 65.7236 235.975 65.7807 235.674C65.8436 235.371 65.9917 235.048 66.225 234.704C66.4112 234.429 66.6465 234.198 66.931 234.01C67.219 233.825 67.5357 233.702 67.8809 233.642C68.2297 233.584 68.5983 233.598 68.9867 233.684C69.3751 233.769 69.7657 233.945 70.1586 234.212C70.6036 234.513 70.9667 234.861 71.2479 235.255C71.5291 235.648 71.717 236.06 71.8115 236.489L71.0184 236.918Z" fill="url(#paint34_linear_16692_175751)"/>
<path d="M71.5198 246.11C71.0394 245.825 70.7495 245.47 70.6501 245.045C70.5528 244.616 70.6466 244.161 70.9316 243.681L72.7731 240.576L72.2095 240.242C72.1373 240.199 72.088 240.138 72.0617 240.059C72.0389 239.982 72.0554 239.896 72.1111 239.802L72.4261 239.271L73.4069 239.655L74.5886 238.305C74.6459 238.242 74.7116 238.205 74.7857 238.195C74.8635 238.188 74.9421 238.207 75.0216 238.254L75.7151 238.666L74.6771 240.416L76.1401 241.284L75.5745 242.237L74.1115 241.37L72.3246 244.382C72.2218 244.556 72.1848 244.717 72.2136 244.866C72.2425 245.015 72.3292 245.132 72.4737 245.218C72.5567 245.267 72.6307 245.299 72.6956 245.313C72.7663 245.326 72.8279 245.333 72.8805 245.335C72.9367 245.339 72.9864 245.341 73.0296 245.343C73.075 245.34 73.114 245.349 73.1465 245.368C73.1862 245.392 73.2123 245.422 73.2247 245.458C73.2393 245.491 73.2492 245.536 73.2546 245.593L73.2699 246.481C72.9784 246.528 72.6816 246.518 72.3795 246.451C72.0773 246.384 71.7908 246.271 71.5198 246.11Z" fill="url(#paint35_linear_16692_175751)"/>
<path d="M75.0233 248.015L78.0457 242.301L78.8532 242.729C78.9943 242.803 79.0789 242.881 79.1071 242.963C79.1353 243.044 79.1253 243.153 79.0771 243.289L78.7953 244.024C79.1861 243.779 79.5729 243.627 79.9556 243.568C80.3383 243.509 80.7005 243.57 81.0421 243.751C81.3242 243.9 81.5237 244.089 81.6406 244.317L80.9174 245.253C80.8709 245.314 80.8213 245.349 80.7684 245.36C80.7176 245.366 80.6606 245.352 80.5975 245.319C80.5418 245.29 80.4725 245.236 80.3898 245.159C80.307 245.082 80.1858 245.001 80.0261 244.917C79.7403 244.766 79.453 244.716 79.1644 244.768C78.8777 244.815 78.5833 244.954 78.2812 245.184L76.3988 248.743L75.0233 248.015Z" fill="url(#paint36_linear_16692_175751)"/>
<path d="M85.2786 253.064L84.6431 252.772C84.5096 252.71 84.4134 252.643 84.3546 252.57C84.2975 252.493 84.278 252.385 84.2959 252.245L84.362 251.769C84.1518 251.834 83.9505 251.885 83.7581 251.922C83.5713 251.956 83.3858 251.972 83.2016 251.971C83.0173 251.969 82.8315 251.946 82.644 251.902C82.4564 251.857 82.2577 251.787 82.0478 251.69C81.7997 251.576 81.5857 251.439 81.4056 251.277C81.2272 251.112 81.0924 250.928 81.0011 250.724C80.9136 250.522 80.8735 250.303 80.8807 250.066C80.8879 249.829 80.952 249.579 81.073 249.315C81.1747 249.094 81.3319 248.903 81.5446 248.741C81.7628 248.578 82.0469 248.473 82.3968 248.426C82.7484 248.375 83.1757 248.395 83.6786 248.488C84.1816 248.58 84.7705 248.772 85.4454 249.064L85.6032 248.72C85.7838 248.327 85.8331 247.999 85.7511 247.734C85.6747 247.468 85.4781 247.262 85.1613 247.117C84.9323 247.012 84.7292 246.951 84.552 246.934C84.3748 246.917 84.2132 246.917 84.0671 246.933C83.9266 246.947 83.7964 246.959 83.6764 246.968C83.5565 246.978 83.4392 246.957 83.3248 246.904C83.2293 246.86 83.1587 246.798 83.1128 246.716C83.0669 246.635 83.0396 246.549 83.0309 246.457L82.9811 245.886C83.9407 245.578 84.8975 245.644 85.8516 246.082C86.1951 246.24 86.4741 246.437 86.6887 246.675C86.9088 246.91 87.0659 247.171 87.16 247.46C87.2558 247.744 87.2874 248.047 87.2549 248.37C87.2261 248.694 87.1354 249.022 86.9829 249.354L85.2786 253.064ZM82.9357 250.92C83.0808 250.986 83.2205 251.034 83.3549 251.064C83.4893 251.093 83.6222 251.106 83.7536 251.101C83.8888 251.099 84.0236 251.082 84.1579 251.051C84.2977 251.019 84.4437 250.972 84.5959 250.913L85.0509 249.923C84.6299 249.752 84.2679 249.63 83.9647 249.555C83.6672 249.479 83.416 249.442 83.2113 249.445C83.0065 249.448 82.8433 249.486 82.7217 249.56C82.6039 249.635 82.5161 249.736 82.4582 249.861C82.3443 250.11 82.3352 250.32 82.4312 250.494C82.5309 250.669 82.6991 250.811 82.9357 250.92Z" fill="url(#paint37_linear_16692_175751)"/>
<path d="M89.3095 254.817C88.7897 254.613 88.4469 254.308 88.2809 253.904C88.1165 253.497 88.1366 253.033 88.3412 252.513L89.6638 249.154L89.0542 248.914C88.976 248.883 88.9176 248.831 88.879 248.757C88.8443 248.685 88.8469 248.598 88.8869 248.496L89.1131 247.922L90.1427 248.144L91.0938 246.623C91.1402 246.551 91.1992 246.504 91.2709 246.483C91.3464 246.463 91.4272 246.47 91.5131 246.504L92.2635 246.799L91.518 248.693L93.1007 249.316L92.6944 250.347L91.1117 249.724L89.8284 252.984C89.7545 253.171 89.7437 253.336 89.796 253.479C89.8482 253.621 89.9525 253.723 90.1088 253.785C90.1987 253.82 90.2768 253.839 90.3431 253.843C90.4149 253.844 90.4768 253.841 90.5291 253.835C90.5852 253.83 90.6347 253.825 90.6776 253.819C90.722 253.809 90.7618 253.811 90.7969 253.825C90.8399 253.842 90.8705 253.868 90.8886 253.902C90.9083 253.932 90.9253 253.975 90.9396 254.03L91.0964 254.905C90.8161 254.997 90.5215 255.035 90.2126 255.017C89.9036 254.999 89.6026 254.933 89.3095 254.817Z" fill="url(#paint38_linear_16692_175751)"/>
<path d="M97.6326 250.753C98.0194 250.881 98.3538 251.061 98.6358 251.291C98.9218 251.523 99.1427 251.798 99.2987 252.115C99.456 252.428 99.543 252.78 99.5597 253.17C99.5777 253.557 99.5134 253.971 99.3668 254.414C99.3298 254.525 99.2928 254.617 99.2558 254.689C99.224 254.758 99.1869 254.81 99.1445 254.844C99.1074 254.876 99.0636 254.895 99.0131 254.901C98.964 254.902 98.9055 254.891 98.8378 254.869L95.0461 253.613C94.8813 254.258 94.8976 254.776 95.0949 255.169C95.2922 255.562 95.6341 255.839 96.1205 256C96.3597 256.079 96.5743 256.119 96.7642 256.12C96.9581 256.122 97.1301 256.111 97.2801 256.085C97.4341 256.061 97.5682 256.037 97.6824 256.013C97.8006 255.99 97.9055 255.994 97.9972 256.024C98.057 256.044 98.1049 256.073 98.1408 256.111C98.1768 256.15 98.2034 256.196 98.2208 256.251L98.4731 256.932C98.2462 257.069 98.0093 257.17 97.7624 257.234C97.5168 257.294 97.2692 257.327 97.0195 257.333C96.7751 257.336 96.532 257.315 96.2902 257.27C96.0524 257.227 95.8258 257.17 95.6105 257.098C95.1839 256.957 94.8103 256.756 94.4898 256.495C94.1705 256.23 93.9209 255.915 93.7409 255.55C93.5622 255.181 93.4625 254.768 93.4417 254.309C93.4222 253.847 93.5016 253.347 93.6799 252.809C93.8186 252.39 94.0165 252.02 94.2735 251.698C94.5319 251.372 94.8316 251.115 95.1726 250.927C95.5188 250.737 95.8998 250.622 96.3155 250.582C96.7351 250.544 97.1741 250.601 97.6326 250.753ZM97.3119 251.822C96.8813 251.679 96.5042 251.689 96.1804 251.852C95.8566 252.014 95.5869 252.308 95.3712 252.732L98.1461 253.651C98.2095 253.46 98.243 253.272 98.2467 253.087C98.2516 252.898 98.2214 252.723 98.156 252.559C98.0906 252.396 97.9881 252.251 97.8484 252.126C97.71 251.996 97.5312 251.894 97.3119 251.822Z" fill="url(#paint39_linear_16692_175751)"/>
<path d="M104.775 252.877C105.043 252.947 105.287 253.042 105.508 253.161C105.729 253.276 105.924 253.412 106.091 253.569L107.888 254.042L107.74 254.603C107.716 254.696 107.672 254.763 107.609 254.803C107.547 254.843 107.454 254.857 107.331 254.847L106.743 254.802C106.756 254.919 106.757 255.038 106.746 255.162C106.74 255.286 106.719 255.413 106.685 255.543C106.604 255.852 106.467 256.115 106.274 256.334C106.087 256.549 105.861 256.716 105.596 256.833C105.335 256.951 105.041 257.019 104.715 257.037C104.394 257.052 104.058 257.014 103.709 256.922C103.473 256.86 103.25 256.777 103.038 256.674C102.812 256.74 102.68 256.846 102.642 256.992C102.608 257.118 102.641 257.227 102.738 257.318C102.841 257.406 102.983 257.486 103.163 257.56C103.348 257.635 103.559 257.707 103.796 257.779C104.035 257.846 104.277 257.923 104.524 258.009C104.77 258.096 105.006 258.197 105.232 258.313C105.459 258.425 105.651 258.561 105.809 258.719C105.971 258.879 106.084 259.07 106.147 259.291C106.216 259.508 106.211 259.766 106.133 260.062C106.06 260.338 105.92 260.588 105.714 260.812C105.511 261.036 105.253 261.216 104.94 261.351C104.631 261.486 104.273 261.566 103.867 261.589C103.46 261.617 103.017 261.567 102.538 261.441C102.063 261.316 101.663 261.161 101.338 260.975C101.013 260.794 100.754 260.595 100.563 260.38C100.376 260.17 100.251 259.95 100.19 259.721C100.128 259.492 100.126 259.27 100.183 259.055C100.26 258.763 100.414 258.54 100.645 258.388C100.876 258.237 101.166 258.143 101.513 258.109C101.382 257.983 101.288 257.837 101.232 257.67C101.176 257.503 101.178 257.306 101.238 257.079C101.262 256.985 101.304 256.894 101.362 256.805C101.421 256.712 101.496 256.626 101.587 256.545C101.681 256.466 101.791 256.397 101.915 256.338C102.04 256.276 102.181 256.228 102.337 256.196C102.065 255.942 101.875 255.648 101.767 255.316C101.663 254.984 101.662 254.628 101.762 254.246C101.844 253.937 101.978 253.675 102.165 253.46C102.357 253.241 102.586 253.073 102.851 252.956C103.122 252.837 103.42 252.769 103.745 252.755C104.074 252.742 104.417 252.783 104.775 252.877ZM104.676 259.952C104.708 259.83 104.698 259.721 104.645 259.625C104.593 259.528 104.509 259.443 104.393 259.369C104.279 259.292 104.14 259.22 103.974 259.155C103.813 259.091 103.638 259.029 103.449 258.971C103.266 258.909 103.074 258.848 102.873 258.786C102.677 258.722 102.489 258.653 102.308 258.579C102.113 258.628 101.946 258.703 101.806 258.805C101.671 258.904 101.582 259.037 101.538 259.203C101.509 259.313 101.509 259.422 101.537 259.529C101.568 259.641 101.633 259.748 101.733 259.848C101.837 259.949 101.979 260.043 102.16 260.13C102.341 260.221 102.569 260.302 102.845 260.375C103.125 260.449 103.373 260.49 103.588 260.499C103.801 260.512 103.983 260.497 104.134 260.454C104.287 260.416 104.408 260.353 104.497 260.263C104.584 260.178 104.644 260.074 104.676 259.952ZM103.963 255.959C104.149 256.009 104.318 256.027 104.469 256.015C104.621 255.998 104.754 255.957 104.867 255.891C104.984 255.827 105.081 255.737 105.159 255.623C105.241 255.51 105.301 255.378 105.341 255.228C105.422 254.919 105.393 254.651 105.253 254.423C105.119 254.192 104.867 254.028 104.497 253.931C104.127 253.833 103.825 253.851 103.59 253.985C103.36 254.115 103.205 254.335 103.123 254.644C103.085 254.79 103.071 254.932 103.083 255.07C103.099 255.208 103.139 255.336 103.203 255.453C103.273 255.567 103.37 255.669 103.494 255.758C103.624 255.844 103.78 255.911 103.963 255.959Z" fill="url(#paint40_linear_16692_175751)"/>
<path d="M110.999 254.465L109.651 260.786L108.129 260.462L109.477 254.14L110.999 254.465ZM111.62 252.671C111.592 252.803 111.539 252.92 111.461 253.024C111.383 253.127 111.29 253.213 111.181 253.28C111.076 253.348 110.959 253.395 110.828 253.423C110.698 253.447 110.566 253.445 110.43 253.416C110.299 253.388 110.179 253.337 110.07 253.262C109.967 253.184 109.881 253.093 109.813 252.988C109.745 252.883 109.697 252.768 109.668 252.641C109.643 252.516 109.645 252.387 109.673 252.256C109.702 252.12 109.754 251.998 109.828 251.89C109.907 251.782 109.999 251.694 110.103 251.626C110.208 251.558 110.323 251.512 110.449 251.487C110.579 251.459 110.71 251.459 110.842 251.487C110.977 251.516 111.099 251.57 111.207 251.649C111.315 251.724 111.403 251.813 111.471 251.918C111.543 252.024 111.593 252.142 111.621 252.272C111.649 252.403 111.649 252.536 111.62 252.671Z" fill="url(#paint41_linear_16692_175751)"/>
<path d="M117.541 257.03C117.486 257.08 117.433 257.118 117.382 257.144C117.335 257.17 117.27 257.177 117.187 257.163C117.108 257.15 117.035 257.115 116.968 257.057C116.902 256.995 116.821 256.927 116.727 256.852C116.634 256.772 116.519 256.698 116.381 256.629C116.248 256.556 116.076 256.502 115.865 256.467C115.595 256.423 115.351 256.434 115.132 256.5C114.913 256.562 114.72 256.673 114.553 256.833C114.391 256.993 114.255 257.199 114.146 257.449C114.037 257.695 113.956 257.982 113.902 258.309C113.846 258.649 113.832 258.957 113.859 259.234C113.89 259.512 113.959 259.753 114.066 259.958C114.173 260.158 114.316 260.322 114.496 260.45C114.675 260.573 114.888 260.654 115.132 260.695C115.377 260.735 115.578 260.738 115.737 260.705C115.901 260.668 116.04 260.622 116.155 260.569C116.271 260.511 116.371 260.46 116.455 260.414C116.544 260.365 116.636 260.348 116.731 260.364C116.856 260.384 116.941 260.447 116.988 260.553L117.337 261.185C117.135 261.356 116.923 261.493 116.701 261.597C116.481 261.697 116.256 261.771 116.026 261.818C115.802 261.862 115.573 261.882 115.34 261.878C115.107 261.874 114.878 261.853 114.654 261.816C114.26 261.752 113.901 261.618 113.577 261.416C113.253 261.21 112.984 260.944 112.769 260.619C112.559 260.295 112.41 259.918 112.324 259.486C112.242 259.052 112.244 258.573 112.329 258.051C112.406 257.582 112.544 257.16 112.742 256.784C112.945 256.405 113.2 256.091 113.509 255.844C113.819 255.593 114.18 255.416 114.592 255.313C115.005 255.211 115.462 255.201 115.964 255.283C116.44 255.361 116.844 255.507 117.175 255.718C117.511 255.931 117.798 256.204 118.037 256.537L117.541 257.03Z" fill="url(#paint42_linear_16692_175751)"/>
<path d="M131.601 263.426L130.293 263.346C130.146 263.337 130.027 263.294 129.935 263.217C129.847 263.136 129.785 263.039 129.75 262.928L129.184 261.031L125.418 260.801L124.625 262.615C124.586 262.709 124.513 262.793 124.408 262.866C124.307 262.94 124.185 262.973 124.042 262.964L122.728 262.884L126.855 254.009L128.585 254.115L131.601 263.426ZM125.925 259.633L128.824 259.81L127.902 256.718C127.86 256.58 127.813 256.42 127.761 256.236C127.713 256.048 127.667 255.845 127.621 255.628C127.549 255.838 127.479 256.033 127.409 256.214C127.343 256.395 127.278 256.553 127.216 256.688L125.925 259.633Z" fill="url(#paint43_linear_16692_175751)"/>
<path d="M138.46 263.374C138.258 263.377 138.125 263.284 138.059 263.096L137.923 262.475C137.791 262.628 137.652 262.767 137.507 262.891C137.362 263.015 137.204 263.122 137.033 263.213C136.867 263.304 136.685 263.374 136.488 263.423C136.296 263.476 136.086 263.505 135.86 263.508C135.507 263.514 135.182 263.445 134.886 263.303C134.59 263.16 134.333 262.952 134.114 262.678C133.9 262.4 133.731 262.056 133.607 261.646C133.487 261.236 133.423 260.767 133.415 260.238C133.408 259.759 133.466 259.313 133.59 258.899C133.714 258.486 133.895 258.126 134.134 257.82C134.373 257.514 134.661 257.274 134.999 257.101C135.337 256.924 135.717 256.832 136.142 256.825C136.503 256.82 136.812 256.874 137.07 256.987C137.328 257.097 137.559 257.247 137.764 257.437L137.712 254.022L139.267 253.999L139.411 263.359L138.46 263.374ZM136.37 262.265C136.693 262.261 136.967 262.189 137.192 262.051C137.417 261.913 137.628 261.719 137.826 261.468L137.781 258.57C137.602 258.359 137.406 258.211 137.195 258.126C136.988 258.041 136.764 258 136.525 258.004C136.29 258.007 136.076 258.055 135.885 258.146C135.697 258.237 135.537 258.374 135.406 258.557C135.278 258.735 135.181 258.963 135.114 259.241C135.047 259.516 135.016 259.839 135.022 260.213C135.027 260.591 135.062 260.912 135.125 261.176C135.191 261.435 135.283 261.648 135.399 261.814C135.515 261.976 135.655 262.094 135.82 262.167C135.985 262.236 136.168 262.269 136.37 262.265Z" fill="url(#paint44_linear_16692_175751)"/>
<path d="M145.418 262.987L144.012 263.102L140.927 256.867L142.214 256.762C142.327 256.753 142.423 256.773 142.503 256.821C142.587 256.869 142.647 256.934 142.683 257.015L144.206 260.355C144.293 260.55 144.368 260.742 144.43 260.931C144.495 261.12 144.555 261.309 144.608 261.498C144.63 261.303 144.657 261.107 144.687 260.91C144.722 260.714 144.769 260.512 144.828 260.305L145.823 256.76C145.845 256.674 145.892 256.601 145.963 256.54C146.034 256.48 146.122 256.445 146.226 256.437L147.451 256.337L145.418 262.987Z" fill="url(#paint45_linear_16692_175751)"/>
<path d="M151.142 255.865L151.971 262.275L150.428 262.475L149.599 256.064L151.142 255.865ZM151.131 253.967C151.149 254.1 151.138 254.228 151.099 254.352C151.06 254.476 151 254.587 150.92 254.686C150.843 254.785 150.749 254.869 150.635 254.939C150.52 255.005 150.395 255.046 150.257 255.064C150.124 255.082 149.993 255.073 149.866 255.039C149.743 255 149.631 254.942 149.533 254.866C149.434 254.79 149.35 254.697 149.281 254.587C149.216 254.477 149.174 254.355 149.157 254.222C149.139 254.084 149.148 253.952 149.182 253.825C149.221 253.697 149.278 253.584 149.354 253.485C149.43 253.386 149.523 253.304 149.633 253.239C149.747 253.169 149.871 253.126 150.004 253.109C150.142 253.091 150.274 253.101 150.402 253.14C150.529 253.174 150.642 253.229 150.741 253.306C150.844 253.381 150.93 253.476 151 253.59C151.07 253.703 151.114 253.829 151.131 253.967Z" fill="url(#paint46_linear_16692_175751)"/>
<path d="M157.421 256.129C157.391 256.202 157.356 256.257 157.316 256.294C157.275 256.327 157.219 256.35 157.149 256.362C157.074 256.375 156.99 256.368 156.896 256.342C156.806 256.315 156.701 256.286 156.58 256.256C156.459 256.222 156.323 256.197 156.17 256.181C156.023 256.164 155.851 256.172 155.657 256.206C155.355 256.259 155.128 256.365 154.977 256.523C154.825 256.682 154.768 256.865 154.804 257.071C154.828 257.208 154.891 257.316 154.995 257.396C155.102 257.471 155.234 257.532 155.391 257.577C155.552 257.621 155.731 257.656 155.927 257.681C156.123 257.703 156.323 257.729 156.529 257.762C156.735 257.794 156.939 257.837 157.141 257.892C157.341 257.942 157.525 258.021 157.693 258.128C157.865 258.23 158.01 258.365 158.128 258.531C158.251 258.698 158.335 258.909 158.38 259.165C158.433 259.472 158.427 259.765 158.36 260.045C158.293 260.321 158.169 260.573 157.987 260.801C157.804 261.025 157.563 261.218 157.263 261.381C156.967 261.539 156.614 261.654 156.204 261.726C155.985 261.764 155.766 261.781 155.548 261.776C155.335 261.775 155.125 261.756 154.918 261.72C154.715 261.683 154.523 261.631 154.341 261.565C154.163 261.498 154.002 261.419 153.858 261.329L154.11 260.684C154.144 260.606 154.188 260.543 154.244 260.495C154.299 260.447 154.375 260.414 154.47 260.398C154.565 260.381 154.659 260.392 154.751 260.432C154.847 260.47 154.956 260.511 155.079 260.554C155.201 260.596 155.342 260.631 155.5 260.659C155.663 260.686 155.86 260.68 156.091 260.639C156.274 260.607 156.425 260.56 156.546 260.496C156.671 260.427 156.768 260.351 156.839 260.266C156.913 260.18 156.961 260.089 156.982 259.991C157.007 259.889 157.011 259.788 156.994 259.689C156.968 259.54 156.901 259.426 156.793 259.346C156.69 259.266 156.557 259.204 156.396 259.16C156.239 259.115 156.061 259.082 155.861 259.061C155.665 259.036 155.461 259.007 155.251 258.976C155.045 258.944 154.84 258.901 154.634 258.847C154.432 258.788 154.245 258.704 154.072 258.593C153.903 258.482 153.756 258.335 153.63 258.152C153.509 257.969 153.423 257.737 153.374 257.455C153.329 257.195 153.337 256.937 153.4 256.683C153.462 256.43 153.577 256.198 153.745 255.99C153.917 255.777 154.143 255.592 154.423 255.437C154.706 255.277 155.044 255.162 155.437 255.094C155.876 255.017 156.288 255.02 156.673 255.102C157.058 255.184 157.391 255.322 157.672 255.516L157.421 256.129Z" fill="url(#paint47_linear_16692_175751)"/>
<path d="M161.893 253.783C162.363 253.672 162.806 253.647 163.222 253.709C163.641 253.769 164.019 253.907 164.355 254.121C164.69 254.335 164.979 254.625 165.22 254.991C165.462 255.357 165.641 255.787 165.758 256.282C165.876 256.78 165.908 257.247 165.856 257.683C165.803 258.118 165.675 258.508 165.472 258.854C165.269 259.2 164.993 259.494 164.645 259.736C164.3 259.977 163.893 260.153 163.423 260.264C162.953 260.375 162.508 260.4 162.088 260.34C161.668 260.279 161.288 260.14 160.947 259.923C160.611 259.704 160.32 259.413 160.074 259.048C159.832 258.682 159.653 258.25 159.535 257.751C159.418 257.257 159.386 256.792 159.438 256.356C159.495 255.92 159.625 255.531 159.83 255.189C160.038 254.847 160.316 254.554 160.665 254.312C161.013 254.07 161.423 253.894 161.893 253.783ZM163.148 259.099C163.671 258.975 164.016 258.708 164.182 258.298C164.353 257.887 164.358 257.342 164.198 256.663C164.037 255.984 163.788 255.497 163.451 255.202C163.118 254.905 162.689 254.818 162.166 254.942C161.635 255.067 161.285 255.34 161.116 255.759C160.947 256.175 160.942 256.72 161.101 257.394C161.26 258.069 161.509 258.554 161.846 258.85C162.183 259.141 162.617 259.224 163.148 259.099Z" fill="url(#paint48_linear_16692_175751)"/>
<path d="M168.698 258.829L166.864 252.631L167.74 252.371C167.893 252.326 168.008 252.323 168.085 252.361C168.162 252.4 168.231 252.485 168.292 252.615L168.604 253.338C168.712 252.89 168.883 252.511 169.115 252.201C169.348 251.891 169.649 251.682 170.02 251.572C170.326 251.481 170.6 251.477 170.843 251.558L170.981 252.733C170.99 252.809 170.979 252.869 170.949 252.913C170.917 252.953 170.867 252.984 170.798 253.004C170.738 253.022 170.651 253.032 170.538 253.035C170.425 253.038 170.282 253.065 170.109 253.116C169.798 253.208 169.558 253.373 169.388 253.612C169.216 253.846 169.103 254.151 169.048 254.527L170.19 258.387L168.698 258.829Z" fill="url(#paint49_linear_16692_175751)"/>
<path d="M177.475 257.893C177.468 258.012 177.439 258.109 177.386 258.186C177.339 258.266 177.245 258.332 177.103 258.383L176.013 258.778L176.268 255.931L171.771 251.195L173.051 250.731C173.169 250.689 173.27 250.683 173.353 250.716C173.436 250.748 173.507 250.794 173.564 250.854L176.003 253.535C176.083 253.622 176.16 253.715 176.231 253.814C176.303 253.913 176.371 254.014 176.434 254.116C176.424 253.99 176.418 253.867 176.415 253.747C176.416 253.627 176.418 253.503 176.421 253.377L176.502 249.789C176.505 249.699 176.533 249.615 176.585 249.538C176.641 249.46 176.715 249.404 176.806 249.371L177.979 248.946L177.475 257.893Z" fill="url(#paint50_linear_16692_175751)"/>
<path d="M187.559 243.58C187.557 243.684 187.537 243.766 187.496 243.827C187.46 243.887 187.404 243.935 187.328 243.972C187.252 244.008 187.154 244.021 187.032 244.01C186.908 243.995 186.764 243.982 186.601 243.973C186.438 243.963 186.255 243.972 186.054 243.999C185.855 244.02 185.638 244.088 185.403 244.201C185.191 244.303 185.019 244.419 184.885 244.549C184.754 244.673 184.655 244.807 184.59 244.95C184.527 245.092 184.501 245.24 184.51 245.394C184.517 245.545 184.557 245.696 184.63 245.847C184.724 246.04 184.854 246.175 185.022 246.253C185.194 246.328 185.391 246.369 185.612 246.374C185.834 246.379 186.075 246.362 186.337 246.325C186.599 246.287 186.867 246.253 187.141 246.223C187.418 246.188 187.696 246.17 187.976 246.17C188.254 246.166 188.522 246.205 188.781 246.286C189.037 246.362 189.275 246.494 189.496 246.682C189.721 246.867 189.915 247.13 190.08 247.47C190.259 247.841 190.362 248.22 190.391 248.607C190.421 248.989 190.372 249.36 190.243 249.721C190.116 250.076 189.91 250.409 189.626 250.718C189.34 251.024 188.97 251.287 188.516 251.506C188.255 251.632 187.985 251.73 187.706 251.799C187.429 251.872 187.15 251.918 186.87 251.936C186.593 251.953 186.321 251.945 186.053 251.911C185.789 251.875 185.538 251.814 185.3 251.729L185.39 250.783C185.406 250.71 185.434 250.643 185.474 250.581C185.517 250.514 185.574 250.463 185.645 250.429C185.74 250.383 185.861 250.374 186.009 250.4C186.156 250.423 186.325 250.446 186.518 250.469C186.715 250.491 186.933 250.493 187.172 250.475C187.413 250.453 187.675 250.373 187.959 250.236C188.394 250.026 188.681 249.761 188.821 249.442C188.959 249.119 188.935 248.764 188.748 248.379C188.644 248.163 188.505 248.014 188.329 247.93C188.158 247.845 187.961 247.8 187.739 247.795C187.516 247.787 187.275 247.805 187.017 247.85C186.759 247.895 186.495 247.937 186.224 247.974C185.953 248.012 185.678 248.032 185.4 248.036C185.122 248.04 184.853 247.999 184.593 247.915C184.333 247.83 184.087 247.688 183.855 247.487C183.625 247.281 183.42 246.991 183.239 246.616C183.095 246.318 183.013 245.998 182.993 245.658C182.977 245.316 183.03 244.98 183.151 244.651C183.276 244.321 183.473 244.009 183.742 243.716C184.011 243.423 184.359 243.173 184.786 242.967C185.271 242.733 185.753 242.593 186.235 242.547C186.716 242.502 187.167 242.545 187.586 242.679L187.559 243.58Z" fill="url(#paint51_linear_16692_175751)"/>
<path d="M192.925 241.71C193.345 241.472 193.764 241.325 194.18 241.268C194.601 241.209 195.002 241.236 195.383 241.348C195.765 241.46 196.123 241.658 196.458 241.942C196.792 242.226 197.084 242.589 197.334 243.032C197.586 243.478 197.748 243.917 197.818 244.35C197.889 244.783 197.875 245.193 197.777 245.582C197.678 245.971 197.495 246.33 197.228 246.659C196.964 246.987 196.622 247.269 196.202 247.507C195.781 247.745 195.361 247.893 194.941 247.952C194.521 248.011 194.117 247.984 193.729 247.87C193.345 247.754 192.984 247.555 192.647 247.273C192.312 246.989 192.019 246.624 191.767 246.178C191.517 245.736 191.357 245.298 191.286 244.866C191.218 244.431 191.235 244.021 191.336 243.636C191.44 243.249 191.626 242.89 191.893 242.561C192.161 242.231 192.505 241.948 192.925 241.71ZM195.613 246.465C196.081 246.201 196.337 245.848 196.383 245.407C196.432 244.965 196.285 244.44 195.942 243.833C195.598 243.226 195.224 242.828 194.817 242.638C194.414 242.446 193.979 242.482 193.511 242.747C193.036 243.015 192.775 243.375 192.731 243.824C192.684 244.271 192.831 244.795 193.172 245.399C193.513 246.002 193.887 246.399 194.293 246.589C194.698 246.775 195.137 246.734 195.613 246.465Z" fill="url(#paint52_linear_16692_175751)"/>
<path d="M197.251 235.84L202.257 243.751L200.942 244.583L195.936 236.672L197.251 235.84Z" fill="url(#paint53_linear_16692_175751)"/>
<path d="M201.86 236.261L204.228 239.617C204.455 239.94 204.706 240.138 204.979 240.213C205.254 240.281 205.54 240.21 205.839 240C206.058 239.845 206.23 239.651 206.355 239.42C206.477 239.185 206.563 238.921 206.614 238.628L203.919 234.808L205.191 233.911L208.917 239.193L208.139 239.742C207.975 239.858 207.812 239.857 207.651 239.739L207.266 239.378C207.234 239.566 207.192 239.747 207.141 239.922C207.087 240.093 207.016 240.259 206.928 240.419C206.841 240.572 206.733 240.721 206.603 240.864C206.478 241.008 206.329 241.142 206.154 241.266C205.865 241.469 205.576 241.601 205.285 241.663C204.995 241.718 204.712 241.71 204.435 241.638C204.158 241.566 203.894 241.436 203.643 241.248C203.393 241.054 203.164 240.809 202.956 240.514L200.589 237.158L201.86 236.261Z" fill="url(#paint54_linear_16692_175751)"/>
<path d="M212.837 236.275C212.4 236.623 211.965 236.767 211.532 236.709C211.097 236.648 210.705 236.398 210.357 235.961L208.11 233.137L207.597 233.545C207.531 233.597 207.457 233.621 207.373 233.618C207.293 233.612 207.219 233.566 207.151 233.48L206.767 232.997L207.474 232.217L206.632 230.633C206.593 230.556 206.582 230.482 206.6 230.409C206.62 230.334 206.666 230.267 206.739 230.21L207.37 229.708L208.637 231.3L209.968 230.241L210.658 231.109L209.327 232.168L211.508 234.909C211.634 235.066 211.771 235.158 211.921 235.184C212.07 235.21 212.211 235.171 212.342 235.066C212.418 235.006 212.474 234.948 212.51 234.893C212.547 234.831 212.575 234.776 212.596 234.727C212.62 234.676 212.64 234.631 212.656 234.591C212.67 234.548 212.692 234.514 212.721 234.491C212.758 234.462 212.795 234.448 212.834 234.45C212.87 234.448 212.915 234.454 212.97 234.47L213.806 234.771C213.746 235.06 213.631 235.334 213.461 235.593C213.292 235.851 213.083 236.079 212.837 236.275Z" fill="url(#paint55_linear_16692_175751)"/>
<path d="M213.279 227.333L217.534 232.199L216.362 233.224L212.108 228.357L213.279 227.333ZM212.215 225.762C212.303 225.863 212.366 225.976 212.402 226.1C212.438 226.225 212.451 226.35 212.439 226.478C212.431 226.602 212.399 226.725 212.343 226.846C212.285 226.964 212.203 227.069 212.099 227.16C211.998 227.249 211.885 227.314 211.76 227.356C211.635 227.393 211.511 227.407 211.386 227.398C211.262 227.39 211.14 227.359 211.022 227.307C210.906 227.251 210.805 227.173 210.716 227.072C210.625 226.968 210.558 226.853 210.516 226.728C210.477 226.601 210.461 226.474 210.47 226.35C210.478 226.226 210.51 226.106 210.565 225.99C210.621 225.869 210.7 225.764 210.801 225.676C210.905 225.584 211.021 225.519 211.149 225.48C211.274 225.438 211.398 225.421 211.523 225.429C211.65 225.435 211.775 225.466 211.896 225.521C212.017 225.577 212.124 225.657 212.215 225.762Z" fill="url(#paint56_linear_16692_175751)"/>
<path d="M216.888 223.87C217.235 223.535 217.604 223.287 217.992 223.127C218.384 222.964 218.779 222.889 219.177 222.902C219.575 222.914 219.971 223.016 220.366 223.207C220.761 223.398 221.135 223.676 221.488 224.041C221.844 224.41 222.111 224.794 222.288 225.195C222.466 225.596 222.555 225.997 222.558 226.398C222.56 226.799 222.473 227.193 222.297 227.579C222.124 227.962 221.864 228.322 221.517 228.658C221.17 228.993 220.8 229.242 220.408 229.405C220.017 229.568 219.619 229.643 219.215 229.63C218.814 229.615 218.415 229.513 218.017 229.325C217.622 229.134 217.247 228.854 216.891 228.486C216.538 228.121 216.272 227.738 216.095 227.337C215.92 226.933 215.834 226.532 215.834 226.134C215.838 225.733 215.928 225.339 216.104 224.953C216.28 224.567 216.541 224.206 216.888 223.87ZM220.685 227.797C221.072 227.423 221.231 227.018 221.164 226.58C221.101 226.139 220.826 225.668 220.342 225.167C219.857 224.666 219.394 224.374 218.953 224.293C218.515 224.208 218.102 224.353 217.716 224.726C217.323 225.106 217.162 225.519 217.232 225.966C217.298 226.409 217.573 226.88 218.054 227.378C218.536 227.877 218.998 228.167 219.439 228.248C219.877 228.327 220.293 228.176 220.685 227.797Z" fill="url(#paint57_linear_16692_175751)"/>
<path d="M225.381 224.692L220.594 220.349L221.233 219.645C221.369 219.495 221.528 219.461 221.71 219.541L222.16 219.805C222.148 219.618 222.149 219.435 222.164 219.256C222.182 219.074 222.215 218.897 222.263 218.725C222.314 218.55 222.386 218.38 222.48 218.215C222.573 218.05 222.693 217.886 222.839 217.725C223.076 217.463 223.332 217.272 223.605 217.152C223.876 217.029 224.153 216.974 224.436 216.987C224.719 216.994 225.003 217.065 225.289 217.2C225.575 217.328 225.851 217.514 226.119 217.757L229.166 220.521L228.12 221.674L225.073 218.909C224.781 218.644 224.493 218.508 224.211 218.501C223.927 218.488 223.663 218.617 223.418 218.887C223.237 219.086 223.113 219.314 223.045 219.57C222.977 219.826 222.95 220.102 222.965 220.399L226.427 223.54L225.381 224.692Z" fill="url(#paint58_linear_16692_175751)"/>
<path d="M229.219 212.26C229.245 212.335 229.254 212.4 229.248 212.454C229.239 212.506 229.212 212.559 229.167 212.615C229.119 212.674 229.052 212.724 228.963 212.767C228.878 212.806 228.78 212.853 228.67 212.91C228.556 212.964 228.436 213.035 228.311 213.123C228.189 213.207 228.066 213.327 227.942 213.48C227.749 213.719 227.648 213.947 227.638 214.166C227.629 214.385 227.706 214.561 227.869 214.693C227.977 214.78 228.096 214.82 228.227 214.812C228.357 214.798 228.496 214.756 228.644 214.687C228.794 214.614 228.952 214.522 229.116 214.412C229.277 214.3 229.446 214.188 229.622 214.076C229.799 213.965 229.981 213.863 230.168 213.772C230.352 213.678 230.543 213.615 230.74 213.586C230.936 213.55 231.134 213.556 231.333 213.603C231.535 213.647 231.737 213.751 231.939 213.915C232.181 214.11 232.369 214.335 232.504 214.589C232.635 214.841 232.707 215.113 232.721 215.404C232.73 215.693 232.676 215.997 232.558 216.317C232.439 216.632 232.249 216.951 231.988 217.274C231.848 217.447 231.694 217.604 231.527 217.744C231.366 217.884 231.195 218.008 231.016 218.117C230.839 218.222 230.66 218.31 230.479 218.38C230.301 218.447 230.128 218.493 229.961 218.52L229.726 217.869C229.699 217.788 229.691 217.711 229.701 217.638C229.712 217.566 229.747 217.492 229.808 217.417C229.868 217.341 229.946 217.288 230.042 217.257C230.139 217.223 230.249 217.181 230.369 217.133C230.489 217.084 230.618 217.018 230.755 216.935C230.896 216.848 231.039 216.713 231.187 216.531C231.303 216.387 231.386 216.251 231.435 216.123C231.484 215.99 231.507 215.868 231.504 215.758C231.504 215.644 231.479 215.544 231.431 215.456C231.383 215.363 231.319 215.285 231.241 215.221C231.123 215.126 230.998 215.084 230.864 215.095C230.734 215.103 230.593 215.144 230.443 215.216C230.295 215.286 230.139 215.379 229.975 215.495C229.811 215.605 229.639 215.717 229.46 215.832C229.284 215.943 229.1 216.046 228.91 216.141C228.72 216.23 228.523 216.29 228.32 216.32C228.12 216.348 227.912 216.334 227.698 216.279C227.485 216.221 227.268 216.102 227.046 215.923C226.84 215.757 226.677 215.557 226.557 215.325C226.436 215.093 226.371 214.843 226.36 214.576C226.349 214.302 226.398 214.015 226.506 213.713C226.614 213.406 226.793 213.098 227.044 212.787C227.323 212.441 227.635 212.172 227.979 211.98C228.323 211.788 228.665 211.672 229.004 211.633L229.219 212.26Z" fill="url(#paint59_linear_16692_175751)"/>
<defs>
<linearGradient id="paint0_linear_16692_175751" x1="136.11" y1="9" x2="136.11" y2="263.509" gradientUnits="userSpaceOnUse">
<stop stop-color="#00AF78"/>
<stop offset="1" stop-color="#00734F"/>
</linearGradient>
<linearGradient id="paint1_linear_16692_175751" x1="136.11" y1="9" x2="136.11" y2="263.509" gradientUnits="userSpaceOnUse">
<stop stop-color="#00AF78"/>
<stop offset="1" stop-color="#00734F"/>
</linearGradient>
<linearGradient id="paint2_linear_16692_175751" x1="136.11" y1="9" x2="136.11" y2="263.509" gradientUnits="userSpaceOnUse">
<stop stop-color="#00AF78"/>
<stop offset="1" stop-color="#00734F"/>
</linearGradient>
<linearGradient id="paint3_linear_16692_175751" x1="136.11" y1="9" x2="136.11" y2="263.509" gradientUnits="userSpaceOnUse">
<stop stop-color="#00AF78"/>
<stop offset="1" stop-color="#00734F"/>
</linearGradient>
<linearGradient id="paint4_linear_16692_175751" x1="136.11" y1="9" x2="136.11" y2="263.509" gradientUnits="userSpaceOnUse">
<stop stop-color="#00AF78"/>
<stop offset="1" stop-color="#00734F"/>
</linearGradient>
<linearGradient id="paint5_linear_16692_175751" x1="136.11" y1="9" x2="136.11" y2="263.509" gradientUnits="userSpaceOnUse">
<stop stop-color="#00AF78"/>
<stop offset="1" stop-color="#00734F"/>
</linearGradient>
<linearGradient id="paint6_linear_16692_175751" x1="136.11" y1="9" x2="136.11" y2="263.509" gradientUnits="userSpaceOnUse">
<stop stop-color="#00AF78"/>
<stop offset="1" stop-color="#00734F"/>
</linearGradient>
<linearGradient id="paint7_linear_16692_175751" x1="136.11" y1="9" x2="136.11" y2="263.509" gradientUnits="userSpaceOnUse">
<stop stop-color="#00AF78"/>
<stop offset="1" stop-color="#00734F"/>
</linearGradient>
<linearGradient id="paint8_linear_16692_175751" x1="136.11" y1="9" x2="136.11" y2="263.509" gradientUnits="userSpaceOnUse">
<stop stop-color="#00AF78"/>
<stop offset="1" stop-color="#00734F"/>
</linearGradient>
<linearGradient id="paint9_linear_16692_175751" x1="136.11" y1="9" x2="136.11" y2="263.509" gradientUnits="userSpaceOnUse">
<stop stop-color="#00AF78"/>
<stop offset="1" stop-color="#00734F"/>
</linearGradient>
<linearGradient id="paint10_linear_16692_175751" x1="136.11" y1="9" x2="136.11" y2="263.509" gradientUnits="userSpaceOnUse">
<stop stop-color="#00AF78"/>
<stop offset="1" stop-color="#00734F"/>
</linearGradient>
<linearGradient id="paint11_linear_16692_175751" x1="136.11" y1="9" x2="136.11" y2="263.509" gradientUnits="userSpaceOnUse">
<stop stop-color="#00AF78"/>
<stop offset="1" stop-color="#00734F"/>
</linearGradient>
<linearGradient id="paint12_linear_16692_175751" x1="136.11" y1="9" x2="136.11" y2="263.509" gradientUnits="userSpaceOnUse">
<stop stop-color="#00AF78"/>
<stop offset="1" stop-color="#00734F"/>
</linearGradient>
<linearGradient id="paint13_linear_16692_175751" x1="136.11" y1="9" x2="136.11" y2="263.509" gradientUnits="userSpaceOnUse">
<stop stop-color="#00AF78"/>
<stop offset="1" stop-color="#00734F"/>
</linearGradient>
<linearGradient id="paint14_linear_16692_175751" x1="136.11" y1="9" x2="136.11" y2="263.509" gradientUnits="userSpaceOnUse">
<stop stop-color="#00AF78"/>
<stop offset="1" stop-color="#00734F"/>
</linearGradient>
<linearGradient id="paint15_linear_16692_175751" x1="136.11" y1="9" x2="136.11" y2="263.509" gradientUnits="userSpaceOnUse">
<stop stop-color="#00AF78"/>
<stop offset="1" stop-color="#00734F"/>
</linearGradient>
<linearGradient id="paint16_linear_16692_175751" x1="136.11" y1="9" x2="136.11" y2="263.509" gradientUnits="userSpaceOnUse">
<stop stop-color="#00AF78"/>
<stop offset="1" stop-color="#00734F"/>
</linearGradient>
<linearGradient id="paint17_linear_16692_175751" x1="136.11" y1="9" x2="136.11" y2="263.509" gradientUnits="userSpaceOnUse">
<stop stop-color="#00AF78"/>
<stop offset="1" stop-color="#00734F"/>
</linearGradient>
<linearGradient id="paint18_linear_16692_175751" x1="136.11" y1="9" x2="136.11" y2="263.509" gradientUnits="userSpaceOnUse">
<stop stop-color="#00AF78"/>
<stop offset="1" stop-color="#00734F"/>
</linearGradient>
<linearGradient id="paint19_linear_16692_175751" x1="136.11" y1="9" x2="136.11" y2="263.509" gradientUnits="userSpaceOnUse">
<stop stop-color="#00AF78"/>
<stop offset="1" stop-color="#00734F"/>
</linearGradient>
<linearGradient id="paint20_linear_16692_175751" x1="136.11" y1="9" x2="136.11" y2="263.509" gradientUnits="userSpaceOnUse">
<stop stop-color="#00AF78"/>
<stop offset="1" stop-color="#00734F"/>
</linearGradient>
<linearGradient id="paint21_linear_16692_175751" x1="136.11" y1="9" x2="136.11" y2="263.509" gradientUnits="userSpaceOnUse">
<stop stop-color="#00AF78"/>
<stop offset="1" stop-color="#00734F"/>
</linearGradient>
<linearGradient id="paint22_linear_16692_175751" x1="136.11" y1="9" x2="136.11" y2="263.509" gradientUnits="userSpaceOnUse">
<stop stop-color="#00AF78"/>
<stop offset="1" stop-color="#00734F"/>
</linearGradient>
<linearGradient id="paint23_linear_16692_175751" x1="136.11" y1="9" x2="136.11" y2="263.509" gradientUnits="userSpaceOnUse">
<stop stop-color="#00AF78"/>
<stop offset="1" stop-color="#00734F"/>
</linearGradient>
<linearGradient id="paint24_linear_16692_175751" x1="136.11" y1="9" x2="136.11" y2="263.509" gradientUnits="userSpaceOnUse">
<stop stop-color="#00AF78"/>
<stop offset="1" stop-color="#00734F"/>
</linearGradient>
<linearGradient id="paint25_linear_16692_175751" x1="136.11" y1="9" x2="136.11" y2="263.509" gradientUnits="userSpaceOnUse">
<stop stop-color="#00AF78"/>
<stop offset="1" stop-color="#00734F"/>
</linearGradient>
<linearGradient id="paint26_linear_16692_175751" x1="136.11" y1="9" x2="136.11" y2="263.509" gradientUnits="userSpaceOnUse">
<stop stop-color="#00AF78"/>
<stop offset="1" stop-color="#00734F"/>
</linearGradient>
<linearGradient id="paint27_linear_16692_175751" x1="136.11" y1="9" x2="136.11" y2="263.509" gradientUnits="userSpaceOnUse">
<stop stop-color="#00AF78"/>
<stop offset="1" stop-color="#00734F"/>
</linearGradient>
<linearGradient id="paint28_linear_16692_175751" x1="136.11" y1="9" x2="136.11" y2="263.509" gradientUnits="userSpaceOnUse">
<stop stop-color="#00AF78"/>
<stop offset="1" stop-color="#00734F"/>
</linearGradient>
<linearGradient id="paint29_linear_16692_175751" x1="136.11" y1="9" x2="136.11" y2="263.509" gradientUnits="userSpaceOnUse">
<stop stop-color="#00AF78"/>
<stop offset="1" stop-color="#00734F"/>
</linearGradient>
<linearGradient id="paint30_linear_16692_175751" x1="136.11" y1="9" x2="136.11" y2="263.509" gradientUnits="userSpaceOnUse">
<stop stop-color="#00AF78"/>
<stop offset="1" stop-color="#00734F"/>
</linearGradient>
<linearGradient id="paint31_linear_16692_175751" x1="136.11" y1="9" x2="136.11" y2="263.509" gradientUnits="userSpaceOnUse">
<stop stop-color="#00AF78"/>
<stop offset="1" stop-color="#00734F"/>
</linearGradient>
<linearGradient id="paint32_linear_16692_175751" x1="136.11" y1="9" x2="136.11" y2="263.509" gradientUnits="userSpaceOnUse">
<stop stop-color="#00AF78"/>
<stop offset="1" stop-color="#00734F"/>
</linearGradient>
<linearGradient id="paint33_linear_16692_175751" x1="136.11" y1="9" x2="136.11" y2="263.509" gradientUnits="userSpaceOnUse">
<stop stop-color="#00AF78"/>
<stop offset="1" stop-color="#00734F"/>
</linearGradient>
<linearGradient id="paint34_linear_16692_175751" x1="136.11" y1="9" x2="136.11" y2="263.509" gradientUnits="userSpaceOnUse">
<stop stop-color="#00AF78"/>
<stop offset="1" stop-color="#00734F"/>
</linearGradient>
<linearGradient id="paint35_linear_16692_175751" x1="136.11" y1="9" x2="136.11" y2="263.509" gradientUnits="userSpaceOnUse">
<stop stop-color="#00AF78"/>
<stop offset="1" stop-color="#00734F"/>
</linearGradient>
<linearGradient id="paint36_linear_16692_175751" x1="136.11" y1="9" x2="136.11" y2="263.509" gradientUnits="userSpaceOnUse">
<stop stop-color="#00AF78"/>
<stop offset="1" stop-color="#00734F"/>
</linearGradient>
<linearGradient id="paint37_linear_16692_175751" x1="136.11" y1="9" x2="136.11" y2="263.509" gradientUnits="userSpaceOnUse">
<stop stop-color="#00AF78"/>
<stop offset="1" stop-color="#00734F"/>
</linearGradient>
<linearGradient id="paint38_linear_16692_175751" x1="136.11" y1="9" x2="136.11" y2="263.509" gradientUnits="userSpaceOnUse">
<stop stop-color="#00AF78"/>
<stop offset="1" stop-color="#00734F"/>
</linearGradient>
<linearGradient id="paint39_linear_16692_175751" x1="136.11" y1="9" x2="136.11" y2="263.509" gradientUnits="userSpaceOnUse">
<stop stop-color="#00AF78"/>
<stop offset="1" stop-color="#00734F"/>
</linearGradient>
<linearGradient id="paint40_linear_16692_175751" x1="136.11" y1="9" x2="136.11" y2="263.509" gradientUnits="userSpaceOnUse">
<stop stop-color="#00AF78"/>
<stop offset="1" stop-color="#00734F"/>
</linearGradient>
<linearGradient id="paint41_linear_16692_175751" x1="136.11" y1="9" x2="136.11" y2="263.509" gradientUnits="userSpaceOnUse">
<stop stop-color="#00AF78"/>
<stop offset="1" stop-color="#00734F"/>
</linearGradient>
<linearGradient id="paint42_linear_16692_175751" x1="136.11" y1="9" x2="136.11" y2="263.509" gradientUnits="userSpaceOnUse">
<stop stop-color="#00AF78"/>
<stop offset="1" stop-color="#00734F"/>
</linearGradient>
<linearGradient id="paint43_linear_16692_175751" x1="136.11" y1="9" x2="136.11" y2="263.509" gradientUnits="userSpaceOnUse">
<stop stop-color="#00AF78"/>
<stop offset="1" stop-color="#00734F"/>
</linearGradient>
<linearGradient id="paint44_linear_16692_175751" x1="136.11" y1="9" x2="136.11" y2="263.509" gradientUnits="userSpaceOnUse">
<stop stop-color="#00AF78"/>
<stop offset="1" stop-color="#00734F"/>
</linearGradient>
<linearGradient id="paint45_linear_16692_175751" x1="136.11" y1="9" x2="136.11" y2="263.509" gradientUnits="userSpaceOnUse">
<stop stop-color="#00AF78"/>
<stop offset="1" stop-color="#00734F"/>
</linearGradient>
<linearGradient id="paint46_linear_16692_175751" x1="136.11" y1="9" x2="136.11" y2="263.509" gradientUnits="userSpaceOnUse">
<stop stop-color="#00AF78"/>
<stop offset="1" stop-color="#00734F"/>
</linearGradient>
<linearGradient id="paint47_linear_16692_175751" x1="136.11" y1="9" x2="136.11" y2="263.509" gradientUnits="userSpaceOnUse">
<stop stop-color="#00AF78"/>
<stop offset="1" stop-color="#00734F"/>
</linearGradient>
<linearGradient id="paint48_linear_16692_175751" x1="136.11" y1="9" x2="136.11" y2="263.509" gradientUnits="userSpaceOnUse">
<stop stop-color="#00AF78"/>
<stop offset="1" stop-color="#00734F"/>
</linearGradient>
<linearGradient id="paint49_linear_16692_175751" x1="136.11" y1="9" x2="136.11" y2="263.509" gradientUnits="userSpaceOnUse">
<stop stop-color="#00AF78"/>
<stop offset="1" stop-color="#00734F"/>
</linearGradient>
<linearGradient id="paint50_linear_16692_175751" x1="136.11" y1="9" x2="136.11" y2="263.509" gradientUnits="userSpaceOnUse">
<stop stop-color="#00AF78"/>
<stop offset="1" stop-color="#00734F"/>
</linearGradient>
<linearGradient id="paint51_linear_16692_175751" x1="136.11" y1="9" x2="136.11" y2="263.509" gradientUnits="userSpaceOnUse">
<stop stop-color="#00AF78"/>
<stop offset="1" stop-color="#00734F"/>
</linearGradient>
<linearGradient id="paint52_linear_16692_175751" x1="136.11" y1="9" x2="136.11" y2="263.509" gradientUnits="userSpaceOnUse">
<stop stop-color="#00AF78"/>
<stop offset="1" stop-color="#00734F"/>
</linearGradient>
<linearGradient id="paint53_linear_16692_175751" x1="136.11" y1="9" x2="136.11" y2="263.509" gradientUnits="userSpaceOnUse">
<stop stop-color="#00AF78"/>
<stop offset="1" stop-color="#00734F"/>
</linearGradient>
<linearGradient id="paint54_linear_16692_175751" x1="136.11" y1="9" x2="136.11" y2="263.509" gradientUnits="userSpaceOnUse">
<stop stop-color="#00AF78"/>
<stop offset="1" stop-color="#00734F"/>
</linearGradient>
<linearGradient id="paint55_linear_16692_175751" x1="136.11" y1="9" x2="136.11" y2="263.509" gradientUnits="userSpaceOnUse">
<stop stop-color="#00AF78"/>
<stop offset="1" stop-color="#00734F"/>
</linearGradient>
<linearGradient id="paint56_linear_16692_175751" x1="136.11" y1="9" x2="136.11" y2="263.509" gradientUnits="userSpaceOnUse">
<stop stop-color="#00AF78"/>
<stop offset="1" stop-color="#00734F"/>
</linearGradient>
<linearGradient id="paint57_linear_16692_175751" x1="136.11" y1="9" x2="136.11" y2="263.509" gradientUnits="userSpaceOnUse">
<stop stop-color="#00AF78"/>
<stop offset="1" stop-color="#00734F"/>
</linearGradient>
<linearGradient id="paint58_linear_16692_175751" x1="136.11" y1="9" x2="136.11" y2="263.509" gradientUnits="userSpaceOnUse">
<stop stop-color="#00AF78"/>
<stop offset="1" stop-color="#00734F"/>
</linearGradient>
<linearGradient id="paint59_linear_16692_175751" x1="136.11" y1="9" x2="136.11" y2="263.509" gradientUnits="userSpaceOnUse">
<stop stop-color="#00AF78"/>
<stop offset="1" stop-color="#00734F"/>
</linearGradient>
</defs>
</svg>
