<svg width="255" height="255" viewBox="0 0 255 255" fill="none" xmlns="http://www.w3.org/2000/svg">
<path d="M8 126.957C8 129.166 6.20914 130.957 4 130.957C1.79086 130.957 0 129.166 0 126.957C0 124.748 1.79086 122.957 4 122.957C6.20914 122.957 8 124.748 8 126.957Z" fill="url(#paint0_linear_17493_59103)"/>
<path d="M254.22 126.957C254.22 129.166 252.429 130.957 250.22 130.957C248.011 130.957 246.22 129.166 246.22 126.957C246.22 124.748 248.011 122.957 250.22 122.957C252.429 122.957 254.22 124.748 254.22 126.957Z" fill="url(#paint1_linear_17493_59103)"/>
<path d="M35.7512 41.4336L36.7724 42.3139L34.1359 45.3727L36.0494 47.0221L38.1266 44.6122L39.1144 45.4636L37.0373 47.8735L38.989 49.5558L41.6255 46.4969L42.6515 47.3812L38.9003 51.7333L32 45.7857L35.7512 41.4336Z" fill="url(#paint2_linear_17493_59103)"/>
<path d="M42.05 37.2539C42.0835 37.3516 42.0917 37.4362 42.0745 37.5076C42.0602 37.576 42.0236 37.6402 41.9647 37.7001C41.9058 37.76 41.8171 37.8053 41.6986 37.836C41.577 37.8638 41.4378 37.9006 41.2808 37.9465C41.1237 37.9923 40.955 38.0621 40.7747 38.1557C40.5942 38.2434 40.4128 38.38 40.2302 38.5657C40.0653 38.7334 39.942 38.9008 39.8602 39.0678C39.7785 39.2289 39.7308 39.3882 39.7173 39.5457C39.7067 39.7002 39.7317 39.8485 39.7924 39.9906C39.85 40.1297 39.9387 40.2581 40.0585 40.3759C40.2112 40.526 40.3797 40.6093 40.564 40.6255C40.7512 40.6388 40.95 40.6104 41.1602 40.5403C41.3705 40.4702 41.5924 40.3732 41.826 40.2495C42.0596 40.1257 42.3006 40.0034 42.549 39.8825C42.7974 39.7556 43.0534 39.6451 43.3169 39.5508C43.5775 39.4535 43.8428 39.3993 44.113 39.3881C44.3801 39.3739 44.6493 39.4177 44.9204 39.5193C45.1945 39.618 45.4663 39.7998 45.7359 40.0648C46.0294 40.3534 46.2549 40.6752 46.4123 41.0302C46.5697 41.3793 46.6486 41.7455 46.6488 42.1286C46.6491 42.5058 46.5677 42.8881 46.4047 43.2756C46.2386 43.6601 45.979 44.0321 45.6256 44.3915C45.4224 44.5981 45.2013 44.7812 44.962 44.9406C44.7258 45.103 44.479 45.2402 44.2216 45.3523C43.9671 45.4614 43.7079 45.5453 43.4441 45.6039C43.1832 45.6596 42.9265 45.687 42.6741 45.6862L42.4391 44.766C42.4295 44.6919 42.4334 44.6191 42.4506 44.5476C42.4677 44.4703 42.5043 44.4031 42.5602 44.3462C42.6338 44.2714 42.7448 44.2214 42.8931 44.1964C43.0384 44.1684 43.2059 44.1329 43.3956 44.0897C43.5882 44.0435 43.794 43.9719 44.013 43.875C44.2319 43.7722 44.4518 43.6085 44.6726 43.3838C45.0112 43.0394 45.1924 42.6934 45.2162 42.3457C45.237 41.9951 45.0946 41.6696 44.7891 41.3692C44.6184 41.2014 44.4365 41.1079 44.2432 41.0887C44.053 41.0666 43.8527 41.0906 43.6424 41.1607C43.4292 41.2278 43.2088 41.3262 42.9812 41.4559C42.7536 41.5855 42.5186 41.7137 42.2761 41.8405C42.0336 41.9673 41.7822 42.0794 41.5216 42.1766C41.2611 42.2739 40.9942 42.3266 40.7211 42.3349C40.4479 42.3431 40.1683 42.292 39.8822 42.1816C39.5961 42.0653 39.3048 41.8613 39.0083 41.5698C38.7717 41.3372 38.5868 41.064 38.4534 40.7504C38.323 40.4337 38.2593 40.1001 38.2623 39.7496C38.2682 39.3962 38.3483 39.0361 38.5026 38.6695C38.6568 38.3029 38.9004 37.9504 39.2331 37.6119C39.61 37.2286 40.0173 36.934 40.4551 36.7284C40.893 36.5227 41.3316 36.4121 41.771 36.3964L42.05 37.2539Z" fill="url(#paint3_linear_17493_59103)"/>
<path d="M51.8019 36.6885C52.0899 36.4373 52.3179 36.1939 52.4859 35.9583C52.6542 35.7168 52.7949 35.4659 52.9079 35.2058L51.819 33.957L50.9595 34.7064C50.8772 34.7782 50.793 34.8126 50.7069 34.8097C50.618 34.8036 50.5446 34.7673 50.4866 34.7008L49.8573 33.9791L52.1412 31.9875L54.5634 34.7653C54.4997 35.0437 54.4143 35.3132 54.3072 35.5738C54.2004 35.8285 54.0657 36.0797 53.9029 36.3276C53.7432 36.5727 53.5539 36.8157 53.335 37.0568C53.1189 37.301 52.87 37.5459 52.5882 37.7916C52.0881 38.2277 51.5516 38.5423 50.9787 38.7353C50.4059 38.9283 49.8307 39.0036 49.2531 38.9611C48.6756 38.9186 48.112 38.758 47.5625 38.4793C47.0162 38.1979 46.5208 37.8023 46.0764 37.2927C45.6265 36.7767 45.2977 36.2303 45.09 35.6535C44.8824 35.0767 44.7969 34.4993 44.8334 33.9213C44.8731 33.3406 45.0385 32.7729 45.3294 32.2183C45.6204 31.6637 46.0397 31.1476 46.5873 30.67C47.1476 30.1815 47.7051 29.843 48.2597 29.6547C48.8148 29.4605 49.3507 29.3721 49.8675 29.3896L50.0022 30.2918C50.0316 30.4724 49.9861 30.6152 49.8658 30.7201C49.7898 30.7863 49.6902 30.8286 49.5669 30.847C49.4131 30.8752 49.2562 30.9061 49.0961 30.9398C48.9392 30.9708 48.7766 31.0207 48.6081 31.0895C48.4429 31.1556 48.2671 31.2448 48.0808 31.3571C47.8977 31.4666 47.7017 31.6125 47.4927 31.7947C47.154 32.09 46.8967 32.4148 46.7206 32.7689C46.5478 33.1202 46.4573 33.4861 46.4491 33.8666C46.4409 34.2471 46.5144 34.6316 46.6694 35.0203C46.8244 35.4089 47.062 35.7868 47.3822 36.154C47.7272 36.5497 48.0904 36.8544 48.4717 37.068C48.8502 37.2785 49.2317 37.4028 49.6161 37.441C50.0004 37.4792 50.38 37.4352 50.7548 37.309C51.1268 37.1796 51.4758 36.9728 51.8019 36.6885Z" fill="url(#paint4_linear_17493_59103)"/>
<path d="M59.452 22.9729C59.4671 23.0751 59.4597 23.1597 59.4298 23.2268C59.4033 23.2915 59.3556 23.3479 59.2868 23.3961C59.2179 23.4442 59.1225 23.4726 59.0003 23.4812C58.8757 23.4863 58.7321 23.4971 58.5693 23.5136C58.4066 23.5301 58.228 23.5679 58.0336 23.627C57.8402 23.6803 57.6368 23.7816 57.4235 23.9309C57.2308 24.0657 57.079 24.2078 56.9681 24.3571C56.8584 24.5005 56.7825 24.6485 56.7404 24.8009C56.7019 24.9509 56.6994 25.1012 56.7331 25.252C56.7644 25.3992 56.8282 25.5417 56.9245 25.6794C57.0473 25.8549 57.1978 25.9674 57.376 26.017C57.5577 26.0642 57.7583 26.0725 57.9778 26.0419C58.1973 26.0113 58.4332 25.9565 58.6854 25.8774C58.9377 25.7984 59.1969 25.722 59.4633 25.6485C59.7306 25.569 60.0025 25.507 60.2788 25.4623C60.5527 25.4142 60.8235 25.4093 61.0912 25.4475C61.3564 25.4824 61.6131 25.5745 61.8611 25.7238C62.1126 25.8708 62.3467 26.0992 62.5634 26.4089C62.7994 26.7461 62.9624 27.1037 63.0524 27.4815C63.1435 27.8535 63.1543 28.2278 63.0847 28.6046C63.0161 28.9755 62.8664 29.3365 62.6354 29.6878C62.4021 30.0356 62.0789 30.354 61.6659 30.6429C61.4285 30.809 61.1776 30.9487 60.9133 31.0618C60.6515 31.1784 60.3838 31.2683 60.1102 31.3316C59.8401 31.3924 59.57 31.4276 59.2999 31.4372C59.0332 31.4443 58.7759 31.4245 58.5278 31.3776L58.4645 30.43C58.4687 30.3554 58.4857 30.2845 58.5157 30.2174C58.5466 30.1445 58.5948 30.0851 58.6602 30.0394C58.7463 29.9792 58.8644 29.9503 59.0148 29.9528C59.1628 29.9518 59.3339 29.9473 59.5284 29.9395C59.7262 29.9292 59.9416 29.8964 60.1745 29.841C60.4085 29.7798 60.6546 29.6589 60.9127 29.4784C61.3084 29.2015 61.5497 28.8943 61.6365 28.5568C61.7209 28.2158 61.6403 27.8698 61.3947 27.5188C61.2574 27.3226 61.0956 27.1975 60.9091 27.1435C60.726 27.087 60.5248 27.074 60.3052 27.1046C60.0833 27.1317 59.8486 27.1883 59.6012 27.2743C59.3538 27.3602 59.0993 27.4434 58.8378 27.5239C58.5763 27.6043 58.3086 27.6686 58.0347 27.7167C57.7608 27.7648 57.4888 27.768 57.2187 27.7263C56.9486 27.6846 56.683 27.5834 56.4219 27.4227C56.1618 27.2561 55.9126 27.0024 55.6742 26.6617C55.484 26.3899 55.352 26.0876 55.2781 25.7548C55.2076 25.4197 55.2058 25.0801 55.2726 24.736C55.3429 24.3896 55.4873 24.0502 55.7059 23.7178C55.9244 23.3855 56.2282 23.0833 56.617 22.8112C57.0575 22.503 57.5118 22.2877 57.9797 22.1654C58.4477 22.043 58.8991 22.0142 59.334 22.079L59.452 22.9729Z" fill="url(#paint5_linear_17493_59103)"/>
<path d="M68.0139 26.4579C67.5377 26.7499 67.0884 26.8407 66.6659 26.7303C66.2413 26.6163 65.8829 26.3212 65.5909 25.845L63.7037 22.7677L63.1452 23.1102C63.0736 23.1541 62.9966 23.1692 62.9144 23.1556C62.8357 23.1398 62.7678 23.0854 62.7107 22.9923L62.388 22.466L63.1852 21.7775L62.5423 20.1025C62.5127 20.0221 62.5109 19.9469 62.5368 19.8768C62.5664 19.8044 62.6205 19.7441 62.6993 19.6958L63.3868 19.2743L64.4506 21.0089L65.9006 20.1197L66.4803 21.0649L65.0302 21.9542L66.8614 24.9402C66.9668 25.112 67.0921 25.2199 67.2373 25.2639C67.3825 25.3079 67.5268 25.286 67.67 25.1981C67.7523 25.1476 67.8149 25.097 67.8576 25.0461C67.9017 24.9895 67.9369 24.9384 67.9631 24.8928C67.9929 24.8449 68.0184 24.8022 68.0396 24.7645C68.0587 24.7233 68.0843 24.6928 68.1165 24.673C68.1559 24.6489 68.1947 24.6398 68.233 24.646C68.269 24.6485 68.3134 24.6607 68.3662 24.6825L69.1589 25.0832C69.0643 25.3629 68.917 25.6208 68.7169 25.8568C68.5167 26.0929 68.2824 26.2932 68.0139 26.4579Z" fill="url(#paint6_linear_17493_59103)"/>
<path d="M71.0035 24.5492L67.8969 18.8809L68.6979 18.4419C68.8379 18.3652 68.9496 18.3375 69.0331 18.3587C69.1166 18.38 69.2019 18.4482 69.289 18.5634L69.7473 19.203C69.7581 18.7421 69.8443 18.3357 70.0058 17.9837C70.1673 17.6318 70.4175 17.3629 70.7563 17.1772C71.0363 17.0238 71.3036 16.9611 71.5584 16.9891L71.9418 18.108C71.9671 18.1804 71.9694 18.2414 71.9487 18.291C71.926 18.337 71.8834 18.3771 71.8207 18.4115C71.7655 18.4417 71.6829 18.4702 71.573 18.4969C71.4631 18.5236 71.329 18.5804 71.1706 18.6672C70.887 18.8226 70.6873 19.035 70.5716 19.3044C70.4538 19.5701 70.4077 19.8924 70.4332 20.2711L72.3681 23.8013L71.0035 24.5492Z" fill="url(#paint7_linear_17493_59103)"/>
<path d="M80.7352 19.5787L80.1042 19.88C79.9715 19.9433 79.8582 19.9741 79.7643 19.9724C79.6686 19.9669 79.5729 19.9126 79.4771 19.8094L79.1538 19.4541C79.0693 19.6573 78.9795 19.8445 78.8844 20.0156C78.7912 20.1811 78.6851 20.3341 78.566 20.4748C78.447 20.6154 78.3103 20.7434 78.1561 20.859C78.0018 20.9745 77.8204 21.0821 77.612 21.1816C77.3656 21.2992 77.1228 21.3756 76.8836 21.4107C76.6426 21.442 76.4146 21.4275 76.1996 21.3672C75.9885 21.3051 75.7942 21.1955 75.6167 21.0382C75.4392 20.8809 75.288 20.6715 75.1632 20.41C75.0582 20.1902 75.0119 19.947 75.0243 19.6805C75.0386 19.4083 75.1396 19.1227 75.3273 18.8237C75.5132 18.5209 75.8026 18.2058 76.1955 17.8786C76.5885 17.5513 77.1129 17.2218 77.769 16.8899L77.6061 16.5488C77.4197 16.1584 77.1988 15.9102 76.9434 15.8041C76.6899 15.6924 76.4059 15.7117 76.0913 15.8619C75.8639 15.9705 75.6871 16.0875 75.5608 16.2129C75.4345 16.3384 75.3308 16.4623 75.2497 16.5848C75.1705 16.7018 75.0963 16.8094 75.0268 16.9077C74.9574 17.006 74.8659 17.0823 74.7522 17.1366C74.6574 17.1818 74.5641 17.1961 74.4724 17.1794C74.3806 17.1627 74.2967 17.1283 74.2207 17.0762L73.7504 16.7492C74.1281 15.8149 74.7907 15.1215 75.7382 14.6691C76.0794 14.5062 76.4097 14.4183 76.7293 14.4054C77.0509 14.3868 77.3525 14.4336 77.6341 14.5458C77.9139 14.6542 78.1673 14.8241 78.3941 15.0556C78.6248 15.2852 78.8188 15.5649 78.9763 15.8947L80.7352 19.5787ZM77.5883 20.0061C77.7323 19.9373 77.8586 19.8607 77.9673 19.7763C78.0759 19.6918 78.1706 19.5978 78.2514 19.494C78.336 19.3885 78.4094 19.2743 78.4718 19.1514C78.5361 19.023 78.5941 18.8813 78.6458 18.7263L78.1762 17.7427C77.7759 17.9571 77.4501 18.1569 77.1987 18.3421C76.9493 18.5216 76.7603 18.691 76.6315 18.8502C76.5027 19.0095 76.4277 19.1593 76.4063 19.2998C76.3888 19.4385 76.4099 19.5704 76.4696 19.6955C76.5872 19.9418 76.7434 20.0837 76.9381 20.1211C77.1366 20.1566 77.3533 20.1183 77.5883 20.0061Z" fill="url(#paint8_linear_17493_59103)"/>
<path d="M84.3592 18.155C83.8426 18.3673 83.3845 18.3853 82.9851 18.2089C82.584 18.0286 82.2774 17.6801 82.0651 17.1634L80.693 13.8244L80.0869 14.0734C80.0092 14.1054 79.9309 14.1081 79.8519 14.0815C79.7767 14.0534 79.7184 13.9888 79.6769 13.8878L79.4422 13.3167L80.3391 12.7643L79.9716 11.0081C79.9552 10.9241 79.9654 10.8495 80.0023 10.7844C80.043 10.7177 80.1061 10.6668 80.1915 10.6317L80.9374 10.3252L81.7108 12.2074L83.2842 11.5608L83.7056 12.5864L82.1323 13.233L83.4637 16.4729C83.5403 16.6594 83.6468 16.7859 83.7831 16.8525C83.9194 16.919 84.0653 16.9204 84.2207 16.8565C84.31 16.8198 84.3799 16.7798 84.4302 16.7364C84.4827 16.6876 84.5256 16.6427 84.5588 16.6018C84.5958 16.5594 84.6278 16.5212 84.6548 16.4874C84.6802 16.4498 84.7103 16.4237 84.7453 16.4094C84.788 16.3918 84.8278 16.3891 84.8646 16.4012C84.8997 16.4095 84.9417 16.4286 84.9903 16.4586L85.7088 16.9806C85.5709 17.2416 85.3843 17.4727 85.1491 17.6738C84.9139 17.8749 84.6506 18.0353 84.3592 18.155Z" fill="url(#paint9_linear_17493_59103)"/>
<path d="M87.8876 9.68397C88.2724 9.55016 88.6469 9.48888 89.011 9.50012C89.379 9.50998 89.7215 9.59324 90.0383 9.74987C90.3537 9.90254 90.6369 10.1287 90.8878 10.4283C91.1374 10.7239 91.3387 11.0919 91.4918 11.5323C91.5304 11.6433 91.5569 11.7386 91.5712 11.8181C91.5881 11.8923 91.5903 11.956 91.5777 12.0093C91.5677 12.0573 91.5443 12.0987 91.5075 12.1338C91.4694 12.1648 91.4166 12.192 91.3492 12.2155L87.5766 13.5273C87.8382 14.1389 88.1668 14.5405 88.5624 14.732C88.9581 14.9235 89.3979 14.9351 89.8818 14.7668C90.1199 14.684 90.3145 14.5852 90.4658 14.4703C90.621 14.3541 90.7504 14.2402 90.8539 14.1286C90.9613 14.0157 91.053 13.9149 91.1289 13.8262C91.2088 13.7362 91.2943 13.6753 91.3856 13.6436C91.4451 13.6229 91.5008 13.6169 91.5527 13.6255C91.6046 13.6341 91.654 13.6547 91.7009 13.6873L92.3156 14.0739C92.2191 14.3209 92.0925 14.545 91.9357 14.7463C91.7776 14.9435 91.6012 15.1205 91.4066 15.2771C91.2147 15.4283 91.0091 15.5598 90.7901 15.6716C90.575 15.7819 90.3604 15.8743 90.1461 15.9488C89.7217 16.0964 89.3028 16.1643 88.8896 16.1523C88.4749 16.1364 88.0852 16.0385 87.7202 15.8586C87.3539 15.6747 87.023 15.4073 86.7276 15.0565C86.4308 14.7017 86.1893 14.2565 86.0031 13.721C85.8582 13.3044 85.7898 12.8902 85.7978 12.4784C85.8044 12.0625 85.8857 11.6763 86.0419 11.3196C86.2006 10.9576 86.4328 10.6345 86.7386 10.3503C87.0484 10.0647 87.4314 9.8426 87.8876 9.68397ZM88.2836 10.7269C87.8552 10.8758 87.562 11.1134 87.4042 11.4395C87.2464 11.7657 87.211 12.1626 87.298 12.6304L90.0591 11.6703C89.9929 11.4799 89.905 11.3103 89.7955 11.1616C89.6846 11.009 89.5535 10.8878 89.4023 10.7981C89.251 10.7084 89.0817 10.6561 88.8942 10.6413C88.7053 10.6225 88.5018 10.651 88.2836 10.7269Z" fill="url(#paint10_linear_17493_59103)"/>
<path d="M95.2367 7.35456C95.5037 7.27999 95.7624 7.23826 96.0128 7.22936C96.2621 7.21642 96.4985 7.23542 96.7221 7.28636L98.5121 6.78641L98.668 7.34464C98.694 7.43768 98.69 7.51728 98.6562 7.58343C98.6223 7.64957 98.5496 7.70913 98.4379 7.76213L97.9085 8.02119C97.9783 8.11507 98.0397 8.21784 98.0927 8.3295C98.1498 8.44003 98.1964 8.56002 98.2325 8.68947C98.3184 8.9969 98.3336 9.29353 98.2783 9.57936C98.2258 9.86001 98.1147 10.1178 97.9448 10.3528C97.779 10.5866 97.56 10.7938 97.2878 10.9745C97.0185 11.1501 96.7099 11.2864 96.362 11.3836C96.1274 11.4491 95.8926 11.4907 95.6577 11.5083C95.4963 11.6799 95.4359 11.8384 95.4766 11.9841C95.5116 12.1095 95.5942 12.1867 95.7245 12.2157C95.8576 12.2396 96.0206 12.2377 96.2134 12.21C96.4103 12.1812 96.6292 12.1375 96.8702 12.0789C97.11 12.0163 97.3581 11.96 97.6145 11.9102C97.871 11.8604 98.1259 11.8285 98.3792 11.8144C98.6315 11.7963 98.8659 11.8158 99.0825 11.8731C99.3031 11.9292 99.4966 12.0365 99.663 12.195C99.8322 12.3483 99.9581 12.5726 100.041 12.8679C100.117 13.143 100.123 13.4292 100.058 13.7265C99.9968 14.0226 99.865 14.308 99.6626 14.5826C99.4643 14.856 99.196 15.1054 98.8577 15.3307C98.5206 15.56 98.1133 15.7414 97.636 15.8747C97.1627 16.0069 96.7391 16.075 96.3653 16.0792C95.9925 16.0873 95.6694 16.0468 95.3959 15.9575C95.1276 15.8711 94.9091 15.7446 94.7404 15.578C94.5718 15.4114 94.4576 15.2209 94.3977 15.0065C94.3163 14.7153 94.337 14.4457 94.4596 14.1978C94.5822 13.9498 94.7849 13.7231 95.0677 13.5177C94.8902 13.4757 94.7352 13.3969 94.6026 13.2813C94.4701 13.1657 94.3721 12.9946 94.3089 12.7681C94.2829 12.6751 94.2725 12.5755 94.2778 12.4694C94.2819 12.3592 94.3027 12.2465 94.3403 12.1314C94.382 12.0151 94.4415 11.9003 94.5189 11.7871C94.5952 11.6699 94.6925 11.5577 94.8108 11.4505C94.4478 11.3687 94.1358 11.2117 93.8747 10.9794C93.6176 10.7459 93.436 10.4391 93.3298 10.0588C93.2439 9.75139 93.2272 9.45734 93.2796 9.17669C93.335 8.89087 93.4476 8.63048 93.6174 8.39552C93.7902 8.1554 94.0133 7.94701 94.2866 7.77036C94.564 7.59258 94.8807 7.45399 95.2367 7.35456ZM98.7283 13.5092C98.6944 13.3878 98.6303 13.2989 98.5361 13.2423C98.4418 13.1858 98.3263 13.1548 98.1896 13.1494C98.0518 13.1399 97.8951 13.1488 97.7195 13.1761C97.548 13.2021 97.3661 13.2377 97.1737 13.2827C96.9842 13.3225 96.7872 13.3667 96.5827 13.4151C96.3811 13.4583 96.1839 13.4938 95.991 13.5215C95.8471 13.6619 95.7407 13.8116 95.6716 13.9704C95.6055 14.1241 95.5956 14.2838 95.642 14.4497C95.6725 14.5589 95.727 14.6527 95.8056 14.731C95.8893 14.8123 95.9995 14.8709 96.136 14.9069C96.2765 14.9418 96.447 14.9509 96.6473 14.9342C96.8487 14.9216 97.0869 14.8768 97.362 14.8C97.6411 14.722 97.8756 14.6326 98.0654 14.5316C98.2564 14.4346 98.4058 14.3296 98.5138 14.2166C98.627 14.1065 98.6992 13.9904 98.7305 13.8683C98.7629 13.7502 98.7622 13.6305 98.7283 13.5092ZM96.0942 10.4249C96.2803 10.3729 96.4353 10.3034 96.5593 10.2165C96.6822 10.1255 96.7757 10.023 96.8398 9.90918C96.908 9.7942 96.9468 9.6678 96.9563 9.52997C96.9698 9.39101 96.9556 9.24669 96.9138 9.09702C96.828 8.78959 96.6671 8.57287 96.4314 8.44685C96.1985 8.31566 95.898 8.30147 95.5299 8.40428C95.1618 8.5071 94.9101 8.67551 94.7748 8.90951C94.6425 9.13834 94.6193 9.40648 94.7052 9.71391C94.7458 9.85954 94.8059 9.98883 94.8855 10.1018C94.969 10.2136 95.0683 10.3037 95.1833 10.3718C95.3012 10.4349 95.4362 10.4734 95.5885 10.4876C95.7436 10.4966 95.9122 10.4757 96.0942 10.4249Z" fill="url(#paint11_linear_17493_59103)"/>
<path d="M101.678 5.84706L103.12 12.1481L101.603 12.4951L100.161 6.19411L101.678 5.84706ZM101.485 3.95882C101.515 4.08983 101.517 4.21875 101.49 4.34556C101.463 4.47238 101.414 4.58908 101.344 4.69567C101.277 4.80132 101.191 4.89434 101.084 4.97473C100.977 5.05102 100.856 5.10462 100.72 5.13553C100.589 5.16551 100.459 5.16951 100.329 5.14754C100.202 5.12054 100.086 5.07389 99.9803 5.00758C99.8746 4.94128 99.7821 4.8569 99.7026 4.75444C99.6273 4.65104 99.5746 4.53383 99.5446 4.40282C99.5137 4.26771 99.5093 4.13517 99.5312 4.0052C99.5573 3.87429 99.6035 3.756 99.6698 3.65035C99.7361 3.5447 99.8209 3.4542 99.9243 3.37885C100.031 3.29846 100.15 3.24328 100.281 3.2133C100.416 3.18239 100.549 3.17996 100.68 3.20602C100.81 3.22799 100.927 3.27213 101.033 3.33844C101.143 3.40381 101.238 3.48977 101.318 3.59632C101.399 3.70288 101.454 3.82371 101.485 3.95882Z" fill="url(#paint12_linear_17493_59103)"/>
<path d="M108.847 5.83978C108.812 5.90581 108.774 5.95944 108.735 6.00067C108.699 6.04116 108.64 6.06883 108.558 6.08367C108.479 6.09777 108.399 6.08876 108.316 6.05664C108.233 6.02039 108.134 5.9826 108.02 5.94327C107.906 5.89981 107.772 5.86833 107.619 5.84883C107.47 5.82445 107.29 5.83117 107.079 5.86901C106.81 5.91724 106.584 6.00914 106.399 6.14471C106.213 6.27614 106.069 6.44506 105.965 6.65143C105.865 6.85707 105.806 7.09604 105.786 7.36835C105.766 7.63652 105.785 7.9339 105.844 8.26049C105.905 8.59947 105.994 8.89494 106.112 9.1469C106.234 9.39812 106.379 9.60243 106.548 9.75984C106.717 9.91312 106.907 10.0199 107.118 10.0801C107.329 10.1361 107.556 10.1423 107.8 10.0985C108.044 10.0547 108.235 9.99056 108.373 9.90597C108.515 9.81651 108.631 9.72737 108.722 9.63854C108.812 9.54558 108.889 9.46349 108.953 9.39226C109.021 9.31615 109.102 9.26957 109.197 9.2525C109.321 9.23024 109.422 9.26109 109.501 9.34504L110.042 9.82411C109.908 10.053 109.754 10.2534 109.58 10.4254C109.405 10.5933 109.218 10.7379 109.018 10.8592C108.821 10.9756 108.612 11.0707 108.391 11.1446C108.169 11.2184 107.947 11.2754 107.724 11.3155C107.331 11.386 106.948 11.38 106.575 11.2977C106.201 11.2112 105.858 11.0507 105.548 10.8164C105.241 10.5813 104.975 10.2749 104.749 9.8972C104.527 9.51465 104.369 9.06294 104.275 8.54206C104.191 8.07493 104.18 7.63106 104.241 7.21046C104.306 6.78498 104.442 6.40418 104.65 6.06806C104.858 5.7278 105.14 5.4405 105.494 5.20614C105.849 4.97178 106.277 4.80971 106.777 4.71994C107.252 4.63461 107.681 4.63652 108.064 4.72567C108.451 4.81408 108.813 4.9753 109.15 5.20935L108.847 5.83978Z" fill="url(#paint13_linear_17493_59103)"/>
<path d="M123.704 9.38558L122.397 9.48486C122.25 9.49599 122.126 9.46962 122.024 9.40574C121.927 9.33736 121.853 9.25032 121.802 9.14461L120.983 7.343L117.22 7.62888L116.683 9.53358C116.656 9.63245 116.596 9.72548 116.502 9.81269C116.411 9.89958 116.295 9.94843 116.153 9.95925L114.84 10.059L117.718 0.704291L119.445 0.573047L123.704 9.38558ZM117.563 6.40238L120.459 6.18237L119.124 3.24477C119.063 3.11458 118.995 2.96183 118.918 2.78652C118.846 2.6067 118.772 2.41223 118.697 2.2031C118.655 2.42114 118.611 2.62452 118.567 2.81325C118.526 3.00165 118.484 3.16702 118.44 3.30936L117.563 6.40238Z" fill="url(#paint14_linear_17493_59103)"/>
<path d="M129.876 9.36213C129.674 9.36202 129.542 9.26745 129.479 9.07841L129.353 8.45464C129.219 8.60577 129.078 8.74219 128.931 8.86391C128.784 8.98563 128.624 9.09054 128.452 9.17864C128.284 9.26675 128.101 9.33385 127.904 9.37994C127.711 9.43023 127.501 9.45532 127.274 9.45519C126.921 9.455 126.598 9.38131 126.304 9.23415C126.01 9.08699 125.756 8.87475 125.542 8.59743C125.332 8.31592 125.168 7.96933 125.051 7.55766C124.938 7.146 124.881 6.67556 124.882 6.14636C124.882 5.66756 124.947 5.2224 125.078 4.81087C125.208 4.39935 125.395 4.04245 125.639 3.74018C125.883 3.43792 126.175 3.20289 126.515 3.03507C126.855 2.86306 127.238 2.77717 127.662 2.7774C128.023 2.7776 128.332 2.83658 128.588 2.95432C128.844 3.06786 129.073 3.22128 129.274 3.41459L129.276 0L130.832 0.00086253L130.827 9.36266L129.876 9.36213ZM127.804 8.22069C128.127 8.22086 128.402 8.15382 128.629 8.01954C128.856 7.88527 129.07 7.69429 129.272 7.4466L129.274 4.5486C129.097 4.3343 128.904 4.18299 128.694 4.09468C128.489 4.00636 128.266 3.96214 128.027 3.96201C127.791 3.96188 127.577 4.00586 127.384 4.09395C127.195 4.18205 127.033 4.31636 126.899 4.49688C126.768 4.67321 126.667 4.89996 126.596 5.17712C126.524 5.45008 126.488 5.77346 126.488 6.14726C126.488 6.52526 126.517 6.84657 126.576 7.11121C126.639 7.37164 126.727 7.58589 126.84 7.75395C126.953 7.91782 127.092 8.03759 127.256 8.11328C127.42 8.18477 127.602 8.22057 127.804 8.22069Z" fill="url(#paint15_linear_17493_59103)"/>
<path d="M136.249 9.62598L134.841 9.53259L132.704 2.91285L133.992 2.99832C134.105 3.00583 134.198 3.03932 134.27 3.0988C134.346 3.15856 134.396 3.23132 134.419 3.31708L135.436 6.84447C135.493 7.05035 135.539 7.25121 135.572 7.44704C135.61 7.64316 135.641 7.83885 135.666 8.03413C135.717 7.84385 135.771 7.65386 135.83 7.46414C135.893 7.2747 135.969 7.0819 136.058 6.88574L137.562 3.52555C137.597 3.44368 137.654 3.37801 137.733 3.32853C137.812 3.27905 137.904 3.25779 138.009 3.26473L139.235 3.34604L136.249 9.62598Z" fill="url(#paint16_linear_17493_59103)"/>
<path d="M143.119 3.78128L142.385 10.2032L140.839 10.0265L141.573 3.60451L143.119 3.78128ZM143.565 1.93625C143.549 2.06978 143.508 2.19187 143.44 2.3025C143.373 2.41314 143.288 2.50702 143.186 2.58415C143.089 2.66176 142.976 2.72077 142.849 2.76118C142.722 2.79742 142.59 2.80767 142.452 2.79192C142.319 2.77666 142.194 2.73707 142.079 2.67316C141.969 2.60556 141.874 2.52293 141.797 2.42528C141.719 2.32763 141.66 2.21729 141.619 2.09425C141.582 1.97168 141.572 1.84363 141.587 1.7101C141.603 1.5724 141.642 1.44591 141.706 1.33062C141.774 1.21581 141.857 1.1196 141.955 1.04199C142.053 0.964378 142.163 0.907221 142.285 0.870506C142.412 0.830095 142.543 0.817522 142.676 0.832789C142.814 0.848534 142.94 0.890449 143.055 0.958531C143.17 1.02244 143.267 1.10322 143.344 1.20087C143.426 1.29899 143.487 1.41166 143.528 1.53888C143.568 1.66609 143.581 1.79855 143.565 1.93625Z" fill="url(#paint17_linear_17493_59103)"/>
<path d="M149.168 5.93584C149.116 5.9956 149.065 6.03636 149.015 6.05812C148.965 6.07574 148.905 6.07894 148.835 6.06771C148.76 6.05581 148.683 6.02219 148.602 5.96684C148.526 5.91215 148.436 5.851 148.332 5.78339C148.228 5.71163 148.107 5.64345 147.969 5.57885C147.834 5.5149 147.67 5.46741 147.475 5.43635C147.172 5.38812 146.923 5.41442 146.728 5.51525C146.534 5.61608 146.42 5.77019 146.387 5.97757C146.365 6.11445 146.39 6.23752 146.462 6.34679C146.539 6.45257 146.644 6.55229 146.778 6.64593C146.916 6.74022 147.074 6.83127 147.251 6.91907C147.429 7.00272 147.61 7.09325 147.795 7.19067C147.979 7.28809 148.158 7.39521 148.331 7.51204C148.504 7.62473 148.653 7.759 148.777 7.91485C148.906 8.06721 148.999 8.24159 149.057 8.43796C149.119 8.635 149.13 8.86209 149.089 9.11925C149.04 9.42618 148.939 9.70138 148.785 9.94484C148.632 10.1842 148.433 10.382 148.187 10.5385C147.941 10.6908 147.65 10.7954 147.314 10.8524C146.982 10.9058 146.611 10.8999 146.2 10.8345C145.98 10.7994 145.768 10.7444 145.563 10.6692C145.361 10.5988 145.169 10.5129 144.985 10.4113C144.806 10.3104 144.64 10.199 144.49 10.0772C144.343 9.95603 144.217 9.82954 144.11 9.69773L144.558 9.16939C144.615 9.10615 144.677 9.06082 144.745 9.03341C144.814 9.00599 144.895 8.99987 144.991 9.01507C145.086 9.03026 145.171 9.07143 145.245 9.13856C145.324 9.20636 145.414 9.28029 145.516 9.36034C145.618 9.4404 145.74 9.51927 145.88 9.59698C146.025 9.67534 146.214 9.73302 146.446 9.77002C146.629 9.79909 146.787 9.80313 146.923 9.78214C147.063 9.75766 147.18 9.71677 147.274 9.65947C147.372 9.60283 147.447 9.53187 147.499 9.44657C147.556 9.35778 147.592 9.26361 147.608 9.16406C147.632 9.01474 147.606 8.88512 147.53 8.77518C147.458 8.66591 147.353 8.56413 147.215 8.46983C147.081 8.3762 146.923 8.28722 146.74 8.20291C146.563 8.11511 146.38 8.02217 146.192 7.92409C146.007 7.82668 145.827 7.71922 145.65 7.60172C145.478 7.48074 145.328 7.33992 145.2 7.17927C145.077 7.01927 144.985 6.83246 144.926 6.61883C144.87 6.40587 144.865 6.15836 144.91 5.87632C144.952 5.61501 145.043 5.37441 145.185 5.15451C145.326 4.93461 145.51 4.75341 145.737 4.61092C145.969 4.46494 146.242 4.36389 146.557 4.30777C146.877 4.24816 147.234 4.24974 147.628 4.31251C148.068 4.38254 148.456 4.51888 148.794 4.72153C149.132 4.92418 149.402 5.16288 149.605 5.43762L149.168 5.93584Z" fill="url(#paint18_linear_17493_59103)"/>
<path d="M154.342 5.57328C154.814 5.67731 155.224 5.84728 155.572 6.08317C155.924 6.31996 156.204 6.60766 156.414 6.94626C156.623 7.28487 156.757 7.67143 156.816 8.10593C156.875 8.54044 156.85 9.00582 156.74 9.50209C156.63 10.0025 156.456 10.4373 156.22 10.8067C155.984 11.1761 155.699 11.4724 155.366 11.6957C155.033 11.919 154.657 12.064 154.238 12.1307C153.823 12.1983 153.38 12.1801 152.908 12.0761C152.436 11.972 152.024 11.8016 151.672 11.5648C151.32 11.328 151.038 11.0378 150.826 10.6942C150.617 10.3515 150.482 9.96244 150.419 9.52703C150.36 9.09253 150.385 8.62508 150.496 8.12471C150.605 7.62844 150.778 7.19562 151.014 6.82625C151.255 6.45779 151.541 6.16396 151.873 5.94478C152.21 5.7265 152.587 5.584 153.006 5.51729C153.425 5.45058 153.871 5.46924 154.342 5.57328ZM153.166 10.9072C153.691 11.023 154.117 10.9321 154.445 10.6346C154.777 10.3379 155.018 9.8492 155.169 9.16836C155.319 8.48753 155.306 7.94065 155.13 7.52774C154.959 7.11573 154.611 6.85182 154.086 6.73602C153.553 6.61842 153.119 6.71203 152.785 7.01686C152.452 7.31759 152.211 7.80632 152.062 8.48306C151.912 9.15979 151.926 9.70461 152.101 10.1175C152.278 10.5263 152.633 10.7896 153.166 10.9072Z" fill="url(#paint19_linear_17493_59103)"/>
<path d="M157.757 13.1264L159.499 6.90175L160.378 7.14796C160.532 7.19097 160.631 7.24928 160.676 7.32288C160.721 7.39649 160.734 7.50488 160.716 7.64805L160.597 8.42581C160.927 8.10384 161.272 7.87351 161.634 7.73482C161.995 7.59613 162.362 7.57886 162.734 7.683C163.042 7.76903 163.277 7.91113 163.439 8.10929L162.931 9.17732C162.899 9.24673 162.858 9.29195 162.808 9.31299C162.76 9.32998 162.701 9.32885 162.632 9.30961C162.572 9.29263 162.493 9.25527 162.396 9.19753C162.298 9.13979 162.163 9.08658 161.989 9.0379C161.677 8.95074 161.386 8.96299 161.115 9.07464C160.845 9.18226 160.587 9.38038 160.34 9.66902L159.255 13.5458L157.757 13.1264Z" fill="url(#paint20_linear_17493_59103)"/>
<path d="M164.871 17.1293C164.791 17.2175 164.707 17.275 164.618 17.3019C164.531 17.3341 164.416 17.3256 164.273 17.2762L163.178 16.8974L165.167 14.8454L164.651 8.33465L165.937 8.77921C166.056 8.82037 166.138 8.87972 166.182 8.95725C166.227 9.03477 166.252 9.11475 166.259 9.19718L166.468 12.8156C166.476 12.9339 166.477 13.0541 166.47 13.1763C166.464 13.2984 166.453 13.4191 166.439 13.5385C166.51 13.4344 166.582 13.3349 166.655 13.2401C166.732 13.1466 166.811 13.0518 166.893 12.9558L169.213 10.218C169.272 10.1496 169.346 10.1019 169.435 10.075C169.529 10.0495 169.621 10.0525 169.712 10.0841L170.891 10.4916L164.871 17.1293Z" fill="url(#paint21_linear_17493_59103)"/>
<path d="M181.754 14.0709C181.674 14.1353 181.597 14.1713 181.524 14.1791C181.454 14.1886 181.382 14.1756 181.305 14.1402C181.229 14.1049 181.157 14.0365 181.088 13.9351C181.021 13.8299 180.94 13.7111 180.844 13.5785C180.748 13.446 180.626 13.3105 180.477 13.1719C180.334 13.0314 180.144 12.9062 179.908 12.7965C179.695 12.6975 179.496 12.6374 179.311 12.6164C179.132 12.5934 178.966 12.602 178.813 12.6421C178.664 12.6839 178.533 12.7573 178.419 12.862C178.307 12.9629 178.216 13.0896 178.145 13.2419C178.055 13.4362 178.033 13.6229 178.08 13.8019C178.13 13.9827 178.223 14.1604 178.36 14.335C178.497 14.5096 178.662 14.6861 178.857 14.8647C179.052 15.0432 179.248 15.2292 179.445 15.4227C179.648 15.6142 179.838 15.8182 180.016 16.0349C180.195 16.2477 180.335 16.4795 180.436 16.7302C180.539 16.9772 180.588 17.2454 180.583 17.5349C180.582 17.8262 180.502 18.1433 180.343 18.4861C180.169 18.8594 179.942 19.1797 179.66 19.4472C179.384 19.7126 179.065 19.9096 178.705 20.0384C178.349 20.1652 177.962 20.2167 177.542 20.1931C177.124 20.1657 176.687 20.0458 176.23 19.8335C175.967 19.7114 175.72 19.5644 175.49 19.3925C175.258 19.2245 175.045 19.038 174.854 18.8331C174.665 18.6299 174.499 18.4139 174.356 18.185C174.216 17.9579 174.104 17.7253 174.02 17.4872L174.808 16.9572C174.875 16.9233 174.944 16.9025 175.018 16.8948C175.096 16.885 175.172 16.8969 175.244 16.9305C175.339 16.9747 175.424 17.0625 175.497 17.1938C175.572 17.3213 175.662 17.4672 175.766 17.6314C175.874 17.7974 176.011 17.9673 176.175 18.1411C176.346 18.3128 176.574 18.465 176.859 18.5977C177.297 18.8012 177.684 18.8558 178.02 18.7616C178.357 18.6636 178.616 18.4203 178.796 18.0317C178.897 17.8146 178.924 17.6118 178.877 17.4234C178.834 17.2367 178.745 17.0561 178.608 16.8815C178.473 16.7031 178.307 16.5285 178.108 16.3576C177.91 16.1867 177.71 16.0083 177.509 15.8224C177.309 15.6365 177.119 15.4371 176.94 15.2243C176.761 15.0115 176.621 14.7778 176.522 14.5233C176.423 14.2687 176.377 13.9881 176.385 13.6816C176.399 13.373 176.493 13.0302 176.668 12.6531C176.808 12.3522 177.003 12.0863 177.254 11.8555C177.509 11.6264 177.802 11.4545 178.133 11.3397C178.468 11.2267 178.834 11.1814 179.231 11.2038C179.628 11.2262 180.042 11.3374 180.472 11.5373C180.96 11.7638 181.374 12.0487 181.715 12.3922C182.055 12.7356 182.307 13.1117 182.469 13.5205L181.754 14.0709Z" fill="url(#paint22_linear_17493_59103)"/>
<path d="M186.639 17.5943C187.063 17.8258 187.409 18.1033 187.678 18.4268C187.95 18.7524 188.139 19.1069 188.245 19.4904C188.352 19.8739 188.373 20.2825 188.308 20.7162C188.244 21.15 188.09 21.5899 187.846 22.0359C187.601 22.4857 187.313 22.855 186.983 23.1438C186.653 23.4326 186.297 23.6378 185.915 23.7594C185.533 23.8809 185.131 23.9153 184.71 23.8625C184.293 23.8118 183.872 23.6707 183.448 23.4393C183.024 23.2079 182.676 22.9294 182.404 22.6038C182.132 22.2782 181.942 21.9208 181.834 21.5316C181.73 21.1445 181.708 20.733 181.769 20.2973C181.833 19.8635 181.988 19.4218 182.234 18.972C182.477 18.526 182.764 18.1585 183.094 17.8697C183.427 17.5829 183.784 17.3805 184.164 17.2627C184.548 17.1468 184.951 17.1153 185.372 17.1681C185.793 17.2208 186.215 17.3629 186.639 17.5943ZM184.022 22.3886C184.494 22.6462 184.929 22.6779 185.327 22.4836C185.728 22.2913 186.096 21.8892 186.43 21.2772C186.764 20.6653 186.905 20.1366 186.851 19.6911C186.801 19.2476 186.54 18.8971 186.069 18.6395C185.589 18.3779 185.147 18.3469 184.741 18.5465C184.338 18.7425 183.97 19.1446 183.638 19.7529C183.306 20.3611 183.166 20.888 183.22 21.3335C183.275 21.7753 183.543 22.127 184.022 22.3886Z" fill="url(#paint23_linear_17493_59103)"/>
<path d="M194.15 18.7313L189.261 26.7149L187.934 25.9022L192.823 17.9186L194.15 18.7313Z" fill="url(#paint24_linear_17493_59103)"/>
<path d="M195.891 23.2925L193.574 26.6838C193.351 27.0098 193.252 27.3138 193.278 27.596C193.31 27.8772 193.477 28.1208 193.778 28.327C194 28.4787 194.242 28.5723 194.502 28.6079C194.765 28.64 195.042 28.6287 195.334 28.5738L197.972 24.7144L199.257 25.5924L195.609 30.929L194.824 30.3922C194.658 30.2785 194.602 30.1258 194.656 29.9342L194.859 29.4473C194.673 29.4824 194.488 29.5065 194.306 29.5196C194.127 29.5291 193.947 29.5207 193.767 29.4941C193.592 29.4665 193.415 29.4167 193.235 29.3447C193.057 29.2786 192.879 29.1851 192.702 29.0642C192.411 28.8652 192.186 28.6401 192.027 28.389C191.874 28.1367 191.782 27.8683 191.753 27.5837C191.724 27.2992 191.753 27.0065 191.842 26.7058C191.936 26.404 192.085 26.104 192.289 25.8058L194.607 22.4145L195.891 23.2925Z" fill="url(#paint25_linear_17493_59103)"/>
<path d="M199.028 33.6427C198.586 33.3014 198.341 32.9137 198.294 32.4795C198.25 32.0421 198.398 31.6023 198.74 31.1601L200.945 28.3024L200.427 27.9021C200.36 27.8507 200.319 27.7842 200.302 27.7025C200.289 27.6234 200.316 27.5406 200.383 27.4541L200.76 26.9654L201.687 27.4659L203.024 26.2696C203.088 26.2134 203.158 26.1849 203.233 26.1843C203.311 26.1862 203.387 26.2154 203.46 26.2719L204.098 26.7646L202.855 28.3755L204.201 29.4148L203.524 30.2925L202.177 29.2532L200.037 32.0261C199.914 32.1857 199.857 32.3411 199.868 32.4925C199.878 32.6439 199.95 32.7709 200.083 32.8735C200.16 32.9325 200.229 32.973 200.292 32.9949C200.361 33.016 200.421 33.0307 200.473 33.0389C200.528 33.0498 200.577 33.0585 200.62 33.0649C200.665 33.0681 200.703 33.0812 200.733 33.1043C200.769 33.1325 200.792 33.1656 200.799 33.2035C200.81 33.2381 200.814 33.2839 200.813 33.341L200.72 34.2244C200.425 34.2354 200.131 34.1893 199.84 34.0862C199.548 33.983 199.277 33.8352 199.028 33.6427Z" fill="url(#paint26_linear_17493_59103)"/>
<path d="M207.766 32.2979L203.584 37.2264L202.397 36.2196L206.579 31.291L207.766 32.2979ZM209.162 31.0124C209.075 31.1149 208.973 31.1933 208.855 31.2476C208.738 31.302 208.615 31.3329 208.487 31.3403C208.363 31.3505 208.237 31.337 208.109 31.2999C207.983 31.2595 207.868 31.1944 207.762 31.1048C207.659 31.0178 207.578 30.9157 207.518 30.7985C207.463 30.6808 207.431 30.5597 207.421 30.4354C207.411 30.3111 207.423 30.1865 207.457 30.0615C207.495 29.9392 207.557 29.8268 207.644 29.7243C207.734 29.6187 207.837 29.5357 207.955 29.4754C208.075 29.4179 208.198 29.384 208.322 29.3738C208.446 29.3636 208.569 29.3774 208.692 29.415C208.82 29.4522 208.935 29.5143 209.038 29.6012C209.143 29.6909 209.225 29.796 209.283 29.9164C209.343 30.0336 209.378 30.1544 209.388 30.2787C209.402 30.4058 209.39 30.5334 209.353 30.6616C209.315 30.7898 209.252 30.9067 209.162 31.0124Z" fill="url(#paint27_linear_17493_59103)"/>
<path d="M211.711 35.6913C212.063 36.0219 212.328 36.3775 212.507 36.7581C212.688 37.1416 212.782 37.5324 212.789 37.9303C212.795 38.3283 212.713 38.729 212.542 39.1326C212.37 39.5362 212.11 39.9232 211.763 40.2938C211.412 40.6674 211.041 40.9525 210.649 41.1491C210.257 41.3457 209.861 41.4548 209.46 41.4764C209.06 41.4979 208.662 41.4303 208.268 41.2734C207.877 41.1193 207.505 40.877 207.153 40.5465C206.801 40.2159 206.534 39.8588 206.353 39.4753C206.171 39.0918 206.077 38.6981 206.07 38.2942C206.066 37.8932 206.149 37.4895 206.317 37.083C206.489 36.6795 206.75 36.2909 207.1 35.9173C207.448 35.5468 207.818 35.2632 208.21 35.0666C208.605 34.8729 209.001 34.7667 209.399 34.7482C209.8 34.7326 210.197 34.8032 210.591 34.9601C210.985 35.117 211.359 35.3608 211.711 35.6913ZM207.972 39.6737C208.364 40.0417 208.777 40.1816 209.211 40.0936C209.648 40.0085 210.106 39.7118 210.583 39.2034C211.06 38.6951 211.329 38.2186 211.389 37.774C211.452 37.3323 211.288 36.9274 210.896 36.5595C210.498 36.1858 210.077 36.0446 209.634 36.1358C209.195 36.224 208.737 36.5207 208.263 37.026C207.789 37.5313 207.522 38.0062 207.461 38.4508C207.404 38.8924 207.574 39.3 207.972 39.6737Z" fill="url(#paint28_linear_17493_59103)"/>
<path d="M210.79 43.8999L215.512 39.4863L216.161 40.1813C216.299 40.3286 216.32 40.4898 216.225 40.6649L215.926 41.0915C216.113 41.0949 216.295 41.1115 216.472 41.1412C216.652 41.1741 216.826 41.2215 216.993 41.2836C217.164 41.3488 217.327 41.4346 217.484 41.5409C217.641 41.6472 217.794 41.7802 217.943 41.9397C218.184 42.1975 218.353 42.4677 218.45 42.7503C218.551 43.0301 218.583 43.3105 218.547 43.5915C218.516 43.8728 218.422 44.1504 218.265 44.4244C218.113 44.6986 217.905 44.959 217.641 45.2057L214.635 48.0147L213.573 46.8779L216.578 44.0688C216.867 43.7992 217.026 43.5238 217.056 43.2425C217.093 42.9615 216.986 42.6874 216.737 42.4205C216.553 42.2241 216.336 42.0816 216.087 41.9929C215.837 41.9042 215.564 41.8549 215.267 41.8449L211.852 45.0368L210.79 43.8999Z" fill="url(#paint29_linear_17493_59103)"/>
<path d="M222.467 49.2278C222.388 49.2385 222.323 49.2355 222.271 49.2188C222.222 49.1995 222.175 49.1623 222.129 49.1074C222.081 49.0493 222.044 48.973 222.02 48.8783C221.999 48.7869 221.971 48.6815 221.937 48.5621C221.907 48.44 221.861 48.309 221.799 48.1691C221.74 48.0325 221.647 47.8884 221.521 47.7366C221.325 47.501 221.12 47.357 220.907 47.3047C220.694 47.2525 220.507 47.2935 220.346 47.4278C220.239 47.5165 220.177 47.6256 220.159 47.7552C220.147 47.8854 220.161 48.0298 220.2 48.1884C220.242 48.3503 220.301 48.5227 220.376 48.7056C220.455 48.8858 220.532 49.0732 220.607 49.2679C220.681 49.4626 220.745 49.6608 220.798 49.8625C220.855 50.0615 220.878 50.2605 220.869 50.4595C220.866 50.659 220.821 50.8517 220.736 51.0377C220.653 51.227 220.511 51.4049 220.311 51.5715C220.072 51.7703 219.815 51.9108 219.539 51.9929C219.266 52.0724 218.986 52.09 218.698 52.0457C218.413 51.9988 218.125 51.8859 217.834 51.7072C217.549 51.5291 217.273 51.2802 217.007 50.9606C216.865 50.7896 216.741 50.6083 216.637 50.4168C216.531 50.2312 216.443 50.0397 216.372 49.8423C216.303 49.6481 216.252 49.4556 216.219 49.2647C216.188 49.077 216.176 48.8984 216.183 48.729L216.868 48.6262C216.952 48.616 217.029 48.623 217.098 48.6473C217.168 48.6715 217.233 48.7207 217.295 48.795C217.357 48.8692 217.394 48.9561 217.405 49.0556C217.42 49.1583 217.439 49.2734 217.463 49.4009C217.487 49.5283 217.527 49.6676 217.582 49.8188C217.639 49.9731 217.743 50.1407 217.894 50.3215C218.012 50.4635 218.129 50.5711 218.244 50.6443C218.366 50.7181 218.481 50.7644 218.589 50.7833C218.701 50.8054 218.804 50.8014 218.899 50.7713C219 50.7418 219.09 50.6948 219.167 50.6303C219.283 50.5336 219.349 50.4188 219.364 50.286C219.382 50.1564 219.37 50.0107 219.328 49.8488C219.289 49.6901 219.228 49.5191 219.147 49.3357C219.071 49.1528 218.995 48.9624 218.917 48.7644C218.843 48.5697 218.777 48.3699 218.722 48.165C218.672 47.9606 218.652 47.756 218.661 47.5511C218.674 47.3495 218.728 47.1487 218.824 46.9487C218.922 46.7519 219.081 46.5622 219.301 46.3794C219.504 46.2102 219.732 46.0893 219.983 46.0168C220.234 45.9444 220.492 45.9292 220.756 45.9713C221.027 46.0139 221.299 46.1179 221.573 46.2831C221.853 46.4489 222.121 46.6851 222.376 46.9918C222.661 47.334 222.864 47.6925 222.985 48.0674C223.105 48.4422 223.152 48.7999 223.124 49.1403L222.467 49.2278Z" fill="url(#paint30_linear_17493_59103)"/>
<path d="M41.6268 208.577L40.6187 209.472L37.9372 206.452L36.0482 208.13L38.1608 210.509L37.1857 211.375L35.0731 208.996L33.1464 210.707L35.8279 213.726L34.8151 214.626L31 210.33L37.8116 204.281L41.6268 208.577Z" fill="url(#paint31_linear_17493_59103)"/>
<path d="M45.243 214.582C45.1452 214.616 45.0606 214.624 44.9893 214.606C44.9209 214.592 44.8568 214.555 44.797 214.496C44.7372 214.437 44.6921 214.348 44.6617 214.23C44.6342 214.108 44.5977 213.969 44.5521 213.811C44.5066 213.654 44.4372 213.486 44.344 213.305C44.2568 213.124 44.1205 212.943 43.9352 212.76C43.7679 212.594 43.6008 212.471 43.4339 212.389C43.273 212.306 43.1138 212.258 42.9564 212.244C42.8019 212.234 42.6535 212.258 42.5113 212.319C42.3721 212.376 42.2435 212.464 42.1254 212.584C41.9749 212.736 41.8913 212.905 41.8747 213.089C41.861 213.276 41.889 213.475 41.9586 213.685C42.0282 213.896 42.1247 214.118 42.2479 214.352C42.3712 214.585 42.493 214.827 42.6133 215.075C42.7396 215.324 42.8496 215.58 42.9433 215.844C43.04 216.105 43.0937 216.37 43.1043 216.641C43.1178 216.908 43.0735 217.177 42.9712 217.448C42.872 217.722 42.6896 217.993 42.424 218.262C42.1348 218.555 41.8124 218.78 41.457 218.936C41.1076 219.093 40.7413 219.171 40.3582 219.17C39.981 219.17 39.5988 219.087 39.2117 218.924C38.8276 218.757 38.4562 218.496 38.0975 218.142C37.8913 217.938 37.7088 217.717 37.5499 217.477C37.388 217.241 37.2513 216.994 37.1398 216.736C37.0313 216.481 36.948 216.222 36.8899 215.958C36.8348 215.697 36.8079 215.44 36.8093 215.188L37.73 214.955C37.8042 214.945 37.877 214.949 37.9484 214.967C38.0257 214.984 38.0928 215.021 38.1495 215.077C38.2243 215.151 38.274 215.262 38.2986 215.41C38.3263 215.555 38.3615 215.723 38.4043 215.913C38.45 216.105 38.5211 216.311 38.6175 216.531C38.7199 216.75 38.8831 216.97 39.1073 217.191C39.4509 217.531 39.7966 217.713 40.1442 217.737C40.4948 217.759 40.8206 217.617 41.1216 217.312C41.2898 217.142 41.3837 216.96 41.4033 216.767C41.4259 216.577 41.4023 216.376 41.3327 216.166C41.266 215.953 41.1681 215.732 41.039 215.504C40.9098 215.276 40.7821 215.041 40.6559 214.798C40.5296 214.555 40.4181 214.304 40.3215 214.043C40.2248 213.782 40.1726 213.515 40.165 213.242C40.1573 212.969 40.209 212.689 40.3201 212.404C40.4371 212.118 40.6417 211.827 40.9338 211.531C41.167 211.295 41.4405 211.111 41.7545 210.978C42.0715 210.848 42.4052 210.785 42.7556 210.789C43.1091 210.796 43.469 210.877 43.8352 211.032C44.2015 211.187 44.5535 211.431 44.8912 211.765C45.2737 212.142 45.5673 212.55 45.772 212.989C45.9768 213.427 46.0864 213.866 46.1011 214.305L45.243 214.582Z" fill="url(#paint32_linear_17493_59103)"/>
<path d="M46.6505 224.171C46.9423 224.418 47.2172 224.607 47.4755 224.737C47.7396 224.867 48.0088 224.968 48.283 225.041L49.3534 223.776L48.483 223.039C48.3996 222.969 48.3529 222.891 48.3428 222.805C48.3354 222.716 48.3602 222.638 48.4171 222.571L49.0358 221.84L51.3489 223.798L48.968 226.611C48.6832 226.59 48.4039 226.546 48.1301 226.48C47.8623 226.412 47.5936 226.317 47.324 226.194C47.0577 226.073 46.7889 225.922 46.5176 225.742C46.2436 225.565 45.9639 225.356 45.6786 225.115C45.172 224.686 44.7802 224.203 44.503 223.666C44.2258 223.129 44.0647 222.571 44.0196 221.994C43.9745 221.417 44.0483 220.835 44.241 220.25C44.4368 219.668 44.7532 219.118 45.19 218.602C45.6323 218.079 46.1229 217.672 46.6618 217.38C47.2007 217.088 47.7586 216.916 48.3355 216.865C48.9156 216.817 49.5017 216.895 50.0938 217.099C50.686 217.303 51.2594 217.639 51.814 218.109C52.3815 218.589 52.8001 219.089 53.0699 219.609C53.3456 220.128 53.5137 220.645 53.5743 221.158L52.7027 221.428C52.5286 221.484 52.3806 221.46 52.2588 221.357C52.1818 221.292 52.125 221.2 52.0883 221.081C52.0372 220.933 51.983 220.783 51.9255 220.629C51.8713 220.479 51.7974 220.326 51.704 220.17C51.6137 220.016 51.499 219.856 51.3599 219.689C51.2241 219.524 51.0503 219.352 50.8387 219.173C50.4957 218.883 50.1359 218.677 49.7593 218.557C49.3859 218.439 49.0105 218.405 48.6331 218.454C48.2558 218.503 47.8867 218.634 47.5259 218.846C47.165 219.057 46.8272 219.349 46.5125 219.721C46.1734 220.122 45.9269 220.527 45.7732 220.936C45.6223 221.342 45.5569 221.738 45.5771 222.124C45.5973 222.509 45.698 222.878 45.8792 223.229C46.0632 223.578 46.3203 223.891 46.6505 224.171Z" fill="url(#paint33_linear_17493_59103)"/>
<path d="M62.0184 227.918C61.9283 227.969 61.8466 227.992 61.7732 227.988C61.7034 227.986 61.6337 227.962 61.5641 227.915C61.4946 227.867 61.434 227.788 61.3825 227.677C61.3333 227.563 61.272 227.432 61.1985 227.286C61.1251 227.14 61.0261 226.987 60.9015 226.826C60.7828 226.664 60.6156 226.51 60.4001 226.364C60.2054 226.232 60.0186 226.141 59.8396 226.091C59.6664 226.04 59.5011 226.021 59.3437 226.036C59.1898 226.054 59.0485 226.105 58.9197 226.19C58.7932 226.272 58.6829 226.383 58.5886 226.522C58.4684 226.699 58.417 226.88 58.4342 227.064C58.4549 227.25 58.5186 227.441 58.6255 227.635C58.7323 227.829 58.8676 228.03 59.0315 228.237C59.1953 228.445 59.359 228.66 59.5227 228.883C59.6923 229.104 59.8472 229.336 59.9874 229.578C60.13 229.817 60.2312 230.068 60.2909 230.332C60.353 230.592 60.3584 230.865 60.3073 231.15C60.2597 231.437 60.1298 231.737 59.9177 232.05C59.6867 232.391 59.4108 232.671 59.09 232.889C58.7749 233.107 58.429 233.251 58.0522 233.32C57.6812 233.388 57.2905 233.377 56.88 233.286C56.4718 233.192 56.0592 233.004 55.642 232.721C55.4021 232.559 55.1822 232.374 54.9822 232.168C54.7799 231.964 54.6005 231.746 54.4439 231.513C54.2907 231.283 54.1615 231.043 54.0563 230.794C53.9545 230.547 53.8812 230.3 53.8366 230.051L54.6993 229.654C54.7706 229.632 54.8428 229.622 54.9162 229.626C54.9954 229.629 55.068 229.653 55.1341 229.698C55.221 229.757 55.2901 229.857 55.3414 229.998C55.3951 230.136 55.4603 230.295 55.537 230.473C55.6171 230.655 55.7246 230.844 55.8594 231.042C56 231.239 56.2006 231.426 56.4614 231.602C56.8612 231.873 57.2342 231.989 57.5805 231.95C57.9291 231.907 58.2236 231.708 58.464 231.354C58.5983 231.156 58.6575 230.96 58.6415 230.766C58.629 230.575 58.5693 230.383 58.4625 230.188C58.358 229.991 58.2215 229.792 58.053 229.591C57.8845 229.391 57.716 229.183 57.5476 228.967C57.3792 228.751 57.2236 228.524 57.081 228.285C56.9384 228.047 56.8384 227.794 56.7811 227.526C56.7237 227.259 56.7236 226.975 56.7807 226.674C56.8436 226.371 56.9917 226.048 57.225 225.704C57.4112 225.429 57.6465 225.198 57.931 225.01C58.219 224.825 58.5357 224.702 58.8809 224.642C59.2297 224.584 59.5983 224.598 59.9867 224.684C60.3751 224.769 60.7657 224.945 61.1586 225.212C61.6036 225.513 61.9667 225.861 62.2479 226.255C62.5291 226.648 62.717 227.06 62.8115 227.489L62.0184 227.918Z" fill="url(#paint34_linear_17493_59103)"/>
<path d="M62.5198 237.11C62.0394 236.825 61.7495 236.47 61.6501 236.045C61.5528 235.616 61.6466 235.161 61.9316 234.681L63.7731 231.576L63.2095 231.242C63.1373 231.199 63.088 231.138 63.0617 231.059C63.0389 230.982 63.0554 230.896 63.1111 230.802L63.4261 230.271L64.4069 230.655L65.5886 229.305C65.6459 229.242 65.7116 229.205 65.7857 229.195C65.8635 229.188 65.9421 229.207 66.0216 229.254L66.7151 229.666L65.6771 231.416L67.1401 232.284L66.5745 233.237L65.1115 232.37L63.3246 235.382C63.2218 235.556 63.1848 235.717 63.2136 235.866C63.2425 236.015 63.3292 236.132 63.4737 236.218C63.5567 236.267 63.6307 236.299 63.6956 236.313C63.7663 236.326 63.8279 236.333 63.8805 236.335C63.9367 236.339 63.9864 236.341 64.0296 236.343C64.075 236.34 64.114 236.349 64.1465 236.368C64.1862 236.392 64.2123 236.422 64.2247 236.458C64.2393 236.491 64.2492 236.536 64.2546 236.593L64.2699 237.481C63.9784 237.528 63.6816 237.518 63.3795 237.451C63.0773 237.384 62.7908 237.271 62.5198 237.11Z" fill="url(#paint35_linear_17493_59103)"/>
<path d="M66.0233 239.015L69.0457 233.301L69.8532 233.729C69.9943 233.803 70.0789 233.881 70.1071 233.963C70.1353 234.044 70.1253 234.153 70.0771 234.289L69.7953 235.024C70.1861 234.779 70.5729 234.627 70.9556 234.568C71.3383 234.509 71.7005 234.57 72.0421 234.751C72.3242 234.9 72.5237 235.089 72.6406 235.317L71.9174 236.253C71.8709 236.314 71.8213 236.349 71.7684 236.36C71.7176 236.366 71.6606 236.352 71.5975 236.319C71.5418 236.29 71.4725 236.236 71.3898 236.159C71.307 236.082 71.1858 236.001 71.0261 235.917C70.7403 235.766 70.453 235.716 70.1644 235.768C69.8777 235.815 69.5833 235.954 69.2812 236.184L67.3988 239.743L66.0233 239.015Z" fill="url(#paint36_linear_17493_59103)"/>
<path d="M76.2786 244.064L75.6431 243.772C75.5096 243.71 75.4134 243.643 75.3546 243.57C75.2975 243.493 75.278 243.385 75.2959 243.245L75.362 242.769C75.1518 242.834 74.9505 242.885 74.7581 242.922C74.5713 242.956 74.3858 242.972 74.2016 242.971C74.0173 242.969 73.8315 242.946 73.644 242.902C73.4564 242.857 73.2577 242.787 73.0478 242.69C72.7997 242.576 72.5857 242.439 72.4056 242.277C72.2272 242.112 72.0924 241.928 72.0011 241.724C71.9136 241.522 71.8735 241.303 71.8807 241.066C71.8879 240.829 71.952 240.579 72.073 240.315C72.1747 240.094 72.3319 239.903 72.5446 239.741C72.7628 239.578 73.0469 239.473 73.3968 239.426C73.7484 239.375 74.1757 239.395 74.6786 239.488C75.1816 239.58 75.7705 239.772 76.4454 240.064L76.6032 239.72C76.7838 239.327 76.8331 238.999 76.7511 238.734C76.6747 238.468 76.4781 238.262 76.1613 238.117C75.9323 238.012 75.7292 237.951 75.552 237.934C75.3748 237.917 75.2132 237.917 75.0671 237.933C74.9266 237.947 74.7964 237.959 74.6764 237.968C74.5565 237.978 74.4392 237.957 74.3248 237.904C74.2293 237.86 74.1587 237.798 74.1128 237.716C74.0669 237.635 74.0396 237.549 74.0309 237.457L73.9811 236.886C74.9407 236.578 75.8975 236.644 76.8516 237.082C77.1951 237.24 77.4741 237.437 77.6887 237.675C77.9088 237.91 78.0659 238.171 78.16 238.46C78.2558 238.744 78.2874 239.047 78.2549 239.37C78.2261 239.694 78.1354 240.022 77.9829 240.354L76.2786 244.064ZM73.9357 241.92C74.0808 241.986 74.2205 242.034 74.3549 242.064C74.4893 242.093 74.6222 242.106 74.7536 242.101C74.8888 242.099 75.0236 242.082 75.1579 242.051C75.2977 242.019 75.4437 241.972 75.5959 241.913L76.0509 240.923C75.6299 240.752 75.2679 240.63 74.9647 240.555C74.6672 240.479 74.416 240.442 74.2113 240.445C74.0065 240.448 73.8433 240.486 73.7217 240.56C73.6039 240.635 73.5161 240.736 73.4582 240.861C73.3443 241.11 73.3352 241.32 73.4312 241.494C73.5309 241.669 73.6991 241.811 73.9357 241.92Z" fill="url(#paint37_linear_17493_59103)"/>
<path d="M80.3095 245.817C79.7897 245.613 79.4469 245.308 79.2809 244.904C79.1165 244.497 79.1366 244.033 79.3412 243.513L80.6638 240.154L80.0542 239.914C79.976 239.883 79.9176 239.831 79.879 239.757C79.8443 239.685 79.8469 239.598 79.8869 239.496L80.1131 238.922L81.1427 239.144L82.0938 237.623C82.1402 237.551 82.1992 237.504 82.2709 237.483C82.3464 237.463 82.4272 237.47 82.5131 237.504L83.2635 237.799L82.518 239.693L84.1007 240.316L83.6944 241.347L82.1117 240.724L80.8284 243.984C80.7545 244.171 80.7437 244.336 80.796 244.479C80.8482 244.621 80.9525 244.723 81.1088 244.785C81.1987 244.82 81.2768 244.839 81.3431 244.843C81.4149 244.844 81.4768 244.841 81.5291 244.835C81.5852 244.83 81.6347 244.825 81.6776 244.819C81.722 244.809 81.7618 244.811 81.7969 244.825C81.8399 244.842 81.8705 244.868 81.8886 244.902C81.9083 244.932 81.9253 244.975 81.9396 245.03L82.0964 245.905C81.8161 245.997 81.5215 246.035 81.2126 246.017C80.9036 245.999 80.6026 245.933 80.3095 245.817Z" fill="url(#paint38_linear_17493_59103)"/>
<path d="M88.6326 241.753C89.0194 241.881 89.3538 242.061 89.6358 242.291C89.9218 242.523 90.1427 242.798 90.2987 243.115C90.456 243.428 90.543 243.78 90.5597 244.17C90.5777 244.557 90.5134 244.971 90.3668 245.414C90.3298 245.525 90.2928 245.617 90.2558 245.689C90.224 245.758 90.1869 245.81 90.1445 245.844C90.1074 245.876 90.0636 245.895 90.0131 245.901C89.964 245.902 89.9055 245.891 89.8378 245.869L86.0461 244.613C85.8813 245.258 85.8976 245.776 86.0949 246.169C86.2922 246.562 86.6341 246.839 87.1205 247C87.3597 247.079 87.5743 247.119 87.7642 247.12C87.9581 247.122 88.1301 247.111 88.2801 247.085C88.4341 247.061 88.5682 247.037 88.6824 247.013C88.8006 246.99 88.9055 246.994 88.9972 247.024C89.057 247.044 89.1049 247.073 89.1408 247.111C89.1768 247.15 89.2034 247.196 89.2208 247.251L89.4731 247.932C89.2462 248.069 89.0093 248.17 88.7624 248.234C88.5168 248.294 88.2692 248.327 88.0195 248.333C87.7751 248.336 87.532 248.315 87.2902 248.27C87.0524 248.227 86.8258 248.17 86.6105 248.098C86.1839 247.957 85.8103 247.756 85.4898 247.495C85.1705 247.23 84.9209 246.915 84.7409 246.55C84.5622 246.181 84.4625 245.768 84.4417 245.309C84.4222 244.847 84.5016 244.347 84.6799 243.809C84.8186 243.39 85.0165 243.02 85.2735 242.698C85.5319 242.372 85.8316 242.115 86.1726 241.927C86.5188 241.737 86.8998 241.622 87.3155 241.582C87.7351 241.544 88.1741 241.601 88.6326 241.753ZM88.3119 242.822C87.8813 242.679 87.5042 242.689 87.1804 242.852C86.8566 243.014 86.5869 243.308 86.3712 243.732L89.1461 244.651C89.2095 244.46 89.243 244.272 89.2467 244.087C89.2516 243.898 89.2214 243.723 89.156 243.559C89.0906 243.396 88.9881 243.251 88.8484 243.126C88.71 242.996 88.5312 242.894 88.3119 242.822Z" fill="url(#paint39_linear_17493_59103)"/>
<path d="M95.7747 243.877C96.0427 243.947 96.287 244.042 96.5076 244.161C96.7293 244.276 96.9237 244.412 97.0908 244.569L98.888 245.042L98.7404 245.603C98.7158 245.696 98.6721 245.763 98.6095 245.803C98.5468 245.843 98.4539 245.857 98.3308 245.847L97.743 245.802C97.7558 245.919 97.7569 246.038 97.7462 246.162C97.7395 246.286 97.7191 246.413 97.6848 246.543C97.6035 246.852 97.4667 247.115 97.2745 247.334C97.0874 247.549 96.8612 247.716 96.5958 247.833C96.3346 247.951 96.0408 248.019 95.7146 248.037C95.3935 248.052 95.0583 248.014 94.709 247.922C94.4735 247.86 94.2499 247.777 94.0383 247.674C93.8123 247.74 93.6801 247.846 93.6415 247.992C93.6084 248.118 93.6406 248.227 93.7383 248.318C93.8411 248.406 93.9827 248.486 94.1631 248.56C94.3476 248.635 94.5586 248.707 94.7961 248.779C95.0346 248.846 95.2771 248.923 95.5236 249.009C95.77 249.096 96.0061 249.197 96.2318 249.313C96.4586 249.425 96.651 249.561 96.8089 249.719C96.9709 249.879 97.0836 250.07 97.1471 250.291C97.2156 250.508 97.2109 250.766 97.1328 251.062C97.06 251.338 96.9204 251.588 96.7138 251.812C96.5113 252.036 96.2533 252.216 95.9399 252.351C95.6305 252.486 95.273 252.566 94.8672 252.589C94.4604 252.617 94.0174 252.567 93.5381 252.441C93.0629 252.316 92.663 252.161 92.3383 251.975C92.0126 251.794 91.7543 251.595 91.5634 251.38C91.3756 251.17 91.251 250.95 91.1897 250.721C91.1284 250.492 91.1261 250.27 91.1828 250.055C91.2599 249.763 91.4139 249.54 91.6451 249.388C91.8762 249.237 92.1657 249.143 92.5135 249.109C92.3816 248.983 92.2877 248.837 92.2317 248.67C92.1758 248.503 92.1778 248.306 92.2377 248.079C92.2623 247.985 92.3037 247.894 92.3618 247.805C92.4211 247.712 92.496 247.626 92.5867 247.545C92.6814 247.466 92.7908 247.397 92.9148 247.338C93.0398 247.276 93.1805 247.228 93.3368 247.196C93.0649 246.942 92.8751 246.648 92.7672 246.316C92.6634 245.984 92.6618 245.628 92.7623 245.246C92.8437 244.937 92.9779 244.675 93.165 244.46C93.3572 244.241 93.586 244.073 93.8513 243.956C94.1218 243.837 94.4196 243.769 94.7447 243.755C95.074 243.742 95.4173 243.783 95.7747 243.877ZM95.6763 250.952C95.7084 250.83 95.6981 250.721 95.6453 250.625C95.5925 250.528 95.5086 250.443 95.3933 250.369C95.2792 250.292 95.1395 250.22 94.9743 250.155C94.8131 250.091 94.6382 250.029 94.4494 249.971C94.2658 249.909 94.0735 249.848 93.8726 249.786C93.6768 249.722 93.4887 249.653 93.3083 249.579C93.1131 249.628 92.9456 249.703 92.8058 249.805C92.6711 249.904 92.5818 250.037 92.5379 250.203C92.509 250.313 92.5087 250.422 92.5369 250.529C92.568 250.641 92.6334 250.748 92.733 250.848C92.8367 250.949 92.9791 251.043 93.1604 251.13C93.3406 251.221 93.5688 251.302 93.8449 251.375C94.1252 251.449 94.3727 251.49 94.5876 251.499C94.8013 251.512 94.9834 251.497 95.1337 251.454C95.2869 251.416 95.408 251.353 95.4967 251.263C95.5844 251.178 95.6442 251.074 95.6763 250.952ZM94.9626 246.959C95.1494 247.009 95.3183 247.027 95.4692 247.015C95.6212 246.998 95.7537 246.957 95.8666 246.891C95.9835 246.827 96.0809 246.737 96.1588 246.623C96.2407 246.51 96.3014 246.378 96.341 246.228C96.4223 245.919 96.3931 245.651 96.2533 245.423C96.1187 245.192 95.8666 245.028 95.497 244.931C95.1274 244.833 94.8252 244.851 94.5902 244.985C94.3603 245.115 94.2048 245.335 94.1235 245.644C94.0849 245.79 94.0714 245.932 94.0829 246.07C94.0985 246.208 94.1387 246.336 94.2034 246.453C94.2733 246.567 94.3703 246.669 94.4945 246.758C94.6238 246.844 94.7798 246.911 94.9626 246.959Z" fill="url(#paint40_linear_17493_59103)"/>
<path d="M101.999 245.465L100.651 251.786L99.1288 251.462L100.477 245.14L101.999 245.465ZM102.62 243.671C102.592 243.803 102.539 243.92 102.461 244.024C102.383 244.127 102.29 244.213 102.181 244.28C102.076 244.348 101.959 244.395 101.828 244.423C101.698 244.447 101.566 244.445 101.43 244.416C101.299 244.388 101.179 244.337 101.07 244.262C100.967 244.184 100.881 244.093 100.813 243.988C100.745 243.883 100.697 243.768 100.668 243.641C100.643 243.516 100.645 243.387 100.673 243.256C100.702 243.12 100.754 242.998 100.828 242.89C100.907 242.782 100.999 242.694 101.103 242.626C101.208 242.558 101.323 242.512 101.449 242.487C101.579 242.459 101.71 242.459 101.842 242.487C101.977 242.516 102.099 242.57 102.207 242.649C102.315 242.724 102.403 242.813 102.471 242.918C102.543 243.024 102.593 243.142 102.621 243.272C102.649 243.403 102.649 243.536 102.62 243.671Z" fill="url(#paint41_linear_17493_59103)"/>
<path d="M108.541 248.03C108.486 248.08 108.433 248.118 108.382 248.144C108.335 248.17 108.27 248.177 108.187 248.163C108.108 248.15 108.035 248.115 107.968 248.057C107.902 247.995 107.821 247.927 107.727 247.852C107.634 247.772 107.519 247.698 107.381 247.629C107.248 247.556 107.076 247.502 106.865 247.467C106.595 247.423 106.351 247.434 106.132 247.5C105.913 247.562 105.72 247.673 105.553 247.833C105.391 247.993 105.255 248.199 105.146 248.449C105.037 248.695 104.956 248.982 104.902 249.309C104.846 249.649 104.832 249.957 104.859 250.234C104.89 250.512 104.959 250.753 105.066 250.958C105.173 251.158 105.316 251.322 105.496 251.45C105.675 251.573 105.888 251.654 106.132 251.695C106.377 251.735 106.578 251.738 106.737 251.705C106.901 251.668 107.04 251.622 107.155 251.569C107.271 251.511 107.371 251.46 107.455 251.414C107.544 251.365 107.636 251.348 107.731 251.364C107.856 251.384 107.941 251.447 107.988 251.553L108.337 252.185C108.135 252.356 107.923 252.493 107.701 252.597C107.481 252.697 107.256 252.771 107.026 252.818C106.802 252.862 106.573 252.882 106.34 252.878C106.107 252.874 105.878 252.853 105.654 252.816C105.26 252.752 104.901 252.618 104.577 252.416C104.253 252.21 103.984 251.944 103.769 251.619C103.559 251.295 103.41 250.918 103.324 250.486C103.242 250.052 103.244 249.573 103.329 249.051C103.406 248.582 103.544 248.16 103.742 247.784C103.945 247.405 104.2 247.091 104.509 246.844C104.819 246.593 105.18 246.416 105.592 246.313C106.005 246.211 106.462 246.201 106.964 246.283C107.44 246.361 107.844 246.507 108.175 246.718C108.511 246.931 108.798 247.204 109.037 247.537L108.541 248.03Z" fill="url(#paint42_linear_17493_59103)"/>
<path d="M122.601 254.426L121.293 254.346C121.146 254.337 121.027 254.294 120.935 254.217C120.847 254.136 120.785 254.039 120.75 253.928L120.184 252.031L116.418 251.801L115.625 253.615C115.586 253.709 115.513 253.793 115.408 253.866C115.307 253.94 115.185 253.973 115.042 253.964L113.728 253.884L117.855 245.009L119.585 245.115L122.601 254.426ZM116.925 250.633L119.824 250.81L118.902 247.718C118.86 247.58 118.813 247.42 118.761 247.236C118.713 247.048 118.667 246.845 118.621 246.628C118.549 246.838 118.479 247.033 118.409 247.214C118.343 247.395 118.278 247.553 118.216 247.688L116.925 250.633Z" fill="url(#paint43_linear_17493_59103)"/>
<path d="M129.46 254.374C129.258 254.377 129.125 254.284 129.059 254.096L128.923 253.475C128.791 253.628 128.652 253.767 128.507 253.891C128.362 254.015 128.204 254.122 128.033 254.213C127.867 254.304 127.685 254.374 127.488 254.423C127.296 254.476 127.086 254.505 126.86 254.508C126.507 254.514 126.182 254.445 125.886 254.303C125.59 254.16 125.333 253.952 125.114 253.678C124.9 253.4 124.731 253.056 124.607 252.646C124.487 252.236 124.423 251.767 124.415 251.238C124.408 250.759 124.466 250.313 124.59 249.899C124.714 249.486 124.895 249.126 125.134 248.82C125.373 248.514 125.661 248.274 125.999 248.101C126.337 247.924 126.717 247.832 127.142 247.825C127.503 247.82 127.812 247.874 128.07 247.987C128.328 248.097 128.559 248.247 128.764 248.437L128.712 245.022L130.267 244.999L130.411 254.359L129.46 254.374ZM127.37 253.265C127.693 253.261 127.967 253.189 128.192 253.051C128.417 252.913 128.628 252.719 128.826 252.468L128.781 249.57C128.602 249.359 128.406 249.211 128.195 249.126C127.988 249.041 127.764 249 127.525 249.004C127.29 249.007 127.076 249.055 126.885 249.146C126.697 249.237 126.537 249.374 126.406 249.557C126.278 249.735 126.181 249.963 126.114 250.241C126.047 250.516 126.016 250.839 126.022 251.213C126.027 251.591 126.062 251.912 126.125 252.176C126.191 252.435 126.283 252.648 126.399 252.814C126.515 252.976 126.655 253.094 126.82 253.167C126.985 253.236 127.168 253.269 127.37 253.265Z" fill="url(#paint44_linear_17493_59103)"/>
<path d="M136.418 253.987L135.012 254.102L131.927 247.867L133.214 247.762C133.327 247.753 133.423 247.773 133.503 247.821C133.587 247.869 133.647 247.934 133.683 248.015L135.206 251.355C135.293 251.55 135.368 251.742 135.43 251.931C135.495 252.12 135.555 252.309 135.608 252.498C135.63 252.303 135.657 252.107 135.687 251.91C135.722 251.714 135.769 251.512 135.828 251.305L136.823 247.76C136.845 247.674 136.892 247.601 136.963 247.54C137.034 247.48 137.122 247.445 137.226 247.437L138.451 247.337L136.418 253.987Z" fill="url(#paint45_linear_17493_59103)"/>
<path d="M142.142 246.865L142.971 253.275L141.428 253.475L140.599 247.064L142.142 246.865ZM142.131 244.967C142.149 245.1 142.138 245.228 142.099 245.352C142.06 245.476 142 245.587 141.92 245.686C141.843 245.785 141.749 245.869 141.635 245.939C141.52 246.005 141.395 246.046 141.257 246.064C141.124 246.082 140.993 246.073 140.866 246.039C140.743 246 140.631 245.942 140.533 245.866C140.434 245.79 140.35 245.697 140.281 245.587C140.216 245.477 140.174 245.355 140.157 245.222C140.139 245.084 140.148 244.952 140.182 244.825C140.221 244.697 140.278 244.584 140.354 244.485C140.43 244.386 140.523 244.304 140.633 244.239C140.747 244.169 140.871 244.126 141.004 244.109C141.142 244.091 141.274 244.101 141.402 244.14C141.529 244.174 141.642 244.229 141.741 244.306C141.844 244.381 141.93 244.476 142 244.59C142.07 244.703 142.114 244.829 142.131 244.967Z" fill="url(#paint46_linear_17493_59103)"/>
<path d="M148.421 247.129C148.391 247.202 148.356 247.257 148.316 247.294C148.275 247.327 148.219 247.35 148.149 247.362C148.074 247.375 147.99 247.368 147.896 247.342C147.806 247.315 147.701 247.286 147.58 247.256C147.459 247.222 147.323 247.197 147.17 247.181C147.023 247.164 146.851 247.172 146.657 247.206C146.355 247.259 146.128 247.365 145.977 247.523C145.825 247.682 145.768 247.865 145.804 248.071C145.828 248.208 145.891 248.316 145.995 248.396C146.102 248.471 146.234 248.532 146.391 248.577C146.552 248.621 146.731 248.656 146.927 248.681C147.123 248.703 147.323 248.729 147.529 248.762C147.735 248.794 147.939 248.837 148.141 248.892C148.341 248.942 148.525 249.021 148.693 249.128C148.865 249.23 149.01 249.365 149.128 249.531C149.251 249.698 149.335 249.909 149.38 250.165C149.433 250.472 149.427 250.765 149.36 251.045C149.293 251.321 149.169 251.573 148.987 251.801C148.804 252.025 148.563 252.218 148.263 252.381C147.967 252.539 147.614 252.654 147.204 252.726C146.985 252.764 146.766 252.781 146.548 252.776C146.335 252.775 146.125 252.756 145.918 252.72C145.715 252.683 145.523 252.631 145.341 252.565C145.163 252.498 145.002 252.419 144.858 252.329L145.11 251.684C145.144 251.606 145.188 251.543 145.244 251.495C145.299 251.447 145.375 251.414 145.47 251.398C145.565 251.381 145.659 251.392 145.751 251.432C145.847 251.47 145.956 251.511 146.079 251.554C146.201 251.596 146.342 251.631 146.5 251.659C146.663 251.686 146.86 251.68 147.091 251.639C147.274 251.607 147.425 251.56 147.546 251.496C147.671 251.427 147.768 251.351 147.839 251.266C147.913 251.18 147.961 251.089 147.982 250.991C148.007 250.889 148.011 250.788 147.994 250.689C147.968 250.54 147.901 250.426 147.793 250.346C147.69 250.266 147.557 250.204 147.396 250.16C147.239 250.115 147.061 250.082 146.861 250.061C146.665 250.036 146.461 250.007 146.251 249.976C146.045 249.944 145.84 249.901 145.634 249.847C145.432 249.788 145.245 249.704 145.072 249.593C144.903 249.482 144.756 249.335 144.63 249.152C144.509 248.969 144.423 248.737 144.374 248.455C144.329 248.195 144.337 247.937 144.4 247.683C144.462 247.43 144.577 247.198 144.745 246.99C144.917 246.777 145.143 246.592 145.423 246.437C145.706 246.277 146.044 246.162 146.437 246.094C146.876 246.017 147.288 246.02 147.673 246.102C148.058 246.184 148.391 246.322 148.672 246.516L148.421 247.129Z" fill="url(#paint47_linear_17493_59103)"/>
<path d="M152.893 244.783C153.363 244.672 153.806 244.647 154.222 244.709C154.641 244.769 155.019 244.907 155.355 245.121C155.69 245.335 155.979 245.625 156.22 245.991C156.462 246.357 156.641 246.787 156.758 247.282C156.876 247.78 156.908 248.247 156.856 248.683C156.803 249.118 156.675 249.508 156.472 249.854C156.269 250.2 155.993 250.494 155.645 250.736C155.3 250.977 154.893 251.153 154.423 251.264C153.953 251.375 153.508 251.4 153.088 251.34C152.668 251.279 152.288 251.14 151.947 250.923C151.611 250.704 151.32 250.413 151.074 250.048C150.832 249.682 150.653 249.25 150.535 248.751C150.418 248.257 150.386 247.792 150.438 247.356C150.495 246.92 150.625 246.531 150.83 246.189C151.038 245.847 151.316 245.554 151.665 245.312C152.013 245.07 152.423 244.894 152.893 244.783ZM154.148 250.099C154.671 249.975 155.016 249.708 155.182 249.298C155.353 248.887 155.358 248.342 155.198 247.663C155.037 246.984 154.788 246.497 154.451 246.202C154.118 245.905 153.689 245.818 153.166 245.942C152.635 246.067 152.285 246.34 152.116 246.759C151.947 247.175 151.942 247.72 152.101 248.394C152.26 249.069 152.509 249.554 152.846 249.85C153.183 250.141 153.617 250.224 154.148 250.099Z" fill="url(#paint48_linear_17493_59103)"/>
<path d="M159.698 249.829L157.864 243.631L158.74 243.371C158.893 243.326 159.008 243.323 159.085 243.361C159.162 243.4 159.231 243.485 159.292 243.615L159.604 244.338C159.712 243.89 159.883 243.511 160.115 243.201C160.348 242.891 160.649 242.682 161.02 242.572C161.326 242.481 161.6 242.477 161.843 242.558L161.981 243.733C161.99 243.809 161.979 243.869 161.949 243.913C161.917 243.953 161.867 243.984 161.798 244.004C161.738 244.022 161.651 244.032 161.538 244.035C161.425 244.038 161.282 244.065 161.109 244.116C160.798 244.208 160.558 244.373 160.388 244.612C160.216 244.846 160.103 245.151 160.048 245.527L161.19 249.387L159.698 249.829Z" fill="url(#paint49_linear_17493_59103)"/>
<path d="M168.475 248.893C168.468 249.012 168.439 249.109 168.386 249.186C168.339 249.266 168.245 249.332 168.103 249.383L167.013 249.778L167.268 246.931L162.771 242.195L164.051 241.731C164.169 241.689 164.27 241.683 164.353 241.716C164.436 241.748 164.507 241.794 164.564 241.854L167.003 244.535C167.083 244.622 167.16 244.715 167.231 244.814C167.303 244.913 167.371 245.014 167.434 245.116C167.424 244.99 167.418 244.867 167.415 244.747C167.416 244.627 167.418 244.503 167.421 244.377L167.502 240.789C167.505 240.699 167.533 240.615 167.585 240.538C167.641 240.46 167.715 240.404 167.806 240.371L168.979 239.946L168.475 248.893Z" fill="url(#paint50_linear_17493_59103)"/>
<path d="M178.559 234.58C178.557 234.684 178.537 234.766 178.496 234.827C178.46 234.887 178.404 234.935 178.328 234.972C178.252 235.008 178.154 235.021 178.032 235.01C177.908 234.995 177.764 234.982 177.601 234.973C177.438 234.963 177.255 234.972 177.054 234.999C176.855 235.02 176.638 235.088 176.403 235.201C176.191 235.303 176.019 235.419 175.885 235.549C175.754 235.673 175.655 235.807 175.59 235.95C175.527 236.092 175.501 236.24 175.51 236.394C175.517 236.545 175.557 236.696 175.63 236.847C175.724 237.04 175.854 237.175 176.022 237.253C176.194 237.328 176.391 237.369 176.612 237.374C176.834 237.379 177.075 237.362 177.337 237.325C177.599 237.287 177.867 237.253 178.141 237.223C178.418 237.188 178.696 237.17 178.976 237.17C179.254 237.166 179.522 237.205 179.781 237.286C180.037 237.362 180.275 237.494 180.496 237.682C180.721 237.867 180.915 238.13 181.08 238.47C181.259 238.841 181.362 239.22 181.391 239.607C181.421 239.989 181.372 240.36 181.243 240.721C181.116 241.076 180.91 241.409 180.626 241.718C180.34 242.024 179.97 242.287 179.516 242.506C179.255 242.632 178.985 242.73 178.706 242.799C178.429 242.872 178.15 242.918 177.87 242.936C177.593 242.953 177.321 242.945 177.053 242.911C176.789 242.875 176.538 242.814 176.3 242.729L176.39 241.783C176.406 241.71 176.434 241.643 176.474 241.581C176.517 241.514 176.574 241.463 176.645 241.429C176.74 241.383 176.861 241.374 177.009 241.4C177.156 241.423 177.325 241.446 177.518 241.469C177.715 241.491 177.933 241.493 178.172 241.475C178.413 241.453 178.675 241.373 178.959 241.236C179.394 241.026 179.681 240.761 179.821 240.442C179.959 240.119 179.935 239.764 179.748 239.379C179.644 239.163 179.505 239.014 179.329 238.93C179.158 238.845 178.961 238.8 178.739 238.795C178.516 238.787 178.275 238.805 178.017 238.85C177.759 238.895 177.495 238.937 177.224 238.974C176.953 239.012 176.678 239.032 176.4 239.036C176.122 239.04 175.853 238.999 175.593 238.915C175.333 238.83 175.087 238.688 174.855 238.487C174.625 238.281 174.42 237.991 174.239 237.616C174.095 237.318 174.013 236.998 173.993 236.658C173.977 236.316 174.03 235.98 174.151 235.651C174.276 235.321 174.473 235.009 174.742 234.716C175.011 234.423 175.359 234.173 175.786 233.967C176.271 233.733 176.753 233.593 177.235 233.547C177.716 233.502 178.167 233.545 178.586 233.679L178.559 234.58Z" fill="url(#paint51_linear_17493_59103)"/>
<path d="M183.925 232.71C184.345 232.472 184.764 232.325 185.18 232.268C185.601 232.209 186.002 232.236 186.383 232.348C186.765 232.46 187.123 232.658 187.458 232.942C187.792 233.226 188.084 233.589 188.334 234.032C188.586 234.478 188.748 234.917 188.818 235.35C188.889 235.783 188.875 236.193 188.777 236.582C188.678 236.971 188.495 237.33 188.228 237.659C187.964 237.987 187.622 238.269 187.202 238.507C186.781 238.745 186.361 238.893 185.941 238.952C185.521 239.011 185.117 238.984 184.729 238.87C184.345 238.754 183.984 238.555 183.647 238.273C183.312 237.989 183.019 237.624 182.767 237.178C182.517 236.736 182.357 236.298 182.286 235.866C182.218 235.431 182.235 235.021 182.336 234.636C182.44 234.249 182.626 233.89 182.893 233.561C183.161 233.231 183.505 232.948 183.925 232.71ZM186.613 237.465C187.081 237.201 187.337 236.848 187.383 236.407C187.432 235.965 187.285 235.44 186.942 234.833C186.598 234.226 186.224 233.828 185.817 233.638C185.414 233.446 184.979 233.482 184.511 233.747C184.036 234.015 183.775 234.375 183.731 234.824C183.684 235.271 183.831 235.795 184.172 236.399C184.513 237.002 184.887 237.399 185.293 237.589C185.698 237.775 186.137 237.734 186.613 237.465Z" fill="url(#paint52_linear_17493_59103)"/>
<path d="M188.251 226.84L193.257 234.751L191.942 235.583L186.936 227.672L188.251 226.84Z" fill="url(#paint53_linear_17493_59103)"/>
<path d="M192.86 227.261L195.228 230.617C195.455 230.94 195.706 231.138 195.979 231.213C196.254 231.281 196.54 231.21 196.839 231C197.058 230.845 197.23 230.651 197.355 230.42C197.477 230.185 197.563 229.921 197.614 229.628L194.919 225.808L196.191 224.911L199.917 230.193L199.139 230.742C198.975 230.858 198.812 230.857 198.651 230.739L198.266 230.378C198.234 230.566 198.192 230.747 198.141 230.922C198.087 231.093 198.016 231.259 197.928 231.419C197.841 231.572 197.733 231.721 197.603 231.864C197.478 232.008 197.329 232.142 197.154 232.266C196.865 232.469 196.576 232.601 196.285 232.663C195.995 232.718 195.712 232.71 195.435 232.638C195.158 232.566 194.894 232.436 194.643 232.248C194.393 232.054 194.164 231.809 193.956 231.514L191.589 228.158L192.86 227.261Z" fill="url(#paint54_linear_17493_59103)"/>
<path d="M203.837 227.275C203.4 227.623 202.965 227.767 202.532 227.709C202.097 227.648 201.705 227.398 201.357 226.961L199.11 224.137L198.597 224.545C198.531 224.597 198.457 224.621 198.373 224.618C198.293 224.612 198.219 224.566 198.151 224.48L197.767 223.997L198.474 223.217L197.632 221.633C197.593 221.556 197.582 221.482 197.6 221.409C197.62 221.334 197.666 221.267 197.739 221.21L198.37 220.708L199.637 222.3L200.968 221.241L201.658 222.109L200.327 223.168L202.508 225.909C202.634 226.066 202.771 226.158 202.921 226.184C203.07 226.21 203.211 226.171 203.342 226.066C203.418 226.006 203.474 225.948 203.51 225.893C203.547 225.831 203.575 225.776 203.596 225.727C203.62 225.676 203.64 225.631 203.656 225.591C203.67 225.548 203.692 225.514 203.721 225.491C203.758 225.462 203.795 225.448 203.834 225.45C203.87 225.448 203.915 225.454 203.97 225.47L204.806 225.771C204.746 226.06 204.631 226.334 204.461 226.593C204.292 226.851 204.083 227.079 203.837 227.275Z" fill="url(#paint55_linear_17493_59103)"/>
<path d="M204.279 218.333L208.534 223.199L207.362 224.224L203.108 219.357L204.279 218.333ZM203.215 216.762C203.303 216.863 203.366 216.976 203.402 217.1C203.438 217.225 203.451 217.35 203.439 217.478C203.431 217.602 203.399 217.725 203.343 217.846C203.285 217.964 203.203 218.069 203.099 218.16C202.998 218.249 202.885 218.314 202.76 218.356C202.635 218.393 202.511 218.407 202.386 218.398C202.262 218.39 202.14 218.359 202.022 218.307C201.906 218.251 201.805 218.173 201.716 218.072C201.625 217.968 201.558 217.853 201.516 217.728C201.477 217.601 201.461 217.474 201.47 217.35C201.478 217.226 201.51 217.106 201.565 216.99C201.621 216.869 201.7 216.764 201.801 216.676C201.905 216.584 202.021 216.519 202.149 216.48C202.274 216.438 202.398 216.421 202.523 216.429C202.65 216.435 202.775 216.466 202.896 216.521C203.017 216.577 203.124 216.657 203.215 216.762Z" fill="url(#paint56_linear_17493_59103)"/>
<path d="M207.888 214.87C208.235 214.535 208.604 214.287 208.992 214.127C209.384 213.964 209.779 213.889 210.177 213.902C210.575 213.914 210.971 214.016 211.366 214.207C211.761 214.398 212.135 214.676 212.488 215.041C212.844 215.41 213.111 215.794 213.288 216.195C213.466 216.596 213.555 216.997 213.558 217.398C213.56 217.799 213.473 218.193 213.297 218.579C213.124 218.962 212.864 219.322 212.517 219.658C212.17 219.993 211.8 220.242 211.408 220.405C211.017 220.568 210.619 220.643 210.215 220.63C209.814 220.615 209.415 220.513 209.017 220.325C208.622 220.134 208.247 219.854 207.891 219.486C207.538 219.121 207.272 218.738 207.095 218.337C206.92 217.933 206.834 217.532 206.834 217.134C206.838 216.733 206.928 216.339 207.104 215.953C207.28 215.567 207.541 215.206 207.888 214.87ZM211.685 218.797C212.072 218.423 212.231 218.018 212.164 217.58C212.101 217.139 211.826 216.668 211.342 216.167C210.857 215.666 210.394 215.374 209.953 215.293C209.515 215.208 209.102 215.353 208.716 215.726C208.323 216.106 208.162 216.519 208.232 216.966C208.298 217.409 208.573 217.88 209.054 218.378C209.536 218.877 209.998 219.167 210.439 219.248C210.877 219.327 211.293 219.176 211.685 218.797Z" fill="url(#paint57_linear_17493_59103)"/>
<path d="M216.381 215.692L211.594 211.349L212.233 210.645C212.369 210.495 212.528 210.461 212.71 210.541L213.16 210.805C213.148 210.618 213.149 210.435 213.164 210.256C213.182 210.074 213.215 209.897 213.263 209.725C213.314 209.55 213.386 209.38 213.48 209.215C213.573 209.05 213.693 208.886 213.839 208.725C214.076 208.463 214.332 208.272 214.605 208.152C214.876 208.029 215.153 207.974 215.436 207.987C215.719 207.994 216.003 208.065 216.289 208.2C216.575 208.328 216.851 208.514 217.119 208.757L220.166 211.521L219.12 212.674L216.073 209.909C215.781 209.644 215.493 209.508 215.211 209.501C214.927 209.488 214.663 209.617 214.418 209.887C214.237 210.086 214.113 210.314 214.045 210.57C213.977 210.826 213.95 211.102 213.965 211.399L217.427 214.54L216.381 215.692Z" fill="url(#paint58_linear_17493_59103)"/>
<path d="M220.219 203.26C220.245 203.335 220.254 203.4 220.248 203.454C220.239 203.506 220.212 203.559 220.167 203.615C220.119 203.674 220.052 203.724 219.963 203.767C219.878 203.806 219.78 203.853 219.67 203.91C219.556 203.964 219.436 204.035 219.311 204.123C219.189 204.207 219.066 204.327 218.942 204.48C218.749 204.719 218.648 204.947 218.638 205.166C218.629 205.385 218.706 205.561 218.869 205.693C218.977 205.78 219.096 205.82 219.227 205.812C219.357 205.798 219.496 205.756 219.644 205.687C219.794 205.614 219.952 205.522 220.116 205.412C220.277 205.3 220.446 205.188 220.622 205.076C220.799 204.965 220.981 204.863 221.168 204.772C221.352 204.678 221.543 204.615 221.74 204.586C221.936 204.55 222.134 204.556 222.333 204.603C222.535 204.647 222.737 204.751 222.939 204.915C223.181 205.11 223.369 205.335 223.504 205.589C223.635 205.841 223.707 206.113 223.721 206.404C223.73 206.693 223.676 206.997 223.558 207.317C223.439 207.632 223.249 207.951 222.988 208.274C222.848 208.447 222.694 208.604 222.527 208.744C222.366 208.884 222.195 209.008 222.016 209.117C221.839 209.222 221.66 209.31 221.479 209.38C221.301 209.447 221.128 209.493 220.961 209.52L220.726 208.869C220.699 208.788 220.691 208.711 220.701 208.638C220.712 208.566 220.747 208.492 220.808 208.417C220.868 208.341 220.946 208.288 221.042 208.257C221.139 208.223 221.249 208.181 221.369 208.133C221.489 208.084 221.618 208.018 221.755 207.935C221.896 207.848 222.039 207.713 222.187 207.531C222.303 207.387 222.386 207.251 222.435 207.123C222.484 206.99 222.507 206.868 222.504 206.758C222.504 206.644 222.479 206.544 222.431 206.456C222.383 206.363 222.319 206.285 222.241 206.221C222.123 206.126 221.998 206.084 221.864 206.095C221.734 206.103 221.593 206.144 221.443 206.216C221.295 206.286 221.139 206.379 220.975 206.495C220.811 206.605 220.639 206.717 220.46 206.832C220.284 206.943 220.1 207.046 219.91 207.141C219.72 207.23 219.523 207.29 219.32 207.32C219.12 207.348 218.912 207.334 218.698 207.279C218.485 207.221 218.268 207.102 218.046 206.923C217.84 206.757 217.677 206.557 217.557 206.325C217.436 206.093 217.371 205.843 217.36 205.576C217.349 205.302 217.398 205.015 217.506 204.713C217.614 204.406 217.793 204.098 218.044 203.787C218.323 203.441 218.635 203.172 218.979 202.98C219.323 202.788 219.665 202.672 220.004 202.633L220.219 203.26Z" fill="url(#paint59_linear_17493_59103)"/>
<defs>
<linearGradient id="paint0_linear_17493_59103" x1="127.11" y1="0" x2="127.11" y2="254.509" gradientUnits="userSpaceOnUse">
<stop stop-color="#00AF78"/>
<stop offset="1" stop-color="#00734F"/>
</linearGradient>
<linearGradient id="paint1_linear_17493_59103" x1="127.11" y1="0" x2="127.11" y2="254.509" gradientUnits="userSpaceOnUse">
<stop stop-color="#00AF78"/>
<stop offset="1" stop-color="#00734F"/>
</linearGradient>
<linearGradient id="paint2_linear_17493_59103" x1="127.11" y1="0" x2="127.11" y2="254.509" gradientUnits="userSpaceOnUse">
<stop stop-color="#00AF78"/>
<stop offset="1" stop-color="#00734F"/>
</linearGradient>
<linearGradient id="paint3_linear_17493_59103" x1="127.11" y1="0" x2="127.11" y2="254.509" gradientUnits="userSpaceOnUse">
<stop stop-color="#00AF78"/>
<stop offset="1" stop-color="#00734F"/>
</linearGradient>
<linearGradient id="paint4_linear_17493_59103" x1="127.11" y1="0" x2="127.11" y2="254.509" gradientUnits="userSpaceOnUse">
<stop stop-color="#00AF78"/>
<stop offset="1" stop-color="#00734F"/>
</linearGradient>
<linearGradient id="paint5_linear_17493_59103" x1="127.11" y1="0" x2="127.11" y2="254.509" gradientUnits="userSpaceOnUse">
<stop stop-color="#00AF78"/>
<stop offset="1" stop-color="#00734F"/>
</linearGradient>
<linearGradient id="paint6_linear_17493_59103" x1="127.11" y1="0" x2="127.11" y2="254.509" gradientUnits="userSpaceOnUse">
<stop stop-color="#00AF78"/>
<stop offset="1" stop-color="#00734F"/>
</linearGradient>
<linearGradient id="paint7_linear_17493_59103" x1="127.11" y1="0" x2="127.11" y2="254.509" gradientUnits="userSpaceOnUse">
<stop stop-color="#00AF78"/>
<stop offset="1" stop-color="#00734F"/>
</linearGradient>
<linearGradient id="paint8_linear_17493_59103" x1="127.11" y1="0" x2="127.11" y2="254.509" gradientUnits="userSpaceOnUse">
<stop stop-color="#00AF78"/>
<stop offset="1" stop-color="#00734F"/>
</linearGradient>
<linearGradient id="paint9_linear_17493_59103" x1="127.11" y1="0" x2="127.11" y2="254.509" gradientUnits="userSpaceOnUse">
<stop stop-color="#00AF78"/>
<stop offset="1" stop-color="#00734F"/>
</linearGradient>
<linearGradient id="paint10_linear_17493_59103" x1="127.11" y1="0" x2="127.11" y2="254.509" gradientUnits="userSpaceOnUse">
<stop stop-color="#00AF78"/>
<stop offset="1" stop-color="#00734F"/>
</linearGradient>
<linearGradient id="paint11_linear_17493_59103" x1="127.11" y1="0" x2="127.11" y2="254.509" gradientUnits="userSpaceOnUse">
<stop stop-color="#00AF78"/>
<stop offset="1" stop-color="#00734F"/>
</linearGradient>
<linearGradient id="paint12_linear_17493_59103" x1="127.11" y1="0" x2="127.11" y2="254.509" gradientUnits="userSpaceOnUse">
<stop stop-color="#00AF78"/>
<stop offset="1" stop-color="#00734F"/>
</linearGradient>
<linearGradient id="paint13_linear_17493_59103" x1="127.11" y1="0" x2="127.11" y2="254.509" gradientUnits="userSpaceOnUse">
<stop stop-color="#00AF78"/>
<stop offset="1" stop-color="#00734F"/>
</linearGradient>
<linearGradient id="paint14_linear_17493_59103" x1="127.11" y1="0" x2="127.11" y2="254.509" gradientUnits="userSpaceOnUse">
<stop stop-color="#00AF78"/>
<stop offset="1" stop-color="#00734F"/>
</linearGradient>
<linearGradient id="paint15_linear_17493_59103" x1="127.11" y1="0" x2="127.11" y2="254.509" gradientUnits="userSpaceOnUse">
<stop stop-color="#00AF78"/>
<stop offset="1" stop-color="#00734F"/>
</linearGradient>
<linearGradient id="paint16_linear_17493_59103" x1="127.11" y1="0" x2="127.11" y2="254.509" gradientUnits="userSpaceOnUse">
<stop stop-color="#00AF78"/>
<stop offset="1" stop-color="#00734F"/>
</linearGradient>
<linearGradient id="paint17_linear_17493_59103" x1="127.11" y1="0" x2="127.11" y2="254.509" gradientUnits="userSpaceOnUse">
<stop stop-color="#00AF78"/>
<stop offset="1" stop-color="#00734F"/>
</linearGradient>
<linearGradient id="paint18_linear_17493_59103" x1="127.11" y1="0" x2="127.11" y2="254.509" gradientUnits="userSpaceOnUse">
<stop stop-color="#00AF78"/>
<stop offset="1" stop-color="#00734F"/>
</linearGradient>
<linearGradient id="paint19_linear_17493_59103" x1="127.11" y1="0" x2="127.11" y2="254.509" gradientUnits="userSpaceOnUse">
<stop stop-color="#00AF78"/>
<stop offset="1" stop-color="#00734F"/>
</linearGradient>
<linearGradient id="paint20_linear_17493_59103" x1="127.11" y1="0" x2="127.11" y2="254.509" gradientUnits="userSpaceOnUse">
<stop stop-color="#00AF78"/>
<stop offset="1" stop-color="#00734F"/>
</linearGradient>
<linearGradient id="paint21_linear_17493_59103" x1="127.11" y1="0" x2="127.11" y2="254.509" gradientUnits="userSpaceOnUse">
<stop stop-color="#00AF78"/>
<stop offset="1" stop-color="#00734F"/>
</linearGradient>
<linearGradient id="paint22_linear_17493_59103" x1="127.11" y1="0" x2="127.11" y2="254.509" gradientUnits="userSpaceOnUse">
<stop stop-color="#00AF78"/>
<stop offset="1" stop-color="#00734F"/>
</linearGradient>
<linearGradient id="paint23_linear_17493_59103" x1="127.11" y1="0" x2="127.11" y2="254.509" gradientUnits="userSpaceOnUse">
<stop stop-color="#00AF78"/>
<stop offset="1" stop-color="#00734F"/>
</linearGradient>
<linearGradient id="paint24_linear_17493_59103" x1="127.11" y1="0" x2="127.11" y2="254.509" gradientUnits="userSpaceOnUse">
<stop stop-color="#00AF78"/>
<stop offset="1" stop-color="#00734F"/>
</linearGradient>
<linearGradient id="paint25_linear_17493_59103" x1="127.11" y1="0" x2="127.11" y2="254.509" gradientUnits="userSpaceOnUse">
<stop stop-color="#00AF78"/>
<stop offset="1" stop-color="#00734F"/>
</linearGradient>
<linearGradient id="paint26_linear_17493_59103" x1="127.11" y1="0" x2="127.11" y2="254.509" gradientUnits="userSpaceOnUse">
<stop stop-color="#00AF78"/>
<stop offset="1" stop-color="#00734F"/>
</linearGradient>
<linearGradient id="paint27_linear_17493_59103" x1="127.11" y1="0" x2="127.11" y2="254.509" gradientUnits="userSpaceOnUse">
<stop stop-color="#00AF78"/>
<stop offset="1" stop-color="#00734F"/>
</linearGradient>
<linearGradient id="paint28_linear_17493_59103" x1="127.11" y1="0" x2="127.11" y2="254.509" gradientUnits="userSpaceOnUse">
<stop stop-color="#00AF78"/>
<stop offset="1" stop-color="#00734F"/>
</linearGradient>
<linearGradient id="paint29_linear_17493_59103" x1="127.11" y1="0" x2="127.11" y2="254.509" gradientUnits="userSpaceOnUse">
<stop stop-color="#00AF78"/>
<stop offset="1" stop-color="#00734F"/>
</linearGradient>
<linearGradient id="paint30_linear_17493_59103" x1="127.11" y1="0" x2="127.11" y2="254.509" gradientUnits="userSpaceOnUse">
<stop stop-color="#00AF78"/>
<stop offset="1" stop-color="#00734F"/>
</linearGradient>
<linearGradient id="paint31_linear_17493_59103" x1="127.11" y1="0" x2="127.11" y2="254.509" gradientUnits="userSpaceOnUse">
<stop stop-color="#00AF78"/>
<stop offset="1" stop-color="#00734F"/>
</linearGradient>
<linearGradient id="paint32_linear_17493_59103" x1="127.11" y1="0" x2="127.11" y2="254.509" gradientUnits="userSpaceOnUse">
<stop stop-color="#00AF78"/>
<stop offset="1" stop-color="#00734F"/>
</linearGradient>
<linearGradient id="paint33_linear_17493_59103" x1="127.11" y1="0" x2="127.11" y2="254.509" gradientUnits="userSpaceOnUse">
<stop stop-color="#00AF78"/>
<stop offset="1" stop-color="#00734F"/>
</linearGradient>
<linearGradient id="paint34_linear_17493_59103" x1="127.11" y1="0" x2="127.11" y2="254.509" gradientUnits="userSpaceOnUse">
<stop stop-color="#00AF78"/>
<stop offset="1" stop-color="#00734F"/>
</linearGradient>
<linearGradient id="paint35_linear_17493_59103" x1="127.11" y1="0" x2="127.11" y2="254.509" gradientUnits="userSpaceOnUse">
<stop stop-color="#00AF78"/>
<stop offset="1" stop-color="#00734F"/>
</linearGradient>
<linearGradient id="paint36_linear_17493_59103" x1="127.11" y1="0" x2="127.11" y2="254.509" gradientUnits="userSpaceOnUse">
<stop stop-color="#00AF78"/>
<stop offset="1" stop-color="#00734F"/>
</linearGradient>
<linearGradient id="paint37_linear_17493_59103" x1="127.11" y1="0" x2="127.11" y2="254.509" gradientUnits="userSpaceOnUse">
<stop stop-color="#00AF78"/>
<stop offset="1" stop-color="#00734F"/>
</linearGradient>
<linearGradient id="paint38_linear_17493_59103" x1="127.11" y1="0" x2="127.11" y2="254.509" gradientUnits="userSpaceOnUse">
<stop stop-color="#00AF78"/>
<stop offset="1" stop-color="#00734F"/>
</linearGradient>
<linearGradient id="paint39_linear_17493_59103" x1="127.11" y1="0" x2="127.11" y2="254.509" gradientUnits="userSpaceOnUse">
<stop stop-color="#00AF78"/>
<stop offset="1" stop-color="#00734F"/>
</linearGradient>
<linearGradient id="paint40_linear_17493_59103" x1="127.11" y1="0" x2="127.11" y2="254.509" gradientUnits="userSpaceOnUse">
<stop stop-color="#00AF78"/>
<stop offset="1" stop-color="#00734F"/>
</linearGradient>
<linearGradient id="paint41_linear_17493_59103" x1="127.11" y1="0" x2="127.11" y2="254.509" gradientUnits="userSpaceOnUse">
<stop stop-color="#00AF78"/>
<stop offset="1" stop-color="#00734F"/>
</linearGradient>
<linearGradient id="paint42_linear_17493_59103" x1="127.11" y1="0" x2="127.11" y2="254.509" gradientUnits="userSpaceOnUse">
<stop stop-color="#00AF78"/>
<stop offset="1" stop-color="#00734F"/>
</linearGradient>
<linearGradient id="paint43_linear_17493_59103" x1="127.11" y1="0" x2="127.11" y2="254.509" gradientUnits="userSpaceOnUse">
<stop stop-color="#00AF78"/>
<stop offset="1" stop-color="#00734F"/>
</linearGradient>
<linearGradient id="paint44_linear_17493_59103" x1="127.11" y1="0" x2="127.11" y2="254.509" gradientUnits="userSpaceOnUse">
<stop stop-color="#00AF78"/>
<stop offset="1" stop-color="#00734F"/>
</linearGradient>
<linearGradient id="paint45_linear_17493_59103" x1="127.11" y1="0" x2="127.11" y2="254.509" gradientUnits="userSpaceOnUse">
<stop stop-color="#00AF78"/>
<stop offset="1" stop-color="#00734F"/>
</linearGradient>
<linearGradient id="paint46_linear_17493_59103" x1="127.11" y1="0" x2="127.11" y2="254.509" gradientUnits="userSpaceOnUse">
<stop stop-color="#00AF78"/>
<stop offset="1" stop-color="#00734F"/>
</linearGradient>
<linearGradient id="paint47_linear_17493_59103" x1="127.11" y1="0" x2="127.11" y2="254.509" gradientUnits="userSpaceOnUse">
<stop stop-color="#00AF78"/>
<stop offset="1" stop-color="#00734F"/>
</linearGradient>
<linearGradient id="paint48_linear_17493_59103" x1="127.11" y1="0" x2="127.11" y2="254.509" gradientUnits="userSpaceOnUse">
<stop stop-color="#00AF78"/>
<stop offset="1" stop-color="#00734F"/>
</linearGradient>
<linearGradient id="paint49_linear_17493_59103" x1="127.11" y1="0" x2="127.11" y2="254.509" gradientUnits="userSpaceOnUse">
<stop stop-color="#00AF78"/>
<stop offset="1" stop-color="#00734F"/>
</linearGradient>
<linearGradient id="paint50_linear_17493_59103" x1="127.11" y1="0" x2="127.11" y2="254.509" gradientUnits="userSpaceOnUse">
<stop stop-color="#00AF78"/>
<stop offset="1" stop-color="#00734F"/>
</linearGradient>
<linearGradient id="paint51_linear_17493_59103" x1="127.11" y1="0" x2="127.11" y2="254.509" gradientUnits="userSpaceOnUse">
<stop stop-color="#00AF78"/>
<stop offset="1" stop-color="#00734F"/>
</linearGradient>
<linearGradient id="paint52_linear_17493_59103" x1="127.11" y1="0" x2="127.11" y2="254.509" gradientUnits="userSpaceOnUse">
<stop stop-color="#00AF78"/>
<stop offset="1" stop-color="#00734F"/>
</linearGradient>
<linearGradient id="paint53_linear_17493_59103" x1="127.11" y1="0" x2="127.11" y2="254.509" gradientUnits="userSpaceOnUse">
<stop stop-color="#00AF78"/>
<stop offset="1" stop-color="#00734F"/>
</linearGradient>
<linearGradient id="paint54_linear_17493_59103" x1="127.11" y1="0" x2="127.11" y2="254.509" gradientUnits="userSpaceOnUse">
<stop stop-color="#00AF78"/>
<stop offset="1" stop-color="#00734F"/>
</linearGradient>
<linearGradient id="paint55_linear_17493_59103" x1="127.11" y1="0" x2="127.11" y2="254.509" gradientUnits="userSpaceOnUse">
<stop stop-color="#00AF78"/>
<stop offset="1" stop-color="#00734F"/>
</linearGradient>
<linearGradient id="paint56_linear_17493_59103" x1="127.11" y1="0" x2="127.11" y2="254.509" gradientUnits="userSpaceOnUse">
<stop stop-color="#00AF78"/>
<stop offset="1" stop-color="#00734F"/>
</linearGradient>
<linearGradient id="paint57_linear_17493_59103" x1="127.11" y1="0" x2="127.11" y2="254.509" gradientUnits="userSpaceOnUse">
<stop stop-color="#00AF78"/>
<stop offset="1" stop-color="#00734F"/>
</linearGradient>
<linearGradient id="paint58_linear_17493_59103" x1="127.11" y1="0" x2="127.11" y2="254.509" gradientUnits="userSpaceOnUse">
<stop stop-color="#00AF78"/>
<stop offset="1" stop-color="#00734F"/>
</linearGradient>
<linearGradient id="paint59_linear_17493_59103" x1="127.11" y1="0" x2="127.11" y2="254.509" gradientUnits="userSpaceOnUse">
<stop stop-color="#00AF78"/>
<stop offset="1" stop-color="#00734F"/>
</linearGradient>
</defs>
</svg>
