<svg width="254" height="255" viewBox="0 0 254 255" fill="none" xmlns="http://www.w3.org/2000/svg">
<path d="M8 127C8 129.209 6.20914 131 4 131C1.79086 131 0 129.209 0 127C0 124.791 1.79086 123 4 123C6.20914 123 8 124.791 8 127Z" fill="url(#paint0_linear_17548_2840)"/>
<path d="M254 127C254 129.209 252.209 131 250 131C247.791 131 246 129.209 246 127C246 124.791 247.791 123 250 123C252.209 123 254 124.791 254 127Z" fill="url(#paint1_linear_17548_2840)"/>
<path d="M54.919 32.5968C54.9905 32.5382 55.0748 32.5152 55.172 32.5278L56.1478 32.6645C56.1524 33.2528 56.0224 33.813 55.7579 34.3449C55.4967 34.8742 55.0738 35.3785 54.4893 35.8579C53.9664 36.2867 53.4223 36.5836 52.8569 36.7486C52.2947 36.9109 51.7353 36.9541 51.1788 36.8782C50.6223 36.8023 50.0833 36.6087 49.562 36.2976C49.0439 35.9838 48.5704 35.5654 48.1416 35.0426C47.7075 34.5132 47.3984 33.9574 47.2142 33.3752C47.0273 32.7897 46.9625 32.2073 47.0198 31.6281C47.077 31.0488 47.2546 30.4904 47.5524 29.9528C47.8508 29.4093 48.268 28.9178 48.8038 28.4783C49.3267 28.0495 49.8522 27.7598 50.3804 27.6091C50.9092 27.4524 51.4264 27.3976 51.9321 27.4446L51.9931 28.4131C51.999 28.4733 51.9929 28.5354 51.9747 28.5992C51.9597 28.6604 51.9164 28.7203 51.845 28.7789C51.7703 28.8402 51.67 28.8735 51.5441 28.879C51.4182 28.8845 51.2673 28.9024 51.0912 28.9327C50.9151 28.9631 50.7105 29.0249 50.4775 29.1183C50.2477 29.209 49.9915 29.3702 49.7089 29.6019C49.3777 29.8735 49.1204 30.1823 48.937 30.5283C48.7541 30.8684 48.6499 31.2281 48.6244 31.6076C48.6021 31.9844 48.6606 32.3736 48.7999 32.7754C48.9399 33.1712 49.167 33.5607 49.4813 33.9439C49.8062 34.3401 50.1504 34.6472 50.5138 34.8652C50.8805 35.0805 51.2462 35.2151 51.6109 35.2691C51.9756 35.323 52.3345 35.3003 52.6875 35.2009C53.0379 35.0982 53.3624 34.9244 53.6612 34.6794C53.8398 34.5329 53.9926 34.3913 54.1195 34.2546C54.2497 34.1153 54.3575 33.9752 54.4431 33.8345C54.5318 33.691 54.6032 33.5429 54.6571 33.3901C54.7116 33.2313 54.7524 33.0593 54.7797 32.874C54.7882 32.8181 54.8037 32.7674 54.8261 32.7219C54.8458 32.6731 54.8768 32.6314 54.919 32.5968Z" fill="url(#paint2_linear_17548_2840)"/>
<path d="M56.518 25.9221C56.9118 25.6424 57.3129 25.4528 57.7213 25.3534C58.1332 25.2515 58.5348 25.2367 58.9262 25.309C59.3175 25.3814 59.694 25.5416 60.0556 25.7896C60.4172 26.0376 60.7452 26.3688 61.0394 26.7832C61.3361 27.2009 61.542 27.6214 61.657 28.0445C61.7721 28.4676 61.8005 28.8776 61.7423 29.2744C61.6841 29.6712 61.539 30.0472 61.3071 30.4025C61.0787 30.7554 60.7675 31.0716 60.3737 31.3513C59.9799 31.631 59.5771 31.8218 59.1652 31.9237C58.7534 32.0256 58.3488 32.0398 57.9516 31.9665C57.5578 31.8907 57.1784 31.73 56.8133 31.4844C56.4517 31.2364 56.1226 30.9035 55.8259 30.4857C55.5317 30.0714 55.327 29.6526 55.2119 29.2295C55.1003 28.804 55.0748 28.3945 55.1355 28.0011C55.1995 27.6053 55.3475 27.2298 55.5794 26.8745C55.8113 26.5192 56.1242 26.2017 56.518 25.9221ZM59.6806 30.3754C60.1189 30.0641 60.338 29.687 60.3377 29.2442C60.3409 28.7989 60.1406 28.2921 59.7369 27.7236C59.3332 27.1552 58.9194 26.7974 58.4956 26.6503C58.0751 26.5007 57.6457 26.5816 57.2074 26.8928C56.7622 27.209 56.5405 27.5931 56.5422 28.0452C56.5415 28.4939 56.7417 29.0008 57.143 29.5658C57.5443 30.1308 57.9568 30.4869 58.3807 30.634C58.8022 30.7777 59.2355 30.6915 59.6806 30.3754Z" fill="url(#paint3_linear_17548_2840)"/>
<path d="M64.586 28.3151L61.216 22.7993L62.0278 22.3034C62.1998 22.1983 62.362 22.2099 62.5143 22.3384L62.8717 22.718C62.9128 22.5354 62.9657 22.3603 63.0307 22.1927C63.0992 22.0228 63.1807 21.8623 63.2753 21.711C63.3735 21.5575 63.4905 21.4146 63.6263 21.2824C63.7621 21.1503 63.9231 21.0272 64.1095 20.9134C64.4106 20.7294 64.7093 20.6183 65.0058 20.5799C65.3001 20.5379 65.5812 20.563 65.8492 20.6552C66.1185 20.7417 66.3715 20.8898 66.608 21.0997C66.8459 21.3038 67.059 21.5599 67.2473 21.8682L69.3922 25.3787L68.0643 26.19L65.9194 22.6795C65.7136 22.3426 65.476 22.1309 65.2066 22.0445C64.9386 21.9523 64.6488 22.0014 64.3369 22.1919C64.1076 22.332 63.9243 22.5154 63.7871 22.742C63.6499 22.9685 63.5464 23.2262 63.4767 23.5148L65.9139 27.5038L64.586 28.3151Z" fill="url(#paint4_linear_17548_2840)"/>
<path d="M72.0512 18.0018C72.0459 18.0809 72.0297 18.1443 72.0029 18.192C71.974 18.236 71.9281 18.2748 71.8652 18.3085C71.7985 18.3442 71.7164 18.3643 71.6188 18.3689C71.5249 18.3714 71.4161 18.3773 71.2923 18.3863C71.1666 18.3917 71.029 18.4105 70.8796 18.4428C70.7338 18.4731 70.5739 18.5348 70.3999 18.6279C70.1295 18.7725 69.9473 18.9438 69.8531 19.1419C69.759 19.3399 69.7615 19.5315 69.8605 19.7166C69.9259 19.8388 70.0203 19.9217 70.1436 19.9653C70.2687 20.0032 70.4128 20.019 70.5761 20.0126C70.7431 20.0042 70.9238 19.9814 71.1182 19.9441C71.3106 19.9031 71.5097 19.8657 71.7155 19.8318C71.9212 19.798 72.1282 19.7754 72.3365 19.764C72.5428 19.7489 72.7424 19.766 72.9354 19.8151C73.1302 19.8586 73.31 19.941 73.4749 20.0624C73.6436 20.1818 73.7893 20.3563 73.9121 20.5859C74.0587 20.8599 74.1444 21.1404 74.1692 21.4272C74.1921 21.7103 74.1528 21.9885 74.0513 22.2619C73.9479 22.5315 73.7793 22.7908 73.5457 23.0396C73.3137 23.2828 73.0144 23.5024 72.6478 23.6985C72.4515 23.8035 72.249 23.888 72.0403 23.952C71.8373 24.0177 71.632 24.0657 71.4242 24.0958C71.2202 24.124 71.0213 24.1351 70.8276 24.1292C70.6376 24.1212 70.4603 24.097 70.2957 24.0564L70.3331 23.3649C70.3401 23.2801 70.3625 23.2062 70.4002 23.1432C70.438 23.0801 70.4994 23.0258 70.5846 22.9803C70.6698 22.9347 70.7623 22.9162 70.8621 22.9247C70.9656 22.9312 71.0822 22.9355 71.2119 22.9376C71.3417 22.9397 71.486 22.9291 71.6451 22.9059C71.8079 22.8808 71.993 22.8127 72.2004 22.7018C72.3633 22.6146 72.4923 22.5218 72.5873 22.4234C72.684 22.3193 72.7526 22.2159 72.793 22.1133C72.8371 22.0088 72.854 21.9068 72.8437 21.8075C72.8352 21.7025 72.8072 21.6056 72.7596 21.5167C72.6883 21.3834 72.5891 21.2959 72.4621 21.2543C72.3388 21.2108 72.1936 21.1932 72.0266 21.2015C71.8633 21.2079 71.6836 21.2326 71.4875 21.2755C71.2931 21.3128 71.0912 21.3494 70.8817 21.3852C70.6759 21.4191 70.4671 21.4427 70.2551 21.4561C70.0449 21.4637 69.8404 21.4421 69.6417 21.3912C69.4467 21.3383 69.2609 21.2448 69.0844 21.1106C68.9115 20.9745 68.7577 20.7805 68.623 20.5286C68.4982 20.2953 68.4256 20.0483 68.4053 19.7877C68.385 19.5271 68.4221 19.2715 68.5167 19.0208C68.6129 18.7645 68.7696 18.5187 68.9868 18.2835C69.2056 18.0426 69.491 17.8281 69.8428 17.6399C70.2353 17.4299 70.6274 17.3035 71.0189 17.2608C71.4105 17.2181 71.7701 17.2448 72.0978 17.341L72.0512 18.0018Z" fill="url(#paint5_linear_17548_2840)"/>
<path d="M74.9372 15.1621L76.6513 18.895C76.8161 19.2537 77.0261 19.4947 77.2813 19.6178C77.5386 19.7353 77.8333 19.7179 78.1654 19.5654C78.4097 19.4532 78.6142 19.2946 78.7788 19.0896C78.9417 18.8808 79.0748 18.6371 79.178 18.3586L77.2273 14.1105L78.6414 13.4611L81.3388 19.3353L80.4743 19.7322C80.2911 19.8164 80.1314 19.7857 79.9953 19.6402L79.6824 19.2154C79.6163 19.3937 79.5421 19.5641 79.4596 19.7267C79.3754 19.8856 79.2755 20.0354 79.16 20.1763C79.0465 20.3116 78.9126 20.4378 78.7584 20.5548C78.6097 20.6739 78.4381 20.7781 78.2434 20.8675C77.9228 21.0148 77.6139 21.0919 77.3167 21.0989C77.0216 21.1004 76.7445 21.0405 76.4855 20.9191C76.2264 20.7978 75.9907 20.6217 75.7785 20.3911C75.5683 20.1548 75.3879 19.8726 75.2372 19.5443L73.5231 15.8115L74.9372 15.1621Z" fill="url(#paint6_linear_17548_2840)"/>
<path d="M81.3988 9.19912L84.8838 17.8881L83.4395 18.4674L79.9545 9.77839L81.3988 9.19912Z" fill="url(#paint7_linear_17548_2840)"/>
<path d="M87.1297 10.0509C87.5148 9.91786 87.8894 9.85732 88.2534 9.86928C88.6215 9.87986 88.9637 9.96378 89.2802 10.121C89.5954 10.2743 89.8781 10.501 90.1284 10.8011C90.3774 11.0972 90.578 11.4656 90.7303 11.9063C90.7687 12.0174 90.7949 12.1128 90.8091 12.1923C90.8259 12.2665 90.8279 12.3302 90.8152 12.3835C90.8051 12.4314 90.7816 12.4729 90.7448 12.5078C90.7066 12.5388 90.6538 12.5659 90.5863 12.5892L86.8111 13.8937C87.0715 14.5058 87.3993 14.908 87.7946 15.1002C88.1899 15.2925 88.6296 15.305 89.114 15.1376C89.3521 15.0553 89.547 14.9569 89.6985 14.8423C89.8539 14.7264 89.9835 14.6127 90.0872 14.5014C90.1949 14.3886 90.2868 14.288 90.3629 14.1995C90.4429 14.1096 90.5286 14.0489 90.6199 14.0174C90.6794 13.9968 90.7351 13.9909 90.787 13.9996C90.8389 14.0083 90.8883 14.0291 90.9352 14.0617L91.549 14.4495C91.4521 14.6963 91.3251 14.9202 91.1679 15.1211C91.0093 15.3181 90.8326 15.4947 90.6377 15.6509C90.4455 15.8018 90.2397 15.9329 90.0204 16.0442C89.8051 16.1541 89.5903 16.2461 89.3759 16.3202C88.9512 16.467 88.5322 16.534 88.119 16.5212C87.7044 16.5045 87.3148 16.4058 86.9502 16.2252C86.5842 16.0406 86.2539 15.7726 85.9592 15.4212C85.6631 15.0658 85.4224 14.6201 85.2373 14.0842C85.0932 13.6674 85.0256 13.2531 85.0344 12.8412C85.0418 12.4254 85.1239 12.0393 85.2807 11.683C85.4401 11.3213 85.673 10.9986 85.9794 10.715C86.2898 10.43 86.6732 10.2087 87.1297 10.0509ZM87.5237 11.0946C87.0949 11.2427 86.8013 11.4797 86.6428 11.8055C86.4844 12.1314 86.4482 12.5282 86.5343 12.9962L89.2973 12.0415C89.2314 11.8509 89.1439 11.6812 89.0347 11.5323C88.9241 11.3794 88.7933 11.258 88.6422 11.168C88.4911 11.078 88.3218 11.0254 88.1344 11.0102C87.9456 10.991 87.742 11.0191 87.5237 11.0946Z" fill="url(#paint8_linear_17548_2840)"/>
<path d="M94.0667 14.659L92.3698 8.42193L93.2877 8.17219C93.4822 8.11926 93.6347 8.17572 93.7451 8.34155L93.9824 8.80583C94.0728 8.64197 94.1725 8.48861 94.2816 8.34575C94.3948 8.20179 94.5179 8.07035 94.651 7.95145C94.7881 7.83145 94.9403 7.72693 95.1076 7.63789C95.2748 7.54884 95.4639 7.47566 95.6746 7.41832C96.015 7.3257 96.3329 7.30232 96.6283 7.34818C96.9226 7.38999 97.1856 7.49255 97.4172 7.65588C97.6517 7.81405 97.8533 8.0269 98.0218 8.29444C98.1933 8.55682 98.3265 8.86228 98.4213 9.21081L99.5013 13.1804L97.9998 13.5889L96.9198 9.61933C96.8162 9.23837 96.6471 8.96881 96.4125 8.81064C96.1809 8.64731 95.8888 8.61361 95.5362 8.70954C95.2769 8.7801 95.0497 8.90503 94.8547 9.0843C94.6597 9.26358 94.4885 9.48209 94.341 9.73986L95.5682 14.2505L94.0667 14.659Z" fill="url(#paint9_linear_17548_2840)"/>
<path d="M104.969 6.04953C104.991 6.1565 104.992 6.26563 104.972 6.37694C104.956 6.48328 104.928 6.57692 104.889 6.65786L102.692 11.2387L105.814 10.5968L106.055 11.7692L101.162 12.7753L101.031 12.1397C101.017 12.0698 101.016 11.9841 101.03 11.8827C101.042 11.7772 101.075 11.6741 101.127 11.5733L103.34 6.94418L100.279 7.57347L100.039 6.40717L104.84 5.4201L104.969 6.04953Z" fill="url(#paint10_linear_17548_2840)"/>
<path d="M113.226 10.6521L112.534 10.7524C112.389 10.7735 112.272 10.7693 112.182 10.7398C112.093 10.7061 112.017 10.6258 111.957 10.4988L111.753 10.0635C111.612 10.2325 111.471 10.3846 111.329 10.5197C111.191 10.6501 111.044 10.7647 110.889 10.8636C110.734 10.9625 110.565 11.0443 110.383 11.1088C110.202 11.1733 109.997 11.2221 109.768 11.2553C109.498 11.2944 109.243 11.2953 109.005 11.2577C108.765 11.2161 108.552 11.1345 108.364 11.0132C108.181 10.8912 108.028 10.7287 107.905 10.5259C107.783 10.323 107.7 10.0781 107.659 9.79133C107.624 9.55025 107.652 9.30429 107.743 9.05344C107.837 8.79784 108.019 8.55513 108.287 8.3253C108.554 8.09132 108.924 7.87643 109.396 7.68064C109.869 7.48484 110.467 7.32591 111.192 7.20384L111.138 6.82975C111.076 6.40162 110.939 6.09898 110.726 5.92182C110.518 5.7399 110.241 5.67395 109.896 5.72396C109.646 5.76011 109.443 5.81933 109.285 5.90162C109.127 5.98392 108.991 6.07151 108.877 6.1644C108.767 6.25254 108.664 6.33323 108.569 6.40649C108.473 6.47974 108.363 6.52542 108.238 6.54349C108.135 6.55856 108.041 6.54449 107.959 6.5013C107.876 6.45811 107.806 6.40034 107.749 6.328L107.397 5.87611C108.035 5.0961 108.874 4.63078 109.913 4.48015C110.287 4.42592 110.628 4.44007 110.937 4.52259C111.25 4.60035 111.524 4.73461 111.76 4.92538C111.995 5.112 112.186 5.34949 112.334 5.63786C112.486 5.92562 112.588 6.25031 112.641 6.61193L113.226 10.6521ZM110.095 10.1258C110.253 10.1029 110.396 10.0672 110.525 10.0189C110.653 9.97048 110.772 9.90876 110.88 9.83369C110.992 9.75803 111.096 9.6708 111.192 9.572C111.292 9.46845 111.389 9.35034 111.484 9.21769L111.328 8.13906C110.882 8.22492 110.512 8.31894 110.217 8.42112C109.925 8.51853 109.694 8.62414 109.524 8.73794C109.354 8.85174 109.238 8.97256 109.176 9.10039C109.118 9.22762 109.099 9.35981 109.119 9.49698C109.158 9.76715 109.265 9.94899 109.44 10.0425C109.619 10.1354 109.837 10.1631 110.095 10.1258Z" fill="url(#paint11_linear_17548_2840)"/>
<path d="M123.306 2.41591C123.264 2.51046 123.213 2.57816 123.152 2.619C123.095 2.65963 123.024 2.682 122.94 2.68611C122.857 2.69022 122.761 2.66339 122.653 2.6056C122.545 2.54362 122.417 2.47627 122.271 2.40356C122.124 2.33084 121.953 2.26775 121.757 2.21428C121.565 2.15641 121.339 2.13384 121.079 2.14658C120.844 2.1581 120.639 2.19753 120.466 2.2649C120.297 2.32786 120.154 2.41266 120.037 2.5193C119.925 2.62573 119.842 2.7517 119.791 2.89721C119.739 3.03852 119.717 3.19307 119.725 3.36087C119.736 3.57482 119.803 3.75022 119.928 3.8871C120.056 4.02377 120.222 4.13761 120.424 4.22863C120.626 4.31965 120.855 4.39885 121.11 4.46622C121.366 4.53359 121.626 4.60705 121.89 4.68659C122.159 4.76174 122.422 4.85398 122.68 4.9633C122.937 5.06842 123.169 5.20844 123.375 5.38336C123.581 5.55409 123.75 5.76871 123.88 6.02724C124.015 6.28556 124.091 6.6035 124.11 6.98105C124.13 7.39215 124.077 7.78158 123.952 8.14934C123.831 8.51269 123.641 8.83529 123.382 9.11713C123.126 9.39456 122.807 9.62045 122.425 9.79478C122.042 9.96491 121.599 10.0623 121.095 10.087C120.806 10.1012 120.519 10.0858 120.235 10.0408C119.952 10 119.677 9.9336 119.412 9.84147C119.151 9.74913 118.903 9.6351 118.67 9.49938C118.44 9.36345 118.233 9.20961 118.048 9.03786L118.499 8.20208C118.542 8.14109 118.594 8.09018 118.655 8.04934C118.721 8.0041 118.793 7.97953 118.873 7.97562C118.978 7.97049 119.093 8.00898 119.219 8.09111C119.345 8.16905 119.492 8.25645 119.661 8.35331C119.834 8.44997 120.033 8.53689 120.26 8.61409C120.491 8.68689 120.763 8.71558 121.078 8.70017C121.56 8.67653 121.928 8.54497 122.181 8.30549C122.434 8.06182 122.55 7.72604 122.529 7.29815C122.518 7.05904 122.447 6.86696 122.318 6.7219C122.193 6.57663 122.03 6.45849 121.828 6.36748C121.625 6.27226 121.397 6.19517 121.142 6.13619C120.886 6.07721 120.627 6.01214 120.362 5.94098C120.098 5.86982 119.837 5.78168 119.58 5.67655C119.323 5.57142 119.091 5.4293 118.884 5.25019C118.678 5.07108 118.507 4.84397 118.371 4.56887C118.24 4.28937 118.164 3.94197 118.144 3.52667C118.128 3.19526 118.177 2.86907 118.291 2.54807C118.41 2.22687 118.589 1.93845 118.829 1.68281C119.073 1.42697 119.376 1.21658 119.738 1.05167C120.1 0.886758 120.518 0.792694 120.992 0.769467C121.529 0.743158 122.028 0.802801 122.489 0.948402C122.951 1.094 123.348 1.31001 123.682 1.59643L123.306 2.41591Z" fill="url(#paint12_linear_17548_2840)"/>
<path d="M128.583 9.92635C128.024 9.92117 127.595 9.7597 127.296 9.44191C126.996 9.11992 126.849 8.67963 126.854 8.12106L126.888 4.51131L126.233 4.50525C126.149 4.50447 126.076 4.47648 126.013 4.4213C125.955 4.36616 125.926 4.28399 125.927 4.17479L125.933 3.55742L126.974 3.39696L127.318 1.63607C127.335 1.55223 127.374 1.48749 127.433 1.44184C127.496 1.39622 127.574 1.37384 127.667 1.37469L128.473 1.38217L128.454 3.41698L130.155 3.43274L130.145 4.54149L128.444 4.52573L128.412 8.02838C128.41 8.22997 128.459 8.38794 128.558 8.50227C128.658 8.6166 128.792 8.67453 128.96 8.67609C129.057 8.67699 129.136 8.66722 129.2 8.64681C129.267 8.62223 129.324 8.59756 129.37 8.57279C129.421 8.54806 129.465 8.52537 129.503 8.50472C129.541 8.47987 129.579 8.46762 129.617 8.46797C129.663 8.4684 129.701 8.48135 129.73 8.50682C129.759 8.52809 129.791 8.56199 129.824 8.60849L130.283 9.36878C130.054 9.55567 129.793 9.69605 129.498 9.78992C129.203 9.88379 128.898 9.92927 128.583 9.92635Z" fill="url(#paint13_linear_17548_2840)"/>
<path d="M132.286 9.90666L132.674 3.45456L133.586 3.50946C133.745 3.51906 133.855 3.55509 133.914 3.61757C133.973 3.68005 134.009 3.7832 134.022 3.927L134.069 4.71247C134.324 4.32808 134.613 4.02993 134.937 3.81803C135.261 3.60613 135.616 3.51179 136.002 3.53501C136.32 3.5542 136.58 3.64347 136.781 3.80283L136.51 4.9541C136.493 5.02881 136.462 5.08166 136.418 5.11268C136.374 5.1395 136.317 5.15077 136.246 5.14648C136.183 5.14269 136.098 5.12284 135.99 5.08693C135.883 5.05102 135.739 5.02764 135.559 5.01678C135.236 4.99734 134.954 5.07082 134.713 5.23721C134.472 5.39941 134.261 5.6476 134.081 5.98178L133.839 10.0002L132.286 9.90666Z" fill="url(#paint14_linear_17548_2840)"/>
<path d="M143.089 10.865L142.394 10.785C142.248 10.7681 142.136 10.7341 142.057 10.6827C141.979 10.6272 141.927 10.5303 141.9 10.392L141.815 9.91925C141.636 10.0465 141.46 10.1574 141.289 10.2518C141.122 10.3425 140.95 10.4158 140.775 10.4717C140.599 10.5276 140.416 10.5635 140.223 10.5794C140.031 10.5953 139.821 10.5901 139.591 10.5637C139.32 10.5324 139.074 10.4681 138.852 10.3708C138.631 10.2692 138.446 10.1358 138.296 9.97059C138.15 9.80582 138.044 9.60966 137.977 9.38213C137.91 9.15459 137.893 8.89688 137.926 8.60898C137.954 8.36698 138.044 8.13635 138.196 7.91711C138.353 7.69418 138.59 7.50589 138.908 7.35225C139.227 7.19443 139.639 7.08128 140.146 7.01281C140.653 6.94433 141.272 6.94379 142.004 7.01118L142.047 6.63566C142.097 6.2059 142.042 5.87823 141.882 5.65264C141.726 5.42335 141.475 5.28877 141.129 5.24889C140.879 5.22006 140.667 5.22525 140.493 5.26444C140.319 5.30364 140.166 5.35358 140.032 5.41427C139.903 5.47127 139.783 5.52297 139.672 5.56937C139.561 5.61577 139.442 5.63177 139.317 5.61735C139.213 5.60534 139.126 5.56789 139.057 5.505C138.989 5.44211 138.936 5.36838 138.899 5.28382L138.674 4.75696C139.491 4.16607 140.42 3.93069 141.464 4.05081C141.839 4.09405 142.166 4.19507 142.443 4.35388C142.726 4.50899 142.956 4.70889 143.135 4.95358C143.315 5.19408 143.439 5.47264 143.508 5.78924C143.582 6.10632 143.598 6.44635 143.556 6.80935L143.089 10.865ZM140.196 9.55518C140.354 9.57344 140.502 9.57565 140.639 9.56182C140.776 9.54799 140.906 9.51859 141.029 9.47363C141.157 9.42915 141.28 9.37143 141.398 9.30047C141.521 9.22583 141.645 9.13657 141.771 9.03272L141.896 7.94998C141.443 7.91895 141.061 7.9151 140.75 7.93844C140.443 7.95809 140.193 8.00115 139.999 8.06763C139.805 8.13411 139.662 8.2212 139.569 8.3289C139.481 8.43708 139.429 8.56001 139.413 8.6977C139.382 8.96891 139.438 9.17206 139.584 9.30715C139.733 9.44271 139.937 9.52539 140.196 9.55518Z" fill="url(#paint15_linear_17548_2840)"/>
<path d="M146.858 11.5717C146.307 11.4777 145.91 11.2499 145.664 10.8885C145.42 10.5229 145.345 10.0648 145.439 9.51419L146.047 5.95585L145.401 5.8455C145.318 5.83136 145.251 5.79207 145.198 5.72764C145.149 5.66391 145.134 5.57823 145.152 5.47059L145.256 4.86201L146.309 4.86941L146.929 3.18578C146.96 3.10581 147.008 3.04801 147.074 3.01237C147.144 2.97744 147.224 2.96776 147.316 2.98332L148.11 3.11914L147.768 5.12497L149.444 5.41144L149.258 6.50441L147.581 6.21793L146.991 9.67069C146.957 9.86941 146.98 10.0332 147.061 10.1619C147.141 10.2907 147.264 10.3692 147.429 10.3975C147.525 10.4138 147.605 10.4168 147.671 10.4068C147.741 10.3932 147.801 10.3779 147.851 10.3609C147.905 10.3445 147.952 10.3292 147.993 10.3149C148.035 10.2964 148.074 10.2903 148.111 10.2967C148.157 10.3045 148.192 10.3233 148.217 10.3531C148.242 10.3787 148.267 10.4171 148.293 10.4683L148.625 11.292C148.37 11.4401 148.089 11.5371 147.783 11.5828C147.477 11.6285 147.168 11.6248 146.858 11.5717Z" fill="url(#paint16_linear_17548_2840)"/>
<path d="M154.438 6.28273C154.835 6.3732 155.185 6.51969 155.488 6.72219C155.795 6.92562 156.041 7.17769 156.227 7.47843C156.414 7.77507 156.534 8.11692 156.588 8.50398C156.643 8.88694 156.618 9.3057 156.515 9.76026C156.489 9.87492 156.461 9.96976 156.431 10.0448C156.406 10.1166 156.374 10.1718 156.335 10.2103C156.301 10.2457 156.259 10.2685 156.209 10.2787C156.161 10.2848 156.101 10.2799 156.032 10.2641L152.137 9.37708C152.035 10.0344 152.101 10.5491 152.335 10.9211C152.569 11.2932 152.936 11.5361 153.435 11.6499C153.681 11.7058 153.899 11.7252 154.088 11.708C154.281 11.6917 154.451 11.6636 154.598 11.6239C154.749 11.585 154.88 11.5481 154.991 11.5132C155.107 11.4792 155.212 11.4729 155.306 11.4944C155.367 11.5083 155.418 11.5328 155.457 11.5676C155.497 11.6024 155.528 11.6461 155.55 11.6986L155.866 12.3522C155.654 12.5105 155.428 12.6334 155.188 12.721C154.949 12.8045 154.706 12.8611 154.458 12.8907C154.215 12.9173 153.971 12.9198 153.726 12.8985C153.485 12.8781 153.254 12.8427 153.033 12.7924C152.595 12.6926 152.204 12.5281 151.86 12.299C151.516 12.0657 151.238 11.7761 151.024 11.4301C150.811 11.08 150.672 10.678 150.607 10.2239C150.543 9.76571 150.575 9.2602 150.7 8.70736C150.798 8.27737 150.96 7.88985 151.185 7.54481C151.411 7.19568 151.685 6.91126 152.006 6.69155C152.332 6.46868 152.701 6.31777 153.111 6.23884C153.525 6.16084 153.967 6.17547 154.438 6.28273ZM154.221 7.37698C153.779 7.27625 153.404 7.32235 153.098 7.51525C152.791 7.70816 152.551 8.02602 152.377 8.46882L155.227 9.11797C155.272 8.9214 155.287 8.73106 155.273 8.54694C155.26 8.35872 155.213 8.1865 155.132 8.03027C155.051 7.87404 154.935 7.73995 154.784 7.628C154.634 7.51195 154.446 7.42828 154.221 7.37698Z" fill="url(#paint17_linear_17548_2840)"/>
<path d="M161.899 8.20781C162.165 8.28606 162.406 8.38778 162.623 8.51295C162.842 8.6341 163.032 8.77551 163.195 8.93718L164.978 9.46182L164.814 10.0178C164.787 10.1105 164.741 10.1759 164.677 10.2141C164.614 10.2522 164.52 10.2642 164.398 10.25L163.811 10.1891C163.821 10.3057 163.818 10.4254 163.804 10.5482C163.794 10.6721 163.77 10.7986 163.732 10.9275C163.642 11.2337 163.498 11.4934 163.299 11.7064C163.106 11.9166 162.875 12.0763 162.607 12.1856C162.342 12.296 162.046 12.3557 161.72 12.3646C161.398 12.3708 161.064 12.3228 160.718 12.2209C160.484 12.1521 160.263 12.063 160.055 11.9534C159.827 12.0134 159.692 12.1159 159.649 12.2609C159.612 12.3858 159.641 12.4951 159.736 12.5887C159.837 12.6795 159.976 12.7643 160.154 12.843C160.336 12.9229 160.545 13.0018 160.78 13.0798C161.017 13.1538 161.257 13.2376 161.501 13.3313C161.745 13.425 161.978 13.5329 162.2 13.6553C162.424 13.7736 162.612 13.9144 162.766 14.0777C162.923 14.2422 163.03 14.4358 163.087 14.6583C163.15 14.8781 163.137 15.135 163.051 15.4291C162.97 15.7031 162.823 15.9489 162.611 16.1664C162.402 16.3852 162.139 16.5573 161.822 16.6829C161.508 16.8097 161.149 16.879 160.743 16.8908C160.335 16.9066 159.894 16.8445 159.418 16.7046C158.947 16.5659 158.552 16.3992 158.232 16.2046C157.912 16.014 157.659 15.8084 157.475 15.5877C157.293 15.3722 157.175 15.1491 157.12 14.9185C157.065 14.6879 157.069 14.4658 157.132 14.2523C157.218 13.9622 157.378 13.7445 157.613 13.5992C157.849 13.4539 158.141 13.3691 158.489 13.3448C158.361 13.2151 158.271 13.0661 158.22 12.8978C158.169 12.7295 158.177 12.5326 158.243 12.3069C158.27 12.2143 158.314 12.1243 158.375 12.0371C158.437 11.9459 158.514 11.8614 158.607 11.7836C158.704 11.7071 158.815 11.6413 158.941 11.5864C159.068 11.5274 159.21 11.4838 159.367 11.4556C159.103 11.1939 158.921 10.8953 158.823 10.5599C158.729 10.2257 158.737 9.86926 158.849 9.49052C158.939 9.1843 159.08 8.92609 159.274 8.71588C159.472 8.50282 159.705 8.34168 159.974 8.23244C160.248 8.12037 160.547 8.06187 160.873 8.05694C161.202 8.05319 161.544 8.10348 161.899 8.20781ZM161.598 15.2775C161.634 15.1566 161.627 15.0472 161.577 14.9493C161.527 14.8514 161.445 14.764 161.332 14.6869C161.22 14.6058 161.083 14.5303 160.919 14.4604C160.76 14.3916 160.587 14.3254 160.4 14.2616C160.218 14.1949 160.028 14.128 159.829 14.0606C159.635 13.9904 159.449 13.916 159.27 13.8373C159.074 13.8802 158.904 13.9506 158.762 14.0488C158.624 14.144 158.531 14.2742 158.482 14.4394C158.45 14.5482 158.447 14.6567 158.472 14.7647C158.5 14.878 158.562 14.9861 158.659 15.089C158.76 15.1931 158.899 15.2911 159.078 15.3831C159.256 15.4791 159.481 15.5674 159.755 15.6481C160.033 15.7299 160.28 15.7782 160.494 15.7932C160.708 15.8122 160.89 15.8024 161.041 15.7638C161.196 15.7304 161.318 15.6702 161.41 15.5832C161.5 15.5003 161.563 15.3984 161.598 15.2775ZM160.999 11.266C161.184 11.3205 161.353 11.3438 161.504 11.3357C161.656 11.3236 161.79 11.2863 161.904 11.2238C162.023 11.1624 162.123 11.0758 162.204 10.9639C162.289 10.8532 162.354 10.7234 162.398 10.5743C162.488 10.2681 162.466 9.99905 162.333 9.76723C162.205 9.53256 161.958 9.36128 161.591 9.25339C161.225 9.1455 160.922 9.15493 160.683 9.28171C160.45 9.40564 160.288 9.62071 160.198 9.92693C160.155 10.072 160.138 10.2135 160.145 10.3514C160.157 10.4906 160.193 10.6195 160.255 10.7383C160.321 10.8542 160.415 10.9585 160.537 11.0512C160.664 11.141 160.818 11.2126 160.999 11.266Z" fill="url(#paint18_linear_17548_2840)"/>
<path d="M168.105 10.3303L165.986 16.4369L164.516 15.9267L166.635 9.82014L168.105 10.3303ZM168.943 8.62711C168.899 8.75408 168.832 8.86417 168.742 8.95737C168.651 9.05057 168.548 9.12369 168.432 9.17672C168.32 9.23113 168.197 9.26416 168.064 9.27581C167.933 9.2835 167.801 9.26462 167.67 9.21918C167.543 9.17512 167.431 9.10932 167.332 9.02177C167.239 8.93164 167.165 8.83045 167.111 8.71821C167.056 8.60597 167.023 8.48535 167.01 8.35635C167.001 8.22873 167.018 8.10143 167.062 7.97445C167.108 7.84351 167.174 7.72877 167.262 7.63022C167.353 7.53306 167.455 7.45727 167.567 7.40286C167.679 7.34845 167.799 7.31671 167.927 7.30765C168.06 7.296 168.19 7.3122 168.317 7.35626C168.448 7.4017 168.562 7.47018 168.659 7.56169C168.758 7.64923 168.834 7.74912 168.889 7.86136C168.947 7.97498 168.982 8.09827 168.994 8.23124C169.005 8.36421 168.988 8.49617 168.943 8.62711Z" fill="url(#paint19_linear_17548_2840)"/>
<path d="M174.096 14.0862C174.032 14.1238 173.972 14.1497 173.916 14.1638C173.865 14.1795 173.8 14.1719 173.722 14.1408C173.648 14.1114 173.584 14.0612 173.531 13.9903C173.479 13.9156 173.416 13.8315 173.34 13.7381C173.266 13.6407 173.169 13.5434 173.049 13.4462C172.935 13.3466 172.778 13.2573 172.579 13.1781C172.326 13.0773 172.085 13.0357 171.856 13.0533C171.629 13.0671 171.417 13.1342 171.22 13.2548C171.027 13.3768 170.85 13.5484 170.69 13.7695C170.531 13.9866 170.391 14.2494 170.268 14.5577C170.141 14.8777 170.061 15.1759 170.028 15.452C169.999 15.7297 170.015 15.9801 170.075 16.203C170.137 16.422 170.242 16.6129 170.39 16.7755C170.539 16.9343 170.729 17.0595 170.959 17.151C171.19 17.2426 171.386 17.2889 171.548 17.2902C171.716 17.289 171.862 17.2747 171.986 17.2471C172.111 17.2156 172.22 17.1865 172.312 17.1598C172.409 17.1308 172.503 17.1341 172.593 17.1698C172.71 17.2163 172.78 17.2961 172.803 17.4091L173.009 18.1013C172.774 18.225 172.538 18.314 172.299 18.3683C172.062 18.4188 171.827 18.4427 171.593 18.4401C171.364 18.4351 171.136 18.4055 170.909 18.3514C170.682 18.2973 170.463 18.2284 170.253 18.1446C169.882 17.9972 169.56 17.7901 169.286 17.5231C169.014 17.2523 168.808 16.9353 168.668 16.5722C168.531 16.2106 168.467 15.8098 168.474 15.3699C168.487 14.9277 168.592 14.4607 168.787 13.9689C168.962 13.5279 169.187 13.1449 169.461 12.8198C169.74 12.4924 170.057 12.241 170.412 12.0656C170.768 11.8862 171.158 11.7906 171.583 11.7788C172.008 11.7669 172.457 11.8549 172.929 12.0426C173.378 12.221 173.741 12.4492 174.02 12.727C174.302 13.0064 174.524 13.3342 174.686 13.7106L174.096 14.0862Z" fill="url(#paint20_linear_17548_2840)"/>
<path d="M178.831 21.8416L178.198 21.5451C178.065 21.4828 177.969 21.4148 177.911 21.3412C177.855 21.2637 177.836 21.1552 177.855 21.0157L177.924 20.5404C177.714 20.6041 177.512 20.6534 177.319 20.6885C177.132 20.7215 176.947 20.7366 176.762 20.7339C176.578 20.7311 176.392 20.7068 176.205 20.6609C176.018 20.615 175.82 20.5431 175.611 20.4451C175.363 20.3294 175.15 20.1902 174.971 20.0276C174.794 19.8612 174.661 19.6758 174.571 19.4714C174.485 19.2689 174.446 19.0491 174.455 18.8121C174.464 18.5751 174.53 18.3254 174.653 18.0629C174.756 17.8423 174.915 17.6522 175.129 17.4926C175.348 17.331 175.633 17.2278 175.983 17.1831C176.335 17.1345 176.762 17.1583 177.264 17.2543C177.767 17.3503 178.354 17.5465 179.027 17.8429L179.187 17.5006C179.371 17.1088 179.422 16.7805 179.342 16.5158C179.268 16.249 179.073 16.0417 178.757 15.8939C178.529 15.7871 178.326 15.7247 178.149 15.7067C177.972 15.6887 177.81 15.6873 177.664 15.7023C177.523 15.7153 177.393 15.7262 177.273 15.7349C177.153 15.7437 177.036 15.7213 176.922 15.6679C176.827 15.6234 176.757 15.5604 176.711 15.4789C176.666 15.3974 176.639 15.3107 176.631 15.2188L176.585 14.6479C177.547 14.3469 178.504 14.4189 179.455 14.8641C179.797 15.0244 180.074 15.2239 180.287 15.4626C180.506 15.6994 180.661 15.9622 180.753 16.251C180.847 16.5361 180.876 16.8397 180.841 17.1619C180.81 17.4859 180.717 17.8134 180.562 18.1443L178.831 21.8416ZM176.504 19.6808C176.649 19.7485 176.788 19.7975 176.922 19.8278C177.056 19.8582 177.189 19.8717 177.321 19.8683C177.456 19.8667 177.591 19.851 177.725 19.8212C177.865 19.7894 178.012 19.7443 178.164 19.6859L178.626 18.6988C178.207 18.5255 177.845 18.4004 177.543 18.3237C177.246 18.2449 176.995 18.2063 176.79 18.2079C176.585 18.2094 176.422 18.2465 176.3 18.3192C176.181 18.3936 176.093 18.4936 176.034 18.6191C175.918 18.8664 175.908 19.0771 176.003 19.2513C176.101 19.4272 176.268 19.5704 176.504 19.6808Z" fill="url(#paint21_linear_17548_2840)"/>
<path d="M193.379 19.5455L192.691 20.7051L189.218 18.645L187.929 20.8178L190.665 22.4408L190 23.5625L187.263 21.9394L185.949 24.1556L189.422 26.2158L188.731 27.3808L183.79 24.4496L188.437 16.6144L193.379 19.5455Z" fill="url(#paint22_linear_17548_2840)"/>
<path d="M198.632 25.0636C198.542 25.1135 198.46 25.1361 198.386 25.1315C198.317 25.1292 198.247 25.1043 198.178 25.0566C198.109 25.0089 198.049 24.9293 197.998 24.8179C197.95 24.703 197.889 24.5721 197.817 24.4254C197.745 24.2786 197.647 24.1245 197.524 23.963C197.406 23.8004 197.24 23.6452 197.026 23.4974C196.832 23.3639 196.646 23.2713 196.468 23.2196C196.295 23.1668 196.13 23.1474 195.972 23.1612C195.818 23.1775 195.676 23.2277 195.547 23.3119C195.42 23.3927 195.309 23.5022 195.213 23.6405C195.092 23.8169 195.039 23.9972 195.055 24.1815C195.074 24.3682 195.136 24.5591 195.242 24.7541C195.347 24.9491 195.481 25.151 195.643 25.3597C195.805 25.5685 195.967 25.7848 196.129 26.0086C196.297 26.2314 196.45 26.4645 196.588 26.7078C196.729 26.9476 196.828 27.1996 196.886 27.4638C196.946 27.7246 196.949 27.9972 196.896 28.2818C196.846 28.5688 196.714 28.8679 196.499 29.1791C196.266 29.518 195.988 29.7956 195.665 30.012C195.348 30.2273 195.001 30.3681 194.624 30.4344C194.252 30.4997 193.862 30.4855 193.452 30.3918C193.045 30.2946 192.633 30.103 192.218 29.8169C191.98 29.6525 191.761 29.4662 191.563 29.258C191.362 29.0534 191.185 28.8339 191.03 28.5997C190.878 28.3678 190.751 28.127 190.648 27.8773C190.548 27.6299 190.477 27.3818 190.434 27.133L191.3 26.7428C191.371 26.7206 191.443 26.7118 191.517 26.7164C191.596 26.72 191.668 26.7444 191.734 26.7897C191.821 26.8493 191.889 26.95 191.939 27.0917C191.992 27.23 192.056 27.3889 192.131 27.5683C192.21 27.7501 192.316 27.9405 192.449 28.1394C192.588 28.3373 192.787 28.5256 193.046 28.7044C193.444 28.9785 193.816 29.0973 194.163 29.0607C194.512 29.0207 194.808 28.8244 195.051 28.4716C195.187 28.2745 195.248 28.0792 195.233 27.8855C195.222 27.6943 195.164 27.5012 195.059 27.3062C194.956 27.1077 194.821 26.9075 194.654 26.7057C194.487 26.5039 194.32 26.2945 194.153 26.0776C193.987 25.8606 193.833 25.6322 193.692 25.3924C193.551 25.1525 193.453 24.8988 193.398 24.6311C193.343 24.3635 193.345 24.0793 193.404 23.7785C193.47 23.4766 193.62 23.1544 193.856 22.8121C194.044 22.5389 194.282 22.3096 194.568 22.1241C194.857 21.9411 195.175 21.8208 195.52 21.7632C195.87 21.708 196.238 21.7248 196.626 21.8136C197.013 21.9023 197.403 22.0813 197.793 22.3507C198.236 22.6558 198.596 23.0063 198.875 23.402C199.153 23.7978 199.337 24.2107 199.429 24.6409L198.632 25.0636Z" fill="url(#paint23_linear_17548_2840)"/>
<path d="M200.723 34.457C201.021 34.6961 201.301 34.8775 201.562 35.0012C201.83 35.1242 202.102 35.2183 202.378 35.2836L203.414 33.9911L202.525 33.2776C202.44 33.2093 202.391 33.1325 202.379 33.0472C202.369 32.9586 202.392 32.8799 202.447 32.8111L203.046 32.0641L205.41 33.9601L203.104 36.8351C202.818 36.8216 202.538 36.7852 202.263 36.7258C201.993 36.6658 201.722 36.5776 201.449 36.4611C201.18 36.3473 200.907 36.204 200.631 36.0311C200.353 35.8615 200.068 35.6598 199.776 35.4259C199.258 35.0107 198.854 34.5383 198.563 34.0086C198.272 33.4789 198.096 32.926 198.036 32.35C197.975 31.7741 198.034 31.191 198.211 30.6009C198.391 30.0134 198.693 29.4559 199.116 28.9284C199.545 28.3944 200.024 27.9742 200.555 27.6679C201.086 27.3616 201.639 27.1754 202.215 27.1092C202.793 27.0456 203.381 27.108 203.979 27.2964C204.576 27.4847 205.158 27.8062 205.725 28.2608C206.305 28.726 206.736 29.2148 207.02 29.7275C207.309 30.2395 207.491 30.7513 207.565 31.263L206.701 31.5551C206.528 31.6159 206.38 31.5964 206.255 31.4965C206.176 31.4335 206.117 31.3429 206.077 31.2248C206.022 31.0784 205.964 30.9295 205.903 30.7779C205.845 30.6289 205.767 30.4776 205.669 30.324C205.575 30.173 205.456 30.0158 205.313 29.8522C205.172 29.6914 204.994 29.5242 204.778 29.3508C204.427 29.0696 204.062 28.8737 203.683 28.763C203.306 28.6549 202.93 28.6305 202.554 28.6897C202.178 28.749 201.813 28.8892 201.458 29.1104C201.103 29.3317 200.773 29.6324 200.468 30.0124C200.139 30.422 199.904 30.8333 199.761 31.2463C199.62 31.6561 199.566 32.0535 199.596 32.4386C199.626 32.8237 199.737 33.1895 199.927 33.536C200.12 33.8793 200.385 34.1863 200.723 34.457Z" fill="url(#paint24_linear_17548_2840)"/>
<path d="M51.9658 227.209C52.0378 227.267 52.0775 227.345 52.0851 227.442L52.1508 228.425C51.5757 228.55 51.0009 228.537 50.4261 228.387C49.8546 228.24 49.2745 227.929 48.6857 227.455C48.159 227.031 47.7572 226.559 47.4801 226.039C47.2063 225.522 47.0496 224.983 47.0101 224.423C46.9706 223.863 47.0499 223.295 47.2479 222.722C47.4491 222.15 47.7619 221.601 48.186 221.075C48.6154 220.541 49.0962 220.125 49.6285 219.826C50.1634 219.523 50.7203 219.341 51.299 219.278C51.8777 219.216 52.4607 219.276 53.0478 219.457C53.6408 219.638 54.2072 219.946 54.7469 220.381C55.2736 220.805 55.6647 221.26 55.9202 221.746C56.1817 222.232 56.3411 222.727 56.3985 223.232L55.4629 223.489C55.4051 223.507 55.3431 223.514 55.2769 223.509C55.2139 223.507 55.1465 223.477 55.0745 223.419C54.9993 223.358 54.9461 223.267 54.915 223.145C54.8839 223.023 54.8355 222.879 54.7698 222.713C54.7041 222.546 54.6017 222.359 54.4627 222.15C54.327 221.943 54.1168 221.726 53.8322 221.496C53.4986 221.228 53.1437 221.039 52.7675 220.93C52.3973 220.821 52.0238 220.792 51.6471 220.845C51.2737 220.9 50.9046 221.037 50.5399 221.255C50.181 221.473 49.8462 221.775 49.5353 222.161C49.2139 222.56 48.9837 222.96 48.8446 223.36C48.7089 223.763 48.6518 224.149 48.6736 224.517C48.6954 224.885 48.791 225.232 48.9605 225.557C49.1326 225.879 49.3691 226.161 49.67 226.403C49.85 226.548 50.0198 226.669 50.1795 226.765C50.3425 226.864 50.5017 226.941 50.6569 226.996C50.8155 227.053 50.9751 227.093 51.1357 227.115C51.3022 227.135 51.479 227.14 51.666 227.129C51.7224 227.126 51.7752 227.131 51.8243 227.143C51.8761 227.153 51.9233 227.174 51.9658 227.209Z" fill="url(#paint25_linear_17548_2840)"/>
<path d="M58.9355 226.818C59.3318 227.094 59.6457 227.407 59.8773 227.758C60.1124 228.111 60.262 228.484 60.3261 228.877C60.3902 229.27 60.3667 229.678 60.2554 230.103C60.1441 230.527 59.9432 230.947 59.6526 231.364C59.3596 231.785 59.0335 232.12 58.6741 232.372C58.3147 232.623 57.9384 232.788 57.5453 232.867C57.1522 232.947 56.7493 232.937 56.3365 232.839C55.9272 232.743 55.5244 232.557 55.1282 232.281C54.7319 232.005 54.4162 231.69 54.1812 231.337C53.9461 230.984 53.796 230.608 53.7309 230.209C53.6691 229.813 53.6922 229.401 53.8 228.975C53.9113 228.551 54.1134 228.128 54.4064 227.708C54.697 227.291 55.0219 226.957 55.3813 226.706C55.7441 226.457 56.1209 226.295 56.5116 226.219C56.9058 226.145 57.3093 226.158 57.722 226.256C58.1348 226.354 58.5393 226.541 58.9355 226.818ZM55.8126 231.299C56.2536 231.606 56.6825 231.685 57.0992 231.535C57.5194 231.388 57.9288 231.028 58.3274 230.456C58.726 229.884 58.923 229.374 58.9183 228.925C58.917 228.479 58.6958 228.102 58.2548 227.795C57.8068 227.482 57.3703 227.403 56.9454 227.558C56.5228 227.709 56.1134 228.068 55.7172 228.637C55.321 229.206 55.1252 229.714 55.1299 230.163C55.1371 230.608 55.3646 230.987 55.8126 231.299Z" fill="url(#paint26_linear_17548_2840)"/>
<path d="M59.9967 235.463L63.3176 229.917L64.1337 230.406C64.3067 230.51 64.3716 230.659 64.3286 230.853L64.1583 231.346C64.339 231.298 64.5187 231.263 64.6973 231.243C64.8796 231.225 65.0596 231.222 65.2376 231.236C65.4191 231.252 65.5999 231.289 65.78 231.348C65.9602 231.407 66.1439 231.492 66.3313 231.604C66.634 231.786 66.8711 231.999 67.0428 232.243C67.2166 232.485 67.3248 232.745 67.3676 233.025C67.4161 233.304 67.4023 233.597 67.3262 233.904C67.2558 234.209 67.1279 234.517 66.9423 234.827L64.8288 238.356L63.4937 237.557L65.6073 234.027C65.8101 233.689 65.8873 233.38 65.8388 233.101C65.7961 232.821 65.618 232.587 65.3045 232.399C65.0738 232.261 64.8264 232.184 64.562 232.168C64.2976 232.151 64.0214 232.179 63.7334 232.252L61.3317 236.262L59.9967 235.463Z" fill="url(#paint27_linear_17548_2840)"/>
<path d="M72.8304 236.74C72.7621 236.78 72.7006 236.803 72.646 236.807C72.5934 236.808 72.5355 236.792 72.4722 236.759C72.4052 236.724 72.3424 236.667 72.2838 236.589C72.2288 236.513 72.1628 236.426 72.0857 236.329C72.0106 236.228 71.9176 236.125 71.8069 236.02C71.6999 235.916 71.5589 235.819 71.384 235.727C71.1124 235.585 70.8682 235.53 70.6516 235.564C70.4349 235.598 70.2779 235.707 70.1805 235.893C70.1162 236.016 70.1007 236.141 70.134 236.267C70.173 236.392 70.2411 236.52 70.3382 236.652C70.4391 236.785 70.5596 236.921 70.6997 237.061C70.8418 237.197 70.9848 237.341 71.1285 237.492C71.2722 237.643 71.4073 237.801 71.5338 237.967C71.6623 238.129 71.7605 238.304 71.8284 238.491C71.902 238.677 71.935 238.872 71.9274 239.076C71.9235 239.283 71.8612 239.502 71.7404 239.732C71.5963 240.008 71.4126 240.236 71.1894 240.418C70.9682 240.596 70.716 240.72 70.4329 240.79C70.1518 240.856 69.8426 240.863 69.5055 240.809C69.174 240.754 68.824 240.63 68.4557 240.438C68.2585 240.334 68.0747 240.214 67.9044 240.078C67.7359 239.947 67.5808 239.804 67.439 239.649C67.301 239.496 67.1799 239.338 67.0759 239.175C66.9756 239.013 66.8959 238.853 66.8369 238.694L67.4297 238.336C67.5037 238.294 67.5774 238.271 67.6508 238.267C67.7241 238.262 67.8036 238.283 67.8892 238.328C67.9747 238.372 68.0421 238.438 68.0912 238.526C68.144 238.615 68.206 238.714 68.2773 238.822C68.3485 238.931 68.4384 239.044 68.5471 239.163C68.6594 239.283 68.8198 239.398 69.0282 239.507C69.1919 239.593 69.3411 239.647 69.476 239.67C69.6165 239.692 69.7405 239.69 69.848 239.666C69.9593 239.644 70.0531 239.6 70.1294 239.536C70.2114 239.47 70.2758 239.392 70.3226 239.303C70.3927 239.169 70.4092 239.038 70.3722 238.909C70.3389 238.783 70.2718 238.653 70.1709 238.519C70.0738 238.388 69.9523 238.253 69.8065 238.115C69.6663 237.976 69.5225 237.829 69.3751 237.676C69.2314 237.525 69.0944 237.366 68.9641 237.198C68.8396 237.028 68.7424 236.847 68.6728 236.654C68.6068 236.463 68.5797 236.257 68.5913 236.036C68.6067 235.816 68.6806 235.58 68.8131 235.327C68.9358 235.092 69.0992 234.893 69.3033 234.73C69.5073 234.567 69.7395 234.454 70 234.391C70.2661 234.326 70.5574 234.318 70.874 234.365C71.1963 234.41 71.5342 234.526 71.8877 234.711C72.2821 234.917 72.6071 235.17 72.8626 235.47C73.1181 235.77 73.2983 236.082 73.4031 236.407L72.8304 236.74Z" fill="url(#paint28_linear_17548_2840)"/>
<path d="M76.6956 237.218L75.0147 240.966C74.8532 241.326 74.8101 241.643 74.8855 241.916C74.9665 242.187 75.1737 242.397 75.5071 242.547C75.7523 242.657 76.0063 242.706 76.2691 242.695C76.5335 242.68 76.8045 242.62 77.082 242.514L78.9949 238.249L80.4148 238.886L77.7697 244.784L76.9017 244.394C76.7178 244.312 76.6357 244.172 76.6556 243.973L76.7693 243.458C76.5917 243.526 76.4145 243.582 76.2378 243.627C76.0628 243.668 75.8843 243.692 75.7021 243.698C75.5256 243.701 75.3425 243.684 75.1528 243.645C74.9653 243.611 74.7738 243.551 74.5784 243.463C74.2565 243.319 73.995 243.137 73.7941 242.918C73.5986 242.697 73.4613 242.449 73.3821 242.174C73.3028 241.899 73.2801 241.606 73.314 241.294C73.3534 240.98 73.4471 240.659 73.5949 240.329L75.2757 236.581L76.6956 237.218Z" fill="url(#paint29_linear_17548_2840)"/>
<path d="M85.1426 237.65L81.735 246.369L80.2856 245.803L83.6933 237.083L85.1426 237.65Z" fill="url(#paint30_linear_17548_2840)"/>
<path d="M88.6399 241.889C89.0262 242.019 89.3598 242.2 89.6409 242.431C89.926 242.664 90.1459 242.94 90.3007 243.257C90.4567 243.571 90.5423 243.923 90.5575 244.314C90.574 244.7 90.508 245.115 90.3597 245.557C90.3223 245.668 90.2849 245.76 90.2476 245.831C90.2155 245.9 90.1783 245.952 90.1357 245.986C90.0984 246.018 90.0546 246.037 90.0041 246.042C89.9549 246.043 89.8965 246.032 89.8288 246.01L86.0422 244.739C85.8748 245.383 85.8891 245.901 86.0848 246.295C86.2806 246.688 86.6214 246.967 87.1071 247.13C87.346 247.21 87.5604 247.251 87.7504 247.253C87.9443 247.256 88.1163 247.245 88.2664 247.22C88.4205 247.196 88.5547 247.173 88.669 247.149C88.7872 247.127 88.8922 247.131 88.9837 247.161C89.0435 247.182 89.0912 247.211 89.127 247.249C89.1628 247.288 89.1893 247.335 89.2064 247.389L89.456 248.071C89.2286 248.207 88.9914 248.307 88.7442 248.37C88.4984 248.43 88.2506 248.462 88.0009 248.466C87.7565 248.469 87.5135 248.447 87.2719 248.401C87.0342 248.357 86.8079 248.299 86.5929 248.226C86.1668 248.083 85.794 247.881 85.4745 247.618C85.1563 247.352 84.9079 247.036 84.7293 246.671C84.5521 246.301 84.454 245.887 84.435 245.429C84.4174 244.967 84.4988 244.467 84.6792 243.929C84.8195 243.511 85.0188 243.142 85.2771 242.821C85.5368 242.496 85.8375 242.24 86.1792 242.054C86.5262 241.864 86.9076 241.751 87.3234 241.713C87.7432 241.677 88.182 241.736 88.6399 241.889ZM88.315 242.956C87.885 242.812 87.5078 242.821 87.1834 242.982C86.859 243.143 86.5881 243.436 86.3707 243.859L89.142 244.789C89.2062 244.598 89.2404 244.41 89.2448 244.225C89.2505 244.037 89.221 243.861 89.1562 243.697C89.0915 243.534 88.9895 243.389 88.8503 243.262C88.7124 243.132 88.534 243.03 88.315 242.956Z" fill="url(#paint31_linear_17548_2840)"/>
<path d="M91.9367 249.839L93.5781 243.587L94.4983 243.829C94.6932 243.88 94.7972 244.005 94.8102 244.204L94.7842 244.724C94.9442 244.628 95.1072 244.544 95.273 244.475C95.4429 244.407 95.6152 244.354 95.7898 244.318C95.9685 244.282 96.1526 244.267 96.342 244.274C96.5314 244.28 96.7317 244.311 96.943 244.366C97.2842 244.456 97.5714 244.594 97.8045 244.781C98.0387 244.964 98.2154 245.185 98.3346 245.442C98.459 245.696 98.5274 245.981 98.54 246.297C98.5577 246.61 98.5207 246.941 98.429 247.29L97.3843 251.269L95.8792 250.874L96.9239 246.895C97.0241 246.513 97.0121 246.195 96.8877 245.941C96.7685 245.684 96.5322 245.509 96.1788 245.416C95.9188 245.348 95.6596 245.343 95.4012 245.401C95.1427 245.459 94.8853 245.563 94.6289 245.713L93.4418 250.234L91.9367 249.839Z" fill="url(#paint32_linear_17548_2840)"/>
<path d="M105.71 247.054C105.689 247.161 105.647 247.262 105.586 247.357C105.53 247.449 105.468 247.524 105.4 247.584L101.604 250.96L104.732 251.574L104.502 252.749L99.5993 251.786L99.7244 251.15C99.7381 251.08 99.7708 251 99.8224 250.912C99.8748 250.82 99.9445 250.737 100.032 250.664L103.861 247.249L100.795 246.647L101.024 245.479L105.834 246.423L105.71 247.054Z" fill="url(#paint33_linear_17548_2840)"/>
<path d="M112.204 253.889L111.511 253.795C111.366 253.775 111.254 253.739 111.176 253.686C111.099 253.629 111.049 253.531 111.026 253.392L110.95 252.918C110.768 253.041 110.59 253.149 110.417 253.24C110.248 253.327 110.076 253.397 109.899 253.449C109.722 253.501 109.538 253.533 109.345 253.545C109.153 253.557 108.942 253.548 108.714 253.517C108.443 253.48 108.198 253.411 107.979 253.309C107.76 253.203 107.577 253.066 107.431 252.897C107.288 252.73 107.186 252.531 107.124 252.302C107.062 252.074 107.05 251.816 107.089 251.528C107.122 251.287 107.217 251.058 107.373 250.842C107.534 250.622 107.775 250.439 108.096 250.292C108.418 250.141 108.833 250.036 109.341 249.978C109.849 249.92 110.468 249.932 111.199 250.014L111.25 249.64C111.308 249.211 111.259 248.882 111.104 248.653C110.953 248.421 110.705 248.281 110.36 248.234C110.11 248.2 109.898 248.201 109.723 248.237C109.549 248.273 109.394 248.319 109.259 248.377C109.129 248.432 109.008 248.481 108.896 248.525C108.784 248.569 108.666 248.583 108.541 248.566C108.437 248.552 108.351 248.512 108.283 248.448C108.216 248.384 108.164 248.309 108.129 248.224L107.916 247.692C108.744 247.118 109.678 246.902 110.719 247.043C111.093 247.094 111.418 247.202 111.692 247.366C111.971 247.527 112.198 247.732 112.372 247.98C112.546 248.224 112.665 248.505 112.727 248.823C112.794 249.142 112.803 249.482 112.754 249.844L112.204 253.889ZM109.338 252.521C109.497 252.542 109.644 252.547 109.781 252.536C109.918 252.525 110.049 252.499 110.174 252.456C110.302 252.414 110.426 252.359 110.546 252.291C110.67 252.219 110.796 252.132 110.925 252.031L111.071 250.951C110.619 250.91 110.237 250.899 109.925 250.916C109.618 250.929 109.367 250.967 109.172 251.029C108.977 251.092 108.832 251.176 108.737 251.282C108.647 251.388 108.592 251.51 108.573 251.647C108.537 251.918 108.589 252.122 108.732 252.26C108.878 252.399 109.08 252.486 109.338 252.521Z" fill="url(#paint34_linear_17548_2840)"/>
<path d="M123.805 247.216C123.755 247.307 123.698 247.37 123.634 247.405C123.573 247.44 123.501 247.456 123.417 247.453C123.333 247.449 123.24 247.414 123.138 247.347C123.036 247.276 122.915 247.197 122.775 247.112C122.636 247.026 122.471 246.948 122.28 246.878C122.094 246.803 121.871 246.76 121.611 246.75C121.376 246.74 121.169 246.762 120.99 246.813C120.816 246.861 120.666 246.933 120.54 247.029C120.419 247.125 120.326 247.243 120.261 247.383C120.197 247.519 120.161 247.671 120.155 247.839C120.146 248.053 120.198 248.234 120.309 248.381C120.425 248.529 120.58 248.657 120.773 248.765C120.966 248.874 121.187 248.973 121.436 249.063C121.685 249.153 121.937 249.249 122.194 249.352C122.454 249.451 122.708 249.566 122.955 249.698C123.202 249.825 123.421 249.986 123.611 250.178C123.801 250.366 123.949 250.595 124.056 250.864C124.167 251.134 124.215 251.457 124.2 251.835C124.183 252.246 124.097 252.629 123.939 252.984C123.787 253.336 123.569 253.64 123.285 253.898C123.006 254.151 122.668 254.348 122.271 254.487C121.875 254.623 121.425 254.681 120.922 254.66C120.632 254.649 120.348 254.608 120.069 254.538C119.79 254.472 119.522 254.381 119.266 254.266C119.015 254.151 118.778 254.015 118.558 253.859C118.341 253.704 118.148 253.532 117.979 253.344L118.503 252.552C118.551 252.495 118.608 252.449 118.672 252.414C118.741 252.375 118.816 252.357 118.895 252.36C119 252.364 119.112 252.413 119.23 252.506C119.348 252.594 119.487 252.695 119.647 252.806C119.81 252.918 120.002 253.022 120.22 253.119C120.444 253.212 120.713 253.265 121.027 253.277C121.51 253.297 121.888 253.199 122.162 252.982C122.435 252.762 122.581 252.438 122.598 252.01C122.607 251.771 122.554 251.573 122.439 251.417C122.327 251.262 122.175 251.129 121.982 251.021C121.789 250.908 121.568 250.811 121.319 250.729C121.07 250.648 120.817 250.56 120.56 250.466C120.303 250.371 120.051 250.26 119.804 250.133C119.557 250.005 119.339 249.843 119.149 249.646C118.959 249.449 118.809 249.208 118.699 248.922C118.593 248.632 118.548 248.279 118.565 247.864C118.578 247.532 118.656 247.212 118.799 246.902C118.946 246.593 119.15 246.321 119.412 246.088C119.677 245.855 119.998 245.672 120.373 245.54C120.748 245.408 121.173 245.352 121.647 245.371C122.184 245.392 122.676 245.496 123.123 245.682C123.569 245.868 123.946 246.118 124.253 246.433L123.805 247.216Z" fill="url(#paint35_linear_17548_2840)"/>
<path d="M128.946 254.76C128.387 254.77 127.954 254.621 127.646 254.311C127.338 253.997 127.179 253.561 127.169 253.003L127.103 249.394L126.448 249.405C126.364 249.407 126.29 249.381 126.226 249.328C126.166 249.274 126.135 249.193 126.133 249.084L126.122 248.466L127.159 248.277L127.454 246.508C127.469 246.423 127.506 246.358 127.564 246.31C127.626 246.263 127.703 246.238 127.796 246.237L128.602 246.222L128.639 248.257L130.34 248.226L130.36 249.334L128.659 249.365L128.723 252.868C128.726 253.069 128.779 253.226 128.882 253.337C128.985 253.449 129.121 253.503 129.289 253.5C129.385 253.498 129.465 253.486 129.527 253.464C129.594 253.438 129.65 253.412 129.696 253.385C129.746 253.359 129.79 253.335 129.827 253.314C129.864 253.288 129.902 253.275 129.94 253.274C129.986 253.273 130.024 253.285 130.054 253.31C130.084 253.33 130.116 253.363 130.15 253.409L130.63 254.156C130.407 254.349 130.149 254.497 129.857 254.599C129.564 254.701 129.261 254.754 128.946 254.76Z" fill="url(#paint36_linear_17548_2840)"/>
<path d="M133.102 254.526L132.657 248.077L133.568 248.014C133.727 248.003 133.84 248.025 133.907 248.079C133.974 248.133 134.023 248.231 134.054 248.372L134.202 249.145C134.405 248.731 134.653 248.398 134.947 248.146C135.242 247.894 135.581 247.755 135.967 247.728C136.285 247.706 136.554 247.761 136.774 247.894L136.653 249.07C136.646 249.147 136.622 249.203 136.583 249.239C136.543 249.271 136.487 249.29 136.416 249.295C136.353 249.299 136.266 249.291 136.155 249.269C136.044 249.247 135.899 249.242 135.719 249.255C135.396 249.277 135.126 249.386 134.908 249.582C134.689 249.774 134.513 250.048 134.377 250.402L134.655 254.418L133.102 254.526Z" fill="url(#paint37_linear_17548_2840)"/>
<path d="M144.384 253.425L143.69 253.511C143.544 253.529 143.427 253.522 143.339 253.491C143.25 253.455 143.176 253.374 143.118 253.245L142.924 252.806C142.779 252.972 142.635 253.121 142.49 253.253C142.35 253.381 142.2 253.493 142.043 253.588C141.886 253.684 141.715 253.762 141.533 253.823C141.35 253.884 141.144 253.929 140.914 253.957C140.643 253.991 140.389 253.986 140.151 253.944C139.912 253.897 139.701 253.811 139.516 253.686C139.335 253.561 139.186 253.395 139.067 253.19C138.948 252.984 138.871 252.738 138.835 252.45C138.805 252.209 138.838 251.963 138.935 251.714C139.034 251.461 139.22 251.222 139.493 250.997C139.765 250.769 140.139 250.562 140.616 250.376C141.092 250.189 141.694 250.043 142.421 249.935L142.375 249.56C142.321 249.131 142.19 248.826 141.981 248.644C141.776 248.458 141.501 248.386 141.155 248.429C140.905 248.46 140.7 248.516 140.541 248.595C140.381 248.674 140.243 248.758 140.128 248.849C140.016 248.935 139.911 249.013 139.814 249.085C139.717 249.156 139.606 249.199 139.481 249.215C139.377 249.228 139.284 249.212 139.202 249.167C139.121 249.122 139.052 249.063 138.996 248.99L138.653 248.531C139.307 247.764 140.155 247.316 141.197 247.186C141.572 247.14 141.914 247.161 142.221 247.25C142.532 247.334 142.803 247.474 143.035 247.669C143.266 247.86 143.453 248.102 143.595 248.393C143.741 248.684 143.836 249.011 143.881 249.373L144.384 253.425ZM141.264 252.834C141.422 252.815 141.566 252.782 141.696 252.736C141.826 252.691 141.945 252.631 142.055 252.558C142.168 252.485 142.274 252.4 142.372 252.303C142.474 252.202 142.574 252.086 142.672 251.955L142.538 250.873C142.09 250.95 141.718 251.036 141.421 251.133C141.127 251.224 140.894 251.325 140.722 251.435C140.549 251.546 140.431 251.664 140.366 251.79C140.305 251.916 140.284 252.048 140.301 252.186C140.335 252.457 140.438 252.641 140.611 252.738C140.788 252.834 141.005 252.866 141.264 252.834Z" fill="url(#paint38_linear_17548_2840)"/>
<path d="M148.669 252.808C148.119 252.907 147.668 252.828 147.314 252.572C146.96 252.311 146.734 251.906 146.635 251.356L145.995 247.804L145.35 247.92C145.268 247.935 145.19 247.921 145.119 247.878C145.051 247.835 145.008 247.759 144.988 247.652L144.879 247.044L145.872 246.693L145.882 244.899C145.883 244.813 145.909 244.742 145.959 244.686C146.013 244.63 146.085 244.593 146.176 244.577L146.97 244.434L147.33 246.437L149.004 246.135L149.201 247.227L147.527 247.528L148.147 250.975C148.183 251.174 148.26 251.32 148.38 251.414C148.499 251.507 148.641 251.539 148.807 251.51C148.902 251.492 148.978 251.468 149.037 251.436C149.098 251.399 149.15 251.365 149.191 251.332C149.236 251.298 149.275 251.267 149.309 251.24C149.341 251.208 149.376 251.189 149.413 251.183C149.459 251.174 149.498 251.18 149.532 251.2C149.564 251.215 149.601 251.243 149.643 251.282L150.235 251.944C150.046 252.17 149.815 252.357 149.542 252.504C149.27 252.651 148.979 252.752 148.669 252.808Z" fill="url(#paint39_linear_17548_2840)"/>
<path d="M153.713 244.956C154.109 244.862 154.488 244.839 154.849 244.887C155.214 244.935 155.546 245.052 155.846 245.24C156.144 245.424 156.403 245.678 156.622 246.001C156.84 246.321 157.003 246.708 157.11 247.161C157.137 247.276 157.154 247.373 157.16 247.454C157.17 247.529 157.165 247.593 157.147 247.644C157.132 247.691 157.105 247.73 157.065 247.761C157.024 247.788 156.969 247.81 156.899 247.826L153.013 248.748C153.211 249.383 153.497 249.816 153.871 250.047C154.245 250.277 154.681 250.333 155.18 250.215C155.425 250.157 155.629 250.079 155.791 249.98C155.957 249.88 156.097 249.78 156.212 249.679C156.33 249.578 156.432 249.487 156.516 249.406C156.605 249.325 156.696 249.273 156.79 249.251C156.851 249.236 156.907 249.236 156.958 249.25C157.009 249.264 157.056 249.289 157.099 249.326L157.671 249.773C157.55 250.009 157.402 250.219 157.225 250.404C157.048 250.584 156.854 250.742 156.645 250.878C156.439 251.009 156.221 251.119 155.991 251.208C155.766 251.296 155.543 251.366 155.323 251.418C154.885 251.522 154.462 251.547 154.052 251.493C153.641 251.435 153.263 251.298 152.919 251.082C152.573 250.862 152.271 250.562 152.013 250.183C151.753 249.8 151.558 249.332 151.428 248.781C151.326 248.351 151.3 247.932 151.35 247.524C151.398 247.111 151.519 246.735 151.71 246.396C151.905 246.052 152.169 245.754 152.502 245.502C152.839 245.25 153.243 245.068 153.713 244.956ZM154.001 246.034C153.559 246.138 153.244 246.345 153.053 246.653C152.863 246.962 152.788 247.353 152.827 247.827L155.671 247.153C155.624 246.957 155.554 246.779 155.46 246.62C155.366 246.457 155.248 246.323 155.106 246.218C154.965 246.114 154.802 246.045 154.617 246.011C154.431 245.973 154.225 245.981 154.001 246.034Z" fill="url(#paint40_linear_17548_2840)"/>
<path d="M160.9 243.008C161.166 242.927 161.423 242.88 161.674 242.865C161.923 242.846 162.159 242.86 162.384 242.906L164.162 242.365L164.331 242.92C164.359 243.012 164.357 243.092 164.324 243.159C164.292 243.226 164.221 243.287 164.11 243.343L163.587 243.614C163.659 243.706 163.722 243.807 163.778 243.918C163.837 244.027 163.887 244.146 163.926 244.274C164.019 244.58 164.041 244.876 163.992 245.163C163.946 245.445 163.841 245.705 163.676 245.944C163.516 246.181 163.301 246.393 163.033 246.58C162.768 246.762 162.463 246.905 162.117 247.01C161.884 247.081 161.65 247.128 161.416 247.151C161.258 247.326 161.201 247.486 161.245 247.631C161.283 247.755 161.368 247.831 161.499 247.857C161.632 247.878 161.795 247.872 161.987 247.84C162.183 247.807 162.401 247.758 162.641 247.694C162.879 247.626 163.126 247.564 163.381 247.508C163.636 247.453 163.891 247.415 164.144 247.395C164.395 247.371 164.63 247.386 164.848 247.438C165.07 247.489 165.266 247.592 165.436 247.747C165.608 247.896 165.739 248.117 165.828 248.411C165.911 248.684 165.924 248.97 165.865 249.269C165.811 249.566 165.686 249.854 165.489 250.134C165.297 250.411 165.035 250.667 164.702 250.9C164.37 251.137 163.967 251.327 163.493 251.471C163.022 251.614 162.601 251.692 162.227 251.705C161.854 251.721 161.53 251.688 161.255 251.605C160.985 251.525 160.763 251.403 160.591 251.24C160.419 251.078 160.3 250.89 160.235 250.677C160.148 250.388 160.162 250.118 160.279 249.867C160.396 249.616 160.593 249.385 160.871 249.173C160.693 249.135 160.536 249.06 160.401 248.947C160.266 248.835 160.164 248.666 160.096 248.441C160.068 248.349 160.055 248.249 160.058 248.143C160.06 248.033 160.078 247.92 160.113 247.804C160.152 247.687 160.209 247.571 160.284 247.456C160.357 247.337 160.452 247.222 160.568 247.112C160.203 247.039 159.887 246.889 159.621 246.663C159.359 246.435 159.17 246.132 159.055 245.755C158.963 245.449 158.939 245.156 158.985 244.874C159.034 244.587 159.141 244.324 159.305 244.085C159.473 243.841 159.691 243.628 159.96 243.445C160.233 243.261 160.547 243.115 160.9 243.008ZM164.531 249.082C164.494 248.961 164.428 248.874 164.333 248.819C164.237 248.765 164.121 248.736 163.984 248.734C163.846 248.728 163.69 248.74 163.515 248.771C163.344 248.801 163.163 248.841 162.972 248.891C162.783 248.935 162.587 248.983 162.384 249.036C162.183 249.084 161.987 249.124 161.795 249.156C161.654 249.3 161.551 249.452 161.486 249.612C161.423 249.767 161.417 249.927 161.467 250.092C161.5 250.2 161.556 250.293 161.637 250.37C161.722 250.449 161.834 250.505 161.971 250.538C162.112 250.57 162.283 250.575 162.483 250.554C162.684 250.536 162.921 250.486 163.194 250.403C163.472 250.319 163.704 250.224 163.891 250.119C164.08 250.018 164.227 249.909 164.333 249.794C164.443 249.681 164.513 249.563 164.541 249.441C164.571 249.322 164.568 249.202 164.531 249.082ZM161.828 246.058C162.012 246.002 162.166 245.929 162.288 245.839C162.409 245.745 162.5 245.641 162.561 245.525C162.627 245.409 162.663 245.282 162.669 245.144C162.679 245.004 162.662 244.86 162.617 244.712C162.524 244.406 162.358 244.193 162.12 244.073C161.884 243.947 161.583 243.939 161.217 244.051C160.852 244.162 160.604 244.336 160.474 244.573C160.347 244.805 160.33 245.073 160.423 245.379C160.467 245.523 160.53 245.651 160.612 245.762C160.698 245.872 160.799 245.96 160.916 246.026C161.035 246.086 161.171 246.121 161.323 246.132C161.479 246.138 161.647 246.113 161.828 246.058Z" fill="url(#paint41_linear_17548_2840)"/>
<path d="M166.976 241.106L169.149 247.193L167.683 247.717L165.51 241.629L166.976 241.106ZM166.562 239.253C166.607 239.38 166.624 239.508 166.612 239.637C166.6 239.766 166.565 239.888 166.508 240.002C166.454 240.115 166.38 240.217 166.283 240.31C166.185 240.398 166.071 240.465 165.941 240.512C165.814 240.557 165.685 240.577 165.553 240.57C165.424 240.558 165.303 240.526 165.191 240.472C165.078 240.419 164.976 240.346 164.885 240.253C164.798 240.16 164.732 240.049 164.687 239.923C164.64 239.792 164.62 239.661 164.627 239.53C164.637 239.396 164.669 239.274 164.723 239.161C164.776 239.048 164.85 238.948 164.943 238.861C165.04 238.769 165.151 238.7 165.278 238.655C165.408 238.608 165.54 238.59 165.673 238.601C165.805 238.607 165.927 238.637 166.04 238.691C166.156 238.743 166.261 238.817 166.353 238.913C166.446 239.01 166.515 239.123 166.562 239.253Z" fill="url(#paint42_linear_17548_2840)"/>
<path d="M173.802 239.891C173.782 239.963 173.757 240.024 173.726 240.072C173.7 240.119 173.648 240.158 173.57 240.19C173.497 240.22 173.416 240.228 173.328 240.214C173.239 240.196 173.135 240.18 173.016 240.165C172.895 240.146 172.757 240.143 172.604 240.156C172.453 240.163 172.278 240.207 172.079 240.288C171.827 240.391 171.624 240.528 171.472 240.699C171.317 240.866 171.211 241.062 171.153 241.285C171.098 241.507 171.089 241.753 171.127 242.024C171.163 242.29 171.244 242.577 171.369 242.884C171.499 243.203 171.648 243.473 171.816 243.695C171.987 243.916 172.172 244.085 172.37 244.204C172.567 244.319 172.775 244.384 172.994 244.399C173.212 244.41 173.435 244.368 173.665 244.275C173.894 244.181 174.068 244.079 174.186 243.967C174.306 243.85 174.401 243.739 174.471 243.633C174.54 243.523 174.598 243.427 174.646 243.344C174.696 243.256 174.766 243.193 174.855 243.157C174.972 243.109 175.078 243.118 175.172 243.184L175.801 243.54C175.717 243.792 175.609 244.02 175.474 244.224C175.338 244.425 175.185 244.605 175.015 244.765C174.846 244.92 174.662 245.057 174.46 245.175C174.259 245.293 174.054 245.395 173.844 245.481C173.474 245.632 173.098 245.706 172.716 245.703C172.332 245.696 171.964 245.61 171.611 245.446C171.262 245.28 170.938 245.035 170.639 244.713C170.342 244.385 170.093 243.976 169.893 243.486C169.714 243.047 169.611 242.615 169.583 242.191C169.557 241.761 169.612 241.36 169.746 240.988C169.878 240.612 170.093 240.273 170.391 239.969C170.69 239.666 171.074 239.419 171.545 239.227C171.992 239.045 172.412 238.957 172.805 238.965C173.202 238.971 173.59 239.053 173.967 239.212L173.802 239.891Z" fill="url(#paint43_linear_17548_2840)"/>
<path d="M182.807 241.316L182.177 241.618C182.044 241.682 181.931 241.713 181.837 241.711C181.741 241.706 181.645 241.652 181.549 241.548L181.226 241.194C181.141 241.397 181.052 241.584 180.957 241.755C180.864 241.921 180.758 242.074 180.639 242.215C180.52 242.356 180.384 242.484 180.23 242.6C180.076 242.715 179.894 242.823 179.686 242.923C179.44 243.041 179.197 243.118 178.958 243.153C178.717 243.185 178.489 243.17 178.274 243.11C178.063 243.049 177.868 242.939 177.691 242.782C177.513 242.625 177.361 242.416 177.236 242.155C177.131 241.935 177.084 241.692 177.096 241.425C177.11 241.153 177.211 240.867 177.398 240.568C177.584 240.265 177.873 239.95 178.265 239.622C178.658 239.294 179.182 238.964 179.838 238.631L179.674 238.29C179.487 237.9 179.266 237.652 179.011 237.546C178.757 237.435 178.473 237.455 178.159 237.605C177.931 237.714 177.755 237.831 177.629 237.957C177.502 238.083 177.399 238.207 177.318 238.329C177.239 238.446 177.165 238.554 177.095 238.652C177.026 238.751 176.935 238.827 176.821 238.882C176.726 238.927 176.633 238.941 176.541 238.925C176.45 238.908 176.366 238.874 176.29 238.822L175.819 238.496C176.195 237.561 176.857 236.867 177.804 236.413C178.145 236.25 178.475 236.161 178.795 236.148C179.116 236.129 179.418 236.175 179.7 236.287C179.98 236.395 180.233 236.565 180.46 236.796C180.691 237.025 180.886 237.305 181.044 237.634L182.807 241.316ZM179.661 241.748C179.805 241.679 179.931 241.602 180.04 241.517C180.148 241.433 180.243 241.339 180.323 241.235C180.408 241.129 180.481 241.015 180.543 240.892C180.607 240.763 180.665 240.621 180.717 240.466L180.246 239.483C179.846 239.698 179.52 239.899 179.269 240.084C179.02 240.264 178.831 240.434 178.703 240.593C178.574 240.752 178.499 240.902 178.478 241.043C178.461 241.182 178.482 241.313 178.542 241.438C178.66 241.685 178.816 241.826 179.011 241.863C179.209 241.899 179.426 241.86 179.661 241.748Z" fill="url(#paint44_linear_17548_2840)"/>
<path d="M188.713 227.478L189.411 228.631L185.956 230.722L187.264 232.884L189.986 231.236L190.661 232.352L187.939 233.999L189.274 236.204L192.728 234.113L193.43 235.272L188.514 238.246L183.797 230.453L188.713 227.478Z" fill="url(#paint45_linear_17548_2840)"/>
<path d="M195.296 224.968C195.311 225.07 195.304 225.155 195.274 225.222C195.248 225.287 195.2 225.343 195.132 225.392C195.063 225.44 194.968 225.469 194.845 225.477C194.721 225.483 194.577 225.494 194.415 225.511C194.252 225.527 194.073 225.566 193.879 225.625C193.686 225.679 193.483 225.78 193.269 225.93C193.077 226.065 192.925 226.208 192.815 226.357C192.705 226.501 192.63 226.649 192.588 226.801C192.55 226.952 192.548 227.102 192.582 227.253C192.613 227.4 192.677 227.542 192.774 227.68C192.897 227.855 193.048 227.967 193.226 228.016C193.408 228.063 193.608 228.071 193.828 228.04C194.047 228.009 194.283 227.954 194.535 227.874C194.787 227.795 195.046 227.718 195.313 227.644C195.58 227.564 195.851 227.501 196.128 227.456C196.401 227.407 196.672 227.402 196.94 227.44C197.205 227.474 197.462 227.566 197.711 227.715C197.962 227.861 198.197 228.089 198.414 228.398C198.651 228.735 198.814 229.092 198.905 229.47C198.997 229.842 199.008 230.216 198.94 230.593C198.872 230.964 198.723 231.325 198.492 231.677C198.26 232.025 197.937 232.344 197.525 232.634C197.288 232.801 197.037 232.941 196.773 233.054C196.511 233.171 196.244 233.262 195.97 233.326C195.7 233.387 195.43 233.423 195.16 233.433C194.894 233.441 194.636 233.421 194.388 233.375L194.323 232.427C194.327 232.353 194.344 232.282 194.374 232.215C194.404 232.142 194.453 232.082 194.518 232.036C194.604 231.976 194.722 231.947 194.872 231.949C195.02 231.948 195.191 231.943 195.386 231.935C195.584 231.924 195.799 231.891 196.032 231.835C196.266 231.773 196.511 231.652 196.769 231.471C197.164 231.193 197.405 230.886 197.491 230.548C197.575 230.207 197.494 229.861 197.247 229.51C197.11 229.315 196.948 229.19 196.761 229.136C196.578 229.08 196.377 229.067 196.157 229.098C195.935 229.126 195.701 229.183 195.454 229.269C195.206 229.356 194.952 229.439 194.691 229.52C194.429 229.601 194.162 229.666 193.888 229.715C193.614 229.763 193.342 229.767 193.072 229.726C192.802 229.685 192.536 229.584 192.275 229.424C192.014 229.258 191.764 229.005 191.525 228.664C191.335 228.393 191.202 228.091 191.128 227.758C191.056 227.423 191.054 227.084 191.12 226.739C191.19 226.393 191.334 226.053 191.551 225.72C191.769 225.388 192.073 225.085 192.461 224.812C192.901 224.503 193.355 224.287 193.822 224.164C194.29 224.04 194.741 224.011 195.176 224.075L195.296 224.968Z" fill="url(#paint46_linear_17548_2840)"/>
<path d="M204.813 225.428C205.109 225.187 205.344 224.951 205.52 224.721C205.696 224.485 205.844 224.238 205.966 223.982L204.918 222.699L204.035 223.42C203.95 223.489 203.865 223.521 203.779 223.515C203.69 223.506 203.618 223.468 203.562 223.399L202.956 222.658L205.303 220.741L207.635 223.595C207.562 223.871 207.468 224.138 207.352 224.395C207.238 224.646 207.095 224.893 206.924 225.135C206.757 225.375 206.56 225.612 206.333 225.846C206.109 226.083 205.852 226.32 205.563 226.556C205.049 226.976 204.503 227.273 203.924 227.448C203.345 227.622 202.768 227.679 202.192 227.618C201.616 227.557 201.058 227.378 200.518 227.082C199.981 226.783 199.498 226.371 199.071 225.848C198.638 225.317 198.327 224.761 198.138 224.178C197.949 223.594 197.882 223.014 197.937 222.438C197.995 221.859 198.179 221.297 198.488 220.752C198.796 220.207 199.232 219.705 199.795 219.245C200.37 218.775 200.939 218.454 201.499 218.284C202.06 218.108 202.598 218.037 203.114 218.071L203.22 218.977C203.244 219.158 203.193 219.3 203.07 219.401C202.992 219.464 202.891 219.503 202.767 219.518C202.612 219.541 202.455 219.567 202.294 219.595C202.136 219.621 201.972 219.666 201.801 219.729C201.634 219.79 201.455 219.874 201.265 219.98C201.079 220.083 200.878 220.223 200.663 220.398C200.315 220.682 200.048 220.999 199.86 221.347C199.676 221.693 199.574 222.055 199.554 222.435C199.533 222.815 199.594 223.202 199.737 223.596C199.879 223.989 200.104 224.374 200.412 224.752C200.745 225.158 201.098 225.475 201.472 225.7C201.843 225.923 202.221 226.059 202.604 226.11C202.987 226.161 203.367 226.129 203.746 226.015C204.122 225.897 204.478 225.702 204.813 225.428Z" fill="url(#paint47_linear_17548_2840)"/>
<defs>
<linearGradient id="paint0_linear_17548_2840" x1="127" y1="0.763428" x2="127" y2="254.761" gradientUnits="userSpaceOnUse">
<stop stop-color="#00AF78"/>
<stop offset="1" stop-color="#00734F"/>
</linearGradient>
<linearGradient id="paint1_linear_17548_2840" x1="127" y1="0.763428" x2="127" y2="254.761" gradientUnits="userSpaceOnUse">
<stop stop-color="#00AF78"/>
<stop offset="1" stop-color="#00734F"/>
</linearGradient>
<linearGradient id="paint2_linear_17548_2840" x1="127" y1="0.763428" x2="127" y2="254.761" gradientUnits="userSpaceOnUse">
<stop stop-color="#00AF78"/>
<stop offset="1" stop-color="#00734F"/>
</linearGradient>
<linearGradient id="paint3_linear_17548_2840" x1="127" y1="0.763428" x2="127" y2="254.761" gradientUnits="userSpaceOnUse">
<stop stop-color="#00AF78"/>
<stop offset="1" stop-color="#00734F"/>
</linearGradient>
<linearGradient id="paint4_linear_17548_2840" x1="127" y1="0.763428" x2="127" y2="254.761" gradientUnits="userSpaceOnUse">
<stop stop-color="#00AF78"/>
<stop offset="1" stop-color="#00734F"/>
</linearGradient>
<linearGradient id="paint5_linear_17548_2840" x1="127" y1="0.763428" x2="127" y2="254.761" gradientUnits="userSpaceOnUse">
<stop stop-color="#00AF78"/>
<stop offset="1" stop-color="#00734F"/>
</linearGradient>
<linearGradient id="paint6_linear_17548_2840" x1="127" y1="0.763428" x2="127" y2="254.761" gradientUnits="userSpaceOnUse">
<stop stop-color="#00AF78"/>
<stop offset="1" stop-color="#00734F"/>
</linearGradient>
<linearGradient id="paint7_linear_17548_2840" x1="127" y1="0.763428" x2="127" y2="254.761" gradientUnits="userSpaceOnUse">
<stop stop-color="#00AF78"/>
<stop offset="1" stop-color="#00734F"/>
</linearGradient>
<linearGradient id="paint8_linear_17548_2840" x1="127" y1="0.763428" x2="127" y2="254.761" gradientUnits="userSpaceOnUse">
<stop stop-color="#00AF78"/>
<stop offset="1" stop-color="#00734F"/>
</linearGradient>
<linearGradient id="paint9_linear_17548_2840" x1="127" y1="0.763428" x2="127" y2="254.761" gradientUnits="userSpaceOnUse">
<stop stop-color="#00AF78"/>
<stop offset="1" stop-color="#00734F"/>
</linearGradient>
<linearGradient id="paint10_linear_17548_2840" x1="127" y1="0.763428" x2="127" y2="254.761" gradientUnits="userSpaceOnUse">
<stop stop-color="#00AF78"/>
<stop offset="1" stop-color="#00734F"/>
</linearGradient>
<linearGradient id="paint11_linear_17548_2840" x1="127" y1="0.763428" x2="127" y2="254.761" gradientUnits="userSpaceOnUse">
<stop stop-color="#00AF78"/>
<stop offset="1" stop-color="#00734F"/>
</linearGradient>
<linearGradient id="paint12_linear_17548_2840" x1="127" y1="0.763428" x2="127" y2="254.761" gradientUnits="userSpaceOnUse">
<stop stop-color="#00AF78"/>
<stop offset="1" stop-color="#00734F"/>
</linearGradient>
<linearGradient id="paint13_linear_17548_2840" x1="127" y1="0.763428" x2="127" y2="254.761" gradientUnits="userSpaceOnUse">
<stop stop-color="#00AF78"/>
<stop offset="1" stop-color="#00734F"/>
</linearGradient>
<linearGradient id="paint14_linear_17548_2840" x1="127" y1="0.763428" x2="127" y2="254.761" gradientUnits="userSpaceOnUse">
<stop stop-color="#00AF78"/>
<stop offset="1" stop-color="#00734F"/>
</linearGradient>
<linearGradient id="paint15_linear_17548_2840" x1="127" y1="0.763428" x2="127" y2="254.761" gradientUnits="userSpaceOnUse">
<stop stop-color="#00AF78"/>
<stop offset="1" stop-color="#00734F"/>
</linearGradient>
<linearGradient id="paint16_linear_17548_2840" x1="127" y1="0.763428" x2="127" y2="254.761" gradientUnits="userSpaceOnUse">
<stop stop-color="#00AF78"/>
<stop offset="1" stop-color="#00734F"/>
</linearGradient>
<linearGradient id="paint17_linear_17548_2840" x1="127" y1="0.763428" x2="127" y2="254.761" gradientUnits="userSpaceOnUse">
<stop stop-color="#00AF78"/>
<stop offset="1" stop-color="#00734F"/>
</linearGradient>
<linearGradient id="paint18_linear_17548_2840" x1="127" y1="0.763428" x2="127" y2="254.761" gradientUnits="userSpaceOnUse">
<stop stop-color="#00AF78"/>
<stop offset="1" stop-color="#00734F"/>
</linearGradient>
<linearGradient id="paint19_linear_17548_2840" x1="127" y1="0.763428" x2="127" y2="254.761" gradientUnits="userSpaceOnUse">
<stop stop-color="#00AF78"/>
<stop offset="1" stop-color="#00734F"/>
</linearGradient>
<linearGradient id="paint20_linear_17548_2840" x1="127" y1="0.763428" x2="127" y2="254.761" gradientUnits="userSpaceOnUse">
<stop stop-color="#00AF78"/>
<stop offset="1" stop-color="#00734F"/>
</linearGradient>
<linearGradient id="paint21_linear_17548_2840" x1="127" y1="0.763428" x2="127" y2="254.761" gradientUnits="userSpaceOnUse">
<stop stop-color="#00AF78"/>
<stop offset="1" stop-color="#00734F"/>
</linearGradient>
<linearGradient id="paint22_linear_17548_2840" x1="127" y1="0.763428" x2="127" y2="254.761" gradientUnits="userSpaceOnUse">
<stop stop-color="#00AF78"/>
<stop offset="1" stop-color="#00734F"/>
</linearGradient>
<linearGradient id="paint23_linear_17548_2840" x1="127" y1="0.763428" x2="127" y2="254.761" gradientUnits="userSpaceOnUse">
<stop stop-color="#00AF78"/>
<stop offset="1" stop-color="#00734F"/>
</linearGradient>
<linearGradient id="paint24_linear_17548_2840" x1="127" y1="0.763428" x2="127" y2="254.761" gradientUnits="userSpaceOnUse">
<stop stop-color="#00AF78"/>
<stop offset="1" stop-color="#00734F"/>
</linearGradient>
<linearGradient id="paint25_linear_17548_2840" x1="127" y1="0.763428" x2="127" y2="254.761" gradientUnits="userSpaceOnUse">
<stop stop-color="#00AF78"/>
<stop offset="1" stop-color="#00734F"/>
</linearGradient>
<linearGradient id="paint26_linear_17548_2840" x1="127" y1="0.763428" x2="127" y2="254.761" gradientUnits="userSpaceOnUse">
<stop stop-color="#00AF78"/>
<stop offset="1" stop-color="#00734F"/>
</linearGradient>
<linearGradient id="paint27_linear_17548_2840" x1="127" y1="0.763428" x2="127" y2="254.761" gradientUnits="userSpaceOnUse">
<stop stop-color="#00AF78"/>
<stop offset="1" stop-color="#00734F"/>
</linearGradient>
<linearGradient id="paint28_linear_17548_2840" x1="127" y1="0.763428" x2="127" y2="254.761" gradientUnits="userSpaceOnUse">
<stop stop-color="#00AF78"/>
<stop offset="1" stop-color="#00734F"/>
</linearGradient>
<linearGradient id="paint29_linear_17548_2840" x1="127" y1="0.763428" x2="127" y2="254.761" gradientUnits="userSpaceOnUse">
<stop stop-color="#00AF78"/>
<stop offset="1" stop-color="#00734F"/>
</linearGradient>
<linearGradient id="paint30_linear_17548_2840" x1="127" y1="0.763428" x2="127" y2="254.761" gradientUnits="userSpaceOnUse">
<stop stop-color="#00AF78"/>
<stop offset="1" stop-color="#00734F"/>
</linearGradient>
<linearGradient id="paint31_linear_17548_2840" x1="127" y1="0.763428" x2="127" y2="254.761" gradientUnits="userSpaceOnUse">
<stop stop-color="#00AF78"/>
<stop offset="1" stop-color="#00734F"/>
</linearGradient>
<linearGradient id="paint32_linear_17548_2840" x1="127" y1="0.763428" x2="127" y2="254.761" gradientUnits="userSpaceOnUse">
<stop stop-color="#00AF78"/>
<stop offset="1" stop-color="#00734F"/>
</linearGradient>
<linearGradient id="paint33_linear_17548_2840" x1="127" y1="0.763428" x2="127" y2="254.761" gradientUnits="userSpaceOnUse">
<stop stop-color="#00AF78"/>
<stop offset="1" stop-color="#00734F"/>
</linearGradient>
<linearGradient id="paint34_linear_17548_2840" x1="127" y1="0.763428" x2="127" y2="254.761" gradientUnits="userSpaceOnUse">
<stop stop-color="#00AF78"/>
<stop offset="1" stop-color="#00734F"/>
</linearGradient>
<linearGradient id="paint35_linear_17548_2840" x1="127" y1="0.763428" x2="127" y2="254.761" gradientUnits="userSpaceOnUse">
<stop stop-color="#00AF78"/>
<stop offset="1" stop-color="#00734F"/>
</linearGradient>
<linearGradient id="paint36_linear_17548_2840" x1="127" y1="0.763428" x2="127" y2="254.761" gradientUnits="userSpaceOnUse">
<stop stop-color="#00AF78"/>
<stop offset="1" stop-color="#00734F"/>
</linearGradient>
<linearGradient id="paint37_linear_17548_2840" x1="127" y1="0.763428" x2="127" y2="254.761" gradientUnits="userSpaceOnUse">
<stop stop-color="#00AF78"/>
<stop offset="1" stop-color="#00734F"/>
</linearGradient>
<linearGradient id="paint38_linear_17548_2840" x1="127" y1="0.763428" x2="127" y2="254.761" gradientUnits="userSpaceOnUse">
<stop stop-color="#00AF78"/>
<stop offset="1" stop-color="#00734F"/>
</linearGradient>
<linearGradient id="paint39_linear_17548_2840" x1="127" y1="0.763428" x2="127" y2="254.761" gradientUnits="userSpaceOnUse">
<stop stop-color="#00AF78"/>
<stop offset="1" stop-color="#00734F"/>
</linearGradient>
<linearGradient id="paint40_linear_17548_2840" x1="127" y1="0.763428" x2="127" y2="254.761" gradientUnits="userSpaceOnUse">
<stop stop-color="#00AF78"/>
<stop offset="1" stop-color="#00734F"/>
</linearGradient>
<linearGradient id="paint41_linear_17548_2840" x1="127" y1="0.763428" x2="127" y2="254.761" gradientUnits="userSpaceOnUse">
<stop stop-color="#00AF78"/>
<stop offset="1" stop-color="#00734F"/>
</linearGradient>
<linearGradient id="paint42_linear_17548_2840" x1="127" y1="0.763428" x2="127" y2="254.761" gradientUnits="userSpaceOnUse">
<stop stop-color="#00AF78"/>
<stop offset="1" stop-color="#00734F"/>
</linearGradient>
<linearGradient id="paint43_linear_17548_2840" x1="127" y1="0.763428" x2="127" y2="254.761" gradientUnits="userSpaceOnUse">
<stop stop-color="#00AF78"/>
<stop offset="1" stop-color="#00734F"/>
</linearGradient>
<linearGradient id="paint44_linear_17548_2840" x1="127" y1="0.763428" x2="127" y2="254.761" gradientUnits="userSpaceOnUse">
<stop stop-color="#00AF78"/>
<stop offset="1" stop-color="#00734F"/>
</linearGradient>
<linearGradient id="paint45_linear_17548_2840" x1="127" y1="0.763428" x2="127" y2="254.761" gradientUnits="userSpaceOnUse">
<stop stop-color="#00AF78"/>
<stop offset="1" stop-color="#00734F"/>
</linearGradient>
<linearGradient id="paint46_linear_17548_2840" x1="127" y1="0.763428" x2="127" y2="254.761" gradientUnits="userSpaceOnUse">
<stop stop-color="#00AF78"/>
<stop offset="1" stop-color="#00734F"/>
</linearGradient>
<linearGradient id="paint47_linear_17548_2840" x1="127" y1="0.763428" x2="127" y2="254.761" gradientUnits="userSpaceOnUse">
<stop stop-color="#00AF78"/>
<stop offset="1" stop-color="#00734F"/>
</linearGradient>
</defs>
</svg>
