<svg width="273" height="273" viewBox="0 0 273 273" fill="none" xmlns="http://www.w3.org/2000/svg">
<path fill-rule="evenodd" clip-rule="evenodd" d="M158.008 0.999967C151.971 5.57406 144.446 8.28784 136.288 8.28784C128.13 8.28784 120.606 5.57406 114.568 0.999967C56.3008 10.2813 10.2816 56.3005 1.00022 114.568C5.57429 120.605 8.28809 128.13 8.28809 136.288C8.28809 144.446 5.57429 151.971 1.00022 158.008C10.2816 216.275 56.3008 262.294 114.568 271.576C120.605 267.002 128.13 264.288 136.288 264.288C144.446 264.288 151.971 267.002 158.008 271.576C216.275 262.294 262.295 216.275 271.576 158.008C267.002 151.971 264.288 144.446 264.288 136.288C264.288 128.13 267.002 120.605 271.576 114.568C262.295 56.3005 216.275 10.2813 158.008 0.999967ZM136.288 245.888C75.7577 245.888 26.6881 196.818 26.6881 136.288C26.6881 75.7574 75.7577 26.6878 136.288 26.6878C196.818 26.6878 245.888 75.7574 245.888 136.288C245.888 196.818 196.818 245.888 136.288 245.888Z" fill="url(#paint0_linear_16704_173518)"/>
<path d="M17 136C17 138.209 15.2091 140 13 140C10.7909 140 9 138.209 9 136C9 133.791 10.7909 132 13 132C15.2091 132 17 133.791 17 136Z" fill="white"/>
<path d="M263 136C263 138.209 261.209 140 259 140C256.791 140 255 138.209 255 136C255 133.791 256.791 132 259 132C261.209 132 263 133.791 263 136Z" fill="white"/>
<path d="M63.919 41.5965C63.9905 41.5379 64.0748 41.5149 64.172 41.5275L65.1478 41.6642C65.1524 42.2526 65.0224 42.8127 64.7579 43.3447C64.4967 43.8739 64.0738 44.3783 63.4893 44.8577C62.9664 45.2865 62.4223 45.5834 61.8569 45.7483C61.2947 45.9106 60.7353 45.9538 60.1788 45.8779C59.6223 45.802 59.0833 45.6085 58.562 45.2973C58.0439 44.9835 57.5704 44.5652 57.1416 44.0423C56.7075 43.513 56.3984 42.9572 56.2142 42.3749C56.0273 41.7895 55.9625 41.2071 56.0198 40.6278C56.077 40.0485 56.2546 39.4901 56.5524 38.9525C56.8508 38.409 57.268 37.9176 57.8038 37.4781C58.3267 37.0493 58.8522 36.7595 59.3804 36.6088C59.9092 36.4522 60.4264 36.3973 60.9321 36.4443L60.9931 37.4128C60.999 37.4731 60.9929 37.5351 60.9747 37.599C60.9597 37.6602 60.9164 37.7201 60.845 37.7787C60.7703 37.8399 60.67 37.8733 60.5441 37.8788C60.4182 37.8842 60.2673 37.9021 60.0912 37.9325C59.9151 37.9628 59.7105 38.0247 59.4775 38.118C59.2477 38.2087 58.9915 38.3699 58.7089 38.6016C58.3777 38.8733 58.1204 39.1821 57.937 39.5281C57.7541 39.8681 57.6499 40.2279 57.6244 40.6073C57.6021 40.9841 57.6606 41.3734 57.7999 41.7751C57.9399 42.171 58.167 42.5605 58.4813 42.9437C58.8062 43.3399 59.1504 43.647 59.5138 43.8649C59.8805 44.0802 60.2462 44.2149 60.6109 44.2688C60.9756 44.3228 61.3345 44.3 61.6875 44.2006C62.0379 44.098 62.3624 43.9241 62.6612 43.6791C62.8398 43.5326 62.9926 43.391 63.1195 43.2544C63.2497 43.115 63.3575 42.975 63.4431 42.8342C63.5318 42.6908 63.6032 42.5427 63.6571 42.3898C63.7116 42.2311 63.7524 42.059 63.7797 41.8737C63.7882 41.8179 63.8037 41.7672 63.8261 41.7216C63.8458 41.6728 63.8768 41.6311 63.919 41.5965Z" fill="white"/>
<path d="M65.518 34.9218C65.9118 34.6422 66.3129 34.4526 66.7213 34.3531C67.1332 34.2512 67.5348 34.2364 67.9262 34.3088C68.3175 34.3811 68.694 34.5413 69.0556 34.7894C69.4172 35.0374 69.7452 35.3686 70.0394 35.7829C70.3361 36.2007 70.542 36.6211 70.657 37.0443C70.7721 37.4674 70.8005 37.8774 70.7423 38.2741C70.6841 38.6709 70.539 39.047 70.3071 39.4023C70.0787 39.7551 69.7675 40.0714 69.3737 40.3511C68.9799 40.6307 68.5771 40.8215 68.1652 40.9234C67.7534 41.0253 67.3488 41.0396 66.9516 40.9662C66.5578 40.8905 66.1784 40.7298 65.8133 40.4842C65.4517 40.2361 65.1226 39.9032 64.8259 39.4855C64.5317 39.0711 64.327 38.6524 64.2119 38.2293C64.1003 37.8037 64.0748 37.3943 64.1355 37.0009C64.1995 36.6051 64.3475 36.2296 64.5794 35.8743C64.8113 35.519 65.1242 35.2015 65.518 34.9218ZM68.6806 39.3751C69.1189 39.0639 69.338 38.6868 69.3377 38.244C69.3409 37.7987 69.1406 37.2918 68.7369 36.7234C68.3332 36.155 67.9194 35.7972 67.4956 35.65C67.0751 35.5005 66.6457 35.5813 66.2074 35.8926C65.7622 36.2087 65.5405 36.5929 65.5422 37.045C65.5415 37.4937 65.7417 38.0005 66.143 38.5656C66.5443 39.1306 66.9568 39.4866 67.3807 39.6338C67.8022 39.7775 68.2355 39.6913 68.6806 39.3751Z" fill="white"/>
<path d="M73.586 37.3149L70.216 31.7991L71.0278 31.3031C71.1998 31.198 71.362 31.2097 71.5143 31.3381L71.8717 31.7177C71.9128 31.5352 71.9657 31.3601 72.0307 31.1924C72.0992 31.0226 72.1807 30.862 72.2753 30.7107C72.3735 30.5572 72.4905 30.4144 72.6263 30.2822C72.7621 30.15 72.9231 30.027 73.1095 29.9131C73.4106 29.7292 73.7093 29.618 74.0058 29.5796C74.3001 29.5376 74.5812 29.5628 74.8492 29.655C75.1185 29.7414 75.3715 29.8896 75.608 30.0994C75.8459 30.3035 76.059 30.5597 76.2473 30.8679L78.3922 34.3785L77.0643 35.1897L74.9194 31.6792C74.7136 31.3423 74.476 31.1307 74.2066 31.0442C73.9386 30.952 73.6488 31.0012 73.3369 31.1917C73.1076 31.3318 72.9243 31.5152 72.7871 31.7417C72.6499 31.9683 72.5464 32.2259 72.4767 32.5146L74.9139 36.5036L73.586 37.3149Z" fill="white"/>
<path d="M81.0512 27.0016C81.0459 27.0806 81.0297 27.144 81.0029 27.1917C80.974 27.2358 80.9281 27.2746 80.8652 27.3083C80.7985 27.3439 80.7164 27.3641 80.6188 27.3686C80.5249 27.3712 80.4161 27.377 80.2923 27.3861C80.1666 27.3914 80.029 27.4102 79.8796 27.4425C79.7338 27.4729 79.5739 27.5346 79.3999 27.6277C79.1295 27.7723 78.9473 27.9436 78.8531 28.1416C78.759 28.3396 78.7615 28.5312 78.8605 28.7164C78.9259 28.8386 79.0203 28.9215 79.1436 28.9651C79.2687 29.003 79.4128 29.0187 79.5761 29.0123C79.7431 29.004 79.9238 28.9812 80.1182 28.9439C80.3106 28.9029 80.5097 28.8654 80.7155 28.8316C80.9212 28.7977 81.1282 28.7751 81.3365 28.7637C81.5428 28.7487 81.7424 28.7657 81.9354 28.8149C82.1302 28.8584 82.31 28.9408 82.4749 29.0621C82.6436 29.1815 82.7893 29.356 82.9121 29.5856C83.0587 29.8597 83.1444 30.1401 83.1692 30.4269C83.1921 30.71 83.1528 30.9883 83.0513 31.2616C82.9479 31.5313 82.7793 31.7905 82.5457 32.0394C82.3137 32.2825 82.0144 32.5021 81.6478 32.6983C81.4515 32.8033 81.249 32.8878 81.0403 32.9518C80.8373 33.0175 80.632 33.0654 80.4242 33.0956C80.2202 33.1237 80.0213 33.1348 79.8276 33.1289C79.6376 33.121 79.4603 33.0967 79.2957 33.0562L79.3331 32.3646C79.3401 32.2799 79.3625 32.206 79.4002 32.1429C79.438 32.0799 79.4994 32.0256 79.5846 31.98C79.6698 31.9344 79.7623 31.9159 79.8621 31.9244C79.9656 31.931 80.0822 31.9353 80.2119 31.9374C80.3417 31.9394 80.486 31.9289 80.6451 31.9057C80.8079 31.8805 80.993 31.8125 81.2004 31.7016C81.3633 31.6144 81.4923 31.5216 81.5873 31.4231C81.684 31.319 81.7526 31.2157 81.793 31.1131C81.8371 31.0085 81.854 30.9066 81.8437 30.8073C81.8352 30.7023 81.8072 30.6054 81.7596 30.5165C81.6883 30.3832 81.5891 30.2957 81.4621 30.2541C81.3388 30.2105 81.1936 30.1929 81.0266 30.2013C80.8633 30.2076 80.6836 30.2323 80.4875 30.2753C80.2931 30.3126 80.0912 30.3492 79.8817 30.385C79.6759 30.4189 79.4671 30.4425 79.2551 30.4558C79.0449 30.4635 78.8404 30.4419 78.6417 30.391C78.4467 30.3381 78.2609 30.2446 78.0844 30.1104C77.9115 29.9742 77.7577 29.7802 77.623 29.5284C77.4982 29.2951 77.4256 29.0481 77.4053 28.7875C77.385 28.5268 77.4221 28.2712 77.5167 28.0206C77.6129 27.7643 77.7696 27.5185 77.9868 27.2833C78.2056 27.0424 78.491 26.8278 78.8428 26.6396C79.2353 26.4296 79.6274 26.3033 80.0189 26.2606C80.4105 26.2178 80.7701 26.2446 81.0978 26.3408L81.0512 27.0016Z" fill="white"/>
<path d="M83.9372 24.1618L85.6513 27.8947C85.8161 28.2535 86.0261 28.4944 86.2813 28.6175C86.5386 28.7351 86.8333 28.7176 87.1654 28.5651C87.4097 28.453 87.6142 28.2944 87.7788 28.0894C87.9417 27.8805 88.0748 27.6369 88.178 27.3584L86.2273 23.1103L87.6414 22.4609L90.3388 28.335L89.4743 28.732C89.2911 28.8161 89.1314 28.7854 88.9953 28.64L88.6824 28.2152C88.6163 28.3934 88.5421 28.5639 88.4596 28.7265C88.3754 28.8853 88.2755 29.0352 88.16 29.176C88.0465 29.3113 87.9126 29.4375 87.7584 29.5546C87.6097 29.6737 87.4381 29.7779 87.2434 29.8673C86.9228 30.0145 86.6139 30.0917 86.3167 30.0987C86.0216 30.1002 85.7445 30.0402 85.4855 29.9189C85.2264 29.7975 84.9907 29.6215 84.7785 29.3908C84.5683 29.1546 84.3879 28.8723 84.2372 28.5441L82.5231 24.8112L83.9372 24.1618Z" fill="white"/>
<path d="M90.3988 18.1989L93.8838 26.8878L92.4395 27.4671L88.9545 18.7781L90.3988 18.1989Z" fill="white"/>
<path d="M96.1297 19.0507C96.5148 18.9176 96.8894 18.8571 97.2534 18.869C97.6215 18.8796 97.9637 18.9635 98.2802 19.1208C98.5954 19.2741 98.8781 19.5008 99.1284 19.8009C99.3774 20.097 99.578 20.4654 99.7303 20.906C99.7687 21.0172 99.7949 21.1125 99.8091 21.1921C99.8259 21.2663 99.8279 21.33 99.8152 21.3833C99.8051 21.4312 99.7816 21.4726 99.7448 21.5075C99.7066 21.5385 99.6538 21.5657 99.5863 21.589L95.8111 22.8934C96.0715 23.5055 96.3993 23.9077 96.7946 24.1C97.1899 24.2923 97.6296 24.3047 98.114 24.1374C98.3521 24.0551 98.547 23.9566 98.6985 23.8421C98.8539 23.7262 98.9835 23.6125 99.0872 23.5011C99.1949 23.3884 99.2868 23.2877 99.3629 23.1993C99.4429 23.1094 99.5286 23.0487 99.6199 23.0171C99.6794 22.9966 99.7351 22.9906 99.787 22.9994C99.8389 23.0081 99.8883 23.0288 99.9352 23.0615L100.549 23.4493C100.452 23.6961 100.325 23.9199 100.168 24.1209C100.009 24.3179 99.8326 24.4945 99.6377 24.6507C99.4455 24.8015 99.2397 24.9326 99.0204 25.0439C98.8051 25.1539 98.5903 25.2459 98.3759 25.32C97.9512 25.4667 97.5322 25.5337 97.119 25.521C96.7044 25.5043 96.3148 25.4056 95.9502 25.2249C95.5842 25.0403 95.2539 24.7723 94.9592 24.4209C94.6631 24.0655 94.4224 23.6199 94.2373 23.084C94.0932 22.6672 94.0256 22.2528 94.0344 21.841C94.0418 21.4252 94.1239 21.0391 94.2807 20.6827C94.4401 20.321 94.673 19.9984 94.9794 19.7148C95.2898 19.4298 95.6732 19.2084 96.1297 19.0507ZM96.5237 20.0943C96.0949 20.2425 95.8013 20.4795 95.6428 20.8053C95.4844 21.1311 95.4482 21.528 95.5343 21.9959L98.2973 21.0412C98.2314 20.8507 98.1439 20.681 98.0347 20.5321C97.9241 20.3792 97.7933 20.2578 97.6422 20.1678C97.4911 20.0778 97.3218 20.0252 97.1344 20.01C96.9456 19.9908 96.742 20.0189 96.5237 20.0943Z" fill="white"/>
<path d="M103.067 23.6588L101.37 17.4217L102.288 17.1719C102.482 17.119 102.635 17.1755 102.745 17.3413L102.982 17.8056C103.073 17.6417 103.172 17.4884 103.282 17.3455C103.395 17.2015 103.518 17.0701 103.651 16.9512C103.788 16.8312 103.94 16.7267 104.108 16.6376C104.275 16.5486 104.464 16.4754 104.675 16.4181C105.015 16.3255 105.333 16.3021 105.628 16.3479C105.923 16.3897 106.186 16.4923 106.417 16.6556C106.652 16.8138 106.853 17.0267 107.022 17.2942C107.193 17.5566 107.326 17.862 107.421 18.2106L108.501 22.1802L107 22.5887L105.92 18.6191C105.816 18.2381 105.647 17.9686 105.413 17.8104C105.181 17.6471 104.889 17.6134 104.536 17.7093C104.277 17.7799 104.05 17.9048 103.855 18.0841C103.66 18.2633 103.488 18.4818 103.341 18.7396L104.568 23.2503L103.067 23.6588Z" fill="white"/>
<path d="M113.969 15.0493C113.991 15.1563 113.992 15.2654 113.972 15.3767C113.956 15.483 113.928 15.5767 113.889 15.6576L111.692 20.2385L114.814 19.5965L115.055 20.769L110.162 21.7751L110.031 21.1395C110.017 21.0695 110.016 20.9839 110.03 20.8825C110.042 20.777 110.075 20.6739 110.127 20.5731L112.34 15.9439L109.279 16.5732L109.039 15.4069L113.84 14.4199L113.969 15.0493Z" fill="white"/>
<path d="M122.226 19.6519L121.534 19.7522C121.389 19.7733 121.272 19.7691 121.182 19.7395C121.093 19.7059 121.017 19.6255 120.957 19.4986L120.753 19.0633C120.612 19.2323 120.471 19.3843 120.329 19.5195C120.191 19.6498 120.044 19.7645 119.889 19.8634C119.734 19.9623 119.565 20.044 119.383 20.1085C119.202 20.1731 118.997 20.2219 118.768 20.255C118.498 20.2942 118.243 20.295 118.005 20.2575C117.765 20.2158 117.552 20.1343 117.364 20.0129C117.181 19.8909 117.028 19.7285 116.905 19.5256C116.783 19.3227 116.7 19.0779 116.659 18.7911C116.624 18.55 116.652 18.304 116.743 18.0532C116.837 17.7976 117.019 17.5549 117.287 17.3251C117.554 17.0911 117.924 16.8762 118.396 16.6804C118.869 16.4846 119.467 16.3257 120.192 16.2036L120.138 15.8295C120.076 15.4014 119.939 15.0987 119.726 14.9216C119.518 14.7397 119.241 14.6737 118.896 14.7237C118.646 14.7599 118.443 14.8191 118.285 14.9014C118.127 14.9837 117.991 15.0713 117.877 15.1642C117.767 15.2523 117.664 15.333 117.569 15.4062C117.473 15.4795 117.363 15.5252 117.238 15.5432C117.135 15.5583 117.041 15.5442 116.959 15.5011C116.876 15.4579 116.806 15.4001 116.749 15.3278L116.397 14.8759C117.035 14.0959 117.874 13.6305 118.913 13.4799C119.287 13.4257 119.628 13.4398 119.937 13.5223C120.25 13.6001 120.524 13.7344 120.76 13.9251C120.995 14.1118 121.186 14.3492 121.334 14.6376C121.486 14.9254 121.588 15.2501 121.641 15.6117L122.226 19.6519ZM119.095 19.1255C119.253 19.1026 119.396 19.067 119.525 19.0186C119.653 18.9702 119.772 18.9085 119.88 18.8335C119.992 18.7578 120.096 18.6706 120.192 18.5718C120.292 18.4682 120.389 18.3501 120.484 18.2174L120.328 17.1388C119.882 17.2247 119.512 17.3187 119.217 17.4209C118.925 17.5183 118.694 17.6239 118.524 17.7377C118.354 17.8515 118.238 17.9723 118.176 18.1001C118.118 18.2274 118.099 18.3596 118.119 18.4967C118.158 18.7669 118.265 18.9487 118.44 19.0422C118.619 19.1351 118.837 19.1629 119.095 19.1255Z" fill="white"/>
<path d="M132.306 11.4157C132.264 11.5102 132.213 11.5779 132.152 11.6188C132.095 11.6594 132.024 11.6818 131.94 11.6859C131.857 11.69 131.761 11.6631 131.653 11.6054C131.545 11.5434 131.417 11.476 131.271 11.4033C131.124 11.3306 130.953 11.2675 130.757 11.214C130.565 11.1562 130.339 11.1336 130.079 11.1463C129.844 11.1579 129.639 11.1973 129.466 11.2647C129.297 11.3276 129.154 11.4124 129.037 11.5191C128.925 11.6255 128.842 11.7515 128.791 11.897C128.739 12.0383 128.717 12.1928 128.725 12.3606C128.736 12.5746 128.803 12.75 128.928 12.8869C129.056 13.0235 129.222 13.1374 129.424 13.2284C129.626 13.3194 129.855 13.3986 130.11 13.466C130.366 13.5333 130.626 13.6068 130.89 13.6863C131.159 13.7615 131.422 13.8537 131.68 13.9631C131.937 14.0682 132.169 14.2082 132.375 14.3831C132.581 14.5538 132.75 14.7685 132.88 15.027C133.015 15.2853 133.091 15.6033 133.11 15.9808C133.13 16.3919 133.077 16.7813 132.952 17.1491C132.831 17.5124 132.641 17.835 132.382 18.1169C132.126 18.3943 131.807 18.6202 131.425 18.7945C131.042 18.9647 130.599 19.0621 130.095 19.0867C129.806 19.1009 129.519 19.0855 129.235 19.0406C128.952 18.9998 128.677 18.9334 128.412 18.8412C128.151 18.7489 127.903 18.6349 127.67 18.4991C127.44 18.3632 127.233 18.2094 127.048 18.0376L127.499 17.2018C127.542 17.1408 127.594 17.0899 127.655 17.0491C127.721 17.0039 127.793 16.9793 127.873 16.9754C127.978 16.9702 128.093 17.0087 128.219 17.0909C128.345 17.1688 128.492 17.2562 128.661 17.3531C128.834 17.4497 129.033 17.5366 129.26 17.6138C129.491 17.6866 129.763 17.7153 130.078 17.6999C130.56 17.6763 130.928 17.5447 131.181 17.3052C131.434 17.0616 131.55 16.7258 131.529 16.2979C131.518 16.0588 131.447 15.8667 131.318 15.7217C131.193 15.5764 131.03 15.4582 130.828 15.3672C130.625 15.272 130.397 15.1949 130.142 15.1359C129.886 15.077 129.627 15.0119 129.362 14.9407C129.098 14.8696 128.837 14.7814 128.58 14.6763C128.323 14.5712 128.091 14.4291 127.884 14.2499C127.678 14.0708 127.507 13.8437 127.371 13.5686C127.24 13.2891 127.164 12.9417 127.144 12.5264C127.128 12.195 127.177 11.8688 127.291 11.5478C127.41 11.2266 127.589 10.9382 127.829 10.6826C128.073 10.4267 128.376 10.2163 128.738 10.0514C129.1 9.88651 129.518 9.79245 129.992 9.76922C130.529 9.74291 131.028 9.80256 131.489 9.94816C131.951 10.0938 132.348 10.3098 132.682 10.5962L132.306 11.4157Z" fill="white"/>
<path d="M137.583 18.9261C137.024 18.9209 136.595 18.7595 136.296 18.4417C135.996 18.1197 135.849 17.6794 135.854 17.1208L135.888 13.5111L135.233 13.505C135.149 13.5042 135.076 13.4762 135.013 13.4211C134.955 13.3659 134.926 13.2837 134.927 13.1745L134.933 12.5572L135.974 12.3967L136.318 10.6358C136.335 10.552 136.374 10.4872 136.433 10.4416C136.496 10.396 136.574 10.3736 136.667 10.3744L137.473 10.3819L137.454 12.4167L139.155 12.4325L139.145 13.5412L137.444 13.5255L137.412 17.0281C137.41 17.2297 137.459 17.3877 137.558 17.502C137.658 17.6164 137.792 17.6743 137.96 17.6758C138.057 17.6767 138.136 17.667 138.2 17.6466C138.267 17.622 138.324 17.5973 138.37 17.5725C138.421 17.5478 138.465 17.5251 138.503 17.5045C138.541 17.4796 138.579 17.4674 138.617 17.4677C138.663 17.4682 138.701 17.4811 138.73 17.5066C138.759 17.5278 138.791 17.5617 138.824 17.6083L139.283 18.3685C139.054 18.5554 138.793 18.6958 138.498 18.7897C138.203 18.8835 137.898 18.929 137.583 18.9261Z" fill="white"/>
<path d="M141.286 18.9064L141.674 12.4543L142.586 12.5092C142.745 12.5188 142.855 12.5548 142.914 12.6173C142.973 12.6798 143.009 12.783 143.022 12.9268L143.069 13.7122C143.324 13.3278 143.613 13.0297 143.937 12.8178C144.261 12.6059 144.616 12.5115 145.002 12.5348C145.32 12.554 145.58 12.6432 145.781 12.8026L145.51 13.9539C145.493 14.0286 145.462 14.0814 145.418 14.1124C145.374 14.1393 145.317 14.1505 145.246 14.1462C145.183 14.1424 145.098 14.1226 144.99 14.0867C144.883 14.0508 144.739 14.0274 144.559 14.0165C144.236 13.9971 143.954 14.0706 143.713 14.237C143.472 14.3992 143.261 14.6474 143.081 14.9815L142.839 19L141.286 18.9064Z" fill="white"/>
<path d="M152.089 19.8647L151.394 19.7847C151.248 19.7679 151.136 19.7338 151.057 19.6825C150.979 19.627 150.927 19.5301 150.9 19.3917L150.815 18.919C150.636 19.0463 150.46 19.1571 150.289 19.2515C150.122 19.3422 149.95 19.4155 149.775 19.4714C149.599 19.5273 149.416 19.5632 149.223 19.5792C149.031 19.5951 148.821 19.5898 148.591 19.5634C148.32 19.5322 148.074 19.4679 147.852 19.3705C147.631 19.269 147.446 19.1356 147.296 18.9703C147.15 18.8056 147.044 18.6094 146.977 18.3819C146.91 18.1543 146.893 17.8966 146.926 17.6087C146.954 17.3667 147.044 17.1361 147.196 16.9169C147.353 16.6939 147.59 16.5056 147.908 16.352C148.227 16.1942 148.639 16.081 149.146 16.0126C149.653 15.9441 150.272 15.9435 151.004 16.0109L151.047 15.6354C151.097 15.2057 151.042 14.878 150.882 14.6524C150.726 14.4231 150.475 14.2885 150.129 14.2486C149.879 14.2198 149.667 14.225 149.493 14.2642C149.319 14.3034 149.166 14.3533 149.032 14.414C148.903 14.471 148.783 14.5227 148.672 14.5691C148.561 14.6155 148.442 14.6315 148.317 14.6171C148.213 14.6051 148.126 14.5676 148.057 14.5048C147.989 14.4419 147.936 14.3681 147.899 14.2836L147.674 13.7567C148.491 13.1658 149.42 12.9304 150.464 13.0506C150.839 13.0938 151.166 13.1948 151.443 13.3536C151.726 13.5087 151.956 13.7086 152.135 13.9533C152.315 14.1938 152.439 14.4724 152.508 14.789C152.582 15.1061 152.598 15.4461 152.556 15.8091L152.089 19.8647ZM149.196 18.5549C149.354 18.5732 149.502 18.5754 149.639 18.5616C149.776 18.5477 149.906 18.5183 150.029 18.4734C150.157 18.4289 150.28 18.3712 150.398 18.3002C150.521 18.2256 150.645 18.1363 150.771 18.0325L150.896 16.9497C150.443 16.9187 150.061 16.9149 149.75 16.9382C149.443 16.9578 149.193 17.0009 148.999 17.0674C148.805 17.1339 148.662 17.221 148.569 17.3287C148.481 17.4368 148.429 17.5598 148.413 17.6975C148.382 17.9687 148.438 18.1718 148.584 18.3069C148.733 18.4425 148.937 18.5251 149.196 18.5549Z" fill="white"/>
<path d="M155.858 20.5715C155.307 20.4774 154.91 20.2497 154.664 19.8882C154.42 19.5227 154.345 19.0646 154.439 18.5139L155.047 14.9556L154.401 14.8453C154.318 14.8311 154.251 14.7918 154.198 14.7274C154.149 14.6637 154.134 14.578 154.152 14.4703L154.256 13.8618L155.309 13.8692L155.929 12.1855C155.96 12.1056 156.008 12.0478 156.074 12.0121C156.144 11.9772 156.224 11.9675 156.316 11.9831L157.11 12.1189L156.768 14.1247L158.444 14.4112L158.258 15.5042L156.581 15.2177L155.991 18.6704C155.957 18.8692 155.98 19.0329 156.061 19.1617C156.141 19.2904 156.264 19.3689 156.429 19.3972C156.525 19.4135 156.605 19.4166 156.671 19.4065C156.741 19.393 156.801 19.3777 156.851 19.3606C156.905 19.3443 156.952 19.3289 156.993 19.3146C157.035 19.2961 157.074 19.2901 157.111 19.2964C157.157 19.3042 157.192 19.323 157.217 19.3528C157.242 19.3785 157.267 19.4169 157.293 19.4681L157.625 20.2918C157.37 20.4399 157.089 20.5368 156.783 20.5825C156.477 20.6282 156.168 20.6245 155.858 20.5715Z" fill="white"/>
<path d="M163.438 15.2825C163.835 15.373 164.185 15.5194 164.488 15.7219C164.795 15.9254 165.041 16.1774 165.227 16.4782C165.414 16.7748 165.534 17.1167 165.588 17.5037C165.643 17.8867 165.618 18.3055 165.515 18.76C165.489 18.8747 165.461 18.9695 165.431 19.0445C165.406 19.1164 165.374 19.1715 165.335 19.2101C165.301 19.2454 165.259 19.2682 165.209 19.2784C165.161 19.2845 165.101 19.2797 165.032 19.2638L161.137 18.3768C161.035 19.0341 161.101 19.5488 161.335 19.9209C161.569 20.2929 161.936 20.5358 162.435 20.6496C162.681 20.7056 162.899 20.725 163.088 20.7077C163.281 20.6914 163.451 20.6634 163.598 20.6236C163.749 20.5848 163.88 20.5479 163.991 20.513C164.107 20.4789 164.212 20.4727 164.306 20.4941C164.367 20.5081 164.418 20.5325 164.457 20.5673C164.497 20.6022 164.528 20.6458 164.55 20.6984L164.866 21.3519C164.654 21.5103 164.428 21.6332 164.188 21.7208C163.949 21.8042 163.706 21.8608 163.458 21.8905C163.215 21.917 162.971 21.9196 162.726 21.8983C162.485 21.8779 162.254 21.8425 162.033 21.7921C161.595 21.6923 161.204 21.5278 160.86 21.2987C160.516 21.0655 160.238 20.7759 160.024 20.4299C159.811 20.0798 159.672 19.6777 159.607 19.2236C159.543 18.7655 159.575 18.26 159.7 17.7071C159.798 17.2771 159.96 16.8896 160.185 16.5446C160.411 16.1954 160.685 15.911 161.006 15.6913C161.332 15.4684 161.701 15.3175 162.111 15.2386C162.525 15.1606 162.967 15.1752 163.438 15.2825ZM163.221 16.3767C162.779 16.276 162.404 16.3221 162.098 16.515C161.791 16.7079 161.551 17.0258 161.377 17.4686L164.227 18.1177C164.272 17.9212 164.287 17.7308 164.273 17.5467C164.26 17.3585 164.213 17.1863 164.132 17.03C164.051 16.8738 163.935 16.7397 163.784 16.6278C163.634 16.5117 163.446 16.428 163.221 16.3767Z" fill="white"/>
<path d="M170.899 17.2076C171.165 17.2858 171.406 17.3875 171.623 17.5127C171.842 17.6339 172.032 17.7753 172.195 17.9369L173.978 18.4616L173.814 19.0176C173.787 19.1103 173.741 19.1757 173.677 19.2138C173.614 19.252 173.52 19.2639 173.398 19.2497L172.811 19.1888C172.821 19.3055 172.818 19.4251 172.804 19.5479C172.794 19.6719 172.77 19.7983 172.732 19.9273C172.642 20.2335 172.498 20.4931 172.299 20.7062C172.106 20.9164 171.875 21.0761 171.607 21.1853C171.342 21.2957 171.046 21.3554 170.72 21.3644C170.398 21.3705 170.064 21.3226 169.718 21.2206C169.484 21.1519 169.263 21.0627 169.055 20.9532C168.827 21.0131 168.692 21.1156 168.649 21.2607C168.612 21.3856 168.641 21.4948 168.736 21.5885C168.837 21.6793 168.976 21.764 169.154 21.8427C169.336 21.9226 169.545 22.0016 169.78 22.0796C170.017 22.1536 170.257 22.2374 170.501 22.3311C170.745 22.4247 170.978 22.5327 171.2 22.655C171.424 22.7733 171.612 22.9142 171.766 23.0775C171.923 23.242 172.03 23.4355 172.087 23.6581C172.15 23.8778 172.137 24.1348 172.051 24.4289C171.97 24.7029 171.823 24.9486 171.611 25.1662C171.402 25.3849 171.139 25.5571 170.822 25.6827C170.508 25.8094 170.149 25.8787 169.743 25.8905C169.335 25.9063 168.894 25.8443 168.418 25.7044C167.947 25.5657 167.552 25.399 167.232 25.2044C166.912 25.0138 166.659 24.8081 166.475 24.5874C166.293 24.3719 166.175 24.1489 166.12 23.9183C166.065 23.6876 166.069 23.4656 166.132 23.252C166.218 22.9619 166.378 22.7442 166.613 22.599C166.849 22.4537 167.141 22.3689 167.489 22.3445C167.361 22.2149 167.271 22.0659 167.22 21.8976C167.169 21.7293 167.177 21.5323 167.243 21.3067C167.27 21.214 167.314 21.1241 167.375 21.0369C167.437 20.9456 167.514 20.8611 167.607 20.7834C167.704 20.7069 167.815 20.6411 167.941 20.5861C168.068 20.5271 168.21 20.4835 168.367 20.4554C168.103 20.1937 167.921 19.8951 167.823 19.5597C167.729 19.2255 167.737 18.869 167.849 18.4903C167.939 18.1841 168.08 17.9258 168.274 17.7156C168.472 17.5026 168.705 17.3414 168.974 17.2322C169.248 17.1201 169.547 17.0616 169.873 17.0567C170.202 17.0529 170.544 17.1032 170.899 17.2076ZM170.598 24.2772C170.634 24.1564 170.627 24.047 170.577 23.9491C170.527 23.8512 170.445 23.7637 170.332 23.6867C170.22 23.6056 170.083 23.5301 169.919 23.4601C169.76 23.3914 169.587 23.3251 169.4 23.2613C169.218 23.1947 169.028 23.1277 168.829 23.0604C168.635 22.9902 168.449 22.9157 168.27 22.837C168.074 22.8799 167.904 22.9504 167.762 23.0485C167.624 23.1438 167.531 23.274 167.482 23.4392C167.45 23.548 167.447 23.6564 167.472 23.7645C167.5 23.8778 167.562 23.9859 167.659 24.0888C167.76 24.1928 167.899 24.2909 168.078 24.3829C168.256 24.4789 168.481 24.5672 168.755 24.6478C169.033 24.7296 169.28 24.778 169.494 24.793C169.708 24.812 169.89 24.8021 170.041 24.7635C170.196 24.7301 170.318 24.6699 170.41 24.583C170.5 24.5 170.563 24.3981 170.598 24.2772ZM169.999 20.2657C170.184 20.3203 170.353 20.3435 170.504 20.3355C170.656 20.3234 170.79 20.2861 170.904 20.2235C171.023 20.1622 171.123 20.0755 171.204 19.9637C171.289 19.853 171.354 19.7231 171.398 19.574C171.488 19.2678 171.466 18.9988 171.333 18.767C171.205 18.5323 170.958 18.361 170.591 18.2531C170.225 18.1453 169.922 18.1547 169.683 18.2815C169.45 18.4054 169.288 18.6205 169.198 18.9267C169.155 19.0717 169.138 19.2132 169.145 19.3512C169.157 19.4903 169.193 19.6193 169.255 19.738C169.321 19.8539 169.415 19.9582 169.537 20.0509C169.664 20.1408 169.818 20.2124 169.999 20.2657Z" fill="white"/>
<path d="M177.105 19.33L174.986 25.4366L173.516 24.9265L175.635 18.8199L177.105 19.33ZM177.943 17.6269C177.899 17.7538 177.832 17.8639 177.742 17.9571C177.651 18.0503 177.548 18.1234 177.432 18.1765C177.32 18.2309 177.197 18.2639 177.064 18.2756C176.933 18.2833 176.801 18.2644 176.67 18.2189C176.543 18.1749 176.431 18.1091 176.332 18.0215C176.239 17.9314 176.165 17.8302 176.111 17.718C176.056 17.6057 176.023 17.4851 176.01 17.3561C176.001 17.2285 176.018 17.1012 176.062 16.9742C176.108 16.8433 176.174 16.7285 176.262 16.63C176.353 16.5328 176.455 16.457 176.567 16.4026C176.679 16.3482 176.799 16.3165 176.927 16.3074C177.06 16.2958 177.19 16.312 177.317 16.356C177.448 16.4015 177.562 16.4699 177.659 16.5614C177.758 16.649 177.834 16.7489 177.889 16.8611C177.947 16.9747 177.982 17.098 177.994 17.231C178.005 17.364 177.988 17.4959 177.943 17.6269Z" fill="white"/>
<path d="M183.096 23.086C183.032 23.1236 182.972 23.1494 182.916 23.1636C182.865 23.1793 182.8 23.1716 182.722 23.1406C182.648 23.1111 182.584 23.061 182.531 22.9901C182.479 22.9153 182.416 22.8312 182.34 22.7378C182.266 22.6405 182.169 22.5432 182.049 22.446C181.935 22.3464 181.778 22.257 181.579 22.1779C181.326 22.0771 181.085 22.0354 180.856 22.0531C180.629 22.0668 180.417 22.134 180.22 22.2545C180.027 22.3766 179.85 22.5482 179.69 22.7692C179.531 22.9864 179.391 23.2491 179.268 23.5575C179.141 23.8775 179.061 24.1756 179.028 24.4518C178.999 24.7295 179.015 24.9798 179.075 25.2027C179.137 25.4218 179.242 25.6126 179.39 25.7753C179.539 25.9341 179.729 26.0592 179.959 26.1508C180.19 26.2423 180.386 26.2887 180.548 26.2899C180.716 26.2888 180.862 26.2744 180.986 26.2469C181.111 26.2154 181.22 26.1863 181.312 26.1596C181.409 26.1305 181.503 26.1338 181.593 26.1695C181.71 26.2161 181.78 26.2958 181.803 26.4089L182.009 27.101C181.774 27.2247 181.538 27.3138 181.299 27.3681C181.062 27.4185 180.827 27.4424 180.593 27.4398C180.364 27.4348 180.136 27.4053 179.909 27.3512C179.682 27.2971 179.463 27.2281 179.253 27.1444C178.882 26.997 178.56 26.7898 178.286 26.5229C178.014 26.2521 177.808 25.9351 177.668 25.5719C177.531 25.2103 177.467 24.8096 177.474 24.3697C177.487 23.9275 177.592 23.4604 177.787 22.9687C177.962 22.5276 178.187 22.1446 178.461 21.8196C178.74 21.4922 179.057 21.2408 179.412 21.0653C179.768 20.8859 180.158 20.7903 180.583 20.7785C181.008 20.7667 181.457 20.8546 181.929 21.0424C182.378 21.2208 182.741 21.4489 183.02 21.7267C183.302 22.0061 183.524 22.334 183.686 22.7104L183.096 23.086Z" fill="white"/>
<path d="M187.831 30.8414L187.198 30.5449C187.065 30.4825 186.969 30.4146 186.911 30.3409C186.855 30.2635 186.836 30.155 186.855 30.0154L186.924 29.5401C186.714 29.6038 186.512 29.6532 186.319 29.6882C186.132 29.7212 185.947 29.7364 185.762 29.7336C185.578 29.7308 185.392 29.7065 185.205 29.6606C185.018 29.6147 184.82 29.5428 184.611 29.4449C184.363 29.3291 184.15 29.1899 183.971 29.0273C183.794 28.8609 183.661 28.6756 183.571 28.4712C183.485 28.2686 183.446 28.0488 183.455 27.8119C183.464 27.5749 183.53 27.3252 183.653 27.0627C183.756 26.8421 183.915 26.652 184.129 26.4924C184.348 26.3308 184.633 26.2276 184.983 26.1828C185.335 26.1343 185.762 26.158 186.264 26.254C186.767 26.35 187.354 26.5463 188.027 26.8427L188.187 26.5003C188.371 26.1085 188.422 25.7803 188.342 25.5155C188.268 25.2488 188.073 25.0415 187.757 24.8937C187.529 24.7868 187.326 24.7244 187.149 24.7065C186.972 24.6885 186.81 24.687 186.664 24.7021C186.523 24.7151 186.393 24.726 186.273 24.7347C186.153 24.7434 186.036 24.7211 185.922 24.6677C185.827 24.6232 185.757 24.5601 185.711 24.4786C185.666 24.3971 185.639 24.3105 185.631 24.2186L185.585 23.6476C186.547 23.3466 187.504 23.4187 188.455 23.8639C188.797 24.0241 189.074 24.2236 189.287 24.4624C189.506 24.6991 189.661 24.9619 189.753 25.2508C189.847 25.5359 189.876 25.8395 189.841 26.1617C189.81 26.4857 189.717 26.8131 189.562 27.144L187.831 30.8414ZM185.504 28.6806C185.649 28.7482 185.788 28.7972 185.922 28.8276C186.056 28.858 186.189 28.8714 186.321 28.868C186.456 28.8664 186.591 28.8507 186.725 28.821C186.865 28.7892 187.012 28.744 187.164 28.6856L187.626 27.6985C187.207 27.5252 186.845 27.4002 186.543 27.3235C186.246 27.2447 185.995 27.2061 185.79 27.2076C185.585 27.2091 185.422 27.2463 185.3 27.3189C185.181 27.3934 185.093 27.4934 185.034 27.6189C184.918 27.8661 184.908 28.0769 185.003 28.251C185.101 28.427 185.268 28.5702 185.504 28.6806Z" fill="white"/>
<path d="M202.379 28.5453L201.691 29.7049L198.218 27.6447L196.929 29.8176L199.665 31.4406L199 32.5622L196.263 30.9392L194.949 33.1554L198.422 35.2155L197.731 36.3805L192.79 33.4494L197.437 25.6142L202.379 28.5453Z" fill="white"/>
<path d="M207.632 34.0634C207.542 34.1132 207.46 34.1359 207.386 34.1312C207.317 34.129 207.247 34.104 207.178 34.0563C207.109 34.0087 207.049 33.9291 206.998 33.8176C206.95 33.7027 206.889 33.5719 206.817 33.4251C206.745 33.2784 206.647 33.1242 206.524 32.9627C206.406 32.8001 206.24 32.6449 206.026 32.4971C205.832 32.3637 205.646 32.2711 205.468 32.2194C205.295 32.1666 205.13 32.1471 204.972 32.161C204.818 32.1772 204.676 32.2275 204.547 32.3117C204.42 32.3924 204.309 32.502 204.213 32.6403C204.092 32.8166 204.039 32.997 204.055 33.1813C204.074 33.368 204.136 33.5588 204.242 33.7539C204.347 33.9489 204.481 34.1508 204.643 34.3595C204.805 34.5682 204.967 34.7845 205.129 35.0084C205.297 35.2312 205.45 35.4642 205.588 35.7075C205.729 35.9474 205.828 36.1994 205.886 36.4636C205.946 36.7243 205.949 36.997 205.896 37.2816C205.846 37.5686 205.714 37.8677 205.499 38.1789C205.266 38.5178 204.988 38.7954 204.665 39.0117C204.348 39.227 204.001 39.3678 203.624 39.4342C203.252 39.4995 202.862 39.4853 202.452 39.3916C202.045 39.2944 201.633 39.1027 201.218 38.8167C200.98 38.6522 200.761 38.4659 200.563 38.2578C200.362 38.0531 200.185 37.8337 200.03 37.5994C199.878 37.3676 199.751 37.1268 199.648 36.877C199.548 36.6297 199.477 36.3816 199.434 36.1328L200.3 35.7425C200.371 35.7203 200.443 35.7116 200.517 35.7162C200.596 35.7198 200.668 35.7442 200.734 35.7895C200.821 35.8491 200.889 35.9497 200.939 36.0915C200.992 36.2298 201.056 36.3886 201.131 36.568C201.21 36.7498 201.316 36.9402 201.449 37.1392C201.588 37.337 201.787 37.5254 202.046 37.7041C202.444 37.9783 202.816 38.0971 203.163 38.0605C203.512 38.0205 203.808 37.8241 204.051 37.4714C204.187 37.2743 204.248 37.0789 204.233 36.8853C204.222 36.6941 204.164 36.5009 204.059 36.3059C203.956 36.1074 203.821 35.9073 203.654 35.7055C203.487 35.5037 203.32 35.2943 203.153 35.0773C202.987 34.8604 202.833 34.632 202.692 34.3921C202.551 34.1523 202.453 33.8985 202.398 33.6309C202.343 33.3633 202.345 33.079 202.404 32.7782C202.47 32.4763 202.62 32.1542 202.856 31.8119C203.044 31.5387 203.282 31.3093 203.568 31.1239C203.857 30.9408 204.175 30.8205 204.52 30.763C204.87 30.7078 205.238 30.7246 205.626 30.8133C206.013 30.9021 206.403 31.0811 206.793 31.3505C207.236 31.6556 207.596 32.006 207.875 32.4018C208.153 32.7975 208.337 33.2105 208.429 33.6406L207.632 34.0634Z" fill="white"/>
<path d="M209.723 43.4567C210.021 43.6959 210.301 43.8773 210.562 44.0009C210.83 44.1239 211.102 44.2181 211.378 44.2833L212.414 42.9908L211.525 42.2774C211.44 42.209 211.391 42.1322 211.379 42.0469C211.369 41.9584 211.392 41.8797 211.447 41.8109L212.046 41.0639L214.41 42.9599L212.104 45.8349C211.818 45.8214 211.538 45.785 211.263 45.7256C210.993 45.6656 210.722 45.5773 210.449 45.4609C210.18 45.3471 209.907 45.2037 209.631 45.0309C209.353 44.8613 209.068 44.6596 208.776 44.4257C208.258 44.0105 207.854 43.538 207.563 43.0083C207.272 42.4786 207.096 41.9258 207.036 41.3498C206.975 40.7738 207.034 40.1908 207.211 39.6007C207.391 39.0132 207.693 38.4557 208.116 37.9282C208.545 37.3941 209.024 36.974 209.555 36.6677C210.086 36.3614 210.639 36.1751 211.215 36.1089C211.793 36.0454 212.381 36.1078 212.979 36.2961C213.576 36.4845 214.158 36.806 214.725 37.2606C215.305 37.7257 215.736 38.2146 216.02 38.7272C216.309 39.2392 216.491 39.7511 216.565 40.2628L215.701 40.5549C215.528 40.6157 215.38 40.5962 215.255 40.4963C215.176 40.4332 215.117 40.3426 215.077 40.2245C215.022 40.0782 214.964 39.9292 214.903 39.7776C214.845 39.6286 214.767 39.4773 214.669 39.3237C214.575 39.1728 214.456 39.0155 214.313 38.852C214.172 38.6911 213.994 38.524 213.778 38.3505C213.427 38.0693 213.062 37.8734 212.683 37.7627C212.306 37.6547 211.93 37.6303 211.554 37.6895C211.178 37.7487 210.813 37.8889 210.458 38.1102C210.103 38.3315 209.773 38.6321 209.468 39.0122C209.139 39.4217 208.904 39.833 208.761 40.2461C208.62 40.6559 208.566 41.0533 208.596 41.4383C208.626 41.8234 208.737 42.1892 208.927 42.5358C209.12 42.8791 209.385 43.1861 209.723 43.4567Z" fill="white"/>
<path d="M60.9658 236.208C61.0378 236.266 61.0775 236.344 61.0851 236.442L61.1508 237.425C60.5757 237.55 60.0009 237.537 59.4261 237.387C58.8546 237.24 58.2745 236.929 57.6857 236.455C57.159 236.03 56.7572 235.559 56.4801 235.039C56.2063 234.522 56.0496 233.983 56.0101 233.423C55.9706 232.862 56.0499 232.295 56.2479 231.721C56.4491 231.15 56.7619 230.601 57.186 230.074C57.6154 229.541 58.0962 229.125 58.6285 228.826C59.1634 228.523 59.7203 228.34 60.299 228.278C60.8777 228.216 61.4607 228.275 62.0478 228.457C62.6408 228.638 63.2072 228.946 63.7469 229.38C64.2736 229.805 64.6647 230.26 64.9202 230.746C65.1817 231.232 65.3411 231.727 65.3985 232.231L64.4629 232.489C64.4051 232.507 64.3431 232.514 64.2769 232.509C64.2139 232.507 64.1465 232.477 64.0745 232.419C63.9993 232.358 63.9461 232.267 63.915 232.145C63.8839 232.023 63.8355 231.879 63.7698 231.712C63.7041 231.546 63.6017 231.359 63.4627 231.15C63.327 230.943 63.1168 230.725 62.8322 230.496C62.4986 230.227 62.1437 230.039 61.7675 229.93C61.3973 229.82 61.0238 229.792 60.6471 229.845C60.2737 229.9 59.9046 230.037 59.5399 230.255C59.181 230.473 58.8462 230.775 58.5353 231.161C58.2139 231.56 57.9837 231.96 57.8446 232.36C57.7089 232.763 57.6518 233.149 57.6736 233.517C57.6954 233.885 57.791 234.231 57.9605 234.557C58.1326 234.879 58.3691 235.161 58.67 235.403C58.85 235.548 59.0198 235.669 59.1795 235.765C59.3425 235.864 59.5017 235.941 59.6569 235.996C59.8155 236.053 59.9751 236.093 60.1357 236.114C60.3022 236.135 60.479 236.14 60.666 236.129C60.7224 236.126 60.7752 236.13 60.8243 236.143C60.8761 236.152 60.9233 236.174 60.9658 236.208Z" fill="white"/>
<path d="M67.9355 235.817C68.3318 236.094 68.6457 236.407 68.8773 236.758C69.1124 237.111 69.262 237.484 69.3261 237.877C69.3902 238.27 69.3667 238.678 69.2554 239.102C69.1441 239.526 68.9432 239.947 68.6526 240.364C68.3596 240.784 68.0335 241.12 67.6741 241.371C67.3147 241.623 66.9384 241.788 66.5453 241.867C66.1522 241.946 65.7493 241.937 65.3365 241.839C64.9272 241.743 64.5244 241.557 64.1282 241.281C63.7319 241.005 63.4162 240.69 63.1812 240.337C62.9461 239.983 62.796 239.607 62.7309 239.209C62.6691 238.813 62.6922 238.401 62.8 237.975C62.9113 237.55 63.1134 237.128 63.4064 236.708C63.697 236.291 64.0219 235.957 64.3813 235.706C64.7441 235.457 65.1209 235.294 65.5116 235.219C65.9058 235.145 66.3093 235.158 66.722 235.256C67.1348 235.354 67.5393 235.541 67.9355 235.817ZM64.8126 240.299C65.2536 240.606 65.6825 240.685 66.0992 240.535C66.5194 240.387 66.9288 240.028 67.3274 239.456C67.726 238.884 67.923 238.373 67.9183 237.925C67.917 237.478 67.6958 237.102 67.2548 236.794C66.8068 236.482 66.3703 236.403 65.9454 236.558C65.5228 236.708 65.1134 237.068 64.7172 237.637C64.321 238.205 64.1252 238.714 64.1299 239.163C64.1371 239.608 64.3646 239.986 64.8126 240.299Z" fill="white"/>
<path d="M68.9967 244.462L72.3176 238.917L73.1337 239.406C73.3067 239.509 73.3716 239.658 73.3286 239.853L73.1583 240.346C73.339 240.297 73.5187 240.263 73.6973 240.243C73.8796 240.224 74.0596 240.222 74.2376 240.236C74.4191 240.251 74.5999 240.289 74.78 240.348C74.9602 240.406 75.1439 240.492 75.3313 240.604C75.634 240.785 75.8711 240.998 76.0428 241.243C76.2166 241.484 76.3248 241.745 76.3676 242.025C76.4161 242.304 76.4023 242.597 76.3262 242.904C76.2558 243.209 76.1279 243.517 75.9423 243.827L73.8288 247.356L72.4937 246.557L74.6073 243.027C74.8101 242.688 74.8873 242.38 74.8388 242.101C74.7961 241.821 74.618 241.587 74.3045 241.399C74.0738 241.261 73.8264 241.184 73.562 241.168C73.2976 241.151 73.0214 241.179 72.7334 241.251L70.3317 245.262L68.9967 244.462Z" fill="white"/>
<path d="M81.8304 245.74C81.7621 245.78 81.7006 245.802 81.646 245.807C81.5934 245.808 81.5355 245.792 81.4722 245.759C81.4052 245.724 81.3424 245.667 81.2838 245.589C81.2288 245.513 81.1628 245.426 81.0857 245.329C81.0106 245.228 80.9176 245.125 80.8069 245.019C80.6999 244.916 80.5589 244.818 80.384 244.727C80.1124 244.585 79.8682 244.53 79.6516 244.564C79.4349 244.597 79.2779 244.707 79.1805 244.893C79.1162 245.016 79.1007 245.141 79.134 245.267C79.173 245.392 79.2411 245.52 79.3382 245.651C79.4391 245.785 79.5596 245.921 79.6997 246.061C79.8418 246.197 79.9848 246.341 80.1285 246.492C80.2722 246.643 80.4073 246.801 80.5338 246.967C80.6623 247.129 80.7605 247.304 80.8284 247.491C80.902 247.676 80.935 247.872 80.9274 248.076C80.9235 248.283 80.8612 248.501 80.7404 248.732C80.5963 249.007 80.4126 249.236 80.1894 249.418C79.9682 249.596 79.716 249.72 79.4329 249.79C79.1518 249.856 78.8426 249.862 78.5055 249.809C78.174 249.754 77.824 249.63 77.4557 249.437C77.2585 249.334 77.0747 249.214 76.9044 249.078C76.7359 248.947 76.5808 248.804 76.439 248.649C76.301 248.496 76.1799 248.338 76.0759 248.174C75.9756 248.013 75.8959 247.853 75.8369 247.694L76.4297 247.336C76.5037 247.294 76.5774 247.271 76.6508 247.267C76.7241 247.262 76.8036 247.283 76.8892 247.327C76.9747 247.372 77.0421 247.438 77.0912 247.526C77.144 247.615 77.206 247.714 77.2773 247.822C77.3485 247.93 77.4384 248.044 77.5471 248.162C77.6594 248.283 77.8198 248.398 78.0282 248.507C78.1919 248.592 78.3411 248.647 78.476 248.67C78.6165 248.691 78.7405 248.69 78.848 248.666C78.9593 248.643 79.0531 248.6 79.1294 248.536C79.2114 248.47 79.2758 248.392 79.3226 248.303C79.3927 248.169 79.4092 248.037 79.3722 247.909C79.3389 247.783 79.2718 247.653 79.1709 247.519C79.0738 247.388 78.9523 247.253 78.8065 247.115C78.6663 246.975 78.5225 246.829 78.3751 246.676C78.2314 246.525 78.0944 246.365 77.9641 246.198C77.8396 246.028 77.7424 245.847 77.6728 245.654C77.6068 245.463 77.5797 245.257 77.5913 245.035C77.6067 244.816 77.6806 244.58 77.8131 244.327C77.9358 244.092 78.0992 243.893 78.3033 243.73C78.5073 243.566 78.7395 243.453 79 243.391C79.2661 243.326 79.5574 243.317 79.874 243.365C80.1963 243.41 80.5342 243.525 80.8877 243.71C81.2821 243.917 81.6071 244.17 81.8626 244.47C82.1181 244.769 82.2983 245.082 82.4031 245.407L81.8304 245.74Z" fill="white"/>
<path d="M85.6956 246.218L84.0147 249.966C83.8532 250.326 83.8101 250.643 83.8855 250.916C83.9665 251.187 84.1737 251.397 84.5071 251.547C84.7523 251.657 85.0063 251.706 85.2691 251.695C85.5335 251.68 85.8045 251.62 86.082 251.514L87.9949 247.249L89.4148 247.886L86.7697 253.784L85.9017 253.394C85.7178 253.312 85.6357 253.171 85.6556 252.973L85.7693 252.458C85.5917 252.526 85.4145 252.582 85.2378 252.627C85.0628 252.668 84.8843 252.692 84.7021 252.697C84.5256 252.701 84.3425 252.683 84.1528 252.644C83.9653 252.611 83.7738 252.55 83.5784 252.463C83.2565 252.318 82.995 252.137 82.7941 251.918C82.5986 251.697 82.4613 251.449 82.3821 251.174C82.3028 250.899 82.2801 250.605 82.314 250.294C82.3534 249.98 82.4471 249.658 82.5949 249.329L84.2757 245.581L85.6956 246.218Z" fill="white"/>
<path d="M94.1426 246.649L90.735 255.369L89.2856 254.803L92.6933 246.083L94.1426 246.649Z" fill="white"/>
<path d="M97.6399 250.889C98.0262 251.019 98.3598 251.199 98.6409 251.431C98.926 251.664 99.1459 251.939 99.3007 252.257C99.4567 252.571 99.5423 252.923 99.5575 253.314C99.574 253.7 99.508 254.114 99.3597 254.556C99.3223 254.668 99.2849 254.759 99.2476 254.831C99.2155 254.9 99.1783 254.952 99.1357 254.986C99.0984 255.018 99.0546 255.036 99.0041 255.042C98.9549 255.043 98.8965 255.032 98.8288 255.009L95.0422 253.739C94.8748 254.382 94.8891 254.901 95.0848 255.295C95.2806 255.688 95.6214 255.966 96.1071 256.13C96.346 256.21 96.5604 256.251 96.7504 256.252C96.9443 256.255 97.1163 256.244 97.2664 256.22C97.4205 256.196 97.5547 256.172 97.669 256.149C97.7872 256.126 97.8922 256.131 97.9837 256.161C98.0435 256.181 98.0912 256.211 98.127 256.249C98.1628 256.288 98.1893 256.334 98.2064 256.389L98.456 257.071C98.2286 257.207 97.9914 257.307 97.7442 257.37C97.4984 257.429 97.2506 257.461 97.0009 257.466C96.7565 257.468 96.5135 257.447 96.2719 257.401C96.0342 257.357 95.8079 257.298 95.5929 257.226C95.1668 257.083 94.794 256.881 94.4745 256.618C94.1563 256.352 93.9079 256.036 93.7293 255.67C93.5521 255.301 93.454 254.887 93.435 254.429C93.4174 253.966 93.4988 253.467 93.6792 252.929C93.8195 252.511 94.0188 252.141 94.2771 251.821C94.5368 251.496 94.8375 251.24 95.1792 251.053C95.5262 250.864 95.9076 250.751 96.3234 250.713C96.7432 250.677 97.182 250.735 97.6399 250.889ZM97.315 251.956C96.885 251.812 96.5078 251.82 96.1834 251.982C95.859 252.143 95.5881 252.435 95.3707 252.859L98.142 253.789C98.2062 253.598 98.2404 253.41 98.2448 253.225C98.2505 253.037 98.221 252.861 98.1562 252.697C98.0915 252.534 97.9895 252.389 97.8503 252.262C97.7124 252.132 97.534 252.03 97.315 251.956Z" fill="white"/>
<path d="M100.937 258.839L102.578 252.587L103.498 252.828C103.693 252.88 103.797 253.005 103.81 253.203L103.784 253.724C103.944 253.627 104.107 253.544 104.273 253.475C104.443 253.406 104.615 253.354 104.79 253.317C104.969 253.282 105.153 253.267 105.342 253.273C105.531 253.28 105.732 253.311 105.943 253.366C106.284 253.456 106.571 253.594 106.804 253.781C107.039 253.964 107.215 254.184 107.335 254.441C107.459 254.696 107.527 254.981 107.54 255.297C107.558 255.609 107.521 255.941 107.429 256.29L106.384 260.269L104.879 259.874L105.924 255.895C106.024 255.513 106.012 255.195 105.888 254.941C105.769 254.684 105.532 254.509 105.179 254.416C104.919 254.348 104.66 254.343 104.401 254.401C104.143 254.459 103.885 254.563 103.629 254.713L102.442 259.234L100.937 258.839Z" fill="white"/>
<path d="M114.71 256.054C114.689 256.161 114.647 256.262 114.586 256.357C114.53 256.448 114.468 256.524 114.4 256.583L110.604 259.96L113.732 260.574L113.502 261.749L108.599 260.786L108.724 260.149C108.738 260.079 108.771 260 108.822 259.912C108.875 259.819 108.944 259.737 109.032 259.664L112.861 256.249L109.795 255.647L110.024 254.479L114.834 255.423L114.71 256.054Z" fill="white"/>
<path d="M121.204 262.889L120.511 262.795C120.366 262.775 120.254 262.739 120.176 262.686C120.099 262.629 120.049 262.531 120.026 262.392L119.95 261.918C119.768 262.041 119.59 262.148 119.417 262.239C119.248 262.327 119.076 262.396 118.899 262.449C118.722 262.501 118.538 262.533 118.345 262.545C118.153 262.557 117.942 262.548 117.714 262.516C117.443 262.48 117.198 262.41 116.979 262.308C116.76 262.202 116.577 262.065 116.431 261.897C116.288 261.729 116.186 261.531 116.124 261.302C116.062 261.073 116.05 260.815 116.089 260.528C116.122 260.287 116.217 260.058 116.373 259.842C116.534 259.622 116.775 259.439 117.096 259.292C117.418 259.14 117.833 259.036 118.341 258.978C118.849 258.92 119.468 258.932 120.199 259.014L120.25 258.639C120.308 258.211 120.259 257.882 120.104 257.653C119.953 257.421 119.705 257.281 119.36 257.234C119.11 257.2 118.898 257.201 118.723 257.237C118.549 257.272 118.394 257.319 118.259 257.377C118.129 257.431 118.008 257.481 117.896 257.525C117.784 257.569 117.666 257.583 117.541 257.566C117.437 257.551 117.351 257.512 117.283 257.448C117.216 257.384 117.164 257.309 117.129 257.224L116.916 256.692C117.744 256.118 118.678 255.902 119.719 256.043C120.093 256.094 120.418 256.202 120.692 256.366C120.971 256.527 121.198 256.732 121.372 256.98C121.546 257.224 121.665 257.505 121.727 257.823C121.794 258.141 121.803 258.482 121.754 258.844L121.204 262.889ZM118.338 261.52C118.497 261.542 118.644 261.547 118.781 261.536C118.918 261.525 119.049 261.498 119.174 261.456C119.302 261.414 119.426 261.359 119.546 261.29C119.67 261.218 119.796 261.132 119.925 261.03L120.071 259.95C119.619 259.91 119.237 259.898 118.925 259.915C118.618 259.929 118.367 259.967 118.172 260.029C117.977 260.092 117.832 260.176 117.737 260.282C117.647 260.388 117.592 260.51 117.573 260.647C117.537 260.918 117.589 261.122 117.732 261.26C117.878 261.399 118.08 261.485 118.338 261.52Z" fill="white"/>
<path d="M132.805 256.216C132.755 256.306 132.698 256.369 132.634 256.405C132.573 256.44 132.501 256.456 132.417 256.453C132.333 256.449 132.24 256.414 132.138 256.347C132.036 256.275 131.915 256.197 131.775 256.112C131.636 256.026 131.471 255.948 131.28 255.877C131.094 255.803 130.871 255.76 130.611 255.75C130.376 255.74 130.169 255.761 129.99 255.813C129.816 255.861 129.666 255.932 129.54 256.028C129.419 256.124 129.326 256.242 129.261 256.383C129.197 256.519 129.161 256.671 129.155 256.839C129.146 257.053 129.198 257.234 129.309 257.381C129.425 257.529 129.58 257.657 129.773 257.765C129.966 257.874 130.187 257.973 130.436 258.063C130.685 258.153 130.937 258.249 131.194 258.352C131.454 258.451 131.708 258.566 131.955 258.698C132.202 258.825 132.421 258.985 132.611 259.178C132.801 259.366 132.949 259.595 133.056 259.864C133.167 260.133 133.215 260.457 133.2 260.834C133.183 261.246 133.097 261.629 132.939 261.984C132.787 262.335 132.569 262.64 132.285 262.897C132.006 263.151 131.668 263.348 131.271 263.487C130.875 263.623 130.425 263.68 129.922 263.66C129.632 263.648 129.348 263.608 129.069 263.538C128.79 263.472 128.522 263.381 128.266 263.266C128.015 263.151 127.778 263.015 127.558 262.859C127.341 262.703 127.148 262.532 126.979 262.344L127.503 261.552C127.551 261.495 127.608 261.449 127.672 261.414C127.741 261.374 127.816 261.356 127.895 261.359C128 261.364 128.112 261.412 128.23 261.505C128.348 261.594 128.487 261.694 128.647 261.806C128.81 261.917 129.002 262.022 129.22 262.119C129.444 262.212 129.713 262.265 130.027 262.277C130.51 262.297 130.888 262.198 131.162 261.982C131.435 261.762 131.581 261.438 131.598 261.01C131.607 260.771 131.554 260.573 131.439 260.417C131.327 260.261 131.175 260.129 130.982 260.02C130.789 259.908 130.568 259.811 130.319 259.729C130.07 259.648 129.817 259.56 129.56 259.465C129.303 259.371 129.051 259.26 128.804 259.132C128.557 259.005 128.339 258.843 128.149 258.646C127.959 258.449 127.809 258.208 127.699 257.922C127.593 257.632 127.548 257.279 127.565 256.863C127.578 256.532 127.656 256.211 127.799 255.902C127.946 255.592 128.15 255.321 128.412 255.088C128.677 254.855 128.998 254.672 129.373 254.54C129.748 254.408 130.173 254.351 130.647 254.37C131.184 254.392 131.676 254.496 132.123 254.682C132.569 254.868 132.946 255.118 133.253 255.433L132.805 256.216Z" fill="white"/>
<path d="M137.946 263.76C137.387 263.77 136.954 263.62 136.646 263.311C136.338 262.997 136.179 262.561 136.169 262.003L136.103 258.393L135.448 258.405C135.364 258.407 135.29 258.381 135.226 258.327C135.166 258.274 135.135 258.192 135.133 258.083L135.122 257.466L136.159 257.277L136.454 255.507C136.469 255.423 136.506 255.357 136.564 255.31C136.626 255.263 136.703 255.238 136.796 255.237L137.602 255.222L137.639 257.257L139.34 257.226L139.36 258.334L137.659 258.365L137.723 261.867C137.726 262.069 137.779 262.225 137.882 262.337C137.985 262.449 138.121 262.503 138.289 262.5C138.385 262.498 138.465 262.486 138.527 262.464C138.594 262.438 138.65 262.411 138.696 262.385C138.746 262.359 138.79 262.335 138.827 262.314C138.864 262.288 138.902 262.274 138.94 262.274C138.986 262.273 139.024 262.285 139.054 262.309C139.084 262.33 139.116 262.363 139.15 262.409L139.63 263.156C139.407 263.349 139.149 263.497 138.857 263.598C138.564 263.7 138.261 263.754 137.946 263.76Z" fill="white"/>
<path d="M142.102 263.525L141.657 257.077L142.568 257.014C142.727 257.003 142.84 257.025 142.907 257.079C142.974 257.133 143.023 257.231 143.054 257.372L143.202 258.145C143.405 257.731 143.653 257.398 143.947 257.146C144.242 256.894 144.581 256.755 144.967 256.728C145.285 256.706 145.554 256.761 145.774 256.893L145.653 258.07C145.646 258.146 145.622 258.203 145.583 258.239C145.543 258.271 145.487 258.29 145.416 258.295C145.353 258.299 145.266 258.29 145.155 258.269C145.044 258.247 144.899 258.242 144.719 258.255C144.396 258.277 144.126 258.386 143.908 258.582C143.689 258.774 143.513 259.047 143.377 259.402L143.655 263.418L142.102 263.525Z" fill="white"/>
<path d="M153.384 262.424L152.69 262.51C152.544 262.529 152.427 262.522 152.339 262.491C152.25 262.455 152.176 262.373 152.118 262.245L151.924 261.806C151.779 261.972 151.635 262.121 151.49 262.253C151.35 262.381 151.2 262.492 151.043 262.588C150.886 262.684 150.715 262.762 150.533 262.823C150.35 262.884 150.144 262.928 149.914 262.957C149.643 262.99 149.389 262.986 149.151 262.944C148.912 262.897 148.701 262.811 148.516 262.686C148.335 262.56 148.186 262.395 148.067 262.189C147.948 261.984 147.871 261.738 147.835 261.45C147.805 261.208 147.838 260.963 147.935 260.714C148.034 260.46 148.22 260.221 148.493 259.997C148.765 259.769 149.139 259.561 149.616 259.375C150.092 259.189 150.694 259.042 151.421 258.935L151.375 258.56C151.321 258.131 151.19 257.825 150.981 257.644C150.776 257.458 150.501 257.386 150.155 257.429C149.905 257.46 149.7 257.515 149.541 257.594C149.381 257.673 149.243 257.758 149.128 257.849C149.016 257.935 148.911 258.013 148.814 258.084C148.717 258.156 148.606 258.199 148.481 258.215C148.377 258.228 148.284 258.212 148.202 258.167C148.121 258.122 148.052 258.063 147.996 257.989L147.653 257.53C148.307 256.763 149.155 256.315 150.197 256.186C150.572 256.139 150.914 256.161 151.221 256.249C151.532 256.333 151.803 256.473 152.035 256.669C152.266 256.86 152.453 257.102 152.595 257.393C152.741 257.684 152.836 258.01 152.881 258.373L153.384 262.424ZM150.264 261.834C150.422 261.814 150.566 261.782 150.696 261.736C150.826 261.69 150.945 261.631 151.055 261.558C151.168 261.485 151.274 261.4 151.372 261.303C151.474 261.201 151.574 261.085 151.672 260.955L151.538 259.873C151.09 259.95 150.718 260.036 150.421 260.132C150.127 260.224 149.894 260.325 149.722 260.435C149.549 260.545 149.431 260.664 149.366 260.79C149.305 260.916 149.284 261.048 149.301 261.186C149.335 261.456 149.438 261.64 149.611 261.738C149.788 261.834 150.005 261.866 150.264 261.834Z" fill="white"/>
<path d="M157.669 261.808C157.119 261.907 156.668 261.828 156.314 261.572C155.96 261.311 155.734 260.906 155.635 260.356L154.995 256.803L154.35 256.919C154.268 256.934 154.19 256.921 154.119 256.878C154.051 256.835 154.008 256.759 153.988 256.652L153.879 256.044L154.872 255.693L154.882 253.898C154.883 253.813 154.909 253.742 154.959 253.686C155.013 253.629 155.085 253.593 155.176 253.577L155.97 253.434L156.33 255.436L158.004 255.135L158.201 256.226L156.527 256.528L157.147 259.975C157.183 260.174 157.26 260.32 157.38 260.413C157.499 260.507 157.641 260.539 157.807 260.509C157.902 260.492 157.978 260.468 158.037 260.436C158.098 260.399 158.15 260.364 158.191 260.331C158.236 260.298 158.275 260.267 158.309 260.24C158.341 260.208 158.376 260.189 158.413 260.182C158.459 260.174 158.498 260.18 158.532 260.2C158.564 260.215 158.601 260.242 158.643 260.282L159.235 260.943C159.046 261.17 158.815 261.356 158.542 261.503C158.27 261.651 157.979 261.752 157.669 261.808Z" fill="white"/>
<path d="M162.713 253.956C163.109 253.862 163.488 253.839 163.849 253.887C164.214 253.934 164.546 254.052 164.846 254.24C165.144 254.424 165.403 254.678 165.622 255.001C165.84 255.321 166.003 255.707 166.11 256.161C166.137 256.275 166.154 256.373 166.16 256.453C166.17 256.529 166.165 256.592 166.147 256.644C166.132 256.691 166.105 256.73 166.065 256.761C166.024 256.788 165.969 256.81 165.899 256.826L162.013 257.748C162.211 258.383 162.497 258.816 162.871 259.046C163.245 259.277 163.681 259.333 164.18 259.215C164.425 259.157 164.629 259.078 164.791 258.979C164.957 258.88 165.097 258.779 165.212 258.679C165.33 258.578 165.432 258.487 165.516 258.406C165.605 258.325 165.696 258.273 165.79 258.25C165.851 258.236 165.907 258.236 165.958 258.249C166.009 258.263 166.056 258.289 166.099 258.326L166.671 258.773C166.55 259.009 166.402 259.219 166.225 259.403C166.048 259.584 165.854 259.742 165.645 259.878C165.439 260.009 165.221 260.119 164.991 260.207C164.766 260.295 164.543 260.365 164.323 260.418C163.885 260.521 163.462 260.546 163.052 260.493C162.641 260.435 162.263 260.298 161.919 260.081C161.573 259.861 161.271 259.562 161.013 259.183C160.753 258.799 160.558 258.332 160.428 257.78C160.326 257.351 160.3 256.932 160.35 256.523C160.398 256.11 160.519 255.734 160.71 255.395C160.905 255.051 161.169 254.754 161.502 254.502C161.839 254.249 162.243 254.067 162.713 253.956ZM163.001 255.034C162.559 255.138 162.244 255.345 162.053 255.653C161.863 255.962 161.788 256.353 161.827 256.827L164.671 256.153C164.624 255.956 164.554 255.779 164.46 255.62C164.366 255.457 164.248 255.323 164.106 255.218C163.965 255.114 163.802 255.044 163.617 255.01C163.431 254.973 163.225 254.98 163.001 255.034Z" fill="white"/>
<path d="M169.9 252.008C170.166 251.927 170.423 251.879 170.674 251.865C170.923 251.846 171.159 251.86 171.384 251.906L173.162 251.365L173.331 251.92C173.359 252.012 173.357 252.092 173.324 252.159C173.292 252.226 173.221 252.287 173.11 252.342L172.587 252.613C172.659 252.706 172.722 252.807 172.778 252.917C172.837 253.027 172.887 253.146 172.926 253.274C173.019 253.58 173.041 253.876 172.992 254.163C172.946 254.445 172.841 254.705 172.676 254.944C172.516 255.181 172.301 255.393 172.033 255.58C171.768 255.762 171.463 255.905 171.117 256.01C170.884 256.081 170.65 256.128 170.416 256.151C170.258 256.326 170.201 256.486 170.245 256.63C170.283 256.755 170.368 256.83 170.499 256.856C170.632 256.877 170.795 256.872 170.987 256.84C171.183 256.806 171.401 256.758 171.641 256.694C171.879 256.626 172.126 256.564 172.381 256.508C172.636 256.452 172.891 256.415 173.144 256.395C173.395 256.371 173.63 256.385 173.848 256.438C174.07 256.489 174.266 256.592 174.436 256.746C174.608 256.896 174.739 257.117 174.828 257.41C174.911 257.684 174.924 257.97 174.865 258.268C174.811 258.566 174.686 258.854 174.489 259.133C174.297 259.411 174.035 259.667 173.702 259.899C173.37 260.136 172.967 260.327 172.493 260.471C172.022 260.614 171.601 260.692 171.227 260.704C170.854 260.721 170.53 260.688 170.255 260.605C169.985 260.524 169.763 260.403 169.591 260.24C169.419 260.077 169.3 259.89 169.235 259.677C169.148 259.387 169.162 259.117 169.279 258.867C169.396 258.616 169.593 258.385 169.871 258.173C169.693 258.135 169.536 258.06 169.401 257.947C169.266 257.835 169.164 257.666 169.096 257.441C169.068 257.348 169.055 257.249 169.058 257.143C169.06 257.033 169.078 256.92 169.113 256.804C169.152 256.686 169.209 256.57 169.284 256.455C169.357 256.336 169.452 256.222 169.568 256.112C169.203 256.039 168.887 255.889 168.621 255.662C168.359 255.435 168.17 255.132 168.055 254.754C167.963 254.449 167.939 254.155 167.985 253.874C168.034 253.587 168.141 253.324 168.305 253.085C168.473 252.841 168.691 252.628 168.96 252.445C169.233 252.261 169.547 252.115 169.9 252.008ZM173.531 258.081C173.494 257.961 173.428 257.873 173.333 257.819C173.237 257.765 173.121 257.736 172.984 257.734C172.846 257.728 172.69 257.74 172.515 257.771C172.344 257.801 172.163 257.841 171.972 257.89C171.783 257.934 171.587 257.983 171.384 258.036C171.183 258.084 170.987 258.124 170.795 258.156C170.654 258.3 170.551 258.452 170.486 258.612C170.423 258.767 170.417 258.927 170.467 259.092C170.5 259.2 170.556 259.293 170.637 259.369C170.722 259.449 170.834 259.505 170.971 259.538C171.112 259.569 171.283 259.575 171.483 259.553C171.684 259.536 171.921 259.486 172.194 259.403C172.472 259.319 172.704 259.224 172.891 259.119C173.08 259.017 173.227 258.909 173.333 258.794C173.443 258.681 173.513 258.563 173.541 258.44C173.571 258.322 173.568 258.202 173.531 258.081ZM170.828 255.058C171.012 255.001 171.166 254.928 171.288 254.839C171.409 254.745 171.5 254.64 171.561 254.525C171.627 254.409 171.663 254.281 171.669 254.143C171.679 254.004 171.662 253.86 171.617 253.712C171.524 253.406 171.358 253.193 171.12 253.072C170.884 252.947 170.583 252.939 170.217 253.05C169.852 253.162 169.604 253.336 169.474 253.573C169.347 253.804 169.33 254.073 169.423 254.378C169.467 254.523 169.53 254.651 169.612 254.762C169.698 254.872 169.799 254.96 169.916 255.025C170.035 255.086 170.171 255.121 170.323 255.132C170.479 255.137 170.647 255.113 170.828 255.058Z" fill="white"/>
<path d="M175.976 250.106L178.149 256.193L176.683 256.716L174.51 250.629L175.976 250.106ZM175.562 248.253C175.607 248.38 175.624 248.508 175.612 248.637C175.6 248.766 175.565 248.888 175.508 249.002C175.454 249.114 175.38 249.217 175.283 249.309C175.185 249.398 175.071 249.465 174.941 249.512C174.814 249.557 174.685 249.576 174.553 249.57C174.424 249.558 174.303 249.525 174.191 249.472C174.078 249.418 173.976 249.346 173.885 249.253C173.798 249.159 173.732 249.049 173.687 248.923C173.64 248.792 173.62 248.661 173.627 248.529C173.637 248.396 173.669 248.273 173.723 248.161C173.776 248.048 173.85 247.948 173.943 247.861C174.04 247.769 174.151 247.7 174.278 247.655C174.408 247.608 174.54 247.59 174.673 247.601C174.805 247.607 174.927 247.637 175.04 247.69C175.156 247.742 175.261 247.817 175.353 247.913C175.446 248.009 175.515 248.123 175.562 248.253Z" fill="white"/>
<path d="M182.802 248.891C182.782 248.963 182.757 249.023 182.726 249.072C182.7 249.119 182.648 249.158 182.57 249.19C182.497 249.22 182.416 249.228 182.328 249.214C182.239 249.196 182.135 249.179 182.016 249.164C181.895 249.146 181.757 249.143 181.604 249.156C181.453 249.163 181.278 249.207 181.079 249.288C180.827 249.391 180.624 249.528 180.472 249.699C180.317 249.866 180.211 250.061 180.153 250.285C180.098 250.507 180.089 250.753 180.127 251.023C180.163 251.29 180.244 251.577 180.369 251.884C180.499 252.203 180.648 252.473 180.816 252.695C180.987 252.915 181.172 253.085 181.37 253.204C181.567 253.319 181.775 253.384 181.994 253.398C182.212 253.41 182.435 253.368 182.665 253.275C182.894 253.181 183.068 253.079 183.186 252.967C183.306 252.85 183.401 252.739 183.471 252.633C183.54 252.523 183.598 252.427 183.646 252.344C183.696 252.255 183.766 252.193 183.855 252.156C183.972 252.109 184.078 252.118 184.172 252.183L184.801 252.54C184.717 252.791 184.609 253.019 184.474 253.224C184.338 253.424 184.185 253.605 184.015 253.765C183.846 253.92 183.662 254.056 183.46 254.175C183.259 254.293 183.054 254.395 182.844 254.481C182.474 254.631 182.098 254.705 181.716 254.702C181.332 254.696 180.964 254.61 180.611 254.446C180.262 254.279 179.938 254.035 179.639 253.713C179.342 253.385 179.093 252.976 178.893 252.486C178.714 252.046 178.611 251.615 178.583 251.19C178.557 250.761 178.612 250.36 178.746 249.988C178.878 249.612 179.093 249.272 179.391 248.969C179.69 248.666 180.074 248.419 180.545 248.227C180.992 248.044 181.412 247.957 181.805 247.964C182.202 247.97 182.59 248.053 182.967 248.212L182.802 248.891Z" fill="white"/>
<path d="M191.807 250.316L191.177 250.618C191.044 250.682 190.931 250.712 190.837 250.711C190.741 250.706 190.645 250.651 190.549 250.548L190.226 250.193C190.141 250.397 190.052 250.584 189.957 250.755C189.864 250.921 189.758 251.074 189.639 251.215C189.52 251.355 189.384 251.484 189.23 251.599C189.076 251.715 188.894 251.823 188.686 251.923C188.44 252.041 188.197 252.117 187.958 252.153C187.717 252.184 187.489 252.17 187.274 252.11C187.063 252.048 186.868 251.939 186.691 251.782C186.513 251.625 186.361 251.416 186.236 251.154C186.131 250.935 186.084 250.691 186.096 250.425C186.11 250.153 186.211 249.867 186.398 249.568C186.584 249.265 186.873 248.949 187.265 248.622C187.658 248.294 188.182 247.964 188.838 247.631L188.674 247.29C188.487 246.9 188.266 246.652 188.011 246.546C187.757 246.435 187.473 246.454 187.159 246.605C186.931 246.714 186.755 246.831 186.629 246.957C186.502 247.082 186.399 247.206 186.318 247.329C186.239 247.446 186.165 247.554 186.095 247.652C186.026 247.751 185.935 247.827 185.821 247.881C185.726 247.927 185.633 247.941 185.541 247.925C185.45 247.908 185.366 247.874 185.29 247.822L184.819 247.495C185.195 246.561 185.857 245.866 186.804 245.413C187.145 245.249 187.475 245.161 187.795 245.148C188.116 245.129 188.418 245.175 188.7 245.287C188.98 245.395 189.233 245.565 189.46 245.796C189.691 246.025 189.886 246.305 190.044 246.634L191.807 250.316ZM188.661 250.747C188.805 250.678 188.931 250.602 189.04 250.517C189.148 250.432 189.243 250.338 189.323 250.234C189.408 250.129 189.481 250.014 189.543 249.892C189.607 249.763 189.665 249.621 189.717 249.466L189.246 248.483C188.846 248.698 188.52 248.898 188.269 249.084C188.02 249.264 187.831 249.433 187.703 249.593C187.574 249.752 187.499 249.902 187.478 250.043C187.461 250.181 187.482 250.313 187.542 250.438C187.66 250.684 187.816 250.826 188.011 250.863C188.209 250.898 188.426 250.86 188.661 250.747Z" fill="white"/>
<path d="M197.713 236.478L198.411 237.631L194.956 239.722L196.264 241.883L198.986 240.236L199.661 241.352L196.939 242.999L198.274 245.203L201.728 243.113L202.43 244.271L197.514 247.246L192.797 239.453L197.713 236.478Z" fill="white"/>
<path d="M204.296 233.968C204.311 234.07 204.304 234.155 204.274 234.222C204.248 234.287 204.2 234.343 204.132 234.392C204.063 234.44 203.968 234.468 203.845 234.477C203.721 234.483 203.577 234.494 203.415 234.51C203.252 234.527 203.073 234.565 202.879 234.625C202.686 234.679 202.483 234.78 202.269 234.93C202.077 235.065 201.925 235.207 201.815 235.357C201.705 235.501 201.63 235.649 201.588 235.801C201.55 235.951 201.548 236.102 201.582 236.252C201.613 236.4 201.677 236.542 201.774 236.679C201.897 236.855 202.048 236.967 202.226 237.016C202.408 237.063 202.608 237.071 202.828 237.04C203.047 237.009 203.283 236.954 203.535 236.874C203.787 236.794 204.046 236.718 204.313 236.644C204.58 236.564 204.851 236.501 205.128 236.456C205.401 236.407 205.672 236.402 205.94 236.44C206.205 236.474 206.462 236.565 206.711 236.714C206.962 236.861 207.197 237.089 207.414 237.398C207.651 237.735 207.814 238.092 207.905 238.47C207.997 238.842 208.008 239.216 207.94 239.593C207.872 239.964 207.723 240.325 207.492 240.677C207.26 241.025 206.937 241.344 206.525 241.634C206.288 241.8 206.037 241.94 205.773 242.054C205.511 242.171 205.244 242.262 204.97 242.325C204.7 242.387 204.43 242.423 204.16 242.433C203.894 242.44 203.636 242.421 203.388 242.375L203.323 241.427C203.327 241.352 203.344 241.281 203.374 241.214C203.404 241.141 203.453 241.082 203.518 241.036C203.604 240.976 203.722 240.947 203.872 240.949C204.02 240.947 204.191 240.943 204.386 240.934C204.584 240.924 204.799 240.891 205.032 240.835C205.266 240.773 205.511 240.652 205.769 240.471C206.164 240.193 206.405 239.885 206.491 239.548C206.575 239.207 206.494 238.861 206.247 238.51C206.11 238.314 205.948 238.19 205.761 238.136C205.578 238.08 205.377 238.067 205.157 238.098C204.935 238.126 204.701 238.183 204.454 238.269C204.206 238.356 203.952 238.439 203.691 238.52C203.429 238.601 203.162 238.666 202.888 238.715C202.614 238.763 202.342 238.767 202.072 238.726C201.802 238.685 201.536 238.584 201.275 238.424C201.014 238.258 200.764 238.004 200.525 237.664C200.335 237.393 200.202 237.091 200.128 236.758C200.056 236.423 200.054 236.083 200.12 235.739C200.19 235.393 200.334 235.053 200.551 234.72C200.769 234.387 201.073 234.085 201.461 233.812C201.901 233.503 202.355 233.287 202.822 233.163C203.29 233.04 203.741 233.01 204.176 233.074L204.296 233.968Z" fill="white"/>
<path d="M213.813 234.428C214.109 234.186 214.344 233.95 214.52 233.72C214.696 233.484 214.844 233.238 214.966 232.982L213.918 231.699L213.035 232.42C212.95 232.489 212.865 232.521 212.779 232.515C212.69 232.506 212.618 232.467 212.562 232.399L211.956 231.657L214.303 229.74L216.635 232.595C216.562 232.871 216.468 233.138 216.352 233.395C216.238 233.646 216.095 233.893 215.924 234.135C215.757 234.375 215.56 234.612 215.333 234.846C215.109 235.083 214.852 235.319 214.563 235.556C214.049 235.976 213.503 236.273 212.924 236.447C212.345 236.622 211.768 236.678 211.192 236.617C210.616 236.556 210.058 236.378 209.518 236.081C208.981 235.782 208.498 235.371 208.071 234.847C207.638 234.317 207.327 233.76 207.138 233.177C206.949 232.594 206.882 232.014 206.937 231.438C206.995 230.859 207.179 230.297 207.488 229.752C207.796 229.207 208.232 228.704 208.795 228.245C209.37 227.774 209.939 227.454 210.499 227.284C211.06 227.108 211.598 227.036 212.114 227.071L212.22 227.977C212.244 228.158 212.193 228.299 212.07 228.4C211.992 228.464 211.891 228.503 211.767 228.518C211.612 228.541 211.455 228.567 211.294 228.595C211.136 228.621 210.972 228.666 210.801 228.729C210.634 228.79 210.455 228.873 210.265 228.98C210.079 229.083 209.878 229.223 209.663 229.398C209.315 229.682 209.048 229.998 208.86 230.347C208.676 230.692 208.574 231.055 208.554 231.435C208.533 231.815 208.594 232.202 208.737 232.595C208.879 232.989 209.104 233.374 209.412 233.751C209.745 234.158 210.098 234.474 210.472 234.7C210.843 234.923 211.221 235.059 211.604 235.11C211.987 235.16 212.367 235.129 212.746 235.014C213.122 234.897 213.478 234.702 213.813 234.428Z" fill="white"/>
<defs>
<linearGradient id="paint0_linear_16704_173518" x1="136.288" y1="1" x2="136.288" y2="271.576" gradientUnits="userSpaceOnUse">
<stop stop-color="#00AF78"/>
<stop offset="1" stop-color="#00734F"/>
</linearGradient>
</defs>
</svg>
