<svg width="61" height="56" viewBox="0 0 61 56" fill="none" xmlns="http://www.w3.org/2000/svg">
<g opacity="0.4">
<path d="M12.6743 13.609L34.3666 50.5412C34.6862 51.0848 35.2059 51.4817 35.8144 51.6469C36.4229 51.8121 37.072 51.7326 37.6226 51.4253L47.8767 45.6021C48.1452 45.448 48.3803 45.2419 48.5683 44.996C48.7562 44.75 48.8934 44.4691 48.9717 44.1696C49.05 43.8701 49.0679 43.558 49.0243 43.2516C48.9807 42.9451 48.8766 42.6503 48.7179 42.3845L45.7031 37.2585L38.0246 41.605C37.887 41.6835 37.7238 41.7045 37.5709 41.6632C37.4179 41.6219 37.2874 41.5217 37.208 41.3846L36.6043 40.3607C36.5649 40.2941 36.5392 40.2204 36.5286 40.1437C36.518 40.0671 36.5227 39.9891 36.5425 39.9144C36.5623 39.8396 36.5968 39.7695 36.644 39.7082C36.6911 39.6468 36.75 39.5955 36.8172 39.5571L44.4937 35.1991L42.084 31.0961L38.5032 33.1276C38.3656 33.2062 38.2025 33.2271 38.0495 33.1858C37.8965 33.1445 37.766 33.0444 37.6866 32.9072L37.0829 31.8833C37.0433 31.8168 37.0174 31.743 37.0067 31.6664C36.996 31.5897 37.0007 31.5117 37.0205 31.4368C37.0403 31.362 37.0749 31.2919 37.1221 31.2305C37.1694 31.1692 37.2284 31.118 37.2958 31.0798L40.8866 29.0488L38.4765 24.9464L30.7875 29.3111C30.6499 29.3896 30.4868 29.4106 30.3338 29.3693C30.1808 29.328 30.0504 29.2279 29.971 29.0907L29.3673 28.0668C29.3279 28.0002 29.3021 27.9265 29.2915 27.8499C29.2809 27.7732 29.2856 27.6953 29.3055 27.6205C29.3253 27.5457 29.3597 27.4756 29.4069 27.4143C29.454 27.3529 29.5129 27.3016 29.5801 27.2632L37.2756 22.9023L34.8641 18.8009L31.279 20.8264C31.1414 20.905 30.9783 20.9259 30.8253 20.8846C30.6723 20.8433 30.5418 20.7432 30.4624 20.6061L29.8587 19.5822C29.8191 19.5156 29.7932 19.4419 29.7825 19.3652C29.7718 19.2885 29.7765 19.2105 29.7963 19.1357C29.8161 19.0608 29.8507 18.9907 29.898 18.9294C29.9452 18.8681 30.0042 18.8168 30.0716 18.7786L33.6591 16.7475L31.2494 12.6444L23.5637 17.0032C23.4261 17.0818 23.263 17.1027 23.11 17.0614C22.957 17.0201 22.8266 16.92 22.7472 16.7829L22.1435 15.759C22.1039 15.6924 22.078 15.6187 22.0673 15.542C22.0565 15.4653 22.0612 15.3873 22.0811 15.3124C22.1009 15.2376 22.1354 15.1675 22.1827 15.1062C22.23 15.0449 22.289 14.9936 22.3563 14.9554L30.044 10.59L27.0307 5.46134C26.7111 4.91776 26.1915 4.52089 25.5829 4.35565C24.9744 4.19041 24.3254 4.26994 23.7748 4.57722L13.5255 10.392C13.2555 10.5446 13.0188 10.7496 12.8293 10.995C12.6398 11.2405 12.5013 11.5213 12.422 11.8211C12.3426 12.1209 12.3241 12.4335 12.3674 12.7405C12.4108 13.0476 12.5151 13.3428 12.6743 13.609Z" fill="white"/>
<path d="M12.6743 13.609L34.3666 50.5412C34.6862 51.0848 35.2059 51.4817 35.8144 51.6469C36.4229 51.8121 37.072 51.7326 37.6226 51.4253L47.8767 45.6021C48.1452 45.448 48.3803 45.2419 48.5683 44.996C48.7562 44.75 48.8934 44.4691 48.9717 44.1696C49.05 43.8701 49.0679 43.558 49.0243 43.2516C48.9807 42.9451 48.8766 42.6503 48.7179 42.3845L45.7031 37.2585L38.0246 41.605C37.887 41.6835 37.7238 41.7045 37.5709 41.6632C37.4179 41.6219 37.2874 41.5217 37.208 41.3846L36.6043 40.3607C36.5649 40.2941 36.5392 40.2204 36.5286 40.1437C36.518 40.0671 36.5227 39.9891 36.5425 39.9144C36.5623 39.8396 36.5968 39.7695 36.644 39.7082C36.6911 39.6468 36.75 39.5955 36.8172 39.5571L44.4937 35.1991L42.084 31.0961L38.5032 33.1276C38.3656 33.2062 38.2025 33.2271 38.0495 33.1858C37.8965 33.1445 37.766 33.0444 37.6866 32.9072L37.0829 31.8833C37.0433 31.8168 37.0174 31.743 37.0067 31.6664C36.996 31.5897 37.0007 31.5117 37.0205 31.4368C37.0403 31.362 37.0749 31.2919 37.1221 31.2305C37.1694 31.1692 37.2284 31.118 37.2958 31.0798L40.8866 29.0488L38.4765 24.9464L30.7875 29.3111C30.6499 29.3896 30.4868 29.4106 30.3338 29.3693C30.1808 29.328 30.0504 29.2279 29.971 29.0907L29.3673 28.0668C29.3279 28.0002 29.3021 27.9265 29.2915 27.8499C29.2809 27.7732 29.2856 27.6953 29.3055 27.6205C29.3253 27.5457 29.3597 27.4756 29.4069 27.4143C29.454 27.3529 29.5129 27.3016 29.5801 27.2632L37.2756 22.9023L34.8641 18.8009L31.279 20.8264C31.1414 20.905 30.9783 20.9259 30.8253 20.8846C30.6723 20.8433 30.5418 20.7432 30.4624 20.6061L29.8587 19.5822C29.8191 19.5156 29.7932 19.4419 29.7825 19.3652C29.7718 19.2885 29.7765 19.2105 29.7963 19.1357C29.8161 19.0608 29.8507 18.9907 29.898 18.9294C29.9452 18.8681 30.0042 18.8168 30.0716 18.7786L33.6591 16.7475L31.2494 12.6444L23.5637 17.0032C23.4261 17.0818 23.263 17.1027 23.11 17.0614C22.957 17.0201 22.8266 16.92 22.7472 16.7829L22.1435 15.759C22.1039 15.6924 22.078 15.6187 22.0673 15.542C22.0565 15.4653 22.0612 15.3873 22.0811 15.3124C22.1009 15.2376 22.1354 15.1675 22.1827 15.1062C22.23 15.0449 22.289 14.9936 22.3563 14.9554L30.044 10.59L27.0307 5.46134C26.7111 4.91776 26.1915 4.52089 25.5829 4.35565C24.9744 4.19041 24.3254 4.26994 23.7748 4.57722L13.5255 10.392C13.2555 10.5446 13.0188 10.7496 12.8293 10.995C12.6398 11.2405 12.5013 11.5213 12.422 11.8211C12.3426 12.1209 12.3241 12.4335 12.3674 12.7405C12.4108 13.0476 12.5151 13.3428 12.6743 13.609Z" fill="url(#paint0_linear_17104_72495)"/>
</g>
<path d="M44.4977 35.1987L45.7045 37.2566L38.026 41.6031C37.8883 41.6816 37.7252 41.7026 37.5722 41.6613C37.4192 41.62 37.2888 41.5199 37.2094 41.3827L36.6057 40.3588C36.5663 40.2922 36.5406 40.2185 36.53 40.1419C36.5193 40.0652 36.5241 39.9873 36.5439 39.9125C36.5637 39.8377 36.5982 39.7676 36.6453 39.7063C36.6925 39.645 36.7514 39.5936 36.8185 39.5553L44.4977 35.1987ZM37.2766 22.9011L38.4772 24.9458L30.7878 29.3111C30.6502 29.3897 30.4871 29.4106 30.3341 29.3694C30.1811 29.3281 30.0506 29.2279 29.9712 29.0908L29.3675 28.0669C29.3281 28.0003 29.3024 27.9266 29.2918 27.8499C29.2812 27.7733 29.2859 27.6953 29.3057 27.6205C29.3255 27.5458 29.36 27.4757 29.4072 27.4143C29.4543 27.353 29.5132 27.3017 29.5804 27.2633L37.2766 22.9011ZM40.8869 29.0489L42.088 31.0957L38.5072 33.1272C38.3695 33.2058 38.2064 33.2267 38.0534 33.1854C37.9004 33.1441 37.77 33.044 37.6906 32.9069L37.0869 31.8829C37.0473 31.8164 37.0214 31.7427 37.0107 31.666C37 31.5893 37.0047 31.5113 37.0245 31.4364C37.0443 31.3616 37.0789 31.2915 37.1261 31.2302C37.1734 31.1689 37.2324 31.1176 37.2997 31.0794L40.8869 29.0489ZM22.3567 14.9538L30.0464 10.5878L31.2496 12.6445L23.5636 17.0039C23.426 17.0825 23.2629 17.1034 23.1099 17.0621C22.9569 17.0209 22.8265 16.9207 22.7471 16.7836L22.1434 15.7597C22.1038 15.6931 22.0779 15.6194 22.0671 15.5427C22.0564 15.466 22.0611 15.388 22.0809 15.3132C22.1008 15.2383 22.1353 15.1682 22.1826 15.1069C22.2298 15.0456 22.2889 14.9943 22.3562 14.9561L22.3567 14.9538ZM33.6612 16.7443L34.8644 18.8009L31.2792 20.8265C31.1416 20.9051 30.9785 20.926 30.8255 20.8847C30.6725 20.8434 30.5421 20.7433 30.4627 20.6061L29.859 19.5822C29.8194 19.5157 29.7935 19.4419 29.7828 19.3653C29.7721 19.2886 29.7767 19.2106 29.7966 19.1357C29.8164 19.0609 29.8509 18.9908 29.8982 18.9294C29.9455 18.8681 30.0045 18.8169 30.0718 18.7787L33.6612 16.7443Z" fill="white"/>
<path d="M44.4977 35.1987L45.7045 37.2566L38.026 41.6031C37.8883 41.6816 37.7252 41.7026 37.5722 41.6613C37.4192 41.62 37.2888 41.5199 37.2094 41.3827L36.6057 40.3588C36.5663 40.2922 36.5406 40.2185 36.53 40.1419C36.5193 40.0652 36.5241 39.9873 36.5439 39.9125C36.5637 39.8377 36.5982 39.7676 36.6453 39.7063C36.6925 39.645 36.7514 39.5936 36.8185 39.5553L44.4977 35.1987ZM37.2766 22.9011L38.4772 24.9458L30.7878 29.3111C30.6502 29.3897 30.4871 29.4106 30.3341 29.3694C30.1811 29.3281 30.0506 29.2279 29.9712 29.0908L29.3675 28.0669C29.3281 28.0003 29.3024 27.9266 29.2918 27.8499C29.2812 27.7733 29.2859 27.6953 29.3057 27.6205C29.3255 27.5458 29.36 27.4757 29.4072 27.4143C29.4543 27.353 29.5132 27.3017 29.5804 27.2633L37.2766 22.9011ZM40.8869 29.0489L42.088 31.0957L38.5072 33.1272C38.3695 33.2058 38.2064 33.2267 38.0534 33.1854C37.9004 33.1441 37.77 33.044 37.6906 32.9069L37.0869 31.8829C37.0473 31.8164 37.0214 31.7427 37.0107 31.666C37 31.5893 37.0047 31.5113 37.0245 31.4364C37.0443 31.3616 37.0789 31.2915 37.1261 31.2302C37.1734 31.1689 37.2324 31.1176 37.2997 31.0794L40.8869 29.0489ZM22.3567 14.9538L30.0464 10.5878L31.2496 12.6445L23.5636 17.0039C23.426 17.0825 23.2629 17.1034 23.1099 17.0621C22.9569 17.0209 22.8265 16.9207 22.7471 16.7836L22.1434 15.7597C22.1038 15.6931 22.0779 15.6194 22.0671 15.5427C22.0564 15.466 22.0611 15.388 22.0809 15.3132C22.1008 15.2383 22.1353 15.1682 22.1826 15.1069C22.2298 15.0456 22.2889 14.9943 22.3562 14.9561L22.3567 14.9538ZM33.6612 16.7443L34.8644 18.8009L31.2792 20.8265C31.1416 20.9051 30.9785 20.926 30.8255 20.8847C30.6725 20.8434 30.5421 20.7433 30.4627 20.6061L29.859 19.5822C29.8194 19.5157 29.7935 19.4419 29.7828 19.3653C29.7721 19.2886 29.7767 19.2106 29.7966 19.1357C29.8164 19.0609 29.8509 18.9908 29.8982 18.9294C29.9455 18.8681 30.0045 18.8169 30.0718 18.7787L33.6612 16.7443Z" fill="url(#paint1_linear_17104_72495)"/>
<defs>
<linearGradient id="paint0_linear_17104_72495" x1="39.6956" y1="12.4111" x2="21.6956" y2="43.588" gradientUnits="userSpaceOnUse">
<stop stop-color="#23E9FF"/>
<stop offset="1" stop-color="#03BBCF"/>
</linearGradient>
<linearGradient id="paint1_linear_17104_72495" x1="39.7194" y1="16.1725" x2="28.1356" y2="36.2363" gradientUnits="userSpaceOnUse">
<stop stop-color="#23E9FF"/>
<stop offset="1" stop-color="#03BBCF"/>
</linearGradient>
</defs>
</svg>
