<svg width="37" height="33" viewBox="0 0 37 33" fill="none" xmlns="http://www.w3.org/2000/svg">
<g opacity="0.4">
<path d="M32.5397 6.19695L26.5161 11.0173C26.5417 11.1653 26.5565 11.3151 26.5603 11.4653C26.5603 12.2698 26.2407 13.0413 25.6719 13.6101C25.103 14.179 24.3315 14.4986 23.527 14.4986C22.7225 14.4986 21.951 14.179 21.3822 13.6101C20.8133 13.0413 20.4937 12.2698 20.4937 11.4653C20.4974 11.3148 20.5124 11.1649 20.5386 11.0166L14.5144 6.19695C13.9189 6.44106 13.2583 6.47648 12.6401 6.29742L6.22592 12.7115C6.38666 13.3228 6.35197 13.9692 6.1267 14.5598C5.90143 15.1504 5.4969 15.6557 4.96987 16.0048C4.44284 16.3538 3.81975 16.5291 3.18802 16.5061C2.5563 16.483 1.94765 16.2627 1.44747 15.8762C0.947291 15.4896 0.580681 14.9562 0.39908 14.3507C0.217479 13.7452 0.230001 13.0981 0.434888 12.5001C0.639776 11.9021 1.02675 11.3832 1.54151 11.0163C2.05627 10.6494 2.67298 10.4528 3.30512 10.4542C3.56758 10.4579 3.82844 10.4957 4.08114 10.5667L10.4953 4.15267C10.4243 3.89998 10.3865 3.63912 10.3828 3.37666C10.3828 2.5722 10.7024 1.80068 11.2712 1.23184C11.8401 0.662995 12.6116 0.343423 13.4161 0.343423C14.2205 0.343423 14.9921 0.662995 15.5609 1.23184C16.1298 1.80068 16.4494 2.5722 16.4494 3.37666C16.4457 3.52713 16.4307 3.67711 16.4045 3.82533L22.4281 8.64439C23.1328 8.36044 23.92 8.36044 24.6247 8.64439L30.6496 3.8247C30.6237 3.67665 30.6087 3.52691 30.6047 3.37666C30.5998 2.72233 30.8051 2.08372 31.1904 1.55479C31.5756 1.02586 32.1205 0.634554 32.7447 0.438446C33.369 0.242338 34.0398 0.251785 34.6583 0.465399C35.2768 0.679012 35.8104 1.08551 36.1806 1.62508C36.5508 2.16465 36.738 2.80879 36.7147 3.46273C36.6914 4.11666 36.4589 4.74586 36.0512 5.25773C35.6436 5.76959 35.0824 6.1371 34.4503 6.30618C33.8181 6.47526 33.1484 6.43697 32.5397 6.19695Z" fill="white"/>
<path d="M32.5397 6.19695L26.5161 11.0173C26.5417 11.1653 26.5565 11.3151 26.5603 11.4653C26.5603 12.2698 26.2407 13.0413 25.6719 13.6101C25.103 14.179 24.3315 14.4986 23.527 14.4986C22.7225 14.4986 21.951 14.179 21.3822 13.6101C20.8133 13.0413 20.4937 12.2698 20.4937 11.4653C20.4974 11.3148 20.5124 11.1649 20.5386 11.0166L14.5144 6.19695C13.9189 6.44106 13.2583 6.47648 12.6401 6.29742L6.22592 12.7115C6.38666 13.3228 6.35197 13.9692 6.1267 14.5598C5.90143 15.1504 5.4969 15.6557 4.96987 16.0048C4.44284 16.3538 3.81975 16.5291 3.18802 16.5061C2.5563 16.483 1.94765 16.2627 1.44747 15.8762C0.947291 15.4896 0.580681 14.9562 0.39908 14.3507C0.217479 13.7452 0.230001 13.0981 0.434888 12.5001C0.639776 11.9021 1.02675 11.3832 1.54151 11.0163C2.05627 10.6494 2.67298 10.4528 3.30512 10.4542C3.56758 10.4579 3.82844 10.4957 4.08114 10.5667L10.4953 4.15267C10.4243 3.89998 10.3865 3.63912 10.3828 3.37666C10.3828 2.5722 10.7024 1.80068 11.2712 1.23184C11.8401 0.662995 12.6116 0.343423 13.4161 0.343423C14.2205 0.343423 14.9921 0.662995 15.5609 1.23184C16.1298 1.80068 16.4494 2.5722 16.4494 3.37666C16.4457 3.52713 16.4307 3.67711 16.4045 3.82533L22.4281 8.64439C23.1328 8.36044 23.92 8.36044 24.6247 8.64439L30.6496 3.8247C30.6237 3.67665 30.6087 3.52691 30.6047 3.37666C30.5998 2.72233 30.8051 2.08372 31.1904 1.55479C31.5756 1.02586 32.1205 0.634554 32.7447 0.438446C33.369 0.242338 34.0398 0.251785 34.6583 0.465399C35.2768 0.679012 35.8104 1.08551 36.1806 1.62508C36.5508 2.16465 36.738 2.80879 36.7147 3.46273C36.6914 4.11666 36.4589 4.74586 36.0512 5.25773C35.6436 5.76959 35.0824 6.1371 34.4503 6.30618C33.8181 6.47526 33.1484 6.43697 32.5397 6.19695Z" fill="url(#paint0_linear_17104_60730)"/>
</g>
<path d="M25.5501 20.565H21.5057C21.2375 20.565 20.9804 20.6716 20.7908 20.8612C20.6011 21.0508 20.4946 21.308 20.4946 21.5761V31.6869C20.4946 31.9551 20.6011 32.2123 20.7908 32.4019C20.9804 32.5915 21.2375 32.698 21.5057 32.698H25.5501C25.8182 32.698 26.0754 32.5915 26.265 32.4019C26.4547 32.2123 26.5612 31.9551 26.5612 31.6869V21.5761C26.5612 21.308 26.4547 21.0508 26.265 20.8612C26.0754 20.6716 25.8182 20.565 25.5501 20.565ZM35.661 12.4764H31.6167C31.3485 12.4764 31.0913 12.5829 30.9017 12.7725C30.7121 12.9621 30.6056 13.2193 30.6056 13.4875V31.6869C30.6056 31.9551 30.7121 32.2123 30.9017 32.4019C31.0913 32.5915 31.3485 32.698 31.6167 32.698H35.661C35.9292 32.698 36.1864 32.5915 36.376 32.4019C36.5656 32.2123 36.6721 31.9551 36.6721 31.6869V13.4875C36.6721 13.2193 36.5656 12.9621 36.376 12.7725C36.1864 12.5829 35.9292 12.4764 35.661 12.4764ZM15.4391 12.4764H11.3948C11.1266 12.4764 10.8694 12.5829 10.6798 12.7725C10.4902 12.9621 10.3837 13.2193 10.3837 13.4875V31.6869C10.3837 31.9551 10.4902 32.2123 10.6798 32.4019C10.8694 32.5915 11.1266 32.698 11.3948 32.698H15.4391C15.7073 32.698 15.9645 32.5915 16.1541 32.4019C16.3437 32.2123 16.4502 31.9551 16.4502 31.6869V13.4875C16.4502 13.2193 16.3437 12.9621 16.1541 12.7725C15.9645 12.5829 15.7073 12.4764 15.4391 12.4764ZM5.32818 22.5872H1.2838C1.01564 22.5872 0.758465 22.6937 0.568848 22.8833C0.379231 23.073 0.272705 23.3301 0.272705 23.5983L0.272705 31.6869C0.272705 31.9551 0.379231 32.2123 0.568848 32.4019C0.758465 32.5915 1.01564 32.698 1.2838 32.698H5.32818C5.59634 32.698 5.85352 32.5915 6.04313 32.4019C6.23275 32.2123 6.33928 31.9551 6.33928 31.6869V23.5983C6.33928 23.3301 6.23275 23.073 6.04313 22.8833C5.85352 22.6937 5.59634 22.5872 5.32818 22.5872Z" fill="white"/>
<path d="M25.5501 20.565H21.5057C21.2375 20.565 20.9804 20.6716 20.7908 20.8612C20.6011 21.0508 20.4946 21.308 20.4946 21.5761V31.6869C20.4946 31.9551 20.6011 32.2123 20.7908 32.4019C20.9804 32.5915 21.2375 32.698 21.5057 32.698H25.5501C25.8182 32.698 26.0754 32.5915 26.265 32.4019C26.4547 32.2123 26.5612 31.9551 26.5612 31.6869V21.5761C26.5612 21.308 26.4547 21.0508 26.265 20.8612C26.0754 20.6716 25.8182 20.565 25.5501 20.565ZM35.661 12.4764H31.6167C31.3485 12.4764 31.0913 12.5829 30.9017 12.7725C30.7121 12.9621 30.6056 13.2193 30.6056 13.4875V31.6869C30.6056 31.9551 30.7121 32.2123 30.9017 32.4019C31.0913 32.5915 31.3485 32.698 31.6167 32.698H35.661C35.9292 32.698 36.1864 32.5915 36.376 32.4019C36.5656 32.2123 36.6721 31.9551 36.6721 31.6869V13.4875C36.6721 13.2193 36.5656 12.9621 36.376 12.7725C36.1864 12.5829 35.9292 12.4764 35.661 12.4764ZM15.4391 12.4764H11.3948C11.1266 12.4764 10.8694 12.5829 10.6798 12.7725C10.4902 12.9621 10.3837 13.2193 10.3837 13.4875V31.6869C10.3837 31.9551 10.4902 32.2123 10.6798 32.4019C10.8694 32.5915 11.1266 32.698 11.3948 32.698H15.4391C15.7073 32.698 15.9645 32.5915 16.1541 32.4019C16.3437 32.2123 16.4502 31.9551 16.4502 31.6869V13.4875C16.4502 13.2193 16.3437 12.9621 16.1541 12.7725C15.9645 12.5829 15.7073 12.4764 15.4391 12.4764ZM5.32818 22.5872H1.2838C1.01564 22.5872 0.758465 22.6937 0.568848 22.8833C0.379231 23.073 0.272705 23.3301 0.272705 23.5983L0.272705 31.6869C0.272705 31.9551 0.379231 32.2123 0.568848 32.4019C0.758465 32.5915 1.01564 32.698 1.2838 32.698H5.32818C5.59634 32.698 5.85352 32.5915 6.04313 32.4019C6.23275 32.2123 6.33928 31.9551 6.33928 31.6869V23.5983C6.33928 23.3301 6.23275 23.073 6.04313 22.8833C5.85352 22.6937 5.59634 22.5872 5.32818 22.5872Z" fill="url(#paint1_linear_17104_60730)"/>
<defs>
<linearGradient id="paint0_linear_17104_60730" x1="18.4941" y1="0.297974" x2="18.4941" y2="16.5081" gradientUnits="userSpaceOnUse">
<stop stop-color="#56F0CF"/>
<stop offset="1" stop-color="#40B89E"/>
</linearGradient>
<linearGradient id="paint1_linear_17104_60730" x1="18.4724" y1="12.4764" x2="18.4724" y2="32.698" gradientUnits="userSpaceOnUse">
<stop stop-color="#56F0CF"/>
<stop offset="1" stop-color="#40B89E"/>
</linearGradient>
</defs>
</svg>
