<svg width="52" height="37" viewBox="0 0 52 37" fill="none" xmlns="http://www.w3.org/2000/svg">
<g opacity="0.4">
<path d="M11.7697 36.1998C5.37887 36.1998 0.198242 31.0168 0.198242 24.6284C0.198242 19.5819 3.42619 15.2909 7.9286 13.7078C7.91815 13.4909 7.91253 13.2739 7.91253 13.0569C7.91253 5.95337 13.6661 0.199799 20.7697 0.199799C25.5348 0.199799 29.6893 2.79132 31.9152 6.64444C33.1366 5.75248 34.6152 5.34266 36.1982 5.34266C40.4572 5.34266 43.9125 8.72569 43.9125 13.0569C43.9125 14.0373 43.7277 14.9694 43.3982 15.8373C48.0911 16.7855 51.6268 20.94 51.6268 25.9141C51.6268 31.5953 47.0224 36.1998 41.3411 36.1998H11.7697Z" fill="white"/>
<path d="M11.7697 36.1998C5.37887 36.1998 0.198242 31.0168 0.198242 24.6284C0.198242 19.5819 3.42619 15.2909 7.9286 13.7078C7.91815 13.4909 7.91253 13.2739 7.91253 13.0569C7.91253 5.95337 13.6661 0.199799 20.7697 0.199799C25.5348 0.199799 29.6893 2.79132 31.9152 6.64444C33.1366 5.75248 34.6152 5.34266 36.1982 5.34266C40.4572 5.34266 43.9125 8.72569 43.9125 13.0569C43.9125 14.0373 43.7277 14.9694 43.3982 15.8373C48.0911 16.7855 51.6268 20.94 51.6268 25.9141C51.6268 31.5953 47.0224 36.1998 41.3411 36.1998H11.7697Z" fill="url(#paint0_linear_17104_70944)"/>
</g>
<path fill-rule="evenodd" clip-rule="evenodd" d="M33.4275 23.1957L35.824 20.8472C36.3345 20.2887 37.2474 20.2887 37.812 20.8472C38.3706 21.4118 38.3706 22.3248 37.812 22.8353L33.007 27.6403C32.4424 28.253 31.5295 28.253 31.0189 27.6403L26.2139 22.8353C25.6013 22.3248 25.6013 21.4118 26.2139 20.8472C26.7245 20.2887 27.6374 20.2887 28.202 20.8472L30.5445 23.1957L30.5445 15.1413C30.5445 14.3425 31.1871 13.6998 31.986 13.6998C32.7848 13.6998 33.4275 14.3425 33.4275 15.1413L33.4275 23.1957ZM20.4706 18.6039L22.8671 20.9523C23.3776 21.5109 24.2906 21.5109 24.8552 20.9523C25.4138 20.3878 25.4138 19.4748 24.8552 18.9643L20.0502 14.1593C19.4856 13.5466 18.5726 13.5466 18.0621 14.1593L13.2571 18.9643C12.6445 19.4748 12.6445 20.3878 13.2571 20.9523C13.7676 21.5109 14.6806 21.5109 15.2452 20.9523L17.5876 18.6039L17.5876 26.6583C17.5876 27.4571 18.2303 28.0998 19.0291 28.0998C19.8279 28.0998 20.4706 27.4571 20.4706 26.6583L20.4706 18.6039Z" fill="white"/>
<path fill-rule="evenodd" clip-rule="evenodd" d="M33.4275 23.1957L35.824 20.8472C36.3345 20.2887 37.2474 20.2887 37.812 20.8472C38.3706 21.4118 38.3706 22.3248 37.812 22.8353L33.007 27.6403C32.4424 28.253 31.5295 28.253 31.0189 27.6403L26.2139 22.8353C25.6013 22.3248 25.6013 21.4118 26.2139 20.8472C26.7245 20.2887 27.6374 20.2887 28.202 20.8472L30.5445 23.1957L30.5445 15.1413C30.5445 14.3425 31.1871 13.6998 31.986 13.6998C32.7848 13.6998 33.4275 14.3425 33.4275 15.1413L33.4275 23.1957ZM20.4706 18.6039L22.8671 20.9523C23.3776 21.5109 24.2906 21.5109 24.8552 20.9523C25.4138 20.3878 25.4138 19.4748 24.8552 18.9643L20.0502 14.1593C19.4856 13.5466 18.5726 13.5466 18.0621 14.1593L13.2571 18.9643C12.6445 19.4748 12.6445 20.3878 13.2571 20.9523C13.7676 21.5109 14.6806 21.5109 15.2452 20.9523L17.5876 18.6039L17.5876 26.6583C17.5876 27.4571 18.2303 28.0998 19.0291 28.0998C19.8279 28.0998 20.4706 27.4571 20.4706 26.6583L20.4706 18.6039Z" fill="url(#paint1_linear_17104_70944)"/>
<defs>
<linearGradient id="paint0_linear_17104_70944" x1="25.9125" y1="0.199799" x2="25.9125" y2="36.1998" gradientUnits="userSpaceOnUse">
<stop stop-color="#BCF753"/>
<stop offset="1" stop-color="#7BBE02"/>
</linearGradient>
<linearGradient id="paint1_linear_17104_70944" x1="25.5143" y1="28.0998" x2="25.5143" y2="13.6998" gradientUnits="userSpaceOnUse">
<stop stop-color="#BCF753"/>
<stop offset="1" stop-color="#7BBE02"/>
</linearGradient>
</defs>
</svg>
