<svg width="51" height="42" viewBox="0 0 51 42" fill="none" xmlns="http://www.w3.org/2000/svg">
<path fill-rule="evenodd" clip-rule="evenodd" d="M36 10.3972V13.8285C35.6273 13.7933 35.2547 13.7722 34.875 13.7722C30.0656 13.7722 25.9102 16.5214 23.8641 20.5222H0V10.3972C0 8.59722 1.5757 7.02222 3.375 7.02222H9V3.64722C9 1.84792 10.575 0.272217 12.375 0.272217H23.625C25.425 0.272217 27 1.84792 27 3.64722V7.02222H32.625C34.425 7.02222 36 8.59722 36 10.3972ZM12.375 7.02222H23.625V3.64722H12.375V7.02222Z" fill="white"/>
<path fill-rule="evenodd" clip-rule="evenodd" d="M36 10.3972V13.8285C35.6273 13.7933 35.2547 13.7722 34.875 13.7722C30.0656 13.7722 25.9102 16.5214 23.8641 20.5222H0V10.3972C0 8.59722 1.5757 7.02222 3.375 7.02222H9V3.64722C9 1.84792 10.575 0.272217 12.375 0.272217H23.625C25.425 0.272217 27 1.84792 27 3.64722V7.02222H32.625C34.425 7.02222 36 8.59722 36 10.3972ZM12.375 7.02222H23.625V3.64722H12.375V7.02222Z" fill="url(#paint0_linear_17104_70564)"/>
<g opacity="0.4">
<path d="M22.5073 27.0218H14.6252C14.0065 27.0218 13.5002 26.5156 13.5002 25.8968V22.5218H0.000244141V32.6468C0.000244141 34.4468 1.57595 36.0218 3.37524 36.0218H25.3268C23.562 33.8843 22.5002 31.1351 22.5002 28.1468C22.5002 27.7671 22.5354 27.3945 22.5073 27.0218Z" fill="white"/>
<path d="M22.5073 27.0218H14.6252C14.0065 27.0218 13.5002 26.5156 13.5002 25.8968V22.5218H0.000244141V32.6468C0.000244141 34.4468 1.57595 36.0218 3.37524 36.0218H25.3268C23.562 33.8843 22.5002 31.1351 22.5002 28.1468C22.5002 27.7671 22.5354 27.3945 22.5073 27.0218Z" fill="url(#paint1_linear_17104_70564)"/>
</g>
<g opacity="0.4">
<path d="M41.3332 17.7087C36.1282 14.7035 29.4857 16.4834 26.4805 21.6885C23.4754 26.8936 25.2539 33.5353 30.4603 36.5412C35.6667 39.5471 42.3071 37.7678 45.313 32.5614C48.3189 27.355 46.5383 20.7139 41.3332 17.7087Z" fill="white"/>
<path d="M41.3332 17.7087C36.1282 14.7035 29.4857 16.4834 26.4805 21.6885C23.4754 26.8936 25.2539 33.5353 30.4603 36.5412C35.6667 39.5471 42.3071 37.7678 45.313 32.5614C48.3189 27.355 46.5383 20.7139 41.3332 17.7087Z" fill="url(#paint2_linear_17104_70564)"/>
</g>
<path d="M31.9299 32.5783L29.9394 26.0543C29.6034 24.9587 29.7401 23.7727 30.3126 22.7811L30.3926 22.6425C31.357 20.9722 33.3859 20.2447 35.1909 20.9205C36.3854 21.368 37.2886 22.3642 37.6178 23.5929L37.739 24.0452L38.1913 23.924C39.4201 23.5948 40.7344 23.8788 41.7191 24.6895C43.2069 25.9149 43.5913 28.0357 42.627 29.706L42.547 29.8446C41.9744 30.8362 41.0158 31.5476 39.8989 31.8044L33.2537 33.3426C32.9779 33.4064 32.6875 33.363 32.4414 33.221C32.1953 33.0789 32.0125 32.8491 31.9299 32.5783Z" fill="white"/>
<path d="M31.9299 32.5783L29.9394 26.0543C29.6034 24.9587 29.7401 23.7727 30.3126 22.7811L30.3926 22.6425C31.357 20.9722 33.3859 20.2447 35.1909 20.9205C36.3854 21.368 37.2886 22.3642 37.6178 23.5929L37.739 24.0452L38.1913 23.924C39.4201 23.5948 40.7344 23.8788 41.7191 24.6895C43.2069 25.9149 43.5913 28.0357 42.627 29.706L42.547 29.8446C41.9744 30.8362 41.0158 31.5476 39.8989 31.8044L33.2537 33.3426C32.9779 33.4064 32.6875 33.363 32.4414 33.221C32.1953 33.0789 32.0125 32.8491 31.9299 32.5783Z" fill="url(#paint3_linear_17104_70564)"/>
<defs>
<linearGradient id="paint0_linear_17104_70564" x1="18" y1="0.272217" x2="18" y2="20.5222" gradientUnits="userSpaceOnUse">
<stop stop-color="#FFB648"/>
<stop offset="1" stop-color="#FF9900"/>
</linearGradient>
<linearGradient id="paint1_linear_17104_70564" x1="12.6635" y1="22.5218" x2="12.6635" y2="36.0218" gradientUnits="userSpaceOnUse">
<stop stop-color="#FFB648"/>
<stop offset="1" stop-color="#FF9900"/>
</linearGradient>
<linearGradient id="paint2_linear_17104_70564" x1="41.3332" y1="17.7087" x2="30.4603" y2="36.5412" gradientUnits="userSpaceOnUse">
<stop stop-color="#FFB648"/>
<stop offset="1" stop-color="#FF9900"/>
</linearGradient>
<linearGradient id="paint3_linear_17104_70564" x1="38.4819" y1="22.7584" x2="32.4414" y2="33.2209" gradientUnits="userSpaceOnUse">
<stop stop-color="#FFB648"/>
<stop offset="1" stop-color="#FF9900"/>
</linearGradient>
</defs>
</svg>
