<svg width="273" height="273" viewBox="0 0 273 273" fill="none" xmlns="http://www.w3.org/2000/svg">
<path fill-rule="evenodd" clip-rule="evenodd" d="M157.787 1C151.75 5.57409 144.225 8.28788 136.067 8.28788C127.909 8.28788 120.385 5.57409 114.347 1C56.0799 10.2813 10.0607 56.3006 0.779297 114.568C5.35337 120.605 8.06716 128.13 8.06716 136.288C8.06716 144.446 5.35337 151.971 0.779297 158.008C10.0607 216.275 56.0799 262.294 114.347 271.576C120.385 267.002 127.909 264.288 136.067 264.288C144.225 264.288 151.75 267.002 157.787 271.576C216.054 262.294 262.074 216.275 271.355 158.008C266.781 151.971 264.067 144.446 264.067 136.288C264.067 128.13 266.781 120.605 271.355 114.568C262.074 56.3006 216.054 10.2813 157.787 1ZM136.067 245.888C75.5368 245.888 26.4672 196.818 26.4672 136.288C26.4672 75.7575 75.5368 26.6879 136.067 26.6879C196.598 26.6879 245.667 75.7575 245.667 136.288C245.667 196.818 196.598 245.888 136.067 245.888Z" fill="url(#paint0_linear_17143_24762)"/>
<path fill-rule="evenodd" clip-rule="evenodd" d="M157.787 1C151.75 5.57409 144.225 8.28788 136.067 8.28788C127.909 8.28788 120.385 5.57409 114.347 1C56.0799 10.2813 10.0607 56.3006 0.779297 114.568C5.35337 120.605 8.06716 128.13 8.06716 136.288C8.06716 144.446 5.35337 151.971 0.779297 158.008C10.0607 216.275 56.0799 262.294 114.347 271.576C120.385 267.002 127.909 264.288 136.067 264.288C144.225 264.288 151.75 267.002 157.787 271.576C216.054 262.294 262.074 216.275 271.355 158.008C266.781 151.971 264.067 144.446 264.067 136.288C264.067 128.13 266.781 120.605 271.355 114.568C262.074 56.3006 216.054 10.2813 157.787 1ZM136.067 245.888C75.5368 245.888 26.4672 196.818 26.4672 136.288C26.4672 75.7575 75.5368 26.6879 136.067 26.6879C196.598 26.6879 245.667 75.7575 245.667 136.288C245.667 196.818 196.598 245.888 136.067 245.888Z" fill="url(#paint1_linear_17143_24762)"/>
<path d="M16.7793 135.957C16.7793 138.166 14.9884 139.957 12.7793 139.957C10.5702 139.957 8.7793 138.166 8.7793 135.957C8.7793 133.748 10.5702 131.957 12.7793 131.957C14.9884 131.957 16.7793 133.748 16.7793 135.957Z" fill="white"/>
<path d="M262.999 135.957C262.999 138.166 261.208 139.957 258.999 139.957C256.79 139.957 254.999 138.166 254.999 135.957C254.999 133.748 256.79 131.957 258.999 131.957C261.208 131.957 262.999 133.748 262.999 135.957Z" fill="white"/>
<path d="M44.5305 50.4336L45.5517 51.3139L42.9152 54.3727L44.8287 56.0221L46.9059 53.6122L47.8937 54.4636L45.8165 56.8735L47.7683 58.5558L50.4048 55.4969L51.4308 56.3812L47.6796 60.7333L40.7793 54.7857L44.5305 50.4336Z" fill="white"/>
<path d="M50.8293 46.2539C50.8628 46.3516 50.871 46.4362 50.8537 46.5076C50.8395 46.576 50.8029 46.6402 50.744 46.7001C50.6851 46.76 50.5964 46.8053 50.4779 46.836C50.3563 46.8638 50.2171 46.9006 50.06 46.9465C49.903 46.9923 49.7343 47.0621 49.554 47.1557C49.3735 47.2434 49.1921 47.38 49.0095 47.5657C48.8446 47.7334 48.7213 47.9008 48.6395 48.0678C48.5578 48.2289 48.5101 48.3882 48.4966 48.5457C48.486 48.7002 48.511 48.8485 48.5716 48.9906C48.6293 49.1297 48.718 49.2581 48.8378 49.3759C48.9905 49.526 49.159 49.6093 49.3433 49.6255C49.5305 49.6388 49.7293 49.6104 49.9395 49.5403C50.1498 49.4702 50.3717 49.3732 50.6053 49.2495C50.8389 49.1257 51.0799 49.0034 51.3283 48.8825C51.5767 48.7556 51.8327 48.6451 52.0962 48.5508C52.3568 48.4535 52.6221 48.3993 52.8923 48.3881C53.1594 48.3739 53.4286 48.4177 53.6997 48.5193C53.9738 48.618 54.2456 48.7998 54.5152 49.0648C54.8087 49.3534 55.0341 49.6752 55.1916 50.0302C55.349 50.3793 55.4279 50.7455 55.4281 51.1286C55.4284 51.5058 55.347 51.8881 55.1839 52.2756C55.0179 52.6601 54.7583 53.0321 54.4049 53.3915C54.2017 53.5981 53.9806 53.7812 53.7413 53.9406C53.5051 54.103 53.2583 54.2402 53.0009 54.3523C52.7464 54.4614 52.4872 54.5453 52.2234 54.6039C51.9625 54.6596 51.7058 54.687 51.4534 54.6862L51.2184 53.766C51.2088 53.6919 51.2127 53.6191 51.2299 53.5476C51.247 53.4703 51.2836 53.4031 51.3395 53.3462C51.4131 53.2714 51.5241 53.2214 51.6724 53.1964C51.8177 53.1684 51.9852 53.1329 52.1749 53.0897C52.3675 53.0435 52.5733 52.9719 52.7923 52.875C53.0112 52.7722 53.2311 52.6085 53.4519 52.3838C53.7905 52.0394 53.9717 51.6934 53.9955 51.3457C54.0163 50.9951 53.8739 50.6696 53.5684 50.3692C53.3977 50.2014 53.2158 50.1079 53.0225 50.0887C52.8323 50.0666 52.632 50.0906 52.4217 50.1607C52.2085 50.2278 51.9881 50.3262 51.7605 50.4559C51.5329 50.5855 51.2979 50.7137 51.0554 50.8405C50.8129 50.9673 50.5614 51.0794 50.3009 51.1766C50.0404 51.2739 49.7735 51.3266 49.5004 51.3349C49.2272 51.3431 48.9476 51.292 48.6615 51.1816C48.3754 51.0653 48.0841 50.8613 47.7876 50.5698C47.551 50.3372 47.3661 50.064 47.2327 49.7504C47.1023 49.4337 47.0386 49.1001 47.0416 48.7496C47.0475 48.3962 47.1276 48.0361 47.2819 47.6695C47.4361 47.3029 47.6797 46.9504 48.0124 46.6119C48.3893 46.2286 48.7966 45.934 49.2344 45.7284C49.6722 45.5227 50.1109 45.4121 50.5503 45.3964L50.8293 46.2539Z" fill="white"/>
<path d="M60.5812 45.6885C60.8692 45.4373 61.0972 45.1939 61.2652 44.9583C61.4335 44.7168 61.5742 44.4659 61.6872 44.2058L60.5983 42.957L59.7388 43.7064C59.6565 43.7782 59.5723 43.8126 59.4862 43.8097C59.3973 43.8036 59.3239 43.7673 59.2659 43.7008L58.6366 42.9791L60.9205 40.9875L63.3427 43.7653C63.279 44.0437 63.1936 44.3132 63.0865 44.5738C62.9797 44.8285 62.845 45.0797 62.6822 45.3276C62.5225 45.5727 62.3332 45.8157 62.1143 46.0568C61.8982 46.301 61.6493 46.5459 61.3675 46.7916C60.8674 47.2277 60.3309 47.5423 59.758 47.7353C59.1852 47.9283 58.61 48.0036 58.0324 47.9611C57.4549 47.9186 56.8913 47.758 56.3418 47.4793C55.7955 47.1979 55.3001 46.8023 54.8557 46.2927C54.4058 45.7767 54.077 45.2303 53.8693 44.6535C53.6617 44.0767 53.5762 43.4993 53.6127 42.9213C53.6524 42.3406 53.8178 41.7729 54.1087 41.2183C54.3997 40.6637 54.819 40.1476 55.3666 39.67C55.9269 39.1815 56.4844 38.843 57.039 38.6547C57.5941 38.4605 58.13 38.3721 58.6468 38.3896L58.7815 39.2918C58.8109 39.4724 58.7654 39.6152 58.6451 39.7201C58.5691 39.7863 58.4695 39.8286 58.3462 39.847C58.1924 39.8752 58.0355 39.9061 57.8754 39.9398C57.7185 39.9708 57.5559 40.0207 57.3874 40.0895C57.2222 40.1556 57.0464 40.2448 56.8601 40.3571C56.677 40.4666 56.481 40.6125 56.272 40.7947C55.9333 41.09 55.676 41.4148 55.4999 41.7689C55.3271 42.1202 55.2365 42.4861 55.2284 42.8666C55.2202 43.2471 55.2937 43.6316 55.4487 44.0203C55.6037 44.4089 55.8413 44.7868 56.1615 45.154C56.5065 45.5497 56.8697 45.8544 57.251 46.068C57.6295 46.2785 58.011 46.4028 58.3953 46.441C58.7797 46.4792 59.1593 46.4352 59.5341 46.309C59.9061 46.1796 60.2551 45.9728 60.5812 45.6885Z" fill="white"/>
<path d="M68.2313 31.9729C68.2464 32.0751 68.239 32.1597 68.2091 32.2268C68.1826 32.2915 68.1349 32.3479 68.0661 32.3961C67.9972 32.4442 67.9018 32.4726 67.7796 32.4812C67.655 32.4863 67.5114 32.4971 67.3486 32.5136C67.1859 32.5301 67.0073 32.5679 66.8129 32.627C66.6195 32.6803 66.4161 32.7816 66.2028 32.9309C66.01 33.0657 65.8583 33.2078 65.7474 33.3571C65.6376 33.5005 65.5617 33.6485 65.5197 33.8009C65.4812 33.9509 65.4787 34.1012 65.5124 34.252C65.5437 34.3992 65.6075 34.5417 65.7038 34.6794C65.8266 34.8549 65.9771 34.9674 66.1553 35.017C66.337 35.0642 66.5376 35.0725 66.7571 35.0419C66.9766 35.0113 67.2125 34.9565 67.4647 34.8774C67.717 34.7984 67.9762 34.722 68.2426 34.6485C68.5099 34.569 68.7818 34.507 69.0581 34.4623C69.332 34.4142 69.6028 34.4093 69.8705 34.4475C70.1357 34.4824 70.3924 34.5745 70.6404 34.7238C70.8919 34.8708 71.126 35.0992 71.3427 35.4089C71.5787 35.7461 71.7417 36.1037 71.8317 36.4815C71.9228 36.8535 71.9336 37.2278 71.864 37.6046C71.7954 37.9755 71.6457 38.3365 71.4147 38.6878C71.1814 39.0356 70.8582 39.354 70.4452 39.6429C70.2078 39.809 69.9569 39.9487 69.6926 40.0618C69.4308 40.1784 69.1631 40.2683 68.8895 40.3316C68.6194 40.3924 68.3493 40.4276 68.0792 40.4372C67.8125 40.4443 67.5552 40.4245 67.3071 40.3776L67.2438 39.43C67.248 39.3554 67.265 39.2845 67.295 39.2174C67.3259 39.1445 67.3741 39.0851 67.4395 39.0394C67.5255 38.9792 67.6437 38.9503 67.7941 38.9528C67.9421 38.9518 68.1132 38.9473 68.3076 38.9395C68.5055 38.9292 68.7209 38.8964 68.9538 38.841C69.1878 38.7798 69.4339 38.6589 69.692 38.4784C70.0877 38.2015 70.329 37.8943 70.4158 37.5568C70.5002 37.2158 70.4196 36.8698 70.174 36.5188C70.0367 36.3226 69.8749 36.1975 69.6884 36.1435C69.5053 36.087 69.3041 36.074 69.0845 36.1046C68.8626 36.1317 68.6279 36.1883 68.3805 36.2743C68.1331 36.3602 67.8786 36.4434 67.6171 36.5239C67.3556 36.6043 67.0879 36.6686 66.814 36.7167C66.5401 36.7648 66.2681 36.768 65.998 36.7263C65.7279 36.6846 65.4623 36.5834 65.2012 36.4227C64.9411 36.2561 64.6919 36.0024 64.4535 35.6617C64.2633 35.3899 64.1313 35.0876 64.0574 34.7548C63.9869 34.4197 63.9851 34.0801 64.0519 33.736C64.1222 33.3896 64.2666 33.0502 64.4852 32.7178C64.7037 32.3855 65.0075 32.0833 65.3963 31.8112C65.8368 31.503 66.2911 31.2877 66.759 31.1654C67.227 31.043 67.6784 31.0142 68.1133 31.079L68.2313 31.9729Z" fill="white"/>
<path d="M76.7932 35.4579C76.317 35.7499 75.8677 35.8407 75.4452 35.7303C75.0206 35.6163 74.6622 35.3212 74.3702 34.845L72.483 31.7677L71.9245 32.1102C71.8529 32.1541 71.7759 32.1692 71.6937 32.1556C71.615 32.1398 71.5471 32.0854 71.49 31.9923L71.1673 31.466L71.9645 30.7775L71.3216 29.1025C71.292 29.0221 71.2902 28.9469 71.3161 28.8768C71.3457 28.8044 71.3998 28.7441 71.4786 28.6958L72.166 28.2743L73.2299 30.0089L74.6799 29.1197L75.2596 30.0649L73.8095 30.9542L75.6407 33.9402C75.7461 34.112 75.8714 34.2199 76.0166 34.2639C76.1618 34.3079 76.3061 34.286 76.4493 34.1981C76.5316 34.1476 76.5942 34.097 76.6369 34.0461C76.681 33.9895 76.7162 33.9384 76.7424 33.8928C76.7722 33.8449 76.7977 33.8022 76.8189 33.7645C76.838 33.7233 76.8636 33.6928 76.8958 33.673C76.9352 33.6489 76.974 33.6398 77.0123 33.646C77.0483 33.6485 77.0927 33.6607 77.1455 33.6825L77.9381 34.0832C77.8436 34.3629 77.6963 34.6208 77.4962 34.8568C77.296 35.0929 77.0617 35.2932 76.7932 35.4579Z" fill="white"/>
<path d="M79.7828 33.5492L76.6762 27.8809L77.4772 27.4419C77.6172 27.3652 77.7289 27.3375 77.8124 27.3587C77.8959 27.38 77.9812 27.4482 78.0683 27.5634L78.5266 28.203C78.5374 27.7421 78.6236 27.3357 78.7851 26.9837C78.9466 26.6318 79.1968 26.3629 79.5356 26.1772C79.8156 26.0238 80.0829 25.9611 80.3377 25.9891L80.7211 27.108C80.7464 27.1804 80.7487 27.2414 80.728 27.291C80.7053 27.337 80.6627 27.3771 80.6 27.4115C80.5448 27.4417 80.4622 27.4702 80.3523 27.4969C80.2424 27.5236 80.1083 27.5804 79.9499 27.6672C79.6663 27.8226 79.4666 28.035 79.3509 28.3044C79.2331 28.5701 79.187 28.8924 79.2125 29.2711L81.1474 32.8013L79.7828 33.5492Z" fill="white"/>
<path d="M89.5145 28.5787L88.8835 28.88C88.7508 28.9433 88.6375 28.9741 88.5436 28.9724C88.4479 28.9669 88.3522 28.9126 88.2563 28.8094L87.9331 28.4541C87.8486 28.6573 87.7588 28.8445 87.6637 29.0156C87.5705 29.1811 87.4644 29.3341 87.3453 29.4748C87.2263 29.6154 87.0896 29.7434 86.9354 29.859C86.7811 29.9745 86.5997 30.0821 86.3913 30.1816C86.1449 30.2992 85.9021 30.3756 85.6629 30.4107C85.4219 30.442 85.1939 30.4275 84.9789 30.3672C84.7678 30.3051 84.5735 30.1955 84.396 30.0382C84.2185 29.8809 84.0673 29.6715 83.9425 29.41C83.8375 29.1902 83.7912 28.947 83.8036 28.6805C83.8179 28.4083 83.9189 28.1227 84.1066 27.8237C84.2925 27.5209 84.5819 27.2058 84.9748 26.8786C85.3678 26.5513 85.8922 26.2218 86.5483 25.8899L86.3854 25.5488C86.199 25.1584 85.9781 24.9102 85.7227 24.8041C85.4692 24.6924 85.1852 24.7117 84.8706 24.8619C84.6432 24.9705 84.4664 25.0875 84.3401 25.2129C84.2138 25.3384 84.1101 25.4623 84.029 25.5848C83.9498 25.7018 83.8756 25.8094 83.8061 25.9077C83.7367 26.006 83.6452 26.0823 83.5315 26.1366C83.4367 26.1818 83.3434 26.1961 83.2517 26.1794C83.1599 26.1627 83.076 26.1283 83 26.0762L82.5297 25.7492C82.9074 24.8149 83.57 24.1215 84.5175 23.6691C84.8587 23.5062 85.189 23.4183 85.5086 23.4054C85.8302 23.3868 86.1318 23.4336 86.4134 23.5458C86.6932 23.6542 86.9466 23.8241 87.1734 24.0556C87.4041 24.2852 87.5981 24.5649 87.7556 24.8947L89.5145 28.5787ZM86.3676 29.0061C86.5116 28.9373 86.6379 28.8607 86.7466 28.7763C86.8552 28.6918 86.9499 28.5978 87.0307 28.494C87.1152 28.3885 87.1887 28.2743 87.2511 28.1514C87.3154 28.023 87.3734 27.8813 87.4251 27.7263L86.9555 26.7427C86.5552 26.9571 86.2293 27.1569 85.978 27.3421C85.7286 27.5216 85.5396 27.691 85.4108 27.8502C85.282 28.0095 85.207 28.1593 85.1856 28.2998C85.1681 28.4385 85.1892 28.5704 85.2489 28.6955C85.3665 28.9418 85.5227 29.0837 85.7174 29.1211C85.9159 29.1566 86.1326 29.1183 86.3676 29.0061Z" fill="white"/>
<path d="M93.1385 27.155C92.6219 27.3673 92.1638 27.3853 91.7644 27.2089C91.3633 27.0286 91.0567 26.6801 90.8444 26.1634L89.4723 22.8244L88.8662 23.0734C88.7885 23.1054 88.7102 23.1081 88.6312 23.0815C88.556 23.0534 88.4977 22.9888 88.4562 22.8878L88.2215 22.3167L89.1184 21.7643L88.7509 20.0081C88.7345 19.9241 88.7447 19.8495 88.7816 19.7844C88.8223 19.7177 88.8854 19.6668 88.9708 19.6317L89.7167 19.3252L90.4901 21.2074L92.0635 20.5608L92.4849 21.5864L90.9116 22.233L92.243 25.4729C92.3196 25.6594 92.4261 25.7859 92.5624 25.8525C92.6987 25.919 92.8446 25.9204 93 25.8565C93.0893 25.8198 93.1592 25.7798 93.2095 25.7364C93.262 25.6876 93.3049 25.6427 93.3381 25.6018C93.3751 25.5594 93.4071 25.5212 93.4341 25.4874C93.4595 25.4498 93.4896 25.4237 93.5246 25.4094C93.5673 25.3918 93.6071 25.3891 93.6439 25.4012C93.679 25.4095 93.7209 25.4286 93.7696 25.4586L94.4881 25.9806C94.3502 26.2416 94.1636 26.4727 93.9284 26.6738C93.6932 26.8749 93.4299 27.0353 93.1385 27.155Z" fill="white"/>
<path d="M96.6669 18.684C97.0517 18.5502 97.4262 18.4889 97.7903 18.5001C98.1583 18.51 98.5008 18.5932 98.8176 18.7499C99.133 18.9025 99.4162 19.1287 99.6671 19.4283C99.9167 19.7239 100.118 20.0919 100.271 20.5323C100.31 20.6433 100.336 20.7386 100.351 20.8181C100.367 20.8923 100.37 20.956 100.357 21.0093C100.347 21.0573 100.324 21.0987 100.287 21.1338C100.249 21.1648 100.196 21.192 100.129 21.2155L96.3559 22.5273C96.6175 23.1389 96.9461 23.5405 97.3417 23.732C97.7374 23.9235 98.1772 23.9351 98.6611 23.7668C98.8992 23.684 99.0938 23.5852 99.2451 23.4703C99.4003 23.3541 99.5297 23.2402 99.6332 23.1286C99.7406 23.0157 99.8323 22.9149 99.9082 22.8262C99.9881 22.7362 100.074 22.6753 100.165 22.6436C100.224 22.6229 100.28 22.6169 100.332 22.6255C100.384 22.6341 100.433 22.6547 100.48 22.6873L101.095 23.0739C100.998 23.3209 100.872 23.545 100.715 23.7463C100.557 23.9435 100.38 24.1205 100.186 24.2771C99.9939 24.4283 99.7884 24.5598 99.5694 24.6716C99.3543 24.7819 99.1396 24.8743 98.9254 24.9488C98.501 25.0964 98.0821 25.1643 97.6689 25.1523C97.2542 25.1364 96.8644 25.0385 96.4995 24.8586C96.1332 24.6747 95.8023 24.4073 95.5069 24.0565C95.2101 23.7017 94.9686 23.2565 94.7824 22.721C94.6375 22.3044 94.5691 21.8902 94.5771 21.4784C94.5837 21.0625 94.665 20.6763 94.8212 20.3196C94.9799 19.9576 95.2121 19.6345 95.5179 19.3503C95.8277 19.0647 96.2107 18.8426 96.6669 18.684ZM97.0629 19.7269C96.6345 19.8758 96.3413 20.1134 96.1835 20.4395C96.0257 20.7657 95.9903 21.1626 96.0773 21.6304L98.8384 20.6703C98.7721 20.4799 98.6843 20.3103 98.5748 20.1616C98.4639 20.009 98.3328 19.8878 98.1816 19.7981C98.0303 19.7084 97.861 19.6561 97.6735 19.6413C97.4846 19.6225 97.2811 19.651 97.0629 19.7269Z" fill="white"/>
<path d="M104.016 16.3546C104.283 16.28 104.542 16.2383 104.792 16.2294C105.041 16.2164 105.278 16.2354 105.501 16.2864L107.291 15.7864L107.447 16.3446C107.473 16.4377 107.469 16.5173 107.435 16.5834C107.402 16.6496 107.329 16.7091 107.217 16.7621L106.688 17.0212C106.758 17.1151 106.819 17.2178 106.872 17.3295C106.929 17.44 106.976 17.56 107.012 17.6895C107.098 17.9969 107.113 18.2935 107.058 18.5794C107.005 18.86 106.894 19.1178 106.724 19.3528C106.558 19.5866 106.339 19.7938 106.067 19.9745C105.798 20.1501 105.489 20.2864 105.141 20.3836C104.907 20.4491 104.672 20.4907 104.437 20.5083C104.276 20.6799 104.215 20.8384 104.256 20.9841C104.291 21.1095 104.374 21.1867 104.504 21.2157C104.637 21.2396 104.8 21.2377 104.993 21.21C105.19 21.1812 105.409 21.1375 105.649 21.0789C105.889 21.0163 106.137 20.96 106.394 20.9102C106.65 20.8604 106.905 20.8285 107.159 20.8144C107.411 20.7963 107.645 20.8158 107.862 20.8731C108.082 20.9292 108.276 21.0365 108.442 21.195C108.612 21.3483 108.737 21.5726 108.82 21.8679C108.897 22.143 108.903 22.4292 108.837 22.7265C108.776 23.0226 108.644 23.308 108.442 23.5826C108.244 23.856 107.975 24.1054 107.637 24.3307C107.3 24.56 106.893 24.7414 106.415 24.8747C105.942 25.0069 105.518 25.075 105.145 25.0792C104.772 25.0873 104.449 25.0468 104.175 24.9575C103.907 24.8711 103.688 24.7446 103.52 24.578C103.351 24.4114 103.237 24.2209 103.177 24.0065C103.096 23.7153 103.116 23.4457 103.239 23.1978C103.362 22.9498 103.564 22.7231 103.847 22.5177C103.67 22.4757 103.515 22.3969 103.382 22.2813C103.249 22.1657 103.151 21.9946 103.088 21.7681C103.062 21.6751 103.052 21.5755 103.057 21.4694C103.061 21.3592 103.082 21.2465 103.12 21.1314C103.161 21.0151 103.221 20.9003 103.298 20.7871C103.374 20.6699 103.472 20.5577 103.59 20.4505C103.227 20.3687 102.915 20.2117 102.654 19.9794C102.397 19.7459 102.215 19.4391 102.109 19.0588C102.023 18.7514 102.006 18.4573 102.059 18.1767C102.114 17.8909 102.227 17.6305 102.397 17.3955C102.569 17.1554 102.793 16.947 103.066 16.7704C103.343 16.5926 103.66 16.454 104.016 16.3546ZM107.508 22.5092C107.474 22.3878 107.41 22.2989 107.315 22.2423C107.221 22.1858 107.106 22.1548 106.969 22.1494C106.831 22.1399 106.674 22.1488 106.499 22.1761C106.327 22.2021 106.145 22.2377 105.953 22.2827C105.764 22.3225 105.567 22.3667 105.362 22.4151C105.16 22.4583 104.963 22.4938 104.77 22.5215C104.626 22.6619 104.52 22.8116 104.451 22.9704C104.385 23.1241 104.375 23.2838 104.421 23.4497C104.452 23.5589 104.506 23.6527 104.585 23.731C104.669 23.8123 104.779 23.8709 104.915 23.9069C105.056 23.9418 105.226 23.9509 105.427 23.9342C105.628 23.9216 105.866 23.8768 106.141 23.8C106.42 23.722 106.655 23.6326 106.845 23.5316C107.036 23.4346 107.185 23.3296 107.293 23.2166C107.406 23.1065 107.479 22.9904 107.51 22.8683C107.542 22.7502 107.542 22.6305 107.508 22.5092ZM104.874 19.4249C105.06 19.3729 105.215 19.3034 105.339 19.2165C105.461 19.1255 105.555 19.023 105.619 18.9092C105.687 18.7942 105.726 18.6678 105.736 18.53C105.749 18.391 105.735 18.2467 105.693 18.097C105.607 17.7896 105.446 17.5729 105.211 17.4469C104.978 17.3157 104.677 17.3015 104.309 17.4043C103.941 17.5071 103.689 17.6755 103.554 17.9095C103.422 18.1383 103.399 18.4065 103.484 18.7139C103.525 18.8595 103.585 18.9888 103.665 19.1018C103.748 19.2136 103.848 19.3037 103.963 19.3718C104.08 19.4349 104.216 19.4734 104.368 19.4876C104.523 19.4966 104.691 19.4757 104.874 19.4249Z" fill="white"/>
<path d="M110.457 14.8471L111.899 21.1481L110.382 21.4951L108.941 15.1941L110.457 14.8471ZM110.265 12.9588C110.295 13.0898 110.296 13.2187 110.269 13.3456C110.242 13.4724 110.193 13.5891 110.123 13.6957C110.057 13.8013 109.97 13.8943 109.864 13.9747C109.756 14.051 109.635 14.1046 109.5 14.1355C109.369 14.1655 109.238 14.1695 109.108 14.1475C108.981 14.1205 108.865 14.0739 108.76 14.0076C108.654 13.9413 108.561 13.8569 108.482 13.7544C108.407 13.651 108.354 13.5338 108.324 13.4028C108.293 13.2677 108.289 13.1352 108.311 13.0052C108.337 12.8743 108.383 12.756 108.449 12.6504C108.515 12.5447 108.6 12.4542 108.704 12.3788C108.81 12.2985 108.929 12.2433 109.06 12.2133C109.195 12.1824 109.328 12.18 109.459 12.206C109.589 12.228 109.707 12.2721 109.812 12.3384C109.922 12.4038 110.017 12.4898 110.098 12.5963C110.178 12.7029 110.234 12.8237 110.265 12.9588Z" fill="white"/>
<path d="M117.626 14.8398C117.591 14.9058 117.554 14.9594 117.514 15.0007C117.479 15.0412 117.42 15.0688 117.337 15.0837C117.258 15.0978 117.178 15.0888 117.095 15.0566C117.012 15.0204 116.913 14.9826 116.8 14.9433C116.685 14.8998 116.552 14.8683 116.399 14.8488C116.249 14.8244 116.069 14.8312 115.858 14.869C115.59 14.9172 115.363 15.0091 115.178 15.1447C114.993 15.2761 114.848 15.4451 114.744 15.6514C114.645 15.8571 114.585 16.096 114.566 16.3683C114.546 16.6365 114.565 16.9339 114.623 17.2605C114.684 17.5995 114.774 17.8949 114.891 18.1469C115.013 18.3981 115.159 18.6024 115.328 18.7598C115.496 18.9131 115.686 19.0199 115.897 19.0801C116.108 19.1361 116.335 19.1423 116.579 19.0985C116.823 19.0547 117.014 18.9906 117.153 18.906C117.294 18.8165 117.411 18.7274 117.501 18.6385C117.591 18.5456 117.668 18.4635 117.732 18.3923C117.8 18.3162 117.881 18.2696 117.976 18.2525C118.1 18.2302 118.202 18.2611 118.281 18.345L118.821 18.8241C118.687 19.053 118.533 19.2534 118.359 19.4254C118.185 19.5933 117.997 19.7379 117.797 19.8592C117.601 19.9756 117.391 20.0707 117.17 20.1446C116.949 20.2184 116.726 20.2754 116.503 20.3155C116.11 20.386 115.727 20.38 115.354 20.2977C114.98 20.2112 114.638 20.0507 114.327 19.8164C114.02 19.5813 113.754 19.2749 113.528 18.8972C113.306 18.5146 113.148 18.0629 113.055 17.5421C112.971 17.0749 112.959 16.6311 113.02 16.2105C113.085 15.785 113.221 15.4042 113.43 15.0681C113.638 14.7278 113.919 14.4405 114.274 14.2061C114.628 13.9718 115.056 13.8097 115.556 13.7199C116.031 13.6346 116.461 13.6365 116.844 13.7257C117.231 13.8141 117.593 13.9753 117.929 14.2093L117.626 14.8398Z" fill="white"/>
<path d="M132.483 18.3856L131.176 18.4849C131.03 18.496 130.905 18.4696 130.804 18.4057C130.706 18.3374 130.632 18.2503 130.582 18.1446L129.762 16.343L126 16.6289L125.462 18.5336C125.436 18.6324 125.375 18.7255 125.281 18.8127C125.191 18.8996 125.074 18.9484 124.932 18.9592L123.619 19.059L126.497 9.70429L128.225 9.57305L132.483 18.3856ZM126.342 15.4024L129.238 15.1824L127.903 12.2448C127.843 12.1146 127.774 11.9618 127.698 11.7865C127.625 11.6067 127.551 11.4122 127.477 11.2031C127.434 11.4211 127.391 11.6245 127.346 11.8132C127.306 12.0017 127.263 12.167 127.219 12.3094L126.342 15.4024Z" fill="white"/>
<path d="M138.655 18.3621C138.454 18.362 138.321 18.2674 138.258 18.0784L138.133 17.4546C137.998 17.6058 137.858 17.7422 137.71 17.8639C137.563 17.9856 137.404 18.0905 137.231 18.1786C137.063 18.2667 136.881 18.3338 136.683 18.3799C136.49 18.4302 136.28 18.4553 136.053 18.4552C135.7 18.455 135.377 18.3813 135.083 18.2342C134.789 18.087 134.535 17.8748 134.321 17.5974C134.111 17.3159 133.948 16.9693 133.83 16.5577C133.717 16.146 133.661 15.6756 133.661 15.1464C133.661 14.6676 133.727 14.2224 133.857 13.8109C133.988 13.3993 134.175 13.0424 134.418 12.7402C134.662 12.4379 134.954 12.2029 135.294 12.0351C135.635 11.8631 136.017 11.7772 136.441 11.7774C136.802 11.7776 137.111 11.8366 137.367 11.9543C137.623 12.0679 137.852 12.2213 138.054 12.4146L138.056 9L139.612 9.00086L139.606 18.3627L138.655 18.3621ZM136.583 17.2207C136.907 17.2209 137.182 17.1538 137.409 17.0195C137.635 16.8853 137.85 16.6943 138.051 16.4466L138.053 13.5486C137.877 13.3343 137.684 13.183 137.474 13.0947C137.268 13.0064 137.045 12.9621 136.806 12.962C136.571 12.9619 136.357 13.0059 136.163 13.094C135.974 13.182 135.812 13.3164 135.678 13.4969C135.548 13.6732 135.447 13.9 135.375 14.1771C135.304 14.4501 135.268 14.7735 135.268 15.1473C135.267 15.5253 135.297 15.8466 135.355 16.1112C135.418 16.3716 135.506 16.5859 135.619 16.754C135.733 16.9178 135.871 17.0376 136.035 17.1133C136.199 17.1848 136.382 17.2206 136.583 17.2207Z" fill="white"/>
<path d="M145.028 18.626L143.62 18.5326L141.483 11.9128L142.772 11.9983C142.885 12.0058 142.977 12.0393 143.049 12.0988C143.125 12.1586 143.175 12.2313 143.199 12.3171L144.215 15.8445C144.273 16.0504 144.318 16.2512 144.352 16.447C144.389 16.6432 144.42 16.8389 144.445 17.0341C144.496 16.8439 144.551 16.6539 144.609 16.4641C144.673 16.2747 144.748 16.0819 144.837 15.8857L146.342 12.5256C146.377 12.4437 146.434 12.378 146.513 12.3285C146.592 12.2791 146.684 12.2578 146.788 12.2647L148.014 12.346L145.028 18.626Z" fill="white"/>
<path d="M151.898 12.7813L151.164 19.2032L149.618 19.0265L150.352 12.6045L151.898 12.7813ZM152.344 10.9363C152.329 11.0698 152.287 11.1919 152.22 11.3025C152.152 11.4131 152.067 11.507 151.966 11.5842C151.868 11.6618 151.756 11.7208 151.628 11.7612C151.502 11.7974 151.369 11.8077 151.232 11.7919C151.098 11.7767 150.974 11.7371 150.858 11.6732C150.748 11.6056 150.654 11.5229 150.576 11.4253C150.498 11.3276 150.439 11.2173 150.398 11.0942C150.362 10.9717 150.351 10.8436 150.366 10.7101C150.382 10.5724 150.422 10.4459 150.486 10.3306C150.554 10.2158 150.637 10.1196 150.734 10.042C150.832 9.96438 150.942 9.90722 151.065 9.87051C151.192 9.8301 151.322 9.81752 151.456 9.83279C151.593 9.84853 151.72 9.89045 151.834 9.95853C151.95 10.0224 152.046 10.1032 152.124 10.2009C152.206 10.299 152.267 10.4117 152.307 10.5389C152.347 10.6661 152.36 10.7985 152.344 10.9363Z" fill="white"/>
<path d="M157.948 14.9358C157.896 14.9956 157.845 15.0364 157.794 15.0581C157.745 15.0757 157.685 15.0789 157.614 15.0677C157.54 15.0558 157.462 15.0222 157.381 14.9668C157.305 14.9121 157.215 14.851 157.111 14.7834C157.007 14.7116 156.886 14.6434 156.748 14.5788C156.614 14.5149 156.449 14.4674 156.254 14.4364C155.951 14.3881 155.702 14.4144 155.508 14.5153C155.313 14.6161 155.199 14.7702 155.166 14.9776C155.144 15.1144 155.169 15.2375 155.241 15.3468C155.318 15.4526 155.423 15.5523 155.557 15.6459C155.695 15.7402 155.853 15.8313 156.03 15.9191C156.209 16.0027 156.39 16.0933 156.574 16.1907C156.758 16.2881 156.937 16.3952 157.11 16.512C157.283 16.6247 157.432 16.759 157.556 16.9148C157.685 17.0672 157.778 17.2416 157.836 17.438C157.898 17.635 157.909 17.8621 157.868 18.1192C157.819 18.4262 157.718 18.7014 157.564 18.9448C157.411 19.1842 157.212 19.382 156.966 19.5385C156.72 19.6908 156.429 19.7954 156.093 19.8524C155.761 19.9058 155.39 19.8999 154.979 19.8345C154.759 19.7994 154.547 19.7444 154.342 19.6692C154.141 19.5988 153.948 19.5129 153.764 19.4113C153.585 19.3104 153.42 19.199 153.269 19.0772C153.122 18.956 152.996 18.8295 152.889 18.6977L153.337 18.1694C153.394 18.1062 153.456 18.0608 153.525 18.0334C153.593 18.006 153.675 17.9999 153.77 18.0151C153.865 18.0303 153.95 18.0714 154.025 18.1386C154.103 18.2064 154.193 18.2803 154.296 18.3603C154.398 18.4404 154.519 18.5193 154.66 18.597C154.805 18.6753 154.993 18.733 155.225 18.77C155.408 18.7991 155.567 18.8031 155.702 18.7821C155.842 18.7577 155.959 18.7168 156.053 18.6595C156.152 18.6028 156.227 18.5319 156.279 18.4466C156.335 18.3578 156.371 18.2636 156.387 18.1641C156.411 18.0147 156.385 17.8851 156.309 17.7752C156.237 17.6659 156.132 17.5641 155.994 17.4698C155.86 17.3762 155.702 17.2872 155.52 17.2029C155.342 17.1151 155.159 17.0222 154.971 16.9241C154.786 16.8267 154.606 16.7192 154.429 16.6017C154.257 16.4807 154.107 16.3399 153.979 16.1793C153.856 16.0193 153.765 15.8325 153.705 15.6188C153.65 15.4059 153.645 15.1584 153.689 14.8763C153.731 14.615 153.823 14.3744 153.964 14.1545C154.105 13.9346 154.289 13.7534 154.516 13.6109C154.748 13.4649 155.021 13.3639 155.336 13.3078C155.656 13.2482 156.013 13.2497 156.407 13.3125C156.847 13.3825 157.236 13.5189 157.573 13.7215C157.911 13.9242 158.181 14.1629 158.384 14.4376L157.948 14.9358Z" fill="white"/>
<path d="M163.122 14.5733C163.593 14.6773 164.003 14.8473 164.351 15.0832C164.703 15.32 164.984 15.6077 165.193 15.9463C165.402 16.2849 165.536 16.6714 165.595 17.1059C165.654 17.5404 165.629 18.0058 165.519 18.5021C165.409 19.0025 165.236 19.4373 164.999 19.8067C164.763 20.1761 164.478 20.4724 164.145 20.6957C163.812 20.919 163.436 21.064 163.017 21.1307C162.602 21.1983 162.159 21.1801 161.687 21.0761C161.216 20.972 160.804 20.8016 160.452 20.5648C160.1 20.328 159.817 20.0378 159.605 19.6942C159.397 19.3515 159.261 18.9624 159.198 18.527C159.139 18.0925 159.165 17.6251 159.275 17.1247C159.384 16.6284 159.557 16.1956 159.794 15.8263C160.034 15.4578 160.32 15.164 160.653 14.9448C160.989 14.7265 161.367 14.584 161.786 14.5173C162.205 14.4506 162.65 14.4692 163.122 14.5733ZM161.945 19.9072C162.47 20.023 162.896 19.9321 163.224 19.6346C163.557 19.3379 163.798 18.8492 163.948 18.1684C164.098 17.4875 164.085 16.9407 163.91 16.5277C163.738 16.1157 163.39 15.8518 162.865 15.736C162.332 15.6184 161.898 15.712 161.564 16.0169C161.231 16.3176 160.99 16.8063 160.841 17.4831C160.692 18.1598 160.705 18.7046 160.881 19.1175C161.057 19.5263 161.412 19.7896 161.945 19.9072Z" fill="white"/>
<path d="M166.536 22.1264L168.278 15.9018L169.158 16.148C169.311 16.191 169.411 16.2493 169.456 16.3229C169.5 16.3965 169.514 16.5049 169.495 16.6481L169.376 17.4258C169.706 17.1038 170.052 16.8735 170.413 16.7348C170.775 16.5961 171.142 16.5789 171.514 16.683C171.821 16.769 172.056 16.9111 172.219 17.1093L171.71 18.1773C171.678 18.2467 171.637 18.292 171.587 18.313C171.539 18.33 171.48 18.3289 171.412 18.3096C171.351 18.2926 171.272 18.2553 171.175 18.1975C171.078 18.1398 170.942 18.0866 170.768 18.0379C170.457 17.9507 170.165 17.963 169.894 18.0746C169.624 18.1823 169.366 18.3804 169.119 18.669L168.034 22.5458L166.536 22.1264Z" fill="white"/>
<path d="M173.65 26.1293C173.571 26.2175 173.486 26.275 173.397 26.3019C173.31 26.3341 173.196 26.3256 173.053 26.2762L171.957 25.8974L173.946 23.8454L173.43 17.3346L174.717 17.7792C174.836 17.8204 174.917 17.8797 174.962 17.9572C175.006 18.0348 175.032 18.1147 175.039 18.1972L175.248 21.8156C175.256 21.9339 175.256 22.0541 175.25 22.1763C175.243 22.2984 175.232 22.4191 175.218 22.5385C175.289 22.4344 175.362 22.3349 175.434 22.2401C175.511 22.1466 175.59 22.0518 175.673 21.9558L177.992 19.218C178.051 19.1496 178.125 19.1019 178.215 19.075C178.308 19.0495 178.4 19.0525 178.492 19.0841L179.671 19.4916L173.65 26.1293Z" fill="white"/>
<path d="M190.534 23.0709C190.453 23.1353 190.376 23.1713 190.303 23.1791C190.234 23.1886 190.161 23.1756 190.085 23.1402C190.009 23.1049 189.936 23.0365 189.867 22.9351C189.801 22.8299 189.719 22.7111 189.623 22.5785C189.527 22.446 189.405 22.3105 189.256 22.1719C189.113 22.0314 188.924 21.9062 188.687 21.7965C188.474 21.6975 188.275 21.6374 188.09 21.6164C187.911 21.5934 187.745 21.602 187.592 21.6421C187.443 21.6839 187.312 21.7573 187.198 21.862C187.087 21.9629 186.995 22.0896 186.925 22.2419C186.834 22.4362 186.812 22.6229 186.859 22.8019C186.909 22.9827 187.003 23.1604 187.139 23.335C187.276 23.5096 187.442 23.6861 187.637 23.8647C187.831 24.0432 188.028 24.2292 188.225 24.4227C188.428 24.6142 188.618 24.8182 188.795 25.0349C188.974 25.2477 189.114 25.4795 189.215 25.7302C189.318 25.9772 189.367 26.2454 189.362 26.5349C189.361 26.8262 189.281 27.1433 189.122 27.4861C188.949 27.8594 188.721 28.1797 188.439 28.4472C188.163 28.7126 187.845 28.9096 187.484 29.0384C187.129 29.1652 186.741 29.2167 186.322 29.1931C185.904 29.1657 185.466 29.0458 185.009 28.8335C184.746 28.7114 184.499 28.5644 184.269 28.3925C184.037 28.2245 183.825 28.038 183.633 27.8331C183.445 27.6299 183.279 27.4139 183.135 27.185C182.995 26.9579 182.883 26.7253 182.799 26.4872L183.587 25.9572C183.654 25.9233 183.724 25.9025 183.797 25.8948C183.875 25.885 183.951 25.8969 184.023 25.9305C184.119 25.9747 184.203 26.0625 184.276 26.1938C184.351 26.3213 184.441 26.4672 184.545 26.6314C184.653 26.7974 184.79 26.9673 184.955 27.1411C185.125 27.3128 185.353 27.465 185.639 27.5977C186.077 27.8012 186.463 27.8558 186.799 27.7616C187.136 27.6636 187.395 27.4203 187.576 27.0317C187.676 26.8146 187.703 26.6118 187.657 26.4234C187.614 26.2367 187.524 26.0561 187.387 25.8815C187.253 25.7031 187.086 25.5285 186.887 25.3576C186.689 25.1867 186.489 25.0083 186.289 24.8224C186.088 24.6365 185.898 24.4371 185.719 24.2243C185.54 24.0115 185.401 23.7778 185.301 23.5233C185.202 23.2687 185.156 22.9881 185.164 22.6816C185.178 22.373 185.272 22.0302 185.448 21.6531C185.587 21.3522 185.783 21.0863 186.033 20.8555C186.288 20.6264 186.581 20.4545 186.912 20.3397C187.247 20.2267 187.613 20.1814 188.01 20.2038C188.407 20.2262 188.821 20.3374 189.252 20.5373C189.739 20.7638 190.153 21.0487 190.494 21.3922C190.834 21.7356 191.086 22.1117 191.248 22.5205L190.534 23.0709Z" fill="white"/>
<path d="M195.418 26.5943C195.842 26.8258 196.188 27.1033 196.457 27.4268C196.729 27.7524 196.918 28.1069 197.025 28.4904C197.131 28.8739 197.152 29.2825 197.088 29.7162C197.023 30.15 196.869 30.5899 196.626 31.0359C196.38 31.4857 196.092 31.855 195.762 32.1438C195.433 32.4326 195.077 32.6378 194.694 32.7594C194.312 32.8809 193.911 32.9153 193.49 32.8625C193.072 32.8118 192.652 32.6707 192.228 32.4393C191.804 32.2079 191.456 31.9294 191.184 31.6038C190.912 31.2782 190.722 30.9208 190.613 30.5316C190.509 30.1445 190.487 29.733 190.548 29.2973C190.612 28.8635 190.767 28.4218 191.013 27.972C191.256 27.526 191.543 27.1585 191.873 26.8697C192.207 26.5829 192.564 26.3805 192.944 26.2627C193.328 26.1468 193.73 26.1153 194.151 26.1681C194.572 26.2208 194.994 26.3629 195.418 26.5943ZM192.801 31.3886C193.273 31.6462 193.708 31.6779 194.106 31.4836C194.508 31.2913 194.875 30.8892 195.21 30.2772C195.544 29.6653 195.684 29.1366 195.63 28.6911C195.581 28.2476 195.32 27.8971 194.848 27.6395C194.369 27.3779 193.926 27.3469 193.521 27.5465C193.117 27.7425 192.749 28.1446 192.417 28.7529C192.085 29.3611 191.946 29.888 191.999 30.3335C192.055 30.7753 192.322 31.127 192.801 31.3886Z" fill="white"/>
<path d="M202.929 27.7313L198.04 35.7149L196.713 34.9022L201.602 26.9186L202.929 27.7313Z" fill="white"/>
<path d="M204.671 32.2925L202.353 35.6838C202.13 36.0098 202.032 36.3138 202.058 36.596C202.089 36.8772 202.256 37.1208 202.558 37.327C202.78 37.4787 203.021 37.5723 203.281 37.6079C203.544 37.64 203.822 37.6287 204.114 37.5738L206.751 33.7144L208.036 34.5924L204.389 39.929L203.603 39.3922C203.437 39.2785 203.381 39.1258 203.436 38.9342L203.639 38.4473C203.452 38.4824 203.268 38.5065 203.086 38.5196C202.906 38.5291 202.726 38.5207 202.546 38.4941C202.372 38.4665 202.194 38.4167 202.015 38.3447C201.836 38.2786 201.658 38.1851 201.482 38.0642C201.19 37.8652 200.965 37.6401 200.806 37.389C200.653 37.1367 200.562 36.8683 200.532 36.5837C200.503 36.2992 200.532 36.0065 200.621 35.7058C200.715 35.404 200.864 35.104 201.068 34.8058L203.386 31.4145L204.671 32.2925Z" fill="white"/>
<path d="M207.807 42.6427C207.365 42.3014 207.12 41.9137 207.074 41.4795C207.029 41.0421 207.178 40.6023 207.519 40.1601L209.725 37.3024L209.206 36.9021C209.14 36.8507 209.098 36.7842 209.081 36.7025C209.068 36.6234 209.095 36.5406 209.162 36.4541L209.539 35.9654L210.466 36.4659L211.803 35.2696C211.868 35.2134 211.937 35.1849 212.012 35.1843C212.09 35.1862 212.166 35.2154 212.239 35.2719L212.877 35.7646L211.634 37.3755L212.981 38.4148L212.303 39.2925L210.957 38.2532L208.816 41.0261C208.693 41.1857 208.637 41.3411 208.647 41.4925C208.658 41.6439 208.729 41.7709 208.862 41.8735C208.939 41.9325 209.009 41.973 209.071 41.9949C209.14 42.016 209.2 42.0307 209.252 42.0389C209.307 42.0498 209.356 42.0585 209.399 42.0649C209.444 42.0681 209.482 42.0812 209.512 42.1043C209.549 42.1325 209.571 42.1656 209.579 42.2035C209.589 42.2381 209.594 42.2839 209.592 42.341L209.499 43.2244C209.204 43.2354 208.911 43.1893 208.619 43.0862C208.327 42.983 208.057 42.8352 207.807 42.6427Z" fill="white"/>
<path d="M216.545 41.2979L212.363 46.2264L211.176 45.2196L215.359 40.291L216.545 41.2979ZM217.942 40.0124C217.855 40.1149 217.752 40.1933 217.635 40.2476C217.517 40.302 217.394 40.3329 217.267 40.3403C217.142 40.3505 217.016 40.337 216.888 40.2999C216.762 40.2595 216.647 40.1944 216.541 40.1048C216.439 40.0178 216.357 39.9157 216.297 39.7985C216.243 39.6808 216.21 39.5597 216.2 39.4354C216.19 39.3111 216.202 39.1865 216.237 39.0615C216.274 38.9392 216.337 38.8268 216.424 38.7243C216.513 38.6187 216.617 38.5357 216.734 38.4754C216.854 38.4179 216.977 38.384 217.101 38.3738C217.225 38.3636 217.349 38.3774 217.471 38.415C217.599 38.4522 217.715 38.5143 217.817 38.6012C217.923 38.6909 218.004 38.796 218.062 38.9164C218.122 39.0336 218.157 39.1544 218.168 39.2787C218.181 39.4058 218.169 39.5334 218.132 39.6616C218.095 39.7898 218.031 39.9067 217.942 40.0124Z" fill="white"/>
<path d="M220.49 44.6913C220.842 45.0219 221.107 45.3775 221.286 45.7581C221.467 46.1416 221.561 46.5324 221.568 46.9303C221.575 47.3283 221.492 47.729 221.321 48.1326C221.149 48.5362 220.89 48.9232 220.542 49.2938C220.191 49.6674 219.82 49.9525 219.428 50.1491C219.036 50.3457 218.64 50.4548 218.239 50.4764C217.839 50.4979 217.442 50.4303 217.047 50.2734C216.656 50.1193 216.285 49.877 215.932 49.5465C215.58 49.2159 215.313 48.8588 215.132 48.4753C214.951 48.0918 214.856 47.6981 214.85 47.2942C214.846 46.8932 214.928 46.4895 215.096 46.083C215.268 45.6795 215.529 45.2909 215.88 44.9173C216.228 44.5468 216.597 44.2632 216.989 44.0666C217.384 43.8729 217.781 43.7667 218.178 43.7482C218.579 43.7326 218.976 43.8032 219.37 43.9601C219.765 44.117 220.138 44.3608 220.49 44.6913ZM216.752 48.6737C217.144 49.0417 217.557 49.1816 217.991 49.0936C218.428 49.0085 218.885 48.7118 219.362 48.2034C219.839 47.6951 220.108 47.2186 220.168 46.774C220.231 46.3323 220.067 45.9274 219.675 45.5595C219.277 45.1858 218.857 45.0446 218.414 45.1358C217.974 45.224 217.517 45.5207 217.042 46.026C216.568 46.5313 216.301 47.0062 216.241 47.4508C216.183 47.8924 216.354 48.3 216.752 48.6737Z" fill="white"/>
<path d="M219.569 52.8999L224.291 48.4863L224.941 49.1813C225.078 49.3286 225.1 49.4898 225.005 49.6649L224.705 50.0915C224.892 50.0949 225.074 50.1115 225.252 50.1412C225.432 50.1741 225.605 50.2215 225.773 50.2836C225.943 50.3488 226.106 50.4346 226.263 50.5409C226.42 50.6472 226.573 50.7802 226.722 50.9397C226.963 51.1975 227.132 51.4677 227.23 51.7503C227.33 52.0301 227.362 52.3105 227.326 52.5915C227.296 52.8728 227.202 53.1504 227.044 53.4244C226.892 53.6986 226.684 53.959 226.42 54.2057L223.415 57.0147L222.352 55.8779L225.358 53.0688C225.646 52.7992 225.805 52.5238 225.836 52.2425C225.872 51.9615 225.765 51.6874 225.516 51.4205C225.332 51.2241 225.116 51.0816 224.866 50.9929C224.617 50.9042 224.343 50.8549 224.047 50.8449L220.631 54.0368L219.569 52.8999Z" fill="white"/>
<path d="M231.246 58.2278C231.168 58.2385 231.102 58.2355 231.05 58.2188C231.001 58.1995 230.954 58.1623 230.908 58.1074C230.86 58.0493 230.824 57.973 230.8 57.8783C230.778 57.7869 230.75 57.6815 230.717 57.5621C230.686 57.44 230.64 57.309 230.578 57.1691C230.519 57.0325 230.426 56.8884 230.3 56.7366C230.104 56.501 229.899 56.357 229.686 56.3047C229.474 56.2525 229.286 56.2935 229.125 56.4278C229.018 56.5165 228.956 56.6256 228.938 56.7552C228.927 56.8854 228.94 57.0298 228.979 57.1884C229.021 57.3503 229.08 57.5227 229.156 57.7056C229.235 57.8858 229.311 58.0732 229.386 58.2679C229.461 58.4626 229.525 58.6608 229.578 58.8625C229.634 59.0615 229.658 59.2605 229.648 59.4595C229.645 59.659 229.601 59.8517 229.515 60.0377C229.432 60.227 229.291 60.4049 229.09 60.5715C228.852 60.7703 228.594 60.9108 228.318 60.9929C228.046 61.0724 227.765 61.09 227.477 61.0457C227.192 60.9988 226.904 60.8859 226.613 60.7072C226.328 60.5291 226.053 60.2802 225.787 59.9606C225.644 59.7896 225.521 59.6083 225.416 59.4168C225.311 59.2312 225.222 59.0397 225.151 58.8423C225.082 58.6481 225.031 58.4556 224.998 58.2647C224.967 58.077 224.955 57.8984 224.962 57.729L225.647 57.6262C225.731 57.616 225.808 57.623 225.878 57.6473C225.947 57.6715 226.013 57.7207 226.074 57.795C226.136 57.8692 226.173 57.9561 226.185 58.0556C226.199 58.1583 226.218 58.2734 226.243 58.4009C226.267 58.5283 226.306 58.6676 226.361 58.8188C226.418 58.9731 226.522 59.1407 226.673 59.3215C226.791 59.4635 226.908 59.5711 227.024 59.6443C227.145 59.7181 227.26 59.7644 227.369 59.7833C227.48 59.8054 227.583 59.8014 227.678 59.7713C227.78 59.7418 227.869 59.6948 227.946 59.6303C228.063 59.5336 228.128 59.4188 228.143 59.286C228.161 59.1564 228.149 59.0107 228.107 58.8488C228.068 58.6901 228.008 58.5191 227.926 58.3357C227.85 58.1528 227.774 57.9624 227.696 57.7644C227.622 57.5697 227.557 57.3699 227.501 57.165C227.451 56.9606 227.431 56.756 227.441 56.5511C227.453 56.3495 227.507 56.1487 227.603 55.9487C227.702 55.7519 227.861 55.5622 228.08 55.3794C228.284 55.2102 228.511 55.0893 228.762 55.0168C229.013 54.9444 229.271 54.9292 229.536 54.9713C229.806 55.0139 230.078 55.1179 230.353 55.2831C230.633 55.4489 230.9 55.6851 231.156 55.9918C231.44 56.334 231.643 56.6925 231.764 57.0674C231.885 57.4422 231.931 57.7999 231.903 58.1403L231.246 58.2278Z" fill="white"/>
<path d="M50.4061 217.577L49.398 218.472L46.7165 215.452L44.8275 217.13L46.9401 219.509L45.965 220.375L43.8524 217.996L41.9257 219.707L44.6072 222.726L43.5944 223.626L39.7793 219.33L46.5909 213.281L50.4061 217.577Z" fill="white"/>
<path d="M54.0223 223.582C53.9245 223.616 53.8399 223.624 53.7686 223.606C53.7002 223.592 53.6361 223.555 53.5763 223.496C53.5165 223.437 53.4714 223.348 53.441 223.23C53.4135 223.108 53.377 222.969 53.3314 222.811C53.2859 222.654 53.2165 222.486 53.1233 222.305C53.0361 222.124 52.8998 221.943 52.7145 221.76C52.5471 221.594 52.3801 221.471 52.2132 221.389C52.0523 221.306 51.8931 221.258 51.7357 221.244C51.5812 221.234 51.4328 221.258 51.2906 221.319C51.1514 221.376 51.0228 221.464 50.9047 221.584C50.7542 221.736 50.6706 221.905 50.654 222.089C50.6403 222.276 50.6683 222.475 50.7379 222.685C50.8075 222.896 50.904 223.118 51.0272 223.352C51.1504 223.585 51.2722 223.827 51.3926 224.075C51.5189 224.324 51.6289 224.58 51.7226 224.844C51.8193 225.105 51.873 225.37 51.8836 225.641C51.8971 225.908 51.8528 226.177 51.7505 226.448C51.6513 226.722 51.4689 226.993 51.2033 227.262C50.914 227.555 50.5917 227.78 50.2363 227.936C49.8869 228.093 49.5206 228.171 49.1375 228.17C48.7603 228.17 48.3781 228.087 47.991 227.924C47.6068 227.757 47.2355 227.496 46.8768 227.142C46.6706 226.938 46.4881 226.717 46.3292 226.477C46.1673 226.241 46.0306 225.994 45.9191 225.736C45.8106 225.481 45.7273 225.222 45.6692 224.958C45.6141 224.697 45.5872 224.44 45.5886 224.188L46.5093 223.955C46.5835 223.945 46.6563 223.949 46.7277 223.967C46.805 223.984 46.8721 224.021 46.9288 224.077C47.0035 224.151 47.0533 224.262 47.0779 224.41C47.1056 224.555 47.1408 224.723 47.1836 224.913C47.2293 225.105 47.3004 225.311 47.3968 225.531C47.4992 225.75 47.6624 225.97 47.8866 226.191C48.2302 226.531 48.5759 226.713 48.9235 226.737C49.2741 226.759 49.5999 226.617 49.9009 226.312C50.0691 226.142 50.163 225.96 50.1826 225.767C50.2052 225.577 50.1816 225.376 50.112 225.166C50.0453 224.953 49.9474 224.732 49.8183 224.504C49.6891 224.276 49.5614 224.041 49.4352 223.798C49.3089 223.555 49.1974 223.304 49.1008 223.043C49.0041 222.782 48.9519 222.515 48.9443 222.242C48.9366 221.969 48.9883 221.689 49.0994 221.404C49.2164 221.118 49.421 220.827 49.7131 220.531C49.9463 220.295 50.2198 220.111 50.5338 219.978C50.8508 219.848 51.1845 219.785 51.5349 219.789C51.8884 219.796 52.2483 219.877 52.6145 220.032C52.9808 220.187 53.3328 220.431 53.6705 220.765C54.053 221.142 54.3466 221.55 54.5513 221.989C54.7561 222.427 54.8657 222.866 54.8804 223.305L54.0223 223.582Z" fill="white"/>
<path d="M55.4298 233.171C55.7216 233.418 55.9965 233.607 56.2547 233.737C56.5189 233.867 56.7881 233.968 57.0623 234.041L58.1327 232.776L57.2623 232.039C57.1789 231.969 57.1322 231.891 57.1221 231.805C57.1147 231.716 57.1395 231.638 57.1964 231.571L57.8151 230.84L60.1282 232.798L57.7473 235.611C57.4625 235.59 57.1832 235.546 56.9094 235.48C56.6416 235.412 56.3729 235.317 56.1033 235.194C55.837 235.073 55.5682 234.922 55.2969 234.742C55.0229 234.565 54.7432 234.356 54.4579 234.115C53.9513 233.686 53.5595 233.203 53.2823 232.666C53.0051 232.129 52.844 231.571 52.7989 230.994C52.7538 230.417 52.8276 229.835 53.0203 229.25C53.2161 228.668 53.5325 228.118 53.9693 227.602C54.4116 227.079 54.9022 226.672 55.4411 226.38C55.98 226.088 56.5379 225.916 57.1148 225.865C57.6949 225.817 58.281 225.895 58.8731 226.099C59.4653 226.303 60.0387 226.639 60.5933 227.109C61.1608 227.589 61.5794 228.089 61.8492 228.609C62.1249 229.128 62.293 229.645 62.3536 230.158L61.482 230.428C61.3079 230.484 61.1599 230.46 61.0381 230.357C60.9611 230.292 60.9043 230.2 60.8676 230.081C60.8165 229.933 60.7623 229.783 60.7048 229.629C60.6506 229.479 60.5767 229.326 60.4833 229.17C60.393 229.016 60.2783 228.856 60.1392 228.689C60.0033 228.524 59.8296 228.352 59.618 228.173C59.275 227.883 58.9152 227.677 58.5386 227.557C58.1652 227.439 57.7898 227.405 57.4124 227.454C57.0351 227.503 56.666 227.634 56.3052 227.846C55.9443 228.057 55.6065 228.349 55.2918 228.721C54.9526 229.122 54.7062 229.527 54.5525 229.936C54.4016 230.342 54.3362 230.738 54.3564 231.124C54.3766 231.509 54.4773 231.878 54.6585 232.229C54.8425 232.578 55.0996 232.891 55.4298 233.171Z" fill="white"/>
<path d="M70.7977 236.918C70.7076 236.969 70.6259 236.992 70.5525 236.988C70.4827 236.986 70.413 236.962 70.3434 236.915C70.2739 236.867 70.2133 236.788 70.1618 236.677C70.1126 236.563 70.0513 236.432 69.9778 236.286C69.9044 236.14 69.8054 235.987 69.6808 235.826C69.5621 235.664 69.3949 235.51 69.1794 235.364C68.9847 235.232 68.7979 235.141 68.6189 235.091C68.4457 235.04 68.2804 235.021 68.123 235.036C67.9691 235.054 67.8278 235.105 67.699 235.19C67.5725 235.272 67.4622 235.383 67.3679 235.522C67.2477 235.699 67.1963 235.88 67.2135 236.064C67.2342 236.25 67.2979 236.441 67.4048 236.635C67.5116 236.829 67.6469 237.03 67.8108 237.237C67.9746 237.445 68.1383 237.66 68.302 237.883C68.4716 238.104 68.6265 238.336 68.7667 238.578C68.9093 238.817 69.0105 239.068 69.0702 239.332C69.1322 239.592 69.1377 239.865 69.0866 240.15C69.0389 240.437 68.9091 240.737 68.697 241.05C68.466 241.391 68.1901 241.671 67.8692 241.889C67.5542 242.107 67.2083 242.251 66.8315 242.32C66.4605 242.388 66.0698 242.377 65.6593 242.286C65.2511 242.192 64.8385 242.004 64.4213 241.721C64.1814 241.559 63.9615 241.374 63.7615 241.168C63.5592 240.964 63.3798 240.746 63.2232 240.513C63.07 240.283 62.9408 240.043 62.8355 239.794C62.7338 239.547 62.6605 239.3 62.6159 239.051L63.4786 238.654C63.5499 238.632 63.6221 238.622 63.6955 238.626C63.7747 238.629 63.8473 238.653 63.9134 238.698C64.0003 238.757 64.0694 238.857 64.1207 238.998C64.1744 239.136 64.2396 239.295 64.3163 239.473C64.3964 239.655 64.5039 239.844 64.6386 240.042C64.7793 240.239 64.9799 240.426 65.2407 240.602C65.6405 240.873 66.0135 240.989 66.3598 240.95C66.7084 240.907 67.0029 240.708 67.2433 240.354C67.3776 240.156 67.4368 239.96 67.4208 239.766C67.4083 239.575 67.3486 239.383 67.2418 239.188C67.1373 238.991 67.0008 238.792 66.8323 238.591C66.6638 238.391 66.4953 238.183 66.3269 237.967C66.1585 237.751 66.0029 237.524 65.8603 237.285C65.7177 237.047 65.6177 236.794 65.5604 236.526C65.503 236.259 65.5029 235.975 65.56 235.674C65.6229 235.371 65.771 235.048 66.0043 234.704C66.1905 234.429 66.4258 234.198 66.7103 234.01C66.9983 233.825 67.315 233.702 67.6602 233.642C68.009 233.584 68.3776 233.598 68.766 233.684C69.1544 233.769 69.545 233.945 69.9379 234.212C70.3829 234.513 70.746 234.861 71.0272 235.255C71.3084 235.648 71.4963 236.06 71.5908 236.489L70.7977 236.918Z" fill="white"/>
<path d="M71.2991 246.11C70.8187 245.825 70.5288 245.47 70.4293 245.045C70.3321 244.616 70.4259 244.161 70.7109 243.681L72.5524 240.576L71.9888 240.242C71.9166 240.199 71.8673 240.138 71.841 240.059C71.8182 239.982 71.8347 239.896 71.8904 239.802L72.2054 239.271L73.1862 239.655L74.3679 238.305C74.4252 238.242 74.4909 238.205 74.565 238.195C74.6428 238.188 74.7214 238.207 74.8009 238.254L75.4944 238.666L74.4564 240.416L75.9194 241.284L75.3538 242.237L73.8908 241.37L72.1039 244.382C72.0011 244.556 71.9641 244.717 71.9929 244.866C72.0218 245.015 72.1085 245.132 72.253 245.218C72.336 245.267 72.41 245.299 72.4749 245.313C72.5456 245.326 72.6072 245.333 72.6598 245.335C72.716 245.339 72.7657 245.341 72.8089 245.343C72.8543 245.34 72.8933 245.349 72.9258 245.368C72.9655 245.392 72.9916 245.422 73.004 245.458C73.0186 245.491 73.0285 245.536 73.0339 245.593L73.0492 246.481C72.7577 246.528 72.4609 246.518 72.1587 246.451C71.8566 246.384 71.5701 246.271 71.2991 246.11Z" fill="white"/>
<path d="M74.8026 248.015L77.825 242.301L78.6325 242.729C78.7736 242.803 78.8582 242.881 78.8864 242.963C78.9146 243.044 78.9046 243.153 78.8564 243.289L78.5746 244.024C78.9654 243.779 79.3522 243.627 79.7349 243.568C80.1176 243.509 80.4798 243.57 80.8214 243.751C81.1035 243.9 81.303 244.089 81.4199 244.317L80.6967 245.253C80.6502 245.314 80.6006 245.349 80.5477 245.36C80.4969 245.366 80.4399 245.352 80.3768 245.319C80.3211 245.29 80.2518 245.236 80.1691 245.159C80.0863 245.082 79.9651 245.001 79.8054 244.917C79.5196 244.766 79.2323 244.716 78.9437 244.768C78.657 244.815 78.3626 244.954 78.0605 245.184L76.1781 248.743L74.8026 248.015Z" fill="white"/>
<path d="M85.0579 253.064L84.4224 252.772C84.2888 252.71 84.1927 252.643 84.1339 252.57C84.0768 252.493 84.0573 252.385 84.0752 252.245L84.1413 251.769C83.9311 251.834 83.7298 251.885 83.5374 251.922C83.3506 251.956 83.1651 251.972 82.9809 251.971C82.7966 251.969 82.6108 251.946 82.4233 251.902C82.2357 251.857 82.037 251.787 81.8271 251.69C81.579 251.576 81.365 251.439 81.1849 251.277C81.0065 251.112 80.8717 250.928 80.7804 250.724C80.6929 250.522 80.6528 250.303 80.66 250.066C80.6672 249.829 80.7313 249.579 80.8523 249.315C80.954 249.094 81.1112 248.903 81.3239 248.741C81.5421 248.578 81.8262 248.473 82.1761 248.426C82.5277 248.375 82.955 248.395 83.4579 248.488C83.9609 248.58 84.5498 248.772 85.2247 249.064L85.3825 248.72C85.5631 248.327 85.6124 247.999 85.5304 247.734C85.454 247.468 85.2573 247.262 84.9406 247.117C84.7116 247.012 84.5085 246.951 84.3313 246.934C84.1541 246.917 83.9925 246.917 83.8464 246.933C83.7059 246.947 83.5757 246.959 83.4557 246.968C83.3358 246.978 83.2185 246.957 83.104 246.904C83.0086 246.86 82.938 246.798 82.8921 246.716C82.8462 246.635 82.8189 246.549 82.8102 246.457L82.7604 245.886C83.72 245.578 84.6768 245.644 85.6309 246.082C85.9744 246.24 86.2534 246.437 86.468 246.675C86.6881 246.91 86.8452 247.171 86.9393 247.46C87.0351 247.744 87.0667 248.047 87.0341 248.37C87.0054 248.694 86.9147 249.022 86.7622 249.354L85.0579 253.064ZM82.715 250.92C82.8601 250.986 82.9998 251.034 83.1342 251.064C83.2686 251.093 83.4015 251.106 83.5329 251.101C83.6681 251.099 83.8029 251.082 83.9372 251.051C84.077 251.019 84.223 250.972 84.3752 250.913L84.8302 249.923C84.4092 249.752 84.0472 249.63 83.744 249.555C83.4465 249.479 83.1953 249.442 82.9905 249.445C82.7858 249.448 82.6226 249.486 82.501 249.56C82.3832 249.635 82.2954 249.736 82.2375 249.861C82.1236 250.11 82.1145 250.32 82.2105 250.494C82.3102 250.669 82.4784 250.811 82.715 250.92Z" fill="white"/>
<path d="M89.0888 254.817C88.569 254.613 88.2262 254.308 88.0602 253.904C87.8958 253.497 87.9159 253.033 88.1205 252.513L89.4431 249.154L88.8335 248.914C88.7553 248.883 88.6969 248.831 88.6583 248.757C88.6236 248.685 88.6262 248.598 88.6662 248.496L88.8924 247.922L89.922 248.144L90.8731 246.623C90.9195 246.551 90.9785 246.504 91.0502 246.483C91.1257 246.463 91.2065 246.47 91.2924 246.504L92.0428 246.799L91.2972 248.693L92.88 249.316L92.4737 250.347L90.891 249.724L89.6077 252.984C89.5338 253.171 89.523 253.336 89.5753 253.479C89.6275 253.621 89.7318 253.723 89.8881 253.785C89.978 253.82 90.0561 253.839 90.1224 253.843C90.1942 253.844 90.2561 253.841 90.3084 253.835C90.3645 253.83 90.414 253.825 90.4569 253.819C90.5013 253.809 90.5411 253.811 90.5762 253.825C90.6192 253.842 90.6498 253.868 90.6679 253.902C90.6876 253.932 90.7046 253.975 90.7189 254.03L90.8757 254.905C90.5954 254.997 90.3008 255.035 89.9919 255.017C89.6829 254.999 89.3819 254.933 89.0888 254.817Z" fill="white"/>
<path d="M97.4119 250.753C97.7987 250.881 98.133 251.061 98.4151 251.291C98.701 251.523 98.922 251.798 99.078 252.115C99.2353 252.428 99.3223 252.78 99.339 253.17C99.357 253.557 99.2927 253.971 99.1461 254.414C99.1091 254.525 99.0721 254.617 99.0351 254.689C99.0033 254.758 98.9662 254.81 98.9238 254.844C98.8867 254.876 98.8429 254.895 98.7924 254.901C98.7433 254.902 98.6848 254.891 98.6171 254.869L94.8254 253.613C94.6606 254.258 94.6769 254.776 94.8742 255.169C95.0715 255.562 95.4134 255.839 95.8998 256C96.139 256.079 96.3536 256.119 96.5435 256.12C96.7374 256.122 96.9094 256.111 97.0594 256.085C97.2134 256.061 97.3475 256.037 97.4617 256.013C97.5799 255.99 97.6848 255.994 97.7765 256.024C97.8363 256.044 97.8842 256.073 97.9201 256.111C97.956 256.15 97.9827 256.196 98.0001 256.251L98.2524 256.932C98.0255 257.069 97.7886 257.17 97.5417 257.234C97.2961 257.294 97.0485 257.327 96.7988 257.333C96.5544 257.336 96.3113 257.315 96.0695 257.27C95.8317 257.227 95.6051 257.17 95.3898 257.098C94.9632 256.957 94.5896 256.756 94.2691 256.495C93.9498 256.23 93.7002 255.915 93.5202 255.55C93.3415 255.181 93.2418 254.768 93.221 254.309C93.2015 253.847 93.2809 253.347 93.4592 252.809C93.5979 252.39 93.7958 252.02 94.0528 251.698C94.3112 251.372 94.6109 251.115 94.9519 250.927C95.2981 250.737 95.6791 250.622 96.0948 250.582C96.5144 250.544 96.9534 250.601 97.4119 250.753ZM97.0912 251.822C96.6606 251.679 96.2834 251.689 95.9597 251.852C95.6359 252.014 95.3662 252.308 95.1505 252.732L97.9254 253.651C97.9888 253.46 98.0223 253.272 98.026 253.087C98.0309 252.898 98.0007 252.723 97.9353 252.559C97.8699 252.396 97.7674 252.251 97.6277 252.126C97.4893 251.996 97.3105 251.894 97.0912 251.822Z" fill="white"/>
<path d="M104.554 252.877C104.822 252.947 105.066 253.042 105.287 253.161C105.509 253.276 105.703 253.412 105.87 253.569L107.667 254.042L107.52 254.603C107.495 254.696 107.451 254.763 107.389 254.803C107.326 254.843 107.233 254.857 107.11 254.847L106.522 254.802C106.535 254.919 106.536 255.038 106.525 255.162C106.519 255.286 106.498 255.413 106.464 255.543C106.383 255.852 106.246 256.115 106.054 256.334C105.867 256.549 105.64 256.716 105.375 256.833C105.114 256.951 104.82 257.019 104.494 257.037C104.173 257.052 103.838 257.014 103.488 256.922C103.253 256.86 103.029 256.777 102.818 256.674C102.592 256.74 102.459 256.846 102.421 256.992C102.388 257.118 102.42 257.227 102.518 257.318C102.62 257.406 102.762 257.486 102.942 257.56C103.127 257.635 103.338 257.707 103.575 257.779C103.814 257.846 104.056 257.923 104.303 258.009C104.549 258.096 104.785 258.197 105.011 258.313C105.238 258.425 105.43 258.561 105.588 258.719C105.75 258.879 105.863 259.07 105.926 259.291C105.995 259.508 105.99 259.766 105.912 260.062C105.839 260.338 105.7 260.588 105.493 260.812C105.291 261.036 105.033 261.216 104.719 261.351C104.41 261.486 104.052 261.566 103.647 261.589C103.24 261.617 102.797 261.567 102.317 261.441C101.842 261.316 101.442 261.161 101.118 260.975C100.792 260.794 100.534 260.595 100.343 260.38C100.155 260.17 100.03 259.95 99.969 259.721C99.9077 259.492 99.9054 259.27 99.9621 259.055C100.039 258.763 100.193 258.54 100.424 258.388C100.655 258.237 100.945 258.143 101.293 258.109C101.161 257.983 101.067 257.837 101.011 257.67C100.955 257.503 100.957 257.306 101.017 257.079C101.042 256.985 101.083 256.894 101.141 256.805C101.2 256.712 101.275 256.626 101.366 256.545C101.461 256.466 101.57 256.397 101.694 256.338C101.819 256.276 101.96 256.228 102.116 256.196C101.844 255.942 101.654 255.648 101.547 255.316C101.443 254.984 101.441 254.628 101.542 254.246C101.623 253.937 101.757 253.675 101.944 253.46C102.137 253.241 102.365 253.073 102.631 252.956C102.901 252.837 103.199 252.769 103.524 252.755C103.853 252.742 104.197 252.783 104.554 252.877ZM104.456 259.952C104.488 259.83 104.477 259.721 104.425 259.625C104.372 259.528 104.288 259.443 104.173 259.369C104.059 259.292 103.919 259.22 103.754 259.155C103.592 259.091 103.417 259.029 103.229 258.971C103.045 258.909 102.853 258.848 102.652 258.786C102.456 258.722 102.268 258.653 102.088 258.579C101.892 258.628 101.725 258.703 101.585 258.805C101.45 258.904 101.361 259.037 101.317 259.203C101.288 259.313 101.288 259.422 101.316 259.529C101.347 259.641 101.413 259.748 101.512 259.848C101.616 259.949 101.758 260.043 101.94 260.13C102.12 260.221 102.348 260.302 102.624 260.375C102.904 260.449 103.152 260.49 103.367 260.499C103.581 260.512 103.763 260.497 103.913 260.454C104.066 260.416 104.187 260.353 104.276 260.263C104.364 260.178 104.424 260.074 104.456 259.952ZM103.742 255.959C103.929 256.009 104.098 256.027 104.249 256.015C104.401 255.998 104.533 255.957 104.646 255.891C104.763 255.827 104.86 255.737 104.938 255.623C105.02 255.51 105.081 255.378 105.12 255.228C105.202 254.919 105.172 254.651 105.033 254.423C104.898 254.192 104.646 254.028 104.276 253.931C103.907 253.833 103.604 253.851 103.369 253.985C103.14 254.115 102.984 254.335 102.903 254.644C102.864 254.79 102.851 254.932 102.862 255.07C102.878 255.208 102.918 255.336 102.983 255.453C103.053 255.567 103.15 255.669 103.274 255.758C103.403 255.844 103.559 255.911 103.742 255.959Z" fill="white"/>
<path d="M110.778 254.465L109.43 260.786L107.908 260.462L109.256 254.14L110.778 254.465ZM111.399 252.671C111.371 252.803 111.318 252.92 111.24 253.024C111.162 253.127 111.069 253.213 110.96 253.28C110.855 253.348 110.738 253.395 110.607 253.423C110.478 253.447 110.345 253.445 110.21 253.416C110.078 253.388 109.958 253.337 109.85 253.262C109.746 253.184 109.66 253.093 109.592 252.988C109.524 252.883 109.476 252.768 109.447 252.641C109.422 252.516 109.424 252.387 109.452 252.256C109.481 252.12 109.533 251.998 109.608 251.89C109.686 251.782 109.778 251.694 109.883 251.626C109.987 251.558 110.102 251.512 110.228 251.487C110.359 251.459 110.49 251.459 110.621 251.487C110.757 251.516 110.878 251.57 110.986 251.649C111.094 251.724 111.183 251.813 111.251 251.918C111.323 252.024 111.373 252.142 111.401 252.272C111.429 252.403 111.428 252.536 111.399 252.671Z" fill="white"/>
<path d="M117.32 257.03C117.265 257.08 117.212 257.118 117.161 257.144C117.114 257.17 117.049 257.177 116.966 257.163C116.888 257.15 116.815 257.115 116.747 257.057C116.681 256.995 116.601 256.927 116.507 256.852C116.413 256.772 116.298 256.698 116.16 256.629C116.027 256.556 115.855 256.502 115.644 256.467C115.375 256.423 115.13 256.434 114.911 256.5C114.692 256.562 114.499 256.673 114.333 256.833C114.17 256.993 114.034 257.199 113.925 257.449C113.817 257.695 113.735 257.982 113.682 258.309C113.626 258.649 113.611 258.957 113.638 259.234C113.669 259.512 113.738 259.753 113.845 259.958C113.952 260.158 114.096 260.322 114.275 260.45C114.455 260.573 114.667 260.654 114.911 260.695C115.156 260.735 115.358 260.738 115.516 260.705C115.68 260.668 115.819 260.622 115.934 260.569C116.05 260.511 116.15 260.46 116.234 260.414C116.323 260.365 116.415 260.348 116.511 260.364C116.635 260.384 116.721 260.447 116.767 260.553L117.117 261.185C116.914 261.356 116.702 261.493 116.481 261.597C116.26 261.697 116.035 261.771 115.806 261.818C115.581 261.862 115.353 261.882 115.119 261.878C114.886 261.874 114.657 261.853 114.433 261.816C114.04 261.752 113.681 261.618 113.356 261.416C113.033 261.21 112.764 260.944 112.549 260.619C112.338 260.295 112.189 259.918 112.103 259.486C112.021 259.052 112.023 258.573 112.109 258.051C112.186 257.582 112.323 257.16 112.521 256.784C112.724 256.405 112.98 256.091 113.288 255.844C113.598 255.593 113.959 255.416 114.372 255.313C114.784 255.211 115.241 255.201 115.743 255.283C116.219 255.361 116.623 255.507 116.955 255.718C117.29 255.931 117.577 256.204 117.816 256.537L117.32 257.03Z" fill="white"/>
<path d="M131.38 263.426L130.072 263.346C129.925 263.337 129.806 263.294 129.714 263.217C129.626 263.136 129.565 263.039 129.53 262.928L128.964 261.031L125.197 260.801L124.405 262.615C124.365 262.709 124.293 262.793 124.187 262.866C124.086 262.94 123.964 262.973 123.821 262.964L122.507 262.884L126.635 254.009L128.364 254.115L131.38 263.426ZM125.704 259.633L128.603 259.81L127.681 256.718C127.639 256.58 127.592 256.42 127.54 256.236C127.493 256.048 127.446 255.845 127.401 255.628C127.329 255.838 127.258 256.033 127.188 256.214C127.122 256.395 127.058 256.553 126.995 256.688L125.704 259.633Z" fill="white"/>
<path d="M138.239 263.374C138.038 263.377 137.904 263.284 137.838 263.096L137.702 262.475C137.57 262.628 137.432 262.767 137.287 262.891C137.141 263.015 136.984 263.122 136.813 263.213C136.646 263.304 136.464 263.374 136.268 263.423C136.075 263.476 135.866 263.505 135.639 263.508C135.286 263.514 134.962 263.445 134.665 263.303C134.369 263.16 134.112 262.952 133.894 262.678C133.679 262.4 133.51 262.056 133.386 261.646C133.267 261.236 133.203 260.767 133.195 260.238C133.187 259.759 133.245 259.313 133.369 258.899C133.493 258.486 133.675 258.126 133.914 257.82C134.152 257.514 134.441 257.274 134.778 257.101C135.116 256.924 135.497 256.832 135.921 256.825C136.282 256.82 136.592 256.874 136.849 256.987C137.107 257.097 137.339 257.247 137.543 257.437L137.491 254.022L139.047 253.999L139.19 263.359L138.239 263.374ZM136.149 262.265C136.473 262.261 136.747 262.189 136.971 262.051C137.196 261.913 137.407 261.719 137.605 261.468L137.561 258.57C137.381 258.359 137.185 258.211 136.974 258.126C136.767 258.041 136.544 258 136.304 258.004C136.069 258.007 135.856 258.055 135.664 258.146C135.476 258.237 135.317 258.374 135.185 258.557C135.057 258.735 134.96 258.963 134.893 259.241C134.826 259.516 134.795 259.839 134.801 260.213C134.807 260.591 134.841 260.912 134.904 261.176C134.971 261.435 135.062 261.648 135.178 261.814C135.294 261.976 135.435 262.094 135.599 262.167C135.764 262.236 135.948 262.269 136.149 262.265Z" fill="white"/>
<path d="M145.198 262.987L143.791 263.102L140.706 256.867L141.993 256.762C142.106 256.753 142.203 256.773 142.282 256.821C142.366 256.869 142.426 256.934 142.462 257.015L143.985 260.355C144.073 260.55 144.147 260.742 144.209 260.931C144.275 261.12 144.334 261.309 144.388 261.498C144.41 261.303 144.436 261.107 144.466 260.91C144.501 260.714 144.548 260.512 144.607 260.305L145.602 256.76C145.625 256.674 145.671 256.601 145.742 256.54C145.813 256.48 145.901 256.445 146.006 256.437L147.23 256.337L145.198 262.987Z" fill="white"/>
<path d="M150.921 255.865L151.75 262.275L150.207 262.475L149.378 256.064L150.921 255.865ZM150.911 253.967C150.928 254.1 150.917 254.228 150.878 254.352C150.839 254.476 150.779 254.587 150.699 254.686C150.623 254.785 150.528 254.869 150.414 254.939C150.3 255.005 150.174 255.046 150.036 255.064C149.903 255.082 149.773 255.073 149.646 255.039C149.522 255 149.411 254.942 149.312 254.866C149.213 254.79 149.129 254.697 149.06 254.587C148.995 254.477 148.954 254.355 148.936 254.222C148.919 254.084 148.927 253.952 148.961 253.825C149 253.697 149.057 253.584 149.133 253.485C149.209 253.386 149.303 253.304 149.413 253.239C149.527 253.169 149.65 253.126 149.783 253.109C149.921 253.091 150.054 253.101 150.181 253.14C150.309 253.174 150.422 253.229 150.52 253.306C150.623 253.381 150.71 253.476 150.779 253.59C150.849 253.703 150.893 253.829 150.911 253.967Z" fill="white"/>
<path d="M157.201 256.129C157.171 256.202 157.136 256.257 157.095 256.294C157.054 256.327 156.998 256.35 156.928 256.362C156.853 256.375 156.769 256.368 156.675 256.342C156.585 256.315 156.48 256.286 156.359 256.256C156.238 256.222 156.102 256.197 155.95 256.181C155.802 256.164 155.631 256.172 155.436 256.206C155.134 256.259 154.908 256.365 154.756 256.523C154.605 256.682 154.547 256.865 154.583 257.071C154.607 257.208 154.671 257.316 154.774 257.396C154.881 257.471 155.013 257.532 155.17 257.577C155.331 257.621 155.51 257.656 155.706 257.681C155.902 257.703 156.103 257.729 156.309 257.762C156.515 257.794 156.718 257.837 156.92 257.892C157.12 257.942 157.305 258.021 157.473 258.128C157.644 258.23 157.789 258.365 157.908 258.531C158.03 258.698 158.114 258.909 158.159 259.165C158.212 259.472 158.206 259.765 158.14 260.045C158.073 260.321 157.948 260.573 157.766 260.801C157.584 261.025 157.342 261.218 157.043 261.381C156.746 261.539 156.393 261.654 155.984 261.726C155.764 261.764 155.546 261.781 155.327 261.776C155.114 261.775 154.904 261.756 154.697 261.72C154.495 261.683 154.302 261.631 154.12 261.565C153.942 261.498 153.781 261.419 153.638 261.329L153.89 260.684C153.923 260.606 153.967 260.543 154.023 260.495C154.079 260.447 154.154 260.414 154.249 260.398C154.344 260.381 154.438 260.392 154.53 260.432C154.626 260.47 154.736 260.511 154.858 260.554C154.981 260.596 155.121 260.631 155.28 260.659C155.442 260.686 155.639 260.68 155.871 260.639C156.053 260.607 156.204 260.56 156.325 260.496C156.45 260.427 156.547 260.351 156.618 260.266C156.692 260.18 156.74 260.089 156.762 259.991C156.787 259.889 156.79 259.788 156.773 259.689C156.747 259.54 156.68 259.426 156.572 259.346C156.469 259.266 156.337 259.204 156.175 259.16C156.018 259.115 155.84 259.082 155.64 259.061C155.444 259.036 155.241 259.007 155.031 258.976C154.825 258.944 154.619 258.901 154.413 258.847C154.211 258.788 154.024 258.704 153.851 258.593C153.682 258.482 153.535 258.335 153.41 258.152C153.288 257.969 153.203 257.737 153.154 257.455C153.108 257.195 153.117 256.937 153.179 256.683C153.241 256.43 153.356 256.198 153.525 255.99C153.696 255.777 153.922 255.592 154.202 255.437C154.485 255.277 154.823 255.162 155.216 255.094C155.655 255.017 156.067 255.02 156.452 255.102C156.837 255.184 157.171 255.322 157.452 255.516L157.201 256.129Z" fill="white"/>
<path d="M161.672 253.783C162.142 253.672 162.585 253.647 163.001 253.709C163.421 253.769 163.798 253.907 164.134 254.121C164.469 254.335 164.758 254.625 165 254.991C165.241 255.357 165.421 255.787 165.537 256.282C165.655 256.78 165.688 257.247 165.635 257.683C165.583 258.118 165.455 258.508 165.252 258.854C165.048 259.2 164.773 259.494 164.424 259.736C164.08 259.977 163.672 260.153 163.202 260.264C162.732 260.375 162.287 260.4 161.867 260.34C161.447 260.279 161.067 260.14 160.727 259.923C160.39 259.704 160.099 259.413 159.853 259.048C159.612 258.682 159.432 258.25 159.314 257.751C159.197 257.257 159.165 256.792 159.218 256.356C159.274 255.92 159.405 255.531 159.609 255.189C159.817 254.847 160.096 254.554 160.444 254.312C160.793 254.07 161.202 253.894 161.672 253.783ZM162.927 259.099C163.45 258.975 163.795 258.708 163.962 258.298C164.132 257.887 164.137 257.342 163.977 256.663C163.817 255.984 163.568 255.497 163.23 255.202C162.897 254.905 162.469 254.818 161.946 254.942C161.414 255.067 161.064 255.34 160.896 255.759C160.726 256.175 160.721 256.72 160.88 257.394C161.04 258.069 161.288 258.554 161.625 258.85C161.962 259.141 162.396 259.224 162.927 259.099Z" fill="white"/>
<path d="M168.477 258.829L166.643 252.631L167.519 252.371C167.672 252.326 167.787 252.323 167.864 252.361C167.941 252.4 168.01 252.485 168.071 252.615L168.383 253.338C168.491 252.89 168.662 252.511 168.894 252.201C169.127 251.891 169.428 251.682 169.799 251.572C170.105 251.481 170.38 251.477 170.623 251.558L170.76 252.733C170.769 252.809 170.759 252.869 170.728 252.913C170.696 252.953 170.646 252.984 170.577 253.004C170.517 253.022 170.43 253.032 170.317 253.035C170.204 253.038 170.061 253.065 169.888 253.116C169.578 253.208 169.338 253.373 169.167 253.612C168.996 253.846 168.882 254.151 168.827 254.527L169.969 258.387L168.477 258.829Z" fill="white"/>
<path d="M177.254 257.893C177.248 258.012 177.218 258.109 177.166 258.186C177.119 258.266 177.024 258.332 176.882 258.383L175.792 258.778L176.047 255.931L171.55 251.195L172.83 250.731C172.948 250.689 173.049 250.683 173.132 250.716C173.216 250.748 173.286 250.794 173.343 250.854L175.782 253.535C175.863 253.622 175.939 253.715 176.01 253.814C176.082 253.913 176.15 254.014 176.214 254.116C176.204 253.99 176.197 253.867 176.194 253.747C176.195 253.627 176.197 253.503 176.2 253.377L176.281 249.789C176.284 249.699 176.312 249.615 176.364 249.538C176.421 249.46 176.494 249.404 176.585 249.371L177.758 248.946L177.254 257.893Z" fill="white"/>
<path d="M187.338 243.58C187.337 243.684 187.316 243.766 187.276 243.827C187.239 243.887 187.183 243.935 187.107 243.972C187.032 244.008 186.933 244.021 186.811 244.01C186.687 243.995 186.544 243.982 186.38 243.973C186.217 243.963 186.035 243.972 185.833 243.999C185.634 244.02 185.417 244.088 185.182 244.201C184.971 244.303 184.798 244.419 184.665 244.549C184.533 244.673 184.435 244.807 184.369 244.95C184.307 245.092 184.28 245.24 184.289 245.394C184.297 245.545 184.337 245.696 184.41 245.847C184.503 246.04 184.633 246.175 184.801 246.253C184.973 246.328 185.17 246.369 185.391 246.374C185.613 246.379 185.855 246.362 186.116 246.325C186.378 246.287 186.646 246.253 186.921 246.223C187.197 246.188 187.476 246.17 187.756 246.17C188.034 246.166 188.302 246.205 188.56 246.286C188.816 246.362 189.055 246.494 189.276 246.682C189.5 246.867 189.695 247.13 189.859 247.47C190.038 247.841 190.142 248.22 190.17 248.607C190.2 248.989 190.151 249.36 190.022 249.721C189.895 250.076 189.689 250.409 189.405 250.718C189.119 251.024 188.749 251.287 188.295 251.506C188.034 251.632 187.764 251.73 187.485 251.799C187.208 251.872 186.929 251.918 186.649 251.936C186.373 251.953 186.1 251.945 185.832 251.911C185.568 251.875 185.317 251.814 185.08 251.729L185.169 250.783C185.185 250.71 185.213 250.643 185.254 250.581C185.296 250.514 185.353 250.463 185.425 250.429C185.519 250.383 185.641 250.374 185.789 250.4C185.935 250.423 186.105 250.446 186.298 250.469C186.495 250.491 186.712 250.493 186.951 250.475C187.192 250.453 187.454 250.373 187.738 250.236C188.173 250.026 188.46 249.761 188.6 249.442C188.738 249.119 188.714 248.764 188.528 248.379C188.424 248.163 188.284 248.014 188.108 247.93C187.937 247.845 187.74 247.8 187.519 247.795C187.295 247.787 187.054 247.805 186.797 247.85C186.539 247.895 186.274 247.937 186.003 247.974C185.732 248.012 185.457 248.032 185.179 248.036C184.901 248.04 184.632 247.999 184.372 247.915C184.112 247.83 183.866 247.688 183.634 247.487C183.404 247.281 183.199 246.991 183.018 246.616C182.874 246.318 182.792 245.998 182.773 245.658C182.757 245.316 182.809 244.98 182.93 244.651C183.055 244.321 183.252 244.009 183.521 243.716C183.79 243.423 184.138 243.173 184.566 242.967C185.05 242.733 185.533 242.593 186.014 242.547C186.496 242.502 186.946 242.545 187.365 242.679L187.338 243.58Z" fill="white"/>
<path d="M192.704 241.71C193.125 241.472 193.543 241.325 193.96 241.268C194.38 241.209 194.781 241.236 195.163 241.348C195.545 241.46 195.903 241.658 196.237 241.942C196.571 242.226 196.863 242.589 197.113 243.032C197.365 243.478 197.527 243.917 197.598 244.35C197.669 244.783 197.655 245.193 197.556 245.582C197.457 245.971 197.274 246.33 197.007 246.659C196.743 246.987 196.402 247.269 195.981 247.507C195.561 247.745 195.14 247.893 194.72 247.952C194.3 248.011 193.896 247.984 193.508 247.87C193.125 247.754 192.764 247.555 192.426 247.273C192.092 246.989 191.799 246.624 191.546 246.178C191.296 245.736 191.136 245.298 191.065 244.866C190.998 244.431 191.014 244.021 191.115 243.636C191.22 243.249 191.406 242.89 191.673 242.561C191.94 242.231 192.284 241.948 192.704 241.71ZM195.392 246.465C195.86 246.201 196.117 245.848 196.162 245.407C196.211 244.965 196.064 244.44 195.721 243.833C195.378 243.226 195.003 242.828 194.596 242.638C194.194 242.446 193.758 242.482 193.29 242.747C192.815 243.015 192.555 243.375 192.51 243.824C192.463 244.271 192.61 244.795 192.951 245.399C193.292 246.002 193.666 246.399 194.072 246.589C194.477 246.775 194.917 246.734 195.392 246.465Z" fill="white"/>
<path d="M197.03 235.84L202.037 243.751L200.722 244.583L195.715 236.672L197.03 235.84Z" fill="white"/>
<path d="M201.639 236.261L204.007 239.617C204.235 239.94 204.485 240.138 204.758 240.213C205.033 240.281 205.319 240.21 205.618 240C205.838 239.845 206.01 239.651 206.134 239.42C206.256 239.185 206.342 238.921 206.393 238.628L203.699 234.808L204.97 233.911L208.696 239.193L207.919 239.742C207.754 239.858 207.591 239.857 207.431 239.739L207.046 239.378C207.013 239.566 206.971 239.747 206.92 239.922C206.866 240.093 206.795 240.259 206.708 240.419C206.621 240.572 206.512 240.721 206.382 240.864C206.258 241.008 206.108 241.142 205.933 241.266C205.645 241.469 205.355 241.601 205.064 241.663C204.774 241.718 204.491 241.71 204.214 241.638C203.937 241.566 203.673 241.436 203.422 241.248C203.173 241.054 202.944 240.809 202.735 240.514L200.368 237.158L201.639 236.261Z" fill="white"/>
<path d="M212.616 236.275C212.179 236.623 211.744 236.767 211.311 236.709C210.876 236.648 210.484 236.398 210.137 235.961L207.889 233.137L207.376 233.545C207.31 233.597 207.236 233.621 207.153 233.618C207.073 233.612 206.999 233.566 206.931 233.48L206.546 232.997L207.254 232.217L206.412 230.633C206.373 230.556 206.362 230.482 206.379 230.409C206.399 230.334 206.446 230.267 206.518 230.21L207.149 229.708L208.416 231.3L209.747 230.241L210.438 231.109L209.106 232.168L211.288 234.909C211.413 235.066 211.551 235.158 211.7 235.184C211.85 235.21 211.99 235.171 212.121 235.066C212.197 235.006 212.253 234.948 212.289 234.893C212.326 234.831 212.355 234.776 212.375 234.727C212.399 234.676 212.419 234.631 212.436 234.591C212.449 234.548 212.471 234.514 212.501 234.491C212.537 234.462 212.574 234.448 212.613 234.45C212.649 234.448 212.695 234.454 212.75 234.47L213.585 234.771C213.525 235.06 213.411 235.334 213.241 235.593C213.071 235.851 212.863 236.079 212.616 236.275Z" fill="white"/>
<path d="M213.059 227.333L217.313 232.199L216.142 233.224L211.887 228.357L213.059 227.333ZM211.994 225.762C212.083 225.863 212.145 225.976 212.181 226.1C212.218 226.225 212.23 226.35 212.218 226.478C212.21 226.602 212.178 226.725 212.122 226.846C212.064 226.964 211.982 227.069 211.878 227.16C211.777 227.249 211.664 227.314 211.539 227.356C211.414 227.393 211.29 227.407 211.166 227.398C211.041 227.39 210.92 227.359 210.801 227.307C210.686 227.251 210.584 227.173 210.495 227.072C210.404 226.968 210.337 226.853 210.295 226.728C210.256 226.601 210.241 226.474 210.249 226.35C210.257 226.226 210.289 226.106 210.345 225.99C210.4 225.869 210.479 225.764 210.58 225.676C210.684 225.584 210.8 225.519 210.928 225.48C211.053 225.438 211.178 225.421 211.302 225.429C211.43 225.435 211.554 225.466 211.675 225.521C211.797 225.577 211.903 225.657 211.994 225.762Z" fill="white"/>
<path d="M216.668 223.87C217.015 223.535 217.383 223.287 217.772 223.127C218.163 222.964 218.558 222.889 218.956 222.902C219.354 222.914 219.75 223.016 220.145 223.207C220.54 223.398 220.914 223.676 221.267 224.041C221.623 224.41 221.89 224.794 222.067 225.195C222.245 225.596 222.335 225.997 222.337 226.398C222.339 226.799 222.252 227.193 222.076 227.579C221.904 227.962 221.644 228.322 221.296 228.658C220.949 228.993 220.58 229.242 220.188 229.405C219.796 229.568 219.398 229.643 218.994 229.63C218.594 229.615 218.194 229.513 217.797 229.325C217.402 229.134 217.026 228.854 216.67 228.486C216.317 228.121 216.052 227.738 215.874 227.337C215.7 226.933 215.613 226.532 215.614 226.134C215.617 225.733 215.707 225.339 215.883 224.953C216.059 224.567 216.32 224.206 216.668 223.87ZM220.464 227.797C220.851 227.423 221.011 227.018 220.944 226.58C220.88 226.139 220.606 225.668 220.121 225.167C219.636 224.666 219.173 224.374 218.732 224.293C218.294 224.208 217.882 224.353 217.495 224.726C217.103 225.106 216.941 225.519 217.011 225.966C217.078 226.409 217.352 226.88 217.834 227.378C218.315 227.877 218.777 228.167 219.218 228.248C219.656 228.327 220.072 228.176 220.464 227.797Z" fill="white"/>
<path d="M225.16 224.692L220.373 220.349L221.013 219.645C221.148 219.495 221.307 219.461 221.489 219.541L221.939 219.805C221.927 219.618 221.929 219.435 221.944 219.256C221.962 219.074 221.995 218.897 222.043 218.725C222.094 218.55 222.166 218.38 222.259 218.215C222.352 218.05 222.472 217.886 222.619 217.725C222.856 217.463 223.111 217.272 223.385 217.152C223.655 217.029 223.932 216.974 224.215 216.987C224.498 216.994 224.782 217.065 225.068 217.2C225.354 217.328 225.631 217.514 225.898 217.757L228.945 220.521L227.899 221.674L224.853 218.909C224.56 218.644 224.273 218.508 223.99 218.501C223.707 218.488 223.442 218.617 223.197 218.887C223.016 219.086 222.892 219.314 222.824 219.57C222.756 219.826 222.73 220.102 222.744 220.399L226.206 223.54L225.16 224.692Z" fill="white"/>
<path d="M228.998 212.26C229.024 212.335 229.034 212.4 229.028 212.454C229.018 212.506 228.991 212.559 228.946 212.615C228.899 212.674 228.831 212.724 228.743 212.767C228.657 212.806 228.559 212.853 228.449 212.91C228.335 212.964 228.216 213.035 228.091 213.123C227.968 213.207 227.845 213.327 227.721 213.48C227.528 213.719 227.427 213.947 227.418 214.166C227.408 214.385 227.485 214.561 227.649 214.693C227.756 214.78 227.876 214.82 228.006 214.812C228.136 214.798 228.275 214.756 228.423 214.687C228.573 214.614 228.731 214.522 228.895 214.412C229.057 214.3 229.225 214.188 229.402 214.076C229.578 213.965 229.76 213.863 229.947 213.772C230.131 213.678 230.322 213.615 230.519 213.586C230.715 213.55 230.913 213.556 231.112 213.603C231.314 213.647 231.516 213.751 231.719 213.915C231.96 214.11 232.149 214.335 232.283 214.589C232.415 214.841 232.487 215.113 232.5 215.404C232.51 215.693 232.455 215.997 232.337 216.317C232.218 216.632 232.028 216.951 231.767 217.274C231.627 217.447 231.474 217.604 231.306 217.744C231.145 217.884 230.974 218.008 230.795 218.117C230.618 218.222 230.439 218.31 230.258 218.38C230.08 218.447 229.908 218.493 229.74 218.52L229.505 217.869C229.479 217.788 229.47 217.711 229.481 217.638C229.491 217.566 229.526 217.492 229.587 217.417C229.648 217.341 229.726 217.288 229.821 217.257C229.919 217.223 230.028 217.181 230.148 217.133C230.268 217.084 230.397 217.018 230.535 216.935C230.675 216.848 230.819 216.713 230.967 216.531C231.083 216.387 231.165 216.251 231.214 216.123C231.263 215.99 231.286 215.868 231.283 215.758C231.283 215.644 231.259 215.544 231.211 215.456C231.162 215.363 231.098 215.285 231.02 215.221C230.902 215.126 230.777 215.084 230.644 215.095C230.513 215.103 230.372 215.144 230.222 215.216C230.074 215.286 229.918 215.379 229.754 215.495C229.59 215.605 229.418 215.717 229.239 215.832C229.063 215.943 228.88 216.046 228.69 216.141C228.499 216.23 228.302 216.29 228.099 216.32C227.899 216.348 227.692 216.334 227.477 216.279C227.265 216.221 227.047 216.102 226.825 215.923C226.619 215.757 226.456 215.557 226.336 215.325C226.216 215.093 226.15 214.843 226.14 214.576C226.129 214.302 226.177 214.015 226.285 213.713C226.393 213.406 226.572 213.098 226.823 212.787C227.103 212.441 227.415 212.172 227.759 211.98C228.103 211.788 228.444 211.672 228.783 211.633L228.998 212.26Z" fill="white"/>
<defs>
<linearGradient id="paint0_linear_17143_24762" x1="136.067" y1="1" x2="136.067" y2="271.576" gradientUnits="userSpaceOnUse">
<stop stop-color="#00D693"/>
<stop offset="1" stop-color="#009B6B"/>
</linearGradient>
<linearGradient id="paint1_linear_17143_24762" x1="136.067" y1="1" x2="136.067" y2="271.576" gradientUnits="userSpaceOnUse">
<stop stop-color="#00AF78"/>
<stop offset="1" stop-color="#00734F"/>
</linearGradient>
</defs>
</svg>
