<svg width="192" height="192" viewBox="0 0 192 192" fill="none" xmlns="http://www.w3.org/2000/svg">
<g clip-path="url(#clip0_17143_70026)">
<path d="M149.924 116.852L154.654 111.298L141.123 99.8857V96.5951L149.924 104.016L154.654 98.4854L137.452 83.9695L120.226 98.4854L124.98 104.016L133.781 96.5951V99.8857L120.226 111.298L124.98 116.852L133.781 109.431V112.721L120.226 124.133L124.98 129.664L133.781 122.266V135.219H54.6648V56.758H133.781V73.1409H141.123V49.5H47.3462V142.5H141.123V122.266L149.924 129.664L154.654 124.133L141.123 112.721V109.431L149.924 116.852Z" fill="#00734F"/>
<path d="M61.9359 74.1675C61.0417 74.1675 60.3357 73.9808 59.818 73.6074C59.3003 73.234 58.9238 72.6972 58.6884 71.9971C58.4531 71.297 58.3354 70.4801 58.3354 69.5466V65.0425C58.3354 64.0857 58.4531 63.2455 58.6649 62.5454C58.8767 61.8453 59.2767 61.3085 59.8415 60.9351C60.4063 60.5617 61.1829 60.375 62.1712 60.375C63.089 60.375 63.842 60.5384 64.3833 60.8418C64.9245 61.1451 65.3246 61.5886 65.5599 62.172C65.7952 62.7554 65.9129 63.4556 65.9129 64.2957V64.9958H63.5832V64.2257C63.5832 63.7823 63.5596 63.4322 63.489 63.1055C63.4184 62.8021 63.3008 62.5687 63.1125 62.4054C62.9243 62.242 62.6183 62.172 62.2183 62.172C61.7712 62.172 61.4653 62.2887 61.277 62.4987C61.0887 62.7088 60.9475 62.9888 60.9005 63.3389C60.8534 63.6889 60.8299 64.0623 60.8299 64.4591V70.0834C60.8299 70.5502 60.8769 70.9469 60.9475 71.297C61.0181 71.647 61.1593 71.9037 61.3947 72.0904C61.6065 72.2771 61.9124 72.3705 62.2889 72.3705C62.6889 72.3705 62.9949 72.2771 63.2067 72.0671C63.4184 71.8571 63.5596 71.6003 63.6538 71.2269C63.7479 70.8769 63.7714 70.4568 63.7714 69.9667V68.7065H62.3124V67.1662H66.007V74.0041H64.4068L64.2185 72.6739C64.0303 73.1173 63.7714 73.4907 63.3949 73.7707C63.0655 74.0274 62.5713 74.1675 61.9359 74.1675Z" fill="#00734F"/>
<path d="M67.4438 74.0048V60.5391H70.6913C71.6091 60.5391 72.3856 60.6558 73.021 60.8658C73.6564 61.0758 74.127 61.4492 74.4565 61.9627C74.7859 62.4761 74.9507 63.1995 74.9507 64.0864C74.9507 64.6231 74.9036 65.1132 74.8095 65.5566C74.7153 66 74.5271 66.3501 74.2918 66.6535C74.0564 66.9569 73.727 67.1903 73.3034 67.3536L75.186 73.9815H72.7151L71.0678 67.8204H69.9383V74.0048H67.4438ZM69.9147 66.2801H70.6913C71.162 66.2801 71.562 66.2101 71.8444 66.0701C72.1268 65.93 72.3386 65.72 72.4562 65.4166C72.5739 65.1132 72.6445 64.7165 72.6445 64.2497C72.6445 63.5729 72.5268 63.0595 72.268 62.7328C72.0091 62.4061 71.5385 62.2194 70.8325 62.2194H69.9383V66.2801H69.9147Z" fill="#00734F"/>
<path d="M76.4556 74.0048V60.5391H82.1504V62.266H78.9265V66.1401H81.468V67.8437H78.95V72.3012H82.1975V74.0048H76.4556V74.0048Z" fill="#00734F"/>
<path d="M83.3491 74.0048V60.5391H89.044V62.266H85.82V66.1401H88.338V67.8437H85.82V72.3012H89.0675V74.0048H83.3491V74.0048Z" fill="#00734F"/>
<path d="M90.2222 74.0048V60.5391H91.94L95.2346 68.2171V60.5391H97.2819V74.0048H95.6346L92.3166 65.9534V74.0048H90.2222Z" fill="#00734F"/>
<path d="M58.5464 91.5068V78.041H64.1236V79.7447H61.0173V83.6654H63.5353V85.369H61.0173V91.5068H58.5464Z" fill="#00734F"/>
<path d="M69.0912 91.6701C68.0793 91.6701 67.3027 91.4834 66.7379 91.1334C66.1731 90.76 65.7966 90.2465 65.5848 89.5697C65.373 88.893 65.2554 88.0761 65.2554 87.1426V78.041H67.6792V87.4227C67.6792 87.8428 67.7027 88.2395 67.7733 88.6129C67.8204 88.9863 67.9616 89.2897 68.1734 89.4997C68.3852 89.7331 68.6911 89.8498 69.1147 89.8498C69.5618 89.8498 69.8677 89.7331 70.056 89.4997C70.2442 89.2664 70.3854 88.963 70.4325 88.6129C70.5031 88.2395 70.5266 87.8428 70.5266 87.4227V78.041H72.9269V87.1426C72.9269 88.0761 72.8093 88.893 72.5975 89.5697C72.3857 90.2465 72.0092 90.76 71.4444 91.1334C70.9031 91.5068 70.103 91.6701 69.0912 91.6701Z" fill="#00734F"/>
<path d="M76.1274 91.5068V79.8613H73.9624V78.041H80.7397V79.8613H78.6218V91.5068H76.1274Z" fill="#00734F"/>
<path d="M85.5853 91.6701C84.5734 91.6701 83.7968 91.4834 83.2321 91.1334C82.6673 90.76 82.2908 90.2465 82.079 89.5697C81.8672 88.893 81.7495 88.0761 81.7495 87.1426V78.041H84.1733V87.4227C84.1733 87.8428 84.1969 88.2395 84.2675 88.6129C84.3145 88.9863 84.4557 89.2897 84.6675 89.4997C84.8793 89.7331 85.1852 89.8498 85.6088 89.8498C86.0559 89.8498 86.3619 89.7331 86.5501 89.4997C86.7384 89.2664 86.8796 88.963 86.9266 88.6129C86.9972 88.2395 87.0208 87.8428 87.0208 87.4227V78.041H89.4211V87.1426C89.4211 88.0761 89.3034 88.893 89.0916 89.5697C88.8798 90.2465 88.5033 90.76 87.9385 91.1334C87.3973 91.5068 86.6207 91.6701 85.5853 91.6701Z" fill="#00734F"/>
<path d="M90.8813 91.5068V78.041H94.1288C95.0466 78.041 95.8231 78.1577 96.4585 78.3677C97.0939 78.5778 97.5645 78.9512 97.894 79.4646C98.2235 79.978 98.3882 80.7015 98.3882 81.5883C98.3882 82.1251 98.3411 82.6152 98.247 83.0586C98.1529 83.502 97.9646 83.8521 97.7293 84.1554C97.4939 84.4588 97.1645 84.6922 96.7409 84.8556L98.6235 91.4834H96.1526L94.5053 85.3223H93.3758V91.5068H90.8813ZM93.3522 83.782H94.1288C94.5995 83.782 94.9995 83.712 95.2819 83.572C95.5643 83.432 95.7761 83.2219 95.8937 82.9186C96.0114 82.6152 96.082 82.2184 96.082 81.7517C96.082 81.0749 95.9643 80.5615 95.7055 80.2347C95.4466 79.908 94.976 79.7213 94.27 79.7213H93.3758V83.782H93.3522Z" fill="#00734F"/>
<path d="M99.8931 91.5068V78.041H105.588V79.768H102.364V83.642H104.882V85.3457H102.364V89.8031H105.611V91.5068H99.8931Z" fill="#00734F"/>
<path d="M58.5464 109.01V95.5444H62.5234C63.347 95.5444 64.0059 95.6845 64.5001 95.9878C65.0178 96.2912 65.3708 96.7113 65.6296 97.2947C65.865 97.8548 65.9826 98.555 65.9826 99.3718C65.9826 100.235 65.8414 100.959 65.5355 101.495C65.2296 102.032 64.806 102.429 64.2648 102.662C63.7235 102.896 63.0881 103.036 62.3351 103.036H60.9938V109.01H58.5464ZM61.0173 101.285H61.9586C62.4057 101.285 62.7587 101.215 62.994 101.099C63.2529 100.982 63.4176 100.772 63.5117 100.492C63.6059 100.212 63.6529 99.8385 63.6529 99.3484C63.6529 98.8584 63.6059 98.4616 63.5353 98.1582C63.4647 97.8548 63.2999 97.6215 63.0646 97.4814C62.8293 97.3414 62.4528 97.2714 61.9351 97.2714H60.9938V101.285H61.0173Z" fill="#00734F"/>
<path d="M67.2065 109.01V95.5444H70.454C71.3718 95.5444 72.1483 95.6611 72.7837 95.8712C73.4191 96.0812 73.8897 96.4546 74.2192 96.968C74.5486 97.4814 74.7134 98.2049 74.7134 99.0917C74.7134 99.6285 74.6663 100.119 74.5722 100.562C74.4781 101.005 74.2898 101.355 74.0545 101.659C73.8191 101.962 73.4897 102.196 73.0661 102.359L74.9487 108.987H72.4778L70.8305 102.826H69.701V109.01H67.2065ZM69.6774 101.285H70.454C70.9247 101.285 71.3247 101.215 71.6071 101.075C71.8895 100.935 72.1013 100.725 72.2189 100.422C72.3366 100.119 72.4072 99.7218 72.4072 99.2551C72.4072 98.5783 72.2895 98.0649 72.0307 97.7382C71.7718 97.4114 71.3012 97.2247 70.5952 97.2247H69.701V101.285H69.6774Z" fill="#00734F"/>
<path d="M79.9137 109.174C78.9489 109.174 78.1958 108.988 77.6075 108.638C77.0427 108.287 76.6192 107.774 76.3838 107.121C76.1485 106.467 76.0073 105.674 76.0073 104.764V99.7226C76.0073 98.8124 76.125 98.0423 76.3838 97.3889C76.6427 96.7354 77.0427 96.2453 77.6075 95.8953C78.1723 95.5452 78.9489 95.3818 79.9137 95.3818C80.9021 95.3818 81.6786 95.5452 82.2434 95.8953C82.8082 96.2453 83.2082 96.7354 83.4671 97.3889C83.7259 98.0423 83.8436 98.8124 83.8436 99.7226V104.764C83.8436 105.65 83.7259 106.444 83.4671 107.097C83.2082 107.751 82.8082 108.264 82.2434 108.614C81.6551 109.011 80.8785 109.174 79.9137 109.174ZM79.9137 107.377C80.3373 107.377 80.6197 107.284 80.8315 107.121C81.0197 106.934 81.1609 106.701 81.2315 106.397C81.3021 106.094 81.3256 105.744 81.3256 105.394V99.1858C81.3256 98.8124 81.3021 98.4624 81.2315 98.1823C81.1609 97.879 81.0433 97.6456 80.8315 97.4822C80.6432 97.3189 80.3373 97.2255 79.9137 97.2255C79.5136 97.2255 79.2313 97.3189 79.0195 97.4822C78.8077 97.6456 78.69 97.879 78.6194 98.1823C78.5488 98.4857 78.5253 98.8124 78.5253 99.1858V105.394C78.5253 105.767 78.5488 106.094 78.6194 106.397C78.69 106.701 78.8077 106.957 79.0195 107.121C79.2077 107.284 79.5136 107.377 79.9137 107.377Z" fill="#00734F"/>
<path d="M84.5034 109.337V107.61C84.8564 107.61 85.1623 107.587 85.3976 107.54C85.633 107.493 85.8212 107.423 85.9389 107.307C86.0566 107.19 86.1507 107.027 86.2213 106.793C86.2683 106.56 86.3154 106.28 86.3154 105.93V95.5679H88.7628V106.023C88.7628 106.77 88.6687 107.4 88.5039 107.89C88.3157 108.38 88.0097 108.754 87.5626 108.987C87.1155 109.22 86.5037 109.337 85.7036 109.337H84.5034Z" fill="#00734F"/>
<path d="M90.269 109.01V95.5444H95.9639V97.2714H92.7635V101.145H95.2815V102.849H92.7635V107.307H96.011V109.01H90.269V109.01Z" fill="#00734F"/>
<path d="M100.717 109.174C99.7288 109.174 98.9522 108.988 98.3874 108.591C97.8226 108.194 97.4226 107.681 97.2108 107.004C96.9755 106.327 96.8813 105.557 96.8813 104.694V99.9094C96.8813 98.9993 96.999 98.1824 97.2108 97.5057C97.4226 96.8289 97.8226 96.3154 98.3874 95.942C98.9522 95.5686 99.7288 95.4053 100.717 95.4053C101.658 95.4053 102.388 95.5686 102.929 95.872C103.47 96.1987 103.847 96.6422 104.059 97.2256C104.271 97.809 104.388 98.4858 104.388 99.2793V100.4H102.011V99.2326C102.011 98.8592 101.988 98.5092 101.964 98.2058C101.917 97.9024 101.823 97.6457 101.635 97.459C101.47 97.2723 101.164 97.1789 100.741 97.1789C100.317 97.1789 100.011 97.2723 99.7994 97.459C99.6111 97.6457 99.4699 97.9024 99.4228 98.2291C99.3758 98.5558 99.3287 98.9292 99.3287 99.326V105.184C99.3287 105.674 99.3758 106.071 99.4464 106.397C99.517 106.724 99.6582 106.957 99.87 107.121C100.082 107.284 100.364 107.354 100.717 107.354C101.141 107.354 101.423 107.261 101.588 107.074C101.753 106.887 101.87 106.631 101.917 106.304C101.964 105.977 101.988 105.627 101.988 105.23V104.017H104.365V105.09C104.365 105.884 104.247 106.584 104.035 107.214C103.823 107.821 103.447 108.311 102.929 108.661C102.411 109.011 101.658 109.174 100.717 109.174Z" fill="#00734F"/>
<path d="M107.282 109.01V97.3648H105.117V95.5444H111.894V97.3648H109.776V109.01H107.282Z" fill="#00734F"/>
</g>
<defs>
<clipPath id="clip0_17143_70026">
<rect width="107.308" height="93" fill="white" transform="translate(47.3462 49.5)"/>
</clipPath>
</defs>
</svg>
