<svg width="193" height="192" viewBox="0 0 193 192" fill="none" xmlns="http://www.w3.org/2000/svg">
<g clip-path="url(#clip0_18080_75371)">
<path d="M150.172 116.852L154.902 111.298L141.371 99.8857V96.5951L150.172 104.016L154.902 98.4854L137.7 83.9695L120.475 98.4854L125.228 104.016L134.029 96.5951V99.8857L120.475 111.298L125.228 116.852L134.029 109.431V112.721L120.475 124.133L125.228 129.664L134.029 122.266V135.219H54.9133V56.758H134.029V73.1409H141.371V49.5H47.5947V142.5H141.371V122.266L150.172 129.664L154.902 124.133L141.371 112.721V109.431L150.172 116.852Z" fill="white"/>
<path d="M62.1844 74.1675C61.2902 74.1675 60.5842 73.9808 60.0665 73.6074C59.5488 73.234 59.1723 72.6972 58.937 71.9971C58.7016 71.297 58.584 70.4801 58.584 69.5466V65.0425C58.584 64.0857 58.7016 63.2455 58.9134 62.5454C59.1252 61.8453 59.5253 61.3085 60.0901 60.9351C60.6548 60.5617 61.4314 60.375 62.4198 60.375C63.3375 60.375 64.0906 60.5384 64.6318 60.8418C65.1731 61.1451 65.5731 61.5886 65.8084 62.172C66.0438 62.7554 66.1614 63.4556 66.1614 64.2957V64.9958H63.8317V64.2257C63.8317 63.7823 63.8082 63.4322 63.7376 63.1055C63.667 62.8021 63.5493 62.5687 63.3611 62.4054C63.1728 62.242 62.8669 62.172 62.4668 62.172C62.0197 62.172 61.7138 62.2887 61.5255 62.4987C61.3373 62.7088 61.1961 62.9888 61.149 63.3389C61.1019 63.6889 61.0784 64.0623 61.0784 64.4591V70.0834C61.0784 70.5502 61.1255 70.9469 61.1961 71.297C61.2667 71.647 61.4079 71.9037 61.6432 72.0904C61.855 72.2771 62.1609 72.3705 62.5374 72.3705C62.9375 72.3705 63.2434 72.2771 63.4552 72.0671C63.667 71.8571 63.8082 71.6003 63.9023 71.2269C63.9964 70.8769 64.02 70.4568 64.02 69.9667V68.7065H62.561V67.1662H66.2555V74.0041H64.6553L64.4671 72.6739C64.2788 73.1173 64.02 73.4907 63.6434 73.7707C63.314 74.0274 62.8198 74.1675 62.1844 74.1675Z" fill="white"/>
<path d="M67.6924 74.0048V60.5391H70.9398C71.8576 60.5391 72.6342 60.6558 73.2695 60.8658C73.9049 61.0758 74.3756 61.4492 74.705 61.9627C75.0345 62.4761 75.1992 63.1995 75.1992 64.0864C75.1992 64.6231 75.1521 65.1132 75.058 65.5566C74.9639 66 74.7756 66.3501 74.5403 66.6535C74.305 66.9569 73.9755 67.1903 73.5519 67.3536L75.4345 73.9815H72.9636L71.3164 67.8204H70.1868V74.0048H67.6924ZM70.1633 66.2801H70.9398C71.4105 66.2801 71.8105 66.2101 72.0929 66.0701C72.3753 65.93 72.5871 65.72 72.7048 65.4166C72.8224 65.1132 72.893 64.7165 72.893 64.2497C72.893 63.5729 72.7754 63.0595 72.5165 62.7328C72.2577 62.4061 71.787 62.2194 71.081 62.2194H70.1868V66.2801H70.1633Z" fill="white"/>
<path d="M76.7041 74.0048V60.5391H82.3989V62.266H79.175V66.1401H81.7165V67.8437H79.1985V72.3012H82.446V74.0048H76.7041Z" fill="white"/>
<path d="M83.5977 74.0048V60.5391H89.2925V62.266H86.0686V66.1401H88.5865V67.8437H86.0686V72.3012H89.316V74.0048H83.5977Z" fill="white"/>
<path d="M90.4707 74.0048V60.5391H92.1886L95.4831 68.2171V60.5391H97.5304V74.0048H95.8832L92.5651 65.9534V74.0048H90.4707Z" fill="white"/>
<path d="M58.7949 91.5068V78.041H64.3721V79.7447H61.2658V83.6654H63.7838V85.369H61.2658V91.5068H58.7949Z" fill="white"/>
<path d="M69.3397 91.6701C68.3278 91.6701 67.5512 91.4834 66.9864 91.1334C66.4217 90.76 66.0452 90.2465 65.8334 89.5697C65.6216 88.893 65.5039 88.0761 65.5039 87.1426V78.041H67.9277V87.4227C67.9277 87.8428 67.9513 88.2395 68.0219 88.6129C68.0689 88.9863 68.2101 89.2897 68.4219 89.4997C68.6337 89.7331 68.9396 89.8498 69.3632 89.8498C69.8103 89.8498 70.1163 89.7331 70.3045 89.4997C70.4928 89.2664 70.634 88.963 70.681 88.6129C70.7516 88.2395 70.7752 87.8428 70.7752 87.4227V78.041H73.1755V87.1426C73.1755 88.0761 73.0578 88.893 72.846 89.5697C72.6342 90.2465 72.2577 90.76 71.6929 91.1334C71.1517 91.5068 70.3516 91.6701 69.3397 91.6701Z" fill="white"/>
<path d="M76.3759 91.5068V79.8613H74.2109V78.041H80.9883V79.8613H78.8704V91.5068H76.3759Z" fill="white"/>
<path d="M85.8338 91.6701C84.8219 91.6701 84.0454 91.4834 83.4806 91.1334C82.9158 90.76 82.5393 90.2465 82.3275 89.5697C82.1157 88.893 81.998 88.0761 81.998 87.1426V78.041H84.4219V87.4227C84.4219 87.8428 84.4454 88.2395 84.516 88.6129C84.5631 88.9863 84.7043 89.2897 84.9161 89.4997C85.1279 89.7331 85.4338 89.8498 85.8574 89.8498C86.3045 89.8498 86.6104 89.7331 86.7987 89.4997C86.9869 89.2664 87.1281 88.963 87.1752 88.6129C87.2458 88.2395 87.2693 87.8428 87.2693 87.4227V78.041H89.6696V87.1426C89.6696 88.0761 89.5519 88.893 89.3401 89.5697C89.1284 90.2465 88.7518 90.76 88.1871 91.1334C87.6458 91.5068 86.8692 91.6701 85.8338 91.6701Z" fill="white"/>
<path d="M91.1299 91.5068V78.041H94.3774C95.2951 78.041 96.0717 78.1577 96.7071 78.3677C97.3424 78.5778 97.8131 78.9512 98.1425 79.4646C98.472 79.978 98.6367 80.7015 98.6367 81.5883C98.6367 82.1251 98.5896 82.6152 98.4955 83.0586C98.4014 83.502 98.2131 83.8521 97.9778 84.1554C97.7425 84.4588 97.413 84.6922 96.9894 84.8556L98.872 91.4834H96.4011L94.7539 85.3223H93.6243V91.5068H91.1299ZM93.6008 83.782H94.3774C94.848 83.782 95.248 83.712 95.5304 83.572C95.8128 83.432 96.0246 83.2219 96.1423 82.9186C96.2599 82.6152 96.3305 82.2184 96.3305 81.7517C96.3305 81.0749 96.2129 80.5615 95.954 80.2347C95.6952 79.908 95.2245 79.7213 94.5185 79.7213H93.6243V83.782H93.6008Z" fill="white"/>
<path d="M100.142 91.5068V78.041H105.836V79.768H102.613V83.642H105.13V85.3457H102.613V89.8031H105.86V91.5068H100.142Z" fill="white"/>
<path d="M58.7949 109.01V95.5444H62.7719C63.5955 95.5444 64.2544 95.6845 64.7486 95.9878C65.2663 96.2912 65.6193 96.7113 65.8782 97.2947C66.1135 97.8548 66.2312 98.555 66.2312 99.3718C66.2312 100.235 66.09 100.959 65.784 101.495C65.4781 102.032 65.0545 102.429 64.5133 102.662C63.972 102.896 63.3367 103.036 62.5836 103.036H61.2423V109.01H58.7949ZM61.2658 101.285H62.2071C62.6542 101.285 63.0072 101.215 63.2425 101.099C63.5014 100.982 63.6661 100.772 63.7603 100.492C63.8544 100.212 63.9015 99.8385 63.9015 99.3484C63.9015 98.8584 63.8544 98.4616 63.7838 98.1582C63.7132 97.8548 63.5485 97.6215 63.3131 97.4814C63.0778 97.3414 62.7013 97.2714 62.1836 97.2714H61.2423V101.285H61.2658Z" fill="white"/>
<path d="M67.4551 109.01V95.5444H70.7025C71.6203 95.5444 72.3969 95.6611 73.0323 95.8712C73.6676 96.0812 74.1383 96.4546 74.4677 96.968C74.7972 97.4814 74.9619 98.2049 74.9619 99.0917C74.9619 99.6285 74.9148 100.119 74.8207 100.562C74.7266 101.005 74.5383 101.355 74.303 101.659C74.0677 101.962 73.7382 102.196 73.3146 102.359L75.1972 108.987H72.7263L71.0791 102.826H69.9495V109.01H67.4551ZM69.926 101.285H70.7025C71.1732 101.285 71.5732 101.215 71.8556 101.075C72.138 100.935 72.3498 100.725 72.4675 100.422C72.5851 100.119 72.6557 99.7218 72.6557 99.2551C72.6557 98.5783 72.5381 98.0649 72.2792 97.7382C72.0204 97.4114 71.5497 97.2247 70.8437 97.2247H69.9495V101.285H69.926Z" fill="white"/>
<path d="M80.1622 109.174C79.1974 109.174 78.4444 108.988 77.8561 108.638C77.2913 108.287 76.8677 107.774 76.6324 107.121C76.3971 106.467 76.2559 105.674 76.2559 104.764V99.7226C76.2559 98.8124 76.3735 98.0423 76.6324 97.3889C76.8912 96.7354 77.2913 96.2453 77.8561 95.8953C78.4208 95.5452 79.1974 95.3818 80.1622 95.3818C81.1506 95.3818 81.9272 95.5452 82.4919 95.8953C83.0567 96.2453 83.4568 96.7354 83.7156 97.3889C83.9745 98.0423 84.0921 98.8124 84.0921 99.7226V104.764C84.0921 105.65 83.9745 106.444 83.7156 107.097C83.4568 107.751 83.0567 108.264 82.4919 108.614C81.9036 109.011 81.1271 109.174 80.1622 109.174ZM80.1622 107.377C80.5858 107.377 80.8682 107.284 81.08 107.121C81.2683 106.934 81.4094 106.701 81.48 106.397C81.5506 106.094 81.5742 105.744 81.5742 105.394V99.1858C81.5742 98.8124 81.5506 98.4624 81.48 98.1823C81.4094 97.879 81.2918 97.6456 81.08 97.4822C80.8917 97.3189 80.5858 97.2255 80.1622 97.2255C79.7622 97.2255 79.4798 97.3189 79.268 97.4822C79.0562 97.6456 78.9385 97.879 78.868 98.1823C78.7974 98.4857 78.7738 98.8124 78.7738 99.1858V105.394C78.7738 105.767 78.7974 106.094 78.868 106.397C78.9385 106.701 79.0562 106.957 79.268 107.121C79.4563 107.284 79.7622 107.377 80.1622 107.377Z" fill="white"/>
<path d="M84.752 109.337V107.61C85.1049 107.61 85.4109 107.587 85.6462 107.54C85.8815 107.493 86.0698 107.423 86.1874 107.307C86.3051 107.19 86.3992 107.027 86.4698 106.793C86.5169 106.56 86.564 106.28 86.564 105.93V95.5679H89.0113V106.023C89.0113 106.77 88.9172 107.4 88.7525 107.89C88.5642 108.38 88.2583 108.754 87.8112 108.987C87.364 109.22 86.7522 109.337 85.9521 109.337H84.752Z" fill="white"/>
<path d="M90.5176 109.01V95.5444H96.2124V97.2714H93.012V101.145H95.53V102.849H93.012V107.307H96.2595V109.01H90.5176Z" fill="white"/>
<path d="M100.966 109.174C99.9773 109.174 99.2007 108.988 98.636 108.591C98.0712 108.194 97.6711 107.681 97.4593 107.004C97.224 106.327 97.1299 105.557 97.1299 104.694V99.9094C97.1299 98.9993 97.2475 98.1824 97.4593 97.5057C97.6711 96.8289 98.0712 96.3154 98.636 95.942C99.2007 95.5686 99.9773 95.4053 100.966 95.4053C101.907 95.4053 102.636 95.5686 103.178 95.872C103.719 96.1987 104.095 96.6422 104.307 97.2256C104.519 97.809 104.637 98.4858 104.637 99.2793V100.4H102.26V99.2326C102.26 98.8592 102.236 98.5092 102.213 98.2058C102.166 97.9024 102.072 97.6457 101.883 97.459C101.719 97.2723 101.413 97.1789 100.989 97.1789C100.566 97.1789 100.26 97.2723 100.048 97.459C99.8596 97.6457 99.7184 97.9024 99.6714 98.2291C99.6243 98.5558 99.5772 98.9292 99.5772 99.326V105.184C99.5772 105.674 99.6243 106.071 99.6949 106.397C99.7655 106.724 99.9067 106.957 100.118 107.121C100.33 107.284 100.613 107.354 100.966 107.354C101.389 107.354 101.672 107.261 101.836 107.074C102.001 106.887 102.119 106.631 102.166 106.304C102.213 105.977 102.236 105.627 102.236 105.23V104.017H104.613V105.09C104.613 105.884 104.496 106.584 104.284 107.214C104.072 107.821 103.695 108.311 103.178 108.661C102.66 109.011 101.907 109.174 100.966 109.174Z" fill="white"/>
<path d="M107.53 109.01V97.3648H105.365V95.5444H112.143V97.3648H110.025V109.01H107.53Z" fill="white"/>
</g>
<defs>
<clipPath id="clip0_18080_75371">
<rect width="107.308" height="93" fill="white" transform="translate(47.5947 49.5)"/>
</clipPath>
</defs>
</svg>
