<svg width="88" height="88" viewBox="0 0 88 88" fill="none" xmlns="http://www.w3.org/2000/svg">
<g filter="url(#filter0_d_17346_67363)">
<circle cx="44" cy="34" r="24" fill="white"/>
<circle cx="44" cy="34" r="24" fill="url(#paint0_linear_17346_67363)"/>
</g>
<path d="M43.9955 37.4287C46.7635 37.4287 48.9664 35.1838 48.9664 32.4144C48.9664 29.6449 46.7225 27.4001 43.9955 27.4001C41.2275 27.4001 39.0246 29.6449 39.0246 32.4144C38.9812 35.1819 41.228 37.4287 43.9955 37.4287ZM46.4062 38.9715H41.5944C37.8096 38.9715 34.7432 41.8499 34.7432 45.3985C34.7432 46.112 35.3555 46.6858 36.1124 46.6858H51.8882C52.6451 46.6858 53.2575 46.112 53.2575 45.3985C53.2575 41.8499 50.191 38.9715 46.4062 38.9715Z" fill="white"/>
<path opacity="0.4" d="M34.7427 29.7143C36.8728 29.7143 38.5999 27.9873 38.5999 25.8571C38.5999 23.727 36.8738 22 34.7427 22C32.6126 22 30.8856 23.727 30.8856 25.8571C30.8856 27.9873 32.6126 29.7143 34.7427 29.7143ZM53.257 29.7143C55.3871 29.7143 57.1141 27.9873 57.1141 25.8571C57.1141 23.727 55.3881 22 53.257 22C51.1269 22 49.3999 23.727 49.3999 25.8571C49.3999 27.9873 51.1259 29.7143 53.257 29.7143ZM55.1808 31.2571H52.1992C51.582 31.2571 50.9996 31.4036 50.4702 31.6544C50.4991 31.908 50.5474 32.1539 50.5474 32.4143C50.5474 34.0396 49.9312 35.5101 48.9486 36.6571H58.577C59.0475 36.6571 59.4284 36.2521 59.4284 35.7555C59.4284 33.2725 57.5288 31.2571 55.1808 31.2571ZM37.515 31.6477C36.9895 31.3584 36.4109 31.2571 35.7986 31.2571H32.818C30.4729 31.2571 28.5713 33.2725 28.5713 35.7555C28.5713 36.2521 28.9516 36.6571 29.4208 36.6571H39.0396C38.057 35.5101 37.4408 34.0396 37.4408 32.4143C37.4379 32.1539 37.4861 31.9032 37.515 31.6477Z" fill="white"/>
<defs>
<filter id="filter0_d_17346_67363" x="0" y="0" width="88" height="88" filterUnits="userSpaceOnUse" color-interpolation-filters="sRGB">
<feFlood flood-opacity="0" result="BackgroundImageFix"/>
<feColorMatrix in="SourceAlpha" type="matrix" values="0 0 0 0 0 0 0 0 0 0 0 0 0 0 0 0 0 0 127 0" result="hardAlpha"/>
<feOffset dy="10"/>
<feGaussianBlur stdDeviation="10"/>
<feComposite in2="hardAlpha" operator="out"/>
<feColorMatrix type="matrix" values="0 0 0 0 0.483333 0 0 0 0 0.483333 0 0 0 0 0.483333 0 0 0 0.08 0"/>
<feBlend mode="normal" in2="BackgroundImageFix" result="effect1_dropShadow_17346_67363"/>
<feBlend mode="normal" in="SourceGraphic" in2="effect1_dropShadow_17346_67363" result="shape"/>
</filter>
<linearGradient id="paint0_linear_17346_67363" x1="44" y1="10" x2="44" y2="58" gradientUnits="userSpaceOnUse">
<stop stop-color="#9BCA46"/>
<stop offset="1" stop-color="#659B02"/>
</linearGradient>
</defs>
</svg>
