<svg width="37" height="29" viewBox="0 0 37 29" fill="none" xmlns="http://www.w3.org/2000/svg">
<path fill-rule="evenodd" clip-rule="evenodd" d="M28.9998 8.09948V10.8445C28.7017 10.8163 28.4036 10.7995 28.0998 10.7995C24.2523 10.7995 20.928 12.9988 19.2911 16.1994H0.199951V8.09948C0.199951 6.65948 1.46051 5.39949 2.89994 5.39949H7.39992V2.6995C7.39992 1.26007 8.65991 -0.000488281 10.0999 -0.000488281H19.0999C20.5399 -0.000488281 21.7999 1.26007 21.7999 2.6995V5.39949H26.2998C27.7398 5.39949 28.9998 6.65948 28.9998 8.09948ZM10.0999 5.39949H19.0999V2.6995H10.0999V5.39949Z" fill="white"/>
<path fill-rule="evenodd" clip-rule="evenodd" d="M28.9998 8.09948V10.8445C28.7017 10.8163 28.4036 10.7995 28.0998 10.7995C24.2523 10.7995 20.928 12.9988 19.2911 16.1994H0.199951V8.09948C0.199951 6.65948 1.46051 5.39949 2.89994 5.39949H7.39992V2.6995C7.39992 1.26007 8.65991 -0.000488281 10.0999 -0.000488281H19.0999C20.5399 -0.000488281 21.7999 1.26007 21.7999 2.6995V5.39949H26.2998C27.7398 5.39949 28.9998 6.65948 28.9998 8.09948ZM10.0999 5.39949H19.0999V2.6995H10.0999V5.39949Z" fill="url(#paint0_linear_17082_53404)" fill-opacity="0.88"/>
<path fill-rule="evenodd" clip-rule="evenodd" d="M28.9998 8.09948V10.8445C28.7017 10.8163 28.4036 10.7995 28.0998 10.7995C24.2523 10.7995 20.928 12.9988 19.2911 16.1994H0.199951V8.09948C0.199951 6.65948 1.46051 5.39949 2.89994 5.39949H7.39992V2.6995C7.39992 1.26007 8.65991 -0.000488281 10.0999 -0.000488281H19.0999C20.5399 -0.000488281 21.7999 1.26007 21.7999 2.6995V5.39949H26.2998C27.7398 5.39949 28.9998 6.65948 28.9998 8.09948ZM10.0999 5.39949H19.0999V2.6995H10.0999V5.39949Z" fill="url(#paint1_linear_17082_53404)"/>
<g opacity="0.4">
<path d="M18.2055 19.7994H11.8999C11.4049 19.7994 10.9999 19.3944 10.9999 18.8994V16.1994H0.199951V24.2994C0.199951 25.7394 1.46051 26.9994 2.89994 26.9994H20.4611C19.0492 25.2894 18.1999 23.09 18.1999 20.6994C18.1999 20.3957 18.228 20.0975 18.2055 19.7994Z" fill="white"/>
<path d="M18.2055 19.7994H11.8999C11.4049 19.7994 10.9999 19.3944 10.9999 18.8994V16.1994H0.199951V24.2994C0.199951 25.7394 1.46051 26.9994 2.89994 26.9994H20.4611C19.0492 25.2894 18.1999 23.09 18.1999 20.6994C18.1999 20.3957 18.228 20.0975 18.2055 19.7994Z" fill="url(#paint2_linear_17082_53404)" fill-opacity="0.88"/>
<path d="M18.2055 19.7994H11.8999C11.4049 19.7994 10.9999 19.3944 10.9999 18.8994V16.1994H0.199951V24.2994C0.199951 25.7394 1.46051 26.9994 2.89994 26.9994H20.4611C19.0492 25.2894 18.1999 23.09 18.1999 20.6994C18.1999 20.3957 18.228 20.0975 18.2055 19.7994Z" fill="url(#paint3_linear_17082_53404)"/>
</g>
<path d="M27.5723 25.6953L23.8581 22.2277C23.2332 21.646 22.8796 20.8299 22.8796 19.9769V19.8577C22.8796 18.4209 23.9177 17.1958 25.3339 16.9594C26.2712 16.8032 27.225 17.1095 27.895 17.7796L28.1417 18.0262L28.3884 17.7796C29.0585 17.1095 30.0122 16.8032 30.9495 16.9594C32.3657 17.1958 33.4038 18.4209 33.4038 19.8577V19.9769C33.4038 20.8299 33.0502 21.646 32.4254 22.2277L28.7111 25.6953C28.5569 25.8392 28.3534 25.9193 28.1417 25.9193C27.93 25.9193 27.7265 25.8392 27.5723 25.6953Z" fill="white"/>
<path d="M27.5723 25.6953L23.8581 22.2277C23.2332 21.646 22.8796 20.8299 22.8796 19.9769V19.8577C22.8796 18.4209 23.9177 17.1958 25.3339 16.9594C26.2712 16.8032 27.225 17.1095 27.895 17.7796L28.1417 18.0262L28.3884 17.7796C29.0585 17.1095 30.0122 16.8032 30.9495 16.9594C32.3657 17.1958 33.4038 18.4209 33.4038 19.8577V19.9769C33.4038 20.8299 33.0502 21.646 32.4254 22.2277L28.7111 25.6953C28.5569 25.8392 28.3534 25.9193 28.1417 25.9193C27.93 25.9193 27.7265 25.8392 27.5723 25.6953Z" fill="url(#paint4_linear_17082_53404)" fill-opacity="0.88"/>
<path d="M27.5723 25.6953L23.8581 22.2277C23.2332 21.646 22.8796 20.8299 22.8796 19.9769V19.8577C22.8796 18.4209 23.9177 17.1958 25.3339 16.9594C26.2712 16.8032 27.225 17.1095 27.895 17.7796L28.1417 18.0262L28.3884 17.7796C29.0585 17.1095 30.0122 16.8032 30.9495 16.9594C32.3657 17.1958 33.4038 18.4209 33.4038 19.8577V19.9769C33.4038 20.8299 33.0502 21.646 32.4254 22.2277L28.7111 25.6953C28.5569 25.8392 28.3534 25.9193 28.1417 25.9193C27.93 25.9193 27.7265 25.8392 27.5723 25.6953Z" fill="url(#paint5_linear_17082_53404)"/>
<g opacity="0.4">
<path d="M28.0995 12.5996C23.622 12.5996 19.9995 16.2221 19.9995 20.6996C19.9995 25.1771 23.6209 28.7995 28.0995 28.7995C32.5781 28.7995 36.1994 25.1782 36.1994 20.6996C36.1994 16.221 32.577 12.5996 28.0995 12.5996Z" fill="white"/>
<path d="M28.0995 12.5996C23.622 12.5996 19.9995 16.2221 19.9995 20.6996C19.9995 25.1771 23.6209 28.7995 28.0995 28.7995C32.5781 28.7995 36.1994 25.1782 36.1994 20.6996C36.1994 16.221 32.577 12.5996 28.0995 12.5996Z" fill="url(#paint6_linear_17082_53404)" fill-opacity="0.88"/>
<path d="M28.0995 12.5996C23.622 12.5996 19.9995 16.2221 19.9995 20.6996C19.9995 25.1771 23.6209 28.7995 28.0995 28.7995C32.5781 28.7995 36.1994 25.1782 36.1994 20.6996C36.1994 16.221 32.577 12.5996 28.0995 12.5996Z" fill="url(#paint7_linear_17082_53404)"/>
</g>
<defs>
<linearGradient id="paint0_linear_17082_53404" x1="14.5999" y1="-0.000488281" x2="14.5999" y2="16.1994" gradientUnits="userSpaceOnUse">
<stop stop-color="#FF9900"/>
<stop offset="1" stop-color="#D07000"/>
</linearGradient>
<linearGradient id="paint1_linear_17082_53404" x1="14.5999" y1="-0.000488281" x2="14.5999" y2="16.1994" gradientUnits="userSpaceOnUse">
<stop stop-color="#FF9900"/>
<stop offset="1" stop-color="#D07000"/>
</linearGradient>
<linearGradient id="paint2_linear_17082_53404" x1="10.3305" y1="16.1994" x2="10.3305" y2="26.9994" gradientUnits="userSpaceOnUse">
<stop stop-color="#FF9900"/>
<stop offset="1" stop-color="#D07000"/>
</linearGradient>
<linearGradient id="paint3_linear_17082_53404" x1="10.3305" y1="16.1994" x2="10.3305" y2="26.9994" gradientUnits="userSpaceOnUse">
<stop stop-color="#FF9900"/>
<stop offset="1" stop-color="#D07000"/>
</linearGradient>
<linearGradient id="paint4_linear_17082_53404" x1="28.1417" y1="16.9194" x2="28.1417" y2="25.9193" gradientUnits="userSpaceOnUse">
<stop stop-color="#FF9900"/>
<stop offset="1" stop-color="#D07000"/>
</linearGradient>
<linearGradient id="paint5_linear_17082_53404" x1="28.1417" y1="16.9194" x2="28.1417" y2="25.9193" gradientUnits="userSpaceOnUse">
<stop stop-color="#FF9900"/>
<stop offset="1" stop-color="#D07000"/>
</linearGradient>
<linearGradient id="paint6_linear_17082_53404" x1="28.0995" y1="12.5996" x2="28.0995" y2="28.7995" gradientUnits="userSpaceOnUse">
<stop stop-color="#FF9900"/>
<stop offset="1" stop-color="#D07000"/>
</linearGradient>
<linearGradient id="paint7_linear_17082_53404" x1="28.0995" y1="12.5996" x2="28.0995" y2="28.7995" gradientUnits="userSpaceOnUse">
<stop stop-color="#FF9900"/>
<stop offset="1" stop-color="#D07000"/>
</linearGradient>
</defs>
</svg>
