<svg width="30" height="26" viewBox="0 0 30 26" fill="none" xmlns="http://www.w3.org/2000/svg">
<g opacity="0.4">
<path d="M26.4321 4.75928L21.6132 8.61551C21.6337 8.73396 21.6456 8.85376 21.6486 8.97394C21.6486 9.61751 21.3929 10.2347 20.9379 10.6898C20.4828 11.1449 19.8656 11.4005 19.222 11.4005C18.5784 11.4005 17.9612 11.1449 17.5061 10.6898C17.051 10.2347 16.7954 9.61751 16.7954 8.97394C16.7983 8.85356 16.8103 8.73358 16.8313 8.61501L12.0119 4.75928C11.5355 4.95457 11.007 4.9829 10.5125 4.83966L5.3812 9.97086C5.50979 10.4599 5.48203 10.977 5.30182 11.4495C5.12161 11.922 4.79798 12.3262 4.37636 12.6055C3.95474 12.8847 3.45627 13.025 2.95089 13.0065C2.44552 12.9881 1.9586 12.8119 1.55846 12.5026C1.15832 12.1934 0.865031 11.7666 0.719752 11.2822C0.574472 10.7979 0.584489 10.2801 0.748398 9.80174C0.912307 9.32334 1.22188 8.90825 1.63369 8.61473C2.04549 8.3212 2.53886 8.16397 3.04457 8.16508C3.25453 8.16801 3.46322 8.19826 3.66538 8.25506L8.79665 3.12387C8.73985 2.92171 8.7096 2.71303 8.70666 2.50307C8.70666 1.8595 8.96232 1.24229 9.4174 0.787218C9.87248 0.332146 10.4897 0.0764896 11.1333 0.0764896C11.7769 0.0764896 12.3941 0.332146 12.8491 0.787218C13.3042 1.24229 13.5599 1.8595 13.5599 2.50307C13.5569 2.62344 13.545 2.74342 13.524 2.862L18.3428 6.71722C18.9066 6.49006 19.5364 6.49006 20.1001 6.71722L24.92 2.86149C24.8993 2.74305 24.8873 2.62326 24.8841 2.50307C24.8802 1.9796 25.0444 1.46872 25.3526 1.04558C25.6608 0.622437 26.0967 0.309393 26.5961 0.152508C27.0955 -0.00437779 27.6321 0.00318032 28.1269 0.17407C28.6217 0.344959 29.0486 0.670156 29.3448 1.10181C29.6409 1.53346 29.7907 2.04877 29.7721 2.57192C29.7535 3.09506 29.5674 3.59841 29.2413 4.00791C28.9152 4.4174 28.4662 4.7114 27.9605 4.84666C27.4548 4.98192 26.919 4.95129 26.4321 4.75928Z" fill="white"/>
<path d="M26.4321 4.75928L21.6132 8.61551C21.6337 8.73396 21.6456 8.85376 21.6486 8.97394C21.6486 9.61751 21.3929 10.2347 20.9379 10.6898C20.4828 11.1449 19.8656 11.4005 19.222 11.4005C18.5784 11.4005 17.9612 11.1449 17.5061 10.6898C17.051 10.2347 16.7954 9.61751 16.7954 8.97394C16.7983 8.85356 16.8103 8.73358 16.8313 8.61501L12.0119 4.75928C11.5355 4.95457 11.007 4.9829 10.5125 4.83966L5.3812 9.97086C5.50979 10.4599 5.48203 10.977 5.30182 11.4495C5.12161 11.922 4.79798 12.3262 4.37636 12.6055C3.95474 12.8847 3.45627 13.025 2.95089 13.0065C2.44552 12.9881 1.9586 12.8119 1.55846 12.5026C1.15832 12.1934 0.865031 11.7666 0.719752 11.2822C0.574472 10.7979 0.584489 10.2801 0.748398 9.80174C0.912307 9.32334 1.22188 8.90825 1.63369 8.61473C2.04549 8.3212 2.53886 8.16397 3.04457 8.16508C3.25453 8.16801 3.46322 8.19826 3.66538 8.25506L8.79665 3.12387C8.73985 2.92171 8.7096 2.71303 8.70666 2.50307C8.70666 1.8595 8.96232 1.24229 9.4174 0.787218C9.87248 0.332146 10.4897 0.0764896 11.1333 0.0764896C11.7769 0.0764896 12.3941 0.332146 12.8491 0.787218C13.3042 1.24229 13.5599 1.8595 13.5599 2.50307C13.5569 2.62344 13.545 2.74342 13.524 2.862L18.3428 6.71722C18.9066 6.49006 19.5364 6.49006 20.1001 6.71722L24.92 2.86149C24.8993 2.74305 24.8873 2.62326 24.8841 2.50307C24.8802 1.9796 25.0444 1.46872 25.3526 1.04558C25.6608 0.622437 26.0967 0.309393 26.5961 0.152508C27.0955 -0.00437779 27.6321 0.00318032 28.1269 0.17407C28.6217 0.344959 29.0486 0.670156 29.3448 1.10181C29.6409 1.53346 29.7907 2.04877 29.7721 2.57192C29.7535 3.09506 29.5674 3.59841 29.2413 4.00791C28.9152 4.4174 28.4662 4.7114 27.9605 4.84666C27.4548 4.98192 26.919 4.95129 26.4321 4.75928Z" fill="url(#paint0_linear_17104_72520)" fill-opacity="0.88"/>
<path d="M26.4321 4.75928L21.6132 8.61551C21.6337 8.73396 21.6456 8.85376 21.6486 8.97394C21.6486 9.61751 21.3929 10.2347 20.9379 10.6898C20.4828 11.1449 19.8656 11.4005 19.222 11.4005C18.5784 11.4005 17.9612 11.1449 17.5061 10.6898C17.051 10.2347 16.7954 9.61751 16.7954 8.97394C16.7983 8.85356 16.8103 8.73358 16.8313 8.61501L12.0119 4.75928C11.5355 4.95457 11.007 4.9829 10.5125 4.83966L5.3812 9.97086C5.50979 10.4599 5.48203 10.977 5.30182 11.4495C5.12161 11.922 4.79798 12.3262 4.37636 12.6055C3.95474 12.8847 3.45627 13.025 2.95089 13.0065C2.44552 12.9881 1.9586 12.8119 1.55846 12.5026C1.15832 12.1934 0.865031 11.7666 0.719752 11.2822C0.574472 10.7979 0.584489 10.2801 0.748398 9.80174C0.912307 9.32334 1.22188 8.90825 1.63369 8.61473C2.04549 8.3212 2.53886 8.16397 3.04457 8.16508C3.25453 8.16801 3.46322 8.19826 3.66538 8.25506L8.79665 3.12387C8.73985 2.92171 8.7096 2.71303 8.70666 2.50307C8.70666 1.8595 8.96232 1.24229 9.4174 0.787218C9.87248 0.332146 10.4897 0.0764896 11.1333 0.0764896C11.7769 0.0764896 12.3941 0.332146 12.8491 0.787218C13.3042 1.24229 13.5599 1.8595 13.5599 2.50307C13.5569 2.62344 13.545 2.74342 13.524 2.862L18.3428 6.71722C18.9066 6.49006 19.5364 6.49006 20.1001 6.71722L24.92 2.86149C24.8993 2.74305 24.8873 2.62326 24.8841 2.50307C24.8802 1.9796 25.0444 1.46872 25.3526 1.04558C25.6608 0.622437 26.0967 0.309393 26.5961 0.152508C27.0955 -0.00437779 27.6321 0.00318032 28.1269 0.17407C28.6217 0.344959 29.0486 0.670156 29.3448 1.10181C29.6409 1.53346 29.7907 2.04877 29.7721 2.57192C29.7535 3.09506 29.5674 3.59841 29.2413 4.00791C28.9152 4.4174 28.4662 4.7114 27.9605 4.84666C27.4548 4.98192 26.919 4.95129 26.4321 4.75928Z" fill="url(#paint1_linear_17104_72520)"/>
</g>
<path d="M20.8404 16.2536H17.6049C17.3904 16.2536 17.1847 16.3388 17.033 16.4905C16.8813 16.6422 16.7961 16.848 16.7961 17.0625V25.1511C16.7961 25.3656 16.8813 25.5713 17.033 25.723C17.1847 25.8747 17.3904 25.9599 17.6049 25.9599H20.8404C21.0549 25.9599 21.2607 25.8747 21.4124 25.723C21.5641 25.5713 21.6493 25.3656 21.6493 25.1511V17.0625C21.6493 16.848 21.5641 16.6422 21.4124 16.4905C21.2607 16.3388 21.0549 16.2536 20.8404 16.2536ZM28.9291 9.78275H25.6936C25.4791 9.78275 25.2734 9.86796 25.1217 10.0197C24.97 10.1713 24.8848 10.3771 24.8848 10.5916V25.1511C24.8848 25.3656 24.97 25.5713 25.1217 25.723C25.2734 25.8747 25.4791 25.9599 25.6936 25.9599H28.9291C29.1437 25.9599 29.3494 25.8747 29.5011 25.723C29.6528 25.5713 29.738 25.3656 29.738 25.1511V10.5916C29.738 10.3771 29.6528 10.1713 29.5011 10.0197C29.3494 9.86796 29.1437 9.78275 28.9291 9.78275ZM12.7517 9.78275H9.51623C9.3017 9.78275 9.09596 9.86796 8.94427 10.0197C8.79258 10.1713 8.70736 10.3771 8.70736 10.5916V25.1511C8.70736 25.3656 8.79258 25.5713 8.94427 25.723C9.09596 25.8747 9.3017 25.9599 9.51623 25.9599H12.7517C12.9662 25.9599 13.172 25.8747 13.3237 25.723C13.4754 25.5713 13.5606 25.3656 13.5606 25.1511V10.5916C13.5606 10.3771 13.4754 10.1713 13.3237 10.0197C13.172 9.86796 12.9662 9.78275 12.7517 9.78275ZM4.66301 17.8713H1.42752C1.213 17.8713 1.00726 17.9566 0.855565 18.1082C0.703872 18.2599 0.618652 18.4657 0.618652 18.6802L0.618652 25.1511C0.618652 25.3656 0.703872 25.5713 0.855565 25.723C1.00726 25.8747 1.213 25.9599 1.42752 25.9599H4.66301C4.87753 25.9599 5.08327 25.8747 5.23496 25.723C5.38666 25.5713 5.47188 25.3656 5.47188 25.1511V18.6802C5.47188 18.4657 5.38666 18.2599 5.23496 18.1082C5.08327 17.9566 4.87753 17.8713 4.66301 17.8713Z" fill="white"/>
<path d="M20.8404 16.2536H17.6049C17.3904 16.2536 17.1847 16.3388 17.033 16.4905C16.8813 16.6422 16.7961 16.848 16.7961 17.0625V25.1511C16.7961 25.3656 16.8813 25.5713 17.033 25.723C17.1847 25.8747 17.3904 25.9599 17.6049 25.9599H20.8404C21.0549 25.9599 21.2607 25.8747 21.4124 25.723C21.5641 25.5713 21.6493 25.3656 21.6493 25.1511V17.0625C21.6493 16.848 21.5641 16.6422 21.4124 16.4905C21.2607 16.3388 21.0549 16.2536 20.8404 16.2536ZM28.9291 9.78275H25.6936C25.4791 9.78275 25.2734 9.86796 25.1217 10.0197C24.97 10.1713 24.8848 10.3771 24.8848 10.5916V25.1511C24.8848 25.3656 24.97 25.5713 25.1217 25.723C25.2734 25.8747 25.4791 25.9599 25.6936 25.9599H28.9291C29.1437 25.9599 29.3494 25.8747 29.5011 25.723C29.6528 25.5713 29.738 25.3656 29.738 25.1511V10.5916C29.738 10.3771 29.6528 10.1713 29.5011 10.0197C29.3494 9.86796 29.1437 9.78275 28.9291 9.78275ZM12.7517 9.78275H9.51623C9.3017 9.78275 9.09596 9.86796 8.94427 10.0197C8.79258 10.1713 8.70736 10.3771 8.70736 10.5916V25.1511C8.70736 25.3656 8.79258 25.5713 8.94427 25.723C9.09596 25.8747 9.3017 25.9599 9.51623 25.9599H12.7517C12.9662 25.9599 13.172 25.8747 13.3237 25.723C13.4754 25.5713 13.5606 25.3656 13.5606 25.1511V10.5916C13.5606 10.3771 13.4754 10.1713 13.3237 10.0197C13.172 9.86796 12.9662 9.78275 12.7517 9.78275ZM4.66301 17.8713H1.42752C1.213 17.8713 1.00726 17.9566 0.855565 18.1082C0.703872 18.2599 0.618652 18.4657 0.618652 18.6802L0.618652 25.1511C0.618652 25.3656 0.703872 25.5713 0.855565 25.723C1.00726 25.8747 1.213 25.9599 1.42752 25.9599H4.66301C4.87753 25.9599 5.08327 25.8747 5.23496 25.723C5.38666 25.5713 5.47188 25.3656 5.47188 25.1511V18.6802C5.47188 18.4657 5.38666 18.2599 5.23496 18.1082C5.08327 17.9566 4.87753 17.8713 4.66301 17.8713Z" fill="url(#paint2_linear_17104_72520)" fill-opacity="0.88"/>
<path d="M20.8404 16.2536H17.6049C17.3904 16.2536 17.1847 16.3388 17.033 16.4905C16.8813 16.6422 16.7961 16.848 16.7961 17.0625V25.1511C16.7961 25.3656 16.8813 25.5713 17.033 25.723C17.1847 25.8747 17.3904 25.9599 17.6049 25.9599H20.8404C21.0549 25.9599 21.2607 25.8747 21.4124 25.723C21.5641 25.5713 21.6493 25.3656 21.6493 25.1511V17.0625C21.6493 16.848 21.5641 16.6422 21.4124 16.4905C21.2607 16.3388 21.0549 16.2536 20.8404 16.2536ZM28.9291 9.78275H25.6936C25.4791 9.78275 25.2734 9.86796 25.1217 10.0197C24.97 10.1713 24.8848 10.3771 24.8848 10.5916V25.1511C24.8848 25.3656 24.97 25.5713 25.1217 25.723C25.2734 25.8747 25.4791 25.9599 25.6936 25.9599H28.9291C29.1437 25.9599 29.3494 25.8747 29.5011 25.723C29.6528 25.5713 29.738 25.3656 29.738 25.1511V10.5916C29.738 10.3771 29.6528 10.1713 29.5011 10.0197C29.3494 9.86796 29.1437 9.78275 28.9291 9.78275ZM12.7517 9.78275H9.51623C9.3017 9.78275 9.09596 9.86796 8.94427 10.0197C8.79258 10.1713 8.70736 10.3771 8.70736 10.5916V25.1511C8.70736 25.3656 8.79258 25.5713 8.94427 25.723C9.09596 25.8747 9.3017 25.9599 9.51623 25.9599H12.7517C12.9662 25.9599 13.172 25.8747 13.3237 25.723C13.4754 25.5713 13.5606 25.3656 13.5606 25.1511V10.5916C13.5606 10.3771 13.4754 10.1713 13.3237 10.0197C13.172 9.86796 12.9662 9.78275 12.7517 9.78275ZM4.66301 17.8713H1.42752C1.213 17.8713 1.00726 17.9566 0.855565 18.1082C0.703872 18.2599 0.618652 18.4657 0.618652 18.6802L0.618652 25.1511C0.618652 25.3656 0.703872 25.5713 0.855565 25.723C1.00726 25.8747 1.213 25.9599 1.42752 25.9599H4.66301C4.87753 25.9599 5.08327 25.8747 5.23496 25.723C5.38666 25.5713 5.47188 25.3656 5.47188 25.1511V18.6802C5.47188 18.4657 5.38666 18.2599 5.23496 18.1082C5.08327 17.9566 4.87753 17.8713 4.66301 17.8713Z" fill="url(#paint3_linear_17104_72520)"/>
<defs>
<linearGradient id="paint0_linear_17104_72520" x1="15.1957" y1="0.0401306" x2="15.1957" y2="13.0081" gradientUnits="userSpaceOnUse">
<stop stop-color="#42BCA2"/>
<stop offset="1" stop-color="#2D8975"/>
</linearGradient>
<linearGradient id="paint1_linear_17104_72520" x1="15.1957" y1="0.0401306" x2="15.1957" y2="13.0081" gradientUnits="userSpaceOnUse">
<stop stop-color="#42BCA2"/>
<stop offset="1" stop-color="#2D8975"/>
</linearGradient>
<linearGradient id="paint2_linear_17104_72520" x1="15.1783" y1="9.78275" x2="15.1783" y2="25.9599" gradientUnits="userSpaceOnUse">
<stop stop-color="#42BCA2"/>
<stop offset="1" stop-color="#2D8975"/>
</linearGradient>
<linearGradient id="paint3_linear_17104_72520" x1="15.1783" y1="9.78275" x2="15.1783" y2="25.9599" gradientUnits="userSpaceOnUse">
<stop stop-color="#42BCA2"/>
<stop offset="1" stop-color="#2D8975"/>
</linearGradient>
</defs>
</svg>
