<svg xmlns="http://www.w3.org/2000/svg" width="71.973" height="71.973" viewBox="0 0 71.973 71.973">
  <g id="Raggruppa_309" data-name="Raggruppa 309" transform="translate(-829.041 -1231.295)">
    <g id="Raggruppa_2500" data-name="Raggruppa 2500">
      <circle id="Ellisse_59" data-name="Ellisse 59" cx="35.487" cy="35.487" r="35.487" transform="translate(829.541 1231.795)" fill="none"  stroke-linecap="round" stroke-linejoin="round" stroke-width="1"/>
      <path id="Tracciato_120" data-name="Tracciato 120" d="M830.491,1260.781H899.92" fill="none"  stroke-linecap="round" stroke-linejoin="round" stroke-width="1"/>
      <line id="Linea_120" data-name="Linea 120" x1="68.215" transform="translate(830.867 1276.924)" fill="none"  stroke-linecap="round" stroke-linejoin="round" stroke-width="1"/>
      <line id="Linea_121" data-name="Linea 121" x1="6.193" y2="37.494" transform="translate(847.732 1260.781)" fill="none"  stroke-linecap="round" stroke-linejoin="round" stroke-width="1"/>
      <line id="Linea_122" data-name="Linea 122" x2="6.204" y2="37.561" transform="translate(875.998 1260.781)" fill="none"  stroke-linecap="round" stroke-linejoin="round" stroke-width="1"/>
      <g id="Raggruppa_305" data-name="Raggruppa 305">
        <g id="Raggruppa_304" data-name="Raggruppa 304">
          <g id="Raggruppa_303" data-name="Raggruppa 303">
            <path id="Tracciato_121" data-name="Tracciato 121" d="M868.871,1271.747v7.6a2.614,2.614,0,0,1-1.4,2.314l-7.635,4.007a2.581,2.581,0,0,1-1.212.3,2.612,2.612,0,0,1-1.216-.3l-6-3.151-1.633-.856a2.613,2.613,0,0,1-1.4-2.314v-7.6a2.607,2.607,0,0,1,1.4-2.314l7.635-4.007a2.6,2.6,0,0,1,2.428,0l7.635,4.007A2.608,2.608,0,0,1,868.871,1271.747Z" fill="none"  stroke-linecap="round" stroke-linejoin="round" stroke-width="1"/>
            <line id="Linea_123" data-name="Linea 123" y2="20.867" transform="translate(858.624 1271.72)" fill="none"  stroke-linecap="round" stroke-linejoin="round" stroke-width="1"/>
            <line id="Linea_124" data-name="Linea 124" x1="4.826" y2="2.914" transform="translate(858.624 1274.768)" fill="none"  stroke-linecap="round" stroke-linejoin="round" stroke-width="1"/>
            <line id="Linea_125" data-name="Linea 125" x2="3.894" y2="2.056" transform="translate(854.621 1279.456)" fill="none"  stroke-linecap="round" stroke-linejoin="round" stroke-width="1"/>
          </g>
        </g>
      </g>
      <g id="Raggruppa_308" data-name="Raggruppa 308">
        <g id="Raggruppa_307" data-name="Raggruppa 307">
          <g id="Raggruppa_306" data-name="Raggruppa 306">
            <path id="Tracciato_122" data-name="Tracciato 122" d="M889.579,1254.595v5.306a1.823,1.823,0,0,1-.975,1.615l-5.331,2.8a1.8,1.8,0,0,1-.846.209,1.824,1.824,0,0,1-.848-.209l-4.191-2.2-1.14-.6a1.823,1.823,0,0,1-.975-1.615v-5.306a1.822,1.822,0,0,1,.975-1.616l5.331-2.8a1.807,1.807,0,0,1,1.694,0l5.331,2.8A1.822,1.822,0,0,1,889.579,1254.595Z" fill="none"  stroke-linecap="round" stroke-linejoin="round" stroke-width="1"/>
            <line id="Linea_126" data-name="Linea 126" y2="14.8" transform="translate(882.426 1254.576)" fill="none"  stroke-linecap="round" stroke-linejoin="round" stroke-width="1"/>
            <line id="Linea_127" data-name="Linea 127" x1="3.369" y2="2.034" transform="translate(882.426 1256.704)" fill="none"  stroke-linecap="round" stroke-linejoin="round" stroke-width="1"/>
            <line id="Linea_128" data-name="Linea 128" x2="2.719" y2="1.435" transform="translate(879.631 1259.976)" fill="none"  stroke-linecap="round" stroke-linejoin="round" stroke-width="1"/>
          </g>
        </g>
      </g>
    </g>
  </g>
</svg>
