<svg xmlns="http://www.w3.org/2000/svg" width="71.973" height="71.973" viewBox="0 0 71.973 71.973">
  <g id="Raggruppa_2498" data-name="Raggruppa 2498" transform="translate(-829.042 -1349.176)">
    <circle id="Ellisse_56" data-name="Ellisse 56" cx="35.487" cy="35.487" r="35.487" transform="translate(829.542 1349.676)" fill="none"  stroke-linecap="round" stroke-linejoin="round" stroke-width="1"/>
    <path id="Tracciato_107" data-name="Tracciato 107" d="M871.186,1362.954a4.821,4.821,0,0,0-.966.1,5.864,5.864,0,0,0-5.366-3.057,6.124,6.124,0,0,0-4.781,2.135,5.425,5.425,0,0,0-1.009-.1c-2.534,0-4.587,1.736-4.587,3.872a4.179,4.179,0,0,0,3.448,3.866h13.261c2.234,0,4.045-1.523,4.045-3.408S873.42,1362.954,871.186,1362.954Z" fill="none"  stroke-linecap="round" stroke-linejoin="round" stroke-width="1"/>
    <g id="Raggruppa_286" data-name="Raggruppa 286">
      <path id="Tracciato_108" data-name="Tracciato 108" d="M890.723,1409.424l-16.145-26.417-6.194,10.135-9.641-15.774-19.41,31.759" fill="none"  stroke-linecap="round" stroke-linejoin="round" stroke-width="1"/>
      <path id="Tracciato_109" data-name="Tracciato 109" d="M874.074,1397.07l4.551,2.982,4.551-2.982" fill="none"  stroke-linecap="round" stroke-linejoin="round" stroke-width="1"/>
      <path id="Tracciato_110" data-name="Tracciato 110" d="M864.972,1397.07l4.551,2.982,4.551-2.982" fill="none"  stroke-linecap="round" stroke-linejoin="round" stroke-width="1"/>
      <path id="Tracciato_111" data-name="Tracciato 111" d="M855.87,1397.07l4.551,2.982,4.551-2.982" fill="none"  stroke-linecap="round" stroke-linejoin="round" stroke-width="1"/>
      <path id="Tracciato_112" data-name="Tracciato 112" d="M846.768,1397.07l4.551,2.982,4.551-2.982" fill="none"  stroke-linecap="round" stroke-linejoin="round" stroke-width="1"/>
    </g>
    <path id="Tracciato_113" data-name="Tracciato 113" d="M884.811,1369.014a6.331,6.331,0,0,0-1.269.13,7.7,7.7,0,0,0-7.044-4.013,8.041,8.041,0,0,0-6.277,2.8,7.132,7.132,0,0,0-1.325-.131c-3.325,0-6.021,2.279-6.021,5.083a5.488,5.488,0,0,0,4.526,5.076h17.41c2.933,0,5.31-2,5.31-4.474S887.744,1369.014,884.811,1369.014Z" fill="none"  stroke-linecap="round" stroke-linejoin="round" stroke-width="1"/>
  </g>
</svg>
