<svg width="16" height="14" viewBox="0 0 16 14" fill="none" xmlns="http://www.w3.org/2000/svg">
<path d="M0 0.857143C0 0.383929 0.383929 0 0.857143 0H15.1429C15.6179 0 16 0.383929 16 0.857143C16 1.33214 15.6179 1.71429 15.1429 1.71429H0.857143C0.383929 1.71429 0 1.33214 0 0.857143ZM2.28571 6.57143C2.28571 6.09643 2.66964 5.71429 3.14286 5.71429H12.8571C13.3321 5.71429 13.7143 6.09643 13.7143 6.57143C13.7143 7.04643 13.3321 7.42857 12.8571 7.42857H3.14286C2.66964 7.42857 2.28571 7.04643 2.28571 6.57143ZM9.42857 13.1429H6.57143C6.09643 13.1429 5.71429 12.7607 5.71429 12.2857C5.71429 11.8107 6.09643 11.4286 6.57143 11.4286H9.42857C9.90357 11.4286 10.2857 11.8107 10.2857 12.2857C10.2857 12.7607 9.90357 13.1429 9.42857 13.1429Z" fill="#333333"/>
</svg>
