<svg id="Raggruppa_1853" data-name="Raggruppa 1853" xmlns="http://www.w3.org/2000/svg" width="29.882" height="28.587" viewBox="0 0 29.882 28.587">
  <g id="Tracciato_1429" data-name="Tracciato 1429" transform="translate(-461.858 -305.537)" fill="none" stroke-miterlimit="10">
    <path d="M477.546,306.98l2.6-1.27a1.7,1.7,0,0,1,2.25.732L483.748,309a1.7,1.7,0,0,0,1.209.878l2.847.5a1.7,1.7,0,0,1,1.391,1.915l-.4,2.862a1.7,1.7,0,0,0,.462,1.422l2.009,2.077a1.7,1.7,0,0,1,0,2.366l-2.009,2.078a1.7,1.7,0,0,0-.462,1.421l.4,2.862a1.7,1.7,0,0,1-1.391,1.914l-2.847.5a1.7,1.7,0,0,0-1.209.878l-1.355,2.554a1.7,1.7,0,0,1-2.25.731l-2.6-1.269a1.7,1.7,0,0,0-1.495,0l-2.6,1.269a1.7,1.7,0,0,1-2.25-.731l-1.355-2.554a1.7,1.7,0,0,0-1.209-.878l-2.847-.5a1.7,1.7,0,0,1-1.391-1.914l.4-2.862a1.7,1.7,0,0,0-.462-1.421l-2.009-2.078a1.7,1.7,0,0,1,0-2.366l2.009-2.077a1.7,1.7,0,0,0,.462-1.422l-.4-2.862a1.7,1.7,0,0,1,1.391-1.915l2.847-.5A1.7,1.7,0,0,0,469.85,309l1.355-2.553a1.7,1.7,0,0,1,2.25-.732l2.6,1.27A1.707,1.707,0,0,0,477.546,306.98Z"/>
    <path d="M 472.7089538574219 306.5373229980469 C 472.4482116699219 306.5373229980469 472.2103576660156 306.6803588867188 472.0881042480469 306.9108581542969 L 470.7330627441406 309.4639587402344 C 470.3392333984375 310.2057800292969 469.6391906738281 310.7140197753906 468.8132629394531 310.858154296875 L 465.9665222167969 311.3574523925781 C 465.5918579101562 311.4231872558594 465.340087890625 311.7703552246094 465.3932800292969 312.1473999023438 L 465.7980041503906 315.0085144042969 C 465.9158630371094 315.8384399414062 465.6488342285156 316.6610412597656 465.0646667480469 317.26611328125 L 463.0552978515625 319.3430480957031 C 462.7908325195312 319.6165161132812 462.7908325195312 320.0449523925781 463.0553283691406 320.3184509277344 L 465.0645751953125 322.3961181640625 C 465.6486511230469 322.9996643066406 465.9159545898438 323.822265625 465.798095703125 324.6523742675781 L 465.393310546875 327.5146484375 C 465.340087890625 327.8915405273438 465.5918579101562 328.2382507324219 465.9664306640625 328.303955078125 L 468.8124389648438 328.8031311035156 C 469.6391906738281 328.9474182128906 470.3392333984375 329.4556579589844 470.7331848144531 330.1977233886719 L 472.0882263183594 332.7516784667969 C 472.2101440429688 332.9815368652344 472.4477233886719 333.1242980957031 472.708251953125 333.1242980957031 C 472.8146362304688 333.1242980957031 472.9178771972656 333.1002197265625 473.0152893066406 333.0525817871094 L 475.6122436523438 331.7835998535156 C 475.9796142578125 331.6039733886719 476.3899230957031 331.5090026855469 476.798828125 331.5090026855469 C 477.2077331542969 331.5090026855469 477.6180419921875 331.6039733886719 477.9851989746094 331.7835388183594 L 480.5816650390625 333.0527038574219 C 480.6788635253906 333.1002197265625 480.7821655273438 333.1242980957031 480.8887023925781 333.1242980957031 C 481.149658203125 333.1242980957031 481.3874816894531 332.9815368652344 481.5094604492188 332.7515869140625 L 482.8645629882812 330.1974792480469 C 483.258544921875 329.4553833007812 483.9587097167969 328.9471435546875 484.7843933105469 328.8032836914062 L 487.6309814453125 328.3040161132812 C 488.0057067871094 328.2381896972656 488.2575378417969 327.8914794921875 488.204345703125 327.5148620605469 L 487.799560546875 324.65283203125 C 487.6817016601562 323.8221435546875 487.9490661621094 322.9995727539062 488.5328674316406 322.3963623046875 L 490.5423278808594 320.3184204101562 C 490.8068237304688 320.0449523925781 490.8068237304688 319.6165161132812 490.5424499511719 319.3431701660156 L 488.5323181152344 317.2654113769531 C 487.9488830566406 316.6611328125 487.6817932128906 315.8385925292969 487.7994995117188 315.009033203125 L 488.2042846679688 312.1477355957031 C 488.2575378417969 311.7704162597656 488.0057067871094 311.4232482910156 487.6312255859375 311.3574829101562 L 484.7854919433594 310.8583679199219 C 483.9586791992188 310.7142944335938 483.258544921875 310.2060546875 482.864501953125 309.4638671875 L 481.5093994140625 306.9106140136719 C 481.3872375488281 306.6803588867188 481.1491394042969 306.5372924804688 480.8880310058594 306.5373229980469 C 480.7816772460938 306.5373229980469 480.6786193847656 306.5613403320312 480.5818176269531 306.6087036132812 L 477.9840393066406 307.8793640136719 C 477.6170043945312 308.0581665039062 477.2071838378906 308.1526794433594 476.798828125 308.1526794433594 C 476.3904724121094 308.1526794433594 475.9806518554688 308.0581665039062 475.6122741699219 307.8787231445312 L 473.0150146484375 306.6087341308594 C 472.9181213378906 306.5613403320312 472.8151245117188 306.5373229980469 472.7089538574219 306.5373229980469 M 472.7089538574219 305.5373229980469 C 472.9598083496094 305.5373229980469 473.2142639160156 305.593017578125 473.4543151855469 305.7103881835938 L 476.0515441894531 306.9803771972656 C 476.5231018066406 307.2101135253906 477.0745544433594 307.2101135253906 477.5460510253906 306.9803771972656 L 480.1424255371094 305.7103881835938 C 480.966796875 305.3072509765625 481.962890625 305.6315307617188 482.392822265625 306.4420471191406 L 483.747802734375 308.9950561523438 C 483.9940185546875 309.4588317871094 484.4396057128906 309.7830200195312 484.9571533203125 309.8731994628906 L 487.8039855957031 310.3724975585938 C 488.707275390625 310.5311889648438 489.3228149414062 311.3781127929688 489.1944885253906 312.2874755859375 L 488.7896423339844 315.1491088867188 C 488.7159729003906 315.6683349609375 488.8867492675781 316.1928100585938 489.251708984375 316.57080078125 L 491.2611694335938 318.6478576660156 C 491.8992004394531 319.3075561523438 491.8992004394531 320.3538818359375 491.2611694335938 321.0136108398438 L 489.251708984375 323.0915222167969 C 488.8867492675781 323.4686279296875 488.7159729003906 323.9931030273438 488.7896423339844 324.5123596191406 L 489.1944885253906 327.3748168945312 C 489.3228149414062 328.2833557128906 488.707275390625 329.1302795410156 487.8039855957031 329.2889404296875 L 484.9571533203125 329.7882385253906 C 484.4396057128906 329.87841796875 483.9940185546875 330.20263671875 483.747802734375 330.6664123535156 L 482.392822265625 333.2202758789062 C 481.9629211425781 334.0307922363281 480.9668273925781 334.3541870117188 480.1424255371094 333.9510498046875 L 477.5460510253906 332.6819458007812 C 477.0745544433594 332.4513549804688 476.5231018066406 332.4513549804688 476.0515441894531 332.6819458007812 L 473.4543151855469 333.9510498046875 C 472.6299743652344 334.3541870117188 471.6347045898438 334.0308227539062 471.2048034667969 333.2202758789062 L 469.8498229980469 330.6664123535156 C 469.6036071777344 330.20263671875 469.1571960449219 329.87841796875 468.6405029296875 329.7882385253906 L 465.7936706542969 329.2889404296875 C 464.8894653320312 329.1302795410156 464.2748413085938 328.2833557128906 464.4031372070312 327.3748168945312 L 464.8079528808594 324.5123596191406 C 464.8816833496094 323.9931030273438 464.7108764648438 323.4686279296875 464.345947265625 323.0915222167969 L 462.3364868164062 321.0136108398438 C 461.6984558105469 320.3538818359375 461.6984558105469 319.3075561523438 462.3364868164062 318.6478576660156 L 464.345947265625 316.57080078125 C 464.7108764648438 316.1928100585938 464.8816833496094 315.6683349609375 464.8079528808594 315.1491088867188 L 464.4031372070312 312.2874755859375 C 464.2748413085938 311.3781127929688 464.8894653320312 310.5311889648438 465.7936706542969 310.3724975585938 L 468.6405029296875 309.8731994628906 C 469.1571960449219 309.7830200195312 469.6036071777344 309.4588317871094 469.8498229980469 308.9950561523438 L 471.2048034667969 306.4420471191406 C 471.5095520019531 305.8675231933594 472.0983581542969 305.5373229980469 472.7089538574219 305.5373229980469 Z"/>
  </g>
  <path id="Tracciato_1430" data-name="Tracciato 1430" d="M474.008,322.21,476.5,324.7l6.324-6.324" transform="translate(-463.475 -307.247)" fill="none" stroke-linecap="round" stroke-linejoin="round" stroke-width="1"/>
  <g id="Ellisse_454" data-name="Ellisse 454" transform="translate(4.534 3.887)" fill="none" stroke-miterlimit="10" stroke-width="1">
    <ellipse cx="10.406" cy="10.406" rx="10.406" ry="10.406"/>
    <ellipse cx="10.406" cy="10.406" rx="9.906" ry="9.906" fill="none"/>
  </g>
</svg>
