<svg xmlns="http://www.w3.org/2000/svg" viewBox="0 0 73.51 61.42">
  <defs>
    <style>.cls-1 {
      fill: none;
    }</style>
  </defs>
  <title>Risorsa 5</title>
  <g id="Livello_2" data-name="Livello 2">
    <g id="Layer_1" data-name="Layer 1">
      <path class="cls-1"
            d="M73,24.81a6.08,6.08,0,0,1-6.08,6.08H45.3a17.37,17.37,0,0,0-25.14-6.81,9,9,0,0,1-.33-2.45A9.26,9.26,0,0,1,29,12.37a13.31,13.31,0,0,1,26.3-1.1c.3,0,.59,0,.89,0A9.28,9.28,0,0,1,65.29,19a5.85,5.85,0,0,1,1.64-.23A6.08,6.08,0,0,1,73,24.81Z"/>
      <path class="cls-1"
            d="M70,53a8,8,0,0,1-7.95,8H12.59a12.1,12.1,0,0,1-.17-24.2A17.39,17.39,0,0,1,45.3,30.89a16.58,16.58,0,0,1,1.5,4.4c.38,0,.77-.06,1.16-.06A12.1,12.1,0,0,1,59.89,45.34,7.7,7.7,0,0,1,62,45,7.94,7.94,0,0,1,70,53Z"/>
      <path class="cls-1" d="M18,42.78a11.63,11.63,0,0,1,14.55,4.8"/>
      <path class="cls-1" d="M27.82,50.2a11.66,11.66,0,0,1,15.32-.36"/>
    </g>
  </g>
</svg>
