<svg width="61" height="44" viewBox="0 0 61 44" fill="none" xmlns="http://www.w3.org/2000/svg">
<mask id="path-1-inside-1_10050_90837" fill="white">
<path fill-rule="evenodd" clip-rule="evenodd" d="M40.3319 43.4738C45.0673 43.1191 48.7974 39.2229 48.7974 34.4687C48.7974 29.4807 44.6914 25.4372 39.6264 25.4372C38.8328 25.4372 38.0627 25.5365 37.3283 25.7231C36.4818 21.5967 32.7789 18.4898 28.3391 18.4898C26.9851 18.4898 25.6997 18.7787 24.543 19.2974C23.0343 16.346 19.9304 14.3213 16.3463 14.3213C11.2813 14.3213 7.17533 18.3648 7.17533 23.3528C7.17533 24.1913 7.29138 25.0032 7.50854 25.7737C3.6528 26.8418 0.826172 30.3301 0.826172 34.4687C0.826172 39.4566 4.93216 43.5001 9.99714 43.5001C10.0233 43.5001 10.0494 43.5 10.0754 43.4998H39.5481C39.5742 43.5 39.6003 43.5001 39.6264 43.5001C39.6526 43.5001 39.6787 43.5 39.7047 43.4998H40.3319V43.4738Z"/>
</mask>
<path d="M40.3319 43.4738L40.1526 41.0805L37.9319 41.2469V43.4738H40.3319ZM37.3283 25.7231L34.9772 26.2054L35.4825 28.6684L37.9194 28.0492L37.3283 25.7231ZM24.543 19.2974L22.406 20.3897L23.4439 22.4204L25.5249 21.4873L24.543 19.2974ZM7.50854 25.7737L8.14923 28.0866L10.4726 27.443L9.81854 25.1226L7.50854 25.7737ZM10.0754 43.4998V41.0998H10.0655L10.0556 41.0999L10.0754 43.4998ZM39.5481 43.4998L39.568 41.0999L39.5581 41.0998H39.5481V43.4998ZM39.7047 43.4998V41.0998H39.6948L39.6849 41.0999L39.7047 43.4998ZM40.3319 43.4998V45.8998H42.7319V43.4998H40.3319ZM40.5112 45.8671C46.4584 45.4216 51.1974 40.5191 51.1974 34.4687H46.3974C46.3974 37.9266 43.6761 40.8166 40.1526 41.0805L40.5112 45.8671ZM51.1974 34.4687C51.1974 28.1207 45.9821 23.0372 39.6264 23.0372V27.8372C43.4008 27.8372 46.3974 30.8408 46.3974 34.4687H51.1974ZM39.6264 23.0372C38.632 23.0372 37.6634 23.1617 36.7372 23.3971L37.9194 28.0492C38.4621 27.9113 39.0336 27.8372 39.6264 27.8372V23.0372ZM39.6793 25.2408C38.6033 19.9956 33.916 16.0898 28.3391 16.0898V20.8898C31.6417 20.8898 34.3602 23.1977 34.9772 26.2054L39.6793 25.2408ZM28.3391 16.0898C26.6409 16.0898 25.0213 16.4527 23.561 17.1074L25.5249 21.4873C26.3782 21.1047 27.3294 20.8898 28.3391 20.8898V16.0898ZM26.68 18.205C24.7705 14.4696 20.8524 11.9213 16.3463 11.9213V16.7213C19.0085 16.7213 21.2981 18.2225 22.406 20.3897L26.68 18.205ZM16.3463 11.9213C9.99064 11.9213 4.77533 17.0048 4.77533 23.3528H9.57533C9.57533 19.7248 12.572 16.7213 16.3463 16.7213V11.9213ZM4.77533 23.3528C4.77533 24.4138 4.9223 25.4447 5.19854 26.4248L9.81854 25.1226C9.66046 24.5618 9.57533 23.9689 9.57533 23.3528H4.77533ZM6.86785 23.4608C2.02114 24.8034 -1.57383 29.2018 -1.57383 34.4687H3.22617C3.22617 31.4585 5.28445 28.8802 8.14923 28.0866L6.86785 23.4608ZM-1.57383 34.4687C-1.57383 40.8167 3.64149 45.9001 9.99714 45.9001V41.1001C6.22282 41.1001 3.22617 38.0966 3.22617 34.4687H-1.57383ZM9.99714 45.9001C10.0298 45.9001 10.0625 45.9 10.0953 45.8997L10.0556 41.0999C10.0362 41.1001 10.0167 41.1001 9.99714 41.1001V45.9001ZM39.5481 41.0998H10.0754V45.8998H39.5481V41.0998ZM39.5283 45.8997C39.5611 45.9 39.5938 45.9001 39.6264 45.9001V41.1001C39.6069 41.1001 39.5874 41.1001 39.568 41.0999L39.5283 45.8997ZM39.6264 45.9001C39.6591 45.9001 39.6918 45.9 39.7246 45.8997L39.6849 41.0999C39.6655 41.1001 39.646 41.1001 39.6264 41.1001V45.9001ZM40.3319 41.0998H39.7047V45.8998H40.3319V41.0998ZM37.9319 43.4738V43.4998H42.7319V43.4738H37.9319Z" fill="#00BA80" mask="url(#path-1-inside-1_10050_90837)"/>
<mask id="path-3-inside-2_10050_90837" fill="white">
<path fill-rule="evenodd" clip-rule="evenodd" d="M52.3853 27.6581L52.1128 27.6785H51.9073H51.8991L51.8909 27.6786L51.8292 27.6789L51.7676 27.6786L51.7594 27.6785H51.7511H44.7837C45.6261 28.2224 46.3721 28.8991 46.9909 29.6785H50.5347H51.7511C51.7771 29.6787 51.8032 29.6789 51.8292 29.6789C51.8553 29.6789 51.8813 29.6787 51.9073 29.6785H52.5347V29.6525C57.27 29.2978 61.0002 25.4016 61.0002 20.6474C61.0002 15.6595 56.8942 11.6159 51.8292 11.6159C51.3334 11.6159 50.8468 11.6547 50.3723 11.7293C50.0873 11.7741 49.8067 11.8318 49.5311 11.9018C49.4755 11.6312 49.4077 11.3649 49.3282 11.1036C48.1956 7.38115 44.6904 4.66847 40.5419 4.66847C39.1879 4.66847 37.9025 4.95741 36.7457 5.47609C35.2371 2.52474 32.1332 0.5 28.5491 0.5C23.4841 0.5 19.3781 4.54352 19.3781 9.53146C19.3781 10.3423 19.4866 11.1281 19.6901 11.8757C19.697 11.9013 19.7041 11.9269 19.7113 11.9524C19.6847 11.9598 19.6582 11.9673 19.6316 11.9749C17.7032 12.5278 16.0372 13.6876 14.8611 15.2303C15.3872 15.1379 15.9289 15.0897 16.482 15.0897C16.896 15.0897 17.3036 15.1167 17.7031 15.1691C18.4419 14.5849 19.3027 14.1409 20.2452 13.8798L22.1813 13.3435L21.6363 11.4098C21.4684 10.8141 21.3781 10.1847 21.3781 9.53146C21.3781 5.67689 24.5596 2.5 28.5491 2.5C31.3649 2.5 33.7903 4.08844 34.9649 6.38638L35.8299 8.07858L37.564 7.30103C38.4679 6.89576 39.4748 6.66847 40.5419 6.66847C44.034 6.66847 46.9166 9.10955 47.5719 12.3038L47.9929 14.3563L50.0236 13.8402C50.5983 13.6942 51.2029 13.6159 51.8292 13.6159C55.8186 13.6159 59.0002 16.7928 59.0002 20.6474C59.0002 24.3214 56.1108 27.379 52.3853 27.6581Z"/>
</mask>
<path fill-rule="evenodd" clip-rule="evenodd" d="M52.3853 27.6581L52.1128 27.6785H51.9073H51.8991L51.8909 27.6786L51.8292 27.6789L51.7676 27.6786L51.7594 27.6785H51.7511H44.7837C45.6261 28.2224 46.3721 28.8991 46.9909 29.6785H50.5347H51.7511C51.7771 29.6787 51.8032 29.6789 51.8292 29.6789C51.8553 29.6789 51.8813 29.6787 51.9073 29.6785H52.5347V29.6525C57.27 29.2978 61.0002 25.4016 61.0002 20.6474C61.0002 15.6595 56.8942 11.6159 51.8292 11.6159C51.3334 11.6159 50.8468 11.6547 50.3723 11.7293C50.0873 11.7741 49.8067 11.8318 49.5311 11.9018C49.4755 11.6312 49.4077 11.3649 49.3282 11.1036C48.1956 7.38115 44.6904 4.66847 40.5419 4.66847C39.1879 4.66847 37.9025 4.95741 36.7457 5.47609C35.2371 2.52474 32.1332 0.5 28.5491 0.5C23.4841 0.5 19.3781 4.54352 19.3781 9.53146C19.3781 10.3423 19.4866 11.1281 19.6901 11.8757C19.697 11.9013 19.7041 11.9269 19.7113 11.9524C19.6847 11.9598 19.6582 11.9673 19.6316 11.9749C17.7032 12.5278 16.0372 13.6876 14.8611 15.2303C15.3872 15.1379 15.9289 15.0897 16.482 15.0897C16.896 15.0897 17.3036 15.1167 17.7031 15.1691C18.4419 14.5849 19.3027 14.1409 20.2452 13.8798L22.1813 13.3435L21.6363 11.4098C21.4684 10.8141 21.3781 10.1847 21.3781 9.53146C21.3781 5.67689 24.5596 2.5 28.5491 2.5C31.3649 2.5 33.7903 4.08844 34.9649 6.38638L35.8299 8.07858L37.564 7.30103C38.4679 6.89576 39.4748 6.66847 40.5419 6.66847C44.034 6.66847 46.9166 9.10955 47.5719 12.3038L47.9929 14.3563L50.0236 13.8402C50.5983 13.6942 51.2029 13.6159 51.8292 13.6159C55.8186 13.6159 59.0002 16.7928 59.0002 20.6474C59.0002 24.3214 56.1108 27.379 52.3853 27.6581Z" fill="#00BA80"/>
<path d="M52.1128 27.6785V30.0785H52.2025L52.2921 30.0718L52.1128 27.6785ZM52.3853 27.6581L52.206 25.2648L52.206 25.2648L52.3853 27.6581ZM51.8991 27.6785V25.2785H51.8893L51.8796 25.2786L51.8991 27.6785ZM51.8909 27.6786L51.9007 30.0786L51.9103 30.0785L51.8909 27.6786ZM51.8292 27.6789L51.8193 30.0788L51.8292 30.0789L51.8391 30.0788L51.8292 27.6789ZM51.7676 27.6786L51.7481 30.0785L51.7577 30.0786L51.7676 27.6786ZM51.7594 27.6785L51.7789 25.2786L51.7691 25.2785H51.7594V27.6785ZM44.7837 27.6785V25.2785H36.6413L43.4819 29.6948L44.7837 27.6785ZM46.9909 29.6785L45.1113 31.1709L45.832 32.0785H46.9909V29.6785ZM51.7511 29.6785L51.7709 27.2786L51.761 27.2785H51.7511V29.6785ZM51.9073 29.6785V27.2785H51.8974L51.8876 27.2786L51.9073 29.6785ZM52.5347 29.6785V32.0785H54.9347V29.6785H52.5347ZM52.5347 29.6525L52.3554 27.2592L50.1347 27.4256V29.6525H52.5347ZM50.3723 11.7293L50.745 14.1002L50.745 14.1002L50.3723 11.7293ZM49.5311 11.9018L47.18 12.3841L47.6853 14.8471L50.1221 14.2279L49.5311 11.9018ZM49.3282 11.1036L47.0322 11.8022L47.0322 11.8022L49.3282 11.1036ZM36.7457 5.47609L34.6087 6.56844L35.6467 8.59908L37.7277 7.66602L36.7457 5.47609ZM19.6901 11.8757L17.3743 12.506L17.3743 12.506L19.6901 11.8757ZM19.7113 11.9524L20.352 14.2653L22.6753 13.6217L22.0213 11.3013L19.7113 11.9524ZM19.6316 11.9749L20.2931 14.2819L20.2931 14.2819L19.6316 11.9749ZM14.8611 15.2303L12.9524 13.7753L9.23196 18.6557L15.2762 17.5942L14.8611 15.2303ZM17.7031 15.1691L17.3913 17.5487L18.3964 17.6804L19.1915 17.0517L17.7031 15.1691ZM20.2452 13.8798L19.6045 11.5669L19.6045 11.5669L20.2452 13.8798ZM22.1813 13.3435L22.822 15.6564L25.1453 15.0128L24.4913 12.6924L22.1813 13.3435ZM21.6363 11.4098L19.3263 12.0609L19.3263 12.0609L21.6363 11.4098ZM34.9649 6.38638L32.8279 7.47874L32.8279 7.47874L34.9649 6.38638ZM35.8299 8.07858L33.6929 9.17093L34.7309 11.2016L36.8118 10.2685L35.8299 8.07858ZM37.564 7.30103L36.5821 5.1111L36.5821 5.1111L37.564 7.30103ZM47.5719 12.3038L49.9229 11.8215L49.9229 11.8215L47.5719 12.3038ZM47.9929 14.3563L45.6419 14.8386L46.1471 17.3016L48.584 16.6823L47.9929 14.3563ZM50.0236 13.8402L49.4326 11.5142L49.4326 11.5142L50.0236 13.8402ZM52.2921 30.0718L52.5646 30.0514L52.206 25.2648L51.9335 25.2852L52.2921 30.0718ZM51.9073 30.0785H52.1128V25.2785H51.9073V30.0785ZM51.8991 30.0785H51.9073V25.2785H51.8991V30.0785ZM51.9103 30.0785L51.9186 30.0785L51.8796 25.2786L51.8714 25.2787L51.9103 30.0785ZM51.8391 30.0788L51.9007 30.0786L51.881 25.2786L51.8193 25.2789L51.8391 30.0788ZM51.7577 30.0786L51.8193 30.0788L51.8391 25.2789L51.7775 25.2786L51.7577 30.0786ZM51.7399 30.0785L51.7481 30.0785L51.7871 25.2787L51.7789 25.2786L51.7399 30.0785ZM51.7511 30.0785H51.7594V25.2785H51.7511V30.0785ZM44.7837 30.0785H51.7511V25.2785H44.7837V30.0785ZM48.8705 28.1861C48.0885 27.2013 47.1472 26.3477 46.0854 25.6622L43.4819 29.6948C44.1049 30.097 44.6556 30.5969 45.1113 31.1709L48.8705 28.1861ZM50.5347 27.2785H46.9909V32.0785H50.5347V27.2785ZM51.7511 27.2785H50.5347V32.0785H51.7511V27.2785ZM51.8292 27.2789C51.8097 27.2789 51.7903 27.2788 51.7709 27.2786L51.7314 32.0785C51.764 32.0787 51.7966 32.0789 51.8292 32.0789V27.2789ZM51.8876 27.2786C51.8682 27.2788 51.8487 27.2789 51.8292 27.2789V32.0789C51.8618 32.0789 51.8944 32.0787 51.927 32.0785L51.8876 27.2786ZM52.5347 27.2785H51.9073V32.0785H52.5347V27.2785ZM50.1347 29.6525V29.6785H54.9347V29.6525H50.1347ZM58.6002 20.6474C58.6002 24.1054 55.8789 26.9953 52.3554 27.2592L52.714 32.0458C58.6612 31.6003 63.4002 26.6978 63.4002 20.6474H58.6002ZM51.8292 14.0159C55.6035 14.0159 58.6002 17.0195 58.6002 20.6474H63.4002C63.4002 14.2994 58.1849 9.21593 51.8292 9.21593V14.0159ZM50.745 14.1002C51.0966 14.0449 51.4586 14.0159 51.8292 14.0159V9.21593C51.2082 9.21593 50.5969 9.26448 49.9996 9.35839L50.745 14.1002ZM50.1221 14.2279C50.326 14.1761 50.5337 14.1334 50.745 14.1002L49.9996 9.35839C49.6408 9.41478 49.2874 9.48749 48.94 9.57576L50.1221 14.2279ZM47.0322 11.8022C47.0901 11.9927 47.1395 12.1868 47.18 12.3841L51.8821 11.4196C51.8115 11.0756 51.7253 10.7371 51.6243 10.405L47.0322 11.8022ZM40.5419 7.06847C43.6257 7.06847 46.2046 9.08246 47.0322 11.8022L51.6243 10.405C50.1866 5.67985 45.7551 2.26847 40.5419 2.26847V7.06847ZM37.7277 7.66602C38.5809 7.28343 39.5322 7.06847 40.5419 7.06847V2.26847C38.8437 2.26847 37.2241 2.63139 35.7638 3.28615L37.7277 7.66602ZM28.5491 2.9C31.2112 2.9 33.5009 4.40119 34.6087 6.56844L38.8827 4.38373C36.9733 0.648285 33.0552 -1.9 28.5491 -1.9V2.9ZM21.7781 9.53146C21.7781 5.90356 24.7748 2.9 28.5491 2.9V-1.9C22.1934 -1.9 16.9781 3.18349 16.9781 9.53146H21.7781ZM22.0058 11.2454C21.8577 10.7012 21.7781 10.1272 21.7781 9.53146H16.9781C16.9781 10.5573 17.1155 11.555 17.3743 12.506L22.0058 11.2454ZM22.0213 11.3013C22.0161 11.2827 22.0109 11.2641 22.0058 11.2454L17.3743 12.506C17.3832 12.5385 17.3922 12.571 17.4013 12.6035L22.0213 11.3013ZM20.2931 14.2819C20.3127 14.2763 20.3323 14.2708 20.352 14.2653L19.0706 9.63951C19.0371 9.64879 19.0036 9.65822 18.9702 9.66782L20.2931 14.2819ZM16.7697 16.6854C17.6365 15.5483 18.8674 14.6907 20.2931 14.2819L18.9702 9.66781C16.5389 10.3649 14.4378 11.8269 12.9524 13.7753L16.7697 16.6854ZM16.482 12.6897C15.7892 12.6897 15.1086 12.7501 14.4459 12.8665L15.2762 17.5942C15.6659 17.5257 16.0687 17.4897 16.482 17.4897V12.6897ZM18.0148 12.7894C17.5123 12.7235 17.0005 12.6897 16.482 12.6897V17.4897C16.7915 17.4897 17.0949 17.5099 17.3913 17.5487L18.0148 12.7894ZM19.6045 11.5669C18.349 11.9147 17.2007 12.5067 16.2146 13.2864L19.1915 17.0517C19.683 16.6631 20.2565 16.3671 20.8859 16.1927L19.6045 11.5669ZM21.5406 11.0306L19.6045 11.5669L20.8859 16.1927L22.822 15.6564L21.5406 11.0306ZM19.3263 12.0609L19.8713 13.9946L24.4913 12.6924L23.9463 10.7588L19.3263 12.0609ZM18.9781 9.53146C18.9781 10.4071 19.0993 11.2555 19.3263 12.0609L23.9463 10.7588C23.8375 10.3726 23.7781 9.96221 23.7781 9.53146H18.9781ZM28.5491 0.0999999C23.266 0.0999999 18.9781 4.31978 18.9781 9.53146H23.7781C23.7781 7.03399 25.8533 4.9 28.5491 4.9V0.0999999ZM37.1019 5.29403C35.5261 2.21133 32.2861 0.0999999 28.5491 0.0999999V4.9C30.4437 4.9 32.0544 5.96556 32.8279 7.47874L37.1019 5.29403ZM37.9669 6.98622L37.1019 5.29403L32.8279 7.47874L33.6929 9.17093L37.9669 6.98622ZM36.5821 5.1111L34.848 5.88864L36.8118 10.2685L38.5459 9.49097L36.5821 5.1111ZM40.5419 4.26847C39.1306 4.26847 37.7895 4.56973 36.5821 5.1111L38.5459 9.49097C39.1463 9.22179 39.819 9.06847 40.5419 9.06847V4.26847ZM49.9229 11.8215C49.0382 7.50867 45.1713 4.26847 40.5419 4.26847V9.06847C42.8967 9.06847 44.795 10.7104 45.2208 12.786L49.9229 11.8215ZM50.344 13.874L49.9229 11.8215L45.2208 12.786L45.6419 14.8386L50.344 13.874ZM49.4326 11.5142L47.4018 12.0302L48.584 16.6823L50.6147 16.1663L49.4326 11.5142ZM51.8292 11.2159C51.0021 11.2159 50.1989 11.3194 49.4326 11.5142L50.6147 16.1663C50.9976 16.069 51.4038 16.0159 51.8292 16.0159V11.2159ZM61.4002 20.6474C61.4002 15.4357 57.1123 11.2159 51.8292 11.2159V16.0159C54.525 16.0159 56.6002 18.1499 56.6002 20.6474H61.4002ZM52.5646 30.0514C57.5049 29.6813 61.4002 25.6146 61.4002 20.6474H56.6002C56.6002 23.0282 54.7166 25.0767 52.206 25.2648L52.5646 30.0514Z" fill="#00BA80" mask="url(#path-3-inside-2_10050_90837)"/>
</svg>
