<svg width="49" height="75" viewBox="0 0 49 75" fill="none" xmlns="http://www.w3.org/2000/svg">
<path d="M36.6489 49.3418V74.1159H12.125V49.3418H14.9896C14.78 50.0476 14.7101 50.824 14.7101 51.6004H17.0857C17.0857 50.824 17.2254 50.0476 17.435 49.3418H31.3389C31.5485 50.0476 31.6882 50.824 31.6882 51.6004H34.0637C34.0637 50.824 33.9939 50.0476 33.7843 49.3418H36.6489Z" stroke="#00734F" stroke-width="1.4" stroke-miterlimit="10" stroke-linecap="round" stroke-linejoin="round"/>
<path d="M36.6504 74.0453L44.5455 53.4355L36.6504 49.3418" stroke="#00734F" stroke-width="1.4" stroke-miterlimit="10" stroke-linecap="round" stroke-linejoin="round"/>
<path d="M12.1256 74.0453L4.23047 53.4355L12.1256 49.3418" stroke="#00734F" stroke-width="1.4" stroke-miterlimit="10" stroke-linecap="round" stroke-linejoin="round"/>
<path d="M34.0641 51.5999H31.6886C31.6886 50.8235 31.5488 50.0471 31.3392 49.3413C30.3611 46.3769 27.6362 44.1888 24.3524 44.1888C21.0685 44.1888 18.3437 46.3769 17.3655 49.3413C17.1559 50.0471 17.0162 50.8235 17.0162 51.5999H14.6406C14.6406 50.8235 14.7105 50.0471 14.9201 49.3413C15.9681 45.0358 19.8109 41.7891 24.4222 41.7891C29.0336 41.7891 32.8065 44.9652 33.8545 49.2707C33.9942 50.0471 34.0641 50.8235 34.0641 51.5999Z" stroke="#00734F" stroke-width="1.4" stroke-miterlimit="10" stroke-linecap="round" stroke-linejoin="round"/>
<path d="M17.7866 53.7896L15.9001 55.2012L14.0137 53.7896L14.7822 51.6016H17.0879L17.7866 53.7896Z" stroke="#00734F" stroke-width="1.4" stroke-miterlimit="10" stroke-linecap="round" stroke-linejoin="round"/>
<path d="M34.7636 53.7896L32.947 55.2012L31.0605 53.7896L31.7592 51.6016H34.0649L34.7636 53.7896Z" stroke="#00734F" stroke-width="1.4" stroke-miterlimit="10" stroke-linecap="round" stroke-linejoin="round"/>
<path d="M24.4219 18.4258V29.5071V36.4947" stroke="#00734F" stroke-width="1.4" stroke-miterlimit="10" stroke-linecap="round" stroke-linejoin="round"/>
<path d="M19.1836 25.625L24.4237 28.3777" stroke="#00734F" stroke-width="1.4" stroke-miterlimit="10" stroke-linecap="round" stroke-linejoin="round"/>
<path d="M14.7811 18.4261C11.7767 16.6615 8.42306 16.8733 6.5366 17.1556C5.69818 17.2968 5.13923 18.2143 5.48857 19.0613C6.11739 20.8964 7.6545 23.8608 10.6589 25.6254C13.8728 27.4605 16.8073 26.8253 18.2745 26.2606C18.9033 26.0489 19.2527 25.3431 19.1828 24.7078C18.9033 23.2256 17.9951 20.3318 14.7811 18.4261Z" stroke="#00734F" stroke-width="1.4" stroke-miterlimit="10" stroke-linecap="round" stroke-linejoin="round"/>
<path d="M29.662 25.625L24.4219 28.3777" stroke="#00734F" stroke-width="1.4" stroke-miterlimit="10" stroke-linecap="round" stroke-linejoin="round"/>
<path d="M34.0648 18.4261C37.0692 16.6615 40.4229 16.8733 42.3093 17.1556C43.1478 17.2968 43.7067 18.2143 43.3574 19.0613C42.7285 20.8964 41.1914 23.8608 38.1871 25.6254C34.9731 27.4605 32.0386 26.8253 30.5714 26.2606C29.9426 26.0489 29.5932 25.3431 29.6631 24.7078C29.9426 23.2256 30.8509 20.3318 34.0648 18.4261Z" stroke="#00734F" stroke-width="1.4" stroke-miterlimit="10" stroke-linecap="round" stroke-linejoin="round"/>
<path d="M25.5409 3.25202C24.982 2.5462 23.9339 2.5462 23.375 3.25202C22.1174 4.73423 20.3008 7.55749 20.3008 11.0866C20.3008 14.8274 22.327 17.086 23.5147 18.0741C24.0038 18.4976 24.7724 18.4976 25.2615 18.0741C26.4492 17.086 28.4754 14.8274 28.4754 11.0866C28.5453 7.55749 26.7287 4.73423 25.5409 3.25202Z" stroke="#00734F" stroke-width="1.4" stroke-miterlimit="10" stroke-linecap="round" stroke-linejoin="round"/>
</svg>
