<svg width="29" height="76" viewBox="0 0 29 76" fill="none" xmlns="http://www.w3.org/2000/svg">
<g clip-path="url(#clip0_4372_20337)">
<path d="M25.2891 75.4832H3.78517L0.529297 51.5996H28.4692L25.2891 75.4832Z" stroke="#00734F" stroke-width="1.4" stroke-miterlimit="10" stroke-linecap="round" stroke-linejoin="round"/>
<path d="M14.5371 51.6V21.377" stroke="#00734F" stroke-width="1.4" stroke-miterlimit="10" stroke-linecap="round" stroke-linejoin="round"/>
<path d="M3.70897 36.1946C2.95178 38.9958 3.70897 42.0181 5.90479 44.2295C8.10061 46.441 11.2808 47.1044 14.1581 46.3672C14.9152 43.5661 14.1581 40.5438 11.9622 38.3323C9.76641 36.1209 6.58625 35.4574 3.70897 36.1946Z" stroke="#00734F" stroke-width="1.4" stroke-miterlimit="10" stroke-linecap="round" stroke-linejoin="round"/>
<path d="M25.1378 25.5042C22.2606 24.767 19.1561 25.5042 16.8846 27.6419C14.613 29.7796 13.9316 32.8756 14.6888 35.6768C17.566 36.414 20.6705 35.6768 22.942 33.5391C25.2136 31.4013 25.895 28.3053 25.1378 25.5042Z" stroke="#00734F" stroke-width="1.4" stroke-miterlimit="10" stroke-linecap="round" stroke-linejoin="round"/>
<path d="M14.5371 21.4506C20.4753 21.4506 25.2891 16.7642 25.2891 10.9831C25.2891 5.20209 20.4753 0.515625 14.5371 0.515625C8.59897 0.515625 3.78516 5.20209 3.78516 10.9831C3.78516 16.7642 8.59897 21.4506 14.5371 21.4506Z" stroke="#00734F" stroke-width="1.4" stroke-miterlimit="10" stroke-linecap="round" stroke-linejoin="round"/>
<path d="M11.8865 9.43543C13.3501 9.43543 14.5366 8.28032 14.5366 6.85541C14.5366 5.4305 13.3501 4.27539 11.8865 4.27539C10.4228 4.27539 9.23633 5.4305 9.23633 6.85541C9.23633 8.28032 10.4228 9.43543 11.8865 9.43543Z" stroke="#00734F" stroke-width="1.4" stroke-miterlimit="10" stroke-linecap="round" stroke-linejoin="round"/>
<path d="M17.1111 17.6171C18.5747 17.6171 19.7612 16.462 19.7612 15.037C19.7612 13.6121 18.5747 12.457 17.1111 12.457C15.6474 12.457 14.4609 13.6121 14.4609 15.037C14.4609 16.462 15.6474 17.6171 17.1111 17.6171Z" stroke="#00734F" stroke-width="1.4" stroke-miterlimit="10" stroke-linecap="round" stroke-linejoin="round"/>
<path d="M10.2969 15.0378L18.7016 6.85547" stroke="#00734F" stroke-width="1.4" stroke-miterlimit="10" stroke-linecap="round" stroke-linejoin="round"/>
</g>
<defs>
<clipPath id="clip0_4372_20337">
<rect width="29" height="76" fill="white"/>
</clipPath>
</defs>
</svg>
