<svg xmlns="http://www.w3.org/2000/svg" width="71.973" height="71.973" viewBox="0 0 71.973 71.973">
  <g id="Raggruppa_2499" data-name="Raggruppa 2499" transform="translate(-829.042 -1466.057)">
    <circle id="Ellisse_57" data-name="Ellisse 57" cx="35.487" cy="35.487" r="35.487" transform="translate(829.542 1466.557)" fill="none"  stroke-linecap="round" stroke-linejoin="round" stroke-width="1"/>
    <g id="Raggruppa_290" data-name="Raggruppa 290">
      <g id="Raggruppa_289" data-name="Raggruppa 289">
        <g id="Raggruppa_288" data-name="Raggruppa 288">
          <path id="Tracciato_114" data-name="Tracciato 114" d="M877.046,1507.556v6.066a2.086,2.086,0,0,1-1.115,1.846l-6.092,3.2a2.067,2.067,0,0,1-.967.238,2.088,2.088,0,0,1-.971-.238l-4.79-2.515-1.3-.683a2.086,2.086,0,0,1-1.115-1.846v-6.066a2.082,2.082,0,0,1,1.115-1.846l6.092-3.2a2.076,2.076,0,0,1,1.938,0l6.092,3.2A2.082,2.082,0,0,1,877.046,1507.556Z" fill="none"  stroke-linecap="round" stroke-linejoin="round" stroke-width="1"/>
          <line id="Linea_103" data-name="Linea 103" y2="17.448" transform="translate(868.87 1507.535)" fill="none"  stroke-linecap="round" stroke-linejoin="round" stroke-width="1"/>
          <line id="Linea_104" data-name="Linea 104" x1="3.851" y2="2.325" transform="translate(868.87 1509.967)" fill="none"  stroke-linecap="round" stroke-linejoin="round" stroke-width="1"/>
          <line id="Linea_105" data-name="Linea 105" x2="3.107" y2="1.641" transform="translate(865.676 1513.708)" fill="none"  stroke-linecap="round" stroke-linejoin="round" stroke-width="1"/>
        </g>
      </g>
    </g>
    <g id="Raggruppa_297" data-name="Raggruppa 297">
      <g id="Raggruppa_293" data-name="Raggruppa 293">
        <g id="Raggruppa_291" data-name="Raggruppa 291">
          <path id="Tracciato_115" data-name="Tracciato 115" d="M861.887,1485.757s-1.567-3.068-3.844-3.046" fill="none"  stroke-linecap="round" stroke-linejoin="round" stroke-width="1"/>
        </g>
        <g id="Raggruppa_292" data-name="Raggruppa 292">
          <path id="Tracciato_116" data-name="Tracciato 116" d="M861.887,1485.757s1.567-3.068,3.843-3.046" fill="none"  stroke-linecap="round" stroke-linejoin="round" stroke-width="1"/>
        </g>
      </g>
      <g id="Raggruppa_296" data-name="Raggruppa 296">
        <g id="Raggruppa_294" data-name="Raggruppa 294">
          <path id="Tracciato_117" data-name="Tracciato 117" d="M864.2,1478.061s-1.128-2.209-2.766-2.193" fill="none"  stroke-linecap="round" stroke-linejoin="round" stroke-width="1"/>
        </g>
        <g id="Raggruppa_295" data-name="Raggruppa 295">
          <path id="Tracciato_118" data-name="Tracciato 118" d="M864.2,1478.061s1.128-2.209,2.766-2.193" fill="none"  stroke-linecap="round" stroke-linejoin="round" stroke-width="1"/>
        </g>
      </g>
    </g>
    <g id="Raggruppa_298" data-name="Raggruppa 298">
      <circle id="Ellisse_58" data-name="Ellisse 58" cx="3.267" cy="3.267" r="3.267" transform="translate(877.096 1485.748)" fill="none"  stroke-linecap="round" stroke-linejoin="round" stroke-width="1"/>
      <line id="Linea_107" data-name="Linea 107" y1="2.278" transform="translate(880.363 1481.094)" fill="none"  stroke-linecap="round" stroke-linejoin="round" stroke-width="1"/>
      <line id="Linea_108" data-name="Linea 108" x1="1.339" y1="1.843" transform="translate(875.707 1482.607)" fill="none"  stroke-linecap="round" stroke-linejoin="round" stroke-width="1"/>
      <line id="Linea_109" data-name="Linea 109" x1="2.167" y1="0.704" transform="translate(872.83 1486.567)" fill="none"  stroke-linecap="round" stroke-linejoin="round" stroke-width="1"/>
      <line id="Linea_110" data-name="Linea 110" x1="2.167" y2="0.704" transform="translate(872.83 1490.758)" fill="none"  stroke-linecap="round" stroke-linejoin="round" stroke-width="1"/>
      <line id="Linea_111" data-name="Linea 111" x1="1.339" y2="1.843" transform="translate(875.707 1493.58)" fill="none"  stroke-linecap="round" stroke-linejoin="round" stroke-width="1"/>
      <line id="Linea_112" data-name="Linea 112" y2="2.278" transform="translate(880.363 1494.657)" fill="none"  stroke-linecap="round" stroke-linejoin="round" stroke-width="1"/>
      <line id="Linea_113" data-name="Linea 113" x2="1.339" y2="1.843" transform="translate(883.68 1493.58)" fill="none"  stroke-linecap="round" stroke-linejoin="round" stroke-width="1"/>
      <line id="Linea_114" data-name="Linea 114" x2="2.167" y2="0.704" transform="translate(885.729 1490.758)" fill="none"  stroke-linecap="round" stroke-linejoin="round" stroke-width="1"/>
      <line id="Linea_115" data-name="Linea 115" y1="0.704" x2="2.167" transform="translate(885.729 1486.567)" fill="none"  stroke-linecap="round" stroke-linejoin="round" stroke-width="1"/>
      <line id="Linea_116" data-name="Linea 116" y1="1.843" x2="1.339" transform="translate(883.68 1482.607)" fill="none"  stroke-linecap="round" stroke-linejoin="round" stroke-width="1"/>
    </g>
    <g id="Raggruppa_301" data-name="Raggruppa 301">
      <g id="Raggruppa_300" data-name="Raggruppa 300">
        <g id="Raggruppa_299" data-name="Raggruppa 299">
          <path id="Tracciato_119" data-name="Tracciato 119" d="M864.165,1499.505v8.979a3.088,3.088,0,0,1-1.651,2.733l-9.02,4.734a3.052,3.052,0,0,1-1.431.353,3.086,3.086,0,0,1-1.436-.353l-7.091-3.722-1.928-1.012a3.086,3.086,0,0,1-1.651-2.733v-8.979a3.083,3.083,0,0,1,1.651-2.734l9.019-4.733a3.068,3.068,0,0,1,2.867,0l9.02,4.733A3.085,3.085,0,0,1,864.165,1499.505Z" fill="none"  stroke-linecap="round" stroke-linejoin="round" stroke-width="1"/>
          <line id="Linea_117" data-name="Linea 117" y2="25.83" transform="translate(852.061 1499.474)" fill="none"  stroke-linecap="round" stroke-linejoin="round" stroke-width="1"/>
          <line id="Linea_118" data-name="Linea 118" x1="5.701" y2="3.442" transform="translate(852.061 1503.074)" fill="none"  stroke-linecap="round" stroke-linejoin="round" stroke-width="1"/>
          <line id="Linea_119" data-name="Linea 119" x2="4.6" y2="2.429" transform="translate(847.332 1508.611)" fill="none"  stroke-linecap="round" stroke-linejoin="round" stroke-width="1"/>
        </g>
      </g>
    </g>
  </g>
</svg>
