<svg xmlns="http://www.w3.org/2000/svg" width="286.802" height="312.689" viewBox="0 0 286.802 312.689">
  <g id="Raggruppa_1499" data-name="Raggruppa 1499" transform="translate(-956.152 -759.238)">
    <g id="kGH0kG" transform="translate(957.168 759.988)">
      <g id="Raggruppa_1481" data-name="Raggruppa 1481" transform="translate(0 0)">
        <path id="Tracciato_1490" data-name="Tracciato 1490" d="M1285.681,78.535h1.139c.873,1.5,3.24,1.691,3.382,3.851.006.1.346.142.478.266.9.851,1.763,1.75,2.7,2.565.637.556,1.359,1.382,2.067,1.407,1.088.037,1.837-.186,2.17,1.275a2.4,2.4,0,0,0,2.555,1.452,4.557,4.557,0,0,1,3.65,1.321c2.753,3.357,5.486,6.576,9.967,7.654.563.135,1.021.711,1.529,1.08,2.172,1.574,4.329,3.165,6.53,4.7a1.72,1.72,0,0,0,1.264.206,7.364,7.364,0,0,1,5.413.965,8.487,8.487,0,0,0,2.445.44c.709,2.274,2.084,3.436,3.83,3.047a39.6,39.6,0,0,0,4.127-1.264c2.387-.813,3.963.483,3.9,3.087a2.851,2.851,0,0,0,.789,2.015,35.629,35.629,0,0,0,4.466,3.19,3.186,3.186,0,0,0,2.01.285c1.733-.276,2.756.244,2.748,2.071a28.714,28.714,0,0,0,.757,7.089c.643,2.636,1.047,3.824,3.787,4.343,2.18.413,4.484.117,6.708.37a15.614,15.614,0,0,1,4.628,1.228c.542.245.441,1.679.984,2.211a8.478,8.478,0,0,0,2.723,1.541,9.776,9.776,0,0,0,1.887.248,46.682,46.682,0,0,0,5.637,1.052,24.112,24.112,0,0,0,4.767-.556,3.793,3.793,0,0,0,.769-.359c.493-.2,1.059-.628,1.477-.517,1.628.429,3.209,1.034,4.808,1.57a4.652,4.652,0,0,0,1.6.482c1.912-.132,3.812-.5,5.724-.576,4.206-.169,4.354-.124,4.166-4.3-.1-2.28.341-3.862,2.648-4.646.473-.16.832-.718,1.19-1.139.811-.955,1.811-.877,2.326.036.923,1.638,2.267,2,3.947,2.01,1.541.008,3.014.169,3.689,1.99.13.349,1.078.4,1.652.579.787.244,1.948.23,2.3.76,1.506,2.257,2.728,4.7,4.157,7.014a5.521,5.521,0,0,0,1.794,1.665c1.309.809,3.074,1.173,3.975,2.275a4.944,4.944,0,0,0,5.065,2.065c3.285-.557,6.252-.064,8.637,2.49a2.776,2.776,0,0,0,.585.48c3.129,1.9,5.857,4.673,10.018,4.284.711-.066,1.5.716,2.3,1.131-.851,1.854-2.33,2.087-3.86,2.26-.605.068-1.2.241-1.8.329a4.731,4.731,0,0,1-1.9.173c-2.326-.718-3.958-3.266-7.035-2.219-1.006.342-1.663.191-1.629,1.475.033,1.2,0,1.885,1.677,2.223a9.974,9.974,0,0,1,5.175,2.872c1.111,1.24,1.3,3.337,1.8,5.082.76,2.618,1.325,5.35,4.776,5.713a1.345,1.345,0,0,1,.611.4c1.056.934,2.092,1.891,3.156,2.816,1.171,1.018,1.594,3.923.36,4.7-1.921,1.205-1.142,3.159-1.439,4.62-.337,1.651.613,3.6,1.129,5.379.628,2.171,1.386,4.306,2.06,6.369-1.8.11-3.591.282-5.381.289a2.893,2.893,0,0,1-1.468-.771c-.588-.449-1.1-1-1.8-1.639-.272.863-.5,1.509-.681,2.17-1.895,7.08-3.8,14.156-5.661,21.245-.8,3.054-1.735,5.779-4.11,8.292-5.373,5.687-10.126,11.956-15.183,17.945-2.645,3.132-5.049,6.6-8.174,9.17-6.681,5.5-13.711,10.58-20.7,15.7-2.877,2.105-5.46,4.605-9.016,5.81-17.892,6.062-35.739,12.26-53.582,18.467a9.612,9.612,0,0,0-2.917,1.889c-1.841,1.578-3.634,3.22-5.356,4.927-1.1,1.094-2.02,2.373-3.063,3.532-.621.689-1.324,1.3-1.99,1.951l-.411-.369c-.464,2.659-.464,2.659-2.849,4.136-.215.133-.432.263-.643.4-2.525,1.65-2.645,2.911-.486,5.084,1.468,1.476,1.447,1.783-.319,2.975-.869.586-1.78,1.11-2.672,1.662a26.544,26.544,0,0,0-.886-3.025c-.234-.562-.74-1.338-1.209-1.4-.865-.121-2.425-.03-2.587.4a16.749,16.749,0,0,0-1.4,5.8c.016,5.838-1.016,11.16-5.734,15.153a2.48,2.48,0,0,0-.541.529,18.27,18.27,0,0,0-1.954,3.348c-1.142,3.288-.4,6.976-2.724,10.125-1.581,2.147-2.122,5.035-3.3,7.508-.873,1.827-.416,4.505,1.292,5.444,1.112.611.951,1.173.377,2.088a10.626,10.626,0,0,0-1.387,3.1c-.369,1.548-1.1,2.885-2.635,3.1-3.736.515-6.319,2.735-8.605,5.4-1.679,1.959-1.537,3.341-.13,5.676a2.07,2.07,0,0,1-.53,1.839,2.555,2.555,0,0,1-1.927.571,1.581,1.581,0,0,0-2,1.672c-.05,2.136-1.39,3.26-2.852,4.384H1274.3c-2.279-1.748-5.012-1.52-7.594-1.5-2.237.018-4.122-.045-4.936-2.565-.086-.268-.584-.38-.836-.622q-2.627-2.509-5.223-5.05a.485.485,0,0,1-.1-.357c.341-2.922-1.587-5.1-2.529-7.6-.5-1.319-.888-2.4.1-3.683.25-.327-.188-1.727-.331-1.73-2.631-.061-4.133-1.956-5.937-3.4a2.6,2.6,0,0,0-1.967-.48,24.661,24.661,0,0,0-4.167,1.5c-1.7.763-2.888.135-3.967-1.136a31.024,31.024,0,0,0-2.417-2.64,1.489,1.489,0,0,0-1.316-.333c-1.181.727-2.054.065-2.969-.466-2.225-1.294-4.391-2.7-6.684-3.856a2.621,2.621,0,0,0-2.359.262c-2.328,2.05-4.422,4.366-6.746,6.42-1.672,1.478-3.49,2.51-5.955,1.227-2.043-1.064-2.713-3.032-1.259-4.894,1.93-2.472,3.828-4.969,5.739-7.456l-.257-.485a9.491,9.491,0,0,0-2.509.672c-2.662,1.585-3.43.322-3.995-2.054a21.846,21.846,0,0,0-.614-2.9c-.57-1.461.063-4.572,1.273-5.472a3.924,3.924,0,0,1,5.422.265c.88.769,1.715,1,2.666.132,2.149-1.952,4.314-3.886,6.54-5.887a3.473,3.473,0,0,1-.672-1.159c-.317-1.626-.547-3.243-2.084-4.289-.194-.132-.175-.67-.151-1.012.154-2.109.741-4.284.4-6.3-.326-1.906-1.609-3.646-.808-5.732.034-.089-.052-.319-.116-.334-2.432-.569-1.2-2.226-1.011-3.4l-4.485-1.959,1.764-2.389.331,1.862c.506-.605.883-1.491,1.356-1.544,1.828-.209,3.687-.154,5.534-.2a3.126,3.126,0,0,0,3.009-1.871c.7-1.436,1.516-2.811,2.282-4.213l.535-.008.6,3.2c1.039-1.1,2.182-2.277,3.288-3.491a2.617,2.617,0,0,0,.512-.985c1.836-5.988,3.578-12.007,5.524-17.96.713-2.183,2.511-3.961,2.557-6.446,0-.246.34-.527.58-.722,1.931-1.574,1.892-3.747,1.744-5.907a2.352,2.352,0,0,0-2.906-2.323l.018.028c-.374-1.293-.4-2.885-1.2-3.809-1.194-1.378-1.2-2.692-1.174-4.327.03-2.256-.511-4.514-.583-6.778-.042-1.328.008-3.607.615-3.83,1.756-.646,1.927-2.2,2.912-3.246-1.912-.725-2.216,1.4-3.344,1.728-2.093.61-2.073,2.1-2.317,3.752-.29,1.953.95,3.434,1.228,5.152a28.973,28.973,0,0,1-.824,12.35c-.525,1.924-1.359,3.323-3.27,3.978l.046-.035a13.651,13.651,0,0,1-1.625.506c-1.544.288-3.232-.633-3.193-1.693.083-2.23,2.967-4.4,5.122-3.876-.936-2.459-2.607-.792-4.378-.419.438-1.645.836-2.947,1.117-4.274.183-.862.36-1.41,1.446-1.622.731-.143,1.308-1.082,1.954-1.663l-.535-.692c-1.19.687-2.715,1.116-3.485,2.123a15.736,15.736,0,0,0-2.034,4.654c-1.242,3.772-4,6.328-6.87,8.8-.208.179-.68.093-1.024.064-.633-.051-1.576-.447-1.834-.174-.789.833.018,1.359.682,1.878a1.709,1.709,0,0,1,.509,1c.111.631.355,1.672.09,1.844a2.617,2.617,0,0,1-2.1.293c-3.093-1.269-5.086-4.324-8.4-5.273-.05-.014-.078-.1-.123-.142-3.118-3.215-6.143-6.528-9.408-9.587-1.044-.977-2.686-1.381-4.116-1.864-1.4-.473-2.928-.593-4.323-1.087a25.7,25.7,0,0,1-3.724-1.855,1.164,1.164,0,0,1-.374-.829c-.151-1.842-1.472-2.812-2.712-3.908a11.705,11.705,0,0,1-1.562-2.165l.408-.354c1.938.619,3.837,2.034,5.879.348.61-.5,1.27-.946,1.907-1.416.38-.279.759-.562,1.141-.838a5.955,5.955,0,0,0,1.478-1.106c.539-.767.823-1.707,1.31-2.516,1.265-2.1-.7-4.736,1.157-6.719-.688-4.752-2.99-8.91-5.048-13.119-.678-1.387-1.245-2.624-.416-3.834.9-1.319.982-3.108,1.725-4.089,1.486-1.964,1.679-4.132,2.235-6.259a3.3,3.3,0,0,0-.3-2.4c-1.518-2.247-3.4-4.259-4.8-6.57a29.033,29.033,0,0,1-2.259-5.715c-.1-.293.382-.8.63-1.191.51-.8,1.025-1.6,1.573-2.375.625-.884,1.124-2.2,1.973-2.5a14.352,14.352,0,0,1,4.362-.313c2.108-.051,4.218-.026,6.325-.1a1.46,1.46,0,0,0,1.1-.569c.919-1.925,1.757-3.888,2.6-5.85,1.309-3.06,2.562-6.145,3.933-9.177.236-.52.946-.826,1.578-1.347.584,1.672.652,3.447,2.839,3.247,1.409-.13,2.828-.165,4.241-.242l-.03-.835a17.812,17.812,0,0,0-2.854.028,2.512,2.512,0,0,1-2.984-1.674c-.9-1.949-1.79-3.9-2.786-5.8-.279-.532-1.043-.8-1.36-1.323a8.821,8.821,0,0,1-1.114-2.658c-.061-.286.68-.785,1.1-1.125,1.4-1.126,3.161-1.985,4.142-3.4,1.191-1.715,1.729-3.885,2.52-5.785a5.91,5.91,0,0,0,6.38-3.076,15.941,15.941,0,0,1,2.206-2.627c1.6-1.868,3.594-3.535,4.706-5.662a13.562,13.562,0,0,0,1.168-8.485,21.953,21.953,0,0,1,.206-4.7c.01-.158.145-.309.281-.579l1.208.86c.712-.944,1.477-1.942.244-2.82-2.529-1.8-2.427-4.015-1.361-6.525.509-1.2-.343-4.683-1.273-5.365a1.135,1.135,0,0,0-.881-.086c-1.347.419-1.584-.507-1.585-1.414,0-2.646.015-5.341,2.289-7.249a3.545,3.545,0,0,1,1.661-.416,23.813,23.813,0,0,0,3.043-.422,16.234,16.234,0,0,0,3.452-1.433c2-1.134,4.285-2.076,5.787-3.71a7.2,7.2,0,0,1,6.012-2.1c3.212.137,5.958-.162,8.274-2.585a3.937,3.937,0,0,1,2.248-1.192c3.7-.33,7.424-.425,11.125-.76a4.239,4.239,0,0,0,2.5-1.208c1.661-1.783,3.132-3.744,4.674-5.631,2.226,1.148,2.421,3.5,3.445,5.573a21.958,21.958,0,0,0,1.359-3.794c.209-.624.856-1.7,1.029-1.643,1.338.4,1.555-.688,2.17-1.334.74-.778,1.62-1.424,2.457-2.142-.478-.325-2.542-.5-1.518-1.993C1284.906,81.817,1286.164,80.575,1285.681,78.535Z" transform="translate(-1175.848 -78.535)" fill="none" stroke="#002622" stroke-miterlimit="10" stroke-width="1.5"/>
        <path id="Tracciato_1491" data-name="Tracciato 1491" d="M1219.673,310.626a14.8,14.8,0,0,1,2.351-8.791A5.927,5.927,0,0,1,1226.1,299c1.662-.427,3.191-1.365,4.852-1.787a4.324,4.324,0,0,1,2.529.545,14.7,14.7,0,0,1,2.343,1.567c.5.356.97.748,1.455,1.122a12.1,12.1,0,0,1-1.44,1.811c-.909.791-2.21,1.26-2.849,2.2-.828,1.221-1.29,1.616-2.84.932-1-.443-2.508.211-3.767.478a2.608,2.608,0,0,0,.061,1.4c.823,1.96,2.16,3.814,1.023,6.093a3.04,3.04,0,0,1-.577.867c-1.657-.693-2.855.813-4.354.867-2.527.089-3.173-.517-3-3.031C1219.563,311.632,1219.617,311.194,1219.673,310.626Z" transform="translate(-1179.473 -98.771)" fill="none" stroke="#002622" stroke-miterlimit="10" stroke-width="1.5"/>
        <path id="Tracciato_1492" data-name="Tracciato 1492" d="M1292.642,84.879c-.068,3.166-.279,3.576-2.535,3.638a3.808,3.808,0,0,1-2.212-1.235c-.818-.763-.262-1.46.447-2,1.006-.766,2-1.562,3.061-2.236.182-.115.9.219,1.029.5A3.874,3.874,0,0,1,1292.642,84.879Z" transform="translate(-1185.765 -78.95)" fill="none" stroke="#002622" stroke-miterlimit="10" stroke-width="1.5"/>
        <path id="Tracciato_1493" data-name="Tracciato 1493" d="M1242.647,294.97c-2.495.452-2.986-.089-2.31-2.6.453-1.686.822-3.395,1.23-5.093l.544-.15a16.417,16.417,0,0,1,1.1,3.647A20.981,20.981,0,0,1,1242.647,294.97Z" transform="translate(-1181.375 -97.842)" fill="none" stroke="#002622" stroke-miterlimit="10" stroke-width="1.5"/>
        <path id="Tracciato_1494" data-name="Tracciato 1494" d="M1288.127,93.454c-.958-1.585-1.916-3.171-2.941-4.866,1.293-1.247,2.461.49,2.72.907.655,1.057.679,2.505.955,3.8Z" transform="translate(-1185.552 -79.425)" fill="none" stroke="#002622" stroke-miterlimit="10" stroke-width="1.5"/>
        <path id="Tracciato_1495" data-name="Tracciato 1495" d="M1247.915,291.738l-.932,1.545a9.413,9.413,0,0,1-1.667-2.257c-.113-.307.852-1.015,1.326-1.54Z" transform="translate(-1181.861 -98.061)" fill="none" stroke="#002622" stroke-miterlimit="10" stroke-width="1.5"/>
        <path id="Tracciato_1496" data-name="Tracciato 1496" d="M1177.991,223.909l-2.6-1.179c.259-.524.416-1.4.794-1.511,1.681-.485,1.588,1.1,2.156,1.92Z" transform="translate(-1175.389 -91.733)" fill="none" stroke="#002622" stroke-miterlimit="10" stroke-width="1.5"/>
        <path id="Tracciato_1497" data-name="Tracciato 1497" d="M1229.98,309.438l-1.341-1.661c.465-.361,1.054-1.1,1.369-1a5.953,5.953,0,0,1,1.7,1.348Z" transform="translate(-1180.318 -99.66)" fill="none" stroke="#002622" stroke-miterlimit="10" stroke-width="1.5"/>
        <path id="Tracciato_1498" data-name="Tracciato 1498" d="M1244.892,287.461c-1.485.962-1.362-.886-2.059-1.292-.391-.229-.315-1.3-.382-1.993-.009-.089.511-.358.574-.3a2.6,2.6,0,0,1,.606.818c.445.921.852,1.859,1.277,2.794Z" transform="translate(-1181.596 -97.54)" fill="none" stroke="#002622" stroke-miterlimit="10" stroke-width="1.5"/>
        <path id="Tracciato_1499" data-name="Tracciato 1499" d="M1236.257,293.334l1.5,1.749c-.614.239-.945.482-1.256.461a8.553,8.553,0,0,1-1.528-.375c.276-.437.54-.882.831-1.309a5.418,5.418,0,0,1,.495-.555Z" transform="translate(-1180.904 -98.414)" fill="none" stroke="#002622" stroke-miterlimit="10" stroke-width="1.5"/>
      </g>
    </g>
    <g id="Componente_9_7" data-name="Componente 9 – 7" transform="translate(1099.554 816.968)">
      <path id="Tracciato_1509" data-name="Tracciato 1509" d="M-1185.032,333.011a16.8,16.8,0,0,0-16.778,16.778,16.365,16.365,0,0,0,1.468,6.849c4.195,9.179,12.237,18.87,14.6,21.621a.934.934,0,0,0,.708.324.934.934,0,0,0,.708-.324c2.365-2.75,10.407-12.442,14.6-21.621a16.358,16.358,0,0,0,1.467-6.849A16.8,16.8,0,0,0-1185.032,333.011Zm0,22.786a6.016,6.016,0,0,1-6.009-6.008,6.016,6.016,0,0,1,6.009-6.009,6.016,6.016,0,0,1,6.008,6.009A6.015,6.015,0,0,1-1185.032,355.8Z" transform="translate(1201.81 -333.011)" fill="#a7d7c8"/>
    </g>
  </g>
</svg>
