<svg xmlns="http://www.w3.org/2000/svg" width="19.281" height="19.19" viewBox="0 0 19.281 19.19">
  <g id="Group_1449" data-name="Group 1449" transform="translate(0.5 0.707)">
    <path id="Path_1438" data-name="Path 1438" d="M1498.568,296.222h-5.936a2.957,2.957,0,0,0-2.958,2.958v10.684a2.958,2.958,0,0,0,2.958,2.958h11.379a2.958,2.958,0,0,0,2.958-2.958v-5.935" transform="translate(-1489.674 -294.839)" fill="none" stroke="#002622" stroke-linecap="round" stroke-width="1"/>
    <g id="Group_1450" data-name="Group 1450" transform="translate(5.914)">
      <path id="Rectangle_1526" data-name="Rectangle 1526" d="M0,0H3.487a0,0,0,0,1,0,0V10.69a1.744,1.744,0,0,1-1.744,1.744h0A1.744,1.744,0,0,1,0,10.69V0A0,0,0,0,1,0,0Z" transform="translate(3.368 11.258) rotate(-135)" fill="none" stroke="#002622" stroke-linecap="round" stroke-linejoin="round" stroke-width="1"/>
      <path id="Path_1439" data-name="Path 1439" d="M1503.467,312.738l3.369-.9-2.466-2.466Z" transform="translate(-1503.467 -300.578)" fill="none" stroke="#002622" stroke-linecap="round" stroke-linejoin="round" stroke-width="1"/>
      <line id="Line_295" data-name="Line 295" x1="2.454" y1="2.454" transform="translate(8.028 1.664)" fill="none" stroke="#002622" stroke-linecap="round" stroke-linejoin="round" stroke-width="1"/>
    </g>
  </g>
</svg>
