<svg width="84" height="70" viewBox="0 0 84 70" fill="none" xmlns="http://www.w3.org/2000/svg">
<g clip-path="url(#clip0_1716:7524)">
<path d="M37.8 16.7998C22.1 16.7998 8.4 25.3998 1 38.0998C8.4 50.7998 22.1 59.2998 37.8 59.2998C53.5 59.2998 67.3 50.6998 74.6 38.0998C67.3 25.3998 53.6 16.7998 37.8 16.7998ZM47.1 36.9998C46.6 37.1998 46 37.2998 45.3 37.2998C42.7 37.2998 40.6 35.1998 40.6 32.5998C40.6 31.3998 41 30.2998 41.7 29.4998C42.6 28.4998 43.8 27.8998 45.2 27.8998C47.8 27.8998 49.9 29.9998 49.9 32.5998C50 34.6998 48.8 36.2998 47.1 36.9998Z"  stroke-width="1.4" stroke-miterlimit="10" stroke-linecap="round" stroke-linejoin="round"/>
<path d="M37.7996 16.7998C26.0996 16.7998 16.5996 26.2998 16.5996 38.0998C16.5996 49.7998 26.0996 59.2998 37.7996 59.2998C49.4996 59.2998 58.9996 49.7998 58.9996 38.0998C59.0996 26.2998 49.5996 16.7998 37.7996 16.7998ZM47.0996 36.9998C46.5996 37.1998 45.9996 37.2998 45.2996 37.2998C42.6996 37.2998 40.5996 35.1998 40.5996 32.5998C40.5996 31.3998 40.9996 30.2998 41.6996 29.4998C42.5996 28.4998 43.7996 27.8998 45.1996 27.8998C47.7996 27.8998 49.8996 29.9998 49.8996 32.5998C49.9996 34.6998 48.7996 36.2998 47.0996 36.9998Z"  stroke-width="1.4" stroke-miterlimit="10" stroke-linecap="round" stroke-linejoin="round"/>
<path d="M47.1 38.0998C47.1 43.1998 42.9 47.3998 37.8 47.3998C32.7 47.3998 28.5 43.1998 28.5 38.0998C28.5 32.9998 32.7 28.7998 37.8 28.7998C39.2 28.7998 40.6 29.0998 41.8 29.6998C41.1 30.4998 40.7 31.5998 40.7 32.7998C40.7 35.3998 42.8 37.4998 45.4 37.4998C46 37.4998 46.6 37.3998 47.2 37.1998C47.1 37.3998 47.1 37.6998 47.1 38.0998Z"  stroke-width="1.4" stroke-miterlimit="10" stroke-linecap="round" stroke-linejoin="round"/>
<path d="M49.9996 32.7004C49.9996 34.6004 48.7996 36.3004 47.0996 37.0004C46.5996 37.2004 45.9996 37.3004 45.2996 37.3004C42.6996 37.3004 40.5996 35.2004 40.5996 32.6004C40.5996 31.4004 40.9996 30.3004 41.6996 29.5004C42.5996 28.5004 43.7996 27.9004 45.1996 27.9004C47.8996 28.0004 49.9996 30.1004 49.9996 32.7004Z"  stroke-width="1.4" stroke-miterlimit="10" stroke-linecap="round" stroke-linejoin="round"/>
<path d="M63.1984 4.5002L65.2984 0.700195L67.2984 4.5002L71.0984 6.6002L67.2984 8.6002L65.2984 12.4002L63.1984 8.6002L59.3984 6.6002L63.1984 4.5002Z"  stroke-width="1.4" stroke-miterlimit="10" stroke-linecap="round" stroke-linejoin="round"/>
<path d="M3.49922 63.2004L4.99922 60.4004L6.49922 63.2004L9.29922 64.7004L6.49922 66.2004L4.99922 69.0004L3.49922 66.2004L0.699219 64.7004L3.49922 63.2004Z"  stroke-width="1.4" stroke-miterlimit="10" stroke-linecap="round" stroke-linejoin="round"/>
<path d="M77.0988 19.5002L78.5988 16.7002L80.0988 19.5002L82.8988 21.0002L80.0988 22.5002L78.5988 25.3002L77.0988 22.5002L74.2988 21.0002L77.0988 19.5002Z"  stroke-width="1.4" stroke-miterlimit="10" stroke-linecap="round" stroke-linejoin="round"/>
</g>
<defs>
<clipPath id="clip0_1716:7524">
<rect width="83.6" height="69.7" fill="white"/>
</clipPath>
</defs>
</svg>
