<svg width="41" height="65" viewBox="0 0 41 65" fill="none" xmlns="http://www.w3.org/2000/svg">
<g clip-path="url(#clip0_1594_5594)">
<path d="M35.398 28.8C35.398 32.2 34.898 35.4001 34.198 38.7001C33.298 42.9001 32.198 47.1 30.998 51.3C30.198 54.2 28.998 56.8001 27.098 59.2001C25.898 60.7001 24.598 61.9001 22.898 62.7001C19.598 64.4001 16.398 64.0001 13.398 61.9001C11.498 60.5001 10.298 58.7 9.99799 56.3C9.79799 55 9.89799 53.7001 10.198 52.4001C10.598 50.1001 11.398 47.9001 12.198 45.7001C12.798 44.2001 13.298 42.6 13.598 41C14.098 38.5 13.698 36 12.898 33.6C12.198 31.6 10.998 29.8001 9.79799 28.1C8.99799 26.9 8.29799 25.7 7.99799 24.3C7.49799 22.1 7.89799 20 8.99799 18C9.89799 16.3 11.398 15.1 13.098 14.3C14.998 13.5 16.998 13.1 18.998 12.9C20.898 12.7 22.698 12.8 24.498 13.2C27.898 13.9 30.698 15.6 32.798 18.4C33.898 19.8 34.398 21.5 34.798 23.3C34.898 23.9 34.998 24.4 35.098 25C35.298 26.5 35.398 27.7 35.398 28.8Z" stroke-width="1.4" stroke-miterlimit="10" stroke-linecap="round" stroke-linejoin="round"/>
<path d="M0.699219 7.90009C0.699219 6.70009 0.899219 5.50009 1.49922 4.50009C2.19922 3.40009 3.09922 2.60009 4.39922 2.40009C5.39922 2.20009 6.19922 2.50009 6.99922 2.90009C8.19922 3.60009 8.99922 4.60009 9.59922 5.80009C10.4992 7.60009 10.6992 9.50009 10.1992 11.4001C9.99922 12.1001 9.69922 12.7001 9.29922 13.3001C8.09922 15.0001 6.19922 15.5001 4.29922 14.5001C3.19922 14.0001 2.39922 13.1001 1.79922 12.1001C1.09922 10.9001 0.699219 9.40009 0.699219 7.90009Z"  stroke-width="1.4" stroke-miterlimit="10" stroke-linecap="round" stroke-linejoin="round"/>
<path d="M19.3008 5.50003C19.3008 6.60003 19.1008 7.60003 18.5008 8.50003C18.3008 8.90003 17.9008 9.30003 17.6008 9.60003C16.2008 10.9 14.4008 10.7 13.2008 9.20003C12.5008 8.40003 12.2008 7.50003 12.1008 6.40003C11.9008 4.70003 12.3008 3.20003 13.3008 1.90003C13.4008 1.80003 13.5008 1.70003 13.6008 1.60003C15.1008 0.20003 17.1008 0.40003 18.3008 2.10003C19.0008 3.10003 19.3008 4.20003 19.3008 5.50003Z"  stroke-width="1.4" stroke-miterlimit="10" stroke-linecap="round" stroke-linejoin="round"/>
<path d="M20.3008 6.50007C20.4008 5.00007 20.8008 3.60007 22.0008 2.50007C23.4008 1.20007 25.2008 1.50007 26.3008 3.10007C27.6008 5.10007 27.1008 8.20007 25.4008 9.70007C23.9008 11.1001 21.9008 10.7001 21.0008 8.90007C20.5008 8.10007 20.4008 7.30007 20.3008 6.50007Z"  stroke-width="1.4" stroke-miterlimit="10" stroke-linecap="round" stroke-linejoin="round"/>
<path d="M27.8984 9.10008C27.8984 7.40008 28.4984 6.00008 29.7984 5.00008C31.3984 3.70008 33.2984 4.30008 33.9984 6.20008C34.0984 6.40008 34.1984 6.70008 34.1984 7.00008C34.3984 8.50008 34.0984 9.80008 33.1984 11.0001C32.7984 11.5001 32.3984 11.9001 31.7984 12.2001C30.4984 12.9001 29.0984 12.4001 28.3984 11.1001C27.9984 10.5001 27.8984 9.90008 27.8984 9.10008Z"  stroke-width="1.4" stroke-miterlimit="10" stroke-linecap="round" stroke-linejoin="round"/>
<path d="M39.6973 12.4C39.5973 14 38.9973 15.3 37.5973 16.2C37.0973 16.5 36.5973 16.7 35.9973 16.6C35.0973 16.5 34.4973 16 34.1973 15.2C33.8973 14.5 33.8973 13.9 33.9973 13.2C34.1973 12 34.7973 11 35.7973 10.3C36.0973 10.1 36.3973 10 36.6973 9.90002C37.7973 9.50002 38.7973 10 39.2973 10.9C39.4973 11.3 39.6973 11.9 39.6973 12.4Z"  stroke-width="1.4" stroke-miterlimit="10" stroke-linecap="round" stroke-linejoin="round"/>
</g>
<defs>
<clipPath id="clip0_1594_5594">
<rect width="40.4" height="64.5" fill="white"/>
</clipPath>
</defs>
</svg>
