<svg width="58" height="60" viewBox="0 0 58 60" fill="none" xmlns="http://www.w3.org/2000/svg">
<path d="M11.0705 31.1055L1.54297 58.1598H56.0856L46.5581 31.1055H38.4292" stroke="#00BA80" stroke-width="2" stroke-miterlimit="10" stroke-linecap="round" stroke-linejoin="round"/>
<path d="M15.6274 9.44824V37.5126" stroke="#00BA80" stroke-width="2" stroke-miterlimit="10" stroke-linecap="round" stroke-linejoin="round"/>
<path d="M21.8517 13.3447L15.6274 17.1126" stroke="#00BA80" stroke-width="2" stroke-miterlimit="10" stroke-linecap="round" stroke-linejoin="round"/>
<path d="M10.5808 19.0342L15.5732 21.6327" stroke="#00BA80" stroke-width="2" stroke-miterlimit="10" stroke-linecap="round" stroke-linejoin="round"/>
<path d="M52.188 18.3677V28.1122C52.188 29.3466 51.4748 30.5159 50.3726 31.1006L40.5824 36.2327C39.6099 36.7524 38.4429 36.7524 37.4703 36.2327L29.7549 32.205L27.6801 31.1006C26.5779 30.5159 25.8647 29.3466 25.8647 28.1122V18.3677C25.8647 17.1334 26.5779 15.964 27.6801 15.3793L37.5352 10.2472C38.5077 9.72749 39.6747 9.72749 40.6473 10.2472L50.4375 15.3793C51.4748 15.964 52.188 17.0684 52.188 18.3677Z" stroke="#00BA80" stroke-width="2" stroke-miterlimit="10" stroke-linecap="round" stroke-linejoin="round"/>
<path fill-rule="evenodd" clip-rule="evenodd" d="M14.6078 2.27175C15.2858 1.90942 16.0993 1.90942 16.7773 2.27175L16.7773 2.27178L16.7843 2.27547L26.5599 7.39995C27.294 7.8191 27.7893 8.59696 27.7893 9.51026V14.1949L29.7893 13.1534V9.51026C29.7893 7.83001 28.8638 6.40263 27.5298 5.65076C27.521 5.64578 27.5121 5.64094 27.5031 5.63624L17.7162 0.505827C16.4516 -0.168376 14.935 -0.168609 13.6702 0.505128L3.81958 5.63498L3.81956 5.63496L3.81285 5.63852C2.3904 6.39307 1.46606 7.89829 1.46606 9.51026V19.2548C1.46606 20.8664 2.39 22.3714 3.81194 23.1261L3.81285 23.1266L5.88633 24.2303L5.88631 24.2303L5.89343 24.234L13.6048 28.2597C14.8698 28.9337 16.3866 28.9336 17.6514 28.2592L24.8648 24.4779V22.2198L16.7195 26.4896L16.7195 26.4896L16.7125 26.4933C16.0344 26.8557 15.221 26.8557 14.543 26.4933L14.543 26.4933L14.5344 26.4888L6.82238 22.4628L4.75134 21.3604L4.75007 21.3598C3.96811 20.945 3.46606 20.1115 3.46606 19.2548V9.51026C3.46606 8.65472 3.9668 7.8223 4.74701 7.40695L14.5984 2.27672L14.5984 2.27677L14.6078 2.27175ZM26.8648 21.125V23.4295L27.4382 23.1288L27.4426 23.1266C28.865 22.372 29.7893 20.8668 29.7893 19.2548V15.4083L28.1457 16.2642C28.0193 16.3316 27.9002 16.4098 27.7893 16.4974V19.2548C27.7893 19.9717 27.4378 20.6724 26.8648 21.125Z" fill="#00BA80"/>
<path d="M39.0261 18.3037V46.3681" stroke="#00BA80" stroke-width="2" stroke-miterlimit="10" stroke-linecap="round" stroke-linejoin="round"/>
<path d="M45.2503 22.2002L39.0261 25.9681" stroke="#00BA80" stroke-width="2" stroke-miterlimit="10" stroke-linecap="round" stroke-linejoin="round"/>
<path d="M33.9795 27.8896L38.9718 30.4882" stroke="#00BA80" stroke-width="2" stroke-miterlimit="10" stroke-linecap="round" stroke-linejoin="round"/>
</svg>
