<svg width="118" height="123" viewBox="0 0 118 123" fill="none" xmlns="http://www.w3.org/2000/svg">
  <g clip-path="url(#clip0)">
    <path d="M117.455 113.586H20.041" stroke="#00734F" stroke-width="1.4" stroke-miterlimit="10" stroke-linecap="round" stroke-linejoin="round"/>
    <path d="M50.3387 35.4197C50.2611 35.4197 50.1057 35.4968 50.028 35.4968C48.319 35.7283 46.7653 34.0307 46.4546 31.7929C46.1439 29.478 47.3091 27.4717 48.9405 27.1631C49.0958 27.1631 49.3289 27.1631 49.4842 27.1631C49.4842 27.6261 49.4065 28.1662 49.4065 28.6292C49.5619 30.9441 49.795 33.2591 50.3387 35.4197Z" stroke="#00734F" stroke-width="1.4" stroke-miterlimit="10" stroke-linecap="round" stroke-linejoin="round"/>
    <path d="M89.8001 31.7148C89.4894 34.0298 87.9358 35.6502 86.2267 35.4187C86.1491 35.4187 85.9937 35.3416 85.916 35.3416C86.4598 33.181 86.7705 30.9432 86.7705 28.5511C86.7705 28.2424 86.7705 27.9338 86.7705 27.6251C86.6152 27.4708 86.5375 27.3165 86.4598 27.1621C86.5375 27.1621 86.6928 27.085 86.7705 27.085C86.9259 27.085 87.1589 27.085 87.3143 27.085C87.392 27.085 87.4697 27.085 87.625 27.1621C89.101 27.6251 90.1109 29.5542 89.8001 31.7148Z" stroke="#00734F" stroke-width="1.4" stroke-miterlimit="10" stroke-linecap="round" stroke-linejoin="round"/>
    <path d="M79.7798 56.5614V56.7929C79.7022 56.7929 79.6245 56.8701 79.6245 56.8701L75.7404 61.3456L75.6627 61.4228L69.9918 67.9817C68.982 69.1392 67.1953 69.1392 66.2631 67.9817L60.2815 60.9598L56.7081 56.9472C56.6304 56.8701 56.5527 56.8701 56.5527 56.8701V56.6386L57.8733 47.6104C60.8253 50.0024 64.321 51.3914 68.1274 51.3914C71.9339 51.3914 75.4296 50.0024 78.3816 47.6104L79.7798 56.5614Z" stroke="#00734F" stroke-width="1.4" stroke-miterlimit="10" stroke-linecap="round" stroke-linejoin="round"/>
    <path d="M86.7705 27.6253C86.6152 27.471 86.5375 27.3167 86.4598 27.1623C84.2847 24.1529 82.9641 21.2978 82.1873 19.2144C81.022 16.205 80.0898 13.5814 80.9443 11.961C80.9443 11.961 80.9443 11.8838 80.8667 11.8838C80.8667 11.961 80.789 12.0381 80.789 12.1153C79.1576 16.5908 72.3993 17.131 68.7482 17.5168C63.0773 18.0569 61.6014 16.5137 58.1833 17.7483C54.0661 19.2144 51.4249 23.1498 49.949 26.1592C49.8713 26.082 49.7936 26.0049 49.7159 25.9277C49.6382 26.3135 49.6382 26.7765 49.6382 27.1623C49.6382 27.6253 49.5605 28.1655 49.5605 28.6285C49.5605 31.0206 49.8713 33.2583 50.4151 35.4189C51.7357 40.4346 54.3769 44.7558 57.9503 47.6109C60.9022 50.003 64.3979 51.3919 68.2044 51.3919C72.0108 51.3919 75.5066 50.003 78.4585 47.6109C82.0319 44.7558 84.6731 40.5118 85.9937 35.4189C86.5375 33.2583 86.8482 31.0206 86.8482 28.6285C86.7706 28.3198 86.7705 28.0111 86.7705 27.6253Z" stroke="#00734F" stroke-width="1.4" stroke-miterlimit="10" stroke-linecap="round" stroke-linejoin="round"/>
    <path d="M86.7736 27.6251C86.6182 27.4708 86.5406 27.3165 86.4629 27.1621C86.5406 27.1621 86.6959 27.085 86.7736 27.085C86.7736 27.3165 86.7736 27.4708 86.7736 27.6251Z" stroke="#00734F" stroke-width="1.4" stroke-miterlimit="10" stroke-linecap="round" stroke-linejoin="round"/>
    <path d="M80.7906 11.9609C80.7906 12.038 80.7129 12.1152 80.7129 12.1924C79.0816 16.6679 72.3232 17.2081 68.6721 17.5939C63.0013 18.134 61.5253 16.5907 58.1072 17.8254C53.9901 19.2915 51.3488 23.2269 49.8729 26.2363C49.7952 26.1591 49.7175 26.082 49.6398 26.0048C48.63 24.9245 46.4548 22.0694 46.1441 17.9025C45.6003 10.5719 51.2712 6.01923 51.8926 5.47908C55.233 2.85549 59.1171 2.70116 60.7485 2.62399C64.4772 2.46967 65.7201 3.7043 68.8275 2.62399C71.5463 1.69802 71.8571 0.463392 73.7991 0.540556C76.4404 0.61772 78.6932 3.08698 79.7807 5.24758C80.1691 5.94206 81.7228 9.1058 80.7906 11.9609Z" stroke="#00734F" stroke-width="1.4" stroke-miterlimit="10" stroke-linecap="round" stroke-linejoin="round"/>
    <path d="M87.6279 27.1619C87.5503 27.1619 87.4726 27.0847 87.3172 27.0847C87.1618 27.0847 86.9288 27.0847 86.7734 27.0847C86.6957 27.0847 86.5404 27.0847 86.4627 27.1619C84.2876 24.1525 82.967 21.2974 82.1901 19.214C81.0249 16.2045 80.0927 13.581 80.9472 11.9605C81.0249 11.8062 81.1026 11.729 81.1803 11.6518C82.4232 10.1086 85.6082 10.1857 87.3949 11.5747C90.1915 13.8124 90.3468 19.9856 87.6279 27.1619Z" stroke="#00734F" stroke-width="1.4" stroke-miterlimit="10" stroke-linecap="round" stroke-linejoin="round"/>
    <path d="M87.6286 27.1621C87.4732 27.4708 87.3955 27.8566 87.2402 28.1653C87.0848 28.0109 86.9294 27.7794 86.8517 27.6251C86.6964 27.4708 86.6187 27.3165 86.541 27.1621C86.6187 27.1621 86.7741 27.085 86.8517 27.085C87.0071 27.085 87.2402 27.085 87.3955 27.085C87.3955 27.1621 87.4732 27.1621 87.6286 27.1621Z" stroke="#00734F" stroke-width="1.4" stroke-miterlimit="10" stroke-linecap="round" stroke-linejoin="round"/>
    <path d="M57.1743 6.71387C56.2421 7.09969 53.6009 8.41148 51.7365 11.4981C49.7168 14.5846 49.7168 17.6712 49.7168 18.7515" stroke="#00734F" stroke-width="1.4" stroke-miterlimit="10" stroke-linecap="round" stroke-linejoin="round"/>
    <path d="M101.377 62.7347L79.9366 56.6387L79.8589 56.793V56.8702C80.092 56.793 80.325 56.793 80.5581 56.793L84.5199 57.9505C85.1413 58.1048 85.4521 58.8765 85.0637 59.4166L79.8589 67.6732L79.5482 68.2133C79.3151 68.5992 78.849 68.7535 78.3829 68.5992L73.0228 66.9015C72.3237 66.6701 72.0906 65.8212 72.5567 65.2811L75.7417 61.5L70.0709 68.059C69.061 69.2165 67.2743 69.2165 66.3421 68.059L60.3606 61.0371L63.934 65.2039C64.4001 65.7441 64.167 66.5929 63.4679 66.8244L58.1078 68.522C57.6417 68.6763 57.1756 68.522 56.9425 68.1362L56.6318 67.596L51.427 59.3394C51.0386 58.7993 51.3494 58.0276 51.9708 57.8733L55.9326 56.7158C56.1657 56.6387 56.3987 56.6387 56.6318 56.793V56.7158L56.5541 56.5615L34.9583 62.7347C31.3072 63.815 28.666 67.7504 28.666 72.2259V113.586H107.592V72.2259C107.592 67.6732 105.028 63.7378 101.377 62.7347ZM64.0116 96.9956L58.8069 97.7673L56.4764 102.397L54.1459 97.7673L48.9412 96.9956L52.8253 93.3689L52.2816 90.2823L51.9708 88.2761L54.7674 89.7422L56.5541 90.6682L61.2151 88.2761L60.3606 93.3689L64.0116 96.9956Z" stroke="#00734F" stroke-width="1.4" stroke-miterlimit="10" stroke-linecap="round" stroke-linejoin="round"/>
    <path d="M56.5527 56.7158L56.7081 56.9473C56.6304 56.8702 56.5527 56.8701 56.5527 56.8701V56.7158Z" stroke="#00734F" stroke-width="1.4" stroke-miterlimit="10" stroke-linecap="round" stroke-linejoin="round"/>
    <path d="M79.7823 56.7158V56.793C79.7046 56.793 79.627 56.8701 79.627 56.8701L79.7823 56.7158Z" stroke="#00734F" stroke-width="1.4" stroke-miterlimit="10" stroke-linecap="round" stroke-linejoin="round"/>
    <path d="M33.6387 63.2744L38.5327 74.0003" stroke="#00734F" stroke-width="1.4" stroke-miterlimit="10" stroke-linecap="round" stroke-linejoin="round"/>
    <path d="M102.697 63.2744L97.8027 74.0003" stroke="#00734F" stroke-width="1.4" stroke-miterlimit="10" stroke-linecap="round" stroke-linejoin="round"/>
    <path d="M63.3899 66.8243L58.0298 68.5219C57.5637 68.6762 57.0976 68.5219 56.8645 68.1361L56.5538 67.5959L51.349 59.3393C50.9606 58.7992 51.2714 58.0275 51.8928 57.8732L55.8546 56.7157C56.0877 56.6386 56.3207 56.6386 56.5538 56.7929C56.6315 56.7929 56.7091 56.8701 56.7091 56.8701L60.2825 61.0369L63.856 65.2038C64.322 65.8211 64.089 66.5928 63.3899 66.8243Z" stroke="#00734F" stroke-width="1.4" stroke-miterlimit="10" stroke-linecap="round" stroke-linejoin="round"/>
    <path d="M60.2824 61.1141L56.709 56.9473C56.7867 57.0244 56.7867 57.0244 56.8643 57.1016L60.2824 61.1141Z" stroke="#00734F" stroke-width="1.4" stroke-miterlimit="10" stroke-linecap="round" stroke-linejoin="round"/>
    <path d="M84.9857 59.3394L79.781 67.596L79.4703 68.1361C79.2372 68.522 78.7711 68.6763 78.305 68.522L72.9449 66.8243C72.2458 66.5929 72.0127 65.744 72.4788 65.2039L75.6638 61.4228L75.7415 61.3457L79.6256 56.8701C79.7033 56.793 79.781 56.793 79.781 56.793C80.014 56.7158 80.2471 56.7158 80.4801 56.7158L84.442 57.8733C85.0634 58.1048 85.2965 58.7993 84.9857 59.3394Z" stroke="#00734F" stroke-width="1.4" stroke-miterlimit="10" stroke-linecap="round" stroke-linejoin="round"/>
    <path d="M79.6244 56.9473L75.7402 61.4228L79.3913 57.1016C79.469 57.0244 79.5467 56.9473 79.6244 56.9473Z" stroke="#00734F" stroke-width="1.4" stroke-miterlimit="10" stroke-linecap="round" stroke-linejoin="round"/>
    <path d="M95.4742 71.1455H40.8633C39.465 71.1455 38.3774 72.303 38.4551 73.6148V73.9234L40.1641 111.194C40.2418 112.428 41.2517 113.432 42.5723 113.432H93.6875C94.9304 113.432 96.018 112.428 96.0956 111.194L97.8047 73.9234V73.6148C97.8823 72.303 96.7948 71.1455 95.4742 71.1455ZM58.8856 97.7672L56.5552 102.397L54.2247 97.7672L49.0199 96.9956L52.8264 93.3689L52.2826 90.2823L51.9719 88.276L54.7685 89.7421L56.5552 90.6681L61.2161 88.276L60.3616 93.3689L64.0904 96.9956L58.8856 97.7672Z" stroke="#00734F" stroke-width="1.4" stroke-miterlimit="10" stroke-linecap="round" stroke-linejoin="round"/>
    <path d="M57.7955 84.881C57.7955 87.0416 56.5526 88.8935 54.6882 89.7424L51.8916 88.2762L52.2023 90.2825C49.2504 90.2053 46.9199 87.8132 46.9199 84.881C46.9199 81.8716 49.3281 79.4795 52.3577 79.4795C55.3873 79.5567 57.7955 81.9488 57.7955 84.881Z" stroke="#00734F" stroke-width="1.4" stroke-miterlimit="10" stroke-linecap="round" stroke-linejoin="round"/>
    <path d="M52.4344 87.8127C54.0647 87.8127 55.3863 86.4999 55.3863 84.8805C55.3863 83.2611 54.0647 81.9482 52.4344 81.9482C50.8041 81.9482 49.4824 83.2611 49.4824 84.8805C49.4824 86.4999 50.8041 87.8127 52.4344 87.8127Z" stroke="#00734F" stroke-width="1.4" stroke-miterlimit="10" stroke-linecap="round" stroke-linejoin="round"/>
    <path d="M64.0108 96.9959L58.8837 97.7676L56.5532 102.397L54.2228 97.7676L49.0957 96.9959L52.8245 93.3692L52.2807 90.2826L51.8923 88.2764L54.7665 89.7425L56.5532 90.7456L61.1365 88.2764L60.282 93.3692L64.0108 96.9959Z" stroke="#00734F" stroke-width="1.4" stroke-miterlimit="10" stroke-linecap="round" stroke-linejoin="round"/>
    <path d="M74.5 81.3322C74.8107 81.3322 75.1991 81.4094 75.5875 81.4865L75.8983 81.5637C76.442 81.718 76.8305 81.9495 77.2189 82.2582C77.6073 82.5668 77.8403 83.0298 77.9957 83.4928C78.1511 83.9558 78.1511 84.4188 77.9957 84.9589V85.0361L75.9759 84.4959C76.0536 84.1101 76.0536 83.8786 75.8983 83.6471C75.7429 83.4156 75.5098 83.2613 75.1991 83.1841H75.1214C75.0437 83.1841 74.8884 83.107 74.8107 83.107C74.6553 83.107 74.5 83.1841 74.2669 83.2613C74.0339 83.4156 73.8785 83.6471 73.7231 83.8786L73.1794 85.8849C73.1017 86.1935 73.1017 86.425 73.257 86.7337C73.4124 86.9652 73.6455 87.1195 73.8785 87.2738L74.0339 87.351C74.1116 87.351 74.2669 87.4282 74.3446 87.4282C74.5 87.4282 74.6553 87.351 74.8107 87.2738C75.0438 87.1195 75.1991 86.888 75.2768 86.5794L74.1116 86.2707L74.5 84.8817L77.685 85.8077L76.9858 88.277C76.8304 88.8171 76.7528 89.203 76.6751 89.3573L76.5974 89.7431L75.4322 89.4344L75.3545 88.5856C75.0437 88.74 74.733 88.8943 74.2669 88.9715C74.1116 88.9715 73.9562 88.9715 73.8785 88.9715C73.6455 88.9715 73.3347 88.9715 73.1017 88.8943H73.024C72.4802 88.74 72.0141 88.4313 71.6257 88.0455C71.2373 87.6597 71.0042 87.1967 70.8489 86.6565C70.6935 86.1164 70.7712 85.5762 70.9266 84.9589L71.2373 83.8786C71.3927 83.3385 71.7034 82.7983 72.0918 82.4125C72.4802 82.0267 73.024 81.7952 73.5678 81.6408C73.9562 81.3322 74.1892 81.3322 74.5 81.3322ZM74.5 80.5605C74.1892 80.5605 73.8785 80.5605 73.5678 80.6377C72.8686 80.792 72.2472 81.1007 71.7034 81.6408C71.1596 82.1038 70.8489 82.7211 70.6158 83.4156L70.3051 84.4959C70.0721 85.1904 70.0721 85.8849 70.2274 86.5022C70.3828 87.1967 70.6935 87.814 71.1596 88.277C71.6257 88.8171 72.2472 89.1258 72.9463 89.3573H73.024C73.3347 89.4344 73.6455 89.5116 74.0339 89.5116C74.1892 89.5116 74.3446 89.5116 74.5777 89.5116C74.6553 89.5116 74.733 89.5116 74.8884 89.4344V89.8203L75.4322 89.9746L76.5974 90.2833L77.4519 90.5147L77.6073 89.6659L77.685 89.2801C77.685 89.2029 77.7626 88.9715 77.918 88.277L78.5395 85.9621L78.7725 85.2676L78.8502 85.1132C79.0056 84.4959 79.0056 83.8786 78.7725 83.3385C78.6172 82.7211 78.2287 82.2582 77.7626 81.7952C77.2965 81.3322 76.7528 81.1007 76.1313 80.8692L75.8206 80.792C75.2768 80.5605 74.8884 80.5605 74.5 80.5605ZM74.6553 83.8786C74.733 83.8014 74.8107 83.8014 74.8107 83.8014H74.8884H74.9661C75.1214 83.8786 75.1991 83.8786 75.1991 83.9558C75.1991 83.9558 75.1991 83.9558 75.1991 84.0329L74.733 83.8786H74.6553Z" fill="#00734F"/>
    <path d="M79.7035 82.7209L84.8305 84.187L84.1314 85.8075L81.3348 85.0358L81.0241 86.1933L83.6653 86.9649L83.1992 88.5854L80.558 87.8137L79.7811 90.4373L77.6837 89.82L79.7035 82.7209ZM79.1597 81.7949L78.9266 82.5666L76.9069 89.5885L76.6738 90.3602L77.4507 90.5917L79.5481 91.209L80.3249 91.4405L80.558 90.6688L81.1017 88.7397L82.9661 89.2799L83.743 89.5114L83.976 88.7397L84.4421 87.1193L84.5975 86.7334H84.6751L84.9082 86.1161L85.6073 84.4957L85.9181 83.724L85.0636 83.4925L79.9365 82.0264L79.1597 81.7949Z" fill="#00734F"/>
    <path d="M85.5316 84.4192L89.338 85.4995C89.7264 85.5766 90.0372 85.8081 90.3479 86.1168C90.6586 86.4254 90.814 86.7341 90.8917 87.1199C90.9694 87.5057 90.9694 87.8916 90.8917 88.2774L90.814 88.5089C90.7363 88.8947 90.5033 89.2033 90.1925 89.512C89.8818 89.8207 89.5711 89.975 89.1827 90.0522C89.0273 90.1293 88.7943 90.1293 88.6389 90.1293C88.4058 90.1293 88.2505 90.1293 88.0174 90.0522L86.3861 89.5892L85.6869 92.1356L83.5118 91.5183L85.5316 84.4192ZM88.0174 88.2774C88.0951 88.2774 88.2505 88.2774 88.3282 88.2002C88.4835 88.123 88.5612 87.9687 88.6389 87.8144V87.6601C88.7166 87.5057 88.6389 87.3514 88.6389 87.1971C88.5612 87.0427 88.4058 86.9656 88.2505 86.8884L87.3183 86.6569L86.9299 88.0459L87.8621 88.2774C87.8621 88.2774 87.9397 88.2774 88.0174 88.2774ZM84.9878 83.416L84.7548 84.1877L82.735 91.2096L82.502 91.9813L83.2788 92.2128L85.4539 92.8301L86.2307 93.0616L86.4638 92.2899L87.0076 90.5151L87.8621 90.7466C88.1728 90.8238 88.4058 90.901 88.7166 90.901C88.9496 90.901 89.1827 90.901 89.4157 90.8238C89.9595 90.6695 90.4256 90.438 90.814 90.0522C91.2024 89.6663 91.4355 89.2033 91.5908 88.7404L91.6685 88.5089C91.8239 87.9687 91.8239 87.4286 91.6685 86.9656C91.5132 86.4254 91.2801 85.9624 90.8917 85.5766C90.5033 85.1908 90.0372 84.9593 89.5711 84.805L85.7646 83.7247L84.9878 83.416Z" fill="#00734F"/>
    <path d="M39.0739 4.55273H5.74805V21.4517H23.5374H27.8876L36.5104 26.6217L36.355 21.4517H39.0739V4.55273Z" stroke="#00734F" stroke-width="1.4" stroke-miterlimit="10" stroke-linecap="round" stroke-linejoin="round"/>
    <path d="M15.4571 14.2758C16.0149 14.2758 16.467 13.8267 16.467 13.2727C16.467 12.7187 16.0149 12.2695 15.4571 12.2695C14.8994 12.2695 14.4473 12.7187 14.4473 13.2727C14.4473 13.8267 14.8994 14.2758 15.4571 14.2758Z" stroke="#00734F" stroke-width="1.4" stroke-miterlimit="10" stroke-linecap="round" stroke-linejoin="round"/>
    <path d="M22.3712 14.2758C22.9289 14.2758 23.3811 13.8267 23.3811 13.2727C23.3811 12.7187 22.9289 12.2695 22.3712 12.2695C21.8135 12.2695 21.3613 12.7187 21.3613 13.2727C21.3613 13.8267 21.8135 14.2758 22.3712 14.2758Z" stroke="#00734F" stroke-width="1.4" stroke-miterlimit="10" stroke-linecap="round" stroke-linejoin="round"/>
    <path d="M29.3634 14.2758C29.9211 14.2758 30.3733 13.8267 30.3733 13.2727C30.3733 12.7187 29.9211 12.2695 29.3634 12.2695C28.8057 12.2695 28.3535 12.7187 28.3535 13.2727C28.3535 13.8267 28.8057 14.2758 29.3634 14.2758Z" stroke="#00734F" stroke-width="1.4" stroke-miterlimit="10" stroke-linecap="round" stroke-linejoin="round"/>
    <path d="M14.7601 95.7613C14.7601 96.0699 14.7601 96.4557 14.7601 96.9187C14.6824 97.999 14.4493 99.388 13.6725 100.931C13.3618 101.471 13.051 102.012 12.7403 102.475H8.93386C8.70081 100.777 8.46777 98.6163 8.85618 96.4557C9.01154 95.6069 9.24459 94.218 10.0214 92.5975C10.4098 91.7487 10.9536 90.8999 11.342 90.3598C11.8081 89.5881 12.2742 88.9708 12.5849 88.5078C13.2064 89.6653 14.7601 92.2889 14.7601 95.7613Z" stroke="#00734F" stroke-width="1.4" stroke-miterlimit="10" stroke-linecap="round" stroke-linejoin="round"/>
    <path d="M8.77969 96.4557C8.39128 98.6163 8.54664 100.777 8.85738 102.475H7.30372C6.68226 101.471 6.0608 100.16 5.75007 98.6163C5.67239 98.2305 5.5947 97.9218 5.51702 97.536C4.81788 93.1376 6.44921 89.8196 6.99299 88.7393C7.61445 89.2794 8.93506 90.5912 9.94493 92.5975C9.16811 94.2179 8.93506 95.6069 8.77969 96.4557Z" stroke="#00734F" stroke-width="1.4" stroke-miterlimit="10" stroke-linecap="round" stroke-linejoin="round"/>
    <path d="M21.3626 94.9121C21.2072 95.8381 20.5081 99.6191 17.1677 102.474H12.6621C12.9728 102.011 13.3613 101.548 13.5943 100.931C14.3711 99.3876 14.6042 97.9987 14.6819 96.9184C15.9248 96.2239 17.09 95.8381 17.7892 95.6066C19.2651 95.1436 20.5081 94.9893 21.3626 94.9121Z" stroke="#00734F" stroke-width="1.4" stroke-miterlimit="10" stroke-linecap="round" stroke-linejoin="round"/>
    <path d="M7.30337 102.475H2.87546C2.79778 102.32 2.64241 102.166 2.56473 102.012C1.08876 99.7741 1.39949 97.382 1.47717 96.6875C2.40936 96.8418 4.0407 97.3048 5.67203 98.6166C6.06045 100.16 6.68191 101.395 7.30337 102.475Z" stroke="#00734F" stroke-width="1.4" stroke-miterlimit="10" stroke-linecap="round" stroke-linejoin="round"/>
    <path d="M20.6647 102.475L18.5673 122.46H2.64235L1.01102 106.641L0.544922 102.475H20.6647Z" stroke="#00734F" stroke-width="1.4" stroke-miterlimit="10" stroke-linecap="round" stroke-linejoin="round"/>
    <path d="M10.6426 106.642H19.8868" stroke="#00734F" stroke-width="1.4" stroke-miterlimit="10" stroke-linecap="round" stroke-linejoin="round"/>
    <path d="M1.00977 106.642H10.6424" stroke="#00734F" stroke-width="1.4" stroke-miterlimit="10" stroke-linecap="round" stroke-linejoin="round"/>
    <path d="M60.1277 32.7183C60.8141 32.7183 61.3706 32.1655 61.3706 31.4837C61.3706 30.8018 60.8141 30.249 60.1277 30.249C59.4412 30.249 58.8848 30.8018 58.8848 31.4837C58.8848 32.1655 59.4412 32.7183 60.1277 32.7183Z" stroke="#00734F" stroke-width="1.4" stroke-miterlimit="10" stroke-linecap="round" stroke-linejoin="round"/>
    <path d="M57.4863 28.0114C57.4863 28.0114 59.5061 27.0082 61.5258 27.5484" stroke="#00734F" stroke-width="1.4" stroke-miterlimit="10" stroke-linecap="round" stroke-linejoin="round"/>
    <path d="M76.2097 32.7183C76.8962 32.7183 77.4526 32.1655 77.4526 31.4837C77.4526 30.8018 76.8962 30.249 76.2097 30.249C75.5233 30.249 74.9668 30.8018 74.9668 31.4837C74.9668 32.1655 75.5233 32.7183 76.2097 32.7183Z" stroke="#00734F" stroke-width="1.4" stroke-miterlimit="10" stroke-linecap="round" stroke-linejoin="round"/>
    <path d="M78.85 28.0114C78.85 28.0114 76.8303 27.0082 74.8105 27.5484" stroke="#00734F" stroke-width="1.4" stroke-miterlimit="10" stroke-linecap="round" stroke-linejoin="round"/>
  </g>
  <defs>
    <clipPath id="clip0">
      <rect width="118" height="123" fill="white"/>
    </clipPath>
  </defs>
</svg>
