<svg width="55" height="59" viewBox="0 0 55 59" fill="none" xmlns="http://www.w3.org/2000/svg">
<path d="M51.9065 22.6797H3.35352V57.9968H51.9065V22.6797Z"  stroke-width="1.4" stroke-miterlimit="10" stroke-linecap="round" stroke-linejoin="round"/>
<path d="M54.262 14.3477H1V22.7474H54.262V14.3477Z"  stroke-width="1.4" stroke-miterlimit="10" stroke-linecap="round" stroke-linejoin="round"/>
<path d="M32.5625 22.6797H22.6992V57.9968H32.5625V22.6797Z"  stroke-width="1.4" stroke-miterlimit="10" stroke-linecap="round" stroke-linejoin="round"/>
<path d="M33.8993 14.3477H21.3633V22.7474H33.8993V14.3477Z"  stroke-width="1.4" stroke-miterlimit="10" stroke-linecap="round" stroke-linejoin="round"/>
<path d="M13.5349 3.02316C10.9259 5.63217 10.9259 9.83204 13.5349 12.4411C16.1439 15.0501 20.3438 15.0501 22.9528 12.4411L27.6617 7.73211L22.9528 3.02316C20.3438 0.414154 16.1439 0.414154 13.5349 3.02316Z"  stroke-width="1.4" stroke-miterlimit="10" stroke-linecap="round" stroke-linejoin="round"/>
<path d="M41.7245 12.3746C44.3335 9.76564 44.3335 5.56577 41.7245 2.95676C39.1155 0.347748 34.9156 0.347748 32.3066 2.95676L27.5977 7.6657L32.3066 12.3746C34.9156 14.9837 39.1155 14.9837 41.7245 12.3746Z"  stroke-width="1.4" stroke-miterlimit="10" stroke-linecap="round" stroke-linejoin="round"/>
</svg>
