<svg width="88" height="119" viewBox="0 0 88 119" fill="none" xmlns="http://www.w3.org/2000/svg">
<g clip-path="url(#clip0_3003:14258)">
<path d="M73.399 105.554L70.5026 100.189L67.2365 106.109L61.3205 109.376L64.525 111.103C61.7519 112.336 58.7323 113.323 55.5895 113.877C34.3289 117.824 13.8696 103.827 9.92558 82.5552C8.32334 73.9847 9.67908 65.5376 13.1917 58.2619C13.2533 58.1386 13.3149 58.0153 13.3766 57.9536C13.4382 57.7687 13.5614 57.6453 13.6231 57.4604C13.8696 56.9671 14.1161 56.5355 14.3626 56.0422C14.4242 55.8573 14.5474 55.7339 14.6707 55.549C15.4102 54.2541 16.2729 53.021 17.1357 51.7878C17.4438 51.3562 17.8135 50.9246 18.1833 50.493L18.2449 50.4314C18.6147 49.9997 18.9228 49.6298 19.2925 49.1982C19.6623 48.7666 20.032 48.3966 20.4634 47.965C20.6483 47.7801 20.8331 47.5951 21.0796 47.3484C25.7015 42.8474 31.4326 39.4562 37.9648 37.6681C38.088 37.6681 38.1497 37.6065 38.2729 37.6065C38.3962 37.5448 38.581 37.5448 38.7043 37.4832C38.8275 37.4832 38.8892 37.4215 39.0124 37.4215C39.1973 37.3598 39.3822 37.2982 39.6287 37.2982C39.8752 37.2365 40.1217 37.1749 40.3682 37.1132C40.6763 37.0516 40.9844 36.9899 41.2309 36.9282C41.539 36.8666 41.8472 36.8049 42.1553 36.7433C42.5866 36.6816 43.018 36.6199 43.4494 36.5583C43.6343 36.5583 43.8808 36.4966 44.0656 36.4966C44.7435 36.435 45.4214 36.3733 46.0993 36.3117C46.1609 36.3117 46.2225 36.3117 46.2841 36.3117C46.5306 36.3117 46.7771 36.3117 47.0236 36.25C47.0852 36.25 47.0852 36.25 47.1469 36.25C47.7631 36.25 48.3794 36.25 48.9956 36.25C49.1805 36.25 49.3654 36.25 49.5502 36.25C50.1049 36.25 50.7211 36.3117 51.2757 36.3117C51.6455 36.3117 52.0152 36.3733 52.385 36.435C52.5698 36.435 52.7547 36.4966 52.9396 36.4966C53.3093 36.5583 53.6791 36.5583 54.0488 36.6199C54.2337 36.6199 54.4186 36.6816 54.6035 36.6816C54.9732 36.7433 55.343 36.8049 55.7127 36.8666C55.8976 36.9282 56.0825 36.9282 56.2673 36.9899C56.6371 37.0516 57.0068 37.1132 57.3766 37.2365C63.6007 38.7163 69.3934 41.7376 74.1385 45.8687C74.3233 46.0536 74.5082 46.2386 74.7547 46.3619C74.8163 46.4236 74.8163 46.4236 74.878 46.4852C75.0012 46.6086 75.1245 46.7319 75.3093 46.8552C75.371 46.9168 75.4326 46.9785 75.4942 47.0402C75.6175 47.1635 75.7407 47.2868 75.9256 47.4101C75.9872 47.4718 76.1105 47.5334 76.1721 47.6567C76.2953 47.7801 76.4186 47.9034 76.4802 48.0267C76.5418 48.0883 76.6035 48.15 76.6651 48.2117C76.7883 48.335 76.9732 48.52 77.0965 48.6433C77.1581 48.7049 77.1581 48.7049 77.2197 48.7666C77.4046 48.9516 77.5278 49.1365 77.7127 49.3215C77.8976 49.5065 78.0208 49.6915 78.2057 49.8764C78.2673 49.9381 78.3906 50.0614 78.4522 50.1847C78.5138 50.308 78.6371 50.3697 78.6987 50.493C78.7603 50.5547 78.7603 50.6163 78.8219 50.6163C79.1917 51.1096 79.5614 51.6029 79.9312 52.0961C80.1777 52.4661 80.4242 52.7744 80.6707 53.1443C80.7939 53.2676 80.8556 53.4526 80.9788 53.5759C81.0404 53.6992 81.1637 53.8225 81.2253 53.9459C81.2869 54.0075 81.2869 54.0692 81.3486 54.1308C81.4102 54.2541 81.5334 54.3775 81.5951 54.5008C81.7183 54.6858 81.7799 54.8091 81.9032 54.994C82.0264 55.179 82.088 55.3023 82.2113 55.4873C82.3962 55.7956 82.5811 56.1039 82.7659 56.4738C82.8276 56.6588 82.9508 56.7821 83.0124 56.9671C83.1973 57.2754 83.3822 57.6453 83.5054 57.9536C83.567 58.1386 83.6903 58.2619 83.7519 58.4469C83.8752 58.7552 84.06 59.0635 84.1833 59.3718C84.2449 59.4334 84.2449 59.4951 84.2449 59.5567C84.3065 59.6801 84.3682 59.8034 84.3682 59.9267C84.4298 60.1117 84.553 60.2966 84.6147 60.5433C84.6763 60.6666 84.6763 60.7899 84.7379 60.8516C84.7995 61.0365 84.8612 61.2215 84.9844 61.4065C85.046 61.6531 85.1693 61.8381 85.2309 62.0847C85.2925 62.1464 85.2925 62.2697 85.2925 62.3313C85.3542 62.5163 85.4158 62.7013 85.4774 62.8863C85.4774 62.9479 85.539 63.0712 85.539 63.1329C85.6007 63.3795 85.6623 63.6262 85.7855 63.8111C85.8472 64.1194 85.9704 64.3661 86.032 64.6744C86.0937 64.8593 86.1553 65.106 86.2169 65.2909V65.3526C86.2169 65.4143 86.2785 65.5376 86.2785 65.5992C86.3402 65.7842 86.3402 65.9692 86.4018 66.1542C86.525 66.5241 86.5867 66.9557 86.6483 67.3256C86.7099 67.5723 86.7715 67.8189 86.7715 68.0655C86.8332 68.2505 86.8332 68.4972 86.8948 68.6821C86.8948 68.7438 86.9564 68.8671 86.9564 68.9288C86.9564 69.0521 87.018 69.2371 87.018 69.3604C87.018 69.4837 87.0797 69.607 87.0797 69.7303C87.0797 69.9153 87.1413 70.1003 87.1413 70.2852C87.2029 70.5319 87.2029 70.7785 87.2029 71.0251C87.2029 71.0868 87.2029 71.0868 87.2029 71.1485C87.2029 71.3334 87.2645 71.5801 87.2645 71.765C87.2645 72.0117 87.3261 72.2583 87.3261 72.5049C87.3261 72.7516 87.3878 72.9982 87.3878 73.2448C87.3878 73.4915 87.3878 73.7381 87.3878 73.9847C87.9424 86.563 82.5194 98.0313 73.399 105.554Z"  stroke-width="1.4" stroke-miterlimit="10" stroke-linecap="round" stroke-linejoin="round"/>
<path d="M16.6424 65.6682C16.8273 68.8744 17.1354 68.4428 17.1354 68.4428C19.9085 70.2309 20.2782 71.7723 20.3399 72.4506C20.3399 72.8822 20.4631 73.3138 20.7096 73.6837C21.0794 74.177 21.5724 74.5469 22.0037 74.7936C22.9281 75.2868 23.7908 75.8417 24.592 76.52C26.5023 78.0614 28.4127 78.3081 28.4127 78.3081L30.0149 78.8013C30.5079 78.9246 30.8777 79.2946 31.1242 79.7879C31.6172 80.9594 32.5415 81.206 33.281 81.206C33.8973 81.206 34.4519 81.6993 34.5752 82.3158C33.8973 83.0557 33.5275 83.8573 33.281 84.5972C32.9729 85.5837 33.2194 86.6936 33.8973 87.5568L35.746 89.7765C37.2866 91.3796 37.4099 92.0578 37.2866 92.3661C37.225 92.6127 37.1634 92.7977 37.1018 93.0443L36.3623 97.9153L34.8217 103.341C34.0205 107.781 35.9925 108.52 35.9925 108.52C37.225 110.74 39.4435 108.582 39.4435 108.582C37.4715 109.075 37.718 106.362 37.718 106.362C38.0261 106.054 38.5191 105.253 38.7656 104.821C38.8889 104.636 38.8273 104.389 38.5808 104.266C37.5331 103.711 39.197 102.91 39.197 102.91V101.43H39.9365L40.183 100.197H40.9841C41.4155 100.197 41.7852 99.95 41.9701 99.5801C42.0934 99.3335 42.0934 99.0868 41.9701 98.8402C40.8609 96.9904 41.5387 97.2371 42.155 97.6687C42.5864 97.977 43.2026 97.9153 43.634 97.4837L45.1746 95.8189L45.5443 94.0309C45.606 93.5993 46.099 93.2293 46.5303 93.2293C47.2082 93.2293 47.8245 93.0443 48.1942 92.8594C48.6256 92.6127 48.9337 92.1811 48.9337 91.6879L49.0569 89.9614C49.1186 89.2832 49.4267 88.7283 49.9197 88.2967C50.6592 87.6184 50.6592 86.5086 50.6592 86.5086L48.8104 85.5221C48.071 85.0904 47.2082 84.9055 46.3455 84.9055C44.62 84.9055 44.9897 83.4873 44.9897 83.4873L44.2502 82.3158C43.8189 81.6376 43.0794 81.2676 42.2782 81.206H41.6004L40.1214 80.2195C38.6424 80.2195 37.5331 79.6029 37.5331 79.6029C36.5471 78.6164 35.5612 79.6029 35.5612 79.6029C33.4659 81.8226 32.1102 78.1847 32.1102 78.1847L30.5079 76.5816C30.8777 74.8552 29.0289 76.4583 29.0289 76.4583C26.4407 77.0749 27.3651 73.3754 27.3651 73.3754C27.6116 71.5873 29.6452 71.7723 31.0626 72.0806C31.8637 72.2656 32.788 72.0806 33.4043 71.464C33.774 71.0941 34.2054 70.7241 34.5752 70.4158C34.9449 70.0459 35.1914 69.6143 35.1914 69.0594C35.1914 68.1345 35.9925 67.5796 36.6704 67.2713C37.4099 66.9013 38.0878 66.3464 38.704 65.7298L38.9505 65.4215C39.8133 64.3733 42.0934 64.3734 43.3875 64.435C43.8189 64.435 44.1886 64.0034 44.0654 63.5718L42.9561 60.1806L41.0457 57.5293C40.3062 56.5428 39.2586 55.8645 38.0261 55.6179L37.718 55.5563C33.5892 51.0552 35.0065 56.9127 35.0065 56.9127L34.0822 58.2692C33.5892 59.0091 32.5415 59.2557 31.7404 58.7625L30.3231 57.8993C28.1046 57.1594 28.5359 53.4599 28.5359 53.4599L29.3987 52.535C29.7068 52.2267 30.1998 52.1034 30.5696 52.2884L32.3567 53.0899C32.7264 53.2749 33.2194 52.9666 33.2194 52.535V51.9801C33.2194 51.3635 33.0345 50.6853 32.6648 50.192L31.2474 48.0956L29.0289 46.9241C28.6592 46.7392 28.1662 46.9241 28.0429 47.2941C27.7964 47.9723 27.1186 48.3423 26.3791 48.2806L23.2362 47.9723L21.0794 47.2941C17.8749 50.4386 15.1634 54.1381 13.1914 58.2075C13.9309 59.2557 14.6704 60.3656 15.2866 61.3521C16.0878 62.7086 16.5808 64.1267 16.6424 65.6682Z"  stroke-width="1.4" stroke-miterlimit="10" stroke-linecap="round" stroke-linejoin="round"/>
<path d="M39.8752 38.4754C40.6763 38.5988 41.3542 39.092 41.7856 39.7703C42.4018 40.8184 43.1413 42.2366 42.7716 43.0381L43.0797 46.3677L43.5727 48.2174C43.5727 48.2174 44.0657 54.5065 46.8388 55.2464C47.1469 55.3081 47.5167 55.1848 47.6399 54.8765L48.8724 51.9785C49.1189 51.4853 49.5503 51.0537 50.0433 50.992C50.5363 50.8687 51.2141 50.4988 51.892 49.3889C52.2001 48.9573 52.6315 48.5874 53.1861 48.5257C54.0489 48.4024 55.4662 47.7241 55.8976 44.8262L56.8836 42.6065C57.315 41.5583 57.5615 40.4485 57.4999 39.3386L57.4382 37.3656C52.2618 36.1324 46.7772 35.9475 41.231 36.9956C40.1217 37.1806 39.0125 37.4273 37.9648 37.7355C38.4578 38.0438 39.0741 38.3521 39.8752 38.4754Z"  stroke-width="1.4" stroke-miterlimit="10" stroke-linecap="round" stroke-linejoin="round"/>
<path d="M82.826 79.8474C82.4563 79.7857 82.0249 79.7857 81.4086 79.8474C80.6692 79.909 79.9297 79.5391 79.4983 78.8608L77.7728 76.0246L76.7252 73.7432C76.4787 73.1266 75.9857 72.6334 75.3694 72.3867L73.6439 71.5852C73.0277 71.2769 72.2882 71.3386 71.7336 71.7085C71.3638 71.9551 70.686 72.0168 69.5767 71.4002C69.5767 71.4002 68.5907 71.4002 68.1593 70.5987C67.7896 69.8588 66.9885 69.4888 66.1874 69.4272L63.4142 69.2422L61.9353 70.2287L60.826 70.5987L60.4563 72.4484C60.4563 72.4484 56.2658 75.593 57.9297 79.1691C57.9297 79.1691 59.2238 82.622 62.0585 82.3137C62.0585 82.3137 67.4815 81.3888 66.8652 82.8686L68.5291 87.1847C68.5291 87.1847 69.5151 87.6779 68.714 89.836C68.5291 90.3909 68.4675 91.0691 68.6523 91.624L69.8848 95.6935C69.8848 95.6935 70.686 99.393 72.4731 98.0365C72.4731 98.0365 75.4311 97.7898 75.8008 95.7551L76.7868 93.7821L77.1565 91.6857L78.2658 90.9458C78.8204 90.5759 79.0669 89.9593 78.9437 89.3427C78.6972 88.1712 78.6355 86.2598 79.9913 85.2116L83.1958 81.2038C83.7504 80.7106 83.4423 79.9707 82.826 79.8474Z"  stroke-width="1.4" stroke-miterlimit="10" stroke-linecap="round" stroke-linejoin="round"/>
<path d="M78.8216 50.7468C77.4043 49.0204 75.8636 47.4173 74.1998 45.9375C74.1382 45.9992 74.0149 45.9992 73.9533 46.0608L71.4267 47.9106C70.3174 48.7121 69.4547 49.6986 68.7768 50.8701L67.3594 53.4598C64.8945 55.8028 67.2978 57.4059 67.2978 57.4059L66.6816 59.8722L65.5723 61.352L64.2782 60.2422C63.7852 59.8106 63.5387 59.194 63.5387 58.5774V56.481C63.5387 55.9878 63.0457 55.6795 62.6143 55.8644C61.69 56.296 61.4435 57.0359 61.4435 57.6525C61.3818 58.3308 61.1353 58.9473 60.704 59.5023C58.9169 61.537 62.3062 61.4137 62.3062 61.4137L62.5527 63.6334L63.2922 65.2981C63.4771 65.6681 63.169 66.0997 62.7376 66.0997L61.8748 66.038C61.1353 65.9764 60.4575 66.5313 60.3342 67.2712L60.2726 67.7028C60.1494 68.2577 60.704 68.8126 61.2586 68.6893L63.6003 68.196C63.9085 68.1344 64.2166 67.9494 64.3398 67.6411C64.8328 66.8396 65.5723 66.1613 66.4351 65.7914L67.4211 65.3598L67.8524 65.2365C68.7152 64.9898 69.6396 65.2981 70.2558 65.9764L70.9337 66.7779C71.365 67.2712 72.1045 67.4562 72.7824 67.2095L74.323 66.6546L75.5555 64.8049L77.281 64.5582C81.9029 67.7028 78.0205 67.0245 78.0205 67.0245H77.0961C76.3566 67.0245 75.6171 67.3328 75.1241 67.9494L74.6928 68.4427C74.5079 68.6893 74.6311 69.0593 74.9393 69.1209L76.6648 69.3675C76.9729 69.4292 77.2194 69.6758 77.2194 69.9841L77.3426 72.3888C77.4043 73.1287 77.6508 73.8686 78.0205 74.4235L79.9309 77.0748C80.4855 77.8764 81.3482 78.308 82.2726 78.3696L83.3819 78.4313C84.1213 78.4929 84.8608 78.123 85.3538 77.5681L85.9085 76.8898C86.2166 76.5199 86.2166 75.965 85.8468 75.6567L85.0457 74.7935C84.7376 74.4852 84.2446 74.3002 83.7516 74.4852C83.4435 74.5468 83.197 74.4235 83.0737 74.1152L82.6424 72.6971C82.5807 72.4505 82.8272 72.2038 83.0737 72.3271L84.9225 73.3137C85.3538 73.5603 85.8468 73.7453 86.2782 73.8686L87.4491 74.2385C87.3874 72.2038 87.2026 70.1691 86.7712 68.1344C85.662 62.0302 83.1353 56.481 79.6227 51.8567"  stroke-width="1.4" stroke-miterlimit="10" stroke-linecap="round" stroke-linejoin="round"/>
<path d="M49.6094 16.707V32.7381V36.2526"  stroke-width="1.4" stroke-miterlimit="10" stroke-linecap="round" stroke-linejoin="round"/>
<path d="M44.1875 28.7305L49.6105 31.5667"  stroke-width="1.4" stroke-miterlimit="10" stroke-linecap="round" stroke-linejoin="round"/>
<path d="M59.4713 15.2899C56.2052 17.2013 55.2192 20.1609 54.9727 21.764C54.8495 22.4422 55.2192 23.1205 55.8971 23.3671C57.4377 23.922 60.4573 24.6002 63.7234 22.6888C66.8663 20.9008 68.4069 17.8179 69.0847 15.9681C69.3929 15.1049 68.8382 14.18 67.9755 14.0567C66.0651 13.6868 62.6142 13.5018 59.4713 15.2899Z"  stroke-width="1.4" stroke-miterlimit="10" stroke-linecap="round" stroke-linejoin="round"/>
<path d="M39.6877 21.4549C36.5449 19.6668 33.1555 19.8517 31.1835 20.16C30.3208 20.2834 29.7662 21.2082 30.0743 22.0714C30.7522 23.9212 32.2928 27.0041 35.4356 28.7922C38.7017 30.7036 41.7213 30.0253 43.2619 29.4704C43.9398 29.2238 44.3096 28.5455 44.1863 27.8673C43.9398 26.3258 42.9538 23.3663 39.6877 21.4549Z"  stroke-width="1.4" stroke-miterlimit="10" stroke-linecap="round" stroke-linejoin="round"/>
<path d="M50.7168 0.922741C50.1622 0.244503 49.1146 0.244503 48.4983 0.922741C47.2658 2.46419 45.3555 5.30046 45.3555 8.93829C45.3555 12.7611 47.4507 15.0424 48.6832 16.0906C49.2378 16.5222 49.9773 16.5222 50.5319 16.0906C51.7644 15.0424 53.8597 12.7611 53.8597 8.93829C53.8597 5.36212 52.0109 2.46419 50.7168 0.922741Z"  stroke-width="1.4" stroke-miterlimit="10" stroke-linecap="round" stroke-linejoin="round"/>
<path d="M54.91 22.875L49.6719 24.9097"  stroke-width="1.4" stroke-miterlimit="10" stroke-linecap="round" stroke-linejoin="round"/>
<path d="M79.6845 109.382L73.7685 112.65L70.5024 118.569L67.2363 112.65L64.5248 111.109L61.3203 109.382L67.2363 106.176L70.5024 100.195L73.3987 105.56L73.7685 106.176L79.6845 109.382Z"  stroke-width="1.4" stroke-miterlimit="10" stroke-linecap="round" stroke-linejoin="round"/>
<path d="M2.65208 37.7323C3.87732 37.7323 4.87057 36.7386 4.87057 35.5127C4.87057 34.2868 3.87732 33.293 2.65208 33.293C1.42684 33.293 0.433594 34.2868 0.433594 35.5127C0.433594 36.7386 1.42684 37.7323 2.65208 37.7323Z"  stroke-width="1.4" stroke-miterlimit="10" stroke-linecap="round" stroke-linejoin="round"/>
<path d="M14.9167 26.8217L16.7038 23.4922L18.5526 26.8217L21.8803 28.6715L18.5526 30.5212L16.7038 33.8507L14.9167 30.5212L11.5273 28.6715L14.9167 26.8217Z"  stroke-width="1.4" stroke-miterlimit="10" stroke-linecap="round" stroke-linejoin="round"/>
</g>
<defs>
<clipPath id="clip0_3003:14258">
<rect width="88" height="119" fill="none"/>
</clipPath>
</defs>
</svg>
