<svg width="16" height="16" viewBox="0 0 16 16" fill="none" xmlns="http://www.w3.org/2000/svg">
<path d="M8 0C12.4187 0 16 3.58125 16 8C16 12.4187 12.4187 16 8 16C3.58125 16 0 12.4187 0 8C0 3.58125 3.58125 0 8 0ZM8 15C8.52188 15 9.2625 14.55 9.93437 13.2094C10.2437 12.5906 10.5031 11.8156 10.6594 11H5.3125C5.49688 11.8156 5.75625 12.5906 6.06563 13.2094C6.7375 14.55 7.47812 15 8 15ZM5.13438 10H10.8656C10.9531 9.36875 11 8.69687 11 8C11 7.30313 10.9531 6.63125 10.8656 6H5.13438C5.04688 6.63125 5 7.30313 5 8C5 8.69687 5.04688 9.36875 5.13438 10ZM10.6594 5C10.5031 4.15625 10.2437 3.40938 9.93437 2.79031C9.2625 1.44906 8.52188 1 8 1C7.47812 1 6.7375 1.44906 6.06563 2.79031C5.75625 3.40938 5.49688 4.15625 5.3125 5H10.6594ZM11.8469 6C11.9563 6.64062 12 7.30937 12 8C12 8.69063 11.9563 9.35938 11.8469 10H14.7094C14.9 9.36563 15 8.69375 15 8C15 7.30625 14.9 6.63437 14.7094 6H11.8469ZM10.2344 1.36437C10.8906 2.24969 11.4094 3.5125 11.7094 5H14.325C13.5187 3.29688 12.0406 1.9725 10.2344 1.36437ZM5.76562 1.36437C3.95938 1.9725 2.4825 3.29688 1.67375 5H4.29063C4.59063 3.5125 5.10938 2.24969 5.76562 1.36437ZM1 8C1 8.69375 1.10125 9.36563 1.29 10H4.125C4.04375 9.35938 4 8.69063 4 8C4 7.30937 4.04375 6.64062 4.125 6H1.29C1.10125 6.63437 1 7.30625 1 8ZM14.325 11H11.7094C11.4094 12.4875 10.8906 13.75 10.2344 14.6344C12.0406 14.0281 13.5187 12.7031 14.325 11ZM4.29063 11H1.67375C2.4825 12.7031 3.95938 14.0281 5.76562 14.6344C5.10938 13.75 4.59063 12.4875 4.29063 11Z" fill="white"/>
</svg>
