<svg width="24" height="24" viewBox="0 0 24 24" fill="none" xmlns="http://www.w3.org/2000/svg">
<path d="M19.814 8.13139H14.684L19.2971 2.30273C19.3926 2.17931 19.3064 2 19.1504 2H10.2199C10.1547 2 10.0919 2.03493 10.0592 2.09315L4.02567 12.5139C3.95348 12.6374 4.04197 12.7934 4.18634 12.7934H8.24754L6.16571 21.1207C6.12147 21.3023 6.34036 21.4304 6.47543 21.3L19.9421 8.45042C20.0632 8.33631 19.9817 8.13139 19.814 8.13139ZM8.87396 16.822L9.96721 12.4526C10.1251 11.8214 9.64776 11.2099 8.99711 11.2099H6.61282L11.028 3.58582H16.2582L12.6895 8.09678C12.1708 8.7524 12.6378 9.71721 13.4738 9.71721H16.321L8.87396 16.822Z" fill="#333333"/>
</svg>
