<svg xmlns="http://www.w3.org/2000/svg" width="295.012" height="328.41" viewBox="0 0 295.012 328.41">
  <g id="Raggruppa_1502" data-name="Raggruppa 1502" transform="translate(-1007.785 -759.931)">
    <g id="Raggruppa_1500" data-name="Raggruppa 1500" transform="translate(1009.168 761.001)">
      <path id="Tracciato_1445" data-name="Tracciato 1445" d="M115.441,228.126c1.237,2.78-.522,4.987-1.889,6.822-1.015,1.363-3.367,1.74-5.136,2.529a8.447,8.447,0,0,0-2.277.941,4.349,4.349,0,0,1-4.28,1.225c-.3-.076-.844-.105-.933.045-1.038,1.761-2.254.727-3.33.177-1.133-.579-2.423-.594-3.337-1.984-1.341-2.041-3.394-3.6-5.005-5.483-1.034-1.208-1.811-2.633-2.726-3.946a7.449,7.449,0,0,0-.751-.79c-.834-.882-1.681-1.753-2.494-2.655a30.488,30.488,0,0,1-2.093-2.477,4.732,4.732,0,0,1-.9-1.889,6.649,6.649,0,0,1,.259-1.974A5.662,5.662,0,0,1,82,219.821c.867,1.375,1.849.913,3.013.494,2.67-.96,5.487-1.572,8.048-2.754,1.436-.663,2.49-2.167,3.689-3.32.145-.139.123-.453.178-.685-.285.061-.722.026-.83.2-.677,1.084-1.623.92-2.69.843-1.45-.105-2.931-.246-3.971,1.352-.278.428-1.741.519-2.38.2A48.733,48.733,0,0,1,79.783,212c-2.128-1.566-4.359-3.335-4.055-6.542.009-.094-.353-.34-.5-.31a6.867,6.867,0,0,1-1.474.419,5.44,5.44,0,0,1-1.535-.546,4.054,4.054,0,0,0,.8-.792,1.856,1.856,0,0,0,.19-1.018c-.138-1.713.7-2.236,2.264-1.94.446.085.893.187,1.344.231,1.52.147,2.468-.409,2.218-2.081-.268-1.8.4-2.091,1.967-1.493,1.126.428,2.532-.021,3.472,1.11.1.125.622.035.863-.1,1.38-.792,2.317-1.059,3.814.389.97.938,3.3.477,5.018.625.072.006.236-.175.231-.262-.2-3.5,3.187-1.068,4.2-2.55.175.243.5.481.5.729A1.963,1.963,0,0,0,101.2,199.9c.424.029.909-.381,1.309-.668.18-.129.242-.659.328-.652,2.249.184,1.191-1.459,1.17-2.309-.026-1.09.946-2.38-.486-3.3a.962.962,0,0,1-.253-.881c.781-1.986-.59-3.11-1.59-4.476-.825-1.126-1.826-2.393-.569-3.94.1-.125-.287-.936-.577-1.032a6,6,0,0,0-1.739-.051,3.957,3.957,0,0,1-3.394-5.044,9.423,9.423,0,0,0,.717-2.221c.178-1.414.825-3.031-1.766-3.159-1.324-.065-2.619-.928-3.908-1.476a2.482,2.482,0,0,1-.728-3.577c1.649-1.829,2.514-4.309,4.719-5.659.163-.1.446-.249.436-.353-.23-2.418,2.343-2.814,3.263-4.444.443-.783,1.78-1.2,2.794-1.455.409-.1,1.352.574,1.5,1.064.3.98.119,2.1.335,3.117a2.227,2.227,0,0,0,1.013,1.493c.376.146,1.179-.309,1.542-.719a6.081,6.081,0,0,1,5.724-1.66c2.058.7,3.161.093,4.045-1.856a10.027,10.027,0,0,1,1.97-2.333c.436-.472,1.3-.867,1.331-1.334a4.9,4.9,0,0,1,1.724-3.87c.715-.6.576-1.407,2.234-1.241,1.466.147,3.321-1.98,4.729-3.38a19.676,19.676,0,0,0,2.716-4.025,4.622,4.622,0,0,0,.515-1.821c.246-2.227.923-4,3.555-4.309a5.53,5.53,0,0,0,2.314-.983,1.687,1.687,0,0,0,.685-1.372c-.531-1.971.966-2.854,1.949-4.037.708-.852,1.287-1.827,2.067-2.6a31.937,31.937,0,0,1,2.638-2.092c.385-.311.726-.678,1.086-1.02-.326-.138-.832-.193-.94-.43a4.6,4.6,0,0,1-.274-1.549c-.075-1.011.175-2.156-.219-3.01-.669-1.445-.553-2.9.96-3.644,1.851-.911,3.4-2.6,5.832-2.207.478.077,1.546-.911,1.591-1.469.046-.574-.7-1.47-1.321-1.788-1.473-.753-3.161-1.1-4.581-1.926-.474-.275-.559-1.5-.53-2.285.031-.839.553-1.245-.954-.968-1.329.245-2.946-.622-4.323-1.247-1.209-.549-2.184-1.621-3.4-2.141-1.558-.666-1.852-1.7-1.806-3.241.058-2.034-.189-4.077-.266-6.117-.024-.63.175-1.278.1-1.9a12.146,12.146,0,0,0-.579-2.3,14.577,14.577,0,0,1-.867-2.28c-.157-1.086-.3-2.254,1.631-1.7.9.255,2.19.038,1.686-1.679-.41-1.4.771-1.345,1.624-1.561,1.948-.492,3.08-1.815,2.817-3.376-.159-.946-.412-1.782-1.791-1.266a2.122,2.122,0,0,1-1.9-.3c-.344-.39-.147-1.284-.135-1.957.009-.547.1-1.092.147-1.637-.452.145-.9.293-1.357.437a2.449,2.449,0,0,1-3.369-1.423,12.318,12.318,0,0,1-.643-1.839c-.315-1.226-.815-1.492-2.057-.87a2.745,2.745,0,0,1-3.985-2.647c.038-.586.838-1.125,1.3-1.679a8.3,8.3,0,0,0,1.552-1.908c.464-1.169,4.543-4.822,5.684-4.584a16.4,16.4,0,0,1,2.816,1.294,5.425,5.425,0,0,0,1.251.22,11.3,11.3,0,0,0-.194-1.412,6.421,6.421,0,0,0-.477-1.059c.435-.093.966-.395,1.289-.245,1.665.766,2.874-.012,4.239-.853,1.675-1.034,3.473-1.949,5.166.276.212.278,1.689-.252,2.483-.617a19.184,19.184,0,0,0,2.455-1.586c.451.8.862,1.619,1.362,2.384.4.606.911,1.135,1.357,1.711,1.043,1.344,1.992,2.773,3.141,4.019.82.89,1.525,2.52,3.279,1.278.107-.076.733.255.74.415.082,1.646,1.422,1.63,2.469,2.193.6.321.8,1.549.989,2.411.166.758-.171,2.132.131,2.26a5.051,5.051,0,0,0,3.134.409c2.573-.753,3.057-.492,3.459,2.181a2,2,0,0,0,1.658.994,60.642,60.642,0,0,0,8.406-3.91c1.287-.775,2.155-1.415,3.633-.64,1.1.577,2.352,1.06,2.818-.95.071-.3,1.485-.606,2.1-.4.811.274,1.428,1.09,2.171,1.612.472.332,1.079.847,1.521.759.7-.139,1.212-1.2,1.956.1,1.152,2.007,4.392,3.113,2.585,6.347a10.049,10.049,0,0,0-1.057,2.511,2.748,2.748,0,0,0,.183,1.917c.872,1.372.21,1.9-1,1.861-1.571-.056-2.3.231-1.959,2.044.161.868-.431,1.464-1.507.767a1.881,1.881,0,0,0-1.539-.161c-.249.109-.262.9-.267,1.385a19.152,19.152,0,0,1,.115,2.124c-.25,1.963-1.405,2.475-3.156,1.617a4.332,4.332,0,0,0-2.147-.387c-.4.03-.75.608-1.123.94a12.533,12.533,0,0,1,.965.927c.247.289.668.74.584.949-.357.9-.662,2.047-1.375,2.514-1.32.867-.021,1.562-.082,2.305-.018.227.637.671,1.031.74a30.413,30.413,0,0,1,3.222.391c.329.095.7,1.165.54,1.6a1.668,1.668,0,0,0,.5,2.254,3.794,3.794,0,0,1,.638,4.427c-.127.273-.666.639-.832.563-1.631-.745-2.4.416-3.351,1.341a8.512,8.512,0,0,1-1.944,1.217c-.178.1-.651.041-.675-.038-.329-1.1-.615-2.207-.88-3.323a4.421,4.421,0,0,1-.032-.9,4.013,4.013,0,0,1-.853.475c-2.181.6-2.044,2.447-2.2,4.1a1.071,1.071,0,0,0,.525.88c2.287.541,3.09,1.763,2.606,3.966a1.944,1.944,0,0,0,.176,1.424c.75.97.482,1.641-.365,2.315-1.011.8-.808,1.515.226,2.123.278.164.675.279.8.526.607,1.226.989.78,1.49-.088,1.262-2.185,1.322-2.2,2.7-.055a14.9,14.9,0,0,1,.8,2.184,2.669,2.669,0,0,0,3.342,1.866,4.108,4.108,0,0,1,3.218,1.014c.913.954,3.2,1.148,2.412,3.371-.019.054.395.306.633.393.387.143,1.12.179,1.144.342.2,1.387.936,1.007,1.806.725a1.861,1.861,0,0,1,1.426.188,27.69,27.69,0,0,1,2.608,2.1c.564.486.972.923-.145,1.355-.6.231-1.039.858-1.574,1.276-.478.373-.983.71-1.484,1.052-.277.189-.835.406-.813.524.257,1.355-.478,1.506-1.546,1.47a1.083,1.083,0,0,0-.8.629c-.572,1.874-1.1,3.763-1.577,5.664-.3,1.225.214,2.758-1.42,3.465-.1.042-.033.951.13,1.015,1.483.586,2.288,2.869,4.462,1.819.153-.073.855.446.859.7.02,1.32.974,1.352,1.867,1.539a24.484,24.484,0,0,1,2.847.67,4.743,4.743,0,0,1,2.022,1.086,9.326,9.326,0,0,1,1.138,2.311c1.272-.86,1.244.946,1.54.9,1.838-.264,2.36,3,4.653,1.614.45-.271,1.591.627,2.423.962,1.4.566,2.52,2.258,4.405,1.1.129-.079.99.6,1.128,1.048.555,1.782,1.727,2.3,3.45,2.036a1.64,1.64,0,0,1,1.133.148c1.133.895,1.883.8,2.471-.608.08-.193.949-.123,1.439-.063,1.053.13,2.18.907,2.8-.842.117-.329,1.595-.384,2.37-.217a12.993,12.993,0,0,1,3.4,1.278,2.965,2.965,0,0,1,1.44,1.623c.4,1.717,1.134,2.858,3.035,3.006a1.743,1.743,0,0,1,1.19.6c1.166,1.759,2.794,1.408,4.21.738,1.477-.7,1.978.12,2.273,1.123.439,1.494,1.221,1.673,2.552,1.191a9.856,9.856,0,0,1,2.482-.366,1.17,1.17,0,0,1,.84.231c2.036,2.058,2.856,2.238,5.187.652.928-.633,1.336-1.076,1.747.42.113.413,1.363.858,1.967.725,1.752-.386,3.614.425,5.378-.66.314-.193,1.988.726,2.173-.56.237-1.656.4-3.671-.321-5.044-1.624-3.072-1.035-5.883.091-8.758.3-.77.738-1.24-.143-1.943-.79-.631-.784-1.284.44-1.6a5.117,5.117,0,0,0,2.2-1.049,2.517,2.517,0,0,1,3.621-.23,2.685,2.685,0,0,1,1.1,3.412c-.543,1.448-1.254,2.611-.157,4.288.449.687-.381,2.3.65,3.256,1.056.979,2.152,1.916,3.252,2.845a.536.536,0,0,0,.512-.08c1.31-2.366,2.131.167,3.181.31.8.11,1.716.533,2.391.29,1.684-.6,3.251-1.529,4.887-2.277.329-.151.975-.269,1.1-.11,1.393,1.8,3.352,1.038,4.781.621,1.7-.494,3.782.624,5.117-1.2,1.447,1.053,2.293-.243,3.333-.83a1.178,1.178,0,0,1,.762-.054c.656.146,1.3.347,1.947.526a16.467,16.467,0,0,1-.744-2.1,3.3,3.3,0,0,1-.085-2.021c.754-1.338.06-1.936-.947-2.452a7.063,7.063,0,0,0-1.656-.56c-2.367-.535-2.933-1.228-2.8-3.646.01-.175.512-.512.677-.456.482.163.885.554,1.364.731.515.19,1.287.521,1.592.3,1.392-1.006,2.539-2.366,4.543-1.027.479.32,2.322-2.273,2.283-3.053a1.82,1.82,0,0,1,.339-1.086c.46-.622.969-1.614,1.544-1.677,2.3-.253,2.5-1.843,2.993-3.591.364-1.3,1.68-1.628,3.149-1.832,1.581-.219,3.318-.6,4.422-2.292a66.62,66.62,0,0,1,4.734-6.038c.113-.135.951.06,1.167.33,1.523,1.9,3.823,1.7,5.842,2.1.5.1,1.516-.826,1.791-1.489.9-2.183,3.209-2.285,4.775-3.454.2-.15.861.138,1.2.379.76.547,2.044,1.205,2.03,1.792-.02.839-1.057,1.628-1.56,2.5a3.506,3.506,0,0,0-.18,1.268c.3-.238.6-.486.91-.713.54-.394,1.088-.775,1.633-1.162a9.028,9.028,0,0,1,1.186,1.845c.516,1.5-.1,2.736-1.053,3.935a5.723,5.723,0,0,0-.591,2.041,6.957,6.957,0,0,0,2.123-.4c.911-.494,1.6-1.076,2.446.136.226.323,1.092.358,1.627.276,2.782-.428,4.972,1.528,4.295,4.193-.224.881-1.52,1.49-2.322,2.227-1.994,1.834-2.015,2.261-.213,4.242.044.048.118.085.133.14.274.968.542,1.938.811,2.907-1.021-.342-2.3-.414-3.006-1.086-1.114-1.062-1.864-.853-3.221-.437-3.756,1.151-5.447,4.69-8.352,6.807-1.137.829-1.983,2.228-3.4,3.034a2.611,2.611,0,0,0-.633,2.482c1.512,2.934.456,5.757-.175,8.551-.212.941-1.255,1.746-2.03,2.5-1.567,1.523-1.568,2.469-.358,4.319a3.266,3.266,0,0,1-.028,2.478c-1.048,2.927-2.272,5.791-3.372,8.7a23.373,23.373,0,0,0-.678,2.683,27.329,27.329,0,0,1-3.072-1.029c-.915-.424-1.639-.65-2.4.268a1.586,1.586,0,0,1-1.206.325,3.948,3.948,0,0,1-1.172-.518,10.4,10.4,0,0,1,.843,1.291,4.71,4.71,0,0,1,.694,1.973c-.115,2.3-.591,4.559-.044,6.893.119.5-.613,1.573-1.189,1.81-1.76.722-2.144,1.438-1.569,3.381.5,1.683.769,3.432,1.265,5.116.577,1.955-.5,3.5-1.125,5.15-.379,1-1.027,1.4-1.766.29-.691-1.039-.94-.588-1.25.244-.081.218-.469.323-.717.48-.139-.327-.49-.815-.384-.955.833-1.1,0-1.936-.328-2.869a2.906,2.906,0,0,1-.245-1.5c.574-2.347-.358-4.278-1.546-6.161-.137-.217-.455-.529-.4-.631,1.493-2.632-1.1-4.468-1.324-6.782-.272-2.739-1.222-3.347-3.173-2.612-.226.086-.608.272-.6.388.165,2.172-1.738,4.077-.74,6.433.2.462-.867,1.458-1.349,2.207-.635-.511-1.282-1.009-1.9-1.543-.128-.112-.107-.379-.212-.536-.236-.355-.507-.685-.764-1.025a6.224,6.224,0,0,1-.054,1.077,5.5,5.5,0,0,1-.391.953c-.243-.25-.607-.462-.7-.759-.154-.485-.086-1.035-.191-1.542a13.481,13.481,0,0,0-.829-3.383c-1.315-2.579-1.354-4.407.815-6.367a9.151,9.151,0,0,1,4.6-2.181c1.058-.149.963-.464.953-1.062-.015-.847.03-1.492,1.134-1.664.39-.061.739-.763.992-1.234a9.668,9.668,0,0,0,.724-1.839c.116-.4.274-.976.086-1.226-.558-.737-.613-.674.246-1.16a6.49,6.49,0,0,0,.837-.667c-.208-.239-.389-.647-.632-.689-1.264-.217-2.662-.743-3.792-.411-2.321.683-4.419-.222-6.612-.295a15.685,15.685,0,0,0-5.922.708c-2.083.787-3.746-.36-5.607-.4-.657-.014-1.317-.006-1.97-.068-.421-.04-.992-.063-1.2-.328a1.276,1.276,0,0,1-.021-1.219,1.763,1.763,0,0,0-.1-2.593,1.514,1.514,0,0,1-.27-1.278c.7-1.886-.26-3.408-.989-4.976-.116-.25-.49-.38-.745-.565a5.407,5.407,0,0,1-.161.8c-.245.686-.47,1.9-.8,1.932a3.3,3.3,0,0,1-2.3-.749c-1.029-.929-1.792-2.146-2.737-3.179-.242-.265-.746-.292-1.13-.427a8.2,8.2,0,0,0,.45.876c.79,1.181-.251.679-.678.752-.506.086-1.7-.3-.626.907.13.146.073.458.1.693-.285-.055-.7-.012-.829-.184-.343-.451-.52-1.025-.842-1.5a8.97,8.97,0,0,0-1.52-1.9c-.37-.306-1.038-.254-1.572-.362a5.14,5.14,0,0,1,1,.965,1,1,0,0,1-.066.946c-.451.448-1.1.7-1.54,1.154-1.849,1.933-1.828,3.7.221,5.345,1.357,1.089,1.909,3.812,4.592,2.5.353,1.351,1.74,1.619,2.514,2.506a3.519,3.519,0,0,1-1.306,1.446,8.932,8.932,0,0,1-2.618.441,1.489,1.489,0,0,0-1.569,1.737c.006.859-.088,1.851-1.5,1.789-.376-.017-.988.666-1.141,1.14-.577,1.783.829,2.8,1.745,3.981a1.818,1.818,0,0,0,2.567.56,1.448,1.448,0,0,1,1.307.2c1.048.933.871,4.084-.2,4.954-1.094.893-.74,3.026.795,3.809.993.507,1.357.983,1.11,2.113-.071.325.712.841,1.109,1.264.359.383,1.111.9,1.032,1.117-1.289,3.618-.185,6.968,1.111,10.265.668,1.7,1.08,3.292.316,5.071-.2.458.069,1.114.124,1.678.037.386.077.773.116,1.16-.392-.2-1.017-.307-1.14-.614-1.047-2.629-2.033-3.669-4.137-.624-.886,1.283-2.1.541-2.508-1.4-.105-.5-.248-.984-.373-1.476a5.891,5.891,0,0,0-.912,1.218c-1.489,3.679-4.767,3.827-8.011,4.473-1.263.251-2.372,1.867-3.254,3.079-.244.335.423,1.591.949,2.175a3.264,3.264,0,0,1-.356,4.579c-.7.593-2.541,1.032-.778,2.506a2.912,2.912,0,0,1-.606,1.07c-2.52,2.83-5.061,5.622-9.207,5.995a4.055,4.055,0,0,0-1.773.778c-1.053.715-2.034,1.525-2.071-.7,0-.11-.409-.334-.44-.3q-1.4,1.315-2.75,2.688a.616.616,0,0,0,.233.372c1.135.581,1.355,1.146.285,1.679-4.6,2.3-5.927,7.494-9.629,10.545-.183,2.661-2.719,2.424-4.244,3.413-1.564,1.014-2.909,2-3.093,4.164-.174,2.038-2.763,4.229-4.813,4.537-.064.01-.148-.017-.192.015-2.1,1.531-4.24,3.006-6.239,4.656-.353.292-.222,1.34-.1,2,.465,2.611-.273,3.657-2.774,4.486a11.274,11.274,0,0,1-7.014.39c-.33-.1-1.049.358-1.265.74-1.121,1.973-2.111,4.019-3.208,6.005-.259.47-.818,1.18-1.123,1.126-.507-.09-.88-.769-1.381-1.09s-1.165-.806-1.645-.7a10.329,10.329,0,0,0-2.851,1.213c-1.8,1.037-3.534,6.165-3.077,8.182.473,2.082,1.535,4.7.728,6.253-1.405,2.7.5,4.108,1.039,6.056a14.625,14.625,0,0,1,.4,1.708c.148,1,.161,1.861-1.174.817-.188-.147-.553-.066-.835-.091.2.2.395.419.616.6,1.5,1.214,2.27,2.609,1.464,4.6a8.041,8.041,0,0,0-.274,2.294,7.521,7.521,0,0,0,0,1.164c.124,1.681-2.155,1.834-2.165,3.681a6.9,6.9,0,0,1-1.715,3.853c-2.067,2.549-1.863,5.277-1.171,8.149a6.191,6.191,0,0,1,.189,1.343c.041,3.055.046,6.111.1,9.166.013.815-.065,1.234-1.115,1.318a18.561,18.561,0,0,0-4.664,1,2.341,2.341,0,0,0-1.338,1.747,3.587,3.587,0,0,1-1.651,3.3,6.451,6.451,0,0,0-1.321,1.418c-1.1,1.732-.291,3.242,1.773,3.393a15.385,15.385,0,0,1,2.679.225c.318.082.472.8.7,1.233a3.109,3.109,0,0,1-1.166.025,8.742,8.742,0,0,0-6.29.073,30.066,30.066,0,0,1-3.8.86,5.118,5.118,0,0,0-3.851,6.149,1.433,1.433,0,0,1-.536,1.234c-1.791,1.007-3.625,1.942-5.486,2.814a3.471,3.471,0,0,1-1.863.312c-4.281-.624-7.028-3.432-9.7-6.559-1.148-1.343-2.671-2.362-3.186-4.161-.537-1.874-.991-3.772-1.472-5.662-.252-.993-.448-2-.731-2.982-.932-3.228-1.855-6.46-2.855-9.667-.544-1.748-1.2-3.465-1.875-5.166-.614-1.537-1.324-3.035-2.01-4.543a2.32,2.32,0,0,0-.521-.782c-1.532-1.35-3.108-2.651-4.612-4.032-.284-.261-.3-.81-.456-1.219-.67-1.745-1.7-3.437-1.947-5.239-.489-3.526-3.074-6.594-2.116-10.462.189-.761-.761-1.807-1.193-2.719-.559-1.182-1.345-2.077-1.166-3.744.175-1.637-1.084-3.371-2.17-4.888a30.743,30.743,0,0,1-2.882-4.892c-1.272-2.73-1.935-5.832-3.6-8.275-2.534-3.725-2.352-8.017-3.372-12.04-.507-2-.142-4.219-.556-6.26a31.161,31.161,0,0,0-1.918-5.046c-.021-.054-.138-.1-.13-.13.614-2.485-1.642-4.292-1.59-6.552.027-1.179.945-2.324,1.381-3.512a5.26,5.26,0,0,0,.113-1.421,4.568,4.568,0,0,0-1.216.711,7.067,7.067,0,0,0-.806,1.441c-.1-.607-.239-1.211-.276-1.821a2.878,2.878,0,0,1,.122-1.539c1.18-1.941,0-3.489-.843-5-.967-1.724.444-2.8.827-4.158.217-.77.516-1.518.757-2.282.057-.18-.05-.457.051-.572,2.614-2.96.07-5.767-.451-8.514-.56-2.952-.829-3.323,1.361-5.382a3.725,3.725,0,0,0,.491-.755,6.452,6.452,0,0,0-1.032-.288c-1.443-.157-2.859-.295-1.4-2.254a1.6,1.6,0,0,0,.152-.54c-2.179-.5-.514-2.134-.942-3.137a9.139,9.139,0,0,0-1.077-1.562c-.281.385-.731.739-.81,1.162C115.75,225.267,115.623,226.688,115.441,228.126Z" transform="translate(-72.221 -51.751)" fill="none" stroke="#002622" stroke-miterlimit="10" stroke-width="1.5"/>
    </g>
    <g id="Componente_9_9" data-name="Componente 9 – 9" transform="translate(1053.123 850.154)">
      <path id="Tracciato_1509" data-name="Tracciato 1509" d="M-1185.032,333.011a16.8,16.8,0,0,0-16.778,16.778,16.365,16.365,0,0,0,1.468,6.849c4.195,9.179,12.237,18.87,14.6,21.621a.934.934,0,0,0,.708.324.934.934,0,0,0,.708-.324c2.365-2.75,10.407-12.442,14.6-21.621a16.358,16.358,0,0,0,1.467-6.849A16.8,16.8,0,0,0-1185.032,333.011Zm0,22.786a6.016,6.016,0,0,1-6.009-6.008,6.016,6.016,0,0,1,6.009-6.009,6.016,6.016,0,0,1,6.008,6.009A6.015,6.015,0,0,1-1185.032,355.8Z" transform="translate(1201.81 -333.011)" fill="#f4b68c"/>
    </g>
  </g>
</svg>
