<svg width="90" height="67" viewBox="0 0 90 67" fill="none" xmlns="http://www.w3.org/2000/svg">
<g clip-path="url(#clip0_3027_18361)">
<path d="M67.5996 0.699219V20.1992H61.1996V59.6992H67.5996V65.4992H30.0996V31.9992H34.8996V8.59922H30.0996V0.699219H67.5996Z" stroke="#00734F" stroke-width="1.4" stroke-miterlimit="10" stroke-linecap="round" stroke-linejoin="round"/>
<path d="M39.9004 6.5H57.7004" stroke="#00734F" stroke-width="1.4" stroke-miterlimit="10" stroke-linecap="round" stroke-linejoin="round"/>
<path d="M48.7992 61.0984C50.2352 61.0984 51.3992 59.9344 51.3992 58.4984C51.3992 57.0625 50.2352 55.8984 48.7992 55.8984C47.3633 55.8984 46.1992 57.0625 46.1992 58.4984C46.1992 59.9344 47.3633 61.0984 48.7992 61.0984Z" stroke="#00734F" stroke-width="1.4" stroke-miterlimit="10" stroke-linecap="round" stroke-linejoin="round"/>
<path d="M0.699219 8.59961V31.9996H34.8992V8.59961H0.699219ZM9.49922 27.6996H5.79922V23.9996H9.49922V27.6996ZM15.8992 27.6996H12.1992V20.6996H15.8992V27.6996V27.6996ZM22.3992 27.6996H18.6992V17.0996H22.3992V27.6996ZM28.7992 27.6996H25.0992V14.3996H28.7992V27.6996Z" stroke="#00734F" stroke-width="1.4" stroke-miterlimit="10" stroke-linecap="round" stroke-linejoin="round"/>
<path d="M9.49883 23.9004H5.79883V27.6004H9.49883V23.9004Z" stroke="#00734F" stroke-width="1.4" stroke-miterlimit="10" stroke-linecap="round" stroke-linejoin="round"/>
<path d="M15.8992 20.6992H12.1992V27.6992H15.8992V20.6992Z" stroke="#00734F" stroke-width="1.4" stroke-miterlimit="10" stroke-linecap="round" stroke-linejoin="round"/>
<path d="M22.3992 17.0996H18.6992V27.5996H22.3992V17.0996Z" stroke="#00734F" stroke-width="1.4" stroke-miterlimit="10" stroke-linecap="round" stroke-linejoin="round"/>
<path d="M28.7996 14.4004H25.0996V27.6004H28.7996V14.4004Z" stroke="#00734F" stroke-width="1.4" stroke-miterlimit="10" stroke-linecap="round" stroke-linejoin="round"/>
<path d="M61.1992 20.1992V59.7992H89.2992V20.1992H61.1992ZM82.0992 37.4992C80.6992 39.8992 78.1992 41.4992 75.1992 41.4992C71.5992 41.4992 68.4992 38.9992 67.4992 35.6992C67.2992 34.9992 67.1992 34.2992 67.1992 33.4992C67.1992 32.6992 67.2992 31.9992 67.4992 31.2992C68.1992 28.9992 69.8992 27.0992 72.0992 26.0992C73.0992 25.6992 74.0992 25.4992 75.1992 25.4992C79.5992 25.4992 83.1992 29.0992 83.1992 33.4992C83.1992 34.9992 82.7992 36.3992 82.0992 37.4992Z" stroke="#00734F" stroke-width="1.4" stroke-miterlimit="10" stroke-linecap="round" stroke-linejoin="round"/>
<path d="M66.5996 46.8984H83.8996" stroke="#00734F" stroke-width="1.4" stroke-miterlimit="10" stroke-linecap="round" stroke-linejoin="round"/>
<path d="M66.5996 50.7988H83.8996" stroke="#00734F" stroke-width="1.4" stroke-miterlimit="10" stroke-linecap="round" stroke-linejoin="round"/>
<path d="M66.5996 54.5996H83.8996" stroke="#00734F" stroke-width="1.4" stroke-miterlimit="10" stroke-linecap="round" stroke-linejoin="round"/>
<path d="M23.0988 39.8984H2.29883C1.99883 39.8984 1.79883 40.0984 1.79883 40.3984V54.2984C1.79883 54.5984 1.99883 54.7984 2.29883 54.7984H23.0988C23.3988 54.7984 23.5988 54.5984 23.5988 54.2984V40.3984C23.4988 40.0984 23.2988 39.8984 23.0988 39.8984ZM9.59883 50.9984V43.5984L15.9988 47.2984L9.59883 50.9984Z" stroke="#00734F" stroke-width="1.4" stroke-miterlimit="10" stroke-linecap="round" stroke-linejoin="round"/>
<path d="M82.0992 37.5C80.6992 39.9 78.1992 41.5 75.1992 41.5C71.5992 41.5 68.4992 39 67.4992 35.7C67.2992 35 67.1992 34.3 67.1992 33.5C67.1992 32.7 67.2992 32 67.4992 31.3C68.1992 29 69.8992 27.1 72.0992 26.1C73.0992 25.7 74.0992 25.5 75.1992 25.5V33.5L82.0992 37.5Z" stroke="#00734F" stroke-width="1.4" stroke-miterlimit="10" stroke-linecap="round" stroke-linejoin="round"/>
<path d="M83.1992 33.5C83.1992 35 82.7992 36.3 82.0992 37.5L75.1992 33.5V25.5C79.5992 25.6 83.1992 29.2 83.1992 33.5Z" stroke="#00734F" stroke-width="1.4" stroke-miterlimit="10" stroke-linecap="round" stroke-linejoin="round"/>
<path d="M9.49883 23.8984H5.79883V27.5984H9.49883V23.8984Z" stroke="#00734F" stroke-width="1.4" stroke-miterlimit="10" stroke-linecap="round" stroke-linejoin="round"/>
<path d="M15.8992 20.6992H12.1992V27.6992H15.8992V20.6992Z" stroke="#00734F" stroke-width="1.4" stroke-miterlimit="10" stroke-linecap="round" stroke-linejoin="round"/>
<path d="M22.3992 17.0977H18.6992V27.5977H22.3992V17.0977Z" stroke="#00734F" stroke-width="1.4" stroke-miterlimit="10" stroke-linecap="round" stroke-linejoin="round"/>
<path d="M28.7996 14.3984H25.0996V27.5984H28.7996V14.3984Z" stroke="#00734F" stroke-width="1.4" stroke-miterlimit="10" stroke-linecap="round" stroke-linejoin="round"/>
<path d="M51.8998 30.3996L48.5998 33.6996L51.8998 30.3996ZM51.8998 35.0996L48.5998 38.3996L51.8998 35.0996ZM45.3998 30.3996L48.6998 33.6996L45.3998 30.3996ZM45.3998 35.0996L48.6998 38.3996L45.3998 35.0996ZM48.6998 25.8996V48.3996V25.8996ZM48.5998 19.5996C54.3998 23.3996 57.7998 30.1996 57.0998 35.2996C56.8998 36.2996 56.5998 37.4996 55.7998 38.8996C55.2998 39.4996 54.4998 40.4996 53.0998 41.2996C51.1998 42.3996 49.4998 42.3996 48.6998 42.3996C47.8998 42.3996 46.0998 42.2996 44.2998 41.2996C42.8998 40.4996 41.9998 39.4996 41.5998 38.8996C40.7998 37.5996 40.3998 36.2996 40.2998 35.2996C39.3998 30.1996 42.7998 23.3996 48.5998 19.5996Z" stroke="#00734F" stroke-width="1.4" stroke-miterlimit="10" stroke-linecap="round" stroke-linejoin="round"/>
</g>
<defs>
<clipPath id="clip0_3027_18361">
<rect width="90" height="66.2" fill="white"/>
</clipPath>
</defs>
</svg>
