<svg width="43" height="62" viewBox="0 0 43 62" fill="none" xmlns="http://www.w3.org/2000/svg">
<path d="M42.2639 5V60.6H0.673828V5H9.91606L14.6335 15.6L21.4689 12.8L28.3043 15.6L33.0217 5H42.2639Z"  stroke-width="1.4" stroke-miterlimit="10" stroke-linecap="round" stroke-linejoin="round"/>
<path d="M21.4707 60.6003V12.8003"  stroke-width="1.4" stroke-miterlimit="10" stroke-linecap="round" stroke-linejoin="round"/>
<path d="M21.4669 12.8002L14.6315 15.6002L9.91415 5.0002L9.24023 3.5002L13.1874 0.700195L16.1719 5.0002L21.4669 12.8002Z"  stroke-width="1.4" stroke-miterlimit="10" stroke-linecap="round" stroke-linejoin="round"/>
<path d="M33.7937 3.5002L33.0235 5.0002L28.3061 15.6002L21.4707 12.8002L26.862 5.0002L29.7502 0.700195L33.7937 3.5002Z"  stroke-width="1.4" stroke-miterlimit="10" stroke-linecap="round" stroke-linejoin="round"/>
<path d="M29.7485 0.700195L26.8603 5.0002L21.469 12.8002L16.1739 5.0002L13.1895 0.700195H29.7485Z"  stroke-width="1.4" stroke-miterlimit="10" stroke-linecap="round" stroke-linejoin="round"/>
<path d="M25.4184 22.5003C26.0033 22.5003 26.4774 22.0078 26.4774 21.4003C26.4774 20.7928 26.0033 20.3003 25.4184 20.3003C24.8335 20.3003 24.3594 20.7928 24.3594 21.4003C24.3594 22.0078 24.8335 22.5003 25.4184 22.5003Z"  stroke-width="1.4" stroke-miterlimit="10" stroke-linecap="round" stroke-linejoin="round"/>
<path d="M25.4184 30.5003C26.0033 30.5003 26.4774 30.0078 26.4774 29.4003C26.4774 28.7928 26.0033 28.3003 25.4184 28.3003C24.8335 28.3003 24.3594 28.7928 24.3594 29.4003C24.3594 30.0078 24.8335 30.5003 25.4184 30.5003Z"  stroke-width="1.4" stroke-miterlimit="10" stroke-linecap="round" stroke-linejoin="round"/>
<path d="M25.4184 38.5003C26.0033 38.5003 26.4774 38.0078 26.4774 37.4003C26.4774 36.7928 26.0033 36.3003 25.4184 36.3003C24.8335 36.3003 24.3594 36.7928 24.3594 37.4003C24.3594 38.0078 24.8335 38.5003 25.4184 38.5003Z"  stroke-width="1.4" stroke-miterlimit="10" stroke-linecap="round" stroke-linejoin="round"/>
<path d="M25.4184 46.6004C26.0033 46.6004 26.4774 46.1079 26.4774 45.5004C26.4774 44.8929 26.0033 44.4004 25.4184 44.4004C24.8335 44.4004 24.3594 44.8929 24.3594 45.5004C24.3594 46.1079 24.8335 46.6004 25.4184 46.6004Z"  stroke-width="1.4" stroke-miterlimit="10" stroke-linecap="round" stroke-linejoin="round"/>
<path d="M25.4184 54.6004C26.0033 54.6004 26.4774 54.1079 26.4774 53.5004C26.4774 52.8929 26.0033 52.4004 25.4184 52.4004C24.8335 52.4004 24.3594 52.8929 24.3594 53.5004C24.3594 54.1079 24.8335 54.6004 25.4184 54.6004Z"  stroke-width="1.4" stroke-miterlimit="10" stroke-linecap="round" stroke-linejoin="round"/>
</svg>
