<svg width="85" height="83" viewBox="0 0 85 83" fill="none" xmlns="http://www.w3.org/2000/svg">
<g clip-path="url(#clip0_1743:7273)">
<path d="M55.5337 25.7686C51.6384 22.7722 47.044 21.0742 42.05 21.0742C40.352 21.0742 38.5542 21.274 36.9561 21.6735C29.2654 23.4713 23.0728 29.564 21.1751 37.1548C19.0777 45.8444 21.9742 54.434 28.9657 59.7276C29.8647 60.4268 30.4639 61.6254 30.4639 63.0237V67.5183H53.8358V62.9238C53.8358 61.6254 54.4351 60.4268 55.2341 59.8275C60.6276 55.7325 63.7239 49.44 63.7239 42.7481C63.7239 35.9563 60.7275 29.8636 55.5337 25.7686Z"  stroke-width="1.4" stroke-miterlimit="10" stroke-linecap="round" stroke-linejoin="round"/>
<path d="M55.5337 25.7686C51.6384 22.7722 47.044 21.0742 42.05 21.0742C40.352 21.0742 38.5542 21.274 36.9561 21.6735C29.2654 23.4713 23.0728 29.564 21.1751 37.1548C19.0777 45.8444 21.9742 54.434 28.9657 59.7276C29.8647 60.4268 30.4639 61.6254 30.4639 63.0237V67.5183H53.8358V62.9238C53.8358 61.6254 54.4351 60.4268 55.2341 59.8275C60.6276 55.7325 63.7239 49.44 63.7239 42.7481C63.7239 35.9563 60.7275 29.8636 55.5337 25.7686Z"  stroke-width="1.4" stroke-miterlimit="10" stroke-linecap="round" stroke-linejoin="round"/>
<path d="M30.4629 74.9102C30.4629 76.708 32.6602 78.0065 34.3582 78.0065H37.5543L37.9539 79.0053C38.5531 80.903 40.2511 82.2014 42.1488 82.2014C44.0465 82.2014 45.8444 80.903 46.3438 79.0053L46.7433 78.0065H50.7385C52.5363 78.0065 53.8347 76.6081 53.8347 74.9102V67.3193H30.4629V74.9102Z"  stroke-width="1.4" stroke-miterlimit="10" stroke-linecap="round" stroke-linejoin="round"/>
<path d="M41.9492 0.699219V12.5849"  stroke-width="1.4" stroke-miterlimit="10" stroke-linecap="round" stroke-linejoin="round"/>
<path d="M16.3809 9.08887L23.4723 18.7772"  stroke-width="1.4" stroke-miterlimit="10" stroke-linecap="round" stroke-linejoin="round"/>
<path d="M0.699219 30.9629L12.0855 34.7583"  stroke-width="1.4" stroke-miterlimit="10" stroke-linecap="round" stroke-linejoin="round"/>
<path d="M83.3997 30.4629L72.1133 34.2583"  stroke-width="1.4" stroke-miterlimit="10" stroke-linecap="round" stroke-linejoin="round"/>
<path d="M67.5189 8.88965L60.5273 18.4781"  stroke-width="1.4" stroke-miterlimit="10" stroke-linecap="round" stroke-linejoin="round"/>
<path d="M31.5625 72.0137H53.1365"  stroke-width="1.4" stroke-miterlimit="10" stroke-linecap="round" stroke-linejoin="round"/>
<path d="M49.7406 40.9512H34.459V54.0354H49.7406V40.9512Z"  stroke-width="1.4" stroke-miterlimit="10" stroke-linecap="round" stroke-linejoin="round"/>
<path d="M42.4492 45.8447V49.2406"  stroke-width="1.4" stroke-miterlimit="10" stroke-linecap="round" stroke-linejoin="round"/>
<path d="M37.0547 40.7505V39.1524V35.4569C37.0547 32.6602 39.3519 30.4629 42.0487 30.4629C44.8453 30.4629 47.0427 32.6602 47.0427 35.4569V35.357M42.4482 45.8444V49.2403V45.8444Z"  stroke-width="1.4" stroke-miterlimit="10" stroke-linecap="round" stroke-linejoin="round"/>
</g>
<defs>
<clipPath id="clip0_1743:7273">
<rect width="84.0987" height="83" fill="white"/>
</clipPath>
</defs>
</svg>
