<svg width="10" height="12" viewBox="0 0 10 12" fill="none" xmlns="http://www.w3.org/2000/svg">
<path d="M6.72491 4.51168C6.72491 5.5503 5.88368 6.39154 4.84505 6.39154C3.80642 6.39154 2.96518 5.5503 2.96518 4.51168C2.96518 3.47305 3.80642 2.63181 4.84505 2.63181C5.88368 2.63181 6.72491 3.47305 6.72491 4.51168ZM4.84505 3.75973C4.42913 3.75973 4.0931 4.09576 4.0931 4.51168C4.0931 4.9276 4.42913 5.26362 4.84505 5.26362C5.26097 5.26362 5.597 4.9276 5.597 4.51168C5.597 4.09576 5.26097 3.75973 4.84505 3.75973ZM9.35673 4.51168C9.35673 6.56543 6.60742 10.2218 5.40196 11.7304C5.11293 12.0899 4.57717 12.0899 4.28814 11.7304C3.06153 10.2218 0.333374 6.56543 0.333374 4.51168C0.333374 2.01991 2.35329 0 4.84505 0C7.33587 0 9.35673 2.01991 9.35673 4.51168ZM4.84505 1.12792C2.97693 1.12792 1.46129 2.64356 1.46129 4.51168C1.46129 4.80305 1.5668 5.25422 1.82082 5.85578C2.06708 6.43854 2.41673 7.08239 2.8195 7.73329C3.48685 8.81892 4.26229 9.84814 4.84505 10.6142C5.42781 9.84814 6.20325 8.81892 6.8706 7.73329C7.27243 7.08239 7.62255 6.43854 7.86928 5.85578C8.12306 5.25422 8.22881 4.80305 8.22881 4.51168C8.22881 2.64356 6.71317 1.12792 4.84505 1.12792Z" fill="white"/>
</svg>
