<svg width="200" height="56" viewBox="0 0 200 56" fill="none" xmlns="http://www.w3.org/2000/svg">
<g clip-path="url(#clip0_2690:2164)">
<path d="M73.3306 32.4691C72.8706 31.8091 72.6406 30.8691 72.6406 29.6291V25.8891C72.6406 24.6091 72.8806 23.6491 73.3606 23.0091C73.8306 22.3591 74.6506 22.0391 75.8206 22.0391C76.9206 22.0391 77.7106 22.3091 78.1806 22.8591C78.6606 23.4091 78.8906 24.2191 78.8906 25.2891V25.8691H76.9506V25.2391C76.9506 24.8391 76.9306 24.5091 76.8706 24.2791C76.8206 24.0391 76.7106 23.8591 76.5506 23.7291C76.3906 23.5991 76.1506 23.5391 75.8306 23.5391C75.4906 23.5391 75.2406 23.6191 75.0706 23.7891C74.9106 23.9491 74.8006 24.1691 74.7506 24.4191C74.7006 24.6791 74.6706 25.0091 74.6706 25.4291V30.0991C74.6706 30.7291 74.7506 31.2091 74.9206 31.5191C75.0906 31.8291 75.4106 31.9891 75.8706 31.9891C76.3306 31.9891 76.6506 31.8191 76.8206 31.4891C77.0006 31.1591 77.0906 30.6691 77.0906 29.9991V28.9491H75.9006V27.6691H78.9206V33.3291H77.6006L77.4606 32.2391C77.1106 33.0691 76.4806 33.4791 75.5806 33.4791C74.5506 33.4491 73.7906 33.1191 73.3306 32.4691Z" fill="white"/>
<path d="M80.4902 22.1504H83.1702C84.3402 22.1504 85.2202 22.3704 85.7902 22.8204C86.3702 23.2704 86.6502 24.0304 86.6502 25.1104C86.6502 25.8204 86.5502 26.3904 86.3402 26.8404C86.1302 27.2904 85.7802 27.6104 85.2802 27.8104L86.8302 33.3004H84.8002L83.4702 28.1904H82.5102V33.3004H80.4902V22.1504ZM83.1602 26.9204C83.7402 26.9204 84.1502 26.7904 84.3902 26.5204C84.6302 26.2504 84.7602 25.8204 84.7602 25.2104C84.7602 24.6204 84.6502 24.2004 84.4402 23.9304C84.2302 23.6604 83.8402 23.5304 83.2802 23.5304H82.5202V26.9204H83.1602Z" fill="white"/>
<path d="M88.1992 22.1504H92.8592V23.5804H90.2092V26.7904H92.2992V28.2104H90.2092V31.9104H92.8892V33.3004H88.1992V22.1504Z" fill="white"/>
<path d="M94.0703 22.1504H98.7403V23.5804H96.0903V26.7904H98.1803V28.2104H96.0903V31.9104H98.7703V33.3004H94.0703V22.1504Z" fill="white"/>
<path d="M99.9492 22.1504H101.359L104.069 28.5104V22.1504H105.739V33.3004H104.399L101.679 26.6404V33.3004H99.9492V22.1504Z" fill="white"/>
<path d="M110.77 22.1504H115.34V23.5504H112.79V26.8004H114.88V28.2204H112.79V33.3004H110.77V22.1504Z" fill="white"/>
<path d="M117.599 33.0104C117.139 32.7204 116.819 32.3004 116.639 31.7604C116.459 31.2204 116.369 30.5304 116.369 29.6904V22.1504H118.349V29.9304C118.349 30.5704 118.429 31.0704 118.579 31.4204C118.729 31.7704 119.039 31.9404 119.509 31.9404C119.989 31.9404 120.299 31.7704 120.449 31.4204C120.599 31.0704 120.679 30.5804 120.679 29.9304V22.1504H122.639V29.6904C122.639 30.5204 122.549 31.2004 122.369 31.7504C122.189 32.3004 121.869 32.7204 121.409 33.0104C120.949 33.3004 120.319 33.4504 119.509 33.4504C118.679 33.4504 118.049 33.3004 117.599 33.0104Z" fill="white"/>
<path d="M125.331 23.6504H123.561V22.1504H129.091V23.6504H127.361V33.3004H125.331V23.6504Z" fill="white"/>
<path d="M131.259 33.0104C130.799 32.7204 130.479 32.3004 130.299 31.7604C130.119 31.2204 130.029 30.5304 130.029 29.6904V22.1504H131.999V29.9304C131.999 30.5704 132.079 31.0704 132.229 31.4204C132.379 31.7704 132.689 31.9404 133.159 31.9404C133.639 31.9404 133.949 31.7704 134.099 31.4204C134.249 31.0704 134.329 30.5804 134.329 29.9304V22.1504H136.289V29.6904C136.289 30.5204 136.199 31.2004 136.019 31.7504C135.839 32.3004 135.519 32.7204 135.059 33.0104C134.599 33.3004 133.969 33.4504 133.159 33.4504C132.349 33.4504 131.719 33.3004 131.259 33.0104Z" fill="white"/>
<path d="M137.881 22.1504H140.561C141.731 22.1504 142.611 22.3704 143.181 22.8204C143.761 23.2704 144.041 24.0304 144.041 25.1104C144.041 25.8204 143.941 26.3904 143.731 26.8404C143.521 27.2904 143.171 27.6104 142.671 27.8104L144.221 33.3004H142.191L140.861 28.1904H139.901V33.3004H137.881V22.1504ZM140.541 26.9204C141.121 26.9204 141.531 26.7904 141.771 26.5204C142.011 26.2504 142.141 25.8204 142.141 25.2104C142.141 24.6204 142.031 24.2004 141.821 23.9304C141.611 23.6604 141.221 23.5304 140.661 23.5304H139.901V26.9204H140.541Z" fill="white"/>
<path d="M145.58 22.1504H150.25V23.5804H147.6V26.7904H149.69V28.2104H147.6V31.9104H150.28V33.3004H145.58V22.1504Z" fill="white"/>
<path d="M154.789 22.1504H158.059C159.959 22.1504 160.899 23.2004 160.899 25.3204C160.899 27.3404 159.909 28.3504 157.919 28.3504H156.809V33.3104H154.789V22.1504ZM157.599 26.9104C158.149 26.9104 158.519 26.7904 158.709 26.5604C158.899 26.3304 158.999 25.9104 158.999 25.3004C158.999 24.8604 158.969 24.5204 158.899 24.2904C158.839 24.0604 158.699 23.8804 158.509 23.7604C158.309 23.6404 158.009 23.5804 157.599 23.5804H156.819V26.9104H157.599Z" fill="white"/>
<path d="M162.029 22.1504H164.709C165.879 22.1504 166.759 22.3704 167.329 22.8204C167.909 23.2704 168.189 24.0304 168.189 25.1104C168.189 25.8204 168.089 26.3904 167.879 26.8404C167.669 27.2904 167.319 27.6104 166.819 27.8104L168.369 33.3004H166.339L165.009 28.1904H164.049V33.3004H162.029V22.1504ZM164.699 26.9204C165.279 26.9204 165.689 26.7904 165.929 26.5204C166.169 26.2504 166.289 25.8204 166.289 25.2104C166.289 24.6204 166.179 24.2004 165.969 23.9304C165.759 23.6604 165.369 23.5304 164.809 23.5304H164.049V26.9204H164.699Z" fill="white"/>
<path d="M170.24 32.5193C169.75 31.8993 169.5 30.9893 169.5 29.7993V25.6193C169.5 24.4393 169.75 23.5393 170.24 22.9393C170.73 22.3293 171.56 22.0293 172.71 22.0293C173.85 22.0293 174.67 22.3293 175.17 22.9393C175.67 23.5493 175.91 24.4393 175.91 25.6193V29.7993C175.91 30.9793 175.66 31.8893 175.16 32.5093C174.66 33.1293 173.84 33.4493 172.71 33.4493C171.56 33.4493 170.74 33.1393 170.24 32.5193ZM173.62 31.5193C173.78 31.2393 173.85 30.8193 173.85 30.2793V25.1393C173.85 24.5993 173.77 24.1893 173.62 23.9093C173.47 23.6293 173.16 23.4993 172.71 23.4993C172.25 23.4993 171.94 23.6393 171.79 23.9193C171.63 24.1993 171.56 24.6093 171.56 25.1393V30.2793C171.56 30.8193 171.64 31.2293 171.79 31.5193C171.95 31.8093 172.25 31.9493 172.71 31.9493C173.16 31.9493 173.46 31.8093 173.62 31.5193Z" fill="white"/>
<path d="M176.66 32.1406C177.07 32.1406 177.38 32.1106 177.58 32.0406C177.78 31.9706 177.92 31.8406 178.01 31.6406C178.09 31.4406 178.13 31.1506 178.13 30.7506V22.1406H180.15V30.8006C180.15 31.4506 180.08 31.9806 179.93 32.3806C179.78 32.7806 179.53 33.0806 179.16 33.2706C178.79 33.4706 178.28 33.5706 177.63 33.5706H176.66V32.1406Z" fill="white"/>
<path d="M181.83 22.1504H186.5V23.5804H183.85V26.7904H185.94V28.2104H183.85V31.9104H186.53V33.3004H181.83V22.1504Z" fill="white"/>
<path d="M188.249 32.4795C187.769 31.8295 187.529 30.9195 187.529 29.7295V25.7495C187.529 24.5295 187.769 23.5995 188.239 22.9695C188.719 22.3395 189.529 22.0195 190.699 22.0195C191.789 22.0195 192.559 22.2895 193.019 22.8495C193.479 23.3995 193.709 24.1895 193.709 25.2295V26.1695H191.759V25.1995C191.759 24.7995 191.739 24.4995 191.709 24.2695C191.669 24.0495 191.579 23.8595 191.429 23.7195C191.279 23.5795 191.039 23.5095 190.719 23.5095C190.389 23.5095 190.139 23.5895 189.979 23.7395C189.819 23.8895 189.709 24.0895 189.659 24.3395C189.609 24.5895 189.579 24.9195 189.579 25.3295V30.1595C189.579 30.7895 189.659 31.2495 189.829 31.5295C189.999 31.8095 190.289 31.9495 190.719 31.9495C191.029 31.9495 191.259 31.8795 191.409 31.7295C191.559 31.5795 191.659 31.3895 191.699 31.1495C191.739 30.9095 191.759 30.5795 191.759 30.1795V29.1795H193.709V30.0695C193.709 31.1395 193.479 31.9795 193.039 32.5695C192.589 33.1595 191.809 33.4595 190.709 33.4595C189.549 33.4495 188.729 33.1295 188.249 32.4795Z" fill="white"/>
<path d="M194.471 22.1504V23.6504H196.241V33.3004H198.271V23.6504H200.001V22.1504H194.471Z" fill="white"/>
<path d="M0 0V55.6H55.45V43.5L60.66 47.94L63.47 44.62L55.45 37.8V35.83L60.66 40.27L63.47 36.95L55.45 30.13V28.16L60.66 32.59L63.47 29.28L53.29 20.61L43.11 29.28L45.91 32.59L51.12 28.16V30.13L43.11 36.95L45.91 40.27L51.12 35.83V37.8L43.11 44.62L45.91 47.94L51.12 43.5V51.25H4.33V4.35H51.12V14.14H55.45V0H0Z" fill="white"/>
<path d="M73.3306 32.4691C72.8706 31.8091 72.6406 30.8691 72.6406 29.6291V25.8891C72.6406 24.6091 72.8806 23.6491 73.3606 23.0091C73.8306 22.3591 74.6506 22.0391 75.8206 22.0391C76.9206 22.0391 77.7106 22.3091 78.1806 22.8591C78.6606 23.4091 78.8906 24.2191 78.8906 25.2891V25.8691H76.9506V25.2391C76.9506 24.8391 76.9306 24.5091 76.8706 24.2791C76.8206 24.0391 76.7106 23.8591 76.5506 23.7291C76.3906 23.5991 76.1506 23.5391 75.8306 23.5391C75.4906 23.5391 75.2406 23.6191 75.0706 23.7891C74.9106 23.9491 74.8006 24.1691 74.7506 24.4191C74.7006 24.6791 74.6706 25.0091 74.6706 25.4291V30.0991C74.6706 30.7291 74.7506 31.2091 74.9206 31.5191C75.0906 31.8291 75.4106 31.9891 75.8706 31.9891C76.3306 31.9891 76.6506 31.8191 76.8206 31.4891C77.0006 31.1591 77.0906 30.6691 77.0906 29.9991V28.9491H75.9006V27.6691H78.9206V33.3291H77.6006L77.4606 32.2391C77.1106 33.0691 76.4806 33.4791 75.5806 33.4791C74.5506 33.4491 73.7906 33.1191 73.3306 32.4691Z" fill="white"/>
<path d="M80.4902 22.1504H83.1702C84.3402 22.1504 85.2202 22.3704 85.7902 22.8204C86.3702 23.2704 86.6502 24.0304 86.6502 25.1104C86.6502 25.8204 86.5502 26.3904 86.3402 26.8404C86.1302 27.2904 85.7802 27.6104 85.2802 27.8104L86.8302 33.3004H84.8002L83.4702 28.1904H82.5102V33.3004H80.4902V22.1504ZM83.1602 26.9204C83.7402 26.9204 84.1502 26.7904 84.3902 26.5204C84.6302 26.2504 84.7602 25.8204 84.7602 25.2104C84.7602 24.6204 84.6502 24.2004 84.4402 23.9304C84.2302 23.6604 83.8402 23.5304 83.2802 23.5304H82.5202V26.9204H83.1602Z" fill="white"/>
<path d="M88.1992 22.1504H92.8592V23.5804H90.2092V26.7904H92.2992V28.2104H90.2092V31.9104H92.8892V33.3004H88.1992V22.1504Z" fill="white"/>
<path d="M94.0703 22.1504H98.7403V23.5804H96.0903V26.7904H98.1803V28.2104H96.0903V31.9104H98.7703V33.3004H94.0703V22.1504Z" fill="white"/>
<path d="M99.9492 22.1504H101.359L104.069 28.5104V22.1504H105.739V33.3004H104.399L101.679 26.6404V33.3004H99.9492V22.1504Z" fill="white"/>
<path d="M110.77 22.1504H115.34V23.5504H112.79V26.8004H114.88V28.2204H112.79V33.3004H110.77V22.1504Z" fill="white"/>
<path d="M117.599 33.0104C117.139 32.7204 116.819 32.3004 116.639 31.7604C116.459 31.2204 116.369 30.5304 116.369 29.6904V22.1504H118.349V29.9304C118.349 30.5704 118.429 31.0704 118.579 31.4204C118.729 31.7704 119.039 31.9404 119.509 31.9404C119.989 31.9404 120.299 31.7704 120.449 31.4204C120.599 31.0704 120.679 30.5804 120.679 29.9304V22.1504H122.639V29.6904C122.639 30.5204 122.549 31.2004 122.369 31.7504C122.189 32.3004 121.869 32.7204 121.409 33.0104C120.949 33.3004 120.319 33.4504 119.509 33.4504C118.679 33.4504 118.049 33.3004 117.599 33.0104Z" fill="white"/>
<path d="M125.331 23.6504H123.561V22.1504H129.091V23.6504H127.361V33.3004H125.331V23.6504Z" fill="white"/>
<path d="M131.259 33.0104C130.799 32.7204 130.479 32.3004 130.299 31.7604C130.119 31.2204 130.029 30.5304 130.029 29.6904V22.1504H131.999V29.9304C131.999 30.5704 132.079 31.0704 132.229 31.4204C132.379 31.7704 132.689 31.9404 133.159 31.9404C133.639 31.9404 133.949 31.7704 134.099 31.4204C134.249 31.0704 134.329 30.5804 134.329 29.9304V22.1504H136.289V29.6904C136.289 30.5204 136.199 31.2004 136.019 31.7504C135.839 32.3004 135.519 32.7204 135.059 33.0104C134.599 33.3004 133.969 33.4504 133.159 33.4504C132.349 33.4504 131.719 33.3004 131.259 33.0104Z" fill="white"/>
<path d="M137.881 22.1504H140.561C141.731 22.1504 142.611 22.3704 143.181 22.8204C143.761 23.2704 144.041 24.0304 144.041 25.1104C144.041 25.8204 143.941 26.3904 143.731 26.8404C143.521 27.2904 143.171 27.6104 142.671 27.8104L144.221 33.3004H142.191L140.861 28.1904H139.901V33.3004H137.881V22.1504ZM140.541 26.9204C141.121 26.9204 141.531 26.7904 141.771 26.5204C142.011 26.2504 142.141 25.8204 142.141 25.2104C142.141 24.6204 142.031 24.2004 141.821 23.9304C141.611 23.6604 141.221 23.5304 140.661 23.5304H139.901V26.9204H140.541Z" fill="white"/>
<path d="M145.58 22.1504H150.25V23.5804H147.6V26.7904H149.69V28.2104H147.6V31.9104H150.28V33.3004H145.58V22.1504Z" fill="white"/>
<path d="M154.789 22.1504H158.059C159.959 22.1504 160.899 23.2004 160.899 25.3204C160.899 27.3404 159.909 28.3504 157.919 28.3504H156.809V33.3104H154.789V22.1504ZM157.599 26.9104C158.149 26.9104 158.519 26.7904 158.709 26.5604C158.899 26.3304 158.999 25.9104 158.999 25.3004C158.999 24.8604 158.969 24.5204 158.899 24.2904C158.839 24.0604 158.699 23.8804 158.509 23.7604C158.309 23.6404 158.009 23.5804 157.599 23.5804H156.819V26.9104H157.599Z" fill="white"/>
<path d="M162.029 22.1504H164.709C165.879 22.1504 166.759 22.3704 167.329 22.8204C167.909 23.2704 168.189 24.0304 168.189 25.1104C168.189 25.8204 168.089 26.3904 167.879 26.8404C167.669 27.2904 167.319 27.6104 166.819 27.8104L168.369 33.3004H166.339L165.009 28.1904H164.049V33.3004H162.029V22.1504ZM164.699 26.9204C165.279 26.9204 165.689 26.7904 165.929 26.5204C166.169 26.2504 166.289 25.8204 166.289 25.2104C166.289 24.6204 166.179 24.2004 165.969 23.9304C165.759 23.6604 165.369 23.5304 164.809 23.5304H164.049V26.9204H164.699Z" fill="white"/>
<path d="M170.24 32.5193C169.75 31.8993 169.5 30.9893 169.5 29.7993V25.6193C169.5 24.4393 169.75 23.5393 170.24 22.9393C170.73 22.3293 171.56 22.0293 172.71 22.0293C173.85 22.0293 174.67 22.3293 175.17 22.9393C175.67 23.5493 175.91 24.4393 175.91 25.6193V29.7993C175.91 30.9793 175.66 31.8893 175.16 32.5093C174.66 33.1293 173.84 33.4493 172.71 33.4493C171.56 33.4493 170.74 33.1393 170.24 32.5193ZM173.62 31.5193C173.78 31.2393 173.85 30.8193 173.85 30.2793V25.1393C173.85 24.5993 173.77 24.1893 173.62 23.9093C173.47 23.6293 173.16 23.4993 172.71 23.4993C172.25 23.4993 171.94 23.6393 171.79 23.9193C171.63 24.1993 171.56 24.6093 171.56 25.1393V30.2793C171.56 30.8193 171.64 31.2293 171.79 31.5193C171.95 31.8093 172.25 31.9493 172.71 31.9493C173.16 31.9493 173.46 31.8093 173.62 31.5193Z" fill="white"/>
<path d="M176.66 32.1406C177.07 32.1406 177.38 32.1106 177.58 32.0406C177.78 31.9706 177.92 31.8406 178.01 31.6406C178.09 31.4406 178.13 31.1506 178.13 30.7506V22.1406H180.15V30.8006C180.15 31.4506 180.08 31.9806 179.93 32.3806C179.78 32.7806 179.53 33.0806 179.16 33.2706C178.79 33.4706 178.28 33.5706 177.63 33.5706H176.66V32.1406Z" fill="white"/>
<path d="M181.83 22.1504H186.5V23.5804H183.85V26.7904H185.94V28.2104H183.85V31.9104H186.53V33.3004H181.83V22.1504Z" fill="white"/>
<path d="M188.249 32.4795C187.769 31.8295 187.529 30.9195 187.529 29.7295V25.7495C187.529 24.5295 187.769 23.5995 188.239 22.9695C188.719 22.3395 189.529 22.0195 190.699 22.0195C191.789 22.0195 192.559 22.2895 193.019 22.8495C193.479 23.3995 193.709 24.1895 193.709 25.2295V26.1695H191.759V25.1995C191.759 24.7995 191.739 24.4995 191.709 24.2695C191.669 24.0495 191.579 23.8595 191.429 23.7195C191.279 23.5795 191.039 23.5095 190.719 23.5095C190.389 23.5095 190.139 23.5895 189.979 23.7395C189.819 23.8895 189.709 24.0895 189.659 24.3395C189.609 24.5895 189.579 24.9195 189.579 25.3295V30.1595C189.579 30.7895 189.659 31.2495 189.829 31.5295C189.999 31.8095 190.289 31.9495 190.719 31.9495C191.029 31.9495 191.259 31.8795 191.409 31.7295C191.559 31.5795 191.659 31.3895 191.699 31.1495C191.739 30.9095 191.759 30.5795 191.759 30.1795V29.1795H193.709V30.0695C193.709 31.1395 193.479 31.9795 193.039 32.5695C192.589 33.1595 191.809 33.4595 190.709 33.4595C189.549 33.4495 188.729 33.1295 188.249 32.4795Z" fill="white"/>
<path d="M194.471 22.1504V23.6504H196.241V33.3004H198.271V23.6504H200.001V22.1504H194.471Z" fill="white"/>
<path d="M0 0V55.6H55.45V43.5L60.66 47.94L63.47 44.62L55.45 37.8V35.83L60.66 40.27L63.47 36.95L55.45 30.13V28.16L60.66 32.59L63.47 29.28L53.29 20.61L43.11 29.28L45.91 32.59L51.12 28.16V30.13L43.11 36.95L45.91 40.27L51.12 35.83V37.8L43.11 44.62L45.91 47.94L51.12 43.5V51.25H4.33V4.35H51.12V14.14H55.45V0H0Z" fill="white"/>
</g>
<defs>
<clipPath id="clip0_2690:2164">
<rect width="200" height="55.6" fill="white"/>
</clipPath>
</defs>
</svg>
