<svg xmlns="http://www.w3.org/2000/svg" width="56.387" height="49.267" viewBox="0 0 56.387 49.267">
  <g id="Group_2538" data-name="Group 2538" transform="translate(-73.153 -71.873)">
    <g id="Group_1972" data-name="Group 1972" transform="translate(73.153 71.873)">
      <path id="Path_1622" data-name="Path 1622" d="M127.047,107.554l2.492-2.935-7.12-6.046V96.827l4.628,3.93,2.492-2.935-9.045-7.681-9.045,7.681,2.492,2.935,4.628-3.93v1.746l-7.12,6.046,2.492,2.935,4.628-3.93v1.746l-7.12,6.046,2.492,2.935,4.628-3.93v6.869H77V75.724h41.566V84.4h3.85V71.873H73.153v49.267H122.42V110.421l4.628,3.93,2.492-2.935-7.12-6.046v-1.746Z" transform="translate(-73.153 -71.873)"/>
      <g id="Group_1971" data-name="Group 1971" transform="translate(5.779 5.769)">
        <path id="Path_1623" data-name="Path 1623" d="M121.78,125.838a1.87,1.87,0,0,1-1.118-.3,1.642,1.642,0,0,1-.594-.849,4.177,4.177,0,0,1-.18-1.3V121a4.383,4.383,0,0,1,.176-1.32,1.541,1.541,0,0,1,.621-.849,2.2,2.2,0,0,1,1.228-.295,2.342,2.342,0,0,1,1.162.247,1.409,1.409,0,0,1,.621.708,2.963,2.963,0,0,1,.189,1.122v.37h-1.241v-.4a3.105,3.105,0,0,0-.048-.59.645.645,0,0,0-.194-.374.707.707,0,0,0-.471-.128.648.648,0,0,0-.5.167.8.8,0,0,0-.194.44,4.175,4.175,0,0,0-.04.6v2.984a2.949,2.949,0,0,0,.062.643.754.754,0,0,0,.229.418.7.7,0,0,0,.475.145.678.678,0,0,0,.484-.159.858.858,0,0,0,.233-.44,2.954,2.954,0,0,0,.066-.669v-.669h-.766v-.819h1.936v3.618h-.836l-.1-.7a1.36,1.36,0,0,1-.427.577A1.23,1.23,0,0,1,121.78,125.838Z" transform="translate(-119.888 -118.532)"/>
        <path id="Path_1624" data-name="Path 1624" d="M158.562,126.3v-7.129h1.708a3.767,3.767,0,0,1,1.219.172,1.4,1.4,0,0,1,.757.585,2.108,2.108,0,0,1,.26,1.127,3.464,3.464,0,0,1-.079.775,1.476,1.476,0,0,1-.269.585,1.21,1.21,0,0,1-.524.374l.995,3.512h-1.3l-.863-3.265h-.6V126.3Zm1.3-4.084h.4a1.382,1.382,0,0,0,.6-.11.643.643,0,0,0,.321-.352,1.692,1.692,0,0,0,.1-.621,1.351,1.351,0,0,0-.2-.805.885.885,0,0,0-.753-.268h-.475Z" transform="translate(-153.78 -119.094)"/>
        <path id="Path_1625" data-name="Path 1625" d="M196.857,126.3v-7.129h2.993v.915h-1.69v2.051h1.329v.907H198.16V125.4h1.707v.9Z" transform="translate(-187.34 -119.094)"/>
        <path id="Path_1626" data-name="Path 1626" d="M226.114,126.3v-7.129h2.993v.915h-1.69v2.051h1.329v.907h-1.329V125.4h1.708v.9Z" transform="translate(-212.98 -119.094)"/>
        <path id="Path_1627" data-name="Path 1627" d="M255.371,126.3v-7.129h.907l1.734,4.066v-4.066h1.074V126.3h-.862l-1.743-4.26v4.26Z" transform="translate(-238.619 -119.094)"/>
        <path id="Path_1628" data-name="Path 1628" d="M120.742,201.3v-7.129h2.931v.9h-1.628v2.077h1.329v.907h-1.329V201.3Z" transform="translate(-120.636 -184.82)"/>
        <path id="Path_1629" data-name="Path 1629" d="M151.336,201.4a2.225,2.225,0,0,1-1.232-.29,1.484,1.484,0,0,1-.607-.827,4.343,4.343,0,0,1-.167-1.285v-4.823H150.6v4.973a4.251,4.251,0,0,0,.044.629.884.884,0,0,0,.207.475.764.764,0,0,0,.986,0,.955.955,0,0,0,.2-.475,3.9,3.9,0,0,0,.048-.629v-4.973h1.259V199a4.356,4.356,0,0,1-.167,1.285,1.493,1.493,0,0,1-.6.827A2.221,2.221,0,0,1,151.336,201.4Z" transform="translate(-145.689 -184.82)"/>
        <path id="Path_1630" data-name="Path 1630" d="M187.381,201.3v-6.17h-1.135v-.959H189.8v.959h-1.118v6.17Z" transform="translate(-178.041 -184.82)"/>
        <path id="Path_1631" data-name="Path 1631" d="M221.467,201.4a2.224,2.224,0,0,1-1.232-.29,1.485,1.485,0,0,1-.607-.827A4.343,4.343,0,0,1,219.46,199v-4.823h1.268v4.973a4.27,4.27,0,0,0,.044.629.885.885,0,0,0,.207.475.764.764,0,0,0,.986,0,.954.954,0,0,0,.2-.475,3.911,3.911,0,0,0,.048-.629v-4.973h1.259V199a4.351,4.351,0,0,1-.167,1.285,1.492,1.492,0,0,1-.6.827A2.221,2.221,0,0,1,221.467,201.4Z" transform="translate(-207.148 -184.82)"/>
        <path id="Path_1632" data-name="Path 1632" d="M258.134,201.3v-7.129h1.708a3.769,3.769,0,0,1,1.219.172,1.4,1.4,0,0,1,.757.585,2.108,2.108,0,0,1,.26,1.127,3.457,3.457,0,0,1-.079.775,1.476,1.476,0,0,1-.269.585,1.211,1.211,0,0,1-.524.374l.995,3.512h-1.3l-.863-3.265h-.6V201.3Zm1.3-4.084h.4a1.382,1.382,0,0,0,.6-.11.643.643,0,0,0,.321-.352,1.692,1.692,0,0,0,.1-.621,1.352,1.352,0,0,0-.2-.805.885.885,0,0,0-.753-.268h-.475Z" transform="translate(-241.04 -184.82)"/>
        <path id="Path_1633" data-name="Path 1633" d="M296.431,201.3v-7.129h2.993v.915h-1.69v2.051h1.329v.907h-1.329V200.4h1.707v.9Z" transform="translate(-274.602 -184.82)"/>
        <path id="Path_1634" data-name="Path 1634" d="M120.742,276.3v-7.129h2.095a2.026,2.026,0,0,1,1.043.238,1.411,1.411,0,0,1,.59.691,2.846,2.846,0,0,1,.189,1.1,2.3,2.3,0,0,1-.238,1.122,1.415,1.415,0,0,1-.665.62,2.422,2.422,0,0,1-1.008.194h-.7V276.3Zm1.3-4.084h.493a1.225,1.225,0,0,0,.55-.1.541.541,0,0,0,.273-.326,1.965,1.965,0,0,0,.075-.6,2.825,2.825,0,0,0-.057-.629.541.541,0,0,0-.247-.356,1.187,1.187,0,0,0-.594-.114h-.493Z" transform="translate(-120.636 -250.547)"/>
        <path id="Path_1635" data-name="Path 1635" d="M157.558,276.3v-7.129h1.708a3.769,3.769,0,0,1,1.219.172,1.4,1.4,0,0,1,.757.585,2.108,2.108,0,0,1,.26,1.127,3.465,3.465,0,0,1-.079.774,1.476,1.476,0,0,1-.269.585,1.211,1.211,0,0,1-.524.374l.995,3.512h-1.3l-.863-3.266h-.6V276.3Zm1.3-4.084h.4a1.383,1.383,0,0,0,.6-.11.643.643,0,0,0,.321-.352,1.693,1.693,0,0,0,.1-.621,1.351,1.351,0,0,0-.2-.805.885.885,0,0,0-.752-.268h-.475Z" transform="translate(-152.9 -250.547)"/>
        <path id="Path_1636" data-name="Path 1636" d="M197.043,275.837a2.251,2.251,0,0,1-1.206-.282,1.556,1.556,0,0,1-.643-.81A3.635,3.635,0,0,1,195,273.5v-2.667a3.523,3.523,0,0,1,.194-1.237,1.517,1.517,0,0,1,.643-.788,2.829,2.829,0,0,1,2.425,0,1.545,1.545,0,0,1,.642.788,3.448,3.448,0,0,1,.2,1.237v2.676a3.492,3.492,0,0,1-.2,1.237,1.61,1.61,0,0,1-.642.81A2.239,2.239,0,0,1,197.043,275.837Zm0-.959a.7.7,0,0,0,.48-.141.71.71,0,0,0,.207-.387,2.561,2.561,0,0,0,.053-.537V270.53a2.483,2.483,0,0,0-.053-.537.681.681,0,0,0-.207-.374.71.71,0,0,0-.48-.137.7.7,0,0,0-.467.137.668.668,0,0,0-.211.374,2.491,2.491,0,0,0-.053.537v3.283a2.777,2.777,0,0,0,.048.537.672.672,0,0,0,.207.387A.7.7,0,0,0,197.043,274.878Z" transform="translate(-185.714 -249.985)"/>
        <path id="Path_1637" data-name="Path 1637" d="M231.048,276.478v-.915a2.555,2.555,0,0,0,.466-.035.575.575,0,0,0,.286-.128.53.53,0,0,0,.145-.273,2,2,0,0,0,.044-.462v-5.492h1.294v5.545a2.967,2.967,0,0,1-.141.99,1.034,1.034,0,0,1-.489.581,2.082,2.082,0,0,1-.981.189Z" transform="translate(-217.304 -250.547)"/>
        <path id="Path_1638" data-name="Path 1638" d="M255.591,276.3v-7.129h2.993v.915h-1.69v2.051h1.329v.907h-1.329V275.4H258.6v.9Z" transform="translate(-238.812 -250.547)"/>
        <path id="Path_1639" data-name="Path 1639" d="M285.555,275.837a2.127,2.127,0,0,1-1.228-.308,1.6,1.6,0,0,1-.621-.841,3.908,3.908,0,0,1-.176-1.228v-2.544a4.078,4.078,0,0,1,.176-1.268,1.518,1.518,0,0,1,.621-.827,2.227,2.227,0,0,1,1.228-.291,2.253,2.253,0,0,1,1.158.251,1.38,1.38,0,0,1,.594.717,3.055,3.055,0,0,1,.176,1.083v.6h-1.25v-.616a4.423,4.423,0,0,0-.031-.546.678.678,0,0,0-.167-.392.628.628,0,0,0-.471-.145.669.669,0,0,0-.489.154.742.742,0,0,0-.2.414,3.528,3.528,0,0,0-.044.585v3.1a2.734,2.734,0,0,0,.062.638.661.661,0,0,0,.224.378.7.7,0,0,0,.445.128.592.592,0,0,0,.462-.154.757.757,0,0,0,.172-.409,4.229,4.229,0,0,0,.035-.572V273.1h1.25v.572a3.465,3.465,0,0,1-.167,1.122,1.46,1.46,0,0,1-.585.766A2.116,2.116,0,0,1,285.555,275.837Z" transform="translate(-263.297 -249.985)"/>
        <path id="Path_1640" data-name="Path 1640" d="M319.8,276.3v-6.17h-1.135v-.959h3.556v.959h-1.118v6.17Z" transform="translate(-294.09 -250.547)"/>
      </g>
    </g>
  </g>
</svg>
