<svg width="98" height="74" viewBox="0 0 98 74" fill="none" xmlns="http://www.w3.org/2000/svg">
  <path d="M46.1983 7.39998C45.6983 6.09998 43.3983 5.99998 43.1983 5.99998C43.1983 5.99998 43.8983 4.99998 43.4983 4.19998C43.1983 3.59998 42.3983 3.39998 42.0983 3.29998C41.1983 3.09998 40.8983 3.49998 39.7983 3.39998C39.1983 3.39998 38.7983 3.19998 38.5983 3.09998C36.8983 2.49998 36.7983 1.39998 35.6983 0.999978C34.1983 0.299978 30.8983 0.999978 29.9983 1.89998C28.3983 3.39998 29.0983 4.69998 27.6983 4.79998C26.4983 4.89998 26.0983 3.99998 25.0983 4.09998C22.8983 4.19998 20.8983 8.89998 20.5983 12.7C20.0983 19.2 25.1983 24.1 26.5983 25.6C26.5983 25.5 26.5983 25.4 26.4983 25.3C26.1983 23.7 25.9983 22.1 25.8983 21.5C25.6983 20.1 25.5983 19.6 26.0983 18.8C26.3983 18.2 26.9983 17.8 27.5983 17.8C28.4983 17.7 29.2983 18.4 29.6983 19.4C30.0983 19.2 30.6983 18.7 31.0983 18C31.5983 16.9 31.0983 16 31.1983 14.4C31.1983 14.3 31.2983 12.5 32.3983 11C33.6983 9.29998 36.1983 8.29998 38.4983 9.09998C38.7983 9.19998 38.9983 9.29998 39.2983 9.39998C40.5983 10.1 41.3983 11.1 41.8983 12C42.1983 12.4 42.3983 12.6 42.3983 12.7C42.3983 12.9 42.3983 13 42.4983 13.1C42.9983 12.9 43.8983 12.6 44.5983 11.6C44.6983 11.5 44.6983 11.5 44.6983 11.4C45.2983 10.6 46.7983 8.69998 46.1983 7.39998ZM41.8983 12C42.1983 12.6 42.3983 13 42.3983 13.1H42.4983C42.4983 13 42.4983 12.8 42.3983 12.7C42.3983 12.6 42.1983 12.3 41.8983 12ZM41.8983 12C41.3983 11.2 40.5983 10.1 39.2983 9.39998C40.4983 10.2 41.3983 11.3 41.8983 12ZM60.4983 46.1C59.8983 47 59.3983 47.8 59.0983 48.4C57.2983 51.3 57.3983 51 55.2983 54.3C54.9983 54.8 54.5983 55.4 54.1983 56L46.2983 49.4L45.2983 72.1H21.2983V71.7C21.6983 70.5 22.0983 69 21.9983 68.5C21.9983 68.3 21.5983 68.1 21.0983 67.9L20.2983 49.4L12.4983 56C11.9983 55.2 11.5983 54.6 11.2983 54.1C9.49829 51.2 9.49829 51.2 7.99829 49C7.59829 48.3 6.99829 47.4 6.19829 46.2L20.0983 36.4L29.3983 33.6C29.3983 33.8 29.3983 34 29.4983 34.2C29.7983 36 31.3983 37.3 33.2983 37.3C35.0983 37.3 36.4983 36.2 36.9983 34.6C37.0983 34.2 37.1983 33.9 37.1983 33.5L46.4983 36.3L60.4983 46.1ZM21.2983 71.7C21.0983 72.4 20.7983 73 20.7983 73.1C20.5983 73.5 18.8983 72.7 18.4983 72.5C18.0983 72.3 18.7983 71.1 18.7983 71.1L16.8983 70C16.8983 70 15.2983 69.1 12.4983 67.1C9.59829 65.1 0.998288 56.8 0.698288 55.8C0.498288 55.2 4.69829 51.7 7.99829 49C9.39829 51.3 9.49829 51.2 11.2983 54.1L9.79829 55.3C9.79829 55.3 16.9983 66.4 17.2983 66.7C17.4983 66.9 19.8983 67.3 21.1983 67.9C21.6983 68.1 22.0983 68.3 22.0983 68.5C22.1983 69 21.6983 70.6 21.2983 71.7ZM21.1983 67.9C19.8983 67.4 17.4983 67 17.2983 66.7C16.9983 66.4 9.79829 55.3 9.79829 55.3L11.2983 54.1C11.5983 54.6 11.9983 55.3 12.4983 56L20.3983 49.4L21.1983 67.9ZM64.1983 36C64.1983 36 64.8983 32.2 64.8983 31.5C64.8983 30.8 65.0983 30.5 64.5983 30.2C63.9983 29.9 59.2983 29.4 59.2983 29.4C59.2983 29.4 58.2983 29.8 58.2983 30.5C58.2983 30.5 57.7983 32.8 58.4983 33.6C59.1983 34.3 61.5983 37 61.5983 37.4C61.5983 37.8 60.7983 49.7 60.7983 49.7L58.9983 48.4C57.1983 51.3 57.2983 51 55.1983 54.3C56.7983 55 60.8983 56.6 62.9983 57C65.6983 57.5 66.1983 56.8 66.1983 54.6C66.3983 52.4 64.1983 36 64.1983 36ZM21.1983 67.9C19.8983 67.4 17.4983 67 17.2983 66.7C16.9983 66.4 9.79829 55.3 9.79829 55.3L11.2983 54.1C11.5983 54.6 11.9983 55.3 12.4983 56L20.3983 49.4L21.1983 67.9ZM33.3983 37.3C35.1983 37.3 36.5983 36.2 37.0983 34.6V30.6C36.5983 30.5 36.1983 30.4 35.7983 30.3C35.3983 30.2 32.2983 29.7 29.5983 28V34.1C29.7983 35.9 31.3983 37.3 33.3983 37.3ZM48.1983 28.2L52.2983 27.7L51.7983 23L47.6983 23.5L48.1983 28.2ZM52.3983 27.7L79.5983 33.2L77.0983 12.7L51.7983 23L52.3983 27.7ZM44.5983 72.1H33.2983H21.9983H44.5983ZM41.8983 12C41.3983 11.3 40.4983 10.3 39.2983 9.39998C39.0983 9.29998 38.7983 9.19998 38.4983 9.09998C36.1983 8.39998 33.6983 9.29998 32.3983 11C31.3983 12.4 31.1983 14.3 31.1983 14.4C31.0983 16 31.6983 16.9 31.0983 18C30.7983 18.7 30.1983 19.1 29.6983 19.4C29.2983 18.4 28.4983 17.7 27.5983 17.8C26.9983 17.8 26.3983 18.2 26.0983 18.8C25.6983 19.6 25.6983 20.2 25.8983 21.5C25.9983 22.1 26.1983 23.7 26.4983 25.3C27.2983 26.5 28.2983 27.4 29.3983 28.1C32.0983 29.8 35.1983 30.3 35.5983 30.4C35.9983 30.5 36.3983 30.6 36.8983 30.7C38.0983 30.9 39.3983 30.9 40.5983 30.1C41.2983 29.6 42.2983 29.1 42.5983 23.6C42.5983 23.4 42.5983 23.6 42.5983 23.4C42.5983 23.1 44.4983 22.4 44.4983 22C44.4983 21.6 42.6983 18.5 42.6983 18C42.6983 16.1 42.5983 15.5 42.2983 13.2H42.1983C42.3983 13 42.1983 12.5 41.8983 12Z" stroke="#00734F" stroke-width="1.4" stroke-miterlimit="10" stroke-linecap="round" stroke-linejoin="round"/>
  <path d="M39.6982 17.4C39.6982 18.2 40.2982 18.8 41.0982 18.8C41.8982 18.8 42.4982 18.2 42.4982 17.4C42.4982 16.6 41.8982 15.8 41.1982 16.1C40.1982 16.5 39.6982 16.6 39.6982 17.4Z" fill="#00734F"/>
  <path d="M42.4982 25.5C42.4982 25.5 39.8982 24.6 38.6982 26M82.3982 16.1L94.4982 11.8L82.3982 16.1ZM83.7982 28.6L96.4982 30.2L83.7982 28.6ZM83.1982 22.5L95.9982 21.2L83.1982 22.5Z" stroke="#00734F" stroke-width="1.4" stroke-miterlimit="10" stroke-linecap="round" stroke-linejoin="round"/>
</svg>
