<svg xmlns="http://www.w3.org/2000/svg" width="54.674" height="54.571" viewBox="0 0 54.674 54.571">
  <g id="Raggruppa_2506" data-name="Raggruppa 2506" transform="translate(328.693 -80.78)">
    <path id="Tracciato_1978" data-name="Tracciato 1978" d="M-278.755,105.473l-4.373,4.373v-6.728l8.411-8.411a2.856,2.856,0,0,0,0-4.038,2.855,2.855,0,0,0-4.038,0l-4.373,4.373V84.385a2.855,2.855,0,0,0-2.855-2.855,2.855,2.855,0,0,0-2.855,2.855V95.042l-4.373-4.373a2.855,2.855,0,0,0-4.038,0,2.855,2.855,0,0,0,0,4.038l8.411,8.411v6.728l-4.373-4.373a2.856,2.856,0,0,0-4.038,0,2.855,2.855,0,0,0,0,4.038l8.411,8.411v16.22h5.711v-16.22l8.411-8.411a2.856,2.856,0,0,0,0-4.038A2.856,2.856,0,0,0-278.755,105.473Z" transform="translate(-29.856 0)" fill="none" stroke="#efecec" stroke-linejoin="round" stroke-width="1.5"/>
    <path id="Tracciato_1979" data-name="Tracciato 1979" d="M-162.72,144.321l-4.373,4.373v-6.728l8.411-8.411a2.856,2.856,0,0,0,0-4.038,2.855,2.855,0,0,0-4.038,0l-4.373,4.373V123.232a2.855,2.855,0,0,0-2.855-2.855,2.855,2.855,0,0,0-2.855,2.855V133.89l-4.373-4.373a2.855,2.855,0,0,0-4.038,0,2.855,2.855,0,0,0,0,4.038l8.411,8.411v6.728l-4.373-4.373a2.856,2.856,0,0,0-4.038,0,2.855,2.855,0,0,0,0,4.038l8.411,8.411v7.053h5.711V156.77l8.411-8.411a2.856,2.856,0,0,0,0-4.038A2.856,2.856,0,0,0-162.72,144.321Z" transform="translate(-117.142 -29.223)" fill="none" stroke="#efecec" stroke-linejoin="round" stroke-width="1.5"/>
    <circle id="Ellisse_663" data-name="Ellisse 663" cx="3.55" cy="3.55" r="3.55" transform="translate(-299.967 81.53)" fill="none" stroke="#efecec" stroke-linejoin="round" stroke-width="1.5"/>
    <circle id="Ellisse_664" data-name="Ellisse 664" cx="3.55" cy="3.55" r="3.55" transform="translate(-282.089 85.687)" fill="none" stroke="#efecec" stroke-linejoin="round" stroke-width="1.5"/>
    <circle id="Ellisse_666" data-name="Ellisse 666" cx="3.55" cy="3.55" r="3.55" transform="translate(-307.888 122.272)" fill="none" stroke="#efecec" stroke-linejoin="round" stroke-width="1.5"/>
  </g>
</svg>
