<svg width="73" height="64" viewBox="0 0 73 64" fill="none" xmlns="http://www.w3.org/2000/svg">
<g clip-path="url(#clip0_1594_5626)">
<path d="M41.8992 58.4L41.2992 49.4H31.0992L30.4992 58.4H23.3992L22.7992 62.7999H49.6992L48.9992 58.4H41.8992ZM9.09922 41.5999H25.3992H9.09922ZM9.09922 37.5H25.3992H9.09922ZM9.09922 33.4H25.3992H9.09922ZM28.3992 15.4C27.4992 10.9 23.5992 7.49995 18.7992 7.49995V17.2999L28.3992 15.4ZM18.7992 17.2999V7.49995C13.3992 7.49995 8.99922 11.8999 8.99922 17.2999C8.99922 22.6999 13.3992 27.1 18.7992 27.1C24.1992 27.1 28.5992 22.6999 28.5992 17.2999C28.5992 16.6999 28.4992 16.1 28.3992 15.5L18.7992 17.2999ZM40.7992 41.7H36.7992V31.9H40.7992V41.7ZM48.4992 41.7H44.4992V25.2H48.4992V41.7ZM63.8992 41.7H59.8992V21.6H63.8992V41.7ZM56.1992 41.7H52.1992V15.7H56.1992V41.7ZM71.6992 49.4H0.699219V0.699951H71.6992V49.4Z"  stroke-width="1.4" stroke-miterlimit="10" stroke-linecap="round" stroke-linejoin="round"/>
</g>
<defs>
<clipPath id="clip0_1594_5626">
<rect width="72.4" height="63.5" fill="white"/>
</clipPath>
</defs>
</svg>
