<svg width="87" height="72" viewBox="0 0 87 72" fill="none" xmlns="http://www.w3.org/2000/svg">
<g clip-path="url(#clip0_1718:7544)">
<path d="M0.697266 71.3029L16.6309 43.8174L21.9089 47.3029L27.1869 43.8174L32.5645 47.3029L37.8425 43.8174L43.1205 47.3029L43.5188 47.0041L48.4981 43.8174L53.3778 47.0041L53.7761 47.3029L59.1537 43.8174L64.4317 47.3029L69.7097 43.8174L85.6433 71.3029" stroke-width="1.4" stroke-miterlimit="10" stroke-linecap="round" stroke-linejoin="round"/>
<path d="M69.7097 43.8178L64.4317 47.3033L59.1537 43.8178L53.7761 47.3033L53.3777 47.0045L48.4981 43.8178L43.5188 47.0045L43.1205 47.3033L37.8425 43.8178L32.5645 47.3033L27.1869 43.8178L21.9089 47.3033L16.6309 43.8178L34.0582 13.5439L48.4981 38.4402L57.5603 22.7058L69.7097 43.8178Z" stroke-width="1.4" stroke-miterlimit="10" stroke-linecap="round" stroke-linejoin="round"/>
<path d="M34.0586 13.5437V0.697266" stroke-width="1.4" stroke-miterlimit="10" stroke-linecap="round" stroke-linejoin="round"/>
<path d="M43.7183 7.56863H34.0586V0.697266H43.7183L38.8387 4.18274L43.7183 7.56863Z" stroke-width="1.4" stroke-miterlimit="10" stroke-linecap="round" stroke-linejoin="round"/>
</g>
<defs>
<clipPath id="clip0_1718:7544">
<rect width="86.3402" height="72" fill="white"/>
</clipPath>
</defs>
</svg>
