<svg width="66" height="100" viewBox="0 0 66 100" fill="none" xmlns="http://www.w3.org/2000/svg">
<path d="M49.3662 65.7891V98.8212H16.334V65.7891H20.1924C19.9101 66.7301 19.816 67.7654 19.816 68.8005H23.0157C23.0157 67.7654 23.2039 66.7301 23.4862 65.7891H42.2139C42.4962 66.7301 42.6844 67.7654 42.6844 68.8005H45.8841C45.8841 67.7654 45.79 66.7301 45.5077 65.7891H49.3662Z" stroke="#00734F" stroke-width="1.4" stroke-miterlimit="10" stroke-linecap="round" stroke-linejoin="round"/>
<path d="M49.3672 98.7271L60.0015 71.2474L49.3672 65.7891" stroke="#00734F" stroke-width="1.4" stroke-miterlimit="10" stroke-linecap="round" stroke-linejoin="round"/>
<path d="M16.3335 98.7271L5.69922 71.2474L16.3335 65.7891" stroke="#00734F" stroke-width="1.4" stroke-miterlimit="10" stroke-linecap="round" stroke-linejoin="round"/>
<path d="M45.8849 68.7999H42.6852C42.6852 67.7647 42.497 66.7295 42.2146 65.7884C40.8971 61.8358 37.2269 58.9184 32.8038 58.9184C28.3807 58.9184 24.7104 61.8358 23.3929 65.7884C23.1106 66.7295 22.9224 67.7647 22.9224 68.7999H19.7227C19.7227 67.7647 19.8168 66.7295 20.0991 65.7884C21.5107 60.0477 26.6867 55.7188 32.8979 55.7188C39.1091 55.7188 44.1909 59.9536 45.6026 65.6943C45.7908 66.7295 45.8849 67.7647 45.8849 68.7999Z" stroke="#00734F" stroke-width="1.4" stroke-miterlimit="10" stroke-linecap="round" stroke-linejoin="round"/>
<path d="M23.9569 71.7182L21.4159 73.6003L18.875 71.7182L19.9102 68.8008H23.0158L23.9569 71.7182Z" stroke="#00734F" stroke-width="1.4" stroke-miterlimit="10" stroke-linecap="round" stroke-linejoin="round"/>
<path d="M46.8257 71.7182L44.3788 73.6003L41.8379 71.7182L42.779 68.8008H45.8846L46.8257 71.7182Z" stroke="#00734F" stroke-width="1.4" stroke-miterlimit="10" stroke-linecap="round" stroke-linejoin="round"/>
<path d="M32.8965 24.5684V39.3434V48.6602" stroke="#00734F" stroke-width="1.4" stroke-miterlimit="10" stroke-linecap="round" stroke-linejoin="round"/>
<path d="M25.8398 34.166L32.898 37.8363" stroke="#00734F" stroke-width="1.4" stroke-miterlimit="10" stroke-linecap="round" stroke-linejoin="round"/>
<path d="M19.9089 24.5668C15.8622 22.2141 11.345 22.4964 8.80409 22.8728C7.67478 23.061 6.92191 24.2845 7.39245 25.4138C8.23943 27.8606 10.3098 31.8132 14.3565 34.1659C18.6855 36.6127 22.6381 35.7657 24.6144 35.0129C25.4613 34.7305 25.9319 33.7894 25.8378 32.9425C25.4613 30.9662 24.2379 27.1077 19.9089 24.5668Z" stroke="#00734F" stroke-width="1.4" stroke-miterlimit="10" stroke-linecap="round" stroke-linejoin="round"/>
<path d="M39.9546 34.166L32.8965 37.8363" stroke="#00734F" stroke-width="1.4" stroke-miterlimit="10" stroke-linecap="round" stroke-linejoin="round"/>
<path d="M45.8841 24.5668C49.9308 22.2141 54.448 22.4964 56.9889 22.8728C58.1182 23.061 58.8711 24.2845 58.4006 25.4138C57.5536 27.8606 55.4832 31.8132 51.4365 34.1659C47.1075 36.6127 43.1549 35.7657 41.1787 35.0129C40.3317 34.7305 39.8611 33.7894 39.9552 32.9425C40.3317 30.9662 41.5551 27.1077 45.8841 24.5668Z" stroke="#00734F" stroke-width="1.4" stroke-miterlimit="10" stroke-linecap="round" stroke-linejoin="round"/>
<path d="M34.4019 4.33472C33.649 3.39363 32.2374 3.39363 31.4845 4.33472C29.7906 6.31101 27.3438 10.0754 27.3438 14.7808C27.3438 19.7686 30.0729 22.78 31.6728 24.0976C32.3315 24.6622 33.3667 24.6622 34.0255 24.0976C35.6253 22.78 38.3545 19.7686 38.3545 14.7808C38.4486 10.0754 36.0018 6.31101 34.4019 4.33472Z" stroke="#00734F" stroke-width="1.4" stroke-miterlimit="10" stroke-linecap="round" stroke-linejoin="round"/>
</svg>
