<svg width="68" height="64" viewBox="0 0 68 64" fill="none" xmlns="http://www.w3.org/2000/svg">
<path d="M33.082 29.5977V53.9526V63.2359"  stroke-width="1.4" stroke-miterlimit="10" stroke-linecap="round" stroke-linejoin="round"/>
<path d="M25 47.8359L33.0824 52.0953"  stroke-width="1.4" stroke-miterlimit="10" stroke-linecap="round" stroke-linejoin="round"/>
<path d="M47.8478 27.4129C42.8906 30.2525 41.4896 34.7303 41.0586 37.2422C40.9508 38.2251 41.5974 39.3173 42.5673 39.6449C44.8304 40.5187 49.3565 41.5016 54.3137 38.662C58.9477 35.9316 61.3185 31.2354 62.2884 28.505C62.7194 27.1944 61.9651 25.8838 60.6719 25.5562C57.7622 25.0101 52.5895 24.6825 47.8478 27.4129Z"  stroke-width="1.4" stroke-miterlimit="10" stroke-linecap="round" stroke-linejoin="round"/>
<path d="M18.2108 36.8059C13.5769 34.0755 8.40412 34.4031 5.49445 34.84C4.20127 35.0584 3.33914 36.4782 3.87797 37.7888C4.84786 40.6284 7.2187 45.2154 11.8526 47.9458C16.8098 50.7854 21.336 49.8024 23.599 48.9287C24.5689 48.6011 25.1078 47.5089 25 46.526C24.5689 44.1233 23.168 39.6454 18.2108 36.8059Z"  stroke-width="1.4" stroke-miterlimit="10" stroke-linecap="round" stroke-linejoin="round"/>
<path d="M34.8051 5.67946C33.9429 4.58731 32.3265 4.58731 31.4643 5.67946C29.5246 7.97298 26.7227 12.3416 26.7227 17.8023C26.7227 23.5907 29.8479 27.0856 31.6799 28.6146C32.4342 29.2699 33.6196 29.2699 34.374 28.6146C36.206 27.0856 39.3312 23.5907 39.3312 17.8023C39.5467 12.3416 36.6371 7.97298 34.8051 5.67946Z"  stroke-width="1.4" stroke-miterlimit="10" stroke-linecap="round" stroke-linejoin="round"/>
<path d="M40.9505 38.8809L33.1914 42.0481"  stroke-width="1.4" stroke-miterlimit="10" stroke-linecap="round" stroke-linejoin="round"/>
<path d="M14.9789 12.5598L10.345 15.0717L7.86643 19.7679L5.38782 15.0717L3.23251 13.8703L0.753906 12.5598L5.38782 10.0478L7.86643 5.35156L10.1295 9.50173L10.345 10.0478L14.9789 12.5598Z"  stroke-width="1.4" stroke-miterlimit="10" stroke-linecap="round" stroke-linejoin="round"/>
<path d="M52.3727 11.905C53.325 11.905 54.0969 11.1227 54.0969 10.1576C54.0969 9.19251 53.325 8.41016 52.3727 8.41016C51.4204 8.41016 50.6484 9.19251 50.6484 10.1576C50.6484 11.1227 51.4204 11.905 52.3727 11.905Z"  stroke-width="1.4" stroke-miterlimit="10" stroke-linecap="round" stroke-linejoin="round"/>
<path d="M61.8582 3.38581L63.2591 0.764648L64.6601 3.38581L67.2465 4.8056L64.6601 6.2254L63.2591 8.84656L61.8582 6.2254L59.1641 4.8056L61.8582 3.38581Z"  stroke-width="1.4" stroke-miterlimit="10" stroke-linecap="round" stroke-linejoin="round"/>
</svg>
