<svg width="75" height="75" viewBox="0 0 75 75" fill="none" xmlns="http://www.w3.org/2000/svg">
<g clip-path="url(#clip0_1714:7470)">
<path d="M37.5042 74.3063C57.8354 74.3063 74.3171 57.8246 74.3171 37.4935C74.3171 17.1623 57.8354 0.680664 37.5042 0.680664C17.1731 0.680664 0.691406 17.1623 0.691406 37.4935C0.691406 57.8246 17.1731 74.3063 37.5042 74.3063Z"  stroke-width="1.4" stroke-miterlimit="10" stroke-linecap="round" stroke-linejoin="round"/>
<path d="M37.508 59.2915C49.5441 59.2915 59.3012 49.5343 59.3012 37.4983C59.3012 25.4622 49.5441 15.7051 37.508 15.7051C25.472 15.7051 15.7148 25.4622 15.7148 37.4983C15.7148 49.5343 25.472 59.2915 37.508 59.2915Z"  stroke-width="1.4" stroke-miterlimit="10" stroke-linecap="round" stroke-linejoin="round"/>
<path d="M37.5142 52.2188C45.6467 52.2188 52.2393 45.6262 52.2393 37.4937C52.2393 29.3612 45.6467 22.7686 37.5142 22.7686C29.3817 22.7686 22.7891 29.3612 22.7891 37.4937C22.7891 45.6262 29.3817 52.2188 37.5142 52.2188Z"  stroke-width="1.4" stroke-miterlimit="10" stroke-linecap="round" stroke-linejoin="round"/>
<path d="M37.5069 66.9464C53.7719 66.9464 66.9572 53.7611 66.9572 37.4961C66.9572 21.2312 53.7719 8.0459 37.5069 8.0459C21.242 8.0459 8.05664 21.2312 8.05664 37.4961C8.05664 53.7611 21.242 66.9464 37.5069 66.9464Z"  stroke-width="1.4" stroke-miterlimit="10" stroke-linecap="round" stroke-linejoin="round"/>
<path d="M39.4492 38.3896L37.584 39.0768"  stroke-width="1.4" stroke-miterlimit="10" stroke-linecap="round" stroke-linejoin="round"/>
<path d="M37.895 30.2297C37.6987 29.9352 37.306 29.9352 37.1097 30.2297C36.6188 30.8187 35.9316 31.8985 35.9316 33.2729C35.9316 34.6472 36.717 35.5307 37.2078 35.9234C37.4042 36.1197 37.6987 36.1197 37.895 35.9234C38.3858 35.5307 39.1712 34.6472 39.1712 33.2729C39.073 31.8003 38.3858 30.7205 37.895 30.2297Z"  stroke-width="1.4" stroke-miterlimit="10" stroke-linecap="round" stroke-linejoin="round"/>
<path d="M35.4452 40.2493C35.347 39.6603 34.9544 38.5804 33.7764 37.8933C32.5984 37.2061 31.3222 37.3043 30.635 37.4024C30.3405 37.5006 30.1442 37.7951 30.2423 38.0896C30.5368 38.7768 31.1258 39.9548 32.2057 40.642C33.4819 41.3291 34.5617 41.1328 35.1507 40.8383C35.2489 40.7401 35.4452 40.642 35.4452 40.5438C35.5434 40.4456 35.5434 40.3475 35.4452 40.2493Z"  stroke-width="1.4" stroke-miterlimit="10" stroke-linecap="round" stroke-linejoin="round"/>
<path d="M44.361 35.0479C43.6738 34.9498 42.3976 34.8516 41.2196 35.5388C39.9435 36.2259 39.6489 37.404 39.5508 37.993C39.5508 38.2875 39.6489 38.4838 39.8453 38.582C40.4343 38.7783 41.5141 39.0728 42.7903 38.2875C43.9683 37.6003 44.5573 36.4223 44.7537 35.7351C44.8518 35.4406 44.6555 35.1461 44.361 35.0479Z"  stroke-width="1.4" stroke-miterlimit="10" stroke-linecap="round" stroke-linejoin="round"/>
<path d="M37.5107 41.6248L35.4492 40.5449"  stroke-width="1.4" stroke-miterlimit="10" stroke-linecap="round" stroke-linejoin="round"/>
<path d="M37.5 36.1289V41.6263V42.1171V44.964"  stroke-width="1.4" stroke-miterlimit="10" stroke-linecap="round" stroke-linejoin="round"/>
</g>
<defs>
<clipPath id="clip0_1714:7470">
<rect width="75" height="75" fill="white"/>
</clipPath>
</defs>
</svg>
