<svg width="38" height="100" viewBox="0 0 38 100" fill="none" xmlns="http://www.w3.org/2000/svg">
<g clip-path="url(#clip0_3006_15570)">
<path d="M32.8223 99.3223H5.27618L1.10547 67.8965H36.896L32.8223 99.3223Z" stroke="#00734F" stroke-width="1.4" stroke-miterlimit="10" stroke-linecap="round" stroke-linejoin="round"/>
<path d="M19.0488 67.8961V28.1289" stroke="#00734F" stroke-width="1.4" stroke-miterlimit="10" stroke-linecap="round" stroke-linejoin="round"/>
<path d="M5.17971 47.6235C4.20978 51.3093 5.17971 55.286 7.99251 58.1958C10.8053 61.1056 14.879 61.9785 18.5648 61.0086C19.5347 57.3229 18.5648 53.3461 15.752 50.4363C12.9392 47.5266 8.86545 46.6536 5.17971 47.6235Z" stroke="#00734F" stroke-width="1.4" stroke-miterlimit="10" stroke-linecap="round" stroke-linejoin="round"/>
<path d="M32.6277 33.5606C28.942 32.5906 24.9653 33.5606 22.0555 36.3734C19.1457 39.1862 18.2728 43.2599 19.2427 46.9456C22.9284 47.9156 26.9051 46.9456 29.8149 44.1328C32.7247 41.32 33.5977 37.2463 32.6277 33.5606Z" stroke="#00734F" stroke-width="1.4" stroke-miterlimit="10" stroke-linecap="round" stroke-linejoin="round"/>
<path d="M19.0484 28.2258C26.6551 28.2258 32.8215 22.0594 32.8215 14.4527C32.8215 6.84609 26.6551 0.679688 19.0484 0.679688C11.4418 0.679688 5.27539 6.84609 5.27539 14.4527C5.27539 22.0594 11.4418 28.2258 19.0484 28.2258Z" stroke="#00734F" stroke-width="1.4" stroke-miterlimit="10" stroke-linecap="round" stroke-linejoin="round"/>
<path d="M15.6545 12.4165C17.5294 12.4165 19.0493 10.8966 19.0493 9.02172C19.0493 7.14684 17.5294 5.62695 15.6545 5.62695C13.7797 5.62695 12.2598 7.14684 12.2598 9.02172C12.2598 10.8966 13.7797 12.4165 15.6545 12.4165Z" stroke="#00734F" stroke-width="1.4" stroke-miterlimit="10" stroke-linecap="round" stroke-linejoin="round"/>
<path d="M22.3479 23.1821C24.2228 23.1821 25.7427 21.6622 25.7427 19.7873C25.7427 17.9125 24.2228 16.3926 22.3479 16.3926C20.473 16.3926 18.9531 17.9125 18.9531 19.7873C18.9531 21.6622 20.473 23.1821 22.3479 23.1821Z" stroke="#00734F" stroke-width="1.4" stroke-miterlimit="10" stroke-linecap="round" stroke-linejoin="round"/>
<path d="M13.6172 19.7877L24.3834 9.02148" stroke="#00734F" stroke-width="1.4" stroke-miterlimit="10" stroke-linecap="round" stroke-linejoin="round"/>
</g>
<defs>
<clipPath id="clip0_3006_15570">
<rect width="37.1484" height="100" fill="white" transform="translate(0.425781)"/>
</clipPath>
</defs>
</svg>
