<svg width="403" height="50" viewBox="0 0 403 50" fill="none" xmlns="http://www.w3.org/2000/svg">
  <circle cx="25" cy="25" r="24" fill="white" stroke="#00734F" stroke-width="1.5"/>
  <circle cx="207" cy="25" r="24" fill="white" stroke="#00734F" stroke-width="1.5"/>
  <circle cx="378" cy="25" r="24" fill="white" stroke="#00734F" stroke-width="1.5"/>
  <path d="M20.0723 30.096H24.0563V20.664H20.0483V18.528C20.9443 18.464 21.9603 18.24 23.0963 17.856C24.2323 17.456 25.3043 16.976 26.3123 16.416H27.5843V30.096H31.4963V33H20.0723V30.096Z" fill="#00734F"/>
  <path d="M200.544 32.28C200.544 31.224 200.72 30.392 201.072 29.784C201.44 29.16 201.952 28.592 202.608 28.08L207.288 24.408C207.896 23.944 208.312 23.472 208.536 22.992C208.776 22.496 208.896 21.984 208.896 21.456C208.896 20.864 208.704 20.352 208.32 19.92C207.936 19.472 207.36 19.248 206.592 19.248C205.968 19.248 205.448 19.392 205.032 19.68C204.632 19.952 204.336 20.28 204.144 20.664C203.952 21.048 203.856 21.384 203.856 21.672C203.856 21.96 203.864 22.176 203.88 22.32H200.592C200.576 22.192 200.568 22.04 200.568 21.864C200.568 21 200.76 20.152 201.144 19.32C201.528 18.472 202.184 17.76 203.112 17.184C204.04 16.592 205.256 16.296 206.76 16.296H207.12C208.272 16.296 209.256 16.536 210.072 17.016C210.904 17.496 211.528 18.128 211.944 18.912C212.36 19.68 212.568 20.504 212.568 21.384C212.568 22.328 212.384 23.168 212.016 23.904C211.664 24.624 211.048 25.352 210.168 26.088C209.16 26.936 207.944 27.896 206.52 28.968C206.36 29.096 206.16 29.272 205.92 29.496C205.68 29.72 205.56 29.864 205.56 29.928H212.616V33H200.544V32.28Z" fill="#00734F"/>
  <path d="M375.328 28.08C375.328 29.616 376.272 30.384 378.16 30.384C379.104 30.384 379.824 30.192 380.32 29.808C380.832 29.424 381.088 28.848 381.088 28.08C381.088 27.2 380.808 26.616 380.248 26.328C379.688 26.04 378.936 25.896 377.992 25.896H376.264V23.328H378.232C378.952 23.328 379.544 23.144 380.008 22.776C380.472 22.408 380.704 21.88 380.704 21.192C380.704 20.52 380.456 20.016 379.96 19.68C379.48 19.328 378.88 19.152 378.16 19.152C377.472 19.152 376.888 19.344 376.408 19.728C375.928 20.096 375.688 20.616 375.688 21.288H372.496V20.784C372.496 19.936 372.736 19.168 373.216 18.48C373.712 17.792 374.392 17.256 375.256 16.872C376.12 16.488 377.104 16.296 378.208 16.296H378.664C379.736 16.296 380.688 16.488 381.52 16.872C382.368 17.256 383.032 17.792 383.512 18.48C383.992 19.152 384.232 19.912 384.232 20.76C384.232 21.624 384.008 22.36 383.56 22.968C383.128 23.576 382.536 24.048 381.784 24.384V24.504C382.68 24.808 383.384 25.304 383.896 25.992C384.408 26.664 384.664 27.512 384.664 28.536C384.664 29.432 384.416 30.24 383.92 30.96C383.424 31.68 382.72 32.24 381.808 32.64C380.912 33.04 379.864 33.24 378.664 33.24H378.016C376.768 33.24 375.688 33.032 374.776 32.616C373.88 32.2 373.2 31.632 372.736 30.912C372.272 30.176 372.04 29.344 372.04 28.416V28.08H375.328Z" fill="#00734F"/>
  <line x1="49" y1="24.5" x2="183" y2="24.5" stroke="#00734F"/>
  <line x1="231" y1="24.5" x2="354" y2="24.5" stroke="#00734F"/>
</svg>
