<svg width="83" height="69" viewBox="0 0 83 69" fill="none" xmlns="http://www.w3.org/2000/svg">
<g clip-path="url(#clip0_1684:7165)">
<path d="M47.6406 57.8429L65.6629 39.6387"  stroke-width="1.4" stroke-miterlimit="10" stroke-linecap="round" stroke-linejoin="round"/>
<path d="M29.2266 46.4902L40.7219 58.0392"  stroke-width="1.4" stroke-miterlimit="10" stroke-linecap="round" stroke-linejoin="round"/>
<path d="M9.25781 59.7028L22.3118 46.5879"  stroke-width="1.4" stroke-miterlimit="10" stroke-linecap="round" stroke-linejoin="round"/>
<path d="M25.7183 47.9576C28.4622 47.9576 30.6866 45.7228 30.6866 42.9661C30.6866 40.2094 28.4622 37.9746 25.7183 37.9746C22.9744 37.9746 20.75 40.2094 20.75 42.9661C20.75 45.7228 22.9744 47.9576 25.7183 47.9576Z"  stroke-width="1.4" stroke-miterlimit="10" stroke-linecap="round" stroke-linejoin="round"/>
<path d="M5.6519 68.315C8.39583 68.315 10.6202 66.0802 10.6202 63.3235C10.6202 60.5668 8.39583 58.332 5.6519 58.332C2.90798 58.332 0.683594 60.5668 0.683594 63.3235C0.683594 66.0802 2.90798 68.315 5.6519 68.315Z"  stroke-width="1.4" stroke-miterlimit="10" stroke-linecap="round" stroke-linejoin="round"/>
<path d="M44.23 66.5533C46.974 66.5533 49.1983 64.3185 49.1983 61.5618C49.1983 58.8051 46.974 56.5703 44.23 56.5703C41.4861 56.5703 39.2617 58.8051 39.2617 61.5618C39.2617 64.3185 41.4861 66.5533 44.23 66.5533Z"  stroke-width="1.4" stroke-miterlimit="10" stroke-linecap="round" stroke-linejoin="round"/>
<path d="M72.6748 32.4941C73.649 33.375 74.2335 34.7452 74.2335 36.1154C74.2335 38.8558 71.9929 41.1069 69.2652 41.1069C66.5375 41.1069 64.2969 38.8558 64.2969 36.1154C64.2969 34.7452 64.8814 33.4729 65.7581 32.592"  stroke-width="1.4" stroke-miterlimit="10" stroke-linecap="round" stroke-linejoin="round"/>
<path d="M69.2649 0.685547C62.056 0.685547 56.2109 6.55789 56.2109 13.8004C56.2109 15.66 56.6006 17.5196 57.38 19.1834C59.6206 24.077 63.225 29.0685 65.8553 32.4941C67.1217 34.1579 68.1933 35.3324 68.7778 36.0175C68.8753 36.2132 69.0701 36.3111 69.3623 36.3111C69.6546 36.3111 69.752 36.2132 69.9469 36.0175C70.5314 35.3324 71.603 34.06 72.8694 32.4941C75.4997 29.0685 79.1041 24.077 81.3447 19.1834C82.1241 17.5196 82.5138 15.7579 82.5138 13.8004C82.3189 6.55789 76.3764 0.685547 69.2649 0.685547ZM69.2649 18.4983C66.7321 18.4983 64.5889 16.3451 64.5889 13.8004C64.5889 11.2558 66.7321 9.10257 69.2649 9.10257C71.7978 9.10257 73.941 11.2558 73.941 13.8004C73.941 16.3451 71.7978 18.4983 69.2649 18.4983Z"  stroke-width="1.4" stroke-miterlimit="10" stroke-linecap="round" stroke-linejoin="round"/>
</g>
<defs>
<clipPath id="clip0_1684:7165">
<rect width="83" height="69" fill=""/>
</clipPath>
</defs>
</svg>
