<svg xmlns="http://www.w3.org/2000/svg" width="47.859" height="47.86" viewBox="0 0 47.859 47.86">
  <g id="Group_1813" data-name="Group 1813" transform="translate(-1034.85 -2544.9)">
    <circle id="Ellipse_53" data-name="Ellipse 53" cx="23.93" cy="23.93" r="23.93" transform="translate(1034.85 2544.9)" fill="#0f7051"/>
    <g id="Group_148" data-name="Group 148" transform="translate(994.527 2110.298)">
      <g id="Group_147" data-name="Group 147" transform="translate(54.339 444.721)">
        <g id="Group_146" data-name="Group 146">
          <g id="Group_145" data-name="Group 145">
            <path id="Path_44" data-name="Path 44" d="M74.228,451.148v7.377a2.538,2.538,0,0,1-1.356,2.246l-7.41,3.888a2.533,2.533,0,0,1-2.356,0L57.279,461.6l-1.584-.83a2.538,2.538,0,0,1-1.356-2.246v-7.377A2.532,2.532,0,0,1,55.7,448.9l7.41-3.889a2.517,2.517,0,0,1,2.356,0l7.41,3.889A2.532,2.532,0,0,1,74.228,451.148Z" transform="translate(-54.339 -444.721)" fill="none" stroke="#e2e0de" stroke-linecap="round" stroke-width="1"/>
            <line id="Line_65" data-name="Line 65" y2="21.222" transform="translate(9.944 6.401)" fill="none" stroke="#e2e0de" stroke-linecap="round" stroke-width="1"/>
            <line id="Line_66" data-name="Line 66" x1="4.684" y2="2.828" transform="translate(9.944 9.359)" fill="none" stroke="#e2e0de" stroke-linecap="round" stroke-width="1"/>
            <line id="Line_67" data-name="Line 67" x2="3.779" y2="1.996" transform="translate(6.059 13.909)" fill="none" stroke="#e2e0de" stroke-linecap="round" stroke-width="1"/>
          </g>
        </g>
      </g>
    </g>
  </g>
</svg>
