<svg xmlns="http://www.w3.org/2000/svg" width="17.816" height="17.819" viewBox="0 0 17.816 17.819">
  <g id="Group_2496" data-name="Group 2496" transform="translate(2703.309 -1574.126)">
    <g id="Path_1647" data-name="Path 1647" fill="none" stroke-linecap="round" stroke-linejoin="round">
      <path d="M-2686.8,1581.831h-.956a1.509,1.509,0,0,1-1.413-1v-.04a1.52,1.52,0,0,1,.329-1.612l.77-.769a.155.155,0,0,0,0-.217l-1.5-1.5a.116.116,0,0,0-.032-.032.133.133,0,0,0-.185.032l-.633.626a1.574,1.574,0,0,1-1.747.334l-.089-.037a1.583,1.583,0,0,1-.949-1.453v-.886a.154.154,0,0,0-.154-.154h-2.11a.154.154,0,0,0-.154.154v.9a1.58,1.58,0,0,1-.95,1.449l-.091.041a1.575,1.575,0,0,1-1.744-.335l-.633-.633a.147.147,0,0,0-.033-.032.133.133,0,0,0-.185.032l-1.5,1.5a.153.153,0,0,0,0,.217l.769.77a1.515,1.515,0,0,1,.332,1.615v.033a1.509,1.509,0,0,1-1.416,1h-.956c-.048,0-.283.007-.283.154v2.11a.154.154,0,0,0,.154.154h1.316a1.445,1.445,0,0,1,1.316.849,1.474,1.474,0,0,1-.29,1.64l-.927.928a.153.153,0,0,0,0,.217l1.5,1.5a.121.121,0,0,0,.032.032.132.132,0,0,0,.185-.032l1.064-1.063a1.374,1.374,0,0,1,.974-.4,1.38,1.38,0,0,1,1.38,1.379v1.5a.154.154,0,0,0,.154.154h2.11a.154.154,0,0,0,.154-.154v-1.5a1.378,1.378,0,0,1,.4-.956,1.383,1.383,0,0,1,1.956-.015l1.064,1.065a.125.125,0,0,0,.032.033.133.133,0,0,0,.185-.033l1.5-1.5a.153.153,0,0,0,0-.217l-.927-.927a1.474,1.474,0,0,1-.409-.979,1.472,1.472,0,0,1,1.431-1.511h1.317a.154.154,0,0,0,.154-.154l-.025-2.111C-2686.518,1581.831-2686.754,1581.831-2686.8,1581.831Z"/>
      <path d="M -2695.468017578125 1575.1259765625 C -2695.552978515625 1575.1259765625 -2695.6220703125 1575.194946289062 -2695.6220703125 1575.280029296875 L -2695.6220703125 1576.176025390625 C -2695.6220703125 1576.805053710938 -2695.9951171875 1577.3740234375 -2696.572021484375 1577.625 L -2696.6630859375 1577.666015625 C -2697.25830078125 1577.923828125 -2697.949951171875 1577.790771484375 -2698.406982421875 1577.3310546875 L -2699.0400390625 1576.697998046875 C -2699.049072265625 1576.68603515625 -2699.06005859375 1576.675048828125 -2699.072998046875 1576.666015625 C -2699.133544921875 1576.6240234375 -2699.21630859375 1576.637939453125 -2699.258056640625 1576.697998046875 L -2700.7548828125 1578.194946289062 C -2700.81494140625 1578.255004882812 -2700.81494140625 1578.35205078125 -2700.7548828125 1578.411987304688 L -2699.986083984375 1579.182006835938 C -2699.56591796875 1579.608032226562 -2699.43701171875 1580.239990234375 -2699.654052734375 1580.796997070312 L -2699.654052734375 1580.829956054688 C -2699.868896484375 1581.427001953125 -2700.43505859375 1581.824951171875 -2701.070068359375 1581.827026367188 L -2702.02587890625 1581.827026367188 C -2702.073974609375 1581.827026367188 -2702.30908203125 1581.833984375 -2702.30908203125 1581.98095703125 L -2702.30908203125 1584.090942382812 C -2702.30908203125 1584.176025390625 -2702.239990234375 1584.244995117188 -2702.155029296875 1584.244995117188 L -2700.839111328125 1584.244995117188 C -2700.27197265625 1584.244995117188 -2699.757080078125 1584.577026367188 -2699.52294921875 1585.093994140625 C -2699.27197265625 1585.64794921875 -2699.386962890625 1586.300048828125 -2699.81298828125 1586.734008789062 L -2700.739990234375 1587.661987304688 C -2700.800048828125 1587.722045898438 -2700.800048828125 1587.818969726562 -2700.739990234375 1587.879028320312 L -2699.242919921875 1589.3759765625 C -2699.23388671875 1589.389038085938 -2699.222900390625 1589.400024414062 -2699.2109375 1589.407958984375 C -2699.151123046875 1589.451171875 -2699.068115234375 1589.43603515625 -2699.02587890625 1589.3759765625 L -2697.9619140625 1588.31298828125 C -2697.7041015625 1588.053955078125 -2697.35302734375 1587.909057617188 -2696.988037109375 1587.909057617188 C -2696.22607421875 1587.909057617188 -2695.60888671875 1588.526000976562 -2695.60791015625 1589.287963867188 L -2695.60791015625 1590.791015625 C -2695.60791015625 1590.8759765625 -2695.5390625 1590.944946289062 -2695.4541015625 1590.944946289062 L -2693.343994140625 1590.944946289062 C -2693.259033203125 1590.944946289062 -2693.18994140625 1590.8759765625 -2693.18994140625 1590.791015625 L -2693.18994140625 1589.286987304688 C -2693.18701171875 1588.927978515625 -2693.0439453125 1588.586059570312 -2692.79296875 1588.3310546875 C -2692.255859375 1587.785888671875 -2691.380859375 1587.780029296875 -2690.8369140625 1588.316040039062 L -2689.77294921875 1589.380981445312 C -2689.763916015625 1589.39404296875 -2689.75390625 1589.405029296875 -2689.740966796875 1589.413940429688 C -2689.68115234375 1589.4560546875 -2689.59765625 1589.44091796875 -2689.555908203125 1589.380981445312 L -2688.05908203125 1587.884033203125 C -2687.9990234375 1587.823974609375 -2687.9990234375 1587.72705078125 -2688.05908203125 1587.6669921875 L -2688.986083984375 1586.739990234375 C -2689.239013671875 1586.475952148438 -2689.385009765625 1586.126953125 -2689.39501953125 1585.760986328125 C -2689.4169921875 1584.948974609375 -2688.77587890625 1584.27197265625 -2687.964111328125 1584.25 L -2686.64697265625 1584.25 C -2686.56201171875 1584.25 -2686.492919921875 1584.181030273438 -2686.492919921875 1584.095947265625 L -2686.51806640625 1581.984985351562 C -2686.51806640625 1581.8310546875 -2686.75390625 1581.8310546875 -2686.801025390625 1581.8310546875 L -2687.757080078125 1581.8310546875 C -2688.39111328125 1581.828002929688 -2688.9560546875 1581.427978515625 -2689.169921875 1580.8310546875 L -2689.169921875 1580.791015625 C -2689.385986328125 1580.235961914062 -2689.257080078125 1579.60498046875 -2688.841064453125 1579.178955078125 L -2688.071044921875 1578.410034179688 C -2688.011962890625 1578.349975585938 -2688.011962890625 1578.253051757812 -2688.071044921875 1578.192993164062 L -2689.569091796875 1576.696044921875 C -2689.576904296875 1576.683959960938 -2689.587890625 1576.672973632812 -2689.60107421875 1576.663940429688 C -2689.6611328125 1576.621826171875 -2689.742919921875 1576.635986328125 -2689.785888671875 1576.696044921875 L -2690.4189453125 1577.322021484375 C -2690.8759765625 1577.783081054688 -2691.56982421875 1577.916015625 -2692.166015625 1577.656005859375 L -2692.2548828125 1577.619018554688 C -2692.83203125 1577.366943359375 -2693.205078125 1576.796020507812 -2693.2041015625 1576.166015625 L -2693.2041015625 1575.280029296875 C -2693.2041015625 1575.194946289062 -2693.27294921875 1575.1259765625 -2693.35791015625 1575.1259765625 L -2695.468017578125 1575.1259765625 M -2695.468017578125 1574.1259765625 L -2693.35791015625 1574.1259765625 C -2692.7216796875 1574.1259765625 -2692.2041015625 1574.643676757812 -2692.2041015625 1575.280029296875 L -2692.2041015625 1576.166015625 C -2692.204345703125 1576.397338867188 -2692.070068359375 1576.605590820312 -2691.86083984375 1576.699829101562 L -2691.78173828125 1576.732788085938 C -2691.776611328125 1576.734985351562 -2691.771240234375 1576.737182617188 -2691.76611328125 1576.739501953125 C -2691.693115234375 1576.771362304688 -2691.615966796875 1576.787475585938 -2691.53662109375 1576.787475585938 C -2691.38232421875 1576.787475585938 -2691.237548828125 1576.727294921875 -2691.129150390625 1576.617919921875 C -2691.126708984375 1576.615600585938 -2691.12451171875 1576.61328125 -2691.1220703125 1576.610961914062 L -2690.51953125 1576.015258789062 C -2690.305908203125 1575.778198242188 -2689.99951171875 1575.639770507812 -2689.67724609375 1575.639770507812 C -2689.44482421875 1575.639770507812 -2689.22119140625 1575.7099609375 -2689.030517578125 1575.8427734375 C -2688.95458984375 1575.895385742188 -2688.88623046875 1575.956176757812 -2688.826416015625 1576.0244140625 L -2687.3642578125 1577.485595703125 C -2687.3623046875 1577.487670898438 -2687.360107421875 1577.489624023438 -2687.358154296875 1577.49169921875 C -2686.9189453125 1577.938232421875 -2686.9189453125 1578.664916992188 -2687.358154296875 1579.111450195312 C -2687.3603515625 1579.113525390625 -2687.3623046875 1579.115600585938 -2687.364501953125 1579.11767578125 L -2688.12890625 1579.880981445312 C -2688.268310546875 1580.026245117188 -2688.31103515625 1580.240600585938 -2688.238037109375 1580.42822265625 C -2688.220458984375 1580.4736328125 -2688.2060546875 1580.520263671875 -2688.1953125 1580.567504882812 C -2688.107177734375 1580.72705078125 -2687.93798828125 1580.830200195312 -2687.752197265625 1580.8310546875 L -2686.801025390625 1580.8310546875 C -2685.96337890625 1580.8310546875 -2685.52294921875 1581.4052734375 -2685.51806640625 1581.975708007812 L -2685.492919921875 1584.083984375 C -2685.492919921875 1584.088012695312 -2685.492919921875 1584.092041015625 -2685.492919921875 1584.095947265625 C -2685.492919921875 1584.732299804688 -2686.010498046875 1585.25 -2686.64697265625 1585.25 L -2687.947021484375 1585.25 C -2688.201904296875 1585.26220703125 -2688.40234375 1585.477172851562 -2688.3955078125 1585.73388671875 C -2688.392333984375 1585.848876953125 -2688.347412109375 1585.958251953125 -2688.269287109375 1586.042724609375 L -2687.35205078125 1586.959838867188 C -2686.90234375 1587.40966796875 -2686.90234375 1588.141357421875 -2687.35205078125 1588.591186523438 L -2688.817138671875 1590.056518554688 C -2689.03076171875 1590.29736328125 -2689.33935546875 1590.437866210938 -2689.665283203125 1590.437866210938 C -2689.897705078125 1590.437866210938 -2690.121337890625 1590.36767578125 -2690.312255859375 1590.234741210938 C -2690.386962890625 1590.182861328125 -2690.454833984375 1590.121948242188 -2690.514892578125 1590.053100585938 L -2691.54052734375 1589.026611328125 C -2691.6376953125 1588.932250976562 -2691.749267578125 1588.918090820312 -2691.807373046875 1588.918090820312 C -2691.8671875 1588.918090820312 -2691.982177734375 1588.932983398438 -2692.08056640625 1589.032836914062 C -2692.149658203125 1589.102905273438 -2692.1884765625 1589.195190429688 -2692.18994140625 1589.292602539062 L -2692.18994140625 1590.791015625 C -2692.18994140625 1591.42724609375 -2692.707763671875 1591.944946289062 -2693.343994140625 1591.944946289062 L -2695.4541015625 1591.944946289062 C -2696.09033203125 1591.944946289062 -2696.60791015625 1591.42724609375 -2696.60791015625 1590.791015625 L -2696.60791015625 1589.287963867188 C -2696.608154296875 1589.07958984375 -2696.77880859375 1588.909057617188 -2696.988037109375 1588.909057617188 C -2697.08740234375 1588.909057617188 -2697.18408203125 1588.948974609375 -2697.253173828125 1589.018432617188 L -2698.287841796875 1590.05224609375 C -2698.50146484375 1590.29248046875 -2698.8095703125 1590.4326171875 -2699.134521484375 1590.4326171875 C -2699.366943359375 1590.4326171875 -2699.589599609375 1590.362670898438 -2699.7802734375 1590.230102539062 C -2699.855224609375 1590.178466796875 -2699.923095703125 1590.118041992188 -2699.9833984375 1590.0498046875 L -2701.447021484375 1588.586181640625 C -2701.896728515625 1588.136352539062 -2701.896728515625 1587.404663085938 -2701.447021484375 1586.954833984375 L -2700.524658203125 1586.031616210938 C -2700.390625 1585.893310546875 -2700.35400390625 1585.682739257812 -2700.433837890625 1585.506713867188 C -2700.505859375 1585.34765625 -2700.664794921875 1585.244995117188 -2700.839111328125 1585.244995117188 L -2702.155029296875 1585.244995117188 C -2702.791259765625 1585.244995117188 -2703.30908203125 1584.727294921875 -2703.30908203125 1584.090942382812 L -2703.30908203125 1581.98095703125 C -2703.30908203125 1581.407470703125 -2702.868408203125 1580.827026367188 -2702.02587890625 1580.827026367188 L -2701.070068359375 1580.827026367188 C -2700.88427734375 1580.826416015625 -2700.712890625 1580.721557617188 -2700.62548828125 1580.5595703125 C -2700.614990234375 1580.516967773438 -2700.601806640625 1580.474975585938 -2700.585693359375 1580.433959960938 C -2700.51220703125 1580.244750976562 -2700.5556640625 1580.02978515625 -2700.69677734375 1579.885620117188 L -2701.462646484375 1579.118530273438 C -2701.679443359375 1578.901977539062 -2701.7998046875 1578.6123046875 -2701.7998046875 1578.304077148438 C -2701.800048828125 1577.995727539062 -2701.679931640625 1577.705810546875 -2701.4619140625 1577.48779296875 L -2699.99658203125 1576.022216796875 C -2699.783203125 1575.781982421875 -2699.47509765625 1575.641845703125 -2699.149658203125 1575.641845703125 C -2698.916015625 1575.641845703125 -2698.69140625 1575.712524414062 -2698.5 1575.846435546875 C -2698.42919921875 1575.895874023438 -2698.3642578125 1575.953247070312 -2698.306396484375 1576.017456054688 L -2697.699951171875 1576.623901367188 C -2697.5888671875 1576.735717773438 -2697.44384765625 1576.796020507812 -2697.289306640625 1576.796020507812 C -2697.212158203125 1576.796020507812 -2697.136962890625 1576.78076171875 -2697.065673828125 1576.750610351562 L -2696.982666015625 1576.713134765625 C -2696.978759765625 1576.71142578125 -2696.974853515625 1576.709716796875 -2696.970947265625 1576.7080078125 C -2696.759033203125 1576.615844726562 -2696.6220703125 1576.406982421875 -2696.6220703125 1576.176025390625 L -2696.6220703125 1575.280029296875 C -2696.6220703125 1574.643676757812 -2696.104248046875 1574.1259765625 -2695.468017578125 1574.1259765625 Z" stroke="none" fill="none"/>
    </g>
    <path id="Path_1648" data-name="Path 1648" d="M-2694.4,1585.734a2.7,2.7,0,0,1-2.7-2.7,2.7,2.7,0,0,1,2.7-2.7,2.7,2.7,0,0,1,2.7,2.7A2.7,2.7,0,0,1-2694.4,1585.734Z" fill="none" stroke-linecap="round" stroke-linejoin="round" stroke-width="1"/>
  </g>
</svg>
