<svg width="19" height="20" viewBox="0 0 19 20" fill="none" xmlns="http://www.w3.org/2000/svg">
  <path d="M15.6564 14.08C14.8687 14.08 14.1639 14.38 13.6249 14.85L6.2349 10.7C6.28673 10.47 6.32818 10.24 6.32818 10C6.32818 9.76 6.28673 9.53 6.2349 9.3L13.542 5.19C14.1017 5.69 14.8376 6 15.6564 6C17.3769 6 18.7658 4.66 18.7658 3C18.7658 1.34 17.3769 0 15.6564 0C13.9359 0 12.547 1.34 12.547 3C12.547 3.24 12.5885 3.47 12.6403 3.7L5.33318 7.81C4.77348 7.31 4.03759 7 3.21878 7C1.49824 7 0.109375 8.34 0.109375 10C0.109375 11.66 1.49824 13 3.21878 13C4.03759 13 4.77348 12.69 5.33318 12.19L12.7128 16.35C12.661 16.56 12.6299 16.78 12.6299 17C12.6299 18.61 13.9877 19.92 15.6564 19.92C17.3251 19.92 18.6829 18.61 18.6829 17C18.6829 15.39 17.3251 14.08 15.6564 14.08Z" fill="none"/>
</svg>
