<svg width="91" height="66" viewBox="0 0 91 66" fill="none" xmlns="http://www.w3.org/2000/svg">
<g clip-path="url(#clip0_1594_5653)">
<path d="M61.8008 17.8002V57.1002H67.1008V65.0002H29.8008V32.8002H34.6008V9.6002H29.8008V0.700195H67.1008V17.8002H61.8008Z"  stroke-width="1.4" stroke-miterlimit="10" stroke-linecap="round" stroke-linejoin="round"/>
<path d="M39.6016 6.40039H57.3016"  stroke-width="1.4" stroke-miterlimit="10" stroke-linecap="round" stroke-linejoin="round"/>
<path d="M48.4016 28.4003C50.7764 28.4003 52.7016 26.4751 52.7016 24.1003C52.7016 21.7255 50.7764 19.8003 48.4016 19.8003C46.0267 19.8003 44.1016 21.7255 44.1016 24.1003C44.1016 26.4751 46.0267 28.4003 48.4016 28.4003Z"  stroke-width="1.4" stroke-miterlimit="10" stroke-linecap="round" stroke-linejoin="round"/>
<path d="M48.4008 60.6004C49.8367 60.6004 51.0008 59.4363 51.0008 58.0004C51.0008 56.5644 49.8367 55.4004 48.4008 55.4004C46.9648 55.4004 45.8008 56.5644 45.8008 58.0004C45.8008 59.4363 46.9648 60.6004 48.4008 60.6004Z"  stroke-width="1.4" stroke-miterlimit="10" stroke-linecap="round" stroke-linejoin="round"/>
<path d="M57.2016 42.4002C57.2016 36.2002 53.3016 31.2002 48.4016 31.2002C43.5016 31.2002 39.6016 36.2002 39.6016 42.4002H57.2016Z"  stroke-width="1.4" stroke-miterlimit="10" stroke-linecap="round" stroke-linejoin="round"/>
<path d="M0.699219 9.6001V32.8001H34.5992V9.6001H0.699219ZM11.7992 27.8001C7.99922 27.8001 4.89922 24.7001 4.89922 20.9001C4.89922 18.0001 6.59922 15.6001 9.09922 14.6001C9.89922 14.2001 10.7992 14.1001 11.7992 14.1001C15.5992 14.1001 18.6992 17.2001 18.6992 21.0001C18.5992 24.7001 15.4992 27.8001 11.7992 27.8001Z"  stroke-width="1.4" stroke-miterlimit="10" stroke-linecap="round" stroke-linejoin="round"/>
<path d="M17.6984 24.3C16.4984 26.4 14.2984 27.7 11.7984 27.7C7.99844 27.7 4.89844 24.6 4.89844 20.8C4.89844 17.9 6.59844 15.5 9.09844 14.5C9.89844 14.1 10.7984 14 11.7984 14C15.5984 14 18.6984 17.1 18.6984 20.9C18.5984 22.2 18.2984 23.3 17.6984 24.3Z"  stroke-width="1.4" stroke-miterlimit="10" stroke-linecap="round" stroke-linejoin="round"/>
<path d="M11.6992 14V20.9L17.6992 24.3"  stroke-width="1.4" stroke-miterlimit="10" stroke-linecap="round" stroke-linejoin="round"/>
<path d="M22.3984 18.1001H30.7984"  stroke-width="1.4" stroke-miterlimit="10" stroke-linecap="round" stroke-linejoin="round"/>
<path d="M22.3984 21.9004H30.7984"  stroke-width="1.4" stroke-miterlimit="10" stroke-linecap="round" stroke-linejoin="round"/>
<path d="M22.3984 25.7002H30.7984"  stroke-width="1.4" stroke-miterlimit="10" stroke-linecap="round" stroke-linejoin="round"/>
<path d="M61.8008 17.8003V57.1003H89.7008V17.8003H61.8008ZM71.0008 39.3003H67.1008V34.3003H71.0008V39.3003ZM77.7008 39.3003H73.8008V30.1003H77.7008V39.3003ZM84.4008 39.3003H80.5008V25.7003H84.4008V39.3003Z"  stroke-width="1.4" stroke-miterlimit="10" stroke-linecap="round" stroke-linejoin="round"/>
<path d="M71.0992 34.4004H67.1992V39.4004H71.0992V34.4004Z"  stroke-width="1.4" stroke-miterlimit="10" stroke-linecap="round" stroke-linejoin="round"/>
<path d="M77.7008 30.1001H73.8008V39.3001H77.7008V30.1001Z"  stroke-width="1.4" stroke-miterlimit="10" stroke-linecap="round" stroke-linejoin="round"/>
<path d="M84.4 25.7002H80.5V39.4002H84.4V25.7002Z"  stroke-width="1.4" stroke-miterlimit="10" stroke-linecap="round" stroke-linejoin="round"/>
</g>
<defs>
<clipPath id="clip0_1594_5653">
<rect width="90.4" height="65.7" fill="white"/>
</clipPath>
</defs>
</svg>
