<svg width="34" height="34" viewBox="0 0 34 34" fill="none" xmlns="http://www.w3.org/2000/svg">
<circle cx="17" cy="17" r="17" fill="#F8C5AF"/>
<path d="M14.7351 16.6317C14.976 16.5081 15.2178 16.3817 15.4599 16.253L14.8437 25.1875H6.34375C6.08487 25.1875 5.875 25.3974 5.875 25.6562C5.875 25.9151 6.08487 26.125 6.34375 26.125H27.6562C27.9151 26.125 28.125 25.9151 28.125 25.6562C28.125 25.3974 27.9151 25.1875 27.6562 25.1875H19.1563L18.5401 16.253C18.7822 16.3817 19.024 16.5081 19.2649 16.6317C19.6303 16.8192 19.9858 16.996 20.3292 17.1604C21.639 17.7879 22.696 18.2173 23.4891 18.3849C23.8855 18.4687 24.2268 18.4895 24.5052 18.4298C24.7888 18.369 25.0076 18.2241 25.1461 17.9844C25.4011 17.5425 25.2388 17.0528 24.8174 16.5313C24.3934 16.0067 23.6755 15.4069 22.7155 14.7113C22.3349 14.4355 21.9193 14.1493 21.4739 13.8547C20.753 13.3781 19.9846 12.8995 19.1974 12.4294C19.0765 12.3572 18.958 12.287 18.8414 12.2183C18.8392 11.9733 18.8356 11.7207 18.8302 11.4447C18.8122 10.5318 18.777 9.64344 18.7203 8.80889C18.6143 7.25049 18.4603 6.03352 18.206 5.20369C18.0789 4.78898 17.9237 4.46013 17.7285 4.23307C17.5297 4.00198 17.2877 3.875 17 3.875C16.7123 3.875 16.4703 4.00198 16.2715 4.23307C16.0763 4.46013 15.9211 4.78898 15.794 5.20369C15.5397 6.03352 15.3857 7.25049 15.2797 8.80889C15.223 9.64344 15.1878 10.5318 15.1698 11.4447C15.1644 11.7207 15.1608 11.9733 15.1586 12.2183C15.042 12.287 14.9235 12.3572 14.8026 12.4294C14.0154 12.8995 13.247 13.3781 12.5261 13.8547C12.0807 14.1493 11.6651 14.4355 11.2845 14.7113C10.3245 15.4069 9.60659 16.0067 9.18265 16.5313C8.76123 17.0528 8.59885 17.5425 8.85395 17.9844C8.99238 18.2241 9.21122 18.369 9.49476 18.4298C9.77324 18.4895 10.1145 18.4687 10.5109 18.3849C11.304 18.2173 12.361 17.7879 13.6708 17.1604C14.0142 16.996 14.3697 16.8192 14.7351 16.6317ZM17.8967 11.6699C17.6312 11.5219 17.3253 11.4375 17 11.4375C16.6747 11.4375 16.3688 11.5219 16.1033 11.6699C16.1045 11.6024 16.1057 11.5336 16.1071 11.4632C16.1249 10.5636 16.1595 9.69005 16.2151 8.87247C16.3002 7.62063 16.4406 6.58326 16.6016 5.8613C16.6824 5.49939 16.7671 5.22232 16.8501 5.03836C16.8918 4.94585 16.9302 4.88352 16.9628 4.8463C16.9822 4.82415 16.9946 4.81625 17 4.81355C17.0054 4.81625 17.0178 4.82415 17.0372 4.8463C17.0698 4.88352 17.1082 4.94585 17.1499 5.03836C17.2329 5.22232 17.3176 5.49939 17.3984 5.8613C17.5594 6.58326 17.6998 7.62063 17.7849 8.87247C17.8405 9.69005 17.8751 10.5636 17.8929 11.4632C17.8943 11.5336 17.8955 11.6024 17.8967 11.6699ZM17.9471 14.8634C18.4764 14.5459 18.8334 13.9703 18.8435 13.3102C19.5754 13.7493 20.288 14.1946 20.9568 14.6368C21.3921 14.9245 21.7967 15.2032 22.1654 15.4704C22.9209 16.0179 23.4987 16.5085 23.8698 16.888C24.0559 17.0784 24.186 17.2367 24.2609 17.3573C24.2985 17.418 24.3187 17.4635 24.3269 17.4948C24.3295 17.5044 24.3306 17.5112 24.331 17.5158C24.3251 17.5189 24.314 17.5235 24.2943 17.5278C24.2509 17.5372 24.1848 17.5404 24.0926 17.5328C23.9092 17.5178 23.6506 17.4624 23.3251 17.3651C22.6757 17.1711 21.7817 16.8167 20.7342 16.3149C20.399 16.1544 20.0511 15.9814 19.6928 15.7976C19.1143 15.5008 18.5294 15.1868 17.9471 14.8634ZM13.0432 14.6368C13.712 14.1946 14.4246 13.7493 15.1565 13.3102C15.1666 13.9703 15.5236 14.5459 16.0529 14.8634C15.4706 15.1868 14.8857 15.5008 14.3072 15.7976C13.9489 15.9814 13.601 16.1544 13.2658 16.3149C12.2183 16.8167 11.3243 17.1711 10.6749 17.3651C10.3494 17.4624 10.0908 17.5178 9.90741 17.5328C9.8152 17.5404 9.74909 17.5372 9.70573 17.5278C9.68604 17.5235 9.6749 17.5189 9.66903 17.5158C9.66944 17.5112 9.67051 17.5044 9.67306 17.4948C9.68134 17.4635 9.70147 17.418 9.73912 17.3573C9.81398 17.2367 9.94407 17.0784 10.1302 16.888C10.5013 16.5085 11.0791 16.0179 11.8346 15.4704C12.2033 15.2032 12.6079 14.9245 13.0432 14.6368ZM17.9062 13.2812C17.9062 13.7818 17.5005 14.1875 17 14.1875C16.4995 14.1875 16.0938 13.7818 16.0938 13.2812C16.0938 12.7807 16.4995 12.375 17 12.375C17.5005 12.375 17.9062 12.7807 17.9062 13.2812ZM15.7834 25.1875L16.4356 15.7313C16.4357 15.731 16.4358 15.7307 16.4359 15.7305C16.4372 15.7277 16.4387 15.7243 16.4405 15.7205C16.5646 15.6517 16.6886 15.5826 16.8123 15.5131C16.8758 15.4775 16.9383 15.4422 17 15.4074C17.0617 15.4422 17.1242 15.4775 17.1877 15.5131C17.3118 15.5828 17.4362 15.6522 17.5607 15.7212C17.5619 15.7238 17.5629 15.726 17.5637 15.728C17.5639 15.7286 17.5641 15.729 17.5643 15.7295L18.2166 25.1875H15.7834Z" fill="#C97658" stroke="#C97658" stroke-width="0.25"/>
</svg>
