<svg width="34" height="34" viewBox="0 0 34 34" fill="none" xmlns="http://www.w3.org/2000/svg">
<circle cx="17" cy="17" r="17" fill="#BABABA"/>
<path d="M18.2299 10.1351C17.9864 10.1339 17.7431 10.1509 17.5022 10.1859C16.9137 9.28043 16.054 8.58282 15.0448 8.1937C14.0046 7.79263 12.8621 7.74109 11.79 8.04687C10.7179 8.35264 9.77452 8.99912 9.10241 9.88856C8.43029 10.778 8.066 11.8621 8.06459 12.9769V12.9771V12.9779V12.9787V12.9794V12.9802V12.981V12.9818V12.9825V12.9833V12.9841V12.9849V12.9856V12.9864V12.9872V12.9879V12.9887V12.9895V12.9903V12.991V12.9918V12.9926V12.9934V12.9941V12.9949V12.9957V12.9964V12.9972V12.998V12.9988V12.9995V13.0003V13.0011V13.0019V13.0026V13.0034V13.0042V13.0049V13.0057V13.0065V13.0073V13.008V13.0088V13.0096V13.0103V13.0111V13.0119V13.0126V13.0134V13.0142V13.015V13.0157V13.0165V13.0173V13.018V13.0188V13.0196V13.0203V13.0211V13.0219V13.0226V13.0234V13.0242V13.025V13.0257V13.0265V13.0273V13.028V13.0288V13.0296V13.0303V13.0311V13.0319V13.0326V13.0334V13.0342V13.0349V13.0357V13.0365V13.0372V13.038V13.0388V13.0395V13.0403V13.0411V13.0418V13.0426V13.0434V13.0441V13.0449V13.0457V13.0464V13.0472V13.048V13.0487V13.0495V13.0503V13.051V13.0518V13.0526V13.0533V13.0541V13.0548V13.0556V13.0564V13.0571V13.0579V13.0587V13.0594V13.0602V13.061V13.0617V13.0625V13.0633V13.064V13.0648V13.0655V13.0663V13.0671V13.0678V13.0686V13.0694V13.0701V13.0709V13.0716V13.0724V13.0732V13.0739V13.0747V13.0754V13.0762V13.077V13.0777V13.0785V13.0793V13.08V13.0808V13.0815V13.0823V13.0831V13.0838V13.0846V13.0853V13.0861V13.0869V13.0876V13.0884V13.0891V13.0899V13.0907V13.0914V13.0922V13.0929V13.0937V13.0944V13.0952V13.096V13.0967V13.0975V13.0982V13.099V13.0998V13.1005V13.1013V13.102V13.1028V13.1035V13.1043V13.1051V13.1058V13.1066V13.1073V13.1081V13.1088V13.1096V13.1103V13.1111V13.1119V13.1126V13.1134V13.1141V13.1149V13.1156V13.1164V13.1171V13.1179V13.1187V13.1194V13.1202V13.1209V13.1217V13.1224V13.1232V13.1239V13.1247V13.1254V13.1262V13.1269V13.1277V13.1285V13.1292V13.13V13.1307V13.1315V13.1322V13.133V13.1337V13.1345V13.1352V13.136V13.1367V13.1375V13.1382V13.139V13.1397V13.1405V13.1412V13.142V13.1427V13.1435V13.1442V13.145V13.1457V13.1465V13.1472V13.148V13.1487V13.1495V13.1502V13.151V13.1517V13.1525V13.1532V13.154V13.1547V13.1555V13.1562V13.157V13.1577V13.1585V13.1592V13.16V13.1607V13.1615V13.1622V13.163V13.1637V13.1644V13.1652V13.1659V13.1667V13.1674V13.1682V13.1689V13.1697V13.1704V13.1712V13.1719V13.1726V13.1734V13.1741V13.1749V13.1756V13.1764V13.1771V13.1779V13.1786V13.1793V13.1801V13.1808V13.1816V13.1823V13.1831V13.1838V13.1846V13.1853V13.186V13.1868V13.1875V13.1883V13.189V13.1897V13.1905V13.1912V13.192V13.1927V13.1935V13.1942V13.1949V13.1957V13.1964V13.1972V13.1979V13.1986V13.1994V13.2001V13.2009V13.2016V13.2023V13.2031V13.2038V13.2046V13.2053V13.206V13.2068V13.2075V13.2083V13.209V13.2097V13.2105V13.2112V13.2119V13.2127V13.2134V13.2142V13.2149V13.2156V13.2164V13.2171V13.2178V13.2186V13.2193V13.22V13.2208V13.2215V13.2223V13.223V13.2237V13.2245V13.2252V13.2259V13.2267V13.2274V13.2281V13.2289V13.2296V13.2303V13.2311V13.2318V13.2325V13.2333V13.234V13.2347V13.2355V13.2362V13.2369V13.2377V13.2384V13.2391V13.2399V13.2406V13.2413V13.2421V13.2428V13.2435V13.2442V13.245V13.2457V13.2464V13.2472V13.2479V13.2486V13.2494V13.2501V13.2508V13.2516V13.2523V13.253V13.2537V13.2545V13.2552V13.2553C6.9854 13.6902 6.08488 14.4794 5.51224 15.4946C4.92257 16.54 4.71786 17.759 4.93369 18.9397C5.14952 20.1204 5.77224 21.1881 6.69362 21.9573C7.615 22.7265 8.77678 23.1485 9.97702 23.15H9.97721H24.1863C25.5478 23.15 26.8535 22.6092 27.8162 21.6465C28.7789 20.6838 29.3197 19.3781 29.3197 18.0166C29.3197 16.6551 28.7789 15.3494 27.8162 14.3867C26.8889 13.4594 25.6434 12.9236 24.3363 12.8854V12.8795L24.1866 12.8792C23.7392 12.8783 23.2938 12.9372 22.8623 13.0542C22.4531 12.2015 21.8164 11.4774 21.0213 10.9622C20.1898 10.4236 19.2206 10.1364 18.2299 10.1351ZM18.2299 10.1351C18.23 10.1351 18.2301 10.1351 18.2302 10.1351L18.2295 10.2851L18.2296 10.1351C18.2297 10.1351 18.2298 10.1351 18.2299 10.1351ZM24.3363 22.058V22.0448H24.1863H9.98167C9.01589 22.0419 8.08325 21.6924 7.35338 21.0599C6.62351 20.4274 6.14489 19.554 6.00457 18.5984C5.86426 17.6429 6.07157 16.6687 6.5888 15.8531C7.10599 15.0376 7.89868 14.4348 8.82272 14.1543C8.95082 14.1158 9.06056 14.0321 9.13145 13.9187C9.20238 13.8052 9.22955 13.6698 9.20787 13.5377L9.20786 13.5377C9.17733 13.3518 9.16325 13.1635 9.16579 12.9751L9.16578 12.9727C9.16337 12.0748 9.46076 11.2017 10.0108 10.4919C10.5609 9.78216 11.3321 9.2763 12.2022 9.05455C13.0724 8.8328 13.9916 8.90785 14.8143 9.2678C15.6368 9.6277 16.3157 10.2518 16.7434 11.0413C16.801 11.1489 16.8928 11.2343 17.0043 11.2841C17.1153 11.3337 17.2396 11.3451 17.3578 11.3166C17.6425 11.2547 17.9338 11.2277 18.2251 11.2362L18.2251 11.2363L18.2291 11.2363C19.0649 11.2386 19.8795 11.4998 20.5609 11.984C21.2421 12.4681 21.7567 13.1514 22.0337 13.9399C22.0576 14.0093 22.0952 14.0732 22.1442 14.1279C22.1934 14.1827 22.2531 14.2272 22.3198 14.2585L22.3197 14.2586L22.3251 14.2609C22.3931 14.2897 22.4661 14.3045 22.5399 14.3045C22.6128 14.3045 22.685 14.29 22.7523 14.2619C23.2094 14.0848 23.6956 13.9948 24.1858 13.9964H24.1863C25.2557 13.9964 26.2813 14.4212 27.0375 15.1774C27.7937 15.9336 28.2185 16.9592 28.2185 18.0286C28.2185 19.098 27.7937 20.1236 27.0375 20.8798C26.3168 21.6006 25.3512 22.0203 24.3363 22.058Z" fill="#7B7B7B" stroke="#7B7B7B" stroke-width="0.3"/>
<path fill-rule="evenodd" clip-rule="evenodd" d="M20.4596 16.295C20.0357 16.2884 19.5622 16.5965 19.5166 17.0849L19.4901 17.3714H20.1207C20.1356 17.1428 20.3388 17.0038 20.4973 17.0169C20.6513 17.0299 20.8261 17.1625 20.7954 17.3549C20.7909 17.5946 20.5941 17.7374 20.4331 17.8519C20.1367 18.0519 19.7893 18.2265 19.6221 18.5874C19.4769 18.9019 19.4859 19.1702 19.4901 19.4997H21.4913V18.7791H20.3405C20.6161 18.5308 20.9668 18.3934 21.192 18.0738C21.4417 17.7295 21.5295 17.1978 21.3125 16.807C21.1343 16.4804 20.794 16.2934 20.4596 16.295Z" fill="#7B7B7B"/>
<path fill-rule="evenodd" clip-rule="evenodd" d="M12.9208 14.7191C12.5292 14.6513 12.1173 14.7069 11.747 14.8977C11.0043 15.2804 10.5832 16.107 10.6903 16.9521C10.7963 17.7987 11.4134 18.4888 12.2275 18.6585C13.0417 18.8279 13.8684 18.4318 14.2792 17.6904L13.7138 17.3723C13.4353 17.8753 12.8943 18.1304 12.3586 18.0177C11.823 17.9068 11.4062 17.4503 11.3331 16.8723C11.2605 16.2935 11.5491 15.7336 12.0416 15.4812C12.5338 15.2276 13.1185 15.3253 13.5102 15.7336L13.9744 15.2801C13.6824 14.9772 13.3119 14.7865 12.9208 14.7191Z" fill="#7B7B7B"/>
<path fill-rule="evenodd" clip-rule="evenodd" d="M17.0807 15.3437C17.8136 15.3437 18.4109 15.9389 18.4109 16.6937C18.4109 17.4493 17.8133 18.0434 17.0807 18.0434C16.3489 18.0434 15.7517 17.4493 15.7517 16.6937C15.7517 15.9392 16.3489 15.3437 17.0807 15.3437ZM17.0807 14.6914C15.9722 14.6914 15.0801 15.5988 15.0801 16.6937C15.0801 17.79 15.9722 18.6974 17.0807 18.6974C18.1903 18.6974 19.086 17.7903 19.086 16.6937C19.086 15.5988 18.1903 14.6914 17.0807 14.6914Z" fill="#7B7B7B"/>
</svg>
