<svg width="34" height="34" viewBox="0 0 34 34" fill="none" xmlns="http://www.w3.org/2000/svg">
<circle cx="17" cy="17" r="17" fill="#A6F2CC"/>
<path d="M24.7637 11.5142V17.1281C24.7637 17.8392 24.3486 18.5129 23.7072 18.8497L18.01 21.8064C17.4441 22.1058 16.7649 22.1058 16.199 21.8064L11.7091 19.486L10.5018 18.8497C9.86034 18.5129 9.44531 17.8392 9.44531 17.1281V11.5142C9.44531 10.8031 9.86034 10.1294 10.5018 9.79256L16.2367 6.83589C16.8027 6.53648 17.4818 6.53648 18.0477 6.83589L23.745 9.79256C24.3486 10.1294 24.7637 10.7656 24.7637 11.5142Z" stroke="#008480" stroke-width="1.4" stroke-miterlimit="10" stroke-linecap="round" stroke-linejoin="round"/>
<path d="M17.1035 11.4766V27.6447" stroke="#008480" stroke-width="1.4" stroke-miterlimit="10" stroke-linecap="round" stroke-linejoin="round"/>
<path d="M20.7256 13.7227L17.1035 15.8934" stroke="#008480" stroke-width="1.4" stroke-miterlimit="10" stroke-linecap="round" stroke-linejoin="round"/>
<path d="M14.168 17L17.0732 18.4971" stroke="#008480" stroke-width="1.4" stroke-miterlimit="10" stroke-linecap="round" stroke-linejoin="round"/>
</svg>
