<svg width="34" height="34" viewBox="0 0 34 34" fill="none" xmlns="http://www.w3.org/2000/svg">
<circle cx="17" cy="17" r="17" fill="#C6F1ED"/>
<path d="M11.2575 16.1914L8 25.3488H26.6483L23.3908 16.1914H20.6115" stroke="#53B5AC" stroke-width="1.2" stroke-miterlimit="10" stroke-linecap="round" stroke-linejoin="round"/>
<path d="M17.3164 8.88057V12.1789C17.3164 12.5967 17.0726 12.9925 16.6957 13.1904L13.3484 14.9276C13.0159 15.1035 12.6169 15.1035 12.2844 14.9276L9.64646 13.5642L8.9371 13.1904C8.56025 12.9925 8.31641 12.5967 8.31641 12.1789V8.88057C8.31641 8.46277 8.56025 8.06697 8.9371 7.86907L12.3066 6.13193C12.6391 5.95602 13.0381 5.95602 13.3706 6.13193L16.7179 7.86907C17.0726 8.06697 17.3164 8.44079 17.3164 8.88057Z" fill="#C6F1ED" stroke="#53B5AC" stroke-width="1.2" stroke-miterlimit="10" stroke-linecap="round" stroke-linejoin="round"/>
<path d="M12.8164 8.85938V18.3586" stroke="#53B5AC" stroke-width="1.2" stroke-miterlimit="10" stroke-linecap="round" stroke-linejoin="round"/>
<path d="M14.9445 10.1777L12.8164 11.4531" stroke="#53B5AC" stroke-width="1.2" stroke-miterlimit="10" stroke-linecap="round" stroke-linejoin="round"/>
<path d="M11.0918 12.1035L12.7987 12.9831" stroke="#53B5AC" stroke-width="1.2" stroke-miterlimit="10" stroke-linecap="round" stroke-linejoin="round"/>
<path d="M25.3164 11.8806V15.1789C25.3164 15.5967 25.0726 15.9925 24.6957 16.1904L21.3484 17.9276C21.0159 18.1035 20.6169 18.1035 20.2844 17.9276L17.6465 16.5642L16.9371 16.1904C16.5602 15.9925 16.3164 15.5967 16.3164 15.1789V11.8806C16.3164 11.4628 16.5602 11.067 16.9371 10.8691L20.3066 9.13193C20.6391 8.95602 21.0381 8.95602 21.3706 9.13193L24.7179 10.8691C25.0726 11.067 25.3164 11.4408 25.3164 11.8806Z" fill="#C6F1ED" stroke="#53B5AC" stroke-width="1.2" stroke-miterlimit="10" stroke-linecap="round" stroke-linejoin="round"/>
<path d="M20.8164 11.8594V21.3586" stroke="#53B5AC" stroke-width="1.2" stroke-miterlimit="10" stroke-linecap="round" stroke-linejoin="round"/>
<path d="M22.9445 13.1777L20.8164 14.4531" stroke="#53B5AC" stroke-width="1.2" stroke-miterlimit="10" stroke-linecap="round" stroke-linejoin="round"/>
<path d="M19.0918 15.1035L20.7987 15.9831" stroke="#53B5AC" stroke-width="1.2" stroke-miterlimit="10" stroke-linecap="round" stroke-linejoin="round"/>
</svg>
