<svg width="34" height="34" viewBox="0 0 34 34" fill="none" xmlns="http://www.w3.org/2000/svg">
<circle cx="17" cy="17" r="17" fill="#D7ECF9"/>
<path d="M24.9547 14.432C24.9786 14.3743 25.017 14.3216 25.0601 14.2785C25.1035 14.2351 25.1562 14.1969 25.2139 14.1728C25.3339 14.1247 25.4681 14.1247 25.5835 14.1728C25.6409 14.1969 25.6938 14.2351 25.7419 14.2785C25.785 14.3216 25.8185 14.3743 25.8427 14.432C25.8666 14.4896 25.8809 14.552 25.8809 14.6192C25.8809 14.7439 25.8281 14.8688 25.7419 14.9551C25.6938 14.9984 25.6409 15.0369 25.5835 15.0608C25.5258 15.0847 25.4635 15.0943 25.4009 15.0943C25.3385 15.0943 25.2762 15.0847 25.2139 15.0608C25.1562 15.0369 25.1035 14.9984 25.0601 14.9551C24.969 14.8688 24.9209 14.7439 24.9209 14.6192C24.9209 14.552 24.9305 14.4943 24.9547 14.432Z" fill="#4D6D8C"/>
<mask id="path-3-outside-1_4804_20755" maskUnits="userSpaceOnUse" x="6" y="5" width="22" height="23" fill="black">
<rect fill="white" x="6" y="5" width="22" height="23"/>
<path d="M8.29848 6.00145C8.10213 6.01031 7.91004 6.06167 7.73543 6.15191C7.56083 6.24216 7.40786 6.36917 7.28707 6.52422C7.16629 6.67927 7.08055 6.85867 7.03577 7.05005C6.99098 7.24142 6.98822 7.44027 7.02767 7.63282C7.72866 10.9385 9.32796 13.9866 11.6496 16.4419C10.7215 16.3519 9.82087 16.0771 9.00061 15.6337C8.68376 15.4669 8.31392 15.4318 7.97137 15.5361C7.62881 15.6403 7.3412 15.8754 7.17096 16.1904C7.00072 16.5054 6.9616 16.8749 7.06208 17.2185C7.16257 17.5622 7.39455 17.8524 7.70768 18.0261C9.39394 18.9375 11.3123 19.3296 13.2209 19.1528C13.2716 19.1481 13.3225 19.1577 13.3679 19.1806C13.4133 19.2034 13.4514 19.2386 13.4778 19.2821C13.8944 19.9702 14.2505 20.6933 14.5417 21.4431C14.6373 21.6889 14.6655 21.9558 14.6232 22.2161C14.5809 22.4765 14.4698 22.7207 14.3013 22.9237C13.4408 23.9596 12.9159 25.2329 12.7965 26.5743C12.785 26.7038 12.8005 26.8343 12.8422 26.9575C12.8839 27.0807 12.9507 27.1938 13.0384 27.2897C13.1262 27.3857 13.233 27.4623 13.3519 27.5148C13.4709 27.5672 13.5995 27.5943 13.7295 27.5943H22.2783C22.4441 27.5945 22.607 27.5506 22.7504 27.4672C22.8937 27.3838 23.0123 27.2638 23.0942 27.1196C23.176 26.9753 23.2181 26.8119 23.2161 26.6461C23.2141 26.4803 23.1681 26.318 23.0829 26.1757C22.5724 25.3243 21.9135 24.5713 21.1375 23.9523C20.901 23.7636 20.7281 23.5068 20.6421 23.2167C20.5561 22.9266 20.5611 22.6172 20.6566 22.3301C20.7761 21.9711 20.8999 21.6136 21.0281 21.2577C21.1275 20.9816 21.3067 20.7414 21.543 20.5675C21.7793 20.3936 22.062 20.294 22.3551 20.2812C23.812 20.2177 25.2257 19.7672 26.4508 18.976C26.7529 18.7799 26.9648 18.472 27.0402 18.1198C27.1156 17.7677 27.0481 17.4 26.8527 17.0975C26.6573 16.7949 26.3499 16.5823 25.9979 16.5062C25.6459 16.4301 25.278 16.4968 24.9751 16.6915C24.2451 17.163 23.4136 17.4543 22.5489 17.5416C23.739 14.9596 25.1634 12.4922 26.8043 10.1705C26.9103 10.0248 26.9863 9.85949 27.0278 9.68421C27.0694 9.50893 27.0757 9.32712 27.0464 9.14939C27.0171 8.97165 26.9528 8.80153 26.8572 8.64886C26.7615 8.49619 26.6366 8.36404 26.4894 8.26008C26.3423 8.15613 26.176 8.08242 26.0002 8.04328C25.8244 8.00413 25.6425 8.00034 25.4652 8.03207C25.2879 8.0638 25.1186 8.13041 24.9673 8.2281C24.8159 8.32579 24.6855 8.45262 24.5836 8.60114C23.7262 9.81398 22.9242 11.065 22.1801 12.3504C21.4977 11.5355 21.0634 10.5421 20.9285 9.48784C20.8827 9.13012 20.6966 8.80528 20.4112 8.58473C20.1259 8.36418 19.7646 8.26599 19.4069 8.31177C19.0492 8.35754 18.7243 8.54353 18.5036 8.82882C18.283 9.11411 18.1847 9.47535 18.2304 9.83309C18.4772 11.7614 19.395 13.5414 20.8228 14.8608C19.7524 16.9862 18.8376 19.1865 18.0856 21.4443C18.0669 21.5004 18.0303 21.5488 17.9815 21.5821C17.9327 21.6155 17.8743 21.6319 17.8152 21.6289C17.7562 21.626 17.6997 21.6038 17.6545 21.5657C17.6092 21.5277 17.5777 21.4759 17.5646 21.4182C16.8881 18.4184 15.1913 15.7464 12.7638 13.8587C14.4158 12.6576 15.5709 10.8932 16.0109 8.89862C16.0886 8.54631 16.0231 8.17755 15.8289 7.87351C15.6348 7.56947 15.3277 7.35505 14.9754 7.27738C14.6231 7.19971 14.2544 7.26512 13.9504 7.45932C13.6463 7.65351 13.4319 7.96054 13.3542 8.31284C13.0763 9.57375 12.3742 10.7011 11.3651 11.5066C10.5838 10.121 10.0183 8.62439 9.68817 7.06833C9.61946 6.75521 9.44234 6.47643 9.18807 6.2812C8.93379 6.08598 8.61872 5.98689 8.29848 6.00139V6.00145ZM8.33085 6.65753C8.49433 6.65122 8.65477 6.70289 8.78384 6.80341C8.91291 6.90393 9.0023 7.04686 9.03622 7.2069C9.39301 8.88854 10.0133 10.5032 10.8743 11.9911C10.9107 12.054 10.9599 12.1084 11.0189 12.1508C11.0778 12.1932 11.145 12.2227 11.2162 12.2373C11.2873 12.2518 11.3607 12.2511 11.4316 12.2353C11.5024 12.2194 11.5691 12.1888 11.6273 12.1453C12.8363 11.2401 13.6802 9.93109 14.0056 8.45629C14.0469 8.27842 14.1568 8.12399 14.3112 8.02658C14.4657 7.92916 14.6523 7.89662 14.8306 7.93595C15.009 7.97528 15.1646 8.08336 15.2637 8.23671C15.3629 8.39006 15.3975 8.5763 15.3602 8.75506C14.941 10.6552 13.8172 12.3259 12.2152 13.4306C12.1481 13.4768 12.093 13.5383 12.0543 13.6101C12.0156 13.6818 11.9945 13.7616 11.9928 13.843C11.991 13.9245 12.0086 14.0052 12.0442 14.0785C12.0797 14.1518 12.1322 14.2157 12.1972 14.2647C14.5847 16.0623 16.2562 18.6494 16.9136 21.5648C16.9586 21.7644 17.0678 21.9438 17.2244 22.0756C17.3811 22.2073 17.5765 22.2842 17.7809 22.2944C17.9853 22.3046 18.1874 22.2476 18.3564 22.1321C18.5253 22.0166 18.6518 21.8489 18.7165 21.6548C19.4706 19.3914 20.3905 17.1868 21.4688 15.0587C21.5199 14.9578 21.5363 14.8428 21.5155 14.7317C21.4947 14.6205 21.4378 14.5193 21.3537 14.4437C19.9965 13.2244 19.1226 11.5581 18.891 9.74846C18.8699 9.56707 18.9211 9.38466 19.0336 9.24081C19.1461 9.09696 19.3108 9.00325 19.492 8.98007C19.6731 8.9569 19.8561 9.00611 20.0012 9.11701C20.1463 9.2279 20.2418 9.39154 20.267 9.57241C20.4282 10.8326 20.9713 12.0133 21.8233 12.9558C21.8777 13.0162 21.9457 13.0628 22.0217 13.0919C22.0977 13.1209 22.1795 13.1315 22.2603 13.1228C22.3412 13.1141 22.4188 13.0863 22.4869 13.0418C22.5549 12.9972 22.6115 12.9372 22.6518 12.8666C23.415 11.5345 24.2411 10.2393 25.1271 8.98551C25.2339 8.83695 25.3951 8.73663 25.5756 8.70638C25.7561 8.67613 25.9412 8.7184 26.0906 8.82401C26.24 8.92961 26.3417 9.08997 26.3735 9.27019C26.4052 9.4504 26.3645 9.63585 26.2601 9.78616C24.5456 12.2124 23.0643 14.7953 21.8358 17.5003C21.7993 17.5808 21.7841 17.6693 21.7918 17.7574C21.7994 17.8454 21.8296 17.93 21.8794 18.003C21.9293 18.076 21.9971 18.1349 22.0764 18.1741C22.1556 18.2132 22.2436 18.2313 22.3319 18.2265C23.4011 18.1682 24.4366 17.832 25.336 17.251C25.4906 17.1535 25.6773 17.1209 25.8557 17.1602C26.0342 17.1996 26.1899 17.3077 26.289 17.4612C26.3881 17.6147 26.4227 17.8011 26.3852 17.98C26.3477 18.1588 26.2412 18.3156 26.0887 18.4163C24.9632 19.1432 23.6643 19.5572 22.3257 19.6156C21.9005 19.634 21.4903 19.7786 21.1475 20.0309C20.8046 20.2831 20.5446 20.6317 20.4005 21.0322C20.2706 21.3932 20.1451 21.7558 20.024 22.1198C19.8856 22.5363 19.8783 22.9852 20.0031 23.406C20.1278 23.8268 20.3786 24.1992 20.7217 24.4729C21.4353 25.0424 22.0412 25.7351 22.5106 26.5183C22.5353 26.5594 22.5485 26.6064 22.5491 26.6543C22.5496 26.7023 22.5374 26.7495 22.5137 26.7912C22.49 26.8329 22.4557 26.8675 22.4142 26.8916C22.3728 26.9156 22.3257 26.9283 22.2777 26.9282H13.729C13.6914 26.9282 13.6543 26.9203 13.62 26.9051C13.5857 26.8899 13.5548 26.8677 13.5295 26.84C13.5042 26.8123 13.4849 26.7796 13.4729 26.744C13.4609 26.7084 13.4564 26.6708 13.4598 26.6334C13.5671 25.4267 14.0392 24.2813 14.8131 23.3494C15.0577 23.0551 15.2191 22.7008 15.2807 22.3232C15.3422 21.9455 15.3016 21.5583 15.1631 21.2017C14.8577 20.4158 14.4845 19.658 14.0477 18.9369C13.9565 18.7863 13.8247 18.6645 13.6675 18.5853C13.5103 18.5062 13.334 18.4729 13.1587 18.4893C11.3808 18.6542 9.59388 18.2891 8.02313 17.4401C7.86273 17.3519 7.74373 17.2037 7.69206 17.0281C7.64039 16.8525 7.66025 16.6636 7.74731 16.5025C7.83436 16.3415 7.98155 16.2213 8.15679 16.1684C8.33203 16.1154 8.52111 16.1339 8.68281 16.2197C9.70875 16.7742 10.8478 17.0871 12.0131 17.1344C12.1162 17.1385 12.2181 17.1116 12.3057 17.057C12.3932 17.0024 12.4623 16.9227 12.504 16.8284C12.5457 16.734 12.558 16.6292 12.5394 16.5277C12.5208 16.4262 12.472 16.3327 12.3996 16.2593C10.0198 13.8495 8.38122 10.8076 7.67836 7.49458C7.6574 7.39574 7.65829 7.29354 7.68096 7.19507C7.70363 7.09661 7.74755 7.00427 7.80962 6.92455C7.8717 6.84482 7.95045 6.77961 8.04035 6.7335C8.13026 6.68738 8.22916 6.66144 8.33013 6.65753H8.33085Z"/>
</mask>
<path d="M8.29848 6.00145C8.10213 6.01031 7.91004 6.06167 7.73543 6.15191C7.56083 6.24216 7.40786 6.36917 7.28707 6.52422C7.16629 6.67927 7.08055 6.85867 7.03577 7.05005C6.99098 7.24142 6.98822 7.44027 7.02767 7.63282C7.72866 10.9385 9.32796 13.9866 11.6496 16.4419C10.7215 16.3519 9.82087 16.0771 9.00061 15.6337C8.68376 15.4669 8.31392 15.4318 7.97137 15.5361C7.62881 15.6403 7.3412 15.8754 7.17096 16.1904C7.00072 16.5054 6.9616 16.8749 7.06208 17.2185C7.16257 17.5622 7.39455 17.8524 7.70768 18.0261C9.39394 18.9375 11.3123 19.3296 13.2209 19.1528C13.2716 19.1481 13.3225 19.1577 13.3679 19.1806C13.4133 19.2034 13.4514 19.2386 13.4778 19.2821C13.8944 19.9702 14.2505 20.6933 14.5417 21.4431C14.6373 21.6889 14.6655 21.9558 14.6232 22.2161C14.5809 22.4765 14.4698 22.7207 14.3013 22.9237C13.4408 23.9596 12.9159 25.2329 12.7965 26.5743C12.785 26.7038 12.8005 26.8343 12.8422 26.9575C12.8839 27.0807 12.9507 27.1938 13.0384 27.2897C13.1262 27.3857 13.233 27.4623 13.3519 27.5148C13.4709 27.5672 13.5995 27.5943 13.7295 27.5943H22.2783C22.4441 27.5945 22.607 27.5506 22.7504 27.4672C22.8937 27.3838 23.0123 27.2638 23.0942 27.1196C23.176 26.9753 23.2181 26.8119 23.2161 26.6461C23.2141 26.4803 23.1681 26.318 23.0829 26.1757C22.5724 25.3243 21.9135 24.5713 21.1375 23.9523C20.901 23.7636 20.7281 23.5068 20.6421 23.2167C20.5561 22.9266 20.5611 22.6172 20.6566 22.3301C20.7761 21.9711 20.8999 21.6136 21.0281 21.2577C21.1275 20.9816 21.3067 20.7414 21.543 20.5675C21.7793 20.3936 22.062 20.294 22.3551 20.2812C23.812 20.2177 25.2257 19.7672 26.4508 18.976C26.7529 18.7799 26.9648 18.472 27.0402 18.1198C27.1156 17.7677 27.0481 17.4 26.8527 17.0975C26.6573 16.7949 26.3499 16.5823 25.9979 16.5062C25.6459 16.4301 25.278 16.4968 24.9751 16.6915C24.2451 17.163 23.4136 17.4543 22.5489 17.5416C23.739 14.9596 25.1634 12.4922 26.8043 10.1705C26.9103 10.0248 26.9863 9.85949 27.0278 9.68421C27.0694 9.50893 27.0757 9.32712 27.0464 9.14939C27.0171 8.97165 26.9528 8.80153 26.8572 8.64886C26.7615 8.49619 26.6366 8.36404 26.4894 8.26008C26.3423 8.15613 26.176 8.08242 26.0002 8.04328C25.8244 8.00413 25.6425 8.00034 25.4652 8.03207C25.2879 8.0638 25.1186 8.13041 24.9673 8.2281C24.8159 8.32579 24.6855 8.45262 24.5836 8.60114C23.7262 9.81398 22.9242 11.065 22.1801 12.3504C21.4977 11.5355 21.0634 10.5421 20.9285 9.48784C20.8827 9.13012 20.6966 8.80528 20.4112 8.58473C20.1259 8.36418 19.7646 8.26599 19.4069 8.31177C19.0492 8.35754 18.7243 8.54353 18.5036 8.82882C18.283 9.11411 18.1847 9.47535 18.2304 9.83309C18.4772 11.7614 19.395 13.5414 20.8228 14.8608C19.7524 16.9862 18.8376 19.1865 18.0856 21.4443C18.0669 21.5004 18.0303 21.5488 17.9815 21.5821C17.9327 21.6155 17.8743 21.6319 17.8152 21.6289C17.7562 21.626 17.6997 21.6038 17.6545 21.5657C17.6092 21.5277 17.5777 21.4759 17.5646 21.4182C16.8881 18.4184 15.1913 15.7464 12.7638 13.8587C14.4158 12.6576 15.5709 10.8932 16.0109 8.89862C16.0886 8.54631 16.0231 8.17755 15.8289 7.87351C15.6348 7.56947 15.3277 7.35505 14.9754 7.27738C14.6231 7.19971 14.2544 7.26512 13.9504 7.45932C13.6463 7.65351 13.4319 7.96054 13.3542 8.31284C13.0763 9.57375 12.3742 10.7011 11.3651 11.5066C10.5838 10.121 10.0183 8.62439 9.68817 7.06833C9.61946 6.75521 9.44234 6.47643 9.18807 6.2812C8.93379 6.08598 8.61872 5.98689 8.29848 6.00139V6.00145ZM8.33085 6.65753C8.49433 6.65122 8.65477 6.70289 8.78384 6.80341C8.91291 6.90393 9.0023 7.04686 9.03622 7.2069C9.39301 8.88854 10.0133 10.5032 10.8743 11.9911C10.9107 12.054 10.9599 12.1084 11.0189 12.1508C11.0778 12.1932 11.145 12.2227 11.2162 12.2373C11.2873 12.2518 11.3607 12.2511 11.4316 12.2353C11.5024 12.2194 11.5691 12.1888 11.6273 12.1453C12.8363 11.2401 13.6802 9.93109 14.0056 8.45629C14.0469 8.27842 14.1568 8.12399 14.3112 8.02658C14.4657 7.92916 14.6523 7.89662 14.8306 7.93595C15.009 7.97528 15.1646 8.08336 15.2637 8.23671C15.3629 8.39006 15.3975 8.5763 15.3602 8.75506C14.941 10.6552 13.8172 12.3259 12.2152 13.4306C12.1481 13.4768 12.093 13.5383 12.0543 13.6101C12.0156 13.6818 11.9945 13.7616 11.9928 13.843C11.991 13.9245 12.0086 14.0052 12.0442 14.0785C12.0797 14.1518 12.1322 14.2157 12.1972 14.2647C14.5847 16.0623 16.2562 18.6494 16.9136 21.5648C16.9586 21.7644 17.0678 21.9438 17.2244 22.0756C17.3811 22.2073 17.5765 22.2842 17.7809 22.2944C17.9853 22.3046 18.1874 22.2476 18.3564 22.1321C18.5253 22.0166 18.6518 21.8489 18.7165 21.6548C19.4706 19.3914 20.3905 17.1868 21.4688 15.0587C21.5199 14.9578 21.5363 14.8428 21.5155 14.7317C21.4947 14.6205 21.4378 14.5193 21.3537 14.4437C19.9965 13.2244 19.1226 11.5581 18.891 9.74846C18.8699 9.56707 18.9211 9.38466 19.0336 9.24081C19.1461 9.09696 19.3108 9.00325 19.492 8.98007C19.6731 8.9569 19.8561 9.00611 20.0012 9.11701C20.1463 9.2279 20.2418 9.39154 20.267 9.57241C20.4282 10.8326 20.9713 12.0133 21.8233 12.9558C21.8777 13.0162 21.9457 13.0628 22.0217 13.0919C22.0977 13.1209 22.1795 13.1315 22.2603 13.1228C22.3412 13.1141 22.4188 13.0863 22.4869 13.0418C22.5549 12.9972 22.6115 12.9372 22.6518 12.8666C23.415 11.5345 24.2411 10.2393 25.1271 8.98551C25.2339 8.83695 25.3951 8.73663 25.5756 8.70638C25.7561 8.67613 25.9412 8.7184 26.0906 8.82401C26.24 8.92961 26.3417 9.08997 26.3735 9.27019C26.4052 9.4504 26.3645 9.63585 26.2601 9.78616C24.5456 12.2124 23.0643 14.7953 21.8358 17.5003C21.7993 17.5808 21.7841 17.6693 21.7918 17.7574C21.7994 17.8454 21.8296 17.93 21.8794 18.003C21.9293 18.076 21.9971 18.1349 22.0764 18.1741C22.1556 18.2132 22.2436 18.2313 22.3319 18.2265C23.4011 18.1682 24.4366 17.832 25.336 17.251C25.4906 17.1535 25.6773 17.1209 25.8557 17.1602C26.0342 17.1996 26.1899 17.3077 26.289 17.4612C26.3881 17.6147 26.4227 17.8011 26.3852 17.98C26.3477 18.1588 26.2412 18.3156 26.0887 18.4163C24.9632 19.1432 23.6643 19.5572 22.3257 19.6156C21.9005 19.634 21.4903 19.7786 21.1475 20.0309C20.8046 20.2831 20.5446 20.6317 20.4005 21.0322C20.2706 21.3932 20.1451 21.7558 20.024 22.1198C19.8856 22.5363 19.8783 22.9852 20.0031 23.406C20.1278 23.8268 20.3786 24.1992 20.7217 24.4729C21.4353 25.0424 22.0412 25.7351 22.5106 26.5183C22.5353 26.5594 22.5485 26.6064 22.5491 26.6543C22.5496 26.7023 22.5374 26.7495 22.5137 26.7912C22.49 26.8329 22.4557 26.8675 22.4142 26.8916C22.3728 26.9156 22.3257 26.9283 22.2777 26.9282H13.729C13.6914 26.9282 13.6543 26.9203 13.62 26.9051C13.5857 26.8899 13.5548 26.8677 13.5295 26.84C13.5042 26.8123 13.4849 26.7796 13.4729 26.744C13.4609 26.7084 13.4564 26.6708 13.4598 26.6334C13.5671 25.4267 14.0392 24.2813 14.8131 23.3494C15.0577 23.0551 15.2191 22.7008 15.2807 22.3232C15.3422 21.9455 15.3016 21.5583 15.1631 21.2017C14.8577 20.4158 14.4845 19.658 14.0477 18.9369C13.9565 18.7863 13.8247 18.6645 13.6675 18.5853C13.5103 18.5062 13.334 18.4729 13.1587 18.4893C11.3808 18.6542 9.59388 18.2891 8.02313 17.4401C7.86273 17.3519 7.74373 17.2037 7.69206 17.0281C7.64039 16.8525 7.66025 16.6636 7.74731 16.5025C7.83436 16.3415 7.98155 16.2213 8.15679 16.1684C8.33203 16.1154 8.52111 16.1339 8.68281 16.2197C9.70875 16.7742 10.8478 17.0871 12.0131 17.1344C12.1162 17.1385 12.2181 17.1116 12.3057 17.057C12.3932 17.0024 12.4623 16.9227 12.504 16.8284C12.5457 16.734 12.558 16.6292 12.5394 16.5277C12.5208 16.4262 12.472 16.3327 12.3996 16.2593C10.0198 13.8495 8.38122 10.8076 7.67836 7.49458C7.6574 7.39574 7.65829 7.29354 7.68096 7.19507C7.70363 7.09661 7.74755 7.00427 7.80962 6.92455C7.8717 6.84482 7.95045 6.77961 8.04035 6.7335C8.13026 6.68738 8.22916 6.66144 8.33013 6.65753H8.33085Z" fill="#4D6D8C"/>
<path d="M8.29848 6.00145C8.10213 6.01031 7.91004 6.06167 7.73543 6.15191C7.56083 6.24216 7.40786 6.36917 7.28707 6.52422C7.16629 6.67927 7.08055 6.85867 7.03577 7.05005C6.99098 7.24142 6.98822 7.44027 7.02767 7.63282C7.72866 10.9385 9.32796 13.9866 11.6496 16.4419C10.7215 16.3519 9.82087 16.0771 9.00061 15.6337C8.68376 15.4669 8.31392 15.4318 7.97137 15.5361C7.62881 15.6403 7.3412 15.8754 7.17096 16.1904C7.00072 16.5054 6.9616 16.8749 7.06208 17.2185C7.16257 17.5622 7.39455 17.8524 7.70768 18.0261C9.39394 18.9375 11.3123 19.3296 13.2209 19.1528C13.2716 19.1481 13.3225 19.1577 13.3679 19.1806C13.4133 19.2034 13.4514 19.2386 13.4778 19.2821C13.8944 19.9702 14.2505 20.6933 14.5417 21.4431C14.6373 21.6889 14.6655 21.9558 14.6232 22.2161C14.5809 22.4765 14.4698 22.7207 14.3013 22.9237C13.4408 23.9596 12.9159 25.2329 12.7965 26.5743C12.785 26.7038 12.8005 26.8343 12.8422 26.9575C12.8839 27.0807 12.9507 27.1938 13.0384 27.2897C13.1262 27.3857 13.233 27.4623 13.3519 27.5148C13.4709 27.5672 13.5995 27.5943 13.7295 27.5943H22.2783C22.4441 27.5945 22.607 27.5506 22.7504 27.4672C22.8937 27.3838 23.0123 27.2638 23.0942 27.1196C23.176 26.9753 23.2181 26.8119 23.2161 26.6461C23.2141 26.4803 23.1681 26.318 23.0829 26.1757C22.5724 25.3243 21.9135 24.5713 21.1375 23.9523C20.901 23.7636 20.7281 23.5068 20.6421 23.2167C20.5561 22.9266 20.5611 22.6172 20.6566 22.3301C20.7761 21.9711 20.8999 21.6136 21.0281 21.2577C21.1275 20.9816 21.3067 20.7414 21.543 20.5675C21.7793 20.3936 22.062 20.294 22.3551 20.2812C23.812 20.2177 25.2257 19.7672 26.4508 18.976C26.7529 18.7799 26.9648 18.472 27.0402 18.1198C27.1156 17.7677 27.0481 17.4 26.8527 17.0975C26.6573 16.7949 26.3499 16.5823 25.9979 16.5062C25.6459 16.4301 25.278 16.4968 24.9751 16.6915C24.2451 17.163 23.4136 17.4543 22.5489 17.5416C23.739 14.9596 25.1634 12.4922 26.8043 10.1705C26.9103 10.0248 26.9863 9.85949 27.0278 9.68421C27.0694 9.50893 27.0757 9.32712 27.0464 9.14939C27.0171 8.97165 26.9528 8.80153 26.8572 8.64886C26.7615 8.49619 26.6366 8.36404 26.4894 8.26008C26.3423 8.15613 26.176 8.08242 26.0002 8.04328C25.8244 8.00413 25.6425 8.00034 25.4652 8.03207C25.2879 8.0638 25.1186 8.13041 24.9673 8.2281C24.8159 8.32579 24.6855 8.45262 24.5836 8.60114C23.7262 9.81398 22.9242 11.065 22.1801 12.3504C21.4977 11.5355 21.0634 10.5421 20.9285 9.48784C20.8827 9.13012 20.6966 8.80528 20.4112 8.58473C20.1259 8.36418 19.7646 8.26599 19.4069 8.31177C19.0492 8.35754 18.7243 8.54353 18.5036 8.82882C18.283 9.11411 18.1847 9.47535 18.2304 9.83309C18.4772 11.7614 19.395 13.5414 20.8228 14.8608C19.7524 16.9862 18.8376 19.1865 18.0856 21.4443C18.0669 21.5004 18.0303 21.5488 17.9815 21.5821C17.9327 21.6155 17.8743 21.6319 17.8152 21.6289C17.7562 21.626 17.6997 21.6038 17.6545 21.5657C17.6092 21.5277 17.5777 21.4759 17.5646 21.4182C16.8881 18.4184 15.1913 15.7464 12.7638 13.8587C14.4158 12.6576 15.5709 10.8932 16.0109 8.89862C16.0886 8.54631 16.0231 8.17755 15.8289 7.87351C15.6348 7.56947 15.3277 7.35505 14.9754 7.27738C14.6231 7.19971 14.2544 7.26512 13.9504 7.45932C13.6463 7.65351 13.4319 7.96054 13.3542 8.31284C13.0763 9.57375 12.3742 10.7011 11.3651 11.5066C10.5838 10.121 10.0183 8.62439 9.68817 7.06833C9.61946 6.75521 9.44234 6.47643 9.18807 6.2812C8.93379 6.08598 8.61872 5.98689 8.29848 6.00139V6.00145ZM8.33085 6.65753C8.49433 6.65122 8.65477 6.70289 8.78384 6.80341C8.91291 6.90393 9.0023 7.04686 9.03622 7.2069C9.39301 8.88854 10.0133 10.5032 10.8743 11.9911C10.9107 12.054 10.9599 12.1084 11.0189 12.1508C11.0778 12.1932 11.145 12.2227 11.2162 12.2373C11.2873 12.2518 11.3607 12.2511 11.4316 12.2353C11.5024 12.2194 11.5691 12.1888 11.6273 12.1453C12.8363 11.2401 13.6802 9.93109 14.0056 8.45629C14.0469 8.27842 14.1568 8.12399 14.3112 8.02658C14.4657 7.92916 14.6523 7.89662 14.8306 7.93595C15.009 7.97528 15.1646 8.08336 15.2637 8.23671C15.3629 8.39006 15.3975 8.5763 15.3602 8.75506C14.941 10.6552 13.8172 12.3259 12.2152 13.4306C12.1481 13.4768 12.093 13.5383 12.0543 13.6101C12.0156 13.6818 11.9945 13.7616 11.9928 13.843C11.991 13.9245 12.0086 14.0052 12.0442 14.0785C12.0797 14.1518 12.1322 14.2157 12.1972 14.2647C14.5847 16.0623 16.2562 18.6494 16.9136 21.5648C16.9586 21.7644 17.0678 21.9438 17.2244 22.0756C17.3811 22.2073 17.5765 22.2842 17.7809 22.2944C17.9853 22.3046 18.1874 22.2476 18.3564 22.1321C18.5253 22.0166 18.6518 21.8489 18.7165 21.6548C19.4706 19.3914 20.3905 17.1868 21.4688 15.0587C21.5199 14.9578 21.5363 14.8428 21.5155 14.7317C21.4947 14.6205 21.4378 14.5193 21.3537 14.4437C19.9965 13.2244 19.1226 11.5581 18.891 9.74846C18.8699 9.56707 18.9211 9.38466 19.0336 9.24081C19.1461 9.09696 19.3108 9.00325 19.492 8.98007C19.6731 8.9569 19.8561 9.00611 20.0012 9.11701C20.1463 9.2279 20.2418 9.39154 20.267 9.57241C20.4282 10.8326 20.9713 12.0133 21.8233 12.9558C21.8777 13.0162 21.9457 13.0628 22.0217 13.0919C22.0977 13.1209 22.1795 13.1315 22.2603 13.1228C22.3412 13.1141 22.4188 13.0863 22.4869 13.0418C22.5549 12.9972 22.6115 12.9372 22.6518 12.8666C23.415 11.5345 24.2411 10.2393 25.1271 8.98551C25.2339 8.83695 25.3951 8.73663 25.5756 8.70638C25.7561 8.67613 25.9412 8.7184 26.0906 8.82401C26.24 8.92961 26.3417 9.08997 26.3735 9.27019C26.4052 9.4504 26.3645 9.63585 26.2601 9.78616C24.5456 12.2124 23.0643 14.7953 21.8358 17.5003C21.7993 17.5808 21.7841 17.6693 21.7918 17.7574C21.7994 17.8454 21.8296 17.93 21.8794 18.003C21.9293 18.076 21.9971 18.1349 22.0764 18.1741C22.1556 18.2132 22.2436 18.2313 22.3319 18.2265C23.4011 18.1682 24.4366 17.832 25.336 17.251C25.4906 17.1535 25.6773 17.1209 25.8557 17.1602C26.0342 17.1996 26.1899 17.3077 26.289 17.4612C26.3881 17.6147 26.4227 17.8011 26.3852 17.98C26.3477 18.1588 26.2412 18.3156 26.0887 18.4163C24.9632 19.1432 23.6643 19.5572 22.3257 19.6156C21.9005 19.634 21.4903 19.7786 21.1475 20.0309C20.8046 20.2831 20.5446 20.6317 20.4005 21.0322C20.2706 21.3932 20.1451 21.7558 20.024 22.1198C19.8856 22.5363 19.8783 22.9852 20.0031 23.406C20.1278 23.8268 20.3786 24.1992 20.7217 24.4729C21.4353 25.0424 22.0412 25.7351 22.5106 26.5183C22.5353 26.5594 22.5485 26.6064 22.5491 26.6543C22.5496 26.7023 22.5374 26.7495 22.5137 26.7912C22.49 26.8329 22.4557 26.8675 22.4142 26.8916C22.3728 26.9156 22.3257 26.9283 22.2777 26.9282H13.729C13.6914 26.9282 13.6543 26.9203 13.62 26.9051C13.5857 26.8899 13.5548 26.8677 13.5295 26.84C13.5042 26.8123 13.4849 26.7796 13.4729 26.744C13.4609 26.7084 13.4564 26.6708 13.4598 26.6334C13.5671 25.4267 14.0392 24.2813 14.8131 23.3494C15.0577 23.0551 15.2191 22.7008 15.2807 22.3232C15.3422 21.9455 15.3016 21.5583 15.1631 21.2017C14.8577 20.4158 14.4845 19.658 14.0477 18.9369C13.9565 18.7863 13.8247 18.6645 13.6675 18.5853C13.5103 18.5062 13.334 18.4729 13.1587 18.4893C11.3808 18.6542 9.59388 18.2891 8.02313 17.4401C7.86273 17.3519 7.74373 17.2037 7.69206 17.0281C7.64039 16.8525 7.66025 16.6636 7.74731 16.5025C7.83436 16.3415 7.98155 16.2213 8.15679 16.1684C8.33203 16.1154 8.52111 16.1339 8.68281 16.2197C9.70875 16.7742 10.8478 17.0871 12.0131 17.1344C12.1162 17.1385 12.2181 17.1116 12.3057 17.057C12.3932 17.0024 12.4623 16.9227 12.504 16.8284C12.5457 16.734 12.558 16.6292 12.5394 16.5277C12.5208 16.4262 12.472 16.3327 12.3996 16.2593C10.0198 13.8495 8.38122 10.8076 7.67836 7.49458C7.6574 7.39574 7.65829 7.29354 7.68096 7.19507C7.70363 7.09661 7.74755 7.00427 7.80962 6.92455C7.8717 6.84482 7.95045 6.77961 8.04035 6.7335C8.13026 6.68738 8.22916 6.66144 8.33013 6.65753H8.33085Z" stroke="#4D6D8C" stroke-width="0.4" mask="url(#path-3-outside-1_4804_20755)"/>
</svg>
