<svg xmlns="http://www.w3.org/2000/svg" width="73.963" height="63.9" viewBox="0 0 73.963 63.9">
  <g id="Raggruppa_321" data-name="Raggruppa 321" transform="translate(-798.754 -1935.843)">
    <g id="Raggruppa_317" data-name="Raggruppa 317">
      <path id="Tracciato_125" data-name="Tracciato 125" d="M830.71,1989.115h12.911a3.8,3.8,0,0,0-.028-7.577H829.656a25.82,25.82,0,0,0-30.4.763v16.942h43.895a28.848,28.848,0,0,0,8.632-2.272,31.264,31.264,0,0,0,5.241-3,115.99,115.99,0,0,1,12.628-7.3,4.579,4.579,0,0,0,2.542-4.247,3.141,3.141,0,0,0-.72-1.733c-1.159-1.3-3.7-1.422-6.193-.1-2.9,1.388-4.055,1.944-4.8,2.306l-.613.3-1.809.873c-.567.273-1.427.687-2.6,1.247-1.625.776-3.518,1.638-4.287,1.966a25.652,25.652,0,0,1-7.7,1.835" fill="none" stroke="#002622" stroke-linecap="round" stroke-linejoin="round" stroke-width="1"/>
      <path id="Tracciato_126" data-name="Tracciato 126" d="M837.735,1981.538l16.077-7.7c1.8-.953,3.639-.865,4.476.075a2.275,2.275,0,0,1,.521,1.253,3.31,3.31,0,0,1-1.837,3.069" fill="none" stroke="#002622" stroke-linecap="round" stroke-linejoin="round" stroke-width="1"/>
      <path id="Tracciato_127" data-name="Tracciato 127" d="M846.577,1983.23c5.868-2.811,8.263-3.975,14.13-6.786,1.931-1.022,3.9-.928,4.8.08a2.434,2.434,0,0,1,.558,1.343,3.547,3.547,0,0,1-1.97,3.291" fill="none" stroke="#002622" stroke-linecap="round" stroke-linejoin="round" stroke-width="1"/>
    </g>
    <g id="Raggruppa_320" data-name="Raggruppa 320">
      <g id="Raggruppa_319" data-name="Raggruppa 319">
        <path id="Tracciato_128" data-name="Tracciato 128" d="M833.575,1952.581v21.835" fill="none" stroke="#002622" stroke-linecap="round" stroke-linejoin="round" stroke-width="1"/>
        <line id="Linea_129" data-name="Linea 129" x2="5.524" y2="2.85" transform="translate(828.051 1964.521)" fill="none" stroke="#002622" stroke-linecap="round" stroke-linejoin="round" stroke-width="1"/>
        <g id="Raggruppa_318" data-name="Raggruppa 318">
          <path id="Tracciato_129" data-name="Tracciato 129" d="M843.4,1951.158a9.06,9.06,0,0,0-4.485,6.428,1.43,1.43,0,0,0,.912,1.581,9.061,9.061,0,0,0,7.81-.67,12.813,12.813,0,0,0,5.336-6.7,1.43,1.43,0,0,0-1.1-1.907A12.816,12.816,0,0,0,843.4,1951.158Z" fill="none" stroke="#002622" stroke-linecap="round" stroke-linejoin="round" stroke-width="1"/>
          <path id="Tracciato_130" data-name="Tracciato 130" d="M823.658,1957.306a12.814,12.814,0,0,0-8.472-1.27,1.429,1.429,0,0,0-1.1,1.907,12.811,12.811,0,0,0,5.335,6.7,9.064,9.064,0,0,0,7.81.67,1.43,1.43,0,0,0,.913-1.581A9.063,9.063,0,0,0,823.658,1957.306Z" fill="none" stroke="#002622" stroke-linecap="round" stroke-linejoin="round" stroke-width="1"/>
          <path id="Tracciato_131" data-name="Tracciato 131" d="M834.676,1936.861a1.429,1.429,0,0,0-2.2,0,12.814,12.814,0,0,0-3.136,7.972,9.059,9.059,0,0,0,3.325,7.1,1.429,1.429,0,0,0,1.825,0,9.062,9.062,0,0,0,3.324-7.1A12.814,12.814,0,0,0,834.676,1936.861Z" fill="none" stroke="#002622" stroke-linecap="round" stroke-linejoin="round" stroke-width="1"/>
        </g>
        <line id="Linea_130" data-name="Linea 130" x1="4.907" y2="1.923" transform="translate(833.899 1958.702)" fill="none" stroke="#002622" stroke-linecap="round" stroke-linejoin="round" stroke-width="1"/>
      </g>
    </g>
  </g>
</svg>
