<svg width="46" height="59" viewBox="0 0 46 59" fill="none" xmlns="http://www.w3.org/2000/svg">
<g clip-path="url(#clip0_1684:7278)">
<path d="M41.7902 58.2807H4.20982C2.25893 58.2807 0.71875 56.7389 0.71875 54.7859V4.2145C0.71875 2.26154 2.25893 0.719727 4.20982 0.719727H41.8929C43.8437 0.719727 45.3839 2.26154 45.3839 4.2145V54.8887C45.2813 56.7389 43.7411 58.2807 41.7902 58.2807Z"  stroke-width="1.4" stroke-miterlimit="10" stroke-linecap="round" stroke-linejoin="round"/>
<path d="M14.1713 32.6868H9.03739C8.524 32.6868 8.11328 32.2757 8.11328 31.7617V26.6224C8.11328 26.1084 8.524 25.6973 9.03739 25.6973H14.1713C14.6847 25.6973 15.0954 26.1084 15.0954 26.6224V31.7617C15.0954 32.2757 14.6847 32.6868 14.1713 32.6868Z"  stroke-width="1.4" stroke-miterlimit="10" stroke-linecap="round" stroke-linejoin="round"/>
<path d="M14.1713 46.6653H9.03739C8.524 46.6653 8.11328 46.2542 8.11328 45.7402V40.6009C8.11328 40.0869 8.524 39.6758 9.03739 39.6758H14.1713C14.6847 39.6758 15.0954 40.0869 15.0954 40.6009V45.7402C15.0954 46.2542 14.6847 46.6653 14.1713 46.6653Z"  stroke-width="1.4" stroke-miterlimit="10" stroke-linecap="round" stroke-linejoin="round"/>
<path d="M20.8438 17.4736H37.5804"  stroke-width="1.4" stroke-miterlimit="10" stroke-linecap="round" stroke-linejoin="round"/>
<path d="M20.8438 31.1445H37.5804"  stroke-width="1.4" stroke-miterlimit="10" stroke-linecap="round" stroke-linejoin="round"/>
<path d="M20.8438 44.8154H37.5804"  stroke-width="1.4" stroke-miterlimit="10" stroke-linecap="round" stroke-linejoin="round"/>
<path d="M7.08594 15.4183L10.3717 18.7075L16.635 12.4375"  stroke-width="1.4" stroke-miterlimit="10" stroke-linecap="round" stroke-linejoin="round"/>
</g>
<defs>
<clipPath id="clip0_1684:7278">
<rect width="46" height="59" fill="none"/>
</clipPath>
</defs>
</svg>
