<svg width="43" height="48" viewBox="0 0 43 48" fill="none" xmlns="http://www.w3.org/2000/svg">
<path d="M42.3864 15.2071H28.6452L41.0017 0.750824C41.2574 0.444719 41.0266 0 40.6087 0H16.6879C16.5132 0 16.3448 0.0866335 16.2575 0.231023L0.0960921 26.0767C-0.0972707 26.3828 0.139754 26.7698 0.52648 26.7698H11.4047L5.82836 47.4232C5.70985 47.8737 6.29618 48.1913 6.65795 47.8679L42.7295 15.9983C43.0538 15.7153 42.8355 15.2071 42.3864 15.2071ZM8.45409 43.6186L13.6891 25.8391C13.8777 25.1986 13.3976 24.5567 12.7298 24.5567H3.32317L17.0009 2.21888H37.4902L25.9069 15.7764C25.3524 16.4254 25.8136 17.426 26.6672 17.426H38.5843L8.45409 43.6186Z" fill="#00BA80"/>
</svg>
