<svg width="120" height="120" viewBox="0 0 120 120" fill="none" xmlns="http://www.w3.org/2000/svg">
<path d="M59.9303 118.88C92.4874 118.88 118.88 92.4874 118.88 59.9303C118.88 27.3732 92.4874 0.980469 59.9303 0.980469C27.3732 0.980469 0.980469 27.3732 0.980469 59.9303C0.980469 92.4874 27.3732 118.88 59.9303 118.88Z" stroke="#00734F" stroke-width="1.4" stroke-miterlimit="10" stroke-linecap="round" stroke-linejoin="round"/>
<path d="M79.9536 69.1721V79.2537C79.9536 80.5139 79.2535 81.7741 78.1333 82.3342L68.0516 87.6551C67.6315 87.9352 67.0714 88.0752 66.5113 88.0752C65.9513 88.0752 65.3912 87.9352 64.9711 87.6551L56.9898 83.4544L54.6094 82.3342C53.4892 81.7741 52.7891 80.5139 52.7891 79.2537V69.1721C52.7891 67.9118 53.4892 66.6516 54.6094 66.0915L58.53 63.9912L64.691 60.7707C65.6712 60.2106 66.9314 60.2106 67.9116 60.7707L77.9933 66.0915C79.2535 66.6516 79.9536 67.9118 79.9536 69.1721Z" stroke="#00734F" stroke-width="1.4" stroke-miterlimit="10" stroke-linecap="round" stroke-linejoin="round"/>
<path d="M66.3711 69.1719V98.1567" stroke="#00734F" stroke-width="1.4" stroke-miterlimit="10" stroke-linecap="round" stroke-linejoin="round"/>
<path d="M72.8121 73.2324L66.3711 77.013" stroke="#00734F" stroke-width="1.4" stroke-miterlimit="10" stroke-linecap="round" stroke-linejoin="round"/>
<path d="M61.0508 79.3936L66.2317 82.054" stroke="#00734F" stroke-width="1.4" stroke-miterlimit="10" stroke-linecap="round" stroke-linejoin="round"/>
<path d="M15.543 98.8564H104.458" stroke="#00734F" stroke-width="1.4" stroke-miterlimit="10" stroke-linecap="round" stroke-linejoin="round"/>
<path d="M54.7497 32.9051C54.7497 32.9051 52.0892 27.8643 48.3086 27.8643" stroke="#00734F" stroke-width="1.4" stroke-miterlimit="10" stroke-linecap="round" stroke-linejoin="round"/>
<path d="M54.75 32.9051C54.75 32.9051 57.4104 27.8643 61.1911 27.8643" stroke="#00734F" stroke-width="1.4" stroke-miterlimit="10" stroke-linecap="round" stroke-linejoin="round"/>
<path d="M58.6716 20.1631C58.6716 20.1631 56.8512 16.5225 54.0508 16.5225" stroke="#00734F" stroke-width="1.4" stroke-miterlimit="10" stroke-linecap="round" stroke-linejoin="round"/>
<path d="M58.6719 20.1631C58.6719 20.1631 60.4922 16.5225 63.2926 16.5225" stroke="#00734F" stroke-width="1.4" stroke-miterlimit="10" stroke-linecap="round" stroke-linejoin="round"/>
<path d="M85.5547 43.8271C88.5706 43.8271 91.0156 41.3822 91.0156 38.3662C91.0156 35.3502 88.5706 32.9053 85.5547 32.9053C82.5387 32.9053 80.0938 35.3502 80.0938 38.3662C80.0938 41.3822 82.5387 43.8271 85.5547 43.8271Z" stroke="#00734F" stroke-width="1.4" stroke-miterlimit="10" stroke-linecap="round" stroke-linejoin="round"/>
<path d="M85.5547 28.9847V25.2041" stroke="#00734F" stroke-width="1.4" stroke-miterlimit="10" stroke-linecap="round" stroke-linejoin="round"/>
<path d="M79.9552 30.8051L77.7148 27.7246" stroke="#00734F" stroke-width="1.4" stroke-miterlimit="10" stroke-linecap="round" stroke-linejoin="round"/>
<path d="M76.5937 35.4259L72.9531 34.3057" stroke="#00734F" stroke-width="1.4" stroke-miterlimit="10" stroke-linecap="round" stroke-linejoin="round"/>
<path d="M76.5937 41.167L72.9531 42.4272" stroke="#00734F" stroke-width="1.4" stroke-miterlimit="10" stroke-linecap="round" stroke-linejoin="round"/>
<path d="M79.9552 45.9277L77.7148 49.0082" stroke="#00734F" stroke-width="1.4" stroke-miterlimit="10" stroke-linecap="round" stroke-linejoin="round"/>
<path d="M85.5547 47.748V51.5287" stroke="#00734F" stroke-width="1.4" stroke-miterlimit="10" stroke-linecap="round" stroke-linejoin="round"/>
<path d="M91.0156 45.9277L93.256 49.0082" stroke="#00734F" stroke-width="1.4" stroke-miterlimit="10" stroke-linecap="round" stroke-linejoin="round"/>
<path d="M94.375 41.167L98.0156 42.4272" stroke="#00734F" stroke-width="1.4" stroke-miterlimit="10" stroke-linecap="round" stroke-linejoin="round"/>
<path d="M94.375 35.4259L98.0156 34.3057" stroke="#00734F" stroke-width="1.4" stroke-miterlimit="10" stroke-linecap="round" stroke-linejoin="round"/>
<path d="M91.0156 30.8051L93.256 27.7246" stroke="#00734F" stroke-width="1.4" stroke-miterlimit="10" stroke-linecap="round" stroke-linejoin="round"/>
<path d="M58.5298 55.7295V63.9909L54.6092 66.0912C53.489 66.6513 52.7889 67.9115 52.7889 69.1717V76.873L40.7469 83.1741C40.0468 83.5942 39.2066 83.7342 38.3665 83.7342C37.5263 83.7342 36.6862 83.5942 35.9861 83.1741L24.2241 77.0131L21.0036 75.1928C19.3233 74.3526 18.2031 72.5323 18.2031 70.712V55.7295C18.2031 53.7692 19.3233 52.0889 21.0036 51.1087L35.9861 43.4074C37.5263 42.5673 39.2066 42.5673 40.7469 43.4074L55.7294 51.2488C57.5497 52.0889 58.5298 53.9092 58.5298 55.7295Z" stroke="#00734F" stroke-width="1.4" stroke-miterlimit="10" stroke-linecap="round" stroke-linejoin="round"/>
<path d="M38.3672 55.7295V98.7167" stroke="#00734F" stroke-width="1.4" stroke-miterlimit="10" stroke-linecap="round" stroke-linejoin="round"/>
<path d="M47.8888 61.75L38.3672 67.491" stroke="#00734F" stroke-width="1.4" stroke-miterlimit="10" stroke-linecap="round" stroke-linejoin="round"/>
<path d="M30.5273 70.8516L38.2286 74.9122" stroke="#00734F" stroke-width="1.4" stroke-miterlimit="10" stroke-linecap="round" stroke-linejoin="round"/>
</svg>
