<svg width="41" height="59" viewBox="0 0 41 59" fill="none" xmlns="http://www.w3.org/2000/svg">
<path d="M39.5244 14.2868V29.5007C39.5244 31.4278 38.4806 33.2535 36.8675 34.1663L22.5395 42.179C21.1162 42.9904 19.4082 42.9904 17.9849 42.179L6.69326 35.8906L3.65685 34.1663C2.04376 33.2535 1 31.4278 1 29.5007V14.2868C1 12.3597 2.04376 10.534 3.65685 9.62121L18.0798 1.60856C19.5031 0.797148 21.2111 0.797148 22.6344 1.60856L36.9624 9.62121C38.4806 10.534 39.5244 12.2583 39.5244 14.2868Z" stroke="#00BA80" stroke-width="2" stroke-miterlimit="10" stroke-linecap="round" stroke-linejoin="round"/>
<path d="M20.2617 14.1846V58.0006" stroke="#00BA80" stroke-width="2" stroke-miterlimit="10" stroke-linecap="round" stroke-linejoin="round"/>
<path d="M29.3712 20.2686L20.262 26.1513" stroke="#00BA80" stroke-width="2" stroke-miterlimit="10" stroke-linecap="round" stroke-linejoin="round"/>
<path d="M12.876 29.1553L20.1823 33.2123" stroke="#00BA80" stroke-width="2" stroke-miterlimit="10" stroke-linecap="round" stroke-linejoin="round"/>
</svg>
