<svg xmlns="http://www.w3.org/2000/svg" viewBox="0 0 38.67 33.36">
  <defs>
    <style>.cls-1 {
      fill: none;
    }</style>
  </defs>
  <title>trees</title>
  <g id="Livello_2" data-name="Livello 2">
    <g id="Layer_1" data-name="Layer 1">
      <path class="cls-1"
            d="M18,20.58v.14a3,3,0,0,1-1.61,2.67l-5.74,3a3,3,0,0,1-2.81,0l-5.74-3A3,3,0,0,1,.5,20.72V15.17A3,3,0,0,1,2.11,12.5l5.74-3a3,3,0,0,1,2.81,0l3.85,2v5.41a3,3,0,0,0,1.62,2.67Z"/>
      <line class="cls-1" x1="9.26" y1="14.68" x2="9.26" y2="33.36"/>
      <line class="cls-1" x1="13.43" y1="17.71" x2="9.26" y2="19.77"/>
      <line class="cls-1" x1="5.94" y1="21.31" x2="9.35" y2="23.14"/>
      <path class="cls-1"
            d="M38.17,8.15v8.77a3,3,0,0,1-1.61,2.67l-8.81,4.63a3.07,3.07,0,0,1-2.81,0L18,20.58l-1.88-1a3,3,0,0,1-1.62-2.67V8.15a3,3,0,0,1,1.62-2.68L24.94.85a3,3,0,0,1,2.81,0l8.81,4.62A3,3,0,0,1,38.17,8.15Z"/>
      <line class="cls-1" x1="26.34" y1="8.11" x2="26.34" y2="33.36"/>
      <line class="cls-1" x1="31.92" y1="11.63" x2="26.34" y2="15"/>
      <line class="cls-1" x1="21.72" y1="17.05" x2="26.47" y2="19.55"/>
    </g>
  </g>
</svg>
