<svg width="40" height="55" viewBox="0 0 40 55" fill="none" xmlns="http://www.w3.org/2000/svg">
<g clip-path="url(#clip0_1684:7301)">
<path d="M39.3175 13.1964V27.5162C39.3175 29.33 38.2674 31.0484 36.6445 31.9076L22.2292 39.4494C20.7973 40.2131 19.0789 40.2131 17.6469 39.4494L6.28652 33.5305L3.23162 31.9076C1.60871 31.0484 0.558594 29.33 0.558594 27.5162V13.1964C0.558594 11.3826 1.60871 9.66418 3.23162 8.80499L17.7424 1.26322C19.1743 0.499499 20.8927 0.499499 22.3247 1.26322L36.74 8.80499C38.2674 9.66418 39.3175 11.2871 39.3175 13.1964Z"  stroke-width="1.4" stroke-miterlimit="10" stroke-linecap="round" stroke-linejoin="round"/>
<path d="M19.9375 13.1006V54.3416"  stroke-width="1.4" stroke-miterlimit="10" stroke-linecap="round" stroke-linejoin="round"/>
<path d="M29.1022 18.8291L19.9375 24.3661"  stroke-width="1.4" stroke-miterlimit="10" stroke-linecap="round" stroke-linejoin="round"/>
<path d="M12.3945 27.707L19.7454 31.5256"  stroke-width="1.4" stroke-miterlimit="10" stroke-linecap="round" stroke-linejoin="round"/>
</g>
<defs>
<clipPath id="clip0_1684:7301">
<rect width="40" height="54.9881" fill="white"/>
</clipPath>
</defs>
</svg>
