<svg width="24" height="24" viewBox="0 0 24 24" fill="none" xmlns="http://www.w3.org/2000/svg">
<path d="M21.9442 8.04822C21.9569 8.22588 21.9569 8.40357 21.9569 8.58123C21.9569 14 17.8326 20.2437 10.2944 20.2437C7.97209 20.2437 5.81473 19.5711 4 18.4036C4.32996 18.4417 4.64719 18.4544 4.98985 18.4544C6.90607 18.4544 8.67006 17.8072 10.0787 16.7031C8.27666 16.665 6.7665 15.4848 6.24618 13.8604C6.50001 13.8985 6.7538 13.9239 7.02032 13.9239C7.38833 13.9239 7.75638 13.8731 8.099 13.7843C6.22083 13.4036 4.81215 11.7538 4.81215 9.76143V9.71069C5.35782 10.0153 5.99239 10.2056 6.66493 10.231C5.56087 9.4949 4.83754 8.23857 4.83754 6.81724C4.83754 6.05583 5.04055 5.35786 5.3959 4.74871C7.41369 7.23603 10.4467 8.86037 13.8477 9.03807C13.7843 8.7335 13.7462 8.41627 13.7462 8.099C13.7462 5.84009 15.5736 4 17.8452 4C19.0254 4 20.0914 4.49492 20.8401 5.29442C21.7665 5.11676 22.6548 4.7741 23.4416 4.30457C23.137 5.25637 22.4898 6.05587 21.6396 6.56345C22.4645 6.47466 23.264 6.24618 24 5.92895C23.4417 6.7411 22.7437 7.46443 21.9442 8.04822Z"/>
</svg>
