<svg xmlns="http://www.w3.org/2000/svg" width="23.177" height="21.382" viewBox="0 0 23.177 21.382">
  <g id="noun_Upload_1434076" transform="translate(-12.9 -15.744)">
    <g id="Group" transform="translate(12.9 15.744)">
      <path id="Path" d="M36.194,33.191a.625.625,0,0,0,.625-.625V17.948l4.935,4.623a.625.625,0,0,0,.843-.906l-5.81-5.435a.625.625,0,0,0-1.218,0l-5.779,5.4a.625.625,0,0,0,.843.906l4.935-4.592V32.566A.625.625,0,0,0,36.194,33.191Z" transform="translate(-24.418 -15.744)" />
      <path id="Path-2" data-name="Path" d="M36.077,56.725a.625.625,0,0,0-1.249,0v5.654a1.249,1.249,0,0,1-1.249,1.249H15.4a1.249,1.249,0,0,1-1.249-1.249V56.725a.625.625,0,0,0-1.249,0v5.654a2.5,2.5,0,0,0,2.5,2.5H33.578a2.5,2.5,0,0,0,2.5-2.5Z" transform="translate(-12.9 -43.495)"/>
    </g>
  </g>
</svg>
