<svg xmlns="http://www.w3.org/2000/svg" width="62.876" height="60.632" viewBox="0 0 62.876 60.632">
  <g id="Raggruppa_316" data-name="Raggruppa 316" transform="translate(-120.595 -1939.652)">
    <path id="Tracciato_123" data-name="Tracciato 123" d="M147.8,1942.785l-26.176,50.2a4.715,4.715,0,0,0,4.23,6.8H178.21a4.715,4.715,0,0,0,4.231-6.8l-26.177-50.2A4.716,4.716,0,0,0,147.8,1942.785Z" fill="none" stroke="#efecec" stroke-miterlimit="10" stroke-width="1"/>
    <g id="Raggruppa_315" data-name="Raggruppa 315">
      <g id="Raggruppa_314" data-name="Raggruppa 314">
        <g id="Raggruppa_313" data-name="Raggruppa 313">
          <path id="Tracciato_124" data-name="Tracciato 124" d="M149.839,1988.116a2.16,2.16,0,0,1,2.194-2.149,2.133,2.133,0,0,1,2.195,2.149,2.169,2.169,0,0,1-2.195,2.194A2.2,2.2,0,0,1,149.839,1988.116ZM153.824,1961c0,2.418-.4,6.269-.806,12.583l-.4,9.494H151.5l-.359-9.494c-.447-6.314-.85-10.165-.85-12.583,0-1.388.671-2.06,1.746-2.06C153.153,1958.944,153.824,1959.616,153.824,1961Z" fill="#efecec"/>
        </g>
      </g>
    </g>
  </g>
</svg>
