<svg width="80" height="68" viewBox="0 0 80 68" fill="none" xmlns="http://www.w3.org/2000/svg">
<path d="M21.2992 37.0002L19.1992 37.8002L21.2992 37.0002ZM19.4992 27.5002C19.2992 27.2002 18.7992 27.2002 18.4992 27.5002C17.9992 28.2002 17.0992 29.4002 17.0992 31.0002C17.0992 32.6002 17.9992 33.6002 18.4992 34.1002C18.6992 34.3002 19.0992 34.3002 19.2992 34.1002C19.7992 33.7002 20.6992 32.7002 20.6992 31.0002C20.8992 29.4002 19.9992 28.2002 19.4992 27.5002ZM16.5992 39.5002C16.4992 39.7002 16.3992 39.8002 16.1992 39.8002C15.4992 40.0002 14.1992 40.3002 12.7992 39.5002C11.4992 38.7002 10.7992 37.4002 10.4992 36.6002C10.3992 36.2002 10.5992 35.8002 10.9992 35.8002C11.7992 35.7002 13.2992 35.6002 14.6992 36.4002C16.0992 37.2002 16.4992 38.5002 16.5992 39.2002C16.6992 39.3002 16.6992 39.4002 16.5992 39.5002ZM26.8992 33.2002C26.0992 33.1002 24.5992 33.0002 23.1992 33.8002C21.7992 34.6002 21.3992 35.9002 21.2992 36.6002C21.2992 36.9002 21.3992 37.2002 21.6992 37.3002C22.3992 37.5002 23.6992 37.8002 25.0992 37.0002C26.3992 36.2002 27.0992 34.9002 27.3992 34.1002C27.5992 33.6002 27.2992 33.2002 26.8992 33.2002ZM18.9992 40.8002L16.5992 39.6002L18.9992 40.8002ZM18.9992 34.3002V40.7002V41.2002V44.6002V34.3002ZM28.6992 20.8002H9.29922C8.59922 20.8002 7.99922 21.4002 7.99922 22.1002V50.0002C7.99922 50.7002 8.59922 51.3002 9.29922 51.3002H28.6992C29.3992 51.3002 29.9992 50.7002 29.9992 50.0002V22.1002C29.9992 21.4002 29.3992 20.8002 28.6992 20.8002ZM63.8992 41.1002H37.1992H63.8992ZM62.5992 20.8002H38.5992C37.8992 20.8002 37.2992 21.4002 37.2992 22.1002V33.1002C37.2992 33.8002 37.8992 34.4002 38.5992 34.4002H62.5992C63.2992 34.4002 63.8992 33.8002 63.8992 33.1002V22.1002C63.8992 21.4002 63.2992 20.8002 62.5992 20.8002ZM63.8992 6.2002C62.5992 6.2002 61.5992 7.3002 61.5992 8.5002C61.5992 9.8002 62.6992 10.9002 63.8992 10.9002C65.0992 10.9002 66.1992 9.8002 66.1992 8.5002C66.2992 7.3002 65.1992 6.2002 63.8992 6.2002ZM56.6992 6.2002C55.3992 6.2002 54.3992 7.3002 54.3992 8.5002C54.3992 9.8002 55.4992 10.9002 56.6992 10.9002C57.9992 10.9002 59.0992 9.8002 59.0992 8.5002C58.9992 7.3002 57.9992 6.2002 56.6992 6.2002ZM49.4992 6.2002C48.1992 6.2002 47.0992 7.3002 47.0992 8.5002C47.0992 9.8002 48.1992 10.9002 49.4992 10.9002C50.7992 10.9002 51.7992 9.8002 51.7992 8.5002C51.7992 7.3002 50.6992 6.2002 49.4992 6.2002ZM69.4992 0.700195H2.29922C1.39922 0.700195 0.699219 1.4002 0.699219 2.3002V14.7002H71.1992V2.3002C71.1992 1.4002 70.3992 0.700195 69.4992 0.700195ZM0.699219 14.7002V56.0002C0.699219 56.7002 1.29922 57.3002 1.99922 57.3002H54.9992C54.8992 56.6002 54.7992 55.9002 54.7992 55.1002C54.7992 53.7002 54.9992 52.4002 55.4992 51.2002C56.1992 49.2002 57.2992 47.5002 58.8992 46.1002C60.9992 44.2002 63.7992 43.1002 66.8992 43.1002C68.3992 43.1002 69.8992 43.4002 71.1992 43.9002V14.7002H0.699219Z"  stroke-width="1.4" stroke-miterlimit="10" stroke-linecap="round" stroke-linejoin="round"/>
<path d="M21.2992 37.0002L19.1992 37.8002L21.2992 37.0002ZM19.4992 27.5002C19.2992 27.2002 18.7992 27.2002 18.4992 27.5002C17.9992 28.2002 17.0992 29.4002 17.0992 31.0002C17.0992 32.6002 17.9992 33.6002 18.4992 34.1002C18.6992 34.3002 19.0992 34.3002 19.2992 34.1002C19.7992 33.7002 20.6992 32.7002 20.6992 31.0002C20.8992 29.4002 19.9992 28.2002 19.4992 27.5002ZM16.6992 39.2002C16.5992 38.5002 16.1992 37.2002 14.7992 36.4002C13.3992 35.6002 11.9992 35.7002 11.0992 35.8002C10.6992 35.9002 10.4992 36.3002 10.5992 36.6002C10.8992 37.4002 11.5992 38.7002 12.8992 39.5002C14.2992 40.3002 15.5992 40.0002 16.2992 39.8002C16.4992 39.7002 16.5992 39.6002 16.6992 39.5002C16.6992 39.4002 16.6992 39.3002 16.6992 39.2002ZM26.8992 33.2002C26.0992 33.1002 24.5992 33.0002 23.1992 33.8002C21.7992 34.6002 21.3992 35.9002 21.2992 36.6002C21.2992 36.9002 21.3992 37.2002 21.6992 37.3002C22.3992 37.5002 23.6992 37.8002 25.0992 37.0002C26.3992 36.2002 27.0992 34.9002 27.3992 34.1002C27.5992 33.6002 27.2992 33.2002 26.8992 33.2002ZM18.9992 40.8002L16.5992 39.6002L18.9992 40.8002ZM18.9992 34.3002V40.7002V41.2002V44.6002V34.3002ZM28.6992 20.8002H9.29922C8.59922 20.8002 7.99922 21.4002 7.99922 22.1002V50.0002C7.99922 50.7002 8.59922 51.3002 9.29922 51.3002H28.6992C29.3992 51.3002 29.9992 50.7002 29.9992 50.0002V22.1002C29.9992 21.4002 29.3992 20.8002 28.6992 20.8002ZM37.1992 51.3002H55.4992H37.1992ZM63.8992 41.1002H37.1992H63.8992ZM37.1992 46.2002H58.8992H37.1992ZM62.5992 20.8002H38.5992C37.8992 20.8002 37.2992 21.4002 37.2992 22.1002V33.1002C37.2992 33.8002 37.8992 34.4002 38.5992 34.4002H62.5992C63.2992 34.4002 63.8992 33.8002 63.8992 33.1002V22.1002C63.8992 21.4002 63.2992 20.8002 62.5992 20.8002ZM63.8992 6.2002C62.5992 6.2002 61.5992 7.3002 61.5992 8.5002C61.5992 9.8002 62.6992 10.9002 63.8992 10.9002C65.0992 10.9002 66.1992 9.8002 66.1992 8.5002C66.2992 7.3002 65.1992 6.2002 63.8992 6.2002ZM56.6992 6.2002C55.3992 6.2002 54.3992 7.3002 54.3992 8.5002C54.3992 9.8002 55.4992 10.9002 56.6992 10.9002C57.9992 10.9002 59.0992 9.8002 59.0992 8.5002C58.9992 7.3002 57.9992 6.2002 56.6992 6.2002ZM49.4992 6.2002C48.1992 6.2002 47.0992 7.3002 47.0992 8.5002C47.0992 9.8002 48.1992 10.9002 49.4992 10.9002C50.7992 10.9002 51.7992 9.8002 51.7992 8.5002C51.7992 7.3002 50.6992 6.2002 49.4992 6.2002ZM69.4992 0.700195H2.29922C1.39922 0.700195 0.699219 1.4002 0.699219 2.3002V14.7002H71.1992V2.3002C71.1992 1.4002 70.3992 0.700195 69.4992 0.700195ZM0.699219 14.7002V56.0002C0.699219 56.7002 1.29922 57.3002 1.99922 57.3002H54.9992C54.8992 56.6002 54.7992 55.9002 54.7992 55.1002C54.7992 53.7002 54.9992 52.4002 55.4992 51.2002C56.1992 49.2002 57.2992 47.5002 58.8992 46.1002C60.9992 44.2002 63.7992 43.1002 66.8992 43.1002C68.3992 43.1002 69.8992 43.4002 71.1992 43.9002V14.7002H0.699219Z"  stroke-width="1.4" stroke-miterlimit="10" stroke-linecap="round" stroke-linejoin="round"/>
<path d="M72.6008 51.3002L71.2008 52.7002L66.7008 57.3002L65.0008 59.0002L63.4008 57.3002L61.1008 54.8002M71.2008 44.0002C69.9008 43.5002 68.4008 43.2002 66.9008 43.2002C63.8008 43.2002 61.0008 44.3002 58.9008 46.2002C57.4008 47.6002 56.2008 49.3002 55.5008 51.3002C55.1008 52.5002 54.8008 53.8002 54.8008 55.2002C54.8008 55.9002 54.9008 56.7002 55.0008 57.4002C56.0008 63.0002 60.9008 67.2002 66.8008 67.2002C73.4008 67.2002 78.8008 61.8002 78.8008 55.2002C78.9008 50.1002 75.7008 45.7002 71.2008 44.0002Z"  stroke-width="1.4" stroke-miterlimit="10" stroke-linecap="round" stroke-linejoin="round"/>
<path d="M72.5977 51.2998L71.1977 52.6998L66.6977 57.2998L64.9977 58.9998L63.3977 57.2998L61.0977 54.8998"  stroke-width="1.4" stroke-miterlimit="10" stroke-linecap="round" stroke-linejoin="round"/>
</svg>
