<svg width="14" height="16" viewBox="0 0 14 16" fill="none" xmlns="http://www.w3.org/2000/svg">
<path d="M12.8571 14.2536H0.857143C0.383929 14.2536 0 14.6379 0 15.1114C0 15.6143 0.383929 16 0.857143 16H12.8571C13.3304 16 13.7143 15.6157 13.7143 15.1421C13.7143 14.6679 13.3321 14.2536 12.8571 14.2536ZM10.8036 6.275L7.71429 9.56071V0.860714C7.71429 0.384286 7.33214 0 6.85714 0C6.38214 0 6 0.384286 6 0.857857V9.55786L2.90964 6.275C2.74107 6.09286 2.51357 6.00357 2.28571 6.00357C2.07479 6.00357 1.86393 6.08064 1.69857 6.237C1.35371 6.56089 1.33714 7.10379 1.66175 7.44879L6.23318 12.3095C6.55682 12.6557 7.15746 12.6557 7.48104 12.3095L12.0525 7.44879C12.3773 7.10368 12.3605 6.56093 12.0156 6.237C11.6714 5.91071 11.1286 5.89643 10.8036 6.275Z" fill="#333333"/>
</svg>
