<svg width="40" height="40" viewBox="0 0 40 40" fill="none" xmlns="http://www.w3.org/2000/svg">
<g clip-path="url(#clip0_10285_109417)">
<path d="M31.7962 23.9747H8.20643C7.35707 23.9747 6.66797 24.6644 6.66797 25.5138C6.66797 26.3631 7.35707 27.0516 8.20643 27.0516H31.7962C32.6455 27.0516 33.3346 26.3631 33.3346 25.5138C33.3346 24.6644 32.6487 23.9747 31.7962 23.9747ZM8.20643 14.7439H31.7962C32.6455 14.7439 33.3346 14.0555 33.3346 13.2061C33.3346 12.3567 32.6487 11.667 31.7962 11.667H8.20643C7.35707 11.667 6.66797 12.3567 6.66797 13.2061C6.66797 14.0555 7.35707 14.7439 8.20643 14.7439Z" fill="url(#paint0_linear_10285_109417)"/>
</g>
<defs>
<linearGradient id="paint0_linear_10285_109417" x1="20.0013" y1="11.667" x2="20.0013" y2="27.0516" gradientUnits="userSpaceOnUse">
<stop stop-color="#00AF78"/>
<stop offset="1" stop-color="#00734F"/>
</linearGradient>
<clipPath id="clip0_10285_109417">
<rect width="40" height="40" fill="white"/>
</clipPath>
</defs>
</svg>
