<svg width="61" height="44" viewBox="0 0 61 44" fill="none" xmlns="http://www.w3.org/2000/svg">
<mask id="path-1-inside-1_8104_29825" fill="white">
<path fill-rule="evenodd" clip-rule="evenodd" d="M39.5066 43.4729C44.2414 43.1175 47.9708 39.2216 47.9708 34.4679C47.9708 29.4799 43.8649 25.4364 38.7999 25.4364C38.0062 25.4364 37.236 25.5357 36.5015 25.7224C35.6542 21.5969 31.9518 18.4911 27.5128 18.4911C26.1596 18.4911 24.8748 18.7797 23.7185 19.2979C22.2104 16.3451 19.1057 14.3192 15.5206 14.3192C10.4556 14.3192 6.34961 18.3627 6.34961 23.3507C6.34961 24.1896 6.46577 25.0019 6.68312 25.7727C2.82699 26.8405 0 30.3291 0 34.4679C0 39.4558 4.10598 43.4993 9.17097 43.4993C9.17127 43.4993 9.17157 43.4993 9.17188 43.4993V43.5011H39.5066V43.4729Z"/>
</mask>
<path d="M39.5066 43.4729L39.3569 41.4785L37.5066 41.6174V43.4729H39.5066ZM36.5015 25.7224L34.5424 26.1247L34.9639 28.1767L36.9942 27.6607L36.5015 25.7224ZM23.7185 19.2979L21.9374 20.2076L22.8019 21.9002L24.5364 21.123L23.7185 19.2979ZM6.68312 25.7727L7.21687 27.7001L9.15341 27.1639L8.60805 25.2299L6.68312 25.7727ZM9.17188 43.4993H11.1719V41.4993H9.17188V43.4993ZM9.17188 43.5011H7.17188V45.5011H9.17188V43.5011ZM39.5066 43.5011V45.5011H41.5066V43.5011H39.5066ZM39.6563 45.4673C45.4008 45.0362 49.9708 40.3017 49.9708 34.4679H45.9708C45.9708 38.1415 43.0819 41.1989 39.3569 41.4785L39.6563 45.4673ZM49.9708 34.4679C49.9708 28.3466 44.9404 23.4364 38.7999 23.4364V27.4364C42.7893 27.4364 45.9708 30.6133 45.9708 34.4679H49.9708ZM38.7999 23.4364C37.8388 23.4364 36.9032 23.5567 36.0089 23.784L36.9942 27.6607C37.5688 27.5147 38.1735 27.4364 38.7999 27.4364V23.4364ZM38.4606 25.32C37.4219 20.2625 32.8993 16.4911 27.5128 16.4911V20.4911C31.0043 20.4911 33.8865 22.9313 34.5424 26.1247L38.4606 25.32ZM27.5128 16.4911C25.8728 16.4911 24.3098 16.8413 22.9007 17.4727L24.5364 21.123C25.4399 20.7181 26.4463 20.4911 27.5128 20.4911V16.4911ZM25.4997 18.3881C23.6576 14.7817 19.8743 12.3192 15.5206 12.3192V16.3192C18.3372 16.3192 20.7632 17.9086 21.9374 20.2076L25.4997 18.3881ZM15.5206 12.3192C9.38004 12.3192 4.34961 17.2294 4.34961 23.3507H8.34961C8.34961 19.4961 11.5311 16.3192 15.5206 16.3192V12.3192ZM4.34961 23.3507C4.34961 24.3751 4.49156 25.3699 4.75819 26.3155L8.60805 25.2299C8.43998 24.6338 8.34961 24.0042 8.34961 23.3507H4.34961ZM6.14937 23.8452C1.46736 25.1417 -2 29.3887 -2 34.4679H2C2 31.2694 4.18662 28.5393 7.21687 27.7001L6.14937 23.8452ZM-2 34.4679C-2 40.5892 3.03043 45.4993 9.17097 45.4993V41.4993C5.18154 41.4993 2 38.3224 2 34.4679H-2ZM9.17097 45.4993C9.17097 45.4993 9.17097 45.4993 9.17097 45.4993C9.17097 45.4993 9.17097 45.4993 9.17098 45.4993C9.17098 45.4993 9.17098 45.4993 9.17098 45.4993H9.17098C9.17098 45.4993 9.17098 45.4993 9.17098 45.4993C9.17098 45.4993 9.17098 45.4993 9.17098 45.4993C9.17098 45.4993 9.17098 45.4993 9.17098 45.4993C9.17099 45.4993 9.17099 45.4993 9.17099 45.4993C9.17099 45.4993 9.17099 45.4993 9.17099 45.4993C9.17099 45.4993 9.17099 45.4993 9.17099 45.4993H9.17099C9.17099 45.4993 9.17099 45.4993 9.17099 45.4993C9.17099 45.4993 9.17099 45.4993 9.17099 45.4993C9.171 45.4993 9.171 45.4993 9.171 45.4993C9.171 45.4993 9.171 45.4993 9.171 45.4993C9.171 45.4993 9.171 45.4993 9.171 45.4993H9.171C9.171 45.4993 9.171 45.4993 9.171 45.4993C9.171 45.4993 9.17101 45.4993 9.17101 45.4993C9.17101 45.4993 9.17101 45.4993 9.17101 45.4993C9.17101 45.4993 9.17101 45.4993 9.17101 45.4993C9.17101 45.4993 9.17101 45.4993 9.17101 45.4993C9.17101 45.4993 9.17101 45.4993 9.17101 45.4993H9.17101C9.17101 45.4993 9.17102 45.4993 9.17102 45.4993C9.17102 45.4993 9.17102 45.4993 9.17102 45.4993C9.17102 45.4993 9.17102 45.4993 9.17102 45.4993C9.17102 45.4993 9.17102 45.4993 9.17102 45.4993C9.17102 45.4993 9.17102 45.4993 9.17102 45.4993C9.17102 45.4993 9.17102 45.4993 9.17103 45.4993H9.17103C9.17103 45.4993 9.17103 45.4993 9.17103 45.4993C9.17103 45.4993 9.17103 45.4993 9.17103 45.4993C9.17103 45.4993 9.17103 45.4993 9.17103 45.4993C9.17103 45.4993 9.17103 45.4993 9.17103 45.4993C9.17103 45.4993 9.17103 45.4993 9.17104 45.4993H9.17104C9.17104 45.4993 9.17104 45.4993 9.17104 45.4993C9.17104 45.4993 9.17104 45.4993 9.17104 45.4993C9.17104 45.4993 9.17104 45.4993 9.17104 45.4993C9.17104 45.4993 9.17104 45.4993 9.17104 45.4993C9.17105 45.4993 9.17105 45.4993 9.17105 45.4993C9.17105 45.4993 9.17105 45.4993 9.17105 45.4993H9.17105C9.17105 45.4993 9.17105 45.4993 9.17105 45.4993C9.17105 45.4993 9.17105 45.4993 9.17105 45.4993C9.17105 45.4993 9.17105 45.4993 9.17105 45.4993C9.17106 45.4993 9.17106 45.4993 9.17106 45.4993C9.17106 45.4993 9.17106 45.4993 9.17106 45.4993C9.17106 45.4993 9.17106 45.4993 9.17106 45.4993H9.17106C9.17106 45.4993 9.17106 45.4993 9.17106 45.4993C9.17106 45.4993 9.17106 45.4993 9.17107 45.4993C9.17107 45.4993 9.17107 45.4993 9.17107 45.4993C9.17107 45.4993 9.17107 45.4993 9.17107 45.4993C9.17107 45.4993 9.17107 45.4993 9.17107 45.4993C9.17107 45.4993 9.17107 45.4993 9.17107 45.4993H9.17107C9.17107 45.4993 9.17108 45.4993 9.17108 45.4993C9.17108 45.4993 9.17108 45.4993 9.17108 45.4993C9.17108 45.4993 9.17108 45.4993 9.17108 45.4993C9.17108 45.4993 9.17108 45.4993 9.17108 45.4993C9.17108 45.4993 9.17108 45.4993 9.17108 45.4993H9.17108C9.17109 45.4993 9.17109 45.4993 9.17109 45.4993C9.17109 45.4993 9.17109 45.4993 9.17109 45.4993C9.17109 45.4993 9.17109 45.4993 9.17109 45.4993C9.17109 45.4993 9.17109 45.4993 9.17109 45.4993C9.17109 45.4993 9.17109 45.4993 9.17109 45.4993C9.17109 45.4993 9.17109 45.4993 9.1711 45.4993H9.1711C9.1711 45.4993 9.1711 45.4993 9.1711 45.4993C9.1711 45.4993 9.1711 45.4993 9.1711 45.4993C9.1711 45.4993 9.1711 45.4993 9.1711 45.4993C9.1711 45.4993 9.1711 45.4993 9.1711 45.4993C9.1711 45.4993 9.17111 45.4993 9.17111 45.4993C9.17111 45.4993 9.17111 45.4993 9.17111 45.4993H9.17111C9.17111 45.4993 9.17111 45.4993 9.17111 45.4993C9.17111 45.4993 9.17111 45.4993 9.17111 45.4993C9.17111 45.4993 9.17111 45.4993 9.17111 45.4993C9.17112 45.4993 9.17112 45.4993 9.17112 45.4993C9.17112 45.4993 9.17112 45.4993 9.17112 45.4993H9.17112C9.17112 45.4993 9.17112 45.4993 9.17112 45.4993C9.17112 45.4993 9.17112 45.4993 9.17112 45.4993C9.17112 45.4993 9.17112 45.4993 9.17113 45.4993C9.17113 45.4993 9.17113 45.4993 9.17113 45.4993C9.17113 45.4993 9.17113 45.4993 9.17113 45.4993C9.17113 45.4993 9.17113 45.4993 9.17113 45.4993H9.17113C9.17113 45.4993 9.17113 45.4993 9.17113 45.4993C9.17113 45.4993 9.17113 45.4993 9.17114 45.4993C9.17114 45.4993 9.17114 45.4993 9.17114 45.4993C9.17114 45.4993 9.17114 45.4993 9.17114 45.4993C9.17114 45.4993 9.17114 45.4993 9.17114 45.4993C9.17114 45.4993 9.17114 45.4993 9.17114 45.4993H9.17114C9.17115 45.4993 9.17115 45.4993 9.17115 45.4993C9.17115 45.4993 9.17115 45.4993 9.17115 45.4993C9.17115 45.4993 9.17115 45.4993 9.17115 45.4993C9.17115 45.4993 9.17115 45.4993 9.17115 45.4993C9.17115 45.4993 9.17115 45.4993 9.17115 45.4993H9.17115C9.17116 45.4993 9.17116 45.4993 9.17116 45.4993C9.17116 45.4993 9.17116 45.4993 9.17116 45.4993C9.17116 45.4993 9.17116 45.4993 9.17116 45.4993C9.17116 45.4993 9.17116 45.4993 9.17116 45.4993C9.17116 45.4993 9.17116 45.4993 9.17116 45.4993C9.17116 45.4993 9.17117 45.4993 9.17117 45.4993H9.17117C9.17117 45.4993 9.17117 45.4993 9.17117 45.4993C9.17117 45.4993 9.17117 45.4993 9.17117 45.4993C9.17117 45.4993 9.17117 45.4993 9.17117 45.4993C9.17117 45.4993 9.17117 45.4993 9.17118 45.4993C9.17118 45.4993 9.17118 45.4993 9.17118 45.4993C9.17118 45.4993 9.17118 45.4993 9.17118 45.4993H9.17118C9.17118 45.4993 9.17118 45.4993 9.17118 45.4993C9.17118 45.4993 9.17118 45.4993 9.17118 45.4993C9.17118 45.4993 9.17118 45.4993 9.17119 45.4993C9.17119 45.4993 9.17119 45.4993 9.17119 45.4993C9.17119 45.4993 9.17119 45.4993 9.17119 45.4993H9.17119C9.17119 45.4993 9.17119 45.4993 9.17119 45.4993C9.17119 45.4993 9.17119 45.4993 9.17119 45.4993C9.1712 45.4993 9.1712 45.4993 9.1712 45.4993C9.1712 45.4993 9.1712 45.4993 9.1712 45.4993C9.1712 45.4993 9.1712 45.4993 9.1712 45.4993C9.1712 45.4993 9.1712 45.4993 9.1712 45.4993H9.1712C9.1712 45.4993 9.1712 45.4993 9.1712 45.4993C9.17121 45.4993 9.17121 45.4993 9.17121 45.4993C9.17121 45.4993 9.17121 45.4993 9.17121 45.4993C9.17121 45.4993 9.17121 45.4993 9.17121 45.4993C9.17121 45.4993 9.17121 45.4993 9.17121 45.4993H9.17121C9.17121 45.4993 9.17122 45.4993 9.17122 45.4993C9.17122 45.4993 9.17122 45.4993 9.17122 45.4993C9.17122 45.4993 9.17122 45.4993 9.17122 45.4993C9.17122 45.4993 9.17122 45.4993 9.17122 45.4993C9.17122 45.4993 9.17122 45.4993 9.17122 45.4993C9.17122 45.4993 9.17122 45.4993 9.17122 45.4993H9.17123C9.17123 45.4993 9.17123 45.4993 9.17123 45.4993C9.17123 45.4993 9.17123 45.4993 9.17123 45.4993C9.17123 45.4993 9.17123 45.4993 9.17123 45.4993C9.17123 45.4993 9.17123 45.4993 9.17123 45.4993C9.17123 45.4993 9.17123 45.4993 9.17124 45.4993C9.17124 45.4993 9.17124 45.4993 9.17124 45.4993H9.17124C9.17124 45.4993 9.17124 45.4993 9.17124 45.4993C9.17124 45.4993 9.17124 45.4993 9.17124 45.4993C9.17124 45.4993 9.17124 45.4993 9.17124 45.4993C9.17124 45.4993 9.17124 45.4993 9.17125 45.4993C9.17125 45.4993 9.17125 45.4993 9.17125 45.4993H9.17125C9.17125 45.4993 9.17125 45.4993 9.17125 45.4993C9.17125 45.4993 9.17125 45.4993 9.17125 45.4993C9.17125 45.4993 9.17125 45.4993 9.17125 45.4993C9.17126 45.4993 9.17126 45.4993 9.17126 45.4993C9.17126 45.4993 9.17126 45.4993 9.17126 45.4993C9.17126 45.4993 9.17126 45.4993 9.17126 45.4993H9.17126C9.17126 45.4993 9.17126 45.4993 9.17126 45.4993C9.17126 45.4993 9.17126 45.4993 9.17126 45.4993C9.17127 45.4993 9.17127 45.4993 9.17127 45.4993C9.17127 45.4993 9.17127 45.4993 9.17127 45.4993C9.17127 45.4993 9.17127 45.4993 9.17127 45.4993C9.17127 45.4993 9.17127 45.4993 9.17127 45.4993H9.17127C9.17127 45.4993 9.17128 45.4993 9.17128 45.4993C9.17128 45.4993 9.17128 45.4993 9.17128 45.4993C9.17128 45.4993 9.17128 45.4993 9.17128 45.4993C9.17128 45.4993 9.17128 45.4993 9.17128 45.4993C9.17128 45.4993 9.17128 45.4993 9.17128 45.4993H9.17128C9.17128 45.4993 9.17129 45.4993 9.17129 45.4993C9.17129 45.4993 9.17129 45.4993 9.17129 45.4993C9.17129 45.4993 9.17129 45.4993 9.17129 45.4993C9.17129 45.4993 9.17129 45.4993 9.17129 45.4993C9.17129 45.4993 9.17129 45.4993 9.17129 45.4993C9.17129 45.4993 9.17129 45.4993 9.1713 45.4993H9.1713C9.1713 45.4993 9.1713 45.4993 9.1713 45.4993C9.1713 45.4993 9.1713 45.4993 9.1713 45.4993C9.1713 45.4993 9.1713 45.4993 9.1713 45.4993C9.1713 45.4993 9.1713 45.4993 9.1713 45.4993C9.1713 45.4993 9.1713 45.4993 9.17131 45.4993H9.17131C9.17131 45.4993 9.17131 45.4993 9.17131 45.4993C9.17131 45.4993 9.17131 45.4993 9.17131 45.4993C9.17131 45.4993 9.17131 45.4993 9.17131 45.4993C9.17131 45.4993 9.17131 45.4993 9.17131 45.4993C9.17131 45.4993 9.17132 45.4993 9.17132 45.4993C9.17132 45.4993 9.17132 45.4993 9.17132 45.4993H9.17132C9.17132 45.4993 9.17132 45.4993 9.17132 45.4993C9.17132 45.4993 9.17132 45.4993 9.17132 45.4993C9.17132 45.4993 9.17132 45.4993 9.17132 45.4993C9.17133 45.4993 9.17133 45.4993 9.17133 45.4993C9.17133 45.4993 9.17133 45.4993 9.17133 45.4993C9.17133 45.4993 9.17133 45.4993 9.17133 45.4993H9.17133C9.17133 45.4993 9.17133 45.4993 9.17133 45.4993C9.17133 45.4993 9.17133 45.4993 9.17134 45.4993C9.17134 45.4993 9.17134 45.4993 9.17134 45.4993C9.17134 45.4993 9.17134 45.4993 9.17134 45.4993C9.17134 45.4993 9.17134 45.4993 9.17134 45.4993H9.17134C9.17134 45.4993 9.17134 45.4993 9.17134 45.4993C9.17134 45.4993 9.17135 45.4993 9.17135 45.4993C9.17135 45.4993 9.17135 45.4993 9.17135 45.4993C9.17135 45.4993 9.17135 45.4993 9.17135 45.4993C9.17135 45.4993 9.17135 45.4993 9.17135 45.4993C9.17135 45.4993 9.17135 45.4993 9.17135 45.4993H9.17135C9.17136 45.4993 9.17136 45.4993 9.17136 45.4993C9.17136 45.4993 9.17136 45.4993 9.17136 45.4993C9.17136 45.4993 9.17136 45.4993 9.17136 45.4993C9.17136 45.4993 9.17136 45.4993 9.17136 45.4993C9.17136 45.4993 9.17136 45.4993 9.17136 45.4993H9.17136C9.17137 45.4993 9.17137 45.4993 9.17137 45.4993C9.17137 45.4993 9.17137 45.4993 9.17137 45.4993C9.17137 45.4993 9.17137 45.4993 9.17137 45.4993C9.17137 45.4993 9.17137 45.4993 9.17137 45.4993C9.17137 45.4993 9.17137 45.4993 9.17137 45.4993C9.17137 45.4993 9.17138 45.4993 9.17138 45.4993H9.17138C9.17138 45.4993 9.17138 45.4993 9.17138 45.4993C9.17138 45.4993 9.17138 45.4993 9.17138 45.4993C9.17138 45.4993 9.17138 45.4993 9.17138 45.4993C9.17138 45.4993 9.17138 45.4993 9.17138 45.4993C9.17138 45.4993 9.17139 45.4993 9.17139 45.4993C9.17139 45.4993 9.17139 45.4993 9.17139 45.4993H9.17139C9.17139 45.4993 9.17139 45.4993 9.17139 45.4993C9.17139 45.4993 9.17139 45.4993 9.17139 45.4993C9.17139 45.4993 9.17139 45.4993 9.1714 45.4993C9.1714 45.4993 9.1714 45.4993 9.1714 45.4993C9.1714 45.4993 9.1714 45.4993 9.1714 45.4993H9.1714C9.1714 45.4993 9.1714 45.4993 9.1714 45.4993C9.1714 45.4993 9.1714 45.4993 9.1714 45.4993C9.1714 45.4993 9.1714 45.4993 9.17141 45.4993C9.17141 45.4993 9.17141 45.4993 9.17141 45.4993C9.17141 45.4993 9.17141 45.4993 9.17141 45.4993C9.17141 45.4993 9.17141 45.4993 9.17141 45.4993H9.17141C9.17141 45.4993 9.17141 45.4993 9.17141 45.4993C9.17142 45.4993 9.17142 45.4993 9.17142 45.4993C9.17142 45.4993 9.17142 45.4993 9.17142 45.4993C9.17142 45.4993 9.17142 45.4993 9.17142 45.4993C9.17142 45.4993 9.17142 45.4993 9.17142 45.4993H9.17142C9.17142 45.4993 9.17142 45.4993 9.17142 45.4993C9.17143 45.4993 9.17143 45.4993 9.17143 45.4993C9.17143 45.4993 9.17143 45.4993 9.17143 45.4993C9.17143 45.4993 9.17143 45.4993 9.17143 45.4993C9.17143 45.4993 9.17143 45.4993 9.17143 45.4993C9.17143 45.4993 9.17143 45.4993 9.17143 45.4993H9.17144C9.17144 45.4993 9.17144 45.4993 9.17144 45.4993C9.17144 45.4993 9.17144 45.4993 9.17144 45.4993C9.17144 45.4993 9.17144 45.4993 9.17144 45.4993C9.17144 45.4993 9.17144 45.4993 9.17144 45.4993C9.17144 45.4993 9.17144 45.4993 9.17144 45.4993C9.17144 45.4993 9.17145 45.4993 9.17145 45.4993H9.17145C9.17145 45.4993 9.17145 45.4993 9.17145 45.4993C9.17145 45.4993 9.17145 45.4993 9.17145 45.4993C9.17145 45.4993 9.17145 45.4993 9.17145 45.4993C9.17145 45.4993 9.17145 45.4993 9.17146 45.4993C9.17146 45.4993 9.17146 45.4993 9.17146 45.4993H9.17146C9.17146 45.4993 9.17146 45.4993 9.17146 45.4993C9.17146 45.4993 9.17146 45.4993 9.17146 45.4993C9.17146 45.4993 9.17146 45.4993 9.17146 45.4993C9.17146 45.4993 9.17146 45.4993 9.17147 45.4993C9.17147 45.4993 9.17147 45.4993 9.17147 45.4993C9.17147 45.4993 9.17147 45.4993 9.17147 45.4993H9.17147C9.17147 45.4993 9.17147 45.4993 9.17147 45.4993C9.17147 45.4993 9.17147 45.4993 9.17147 45.4993C9.17148 45.4993 9.17148 45.4993 9.17148 45.4993C9.17148 45.4993 9.17148 45.4993 9.17148 45.4993C9.17148 45.4993 9.17148 45.4993 9.17148 45.4993C9.17148 45.4993 9.17148 45.4993 9.17148 45.4993H9.17148C9.17148 45.4993 9.17148 45.4993 9.17148 45.4993C9.17149 45.4993 9.17149 45.4993 9.17149 45.4993C9.17149 45.4993 9.17149 45.4993 9.17149 45.4993C9.17149 45.4993 9.17149 45.4993 9.17149 45.4993C9.17149 45.4993 9.17149 45.4993 9.17149 45.4993H9.17149C9.17149 45.4993 9.1715 45.4993 9.1715 45.4993C9.1715 45.4993 9.1715 45.4993 9.1715 45.4993C9.1715 45.4993 9.1715 45.4993 9.1715 45.4993C9.1715 45.4993 9.1715 45.4993 9.1715 45.4993C9.1715 45.4993 9.1715 45.4993 9.1715 45.4993C9.1715 45.4993 9.1715 45.4993 9.1715 45.4993H9.17151C9.17151 45.4993 9.17151 45.4993 9.17151 45.4993C9.17151 45.4993 9.17151 45.4993 9.17151 45.4993C9.17151 45.4993 9.17151 45.4993 9.17151 45.4993C9.17151 45.4993 9.17151 45.4993 9.17151 45.4993C9.17151 45.4993 9.17151 45.4993 9.17152 45.4993H9.17152C9.17152 45.4993 9.17152 45.4993 9.17152 45.4993C9.17152 45.4993 9.17152 45.4993 9.17152 45.4993C9.17152 45.4993 9.17152 45.4993 9.17152 45.4993C9.17152 45.4993 9.17152 45.4993 9.17152 45.4993C9.17152 45.4993 9.17153 45.4993 9.17153 45.4993C9.17153 45.4993 9.17153 45.4993 9.17153 45.4993H9.17153C9.17153 45.4993 9.17153 45.4993 9.17153 45.4993C9.17153 45.4993 9.17153 45.4993 9.17153 45.4993C9.17153 45.4993 9.17153 45.4993 9.17153 45.4993C9.17154 45.4993 9.17154 45.4993 9.17154 45.4993C9.17154 45.4993 9.17154 45.4993 9.17154 45.4993C9.17154 45.4993 9.17154 45.4993 9.17154 45.4993H9.17154C9.17154 45.4993 9.17154 45.4993 9.17154 45.4993C9.17154 45.4993 9.17154 45.4993 9.17155 45.4993C9.17155 45.4993 9.17155 45.4993 9.17155 45.4993C9.17155 45.4993 9.17155 45.4993 9.17155 45.4993C9.17155 45.4993 9.17155 45.4993 9.17155 45.4993H9.17155C9.17155 45.4993 9.17155 45.4993 9.17155 45.4993C9.17155 45.4993 9.17156 45.4993 9.17156 45.4993C9.17156 45.4993 9.17156 45.4993 9.17156 45.4993C9.17156 45.4993 9.17156 45.4993 9.17156 45.4993C9.17156 45.4993 9.17156 45.4993 9.17156 45.4993C9.17156 45.4993 9.17156 45.4993 9.17156 45.4993H9.17156C9.17157 45.4993 9.17157 45.4993 9.17157 45.4993C9.17157 45.4993 9.17157 45.4993 9.17157 45.4993C9.17157 45.4993 9.17157 45.4993 9.17157 45.4993C9.17157 45.4993 9.17157 45.4993 9.17157 45.4993C9.17157 45.4993 9.17157 45.4993 9.17157 45.4993H9.17157C9.17158 45.4993 9.17158 45.4993 9.17158 45.4993C9.17158 45.4993 9.17158 45.4993 9.17158 45.4993C9.17158 45.4993 9.17158 45.4993 9.17158 45.4993C9.17158 45.4993 9.17158 45.4993 9.17158 45.4993C9.17158 45.4993 9.17158 45.4993 9.17158 45.4993C9.17158 45.4993 9.17159 45.4993 9.17159 45.4993H9.17159C9.17159 45.4993 9.17159 45.4993 9.17159 45.4993C9.17159 45.4993 9.17159 45.4993 9.17159 45.4993C9.17159 45.4993 9.17159 45.4993 9.17159 45.4993C9.17159 45.4993 9.17159 45.4993 9.17159 45.4993C9.17159 45.4993 9.1716 45.4993 9.1716 45.4993C9.1716 45.4993 9.1716 45.4993 9.1716 45.4993H9.1716C9.1716 45.4993 9.1716 45.4993 9.1716 45.4993C9.1716 45.4993 9.1716 45.4993 9.1716 45.4993C9.1716 45.4993 9.1716 45.4993 9.17161 45.4993C9.17161 45.4993 9.17161 45.4993 9.17161 45.4993C9.17161 45.4993 9.17161 45.4993 9.17161 45.4993H9.17161C9.17161 45.4993 9.17161 45.4993 9.17161 45.4993C9.17161 45.4993 9.17161 45.4993 9.17161 45.4993C9.17161 45.4993 9.17161 45.4993 9.17162 45.4993C9.17162 45.4993 9.17162 45.4993 9.17162 45.4993C9.17162 45.4993 9.17162 45.4993 9.17162 45.4993C9.17162 45.4993 9.17162 45.4993 9.17162 45.4993H9.17162C9.17162 45.4993 9.17162 45.4993 9.17162 45.4993C9.17163 45.4993 9.17163 45.4993 9.17163 45.4993C9.17163 45.4993 9.17163 45.4993 9.17163 45.4993C9.17163 45.4993 9.17163 45.4993 9.17163 45.4993C9.17163 45.4993 9.17163 45.4993 9.17163 45.4993C9.17163 45.4993 9.17163 45.4993 9.17163 45.4993H9.17163C9.17164 45.4993 9.17164 45.4993 9.17164 45.4993C9.17164 45.4993 9.17164 45.4993 9.17164 45.4993C9.17164 45.4993 9.17164 45.4993 9.17164 45.4993C9.17164 45.4993 9.17164 45.4993 9.17164 45.4993C9.17164 45.4993 9.17164 45.4993 9.17164 45.4993H9.17165C9.17165 45.4993 9.17165 45.4993 9.17165 45.4993C9.17165 45.4993 9.17165 45.4993 9.17165 45.4993C9.17165 45.4993 9.17165 45.4993 9.17165 45.4993C9.17165 45.4993 9.17165 45.4993 9.17165 45.4993C9.17165 45.4993 9.17165 45.4993 9.17165 45.4993C9.17165 45.4993 9.17166 45.4993 9.17166 45.4993H9.17166C9.17166 45.4993 9.17166 45.4993 9.17166 45.4993C9.17166 45.4993 9.17166 45.4993 9.17166 45.4993C9.17166 45.4993 9.17166 45.4993 9.17166 45.4993C9.17166 45.4993 9.17166 45.4993 9.17167 45.4993C9.17167 45.4993 9.17167 45.4993 9.17167 45.4993H9.17167C9.17167 45.4993 9.17167 45.4993 9.17167 45.4993C9.17167 45.4993 9.17167 45.4993 9.17167 45.4993C9.17167 45.4993 9.17167 45.4993 9.17167 45.4993C9.17167 45.4993 9.17167 45.4993 9.17168 45.4993C9.17168 45.4993 9.17168 45.4993 9.17168 45.4993C9.17168 45.4993 9.17168 45.4993 9.17168 45.4993H9.17168C9.17168 45.4993 9.17168 45.4993 9.17168 45.4993C9.17168 45.4993 9.17168 45.4993 9.17168 45.4993C9.17169 45.4993 9.17169 45.4993 9.17169 45.4993C9.17169 45.4993 9.17169 45.4993 9.17169 45.4993C9.17169 45.4993 9.17169 45.4993 9.17169 45.4993C9.17169 45.4993 9.17169 45.4993 9.17169 45.4993H9.17169C9.17169 45.4993 9.17169 45.4993 9.17169 45.4993C9.1717 45.4993 9.1717 45.4993 9.1717 45.4993C9.1717 45.4993 9.1717 45.4993 9.1717 45.4993C9.1717 45.4993 9.1717 45.4993 9.1717 45.4993C9.1717 45.4993 9.1717 45.4993 9.1717 45.4993H9.1717C9.1717 45.4993 9.17171 45.4993 9.17171 45.4993C9.17171 45.4993 9.17171 45.4993 9.17171 45.4993C9.17171 45.4993 9.17171 45.4993 9.17171 45.4993C9.17171 45.4993 9.17171 45.4993 9.17171 45.4993C9.17171 45.4993 9.17171 45.4993 9.17171 45.4993C9.17171 45.4993 9.17171 45.4993 9.17171 45.4993H9.17172C9.17172 45.4993 9.17172 45.4993 9.17172 45.4993C9.17172 45.4993 9.17172 45.4993 9.17172 45.4993C9.17172 45.4993 9.17172 45.4993 9.17172 45.4993C9.17172 45.4993 9.17172 45.4993 9.17172 45.4993C9.17172 45.4993 9.17172 45.4993 9.17173 45.4993C9.17173 45.4993 9.17173 45.4993 9.17173 45.4993H9.17173C9.17173 45.4993 9.17173 45.4993 9.17173 45.4993C9.17173 45.4993 9.17173 45.4993 9.17173 45.4993C9.17173 45.4993 9.17173 45.4993 9.17173 45.4993C9.17173 45.4993 9.17173 45.4993 9.17174 45.4993C9.17174 45.4993 9.17174 45.4993 9.17174 45.4993H9.17174C9.17174 45.4993 9.17174 45.4993 9.17174 45.4993C9.17174 45.4993 9.17174 45.4993 9.17174 45.4993C9.17174 45.4993 9.17174 45.4993 9.17174 45.4993C9.17175 45.4993 9.17175 45.4993 9.17175 45.4993C9.17175 45.4993 9.17175 45.4993 9.17175 45.4993C9.17175 45.4993 9.17175 45.4993 9.17175 45.4993H9.17175C9.17175 45.4993 9.17175 45.4993 9.17175 45.4993C9.17175 45.4993 9.17175 45.4993 9.17175 45.4993C9.17176 45.4993 9.17176 45.4993 9.17176 45.4993C9.17176 45.4993 9.17176 45.4993 9.17176 45.4993C9.17176 45.4993 9.17176 45.4993 9.17176 45.4993C9.17176 45.4993 9.17176 45.4993 9.17176 45.4993H9.17176C9.17176 45.4993 9.17177 45.4993 9.17177 45.4993C9.17177 45.4993 9.17177 45.4993 9.17177 45.4993C9.17177 45.4993 9.17177 45.4993 9.17177 45.4993C9.17177 45.4993 9.17177 45.4993 9.17177 45.4993C9.17177 45.4993 9.17177 45.4993 9.17177 45.4993H9.17177C9.17177 45.4993 9.17178 45.4993 9.17178 45.4993C9.17178 45.4993 9.17178 45.4993 9.17178 45.4993C9.17178 45.4993 9.17178 45.4993 9.17178 45.4993C9.17178 45.4993 9.17178 45.4993 9.17178 45.4993C9.17178 45.4993 9.17178 45.4993 9.17178 45.4993C9.17178 45.4993 9.17178 45.4993 9.17179 45.4993H9.17179C9.17179 45.4993 9.17179 45.4993 9.17179 45.4993C9.17179 45.4993 9.17179 45.4993 9.17179 45.4993C9.17179 45.4993 9.17179 45.4993 9.17179 45.4993C9.17179 45.4993 9.17179 45.4993 9.17179 45.4993C9.17179 45.4993 9.17179 45.4993 9.1718 45.4993C9.1718 45.4993 9.1718 45.4993 9.1718 45.4993H9.1718C9.1718 45.4993 9.1718 45.4993 9.1718 45.4993C9.1718 45.4993 9.1718 45.4993 9.1718 45.4993C9.1718 45.4993 9.1718 45.4993 9.1718 45.4993C9.17181 45.4993 9.17181 45.4993 9.17181 45.4993C9.17181 45.4993 9.17181 45.4993 9.17181 45.4993C9.17181 45.4993 9.17181 45.4993 9.17181 45.4993H9.17181C9.17181 45.4993 9.17181 45.4993 9.17181 45.4993C9.17181 45.4993 9.17181 45.4993 9.17181 45.4993C9.17182 45.4993 9.17182 45.4993 9.17182 45.4993C9.17182 45.4993 9.17182 45.4993 9.17182 45.4993C9.17182 45.4993 9.17182 45.4993 9.17182 45.4993H9.17182C9.17182 45.4993 9.17182 45.4993 9.17182 45.4993C9.17182 45.4993 9.17183 45.4993 9.17183 45.4993C9.17183 45.4993 9.17183 45.4993 9.17183 45.4993C9.17183 45.4993 9.17183 45.4993 9.17183 45.4993C9.17183 45.4993 9.17183 45.4993 9.17183 45.4993C9.17183 45.4993 9.17183 45.4993 9.17183 45.4993H9.17183C9.17183 45.4993 9.17184 45.4993 9.17184 45.4993C9.17184 45.4993 9.17184 45.4993 9.17184 45.4993C9.17184 45.4993 9.17184 45.4993 9.17184 45.4993C9.17184 45.4993 9.17184 45.4993 9.17184 45.4993C9.17184 45.4993 9.17184 45.4993 9.17184 45.4993C9.17184 45.4993 9.17184 45.4993 9.17185 45.4993H9.17185C9.17185 45.4993 9.17185 45.4993 9.17185 45.4993C9.17185 45.4993 9.17185 45.4993 9.17185 45.4993C9.17185 45.4993 9.17185 45.4993 9.17185 45.4993C9.17185 45.4993 9.17185 45.4993 9.17185 45.4993C9.17185 45.4993 9.17185 45.4993 9.17186 45.4993H9.17186C9.17186 45.4993 9.17186 45.4993 9.17186 45.4993C9.17186 45.4993 9.17186 45.4993 9.17186 45.4993C9.17186 45.4993 9.17186 45.4993 9.17186 45.4993C9.17186 45.4993 9.17186 45.4993 9.17186 45.4993C9.17187 45.4993 9.17187 45.4993 9.17187 45.4993C9.17187 45.4993 9.17187 45.4993 9.17187 45.4993H9.17187C9.17187 45.4993 9.17187 45.4993 9.17187 45.4993C9.17187 45.4993 9.17187 45.4993 9.17187 45.4993C9.17187 45.4993 9.17187 45.4993 9.17188 45.4993V41.4993C9.17187 41.4993 9.17187 41.4993 9.17187 41.4993C9.17187 41.4993 9.17187 41.4993 9.17187 41.4993C9.17187 41.4993 9.17187 41.4993 9.17187 41.4993H9.17187C9.17187 41.4993 9.17187 41.4993 9.17187 41.4993C9.17187 41.4993 9.17187 41.4993 9.17186 41.4993C9.17186 41.4993 9.17186 41.4993 9.17186 41.4993C9.17186 41.4993 9.17186 41.4993 9.17186 41.4993C9.17186 41.4993 9.17186 41.4993 9.17186 41.4993C9.17186 41.4993 9.17186 41.4993 9.17186 41.4993H9.17186C9.17185 41.4993 9.17185 41.4993 9.17185 41.4993C9.17185 41.4993 9.17185 41.4993 9.17185 41.4993C9.17185 41.4993 9.17185 41.4993 9.17185 41.4993C9.17185 41.4993 9.17185 41.4993 9.17185 41.4993C9.17185 41.4993 9.17185 41.4993 9.17185 41.4993H9.17185C9.17184 41.4993 9.17184 41.4993 9.17184 41.4993C9.17184 41.4993 9.17184 41.4993 9.17184 41.4993C9.17184 41.4993 9.17184 41.4993 9.17184 41.4993C9.17184 41.4993 9.17184 41.4993 9.17184 41.4993C9.17184 41.4993 9.17184 41.4993 9.17184 41.4993C9.17184 41.4993 9.17183 41.4993 9.17183 41.4993H9.17183C9.17183 41.4993 9.17183 41.4993 9.17183 41.4993C9.17183 41.4993 9.17183 41.4993 9.17183 41.4993C9.17183 41.4993 9.17183 41.4993 9.17183 41.4993C9.17183 41.4993 9.17183 41.4993 9.17183 41.4993C9.17183 41.4993 9.17182 41.4993 9.17182 41.4993C9.17182 41.4993 9.17182 41.4993 9.17182 41.4993H9.17182C9.17182 41.4993 9.17182 41.4993 9.17182 41.4993C9.17182 41.4993 9.17182 41.4993 9.17182 41.4993C9.17182 41.4993 9.17182 41.4993 9.17181 41.4993C9.17181 41.4993 9.17181 41.4993 9.17181 41.4993C9.17181 41.4993 9.17181 41.4993 9.17181 41.4993H9.17181C9.17181 41.4993 9.17181 41.4993 9.17181 41.4993C9.17181 41.4993 9.17181 41.4993 9.17181 41.4993C9.17181 41.4993 9.17181 41.4993 9.1718 41.4993C9.1718 41.4993 9.1718 41.4993 9.1718 41.4993C9.1718 41.4993 9.1718 41.4993 9.1718 41.4993C9.1718 41.4993 9.1718 41.4993 9.1718 41.4993H9.1718C9.1718 41.4993 9.1718 41.4993 9.1718 41.4993C9.17179 41.4993 9.17179 41.4993 9.17179 41.4993C9.17179 41.4993 9.17179 41.4993 9.17179 41.4993C9.17179 41.4993 9.17179 41.4993 9.17179 41.4993C9.17179 41.4993 9.17179 41.4993 9.17179 41.4993C9.17179 41.4993 9.17179 41.4993 9.17179 41.4993H9.17179C9.17178 41.4993 9.17178 41.4993 9.17178 41.4993C9.17178 41.4993 9.17178 41.4993 9.17178 41.4993C9.17178 41.4993 9.17178 41.4993 9.17178 41.4993C9.17178 41.4993 9.17178 41.4993 9.17178 41.4993C9.17178 41.4993 9.17178 41.4993 9.17178 41.4993C9.17178 41.4993 9.17177 41.4993 9.17177 41.4993H9.17177C9.17177 41.4993 9.17177 41.4993 9.17177 41.4993C9.17177 41.4993 9.17177 41.4993 9.17177 41.4993C9.17177 41.4993 9.17177 41.4993 9.17177 41.4993C9.17177 41.4993 9.17177 41.4993 9.17177 41.4993C9.17177 41.4993 9.17176 41.4993 9.17176 41.4993H9.17176C9.17176 41.4993 9.17176 41.4993 9.17176 41.4993C9.17176 41.4993 9.17176 41.4993 9.17176 41.4993C9.17176 41.4993 9.17176 41.4993 9.17176 41.4993C9.17176 41.4993 9.17176 41.4993 9.17175 41.4993C9.17175 41.4993 9.17175 41.4993 9.17175 41.4993C9.17175 41.4993 9.17175 41.4993 9.17175 41.4993H9.17175C9.17175 41.4993 9.17175 41.4993 9.17175 41.4993C9.17175 41.4993 9.17175 41.4993 9.17175 41.4993C9.17175 41.4993 9.17175 41.4993 9.17174 41.4993C9.17174 41.4993 9.17174 41.4993 9.17174 41.4993C9.17174 41.4993 9.17174 41.4993 9.17174 41.4993C9.17174 41.4993 9.17174 41.4993 9.17174 41.4993H9.17174C9.17174 41.4993 9.17174 41.4993 9.17174 41.4993C9.17173 41.4993 9.17173 41.4993 9.17173 41.4993C9.17173 41.4993 9.17173 41.4993 9.17173 41.4993C9.17173 41.4993 9.17173 41.4993 9.17173 41.4993C9.17173 41.4993 9.17173 41.4993 9.17173 41.4993H9.17173C9.17173 41.4993 9.17173 41.4993 9.17173 41.4993C9.17172 41.4993 9.17172 41.4993 9.17172 41.4993C9.17172 41.4993 9.17172 41.4993 9.17172 41.4993C9.17172 41.4993 9.17172 41.4993 9.17172 41.4993C9.17172 41.4993 9.17172 41.4993 9.17172 41.4993C9.17172 41.4993 9.17172 41.4993 9.17172 41.4993H9.17171C9.17171 41.4993 9.17171 41.4993 9.17171 41.4993C9.17171 41.4993 9.17171 41.4993 9.17171 41.4993C9.17171 41.4993 9.17171 41.4993 9.17171 41.4993C9.17171 41.4993 9.17171 41.4993 9.17171 41.4993C9.17171 41.4993 9.17171 41.4993 9.17171 41.4993C9.17171 41.4993 9.1717 41.4993 9.1717 41.4993H9.1717C9.1717 41.4993 9.1717 41.4993 9.1717 41.4993C9.1717 41.4993 9.1717 41.4993 9.1717 41.4993C9.1717 41.4993 9.1717 41.4993 9.1717 41.4993C9.1717 41.4993 9.1717 41.4993 9.17169 41.4993C9.17169 41.4993 9.17169 41.4993 9.17169 41.4993H9.17169C9.17169 41.4993 9.17169 41.4993 9.17169 41.4993C9.17169 41.4993 9.17169 41.4993 9.17169 41.4993C9.17169 41.4993 9.17169 41.4993 9.17169 41.4993C9.17169 41.4993 9.17169 41.4993 9.17168 41.4993C9.17168 41.4993 9.17168 41.4993 9.17168 41.4993C9.17168 41.4993 9.17168 41.4993 9.17168 41.4993H9.17168C9.17168 41.4993 9.17168 41.4993 9.17168 41.4993C9.17168 41.4993 9.17168 41.4993 9.17168 41.4993C9.17167 41.4993 9.17167 41.4993 9.17167 41.4993C9.17167 41.4993 9.17167 41.4993 9.17167 41.4993C9.17167 41.4993 9.17167 41.4993 9.17167 41.4993C9.17167 41.4993 9.17167 41.4993 9.17167 41.4993H9.17167C9.17167 41.4993 9.17167 41.4993 9.17167 41.4993C9.17166 41.4993 9.17166 41.4993 9.17166 41.4993C9.17166 41.4993 9.17166 41.4993 9.17166 41.4993C9.17166 41.4993 9.17166 41.4993 9.17166 41.4993C9.17166 41.4993 9.17166 41.4993 9.17166 41.4993H9.17166C9.17166 41.4993 9.17165 41.4993 9.17165 41.4993C9.17165 41.4993 9.17165 41.4993 9.17165 41.4993C9.17165 41.4993 9.17165 41.4993 9.17165 41.4993C9.17165 41.4993 9.17165 41.4993 9.17165 41.4993C9.17165 41.4993 9.17165 41.4993 9.17165 41.4993C9.17165 41.4993 9.17165 41.4993 9.17165 41.4993H9.17164C9.17164 41.4993 9.17164 41.4993 9.17164 41.4993C9.17164 41.4993 9.17164 41.4993 9.17164 41.4993C9.17164 41.4993 9.17164 41.4993 9.17164 41.4993C9.17164 41.4993 9.17164 41.4993 9.17164 41.4993C9.17164 41.4993 9.17164 41.4993 9.17163 41.4993H9.17163C9.17163 41.4993 9.17163 41.4993 9.17163 41.4993C9.17163 41.4993 9.17163 41.4993 9.17163 41.4993C9.17163 41.4993 9.17163 41.4993 9.17163 41.4993C9.17163 41.4993 9.17163 41.4993 9.17163 41.4993C9.17163 41.4993 9.17163 41.4993 9.17162 41.4993C9.17162 41.4993 9.17162 41.4993 9.17162 41.4993H9.17162C9.17162 41.4993 9.17162 41.4993 9.17162 41.4993C9.17162 41.4993 9.17162 41.4993 9.17162 41.4993C9.17162 41.4993 9.17162 41.4993 9.17162 41.4993C9.17161 41.4993 9.17161 41.4993 9.17161 41.4993C9.17161 41.4993 9.17161 41.4993 9.17161 41.4993C9.17161 41.4993 9.17161 41.4993 9.17161 41.4993H9.17161C9.17161 41.4993 9.17161 41.4993 9.17161 41.4993C9.17161 41.4993 9.17161 41.4993 9.17161 41.4993C9.1716 41.4993 9.1716 41.4993 9.1716 41.4993C9.1716 41.4993 9.1716 41.4993 9.1716 41.4993C9.1716 41.4993 9.1716 41.4993 9.1716 41.4993H9.1716C9.1716 41.4993 9.1716 41.4993 9.1716 41.4993C9.1716 41.4993 9.17159 41.4993 9.17159 41.4993C9.17159 41.4993 9.17159 41.4993 9.17159 41.4993C9.17159 41.4993 9.17159 41.4993 9.17159 41.4993C9.17159 41.4993 9.17159 41.4993 9.17159 41.4993C9.17159 41.4993 9.17159 41.4993 9.17159 41.4993H9.17159C9.17159 41.4993 9.17158 41.4993 9.17158 41.4993C9.17158 41.4993 9.17158 41.4993 9.17158 41.4993C9.17158 41.4993 9.17158 41.4993 9.17158 41.4993C9.17158 41.4993 9.17158 41.4993 9.17158 41.4993C9.17158 41.4993 9.17158 41.4993 9.17158 41.4993C9.17158 41.4993 9.17158 41.4993 9.17157 41.4993H9.17157C9.17157 41.4993 9.17157 41.4993 9.17157 41.4993C9.17157 41.4993 9.17157 41.4993 9.17157 41.4993C9.17157 41.4993 9.17157 41.4993 9.17157 41.4993C9.17157 41.4993 9.17157 41.4993 9.17157 41.4993C9.17157 41.4993 9.17157 41.4993 9.17156 41.4993H9.17156C9.17156 41.4993 9.17156 41.4993 9.17156 41.4993C9.17156 41.4993 9.17156 41.4993 9.17156 41.4993C9.17156 41.4993 9.17156 41.4993 9.17156 41.4993C9.17156 41.4993 9.17156 41.4993 9.17156 41.4993C9.17156 41.4993 9.17155 41.4993 9.17155 41.4993C9.17155 41.4993 9.17155 41.4993 9.17155 41.4993H9.17155C9.17155 41.4993 9.17155 41.4993 9.17155 41.4993C9.17155 41.4993 9.17155 41.4993 9.17155 41.4993C9.17155 41.4993 9.17155 41.4993 9.17155 41.4993C9.17154 41.4993 9.17154 41.4993 9.17154 41.4993C9.17154 41.4993 9.17154 41.4993 9.17154 41.4993H9.17154C9.17154 41.4993 9.17154 41.4993 9.17154 41.4993C9.17154 41.4993 9.17154 41.4993 9.17154 41.4993C9.17154 41.4993 9.17154 41.4993 9.17153 41.4993C9.17153 41.4993 9.17153 41.4993 9.17153 41.4993C9.17153 41.4993 9.17153 41.4993 9.17153 41.4993C9.17153 41.4993 9.17153 41.4993 9.17153 41.4993H9.17153C9.17153 41.4993 9.17153 41.4993 9.17153 41.4993C9.17153 41.4993 9.17152 41.4993 9.17152 41.4993C9.17152 41.4993 9.17152 41.4993 9.17152 41.4993C9.17152 41.4993 9.17152 41.4993 9.17152 41.4993C9.17152 41.4993 9.17152 41.4993 9.17152 41.4993C9.17152 41.4993 9.17152 41.4993 9.17152 41.4993H9.17152C9.17151 41.4993 9.17151 41.4993 9.17151 41.4993C9.17151 41.4993 9.17151 41.4993 9.17151 41.4993C9.17151 41.4993 9.17151 41.4993 9.17151 41.4993C9.17151 41.4993 9.17151 41.4993 9.17151 41.4993C9.17151 41.4993 9.17151 41.4993 9.17151 41.4993H9.1715C9.1715 41.4993 9.1715 41.4993 9.1715 41.4993C9.1715 41.4993 9.1715 41.4993 9.1715 41.4993C9.1715 41.4993 9.1715 41.4993 9.1715 41.4993C9.1715 41.4993 9.1715 41.4993 9.1715 41.4993C9.1715 41.4993 9.1715 41.4993 9.1715 41.4993C9.1715 41.4993 9.17149 41.4993 9.17149 41.4993H9.17149C9.17149 41.4993 9.17149 41.4993 9.17149 41.4993C9.17149 41.4993 9.17149 41.4993 9.17149 41.4993C9.17149 41.4993 9.17149 41.4993 9.17149 41.4993C9.17149 41.4993 9.17149 41.4993 9.17148 41.4993C9.17148 41.4993 9.17148 41.4993 9.17148 41.4993H9.17148C9.17148 41.4993 9.17148 41.4993 9.17148 41.4993C9.17148 41.4993 9.17148 41.4993 9.17148 41.4993C9.17148 41.4993 9.17148 41.4993 9.17148 41.4993C9.17148 41.4993 9.17148 41.4993 9.17147 41.4993C9.17147 41.4993 9.17147 41.4993 9.17147 41.4993C9.17147 41.4993 9.17147 41.4993 9.17147 41.4993H9.17147C9.17147 41.4993 9.17147 41.4993 9.17147 41.4993C9.17147 41.4993 9.17147 41.4993 9.17147 41.4993C9.17146 41.4993 9.17146 41.4993 9.17146 41.4993C9.17146 41.4993 9.17146 41.4993 9.17146 41.4993C9.17146 41.4993 9.17146 41.4993 9.17146 41.4993C9.17146 41.4993 9.17146 41.4993 9.17146 41.4993H9.17146C9.17146 41.4993 9.17146 41.4993 9.17146 41.4993C9.17145 41.4993 9.17145 41.4993 9.17145 41.4993C9.17145 41.4993 9.17145 41.4993 9.17145 41.4993C9.17145 41.4993 9.17145 41.4993 9.17145 41.4993C9.17145 41.4993 9.17145 41.4993 9.17145 41.4993H9.17145C9.17145 41.4993 9.17144 41.4993 9.17144 41.4993C9.17144 41.4993 9.17144 41.4993 9.17144 41.4993C9.17144 41.4993 9.17144 41.4993 9.17144 41.4993C9.17144 41.4993 9.17144 41.4993 9.17144 41.4993C9.17144 41.4993 9.17144 41.4993 9.17144 41.4993C9.17144 41.4993 9.17144 41.4993 9.17144 41.4993H9.17143C9.17143 41.4993 9.17143 41.4993 9.17143 41.4993C9.17143 41.4993 9.17143 41.4993 9.17143 41.4993C9.17143 41.4993 9.17143 41.4993 9.17143 41.4993C9.17143 41.4993 9.17143 41.4993 9.17143 41.4993C9.17143 41.4993 9.17143 41.4993 9.17142 41.4993C9.17142 41.4993 9.17142 41.4993 9.17142 41.4993H9.17142C9.17142 41.4993 9.17142 41.4993 9.17142 41.4993C9.17142 41.4993 9.17142 41.4993 9.17142 41.4993C9.17142 41.4993 9.17142 41.4993 9.17142 41.4993C9.17142 41.4993 9.17142 41.4993 9.17141 41.4993C9.17141 41.4993 9.17141 41.4993 9.17141 41.4993H9.17141C9.17141 41.4993 9.17141 41.4993 9.17141 41.4993C9.17141 41.4993 9.17141 41.4993 9.17141 41.4993C9.17141 41.4993 9.17141 41.4993 9.17141 41.4993C9.1714 41.4993 9.1714 41.4993 9.1714 41.4993C9.1714 41.4993 9.1714 41.4993 9.1714 41.4993C9.1714 41.4993 9.1714 41.4993 9.1714 41.4993H9.1714C9.1714 41.4993 9.1714 41.4993 9.1714 41.4993C9.1714 41.4993 9.1714 41.4993 9.1714 41.4993C9.17139 41.4993 9.17139 41.4993 9.17139 41.4993C9.17139 41.4993 9.17139 41.4993 9.17139 41.4993C9.17139 41.4993 9.17139 41.4993 9.17139 41.4993H9.17139C9.17139 41.4993 9.17139 41.4993 9.17139 41.4993C9.17139 41.4993 9.17138 41.4993 9.17138 41.4993C9.17138 41.4993 9.17138 41.4993 9.17138 41.4993C9.17138 41.4993 9.17138 41.4993 9.17138 41.4993C9.17138 41.4993 9.17138 41.4993 9.17138 41.4993C9.17138 41.4993 9.17138 41.4993 9.17138 41.4993H9.17138C9.17138 41.4993 9.17137 41.4993 9.17137 41.4993C9.17137 41.4993 9.17137 41.4993 9.17137 41.4993C9.17137 41.4993 9.17137 41.4993 9.17137 41.4993C9.17137 41.4993 9.17137 41.4993 9.17137 41.4993C9.17137 41.4993 9.17137 41.4993 9.17137 41.4993C9.17137 41.4993 9.17137 41.4993 9.17136 41.4993H9.17136C9.17136 41.4993 9.17136 41.4993 9.17136 41.4993C9.17136 41.4993 9.17136 41.4993 9.17136 41.4993C9.17136 41.4993 9.17136 41.4993 9.17136 41.4993C9.17136 41.4993 9.17136 41.4993 9.17136 41.4993C9.17136 41.4993 9.17136 41.4993 9.17135 41.4993H9.17135C9.17135 41.4993 9.17135 41.4993 9.17135 41.4993C9.17135 41.4993 9.17135 41.4993 9.17135 41.4993C9.17135 41.4993 9.17135 41.4993 9.17135 41.4993C9.17135 41.4993 9.17135 41.4993 9.17135 41.4993C9.17135 41.4993 9.17134 41.4993 9.17134 41.4993C9.17134 41.4993 9.17134 41.4993 9.17134 41.4993H9.17134C9.17134 41.4993 9.17134 41.4993 9.17134 41.4993C9.17134 41.4993 9.17134 41.4993 9.17134 41.4993C9.17134 41.4993 9.17134 41.4993 9.17134 41.4993C9.17133 41.4993 9.17133 41.4993 9.17133 41.4993C9.17133 41.4993 9.17133 41.4993 9.17133 41.4993H9.17133C9.17133 41.4993 9.17133 41.4993 9.17133 41.4993C9.17133 41.4993 9.17133 41.4993 9.17133 41.4993C9.17133 41.4993 9.17133 41.4993 9.17132 41.4993C9.17132 41.4993 9.17132 41.4993 9.17132 41.4993C9.17132 41.4993 9.17132 41.4993 9.17132 41.4993C9.17132 41.4993 9.17132 41.4993 9.17132 41.4993H9.17132C9.17132 41.4993 9.17132 41.4993 9.17132 41.4993C9.17132 41.4993 9.17131 41.4993 9.17131 41.4993C9.17131 41.4993 9.17131 41.4993 9.17131 41.4993C9.17131 41.4993 9.17131 41.4993 9.17131 41.4993C9.17131 41.4993 9.17131 41.4993 9.17131 41.4993C9.17131 41.4993 9.17131 41.4993 9.17131 41.4993H9.17131C9.1713 41.4993 9.1713 41.4993 9.1713 41.4993C9.1713 41.4993 9.1713 41.4993 9.1713 41.4993C9.1713 41.4993 9.1713 41.4993 9.1713 41.4993C9.1713 41.4993 9.1713 41.4993 9.1713 41.4993C9.1713 41.4993 9.1713 41.4993 9.1713 41.4993H9.1713C9.17129 41.4993 9.17129 41.4993 9.17129 41.4993C9.17129 41.4993 9.17129 41.4993 9.17129 41.4993C9.17129 41.4993 9.17129 41.4993 9.17129 41.4993C9.17129 41.4993 9.17129 41.4993 9.17129 41.4993C9.17129 41.4993 9.17129 41.4993 9.17129 41.4993C9.17129 41.4993 9.17128 41.4993 9.17128 41.4993H9.17128C9.17128 41.4993 9.17128 41.4993 9.17128 41.4993C9.17128 41.4993 9.17128 41.4993 9.17128 41.4993C9.17128 41.4993 9.17128 41.4993 9.17128 41.4993C9.17128 41.4993 9.17128 41.4993 9.17128 41.4993C9.17128 41.4993 9.17127 41.4993 9.17127 41.4993H9.17127C9.17127 41.4993 9.17127 41.4993 9.17127 41.4993C9.17127 41.4993 9.17127 41.4993 9.17127 41.4993C9.17127 41.4993 9.17127 41.4993 9.17127 41.4993C9.17127 41.4993 9.17127 41.4993 9.17126 41.4993C9.17126 41.4993 9.17126 41.4993 9.17126 41.4993C9.17126 41.4993 9.17126 41.4993 9.17126 41.4993H9.17126C9.17126 41.4993 9.17126 41.4993 9.17126 41.4993C9.17126 41.4993 9.17126 41.4993 9.17126 41.4993C9.17126 41.4993 9.17126 41.4993 9.17125 41.4993C9.17125 41.4993 9.17125 41.4993 9.17125 41.4993C9.17125 41.4993 9.17125 41.4993 9.17125 41.4993C9.17125 41.4993 9.17125 41.4993 9.17125 41.4993H9.17125C9.17125 41.4993 9.17125 41.4993 9.17125 41.4993C9.17124 41.4993 9.17124 41.4993 9.17124 41.4993C9.17124 41.4993 9.17124 41.4993 9.17124 41.4993C9.17124 41.4993 9.17124 41.4993 9.17124 41.4993C9.17124 41.4993 9.17124 41.4993 9.17124 41.4993H9.17124C9.17124 41.4993 9.17124 41.4993 9.17124 41.4993C9.17123 41.4993 9.17123 41.4993 9.17123 41.4993C9.17123 41.4993 9.17123 41.4993 9.17123 41.4993C9.17123 41.4993 9.17123 41.4993 9.17123 41.4993C9.17123 41.4993 9.17123 41.4993 9.17123 41.4993C9.17123 41.4993 9.17123 41.4993 9.17123 41.4993H9.17122C9.17122 41.4993 9.17122 41.4993 9.17122 41.4993C9.17122 41.4993 9.17122 41.4993 9.17122 41.4993C9.17122 41.4993 9.17122 41.4993 9.17122 41.4993C9.17122 41.4993 9.17122 41.4993 9.17122 41.4993C9.17122 41.4993 9.17122 41.4993 9.17122 41.4993C9.17122 41.4993 9.17121 41.4993 9.17121 41.4993H9.17121C9.17121 41.4993 9.17121 41.4993 9.17121 41.4993C9.17121 41.4993 9.17121 41.4993 9.17121 41.4993C9.17121 41.4993 9.17121 41.4993 9.17121 41.4993C9.17121 41.4993 9.17121 41.4993 9.1712 41.4993C9.1712 41.4993 9.1712 41.4993 9.1712 41.4993H9.1712C9.1712 41.4993 9.1712 41.4993 9.1712 41.4993C9.1712 41.4993 9.1712 41.4993 9.1712 41.4993C9.1712 41.4993 9.1712 41.4993 9.1712 41.4993C9.1712 41.4993 9.1712 41.4993 9.17119 41.4993C9.17119 41.4993 9.17119 41.4993 9.17119 41.4993C9.17119 41.4993 9.17119 41.4993 9.17119 41.4993H9.17119C9.17119 41.4993 9.17119 41.4993 9.17119 41.4993C9.17119 41.4993 9.17119 41.4993 9.17119 41.4993C9.17118 41.4993 9.17118 41.4993 9.17118 41.4993C9.17118 41.4993 9.17118 41.4993 9.17118 41.4993C9.17118 41.4993 9.17118 41.4993 9.17118 41.4993H9.17118C9.17118 41.4993 9.17118 41.4993 9.17118 41.4993C9.17118 41.4993 9.17118 41.4993 9.17118 41.4993C9.17117 41.4993 9.17117 41.4993 9.17117 41.4993C9.17117 41.4993 9.17117 41.4993 9.17117 41.4993C9.17117 41.4993 9.17117 41.4993 9.17117 41.4993C9.17117 41.4993 9.17117 41.4993 9.17117 41.4993H9.17117C9.17117 41.4993 9.17116 41.4993 9.17116 41.4993C9.17116 41.4993 9.17116 41.4993 9.17116 41.4993C9.17116 41.4993 9.17116 41.4993 9.17116 41.4993C9.17116 41.4993 9.17116 41.4993 9.17116 41.4993C9.17116 41.4993 9.17116 41.4993 9.17116 41.4993C9.17116 41.4993 9.17116 41.4993 9.17115 41.4993H9.17115C9.17115 41.4993 9.17115 41.4993 9.17115 41.4993C9.17115 41.4993 9.17115 41.4993 9.17115 41.4993C9.17115 41.4993 9.17115 41.4993 9.17115 41.4993C9.17115 41.4993 9.17115 41.4993 9.17115 41.4993C9.17115 41.4993 9.17115 41.4993 9.17114 41.4993H9.17114C9.17114 41.4993 9.17114 41.4993 9.17114 41.4993C9.17114 41.4993 9.17114 41.4993 9.17114 41.4993C9.17114 41.4993 9.17114 41.4993 9.17114 41.4993C9.17114 41.4993 9.17114 41.4993 9.17114 41.4993C9.17113 41.4993 9.17113 41.4993 9.17113 41.4993C9.17113 41.4993 9.17113 41.4993 9.17113 41.4993H9.17113C9.17113 41.4993 9.17113 41.4993 9.17113 41.4993C9.17113 41.4993 9.17113 41.4993 9.17113 41.4993C9.17113 41.4993 9.17113 41.4993 9.17113 41.4993C9.17112 41.4993 9.17112 41.4993 9.17112 41.4993C9.17112 41.4993 9.17112 41.4993 9.17112 41.4993C9.17112 41.4993 9.17112 41.4993 9.17112 41.4993H9.17112C9.17112 41.4993 9.17112 41.4993 9.17112 41.4993C9.17112 41.4993 9.17112 41.4993 9.17111 41.4993C9.17111 41.4993 9.17111 41.4993 9.17111 41.4993C9.17111 41.4993 9.17111 41.4993 9.17111 41.4993C9.17111 41.4993 9.17111 41.4993 9.17111 41.4993H9.17111C9.17111 41.4993 9.17111 41.4993 9.17111 41.4993C9.17111 41.4993 9.1711 41.4993 9.1711 41.4993C9.1711 41.4993 9.1711 41.4993 9.1711 41.4993C9.1711 41.4993 9.1711 41.4993 9.1711 41.4993C9.1711 41.4993 9.1711 41.4993 9.1711 41.4993C9.1711 41.4993 9.1711 41.4993 9.1711 41.4993H9.1711C9.17109 41.4993 9.17109 41.4993 9.17109 41.4993C9.17109 41.4993 9.17109 41.4993 9.17109 41.4993C9.17109 41.4993 9.17109 41.4993 9.17109 41.4993C9.17109 41.4993 9.17109 41.4993 9.17109 41.4993C9.17109 41.4993 9.17109 41.4993 9.17109 41.4993C9.17109 41.4993 9.17109 41.4993 9.17108 41.4993H9.17108C9.17108 41.4993 9.17108 41.4993 9.17108 41.4993C9.17108 41.4993 9.17108 41.4993 9.17108 41.4993C9.17108 41.4993 9.17108 41.4993 9.17108 41.4993C9.17108 41.4993 9.17108 41.4993 9.17108 41.4993C9.17108 41.4993 9.17107 41.4993 9.17107 41.4993H9.17107C9.17107 41.4993 9.17107 41.4993 9.17107 41.4993C9.17107 41.4993 9.17107 41.4993 9.17107 41.4993C9.17107 41.4993 9.17107 41.4993 9.17107 41.4993C9.17107 41.4993 9.17107 41.4993 9.17107 41.4993C9.17106 41.4993 9.17106 41.4993 9.17106 41.4993C9.17106 41.4993 9.17106 41.4993 9.17106 41.4993H9.17106C9.17106 41.4993 9.17106 41.4993 9.17106 41.4993C9.17106 41.4993 9.17106 41.4993 9.17106 41.4993C9.17106 41.4993 9.17106 41.4993 9.17105 41.4993C9.17105 41.4993 9.17105 41.4993 9.17105 41.4993C9.17105 41.4993 9.17105 41.4993 9.17105 41.4993C9.17105 41.4993 9.17105 41.4993 9.17105 41.4993H9.17105C9.17105 41.4993 9.17105 41.4993 9.17105 41.4993C9.17105 41.4993 9.17105 41.4993 9.17104 41.4993C9.17104 41.4993 9.17104 41.4993 9.17104 41.4993C9.17104 41.4993 9.17104 41.4993 9.17104 41.4993C9.17104 41.4993 9.17104 41.4993 9.17104 41.4993C9.17104 41.4993 9.17104 41.4993 9.17104 41.4993H9.17104C9.17103 41.4993 9.17103 41.4993 9.17103 41.4993C9.17103 41.4993 9.17103 41.4993 9.17103 41.4993C9.17103 41.4993 9.17103 41.4993 9.17103 41.4993C9.17103 41.4993 9.17103 41.4993 9.17103 41.4993C9.17103 41.4993 9.17103 41.4993 9.17103 41.4993H9.17103C9.17102 41.4993 9.17102 41.4993 9.17102 41.4993C9.17102 41.4993 9.17102 41.4993 9.17102 41.4993C9.17102 41.4993 9.17102 41.4993 9.17102 41.4993C9.17102 41.4993 9.17102 41.4993 9.17102 41.4993C9.17102 41.4993 9.17102 41.4993 9.17102 41.4993C9.17102 41.4993 9.17101 41.4993 9.17101 41.4993H9.17101C9.17101 41.4993 9.17101 41.4993 9.17101 41.4993C9.17101 41.4993 9.17101 41.4993 9.17101 41.4993C9.17101 41.4993 9.17101 41.4993 9.17101 41.4993C9.17101 41.4993 9.17101 41.4993 9.17101 41.4993C9.17101 41.4993 9.171 41.4993 9.171 41.4993C9.171 41.4993 9.171 41.4993 9.171 41.4993H9.171C9.171 41.4993 9.171 41.4993 9.171 41.4993C9.171 41.4993 9.171 41.4993 9.171 41.4993C9.171 41.4993 9.171 41.4993 9.17099 41.4993C9.17099 41.4993 9.17099 41.4993 9.17099 41.4993C9.17099 41.4993 9.17099 41.4993 9.17099 41.4993H9.17099C9.17099 41.4993 9.17099 41.4993 9.17099 41.4993C9.17099 41.4993 9.17099 41.4993 9.17099 41.4993C9.17099 41.4993 9.17099 41.4993 9.17098 41.4993C9.17098 41.4993 9.17098 41.4993 9.17098 41.4993C9.17098 41.4993 9.17098 41.4993 9.17098 41.4993C9.17098 41.4993 9.17098 41.4993 9.17098 41.4993H9.17098C9.17098 41.4993 9.17098 41.4993 9.17098 41.4993C9.17097 41.4993 9.17097 41.4993 9.17097 41.4993C9.17097 41.4993 9.17097 41.4993 9.17097 41.4993V45.4993ZM11.1719 43.5011V43.4993H7.17188V43.5011H11.1719ZM39.5066 41.5011H9.17188V45.5011H39.5066V41.5011ZM37.5066 43.4729V43.5011H41.5066V43.4729H37.5066Z" fill="white" mask="url(#path-1-inside-1_8104_29825)"/>
<path fill-rule="evenodd" clip-rule="evenodd" d="M51.5601 27.6582L51.2595 27.6808H43.9672C44.808 28.225 45.5525 28.9017 46.17 29.6808H49.7098H51.7098V29.6526C56.4445 29.2972 60.174 25.4013 60.174 20.6476C60.174 15.6596 56.068 11.6161 51.003 11.6161C50.5057 11.6161 50.0177 11.6551 49.5419 11.7301C49.2583 11.7748 48.979 11.8323 48.7047 11.902C48.6494 11.6327 48.5819 11.3677 48.5028 11.1076C47.3707 7.38427 43.8651 4.67078 39.7159 4.67078C38.3627 4.67078 37.078 4.9594 35.9217 5.47754C34.4136 2.5248 31.3089 0.498901 27.7237 0.498901C22.6588 0.498901 18.5528 4.54243 18.5528 9.53036C18.5528 10.3403 18.661 11.1253 18.8641 11.8721C18.8713 11.8989 18.8788 11.9257 18.8863 11.9524C18.8584 11.9601 18.8307 11.9679 18.803 11.9759C16.878 12.5284 15.2148 13.6857 14.0396 15.2249C14.5647 15.1329 15.1053 15.0848 15.6573 15.0848C16.0729 15.0848 16.482 15.1121 16.8829 15.1648C17.6206 14.5827 18.4797 14.1402 19.42 13.8798L21.3566 13.3436L20.8112 11.4096C20.6431 10.8135 20.5528 10.1839 20.5528 9.53036C20.5528 5.67579 23.7343 2.4989 27.7237 2.4989C30.5404 2.4989 32.9663 4.08826 34.1406 6.38727L35.0051 8.0799L36.7396 7.30267C37.643 6.89782 38.6494 6.67078 39.7159 6.67078C43.2075 6.67078 46.0897 9.11102 46.7456 12.3044L47.1671 14.3564L49.1973 13.8404C49.772 13.6944 50.3767 13.6161 51.003 13.6161C54.9925 13.6161 58.174 16.793 58.174 20.6476C58.174 24.3212 55.2851 27.3786 51.5601 27.6582Z" fill="white"/>
</svg>
