<svg width="56" height="56" viewBox="0 0 56 56" fill="none" xmlns="http://www.w3.org/2000/svg">
<circle cx="28" cy="28" r="28" fill="url(#paint0_linear_9027_54017)"/>
<path d="M43.9994 35.7996C43.9994 38.4496 41.8494 40.5996 39.1994 40.5996H23.1994C20.5494 40.5996 18.3994 38.4496 18.3994 35.7996C18.3994 33.6746 19.7869 31.8871 21.7054 31.2621C21.6394 30.9096 21.5994 30.5596 21.5994 30.1996C21.5994 27.1046 24.1044 24.5996 27.1994 24.5996C29.3619 24.5996 31.2184 25.8436 32.1494 27.6371C32.8894 26.7596 33.9694 26.1996 35.1994 26.1996C37.4094 26.1996 39.1994 27.9896 39.1994 30.1996C39.1994 30.4809 39.1744 30.7496 39.1182 31.0121C39.1444 31.0096 39.1694 30.9996 39.1994 30.9996C41.8494 30.9996 43.9994 33.1496 43.9994 35.7996Z" fill="white"/>
<path opacity="0.4" d="M27.2 23C29.2375 23 31.1315 23.8625 32.47 25.325C32.9638 25.0437 33.495 24.8562 34.051 24.7375C34.26 24.195 34.4 23.62 34.4 23C34.4 20.35 32.25 18.2 29.6 18.2C28.894 18.2 28.231 18.3625 27.625 18.6375C26.83 16.5125 24.8 15 22.4 15C19.58 15 17.26 17.094 16.881 19.8125C16.856 19.8125 16.831 19.8 16.8 19.8C14.15 19.8 12 21.95 12 24.6C12 27.25 14.15 29.4 16.8 29.4H20.081C20.49 25.81 23.505 23 27.2 23Z" fill="white"/>
<defs>
<linearGradient id="paint0_linear_9027_54017" x1="28" y1="0" x2="28" y2="56" gradientUnits="userSpaceOnUse">
<stop stop-color="#00DAF9"/>
<stop offset="1" stop-color="#00AFC8"/>
</linearGradient>
</defs>
</svg>
