<svg width="56" height="56" viewBox="0 0 56 56" fill="none" xmlns="http://www.w3.org/2000/svg">
<circle cx="28" cy="28" r="28" fill="url(#paint0_linear_8492_32545)"/>
<path d="M17 16C16.168 16 15.5 16.668 15.5 17.5V39.2495C15.5 39.662 15.8398 39.9995 16.25 39.9995H17.7499C18.1601 39.9995 18.4999 39.662 18.4999 39.2495V17.5C18.4999 16.668 17.832 16 17 16Z" fill="white"/>
<path opacity="0.4" d="M39.4998 17.4404V31.5682C39.4998 32.1424 39.1273 32.6815 38.5328 32.9159C36.4726 33.7183 34.7805 33.9982 33.3251 33.9982C29.8737 33.9982 27.4705 32.5085 24.0159 32.5085C22.4705 32.5085 20.6921 32.8393 18.541 33.7043V17.5C18.541 17.3736 18.4987 17.2616 18.4697 17.1444C20.7356 16.3377 22.8192 16.0142 24.2212 16.0142C27.4587 16.0146 29.0914 17.5081 31.9038 17.5081C33.2294 17.5081 34.8165 17.1761 36.9568 16.1985C37.217 16.0633 37.5264 16 37.8264 16C38.717 16 39.4998 16.5203 39.4998 17.4404Z" fill="white"/>
<defs>
<linearGradient id="paint0_linear_8492_32545" x1="28" y1="0" x2="28" y2="56" gradientUnits="userSpaceOnUse">
<stop stop-color="#00DC97"/>
<stop offset="1" stop-color="#00BA80"/>
</linearGradient>
</defs>
</svg>
