<svg width="104" height="104" viewBox="0 0 104 104" fill="none" xmlns="http://www.w3.org/2000/svg">
<g filter="url(#filter0_d_16677_251288)">
<circle cx="52" cy="42" r="32" fill="white"/>
<circle cx="52" cy="42" r="32" fill="url(#paint0_linear_16677_251288)" fill-opacity="0.88"/>
<circle cx="52" cy="42" r="32" fill="url(#paint1_linear_16677_251288)"/>
</g>
<path d="M55.4286 49.9999C55.4286 47.272 56.5123 44.6558 58.4413 42.7269C60.3702 40.7979 62.9864 39.7142 65.7144 39.7142C68.4423 39.7142 71.0585 40.7979 72.9875 42.7269C74.9164 44.6558 76.0001 47.272 76.0001 49.9999C76.0001 52.7279 74.9164 55.3441 72.9875 57.273C71.0585 59.202 68.4423 60.2857 65.7144 60.2857C62.9864 60.2857 60.3702 59.202 58.4413 57.273C56.5123 55.3441 55.4286 52.7279 55.4286 49.9999ZM69.3215 45.2714C69.5215 44.9142 69.4429 44.4785 69.1358 44.2071C68.8287 43.9357 68.3787 43.9214 68.0572 44.1642L61.2001 49.3071C60.9072 49.5285 60.7858 49.9142 60.9001 50.2642C61.0144 50.6142 61.3429 50.8499 61.7144 50.8499H64.2572L62.1072 54.7214C61.9072 55.0785 61.9858 55.5142 62.2929 55.7857C62.6001 56.0571 63.0501 56.0714 63.3715 55.8285L70.2287 50.6857C70.5215 50.4642 70.6429 50.0785 70.5287 49.7285C70.4144 49.3785 70.0858 49.1428 69.7144 49.1428H67.1715L69.3215 45.2714Z" fill="white"/>
<path opacity="0.4" d="M44 25.9999V32.8571H39.4286V25.9999C39.4286 24.7357 40.45 23.7142 41.7143 23.7142C42.9786 23.7142 44 24.7357 44 25.9999ZM57.7143 25.9999V32.8571H53.1429V25.9999C53.1429 24.7357 54.1643 23.7142 55.4286 23.7142C56.6929 23.7142 57.7143 24.7357 57.7143 25.9999ZM34.8572 37.4285C34.8572 36.1642 35.8786 35.1428 37.1429 35.1428H60C61.2643 35.1428 62.2858 36.1642 62.2858 37.4285C62.2858 37.5928 62.2643 37.7571 62.2358 37.9142C56.9858 39.4285 53.1429 44.2642 53.1429 50C53.1429 50.8142 53.2215 51.6071 53.3643 52.3785C52.5715 52.7428 51.7286 53.0214 50.8572 53.2V58C50.8572 59.2642 49.8357 60.2857 48.5715 60.2857C47.3072 60.2857 46.2857 59.2642 46.2857 58V53.2C41.0715 52.1428 37.1429 47.5285 37.1429 42V39.7142C35.8786 39.7142 34.8572 38.6928 34.8572 37.4285Z" fill="white"/>
<defs>
<filter id="filter0_d_16677_251288" x="0" y="0" width="104" height="104" filterUnits="userSpaceOnUse" color-interpolation-filters="sRGB">
<feFlood flood-opacity="0" result="BackgroundImageFix"/>
<feColorMatrix in="SourceAlpha" type="matrix" values="0 0 0 0 0 0 0 0 0 0 0 0 0 0 0 0 0 0 127 0" result="hardAlpha"/>
<feOffset dy="10"/>
<feGaussianBlur stdDeviation="10"/>
<feComposite in2="hardAlpha" operator="out"/>
<feColorMatrix type="matrix" values="0 0 0 0 0.483333 0 0 0 0 0.483333 0 0 0 0 0.483333 0 0 0 0.08 0"/>
<feBlend mode="normal" in2="BackgroundImageFix" result="effect1_dropShadow_16677_251288"/>
<feBlend mode="normal" in="SourceGraphic" in2="effect1_dropShadow_16677_251288" result="shape"/>
</filter>
<linearGradient id="paint0_linear_16677_251288" x1="52" y1="10" x2="52" y2="74" gradientUnits="userSpaceOnUse">
<stop stop-color="#15C8DC"/>
<stop offset="1" stop-color="#128E9C"/>
</linearGradient>
<linearGradient id="paint1_linear_16677_251288" x1="52" y1="10" x2="52" y2="74" gradientUnits="userSpaceOnUse">
<stop stop-color="#15C8DC"/>
<stop offset="1" stop-color="#128E9C"/>
</linearGradient>
</defs>
</svg>
