<svg width="56" height="56" viewBox="0 0 56 56" fill="none" xmlns="http://www.w3.org/2000/svg">
<circle cx="28" cy="28" r="28" fill="url(#paint0_diamond_9281_61972)"/>
<path d="M23.1912 18.1142C23.7074 18.1142 24.1373 18.5443 24.1373 19.0603C24.1373 19.4044 23.9653 19.7055 23.6642 19.8776L21.2122 21.3401C20.8681 21.5567 20.6937 21.8998 20.6937 22.2429V22.9308C20.6937 23.49 21.1668 23.963 21.7259 23.963C22.285 23.963 22.7581 23.4899 22.7581 22.9308V22.8448L24.7369 21.6405C25.6437 21.0842 26.2006 20.0942 26.2006 19.0592C26.2006 17.3835 24.8674 16.0498 23.1912 16.0498H20.9525C19.2751 16.0498 17.9414 17.3835 17.9414 19.0609C17.9414 19.62 18.4146 20.093 18.9736 20.093C19.5327 20.093 20.0058 19.6199 20.0058 19.0609C20.0058 18.5446 20.4359 18.1147 20.9519 18.1147H23.1912V18.1142ZM21.7287 25.4492C20.9525 25.4492 20.3506 26.051 20.3506 26.8216C20.3506 27.5979 20.9525 28.1998 21.7287 28.1998C22.5033 28.1998 23.1051 27.5973 23.1051 26.8233C23.1012 26.051 22.4993 25.4492 21.7287 25.4492ZM43.728 36.9579C45.1455 35.2816 46.0005 33.1835 46.0005 30.8998C46.0005 25.4323 41.163 20.9998 35.2005 20.9998C35.1829 20.9998 35.1657 21.0021 35.148 21.0022C35.1724 21.2979 35.2005 21.596 35.2005 21.8998C35.2005 27.4471 30.7186 32.0923 24.7324 33.2904C25.9024 37.5991 30.0874 40.7997 35.2005 40.7997C37.0956 40.7997 38.8748 40.3493 40.4233 39.5634C41.793 40.2372 43.5311 40.7997 45.5674 40.7997C45.7395 40.7997 45.8914 40.7027 45.9623 40.5407C46.0314 40.3788 45.9993 40.1949 45.8812 40.0708C45.8655 40.0516 44.6449 38.7354 43.728 36.9579ZM40.5162 29.876L35.7912 34.826C35.582 35.0449 35.2928 35.1705 34.9907 35.1741C34.6928 35.1741 34.3934 35.0554 34.1819 34.8445L31.9319 32.5945C31.4924 32.1551 31.4924 31.4431 31.9319 31.0038C32.3713 30.5645 33.0833 30.5643 33.5226 31.0038L34.9587 32.4398L38.8883 28.3223C39.3189 27.8723 40.0302 27.8556 40.479 28.2854C40.9268 28.7173 40.9437 29.426 40.5162 29.876Z" fill="white"/>
<path opacity="0.4" d="M21.7001 12C15.2387 12 10.0001 16.4325 10.0001 21.9C10.0001 24.1258 10.8787 26.1727 12.344 27.8287C11.4221 29.6714 10.1374 31.0529 10.1171 31.0732C9.99898 31.1972 9.96692 31.3812 10.036 31.5431C10.107 31.7043 10.259 31.7999 10.431 31.7999C12.5882 31.7999 14.4112 31.1744 15.8163 30.4477C17.5488 31.2993 19.5513 31.7999 21.7001 31.7999C28.1632 31.7999 33.4 27.3675 33.4 21.9C33.4 16.4325 28.1632 12 21.7001 12ZM21.7282 28.2C20.9519 28.2 20.3501 27.5981 20.3501 26.8218C20.3501 26.0473 20.9525 25.4454 21.7265 25.4454C22.5011 25.4454 23.1029 26.0478 23.1029 26.8218C23.1007 27.5981 22.4988 28.2 21.7282 28.2ZM24.6869 21.6412L22.7576 22.845V22.931C22.7576 23.4902 22.2844 23.9632 21.7254 23.9632C21.1664 23.9632 20.6932 23.4918 20.6932 22.935V22.2431C20.6932 21.899 20.8653 21.5552 21.2093 21.3397L23.6613 19.8772C23.9613 19.7062 24.1357 19.4025 24.1357 19.0594C24.1357 18.5431 23.7055 18.1132 23.1896 18.1132H20.9519C20.4357 18.1132 20.0058 18.5433 20.0058 19.0594C20.0058 19.6185 19.5327 20.0915 18.9736 20.0915C18.4145 20.0915 17.9415 19.6184 17.9415 19.0594C17.9426 17.3837 19.2757 16.05 20.9519 16.05H23.1884C24.8669 16.05 26.2001 17.3837 26.2001 19.0594C26.2001 20.0944 25.6432 21.0843 24.6869 21.6412Z" fill="white"/>
<defs>
<radialGradient id="paint0_diamond_9281_61972" cx="0" cy="0" r="1" gradientUnits="userSpaceOnUse" gradientTransform="translate(37.3864 56) rotate(-56.547) scale(230.302 61.9014)">
<stop stop-color="#1A4549"/>
<stop offset="0.840538" stop-color="#020F19"/>
</radialGradient>
</defs>
</svg>
