<svg width="56" height="56" viewBox="0 0 56 56" fill="none" xmlns="http://www.w3.org/2000/svg">
<circle cx="28" cy="28" r="28" fill="#4DBF5C"/>
<path d="M45.2999 24.0004H42.8999V21.6004C42.8999 20.9404 42.3649 20.4004 41.6999 20.4004C41.0349 20.4004 40.4999 20.9379 40.4999 21.6004V24.0004H38.0999C37.4399 24.0004 36.8999 24.5404 36.8999 25.2004C36.8999 25.8604 37.4374 26.4004 38.0999 26.4004H40.4999V28.8004C40.4999 29.4654 41.0399 30.0004 41.6999 30.0004C42.3599 30.0004 42.8999 29.4629 42.8999 28.8004V26.4004H45.2999C45.9649 26.4004 46.4999 25.8654 46.4999 25.2004C46.4999 24.5354 45.9649 24.0004 45.2999 24.0004Z" fill="white"/>
<path opacity="0.4" d="M25.7 26.8C29.235 26.8 32.1 23.9345 32.1 20.4C32.1 16.8655 29.235 14 25.7 14C22.165 14 19.3 16.8655 19.3 20.4C19.3 23.9345 22.165 26.8 25.7 26.8ZM28.235 29.2H23.165C18.3805 29.2 14.5 33.08 14.5 37.865C14.5 38.825 15.276 39.6 16.233 39.6H35.168C36.125 39.6 36.9 38.825 36.9 37.865C36.9 33.08 33.02 29.2 28.235 29.2Z" fill="white"/>
</svg>
