<svg width="56" height="56" viewBox="0 0 56 56" fill="none" xmlns="http://www.w3.org/2000/svg">
<circle cx="28" cy="28" r="28" fill="#4DBF5C"/>
<path d="M30.2746 17.2279C30.6303 17.4271 30.8508 17.8042 30.8508 18.2168C30.8508 19.0918 29.9046 19.6396 29.1505 19.2057L27.4218 18.2239V26.5476H29.6983C30.3315 26.5476 30.8366 27.0527 30.8366 27.6859C30.8366 28.3119 30.3315 28.8242 29.6983 28.8242H27.4218V37.9304C27.4218 38.5565 26.9166 39.0687 26.2835 39.0687C25.6574 39.0687 25.1452 38.5565 25.1452 37.9304V16.2845C25.1452 16.1728 25.1594 16.0597 25.195 15.9495C25.1665 15.8129 25.2946 15.6869 25.3728 15.5774C25.4582 15.4707 25.5507 15.381 25.6574 15.3106C25.8424 15.1911 26.0558 15.1221 26.2835 15.1221H26.2906C26.3262 15.1221 26.3617 15.1242 26.3973 15.1271C26.568 15.1434 26.7317 15.1996 26.874 15.2864L30.2746 17.2279ZM32.5654 21.155C32.2097 20.9487 31.9891 20.5716 31.9891 20.1661C31.9891 19.291 32.9353 18.7432 33.6894 19.1772L38.8117 22.1012C39.3595 22.4142 39.5516 23.1114 39.2386 23.6521C38.9255 24.1999 38.2283 24.392 37.6877 24.0789L36.528 23.4173V34.5156C36.528 35.1416 36.0229 35.6539 35.3897 35.6539C34.7637 35.6539 34.2515 35.1416 34.2515 34.5156V22.1225L32.5654 21.155ZM22.8686 35.6539C22.8686 36.2088 22.4702 36.6854 21.9153 36.7779C21.3675 36.8633 20.8339 36.5431 20.6561 36.0096L18.3155 29.0091V33.3773C18.3155 34.0034 17.8104 34.5156 17.1772 34.5156C16.5512 34.5156 16.0425 34.0034 16.0425 33.3773V21.9945C16.0425 21.4324 16.4444 20.9558 16.9994 20.8704C17.5471 20.7779 18.0807 21.1052 18.2586 21.6316L20.5921 28.5752V19.7179C20.5921 19.0847 21.1043 18.5796 21.7303 18.5796C22.3635 18.5796 22.8686 19.0847 22.8686 19.7179V35.6539Z" fill="white"/>
<path opacity="0.4" d="M24.9389 10.6864C26.5253 9.77119 28.4747 9.77119 30.0611 10.6864L40.9389 16.9648C42.5253 17.8825 43.5 19.5757 43.5 21.4041V33.9679C43.5 35.7963 42.5253 37.4895 40.9389 38.4001L30.0611 44.682C28.4747 45.5997 26.5253 45.5997 24.9389 44.682L14.0611 38.4001C12.4761 37.4895 11.5 35.7963 11.5 33.9679V21.4041C11.5 19.5757 12.4761 17.8825 14.0611 16.9648L24.9389 10.6864ZM30.8508 18.2169C30.8508 17.8043 30.6303 17.4272 30.2746 17.228L26.8739 15.2865C26.7317 15.1997 26.568 15.1435 26.3973 15.1272C26.3617 15.1243 26.3261 15.1222 26.2906 15.1222H26.2835C26.0558 15.1222 25.8424 15.1919 25.6574 15.3107C25.5507 15.3811 25.4582 15.4708 25.3728 15.5775C25.2946 15.6871 25.1665 15.813 25.195 15.9496C25.1594 16.0598 25.1452 16.173 25.1452 16.2847V37.9305C25.1452 38.5566 25.6574 39.0688 26.2835 39.0688C26.9166 39.0688 27.4217 38.5566 27.4217 37.9305V28.8243H29.6983C30.3315 28.8243 30.8366 28.312 30.8366 27.686C30.8366 27.0528 30.3315 26.5477 29.6983 26.5477H27.4217V18.224L29.1505 19.2058C29.9046 19.6397 30.8508 19.092 30.8508 18.2169ZM31.9891 20.1662C31.9891 20.5717 32.2097 20.9488 32.5654 21.1551L34.2514 22.1226V34.5157C34.2514 35.1418 34.7637 35.654 35.3897 35.654C36.0229 35.654 36.528 35.1418 36.528 34.5157V23.4174L37.6876 24.0791C38.2283 24.3921 38.9255 24.2 39.2386 23.6522C39.5516 23.1115 39.3595 22.4143 38.8117 22.1013L33.6894 19.1773C32.9353 18.7434 31.9891 19.2912 31.9891 20.1662ZM20.592 19.718V28.5753L18.2586 21.6317C18.0807 21.1053 17.5471 20.778 16.9993 20.8705C16.4444 20.9559 16.0425 21.4325 16.0425 21.9946V33.3774C16.0425 34.0035 16.5511 34.5157 17.1772 34.5157C17.8104 34.5157 18.3155 34.0035 18.3155 33.3774V29.0092L20.6561 36.0097C20.8339 36.5433 21.3675 36.8634 21.9153 36.778C22.4702 36.6855 22.8686 36.2089 22.8686 35.654V19.718C22.8686 19.0848 22.3635 18.5797 21.7303 18.5797C21.1043 18.5797 20.592 19.0848 20.592 19.718Z" fill="white"/>
</svg>
