<svg width="16" height="20" viewBox="0 0 16 20" fill="none" xmlns="http://www.w3.org/2000/svg">
<path d="M15.814 6.13139H10.684L15.2971 0.302727C15.3926 0.179308 15.3064 0 15.1504 0H6.21993C6.15472 0 6.09185 0.03493 6.05925 0.0931468L0.025666 10.5139C-0.0465227 10.6374 0.0419666 10.7934 0.186344 10.7934H4.24754L2.16571 19.1207C2.12147 19.3023 2.34036 19.4304 2.47543 19.3L15.9421 6.45042C16.0632 6.33631 15.9817 6.13139 15.814 6.13139ZM4.87396 14.822L5.96721 10.4526C6.12513 9.82142 5.64776 9.20989 4.99711 9.20989H2.61282L7.02798 1.58582H12.2582L8.6895 6.09678C8.17083 6.7524 8.63778 7.71721 9.47375 7.71721H12.321L4.87396 14.822Z" fill="#333333"/>
</svg>
