<svg width="56" height="56" viewBox="0 0 56 56" fill="none" xmlns="http://www.w3.org/2000/svg">
<circle cx="28" cy="28" r="28" fill="url(#paint0_linear_9190_60857)"/>
<path d="M19.9067 38.6762L16.7378 35.5073C16.1627 34.9323 15.994 34.0697 16.319 33.326C17.4628 30.7133 20.2379 24.563 22.4505 21.2941C27.5695 13.7456 35.1949 13.4911 39.7451 14.3297C40.4764 14.4634 41.0389 15.027 41.1702 15.7539C42.0077 20.3066 41.7577 27.9319 34.2073 33.0509C30.9134 35.2823 24.6881 37.9949 22.0068 39.1075C21.3192 39.4138 20.4692 39.245 19.9067 38.6762ZM33.5011 24.5005C34.8824 24.5005 36.0012 23.3817 36.0012 22.0004C36.0012 20.6191 34.8824 19.5003 33.5011 19.5003C32.1197 19.5003 31.0009 20.6191 31.0009 22.0004C31.0009 23.3817 32.1197 24.5005 33.5011 24.5005Z" fill="white"/>
<path opacity="0.4" d="M21.9131 22.1255C20.1318 24.9944 18.1192 29.2821 16.9066 32.001H10.9438C10.4582 32.001 9.95842 31.7072 9.69272 31.2384C9.42702 30.7634 9.43664 30.1321 9.71797 29.7196L13.0164 24.2943C13.8321 22.9505 15.2903 22.1255 16.8629 22.1255H21.9131ZM23.4444 38.4888C26.2446 37.3012 30.526 35.3449 33.3199 33.5885V38.6388C33.3199 40.2139 32.5511 41.6702 31.2073 42.489L25.7821 45.7829C25.3133 46.0641 24.7383 46.0766 24.2632 45.8079C23.7945 45.5454 23.4444 45.0453 23.4444 44.5016V38.4888Z" fill="white"/>
<defs>
<linearGradient id="paint0_linear_9190_60857" x1="28" y1="0" x2="28" y2="56" gradientUnits="userSpaceOnUse">
<stop stop-color="#00AF78"/>
<stop offset="1" stop-color="#00734F"/>
</linearGradient>
</defs>
</svg>
