<svg width="14" height="16" viewBox="0 0 14 16" fill="none" xmlns="http://www.w3.org/2000/svg">
<path d="M12.4659 6.54545C12.4659 8.8397 10.976 11.051 9.36446 12.752C8.57149 13.589 7.7764 14.2739 7.17885 14.7497C6.92647 14.9507 6.71022 15.1136 6.54546 15.2343C6.38069 15.1136 6.16444 14.9507 5.91206 14.7497C5.31451 14.2739 4.51942 13.589 3.72645 12.752C2.11495 11.051 0.625 8.8397 0.625 6.54545C0.625 4.97525 1.24876 3.46936 2.35906 2.35906C3.46936 1.24876 4.97525 0.625 6.54545 0.625C8.11566 0.625 9.62155 1.24876 10.7318 2.35906C11.8421 3.46936 12.4659 4.97525 12.4659 6.54545Z" stroke="white" stroke-width="1.25" stroke-linecap="round" stroke-linejoin="round"/>
<path d="M8.82966 6.54544C8.82966 7.80691 7.80703 8.82953 6.54557 8.82953C5.2841 8.82953 4.26147 7.80691 4.26147 6.54544C4.26147 5.28397 5.2841 4.26135 6.54557 4.26135C7.80703 4.26135 8.82966 5.28397 8.82966 6.54544Z" stroke="white" stroke-width="1.25" stroke-linecap="round" stroke-linejoin="round"/>
</svg>
