<svg width="47" height="40" viewBox="0 0 47 40" fill="none" xmlns="http://www.w3.org/2000/svg">
<g clip-path="url(#clip0_10050_90773)">
<path d="M44.9656 28.9686L47 26.5797L41.1802 21.6713V20.256L44.9656 23.4479L47 21.069L39.6013 14.8256L32.1923 21.069L34.2369 23.4479L38.0223 20.256V21.6713L32.1923 26.5797L34.2369 28.9686L38.0223 25.7767V27.192L32.1923 32.1004L34.2369 34.4793L38.0223 31.2974V36.8683H3.99396V3.12171H38.0223V10.1681H41.1802V0H0.846191V40H41.1802V31.2974L44.9656 34.4793L47 32.1004L41.1802 27.192V25.7767L44.9656 28.9686Z" fill="#00BA80"/>
<path d="M7.12158 10.61C6.73697 10.61 6.43332 10.5297 6.21065 10.3691C5.98798 10.2085 5.82603 9.97761 5.72482 9.67648C5.62361 9.37535 5.573 9.02403 5.573 8.62253V6.68526C5.573 6.27372 5.62361 5.91236 5.7147 5.61124C5.80579 5.31011 5.97786 5.07924 6.22077 4.91864C6.46369 4.75804 6.79769 4.67773 7.2228 4.67773C7.61753 4.67773 7.94142 4.748 8.17421 4.87849C8.40701 5.00898 8.57907 5.19969 8.68029 5.45063C8.7815 5.70157 8.83211 6.0027 8.83211 6.36406V6.66519H7.83008V6.33395C7.83008 6.14323 7.81996 5.99267 7.7896 5.85214C7.75923 5.72165 7.70863 5.62127 7.62765 5.55101C7.54668 5.48075 7.4151 5.45063 7.24304 5.45063C7.05073 5.45063 6.91915 5.50082 6.83818 5.59116C6.75721 5.6815 6.69648 5.80195 6.67624 5.95251C6.65599 6.10308 6.64587 6.26368 6.64587 6.43432V8.85339C6.64587 9.05415 6.66612 9.22479 6.69648 9.37535C6.72684 9.52592 6.78757 9.63633 6.88879 9.71663C6.97988 9.79693 7.11146 9.83708 7.2734 9.83708C7.44547 9.83708 7.57705 9.79693 7.66814 9.70659C7.75923 9.61625 7.81996 9.50584 7.86045 9.34524C7.90093 9.19467 7.91105 9.014 7.91105 8.8032V8.26117H7.28352V7.59869H8.87259V10.5397H8.18433L8.10336 9.96757C8.02239 10.1583 7.91105 10.3189 7.74911 10.4393C7.60741 10.5498 7.39486 10.61 7.12158 10.61Z" fill="#00BA80"/>
<path d="M9.48999 10.5398V4.74805H10.8867C11.2815 4.74805 11.6155 4.79824 11.8888 4.88857C12.1621 4.97891 12.3645 5.13952 12.5062 5.36034C12.6479 5.58117 12.7187 5.89234 12.7187 6.27377C12.7187 6.50463 12.6985 6.71543 12.658 6.90614C12.6175 7.09686 12.5365 7.24742 12.4353 7.37791C12.3341 7.5084 12.1924 7.60878 12.0102 7.67904L12.8199 10.5297H11.7572L11.0487 7.87979H10.5629V10.5398H9.48999ZM10.5527 7.21731H10.8867C11.0892 7.21731 11.2612 7.18719 11.3827 7.12697C11.5042 7.06674 11.5953 6.9764 11.6459 6.84591C11.6965 6.71542 11.7268 6.54479 11.7268 6.34403C11.7268 6.05294 11.6762 5.83211 11.5649 5.69159C11.4536 5.55106 11.2511 5.47076 10.9475 5.47076H10.5629V7.21731H10.5527Z" fill="#00BA80"/>
<path d="M13.3665 10.5398V4.74805H15.8158V5.49083H14.4292V7.15708H15.5223V7.88983H14.4393V9.80702H15.8361V10.5398H13.3665V10.5398Z" fill="#00BA80"/>
<path d="M16.332 10.5398V4.74805H18.7814V5.49083H17.3948V7.15708H18.4778V7.88983H17.3948V9.80702H18.7915V10.5398H16.332V10.5398Z" fill="#00BA80"/>
<path d="M19.2876 10.5398V4.74805H20.0265L21.4435 8.05043V4.74805H22.324V10.5398H21.6155L20.1884 7.07678V10.5398H19.2876Z" fill="#00BA80"/>
<path d="M5.66406 18.0681V12.2764H8.06285V13.0091H6.72682V14.6954H7.80981V15.4282H6.72682V18.0681H5.66406Z" fill="#00BA80"/>
<path d="M10.1986 18.1383C9.7634 18.1383 9.4294 18.058 9.18648 17.9075C8.94357 17.7469 8.78162 17.5261 8.69053 17.235C8.59944 16.9439 8.54883 16.5926 8.54883 16.191V12.2764H9.59134V16.3115C9.59134 16.4922 9.60146 16.6628 9.63182 16.8234C9.65207 16.984 9.7128 17.1145 9.80389 17.2048C9.89498 17.3052 10.0266 17.3554 10.2087 17.3554C10.4011 17.3554 10.5326 17.3052 10.6136 17.2048C10.6946 17.1045 10.7553 16.974 10.7755 16.8234C10.8059 16.6628 10.816 16.4922 10.816 16.3115V12.2764H11.8484V16.191C11.8484 16.5926 11.7978 16.9439 11.7067 17.235C11.6156 17.5261 11.4537 17.7469 11.2108 17.9075C10.978 18.0681 10.6338 18.1383 10.1986 18.1383Z" fill="#00BA80"/>
<path d="M13.2249 18.0681V13.0593H12.2937V12.2764H15.2087V13.0593H14.2977V18.0681H13.2249Z" fill="#00BA80"/>
<path d="M17.2936 18.1383C16.8584 18.1383 16.5244 18.058 16.2815 17.9075C16.0385 17.7469 15.8766 17.5261 15.7855 17.235C15.6944 16.9439 15.6438 16.5926 15.6438 16.191V12.2764H16.6863V16.3115C16.6863 16.4922 16.6964 16.6628 16.7268 16.8234C16.747 16.984 16.8078 17.1145 16.8989 17.2048C16.99 17.3052 17.1215 17.3554 17.3037 17.3554C17.496 17.3554 17.6276 17.3052 17.7086 17.2048C17.7895 17.1045 17.8503 16.974 17.8705 16.8234C17.9009 16.6628 17.911 16.4922 17.911 16.3115V12.2764H18.9434V16.191C18.9434 16.5926 18.8928 16.9439 18.8017 17.235C18.7106 17.5261 18.5487 17.7469 18.3057 17.9075C18.0729 18.0681 17.7389 18.1383 17.2936 18.1383Z" fill="#00BA80"/>
<path d="M19.571 18.0681V12.2764H20.9678C21.3625 12.2764 21.6966 12.3266 21.9698 12.4169C22.2431 12.5072 22.4455 12.6678 22.5872 12.8887C22.7289 13.1095 22.7998 13.4207 22.7998 13.8021C22.7998 14.033 22.7795 14.2437 22.7391 14.4345C22.6986 14.6252 22.6176 14.7757 22.5164 14.9062C22.4152 15.0367 22.2735 15.1371 22.0913 15.2074L22.901 18.058H21.8383L21.1297 15.4081H20.6439V18.0681H19.571ZM20.6338 14.7456H20.9678C21.1702 14.7456 21.3423 14.7155 21.4638 14.6553C21.5852 14.5951 21.6763 14.5047 21.7269 14.3742C21.7775 14.2437 21.8079 14.0731 21.8079 13.8724C21.8079 13.5813 21.7573 13.3604 21.6459 13.2199C21.5346 13.0794 21.3322 12.9991 21.0285 12.9991H20.6439V14.7456H20.6338Z" fill="#00BA80"/>
<path d="M23.4475 18.0681V12.2764H25.8969V13.0192H24.5103V14.6854H25.5933V15.4181H24.5103V17.3353H25.907V18.0681H23.4475Z" fill="#00BA80"/>
<path d="M5.66406 25.5964V19.8047H7.37459C7.72884 19.8047 8.01224 19.8649 8.22479 19.9954C8.44746 20.1259 8.59929 20.3066 8.71062 20.5575C8.81184 20.7984 8.86244 21.0995 8.86244 21.4509C8.86244 21.8223 8.80172 22.1334 8.67014 22.3643C8.53856 22.5951 8.35637 22.7658 8.12358 22.8662C7.89078 22.9665 7.6175 23.0268 7.29362 23.0268H6.71669V25.5964H5.66406ZM6.72682 22.2739H7.13167C7.32398 22.2739 7.4758 22.2438 7.57702 22.1936C7.68835 22.1435 7.7592 22.0531 7.79969 21.9327C7.84018 21.8122 7.86042 21.6516 7.86042 21.4408C7.86042 21.23 7.84018 21.0594 7.80981 20.9289C7.77945 20.7984 7.7086 20.698 7.60738 20.6378C7.50617 20.5776 7.34422 20.5475 7.12155 20.5475H6.71669V22.2739H6.72682Z" fill="#00BA80"/>
<path d="M9.38867 25.5964V19.8047H10.7854C11.1802 19.8047 11.5142 19.8549 11.7875 19.9452C12.0607 20.0356 12.2632 20.1962 12.4049 20.417C12.5466 20.6378 12.6174 20.949 12.6174 21.3304C12.6174 21.5613 12.5972 21.7721 12.5567 21.9628C12.5162 22.1535 12.4352 22.3041 12.334 22.4345C12.2328 22.565 12.0911 22.6654 11.9089 22.7357L12.7186 25.5864H11.6559L10.9474 22.9364H10.4615V25.5964H9.38867ZM10.4514 22.2739H10.7854C10.9879 22.2739 11.1599 22.2438 11.2814 22.1836C11.4028 22.1234 11.4939 22.033 11.5445 21.9026C11.5951 21.7721 11.6255 21.6014 11.6255 21.4007C11.6255 21.1096 11.5749 20.8888 11.4636 20.7482C11.3522 20.6077 11.1498 20.5274 10.8462 20.5274H10.4615V22.2739H10.4514Z" fill="#00BA80"/>
<path d="M14.8545 25.6666C14.4395 25.6666 14.1156 25.5863 13.8626 25.4358C13.6197 25.2852 13.4375 25.0644 13.3363 24.7833C13.235 24.5023 13.1743 24.161 13.1743 23.7695V21.6014C13.1743 21.2099 13.2249 20.8787 13.3363 20.5976C13.4476 20.3166 13.6197 20.1058 13.8626 19.9552C14.1055 19.8046 14.4395 19.7344 14.8545 19.7344C15.2796 19.7344 15.6136 19.8046 15.8565 19.9552C16.0994 20.1058 16.2715 20.3166 16.3828 20.5976C16.4942 20.8787 16.5448 21.2099 16.5448 21.6014V23.7695C16.5448 24.1509 16.4942 24.4922 16.3828 24.7733C16.2715 25.0543 16.0994 25.2752 15.8565 25.4257C15.6035 25.5964 15.2695 25.6666 14.8545 25.6666ZM14.8545 24.8937C15.0367 24.8937 15.1581 24.8536 15.2492 24.7833C15.3302 24.703 15.3909 24.6026 15.4213 24.4721C15.4516 24.3417 15.4618 24.1911 15.4618 24.0405V21.3705C15.4618 21.2099 15.4516 21.0593 15.4213 20.9389C15.3909 20.8084 15.3403 20.708 15.2492 20.6378C15.1682 20.5675 15.0367 20.5273 14.8545 20.5273C14.6824 20.5273 14.561 20.5675 14.4699 20.6378C14.3788 20.708 14.3282 20.8084 14.2978 20.9389C14.2674 21.0694 14.2573 21.2099 14.2573 21.3705V24.0405C14.2573 24.2011 14.2674 24.3417 14.2978 24.4721C14.3282 24.6026 14.3788 24.713 14.4699 24.7833C14.5508 24.8536 14.6824 24.8937 14.8545 24.8937Z" fill="#00BA80"/>
<path d="M16.8281 25.7367V24.9939C16.9799 24.9939 17.1115 24.9838 17.2127 24.9638C17.314 24.9437 17.3949 24.9136 17.4455 24.8634C17.4961 24.8132 17.5366 24.7429 17.567 24.6426C17.5872 24.5422 17.6075 24.4217 17.6075 24.2712V19.8145H18.6601V24.3113C18.6601 24.6325 18.6196 24.9035 18.5488 25.1143C18.4678 25.3251 18.3362 25.4857 18.1439 25.5861C17.9516 25.6865 17.6884 25.7367 17.3443 25.7367H16.8281Z" fill="#00BA80"/>
<path d="M19.3079 25.5964V19.8047H21.7573V20.5475H20.3807V22.2137H21.4637V22.9465H20.3807V24.8637H21.7775V25.5964H19.3079V25.5964Z" fill="#00BA80"/>
<path d="M23.8017 25.6664C23.3766 25.6664 23.0425 25.5861 22.7996 25.4154C22.5567 25.2448 22.3846 25.0239 22.2936 24.7329C22.1923 24.4418 22.1519 24.1105 22.1519 23.7391V21.6814C22.1519 21.2899 22.2025 20.9386 22.2936 20.6475C22.3846 20.3564 22.5567 20.1356 22.7996 19.975C23.0425 19.8144 23.3766 19.7441 23.8017 19.7441C24.2065 19.7441 24.5203 19.8144 24.7531 19.9449C24.9859 20.0854 25.1478 20.2761 25.2389 20.5271C25.33 20.778 25.3806 21.0691 25.3806 21.4104V21.8922H24.3583V21.3903C24.3583 21.2297 24.3482 21.0791 24.3381 20.9487C24.3178 20.8182 24.2774 20.7078 24.1964 20.6275C24.1255 20.5472 23.994 20.507 23.8118 20.507C23.6296 20.507 23.498 20.5472 23.4069 20.6275C23.3259 20.7078 23.2652 20.8182 23.245 20.9587C23.2247 21.0992 23.2045 21.2598 23.2045 21.4305V23.9499C23.2045 24.1607 23.2247 24.3313 23.2551 24.4719C23.2855 24.6124 23.3462 24.7128 23.4373 24.783C23.5284 24.8533 23.6498 24.8834 23.8017 24.8834C23.9838 24.8834 24.1053 24.8433 24.1761 24.763C24.247 24.6827 24.2976 24.5722 24.3178 24.4317C24.3381 24.2912 24.3482 24.1406 24.3482 23.97V23.448H25.3705V23.9098C25.3705 24.251 25.3199 24.5522 25.2288 24.8232C25.1377 25.0842 24.9757 25.295 24.7531 25.4455C24.5304 25.5961 24.2065 25.6664 23.8017 25.6664Z" fill="#00BA80"/>
<path d="M26.6255 25.5964V20.5876H25.6943V19.8047H28.6093V20.5876H27.6984V25.5964H26.6255Z" fill="#00BA80"/>
</g>
<defs>
<clipPath id="clip0_10050_90773">
<rect width="46.1538" height="40" fill="white" transform="translate(0.846191)"/>
</clipPath>
</defs>
</svg>
