<svg width="25" height="24" viewBox="0 0 25 24" fill="none" xmlns="http://www.w3.org/2000/svg">
<g clip-path="url(#clip0_19353_90539)">
<path d="M13.6155 4.10445C13.4611 4.03474 13.2946 4 13.1317 4C12.8487 4 12.5696 4.10235 12.3497 4.29779L7.38758 8.70592H4.3067C3.33207 8.70592 2.54199 9.49599 2.54199 10.4375V13.9339C2.54199 14.9085 3.33207 15.6655 4.3067 15.6655H7.38905L12.3486 20.0736C12.5677 20.3677 12.8471 20.4706 13.1302 20.4706C13.2934 20.4706 13.4596 20.4364 13.6141 20.3663C14.0383 20.1765 14.3067 19.7574 14.3067 19.2942V5.17651C14.3067 4.71364 14.0383 4.26107 13.6155 4.10445ZM12.542 17.9853L8.06037 14H4.3067V10.5037H8.06037L12.542 6.4868V17.9853ZM17.7111 9.51107C17.5467 9.37765 17.3487 9.3125 17.1523 9.3125C16.8968 9.3125 16.6438 9.42257 16.4703 9.63629C16.1613 10.0131 16.2164 10.569 16.5944 10.8782C17.0089 11.2206 17.2479 11.7133 17.2479 12.2353C17.2479 12.7574 17.0089 13.2508 16.5931 13.5908C16.2152 13.8999 16.16 14.4559 16.469 14.8328C16.6425 15.0464 16.8962 15.1567 17.1514 15.1567C17.3478 15.1567 17.5466 15.0912 17.7098 14.958C18.5383 14.2794 19.0126 13.2905 19.0126 12.2353C19.0126 11.1802 18.5383 10.1912 17.7111 9.51107ZM19.9354 6.79415C19.7716 6.66044 19.5735 6.595 19.3766 6.595C19.1216 6.595 18.8685 6.70452 18.6935 6.9171C18.3844 7.29393 18.4396 7.84982 18.8164 8.15901C20.0641 9.18018 20.7773 10.6655 20.7773 12.2353C20.7773 13.8048 20.0626 15.2901 18.8174 16.3125C18.4405 16.6216 18.3854 17.1776 18.6944 17.5544C18.8691 17.767 19.1216 17.8773 19.3768 17.8773C19.5744 17.8773 19.772 17.8118 19.9363 17.6774C21.5935 16.3199 22.542 14.3346 22.542 12.2353C22.542 10.1361 21.5935 8.15077 19.9354 6.79415Z" fill="#F2BF00"/>
</g>
<defs>
<clipPath id="clip0_19353_90539">
<rect width="24" height="24" fill="white" transform="translate(0.541992)"/>
</clipPath>
</defs>
</svg>
