<svg width="8" height="9" viewBox="0 0 8 9" fill="none" xmlns="http://www.w3.org/2000/svg">
<path fill-rule="evenodd" clip-rule="evenodd" d="M3.88501 0.359375C5.92427 0.359375 7.57959 1.91383 7.57959 3.8287C7.57959 4.91625 7.04585 5.95668 6.38213 6.80525C5.4443 8.005 4.27097 8.81201 4.27097 8.81201C4.27075 8.81201 4.27075 8.81201 4.27075 8.81221C4.04125 8.97033 3.72877 8.97033 3.49927 8.81221C3.49927 8.81201 3.49927 8.81201 3.49905 8.81201C3.49905 8.81201 2.32568 8.00502 1.38789 6.80525C0.724173 5.95664 0.19043 4.91622 0.19043 3.8287C0.19043 1.91377 1.84581 0.359375 3.88502 0.359375H3.88501ZM3.88501 2.40024C3.04549 2.40024 2.36365 3.04044 2.36365 3.82877C2.36365 4.61716 3.04549 5.25736 3.88501 5.25736C4.72452 5.25736 5.40636 4.61716 5.40636 3.82877C5.40636 3.04044 4.72452 2.40024 3.88501 2.40024Z" fill="white"/>
</svg>
