<svg width="58" height="50" viewBox="0 0 58 50" fill="none" xmlns="http://www.w3.org/2000/svg">
<path d="M24.1691 3.55275L1.71066 41.0454C1.24762 41.8473 1.00261 42.7564 1.00002 43.6824C0.997428 44.6084 1.23734 45.5189 1.69588 46.3233C2.15443 47.1278 2.81562 47.7982 3.61369 48.2678C4.41175 48.7374 5.31886 48.9898 6.24478 49H51.1617C52.0876 48.9898 52.9948 48.7374 53.7928 48.2678C54.5909 47.7982 55.2521 47.1278 55.7106 46.3233C56.1692 45.5189 56.4091 44.6084 56.4065 43.6824C56.4039 42.7564 56.1589 41.8473 55.6958 41.0454L33.2374 3.55275C32.7647 2.77348 32.0991 2.12919 31.3049 1.68205C30.5107 1.2349 29.6147 1 28.7033 1C27.7918 1 26.8958 1.2349 26.1016 1.68205C25.3074 2.12919 24.6418 2.77348 24.1691 3.55275V3.55275Z" stroke="#002822" stroke-width="2" stroke-linecap="round" stroke-linejoin="round"/>
<path d="M28.7012 17.1797V27.7858" stroke="#002822" stroke-width="2" stroke-linecap="round" stroke-linejoin="round"/>
<path d="M28.7012 38.3906H28.7277" stroke="#002822" stroke-width="2" stroke-linecap="round" stroke-linejoin="round"/>
</svg>
