<svg width="22" height="16" viewBox="0 0 22 16" fill="none" xmlns="http://www.w3.org/2000/svg">
<path d="M19.3217 1.15156C18.9794 0.777983 18.3982 0.755487 18.025 1.09786C17.6523 1.44042 17.6278 2.02063 17.9707 2.39302C20.9131 5.58948 20.9131 10.7881 17.9707 13.9849C17.6278 14.3573 17.6523 14.9375 18.025 15.2801C18.1988 15.4419 18.4241 15.5221 18.6457 15.5221C18.893 15.5221 19.1403 15.423 19.3213 15.2261C22.8928 11.3475 22.8928 5.03016 19.3217 1.15156ZM14.9829 4.10587C14.6024 4.44007 14.5646 5.01909 14.8992 5.3995C16.2348 6.91886 16.2348 9.39077 14.8992 10.9109C14.5647 11.2917 14.6024 11.8703 14.9829 12.2045C15.1573 12.3229 15.3728 12.4325 15.5878 12.4325C15.8429 12.4325 16.0966 12.3275 16.2776 12.121C18.1999 9.93439 18.1999 6.37662 16.2776 4.1881C15.9415 3.84233 15.3648 3.80413 14.9829 4.10587ZM3.97533 1.09809C3.60378 0.755525 3.02277 0.778212 2.67864 1.15179C-0.892881 5.0323 -0.892881 11.3458 2.67864 15.2263C2.85892 15.4228 3.10603 15.5221 3.35353 15.5221C3.57574 15.5221 3.79849 15.4421 3.97457 15.2798C4.3473 14.9372 4.37178 14.357 4.02892 13.9846C1.08645 10.7881 1.08645 5.58955 4.02892 2.39271C4.37255 2.02047 4.34581 1.44069 3.97533 1.09809ZM7.01558 4.10587C6.63745 3.80413 6.0569 3.84233 5.7208 4.22427C3.79849 6.41088 3.79849 9.96865 5.7208 12.1572C5.9018 12.3636 6.15583 12.4687 6.41058 12.4687C6.625 12.4687 6.84141 12.3935 7.01558 12.2407C7.39606 11.9065 7.4338 11.3275 7.09922 10.9471C5.76357 9.42771 5.76357 6.95579 7.09922 5.43567C7.43571 5.05308 7.39752 4.47253 7.01558 4.10587ZM10.9992 6.66105C10.1547 6.66105 9.47069 7.3451 9.47069 8.15443C9.47069 8.96377 10.1551 9.71657 10.9992 9.71657C11.8433 9.71657 12.5277 9.03251 12.5277 8.22318C12.5277 7.41385 11.8433 6.66105 10.9992 6.66105Z" fill="white"/>
</svg>
