<svg width="56" height="56" viewBox="0 0 56 56" fill="none" xmlns="http://www.w3.org/2000/svg">
<circle cx="28" cy="28" r="28" fill="url(#paint0_diamond_9584_72321)"/>
<path d="M28.7504 34.125C28.6629 34.125 28.5809 34.0758 28.4934 34.1195C28.5043 34.1414 28.5098 34.1633 28.5152 34.1852L23.3418 29.7937C23.4238 29.7992 23.5059 29.8102 23.5879 29.8266C23.5277 29.5148 23.4512 29.1977 23.4512 28.875V28.3883C23.4512 26.7859 24.277 25.2273 25.6004 24.2375L38.5449 14.5253C39.5621 13.7619 40.9785 13.8379 41.9137 14.7055C42.8434 15.5728 43.0129 16.9827 42.3238 18.0507L33.4809 31.7242C32.5129 33.2227 30.8559 34.125 29.073 34.125H28.7504ZM22.6254 42H14.7504H14.7422H22.6418C22.6363 42 22.6309 42 22.6254 42Z" fill="white"/>
<path opacity="0.4" d="M28.75 35.875C28.75 39.2602 26.0102 42 22.625 42H14.75C13.7837 42 13 41.218 13 40.25C13 39.282 13.7837 38.5 14.75 38.5H15.013C15.9772 38.5 16.6312 37.4664 16.5323 36.5094C16.5109 36.3016 16.5 36.0883 16.5 35.875C16.5 32.4898 19.2398 29.75 22.625 29.75C22.8656 29.75 23.1063 29.7664 23.3414 29.7937L28.5148 34.1852C28.668 34.7211 28.75 35.2898 28.75 35.875Z" fill="white"/>
<defs>
<radialGradient id="paint0_diamond_9584_72321" cx="0" cy="0" r="1" gradientUnits="userSpaceOnUse" gradientTransform="translate(37.3864 56) rotate(-56.547) scale(230.302 61.9014)">
<stop stop-color="#1A4549"/>
<stop offset="0.840538" stop-color="#020F19"/>
</radialGradient>
</defs>
</svg>
