<svg width="44" height="48" viewBox="0 0 44 48" fill="none" xmlns="http://www.w3.org/2000/svg">
<path d="M7.51879 14.7621C8.24288 14.6173 8.96697 15.0132 9.24696 15.6986L12.4426 23.7023V16.2779C12.4426 15.4187 13.1377 14.7332 13.9874 14.7332C14.8466 14.7332 15.5321 15.4187 15.5321 16.2779V31.7252C15.5321 32.459 15.0107 33.0962 14.277 33.241C13.5529 33.3762 12.8288 32.9803 12.5585 32.2949L9.35316 24.3009V31.7252C9.35316 32.5748 8.66768 33.27 7.80843 33.27C6.95882 33.27 6.26562 32.5748 6.26562 31.7252V16.2779C6.26562 15.5345 6.7947 14.8973 7.51879 14.7621ZM18.6215 16.2779C18.6215 15.4187 19.3167 14.7332 20.1663 14.7332H24.8005C25.6597 14.7332 26.3452 15.4187 26.3452 16.2779C26.3452 17.1275 25.6597 17.8226 24.8005 17.8226H21.711V22.4568H24.8005C25.6597 22.4568 26.3452 23.1423 26.3452 24.0016C26.3452 24.8512 25.6597 25.5463 24.8005 25.5463H21.711V31.7252C21.711 32.5748 21.0255 33.27 20.1663 33.27C19.3167 33.27 18.6215 32.5748 18.6215 31.7252V16.2779ZM35.6136 14.7332C36.4729 14.7332 37.1583 15.4187 37.1583 16.2779C37.1583 17.1275 36.4729 17.8226 35.6136 17.8226H34.0689V31.7252C34.0689 32.5748 33.3834 33.27 32.5241 33.27C31.6745 33.27 30.9794 32.5748 30.9794 31.7252V17.8226H29.4347C28.5851 17.8226 27.8899 17.1275 27.8899 16.2779C27.8899 15.4187 28.5851 14.7332 29.4347 14.7332H35.6136Z" fill="white"/>
<path opacity="0.4" d="M18.2375 0.931546C20.3905 -0.310515 23.0358 -0.310515 25.1888 0.931546L39.9506 9.45171C42.1036 10.6971 43.4263 12.9949 43.4263 15.4762V32.5261C43.4263 35.0074 42.1036 37.3051 39.9506 38.5409L25.1888 47.0659C23.0358 48.3114 20.3905 48.3114 18.2375 47.0659L3.47565 38.5409C1.32461 37.3051 0 35.0074 0 32.5261V15.4762C0 12.9949 1.32461 10.6971 3.47565 9.45171L18.2375 0.931546ZM9.24908 15.6982C8.9691 15.0127 8.24501 14.6169 7.52091 14.7617C6.79682 14.8969 6.26775 15.5341 6.26775 16.2775V31.7248C6.26775 32.5744 6.96095 33.2695 7.81055 33.2695C8.66981 33.2695 9.35528 32.5744 9.35528 31.7248V24.3004L12.5606 32.2944C12.8309 32.9799 13.555 33.3757 14.2791 33.2406C15.0129 33.0958 15.5342 32.4586 15.5342 31.7248V16.2775C15.5342 15.4182 14.8487 14.7328 13.9895 14.7328C13.1399 14.7328 12.4447 15.4182 12.4447 16.2775V23.7019L9.24908 15.6982ZM18.6237 31.7248C18.6237 32.5744 19.3188 33.2695 20.1684 33.2695C21.0277 33.2695 21.7131 32.5744 21.7131 31.7248V25.5459H24.8026C25.6619 25.5459 26.3473 24.8507 26.3473 24.0011C26.3473 23.1419 25.6619 22.4564 24.8026 22.4564H21.7131V17.8222H24.8026C25.6619 17.8222 26.3473 17.1271 26.3473 16.2775C26.3473 15.4182 25.6619 14.7328 24.8026 14.7328H20.1684C19.3188 14.7328 18.6237 15.4182 18.6237 16.2775V31.7248ZM29.4368 14.7328C28.5872 14.7328 27.8921 15.4182 27.8921 16.2775C27.8921 17.1271 28.5872 17.8222 29.4368 17.8222H30.9815V31.7248C30.9815 32.5744 31.6767 33.2695 32.5263 33.2695C33.3855 33.2695 34.071 32.5744 34.071 31.7248V17.8222H35.6157C36.475 17.8222 37.1604 17.1271 37.1604 16.2775C37.1604 15.4182 36.475 14.7328 35.6157 14.7328H29.4368Z" fill="white"/>
</svg>
