<svg width="55" height="48" viewBox="0 0 55 48" fill="none" xmlns="http://www.w3.org/2000/svg">
<path d="M27.4233 30.8571C28.8483 30.8571 29.9947 29.7107 29.9947 28.2857V14.5714C29.9947 13.1518 28.8429 12 27.5197 12C26.1965 12 24.8518 13.1571 24.8518 14.5714V28.2857C24.8518 29.7107 26.009 30.8571 27.4233 30.8571ZM27.4233 34.4036C25.5633 34.4036 24.0547 35.9121 24.0547 37.7721C24.059 39.6321 25.559 41.1429 27.4233 41.1429C29.2875 41.1429 30.7918 39.6343 30.7918 37.7743C30.7875 35.9143 29.2875 34.4036 27.4233 34.4036Z" fill="white"/>
<path opacity="0.4" d="M54.2427 41.25L31.3891 2.25C29.6395 -0.75 25.2241 -0.75 23.4627 2.25L0.619859 41.25C-1.13836 44.2393 1.05154 48 4.57557 48H50.2827C53.7927 48 55.9891 44.25 54.2427 41.25ZM24.8534 14.5714C24.8534 13.1518 26.0052 12 27.4249 12C28.8445 12 29.9963 13.1571 29.9963 14.5714V28.2857C29.9963 29.7054 28.8445 30.8571 27.5213 30.8571C26.1981 30.8571 24.8534 29.7107 24.8534 28.2857V14.5714ZM27.4249 41.1429C25.5649 41.1429 24.0563 39.6343 24.0563 37.7743C24.0563 35.9143 25.5638 34.4057 27.4249 34.4057C29.2859 34.4057 30.7934 35.9143 30.7934 37.7743C30.7891 39.6321 29.2891 41.1429 27.4249 41.1429Z" fill="white"/>
</svg>
