<svg width="48" height="48" viewBox="0 0 48 48" fill="none" xmlns="http://www.w3.org/2000/svg">
<path d="M33.007 17.9059C33.9633 18.7871 33.9633 20.2121 33.007 21.009L22.507 31.509C21.7102 32.4652 20.2852 32.4652 19.4039 31.509L14.1539 26.259C13.282 25.4621 13.282 24.0371 14.1539 23.1559C15.0352 22.284 16.4602 22.284 17.257 23.1559L20.9977 26.8215L29.9039 17.9059C30.7852 17.034 32.2102 17.034 33.007 17.9059Z" fill="white"/>
<path opacity="0.4" d="M24 0C27.45 0 30.45 1.94062 31.9594 4.79062C35.0437 3.75937 38.4469 4.59 40.9688 7.02938C43.4062 9.46875 44.0719 12.9563 43.2094 16.0406C46.0594 17.55 48 20.55 48 24C48 27.45 46.0594 30.45 43.2094 31.9594C44.1562 35.0437 43.4062 38.4469 40.9688 40.9688C38.4469 43.4062 35.0437 44.0719 31.9594 43.2094C30.45 46.0594 27.45 48 24 48C20.55 48 17.55 46.0594 16.0406 43.2094C12.9563 44.1562 9.46875 43.4062 7.02938 40.9688C4.59 38.4469 3.84375 35.0437 4.79062 31.9594C1.94062 30.45 0 27.45 0 24C0 20.55 1.94062 17.55 4.79062 16.0406C3.75937 12.9563 4.59 9.46875 7.02938 7.02938C9.46875 4.59 12.9563 3.84375 16.0406 4.79062C17.55 1.94062 20.55 0 24 0ZM33.0094 21.0094C33.9656 20.2125 33.9656 18.7875 33.0094 17.9062C32.2125 17.0344 30.7875 17.0344 29.9062 17.9062L21 26.8219L17.2594 23.1562C16.4625 22.2844 15.0375 22.2844 14.1562 23.1562C13.2844 24.0375 13.2844 25.4625 14.1562 26.2594L19.4062 31.5094C20.2875 32.4656 21.7125 32.4656 22.5094 31.5094L33.0094 21.0094Z" fill="white"/>
</svg>
