<svg width="24" height="24" viewBox="0 0 24 24" fill="none" xmlns="http://www.w3.org/2000/svg">
<g clip-path="url(#clip0_9621_39422)">
<path d="M15.1848 3.00002C15.8563 3.00002 16.3414 3.64195 16.1586 4.28707L14.2742 10.875H17.273C17.9516 10.875 18.5 11.4234 18.5 12.102C18.5 12.4641 18.3418 12.8051 18.0676 13.0406L8.96914 20.7609C8.78633 20.9156 8.5543 21 8.31418 21C7.64305 21 7.15859 20.3566 7.34281 19.7133L9.22578 13.125H6.18617C5.53086 13.125 5 12.5941 5 11.9402C5 11.5922 5.1517 11.2617 5.4152 11.0367L14.5309 3.24233C14.7137 3.08596 14.9457 3 15.1848 3V3.00002ZM13.9156 5.98793L7.54391 11.4375H10.3438C10.6074 11.4375 10.857 11.5605 11.0187 11.7715C11.177 11.9859 11.2262 12.2602 11.1559 12.5133L9.58086 18.0293L16.0215 12.5625H13.1562C12.8926 12.5625 12.643 12.4395 12.4813 12.2285C12.323 12.0141 12.2738 11.7398 12.3441 11.4867L13.9156 5.98793Z" fill="#333333"/>
</g>
<defs>
<clipPath id="clip0_9621_39422">
<rect width="24" height="24" fill="white"/>
</clipPath>
</defs>
</svg>
