<svg width="37" height="50" viewBox="0 0 37 50" fill="none" xmlns="http://www.w3.org/2000/svg">
<path d="M35.9603 12.1889V25.0013C35.9603 26.6242 35.0131 28.1617 33.5492 28.9304L20.5467 35.6783C19.2551 36.3616 17.7052 36.3616 16.4135 35.6783L6.16654 30.3825L3.41105 28.9304C1.9472 28.1617 1 26.6242 1 25.0013V12.1889C1 10.566 1.9472 9.02849 3.41105 8.25974L16.4996 1.51189C17.7913 0.828558 19.3412 0.828558 20.6329 1.51189L33.6353 8.25974C35.0131 9.02849 35.9603 10.4806 35.9603 12.1889Z" stroke="white" stroke-width="2" stroke-miterlimit="10" stroke-linecap="round" stroke-linejoin="round"/>
<path d="M18.4785 12.101V49.0006" stroke="white" stroke-width="2" stroke-miterlimit="10" stroke-linecap="round" stroke-linejoin="round"/>
<path d="M26.745 17.226L18.4785 22.1801" stroke="white" stroke-width="2" stroke-miterlimit="10" stroke-linecap="round" stroke-linejoin="round"/>
<path d="M11.7773 24.7103L18.4077 28.127" stroke="white" stroke-width="2" stroke-miterlimit="10" stroke-linecap="round" stroke-linejoin="round"/>
</svg>
