<svg width="56" height="56" viewBox="0 0 56 56" fill="none" xmlns="http://www.w3.org/2000/svg">
<circle cx="28" cy="28" r="28" fill="white"/>
<circle cx="28" cy="28" r="28" fill="url(#paint0_linear_13_37)" fill-opacity="0.88"/>
<circle cx="28" cy="28" r="28" fill="url(#paint1_linear_13_37)"/>
<path d="M15.7498 31.0003C15.7498 31.0003 13.9998 25.7339 13.9998 22.2503C13.9998 17.0003 16.6248 10.0003 20.9998 10.0003C25.3748 10.0003 26.2498 16.5409 26.2498 19.6253C26.2498 22.2503 25.3748 23.7816 24.4998 25.3128C23.6248 26.8441 22.7498 28.3753 22.7498 31.0003L15.7498 31.0003ZM15.7498 34.5003L15.7498 32.7503L22.7498 32.7503L22.7498 34.5003C22.7498 36.4308 21.1803 38.0003 19.2498 38.0003C17.3193 38.0003 15.7498 36.4308 15.7498 34.5003Z" fill="white"/>
<path opacity="0.4" d="M40.2502 38.0002C40.2502 38.0002 42.0002 32.7338 42.0002 29.2502C42.0002 24.0002 39.3752 17.0002 35.0002 17.0002C30.6252 17.0002 29.7502 23.5408 29.7502 26.6252C29.7502 29.2502 30.6252 30.7814 31.5002 32.3127C32.3752 33.8439 33.2502 35.3752 33.2502 38.0002L40.2502 38.0002ZM40.2502 41.5002L40.2502 39.7502L33.2502 39.7502L33.2502 41.5002C33.2502 43.4307 34.8198 45.0002 36.7502 45.0002C38.6807 45.0002 40.2502 43.4307 40.2502 41.5002Z" fill="white"/>
<defs>
<linearGradient id="paint0_linear_13_37" x1="28" y1="0" x2="28" y2="56" gradientUnits="userSpaceOnUse">
<stop stop-color="#15C8DC"/>
<stop offset="1" stop-color="#128E9C"/>
</linearGradient>
<linearGradient id="paint1_linear_13_37" x1="28" y1="0" x2="28" y2="56" gradientUnits="userSpaceOnUse">
<stop stop-color="#15C8DC"/>
<stop offset="1" stop-color="#128E9C"/>
</linearGradient>
</defs>
</svg>
