<svg width="56" height="56" viewBox="0 0 56 56" fill="none" xmlns="http://www.w3.org/2000/svg">
<circle cx="28" cy="28" r="28" fill="white"/>
<circle cx="28" cy="28" r="28" fill="url(#paint0_linear_13_50)"/>
<path d="M26.2345 35.4324C26.0158 32.3261 23.5493 29.9307 20.4758 29.7612C21.6462 27.1416 23.6696 22.8377 25.3322 20.3822C29.8111 13.7774 36.4831 13.5548 40.4644 14.2885C41.1043 14.4055 41.5965 14.8986 41.7113 15.5346C42.4441 19.5181 42.2254 26.1901 35.619 30.669C33.1745 32.3206 28.8869 34.2839 26.2345 35.4324ZM35.0011 18.8126C33.7924 18.8126 32.8135 19.7915 32.8135 21.0001C32.8135 22.2087 33.7924 23.1877 35.0011 23.1877C36.2097 23.1877 37.1886 22.2087 37.1886 21.0001C37.1886 19.7915 36.2097 18.8126 35.0011 18.8126Z" fill="white"/>
<path opacity="0.4" d="M15.2633 29.7505C14.8384 29.7505 14.4011 29.4935 14.1686 29.0833C13.9361 28.6677 13.9446 28.1153 14.1907 27.7544L17.0768 23.0074C17.7905 21.8316 19.0663 21.1098 20.4423 21.1098H24.8611C23.3025 23.62 21.5415 27.3716 20.4806 29.7505H15.2633ZM34.8418 35.5584C34.8418 36.9366 34.1691 38.2108 32.9933 38.9272L28.2463 41.8093C27.8362 42.0554 27.333 42.0663 26.9174 41.8312C26.5072 41.6015 26.201 41.164 26.201 40.6882V35.4272C28.651 34.3881 32.3972 32.6763 34.8418 31.1396V35.5584ZM23.1056 39.7038C20.3986 42.4109 14.0261 41.9734 14.0261 41.9734C14.0261 41.9734 13.589 35.553 16.2958 32.8951C18.1766 31.0138 21.2244 31.0138 23.1056 32.8951C24.9869 34.7764 24.9869 37.8225 23.1056 39.7038ZM20.5517 35.449C19.9228 34.8256 18.9116 34.8256 18.2865 35.449C17.3863 36.3514 17.5318 38.4678 17.5318 38.4678C17.5318 38.4678 19.6493 38.6155 20.5517 37.7131C21.1751 37.0897 21.1751 36.078 20.5517 35.449Z" fill="white"/>
<defs>
<linearGradient id="paint0_linear_13_50" x1="28" y1="0" x2="28" y2="56" gradientUnits="userSpaceOnUse">
<stop stop-color="#9BCA46"/>
<stop offset="1" stop-color="#659B02"/>
</linearGradient>
</defs>
</svg>
