<svg width="56" height="56" viewBox="0 0 56 56" fill="none" xmlns="http://www.w3.org/2000/svg">
<circle cx="28" cy="28" r="28" fill="white"/>
<circle cx="28" cy="28" r="28" fill="url(#paint0_linear_3_40)"/>
<path d="M30.2746 17.228C30.6303 17.4272 30.8508 17.8043 30.8508 18.2169C30.8508 19.0919 29.9046 19.6397 29.1505 19.2058L27.4217 18.224V26.5477H29.6983C30.3315 26.5477 30.8366 27.0528 30.8366 27.686C30.8366 28.312 30.3315 28.8243 29.6983 28.8243H27.4217V37.9305C27.4217 38.5566 26.9166 39.0688 26.2834 39.0688C25.6574 39.0688 25.1452 38.5566 25.1452 37.9305V16.2846C25.1452 16.173 25.1594 16.0598 25.195 15.9496C25.1665 15.813 25.2946 15.687 25.3728 15.5775C25.4582 15.4708 25.5507 15.3811 25.6574 15.3107C25.8424 15.1912 26.0558 15.1222 26.2834 15.1222H26.2906C26.3261 15.1222 26.3617 15.1243 26.3973 15.1272C26.568 15.1435 26.7316 15.1997 26.8739 15.2865L30.2746 17.228ZM32.5653 21.1551C32.2096 20.9488 31.9891 20.5717 31.9891 20.1662C31.9891 19.2911 32.9353 18.7433 33.6894 19.1773L38.8117 22.1013C39.3595 22.4143 39.5516 23.1115 39.2385 23.6522C38.9255 24.2 38.2283 24.3921 37.6876 24.079L36.528 23.4174V34.5157C36.528 35.1417 36.0229 35.654 35.3897 35.654C34.7637 35.654 34.2514 35.1417 34.2514 34.5157V22.1226L32.5653 21.1551ZM22.8686 35.654C22.8686 36.2089 22.4702 36.6855 21.9153 36.778C21.3675 36.8634 20.8339 36.5433 20.6561 36.0097L18.3155 29.0092V33.3774C18.3155 34.0035 17.8103 34.5157 17.1772 34.5157C16.5511 34.5157 16.0424 34.0035 16.0424 33.3774V21.9946C16.0424 21.4325 16.4444 20.9559 16.9993 20.8705C17.5471 20.778 18.0807 21.1053 18.2585 21.6317L20.592 28.5753V19.718C20.592 19.0848 21.1043 18.5797 21.7303 18.5797C22.3635 18.5797 22.8686 19.0848 22.8686 19.718V35.654Z" fill="white"/>
<path opacity="0.4" d="M24.9389 10.6864C26.5253 9.77119 28.4747 9.77119 30.0611 10.6864L40.9389 16.9648C42.5253 17.8825 43.5 19.5757 43.5 21.4041V33.9679C43.5 35.7963 42.5253 37.4895 40.9389 38.4001L30.0611 44.682C28.4747 45.5997 26.5253 45.5997 24.9389 44.682L14.0611 38.4001C12.4761 37.4895 11.5 35.7963 11.5 33.9679V21.4041C11.5 19.5757 12.4761 17.8825 14.0611 16.9648L24.9389 10.6864ZM30.8508 18.2169C30.8508 17.8043 30.6303 17.4272 30.2746 17.228L26.8739 15.2865C26.7317 15.1997 26.568 15.1435 26.3973 15.1272C26.3617 15.1243 26.3261 15.1222 26.2906 15.1222H26.2835C26.0558 15.1222 25.8424 15.1919 25.6574 15.3107C25.5507 15.3811 25.4582 15.4708 25.3728 15.5775C25.2946 15.6871 25.1665 15.813 25.195 15.9496C25.1594 16.0598 25.1452 16.173 25.1452 16.2847V37.9305C25.1452 38.5566 25.6574 39.0688 26.2835 39.0688C26.9166 39.0688 27.4217 38.5566 27.4217 37.9305V28.8243H29.6983C30.3315 28.8243 30.8366 28.312 30.8366 27.686C30.8366 27.0528 30.3315 26.5477 29.6983 26.5477H27.4217V18.224L29.1505 19.2058C29.9046 19.6397 30.8508 19.092 30.8508 18.2169ZM31.9891 20.1662C31.9891 20.5717 32.2097 20.9488 32.5654 21.1551L34.2514 22.1226V34.5157C34.2514 35.1418 34.7637 35.654 35.3897 35.654C36.0229 35.654 36.528 35.1418 36.528 34.5157V23.4174L37.6876 24.0791C38.2283 24.3921 38.9255 24.2 39.2386 23.6522C39.5516 23.1115 39.3595 22.4143 38.8117 22.1013L33.6894 19.1773C32.9353 18.7434 31.9891 19.2912 31.9891 20.1662ZM20.592 19.718V28.5753L18.2586 21.6317C18.0807 21.1053 17.5471 20.778 16.9993 20.8705C16.4444 20.9559 16.0425 21.4325 16.0425 21.9946V33.3774C16.0425 34.0035 16.5511 34.5157 17.1772 34.5157C17.8104 34.5157 18.3155 34.0035 18.3155 33.3774V29.0092L20.6561 36.0097C20.8339 36.5433 21.3675 36.8634 21.9153 36.778C22.4702 36.6855 22.8686 36.2089 22.8686 35.654V19.718C22.8686 19.0848 22.3635 18.5797 21.7303 18.5797C21.1043 18.5797 20.592 19.0848 20.592 19.718Z" fill="white"/>
<defs>
<linearGradient id="paint0_linear_3_40" x1="28" y1="0" x2="28" y2="56" gradientUnits="userSpaceOnUse">
<stop stop-color="#9BCA46"/>
<stop offset="1" stop-color="#659B02"/>
</linearGradient>
</defs>
</svg>
