<svg width="56" height="56" viewBox="0 0 56 56" fill="none" xmlns="http://www.w3.org/2000/svg">
<circle cx="28" cy="28" r="28" fill="white"/>
<circle cx="28" cy="28" r="28" fill="url(#paint0_linear_3_45)"/>
<path d="M29.0063 14.7781C30.0188 13.0569 31.8687 12 33.8625 12H34C37.0375 12 39.5 14.4625 39.5 17.5C39.5 20.5375 37.0375 23 34 23H29.5V28H25.5V23H21C17.9625 23 15.5 20.5375 15.5 17.5C15.5 14.4625 17.9625 12 21 12H21.1375C23.1312 12 24.9812 13.0569 25.9937 14.7781L27.5 17.3412L29.0063 14.7781ZM23.4062 16.2987C22.9313 15.4944 22.0687 15 21.1375 15H21C19.6188 15 18.5 16.1194 18.5 17.5C18.5 18.8812 19.6188 20 21 20H25.5813L23.4062 16.2987ZM29.4188 20H34C35.3813 20 36.5 18.8812 36.5 17.5C36.5 16.1194 35.3813 15 34 15H33.8625C32.9312 15 32.0688 15.4944 31.5938 16.2987L29.4188 20ZM25.5 44V30H29.5V44H25.5Z" fill="white"/>
<path opacity="0.4" d="M21 23H25.5V28H13.5C12.3956 28 11.5 27.1062 11.5 26V22C11.5 20.8937 12.3956 20 13.5 20H16.1C17.01 21.7812 18.8625 23 21 23ZM41.5 28H29.5V23H34C36.1375 23 37.9875 21.7812 38.9 20H41.5C42.6063 20 43.5 20.8937 43.5 22V26C43.5 27.1062 42.6063 28 41.5 28ZM13.5 30H25.5V44H16.5C14.8431 44 13.5 42.6562 13.5 41V30ZM29.5 44V30H41.5V41C41.5 42.6562 40.1562 44 38.5 44H29.5Z" fill="white"/>
<defs>
<linearGradient id="paint0_linear_3_45" x1="28" y1="0" x2="28" y2="56" gradientUnits="userSpaceOnUse">
<stop stop-color="#9BCA46"/>
<stop offset="1" stop-color="#659B02"/>
</linearGradient>
</defs>
</svg>
