<svg width="56" height="56" viewBox="0 0 56 56" fill="none" xmlns="http://www.w3.org/2000/svg">
<circle cx="28" cy="28" r="28" fill="white"/>
<circle cx="28" cy="28" r="28" fill="url(#paint0_linear_3_20)"/>
<path opacity="0.4" d="M17 39.9999C12.0294 39.9999 8 35.9686 8 30.9999C8 27.0749 10.5106 23.7374 14.0125 22.5062C14.0044 22.3375 14 22.1687 14 22C14 16.475 18.475 12 24 12C27.7062 12 30.9375 14.0156 32.6688 17.0125C33.6188 16.3187 34.7687 16 36 16C39.3125 16 42 18.6312 42 22C42 22.7625 41.8562 23.4875 41.6 24.1624C45.25 24.8999 48 28.1312 48 31.9999C48 36.4186 44.4188 39.9999 40 39.9999H17Z" fill="white"/>
<path fill-rule="evenodd" clip-rule="evenodd" d="M31.6143 29.8853L29.7503 28.0587C29.3533 27.6243 28.6432 27.6243 28.2041 28.0587C27.7696 28.4979 27.7696 29.2079 28.2041 29.605L31.9413 33.3422C32.3804 33.8187 33.0905 33.8187 33.4876 33.3422L37.2248 29.605C37.7013 29.2079 37.7013 28.4979 37.2248 28.0587C36.8277 27.6243 36.1176 27.6243 35.6785 28.0587L33.8566 29.8853V23.6208C33.8566 22.9995 33.3568 22.4996 32.7355 22.4996C32.1141 22.4996 31.6143 22.9995 31.6143 23.6208V29.8853ZM21.5359 26.3139L19.6719 28.1405C19.2748 28.575 18.5648 28.575 18.1256 28.1405C17.6912 27.7014 17.6912 26.9913 18.1256 26.5942L21.8629 22.857C22.302 22.3805 23.0121 22.3805 23.4091 22.857L27.1464 26.5942C27.6229 26.9913 27.6229 27.7014 27.1464 28.1405C26.7493 28.575 26.0392 28.575 25.6001 28.1405L23.7782 26.3139V32.5784C23.7782 33.1997 23.2783 33.6996 22.657 33.6996C22.0357 33.6996 21.5359 33.1997 21.5359 32.5784V26.3139Z" fill="white"/>
<defs>
<linearGradient id="paint0_linear_3_20" x1="28" y1="0" x2="28" y2="56" gradientUnits="userSpaceOnUse">
<stop stop-color="#9BCA46"/>
<stop offset="1" stop-color="#659B02"/>
</linearGradient>
</defs>
</svg>
