<svg width="56" height="56" viewBox="0 0 56 56" fill="none" xmlns="http://www.w3.org/2000/svg">
<circle cx="28" cy="28" r="28" fill="white"/>
<circle cx="28" cy="28" r="28" fill="url(#paint0_linear_13_58)" fill-opacity="0.88"/>
<circle cx="28" cy="28" r="28" fill="url(#paint1_linear_13_58)"/>
<path d="M32.1252 20.8936C32.4627 20.1373 33.344 19.7936 34.1065 20.1248C34.8628 20.4623 35.2065 21.3436 34.819 22.1061L30.869 31.2123C31.569 31.9311 31.944 32.9123 31.944 33.9998C31.944 36.2061 30.2065 37.9998 27.944 37.9998C25.7878 37.9998 23.944 36.2061 23.944 33.9998C23.944 31.7936 25.7878 29.9998 27.944 29.9998C28.0378 29.9998 28.0815 29.9998 28.119 29.9998L32.1252 20.8936Z" fill="white"/>
<path opacity="0.4" d="M44 28C44 36.8375 36.8375 44 28 44C19.1625 44 12 36.8375 12 28C12 19.1625 19.1625 12 28 12C36.8375 12 44 19.1625 44 28ZM28 16C26.8937 16 26 16.8956 26 18C26 19.1063 26.8937 20 28 20C29.1063 20 30 19.1063 30 18C30 16.8956 29.1063 16 28 16ZM28 38C30.2062 38 32 36.2062 32 34C32 32.9125 31.5687 31.9312 30.8687 31.2125L34.8188 22.1062C35.2063 21.3437 34.8625 20.4625 34.1063 20.125C33.3438 19.7937 32.4625 20.1375 32.125 20.8938L28.1187 30C28.0812 30 28.0375 29.9438 28 29.9438C25.7938 29.9438 24 31.7938 24 34C24 36.2062 25.7938 38 28 38ZM21 19C19.8937 19 19 19.8937 19 21C19 22.1063 19.8937 23 21 23C22.1063 23 23 22.1063 23 21C23 19.8937 22.1063 19 21 19ZM18 30C19.1063 30 20 29.1063 20 28C20 26.8937 19.1063 26 18 26C16.8956 26 16 26.8937 16 28C16 29.1063 16.8956 30 18 30ZM38 26C36.8937 26 36 26.8937 36 28C36 29.1063 36.8937 30 38 30C39.1063 30 40 29.1063 40 28C40 26.8937 39.1063 26 38 26Z" fill="white"/>
<defs>
<linearGradient id="paint0_linear_13_58" x1="28" y1="0" x2="28" y2="56" gradientUnits="userSpaceOnUse">
<stop stop-color="#42BCA2"/>
<stop offset="1" stop-color="#2D8975"/>
</linearGradient>
<linearGradient id="paint1_linear_13_58" x1="28" y1="0" x2="28" y2="56" gradientUnits="userSpaceOnUse">
<stop stop-color="#42BCA2"/>
<stop offset="1" stop-color="#2D8975"/>
</linearGradient>
</defs>
</svg>
