<svg width="22" height="19" viewBox="0 0 22 19" fill="none" xmlns="http://www.w3.org/2000/svg">
<path d="M14.9766 9.50488C14.9766 8.40488 14.0766 7.50488 12.9766 7.50488C11.8766 7.50488 10.9766 8.40488 10.9766 9.50488C10.9766 10.6049 11.8766 11.5049 12.9766 11.5049C14.0766 11.5049 14.9766 10.6049 14.9766 9.50488ZM12.9766 0.504883C8.00656 0.504883 3.97656 4.53488 3.97656 9.50488H0.976562L4.97656 13.5049L8.97656 9.50488H5.97656C5.97656 5.63488 9.10656 2.50488 12.9766 2.50488C16.8466 2.50488 19.9766 5.63488 19.9766 9.50488C19.9766 13.3749 16.8466 16.5049 12.9766 16.5049C11.4666 16.5049 10.0666 16.0149 8.91656 15.2049L7.49656 16.6449C9.01656 17.8049 10.9166 18.5049 12.9766 18.5049C17.9466 18.5049 21.9766 14.4749 21.9766 9.50488C21.9766 4.53488 17.9466 0.504883 12.9766 0.504883Z" fill="white"/>
</svg>
