<svg width="53" height="52" viewBox="0 0 53 52" fill="none" xmlns="http://www.w3.org/2000/svg">
<rect x="0.5" width="52" height="52" rx="26" fill="#EDFFBF"/>
<g clip-path="url(#clip0_13962_22572)">
<path d="M17.5 18.0986H14.5C14.5 23.9018 19.2016 28.5986 25 28.5986V34.5986C25 35.4658 25.675 36.1408 26.4578 36.1408C27.2406 36.1408 28 35.4658 28 34.6408V28.6408C28 22.8424 23.2984 18.0986 17.5 18.0986Z" fill="#333333"/>
<path opacity="0.4" d="M38.4969 15.1406C38.4969 20.9437 33.7953 25.6406 27.9969 25.6406V28.6406C27.9969 26.1319 27.1152 23.8312 25.6484 22.0266C27.125 18.0098 30.9687 15.1406 35.4969 15.1406H38.4969Z" fill="#333333"/>
</g>
<defs>
<clipPath id="clip0_13962_22572">
<rect width="32" height="32" fill="white" transform="translate(10.5 10)"/>
</clipPath>
</defs>
</svg>
