<svg width="53" height="52" viewBox="0 0 53 52" fill="none" xmlns="http://www.w3.org/2000/svg">
<rect x="0.5" width="52" height="52" rx="26" fill="#FFE274"/>
<g clip-path="url(#clip0_13957_121519)">
<path d="M26.5003 23.3994C24.9267 23.3994 23.6484 24.6777 23.6484 26.2513C23.6484 27.8249 24.9267 29.1031 26.5003 29.1031C28.0739 29.1031 29.3521 27.8249 29.3521 26.2513C29.3521 24.6777 28.0739 23.3994 26.5003 23.3994Z" fill="#333333"/>
<path opacity="0.4" d="M15.0928 26.2517C15.0928 23.629 15.9575 21.1636 17.5947 19.1679C18.1575 18.4661 18.0451 17.4394 17.3425 16.8762C16.6423 16.3175 15.6166 16.4274 15.0519 17.1277C12.9763 19.672 11.8335 22.9262 11.8335 26.2517C11.8335 29.5761 12.9763 32.8313 15.0515 35.4183C15.3739 35.8206 15.8465 36.0294 16.3236 36.0294C16.6817 36.0294 17.0412 35.9117 17.3422 35.6714C18.0449 35.1081 18.157 34.0815 17.5944 33.3797C15.9575 31.3392 15.0928 28.8743 15.0928 26.2517ZM37.9483 17.083C37.3835 16.3812 36.3579 16.2697 35.6577 16.8315C34.9549 17.3947 34.8428 18.4214 35.4054 19.1231C37.0418 21.1642 37.9076 23.629 37.9076 26.2517C37.9076 28.8743 37.0428 31.3397 35.4056 33.3355C34.8428 34.0372 34.9552 35.0639 35.6578 35.6271C35.9571 35.9123 36.3187 36.0294 36.6752 36.0294C37.1526 36.0294 37.6254 35.8209 37.9473 35.4199C40.0261 32.8313 41.1668 29.5771 41.1668 26.2517C41.1668 22.9262 40.0261 19.672 37.9483 17.083ZM31.8117 20.8077C31.3044 21.2533 31.2541 22.0253 31.7002 22.5325C33.4811 24.5584 33.4811 27.8543 31.7002 29.8811C31.2542 30.3888 31.3044 31.1604 31.8117 31.606C32.0443 31.7639 32.3317 31.91 32.6184 31.91C32.9585 31.91 33.2967 31.7699 33.5381 31.4946C36.1012 28.5791 36.1012 23.8354 33.5381 20.9173C33.09 20.4563 32.321 20.4054 31.8117 20.8077ZM21.1886 20.8077C20.6844 20.4054 19.9103 20.4563 19.4622 20.9655C16.8991 23.8811 16.8991 28.6248 19.4622 31.5429C19.7035 31.8182 20.0422 31.9582 20.3819 31.9582C20.6678 31.9582 20.9564 31.8579 21.1886 31.6542C21.6959 31.2086 21.7462 30.4366 21.3001 29.9294C19.5192 27.9035 19.5192 24.6076 21.3001 22.5808C21.7488 22.0706 21.6978 21.2966 21.1886 20.8077Z" fill="#333333"/>
</g>
<defs>
<clipPath id="clip0_13957_121519">
<rect width="32" height="32" fill="white" transform="translate(10.5 10)"/>
</clipPath>
</defs>
</svg>
