<svg width="53" height="52" viewBox="0 0 53 52" fill="none" xmlns="http://www.w3.org/2000/svg">
<rect x="0.5" width="52" height="52" rx="26" fill="#EDFFBF"/>
<g clip-path="url(#clip0_13962_137944)">
<path d="M26.5003 23.3994C24.9267 23.3994 23.6484 24.6777 23.6484 26.2513C23.6484 27.8249 24.9267 29.1031 26.5003 29.1031C28.0739 29.1031 29.3521 27.8249 29.3521 26.2513C29.3521 24.6777 28.0739 23.3994 26.5003 23.3994Z" fill="#333333"/>
<path opacity="0.4" d="M15.0952 26.2517C15.0952 23.629 15.9599 21.1636 17.5972 19.1679C18.1599 18.4661 18.0476 17.4394 17.345 16.8762C16.6447 16.3175 15.6191 16.4274 15.0543 17.1277C12.9787 19.672 11.8359 22.9262 11.8359 26.2517C11.8359 29.5761 12.9787 32.8313 15.0539 35.4183C15.3763 35.8206 15.8489 36.0294 16.3261 36.0294C16.6841 36.0294 17.0436 35.9117 17.3446 35.6714C18.0474 35.1081 18.1594 34.0815 17.5968 33.3797C15.9599 31.3392 15.0952 28.8743 15.0952 26.2517ZM37.9508 17.083C37.386 16.3812 36.3603 16.2697 35.6601 16.8315C34.9573 17.3947 34.8453 18.4214 35.4079 19.1231C37.0443 21.1642 37.91 23.629 37.91 26.2517C37.91 28.8743 37.0453 31.3397 35.408 33.3355C34.8453 34.0372 34.9576 35.0639 35.6603 35.6271C35.9595 35.9123 36.3211 36.0294 36.6776 36.0294C37.155 36.0294 37.6279 35.8209 37.9497 35.4199C40.0285 32.8313 41.1693 29.5771 41.1693 26.2517C41.1693 22.9262 40.0285 19.672 37.9508 17.083ZM31.8142 20.8077C31.3069 21.2533 31.2565 22.0253 31.7026 22.5325C33.4835 24.5584 33.4835 27.8543 31.7026 29.8811C31.2566 30.3888 31.3069 31.1604 31.8142 31.606C32.0468 31.7639 32.3341 31.91 32.6208 31.91C32.9609 31.91 33.2992 31.7699 33.5406 31.4946C36.1037 28.5791 36.1037 23.8354 33.5406 20.9173C33.0924 20.4563 32.3234 20.4054 31.8142 20.8077ZM21.191 20.8077C20.6869 20.4054 19.9128 20.4563 19.4646 20.9655C16.9015 23.8811 16.9015 28.6248 19.4646 31.5429C19.706 31.8182 20.0447 31.9582 20.3844 31.9582C20.6703 31.9582 20.9588 31.8579 21.191 31.6542C21.6984 31.2086 21.7487 30.4366 21.3026 29.9294C19.5217 27.9035 19.5217 24.6076 21.3026 22.5808C21.7512 22.0706 21.7003 21.2966 21.191 20.8077Z" fill="#333333"/>
</g>
<defs>
<clipPath id="clip0_13962_137944">
<rect width="32" height="32" fill="white" transform="translate(10.5 10)"/>
</clipPath>
</defs>
</svg>
