<svg width="53" height="52" viewBox="0 0 53 52" fill="none" xmlns="http://www.w3.org/2000/svg">
<rect x="0.5" width="52" height="52" rx="26" fill="#FFE274"/>
<g clip-path="url(#clip0_13957_121494)">
<path opacity="0.4" d="M28.4398 24.3074H33.6663C34.2897 24.3074 34.8522 24.6965 35.0304 25.2777C35.2882 25.8636 35.1241 26.5246 34.6554 26.9371L22.6556 37.4369C22.1259 37.8963 21.3511 37.9338 20.7848 37.5213C20.2181 37.1088 20.0119 36.3588 20.288 35.7166L23.893 27.3074H18.6244C18.0417 27.3074 17.4822 26.9183 17.2624 26.3371C17.0426 25.7511 17.2085 25.0902 17.6789 24.6777L29.6773 14.1788C30.207 13.7176 30.9804 13.6825 31.5476 14.0942C32.1148 14.506 32.321 15.2546 32.0445 15.8987L28.4398 24.3074Z" fill="#333333"/>
</g>
<defs>
<clipPath id="clip0_13957_121494">
<rect width="32" height="32" fill="white" transform="translate(10.5 10)"/>
</clipPath>
</defs>
</svg>
