<svg width="53" height="52" viewBox="0 0 53 52" fill="none" xmlns="http://www.w3.org/2000/svg">
<rect x="0.5" width="52" height="52" rx="26" fill="#FFE274"/>
<g clip-path="url(#clip0_13957_121507)">
<path d="M37.1668 19.7121C37.1668 22.2359 35.1192 24.2835 32.5954 24.2835C30.0287 24.2835 28.024 22.2359 28.024 19.7121C28.024 17.1873 30.0287 15.1406 32.5954 15.1406C35.1192 15.1406 37.1668 17.1873 37.1668 19.7121ZM24.9764 25.8073C24.9764 28.3311 22.9287 30.3787 20.4049 30.3787C17.8802 30.3787 15.8335 28.3311 15.8335 25.8073C15.8335 23.2406 17.8802 21.2359 20.4049 21.2359C22.9287 21.2359 24.9764 23.2406 24.9764 25.8073ZM28.024 31.9025C28.024 29.3359 30.0287 27.3311 32.5954 27.3311C35.1192 27.3311 37.1668 29.3359 37.1668 31.9025C37.1668 34.4263 35.1192 36.474 32.5954 36.474C30.0287 36.474 28.024 34.4263 28.024 31.9025Z" fill="#333333"/>
<path opacity="0.4" d="M24.9433 25.2412C24.81 24.1793 24.3148 23.2269 23.5767 22.5174L28.0576 20.2793C28.1909 21.3412 28.6862 22.2936 29.4243 23.0031L24.9433 25.2412ZM29.4243 28.6126C28.6862 29.3222 28.1909 30.2745 28.0576 31.3364L23.5767 29.0983C24.3148 28.3888 24.81 27.4364 24.9433 26.3745L29.4243 28.6126Z" fill="#333333"/>
</g>
<defs>
<clipPath id="clip0_13957_121507">
<rect width="32" height="32" fill="white" transform="translate(10.5 10)"/>
</clipPath>
</defs>
</svg>
