<svg width="53" height="52" viewBox="0 0 53 52" fill="none" xmlns="http://www.w3.org/2000/svg">
<rect x="0.5" width="52" height="52" rx="26" fill="#EDFFBF"/>
<g clip-path="url(#clip0_13962_14347)">
<path d="M37.1693 19.7121C37.1693 22.2359 35.1217 24.2835 32.5978 24.2835C30.0312 24.2835 28.0264 22.2359 28.0264 19.7121C28.0264 17.1873 30.0312 15.1406 32.5978 15.1406C35.1217 15.1406 37.1693 17.1873 37.1693 19.7121ZM24.9788 25.8073C24.9788 28.3311 22.9312 30.3787 20.4074 30.3787C17.8826 30.3787 15.8359 28.3311 15.8359 25.8073C15.8359 23.2406 17.8826 21.2359 20.4074 21.2359C22.9312 21.2359 24.9788 23.2406 24.9788 25.8073ZM28.0264 31.9025C28.0264 29.3359 30.0312 27.3311 32.5978 27.3311C35.1217 27.3311 37.1693 29.3359 37.1693 31.9025C37.1693 34.4263 35.1217 36.474 32.5978 36.474C30.0312 36.474 28.0264 34.4263 28.0264 31.9025Z" fill="#333333"/>
<path opacity="0.4" d="M24.9448 25.2412C24.8115 24.1793 24.3162 23.2269 23.5781 22.5174L28.0591 20.2793C28.1924 21.3412 28.6876 22.2936 29.4257 23.0031L24.9448 25.2412ZM29.4257 28.6126C28.6876 29.3222 28.1924 30.2745 28.0591 31.3364L23.5781 29.0983C24.3162 28.3888 24.8115 27.4364 24.9448 26.3745L29.4257 28.6126Z" fill="#333333"/>
</g>
<defs>
<clipPath id="clip0_13962_14347">
<rect width="32" height="32" fill="white" transform="translate(10.5 10)"/>
</clipPath>
</defs>
</svg>
