<svg width="85" height="81" viewBox="0 0 85 81" fill="none" xmlns="http://www.w3.org/2000/svg">
<path d="M6.58049 7.7516C6.58773 7.92538 6.58536 8.10254 6.57339 8.28308C6.56783 8.46137 6.55906 8.64079 6.54709 8.82133C6.68234 8.69452 6.81873 8.57091 6.95623 8.4505C7.09375 8.33008 7.23247 8.21824 7.37242 8.11496L12.643 4.24492C12.7088 4.19657 12.7683 4.16121 12.8216 4.13884C12.8792 4.11854 12.9338 4.1101 12.9854 4.11352C13.0413 4.11902 13.0984 4.13308 13.1568 4.1557C13.2151 4.17833 13.2833 4.20831 13.3612 4.24563L14.6794 4.87703L10.1818 14.2666L8.64283 13.5294L11.5479 7.46454C11.6018 7.35199 11.6631 7.22965 11.7317 7.09752C11.8046 6.96747 11.8808 6.83629 11.9601 6.70398L6.57196 10.6694C6.44897 10.7595 6.31893 10.8143 6.18186 10.8338C6.04686 10.849 5.9101 10.8234 5.77157 10.757L5.53131 10.642C5.39278 10.5756 5.28712 10.4851 5.21433 10.3704C5.14361 10.2514 5.10482 10.1157 5.09794 9.96336L4.78116 3.24134C4.73005 3.3925 4.67348 3.53837 4.61145 3.67897C4.55583 3.81732 4.50002 3.94493 4.44404 4.06181L1.53896 10.1267L0 9.38957L4.49759 0L5.81577 0.631401C5.89369 0.668726 5.95975 0.703031 6.01395 0.734316C6.06816 0.765601 6.11276 0.80027 6.14775 0.838322C6.18708 0.878447 6.21689 0.927321 6.23719 0.984944C6.25749 1.04257 6.2694 1.11214 6.27293 1.19366L6.58049 7.7516Z" fill="white"/>
<path d="M16.6813 9.53557L13.1106 16.0024L11.5537 15.1428L15.1245 8.67595L16.6813 9.53557ZM17.9551 7.77975C17.8809 7.91421 17.784 8.02519 17.6644 8.11269C17.5448 8.20018 17.4144 8.26252 17.2732 8.29972C17.1363 8.33924 16.9918 8.35267 16.8398 8.34001C16.6901 8.32315 16.5459 8.27644 16.4072 8.19987C16.2727 8.12563 16.1585 8.02965 16.0645 7.91194C15.977 7.79235 15.9135 7.66407 15.874 7.52711C15.8344 7.39014 15.8199 7.24775 15.8302 7.09993C15.8447 6.95444 15.8891 6.81446 15.9634 6.67999C16.0399 6.54133 16.1371 6.42499 16.2548 6.33097C16.3767 6.23928 16.5061 6.17367 16.6431 6.13415C16.7801 6.09463 16.9213 6.08214 17.0668 6.09669C17.2188 6.10934 17.3621 6.1528 17.4965 6.22704C17.6352 6.30361 17.7504 6.40284 17.8421 6.52476C17.9361 6.64246 18.0028 6.7698 18.0424 6.90677C18.0861 7.04605 18.1016 7.1917 18.089 7.34372C18.0763 7.49574 18.0317 7.64108 17.9551 7.77975Z" fill="white"/>
<path d="M22.8919 14.8414C22.8113 14.8827 22.7397 14.9042 22.6771 14.9059C22.617 14.9035 22.552 14.8814 22.482 14.8395C22.4078 14.7952 22.3398 14.7265 22.2779 14.6336C22.2202 14.5431 22.1505 14.4399 22.0689 14.3239C21.9897 14.2038 21.8903 14.0801 21.7708 13.9526C21.6554 13.8277 21.5009 13.7073 21.3073 13.5915C21.0066 13.4116 20.7315 13.3337 20.4821 13.358C20.2327 13.3822 20.0464 13.4972 19.9232 13.7032C19.8419 13.8391 19.8162 13.9803 19.846 14.1268C19.8824 14.2717 19.9517 14.4222 20.054 14.5785C20.1604 14.7372 20.2891 14.9009 20.4399 15.0694C20.5933 15.2339 20.747 15.4069 20.9012 15.5887C21.0554 15.7704 21.1993 15.9599 21.3329 16.1573C21.469 16.3506 21.5697 16.5562 21.635 16.7743C21.7069 16.9907 21.7319 17.2154 21.71 17.4484C21.6922 17.6839 21.6069 17.9293 21.4541 18.1847C21.2718 18.4895 21.0474 18.7384 20.7809 18.9314C20.5169 19.1202 20.2211 19.2453 19.8936 19.3067C19.5685 19.3639 19.2153 19.3512 18.8341 19.2686C18.4594 19.1843 18.0682 19.0202 17.6604 18.7762C17.4421 18.6456 17.2402 18.4969 17.0548 18.33C16.871 18.1698 16.7032 17.9967 16.5515 17.8109C16.4039 17.6275 16.2761 17.4392 16.168 17.2458C16.064 17.055 15.9835 16.867 15.9264 16.6819L16.6261 16.3117C16.7133 16.2688 16.7989 16.2473 16.8828 16.2472C16.9668 16.2471 17.0562 16.2754 17.1509 16.332C17.2456 16.3887 17.3182 16.4685 17.3685 16.5713C17.423 16.6766 17.4874 16.7934 17.5616 16.9217C17.6359 17.05 17.7311 17.1853 17.8474 17.3276C17.9678 17.4723 18.1433 17.6137 18.374 17.7516C18.5552 17.8601 18.722 17.9319 18.8744 17.9671C19.0333 18.0006 19.1749 18.007 19.2991 17.9863C19.4275 17.968 19.5374 17.9246 19.6287 17.8562C19.7265 17.7861 19.805 17.7016 19.8642 17.6027C19.9529 17.4544 19.9803 17.3058 19.9463 17.1569C19.9165 17.0104 19.8484 16.8578 19.742 16.699C19.6397 16.5428 19.5098 16.3812 19.3524 16.2143C19.2015 16.0457 19.0469 15.8694 18.8886 15.6852C18.7344 15.5034 18.5885 15.3127 18.4507 15.1128C18.3196 14.9113 18.2205 14.6982 18.1535 14.4736C18.0907 14.2514 18.0731 14.0144 18.1007 13.7624C18.1325 13.513 18.2322 13.2482 18.3997 12.9681C18.555 12.7085 18.7543 12.4922 18.9978 12.319C19.2412 12.1458 19.5135 12.0318 19.8147 11.9771C20.1225 11.9207 20.4555 11.9298 20.8137 12.0042C21.1785 12.077 21.5565 12.2304 21.9479 12.4645C22.3845 12.7257 22.7389 13.0356 23.011 13.3941C23.2831 13.7527 23.4684 14.1208 23.5669 14.4985L22.8919 14.8414Z" fill="white"/>
<path d="M26.688 15.5879L24.0805 19.4915C23.8299 19.8667 23.721 20.2154 23.754 20.5376C23.7937 20.8585 23.9871 21.1349 24.3344 21.3668C24.5898 21.5375 24.8667 21.6416 25.1648 21.6791C25.4657 21.7127 25.7825 21.6963 26.1154 21.63L29.0828 17.1876L30.5617 18.1754L26.4584 24.3182L25.5544 23.7143C25.3628 23.5863 25.2971 23.4125 25.3572 23.1929L25.5833 22.634C25.3703 22.6764 25.1599 22.7062 24.9522 22.7233C24.7472 22.7364 24.5415 22.7289 24.3352 22.7008C24.1355 22.6713 23.9326 22.6165 23.7263 22.5365C23.5213 22.4631 23.3171 22.3584 23.1135 22.2224C22.7782 21.9985 22.5182 21.7439 22.3334 21.4589C22.1553 21.1725 22.0477 20.8669 22.0107 20.542C21.9737 20.2171 22.004 19.8824 22.1015 19.5377C22.2056 19.1916 22.3724 18.847 22.6017 18.5037L25.2092 14.6001L26.688 15.5879Z" fill="white"/>
<path d="M29.1755 26.2887L33.6007 20.3736L34.4367 20.999C34.5827 21.1083 34.6645 21.2114 34.6819 21.3083C34.6993 21.4053 34.6687 21.5263 34.5901 21.6713L34.1418 22.4509C34.6263 22.2439 35.0899 22.1411 35.5325 22.1425C35.975 22.1439 36.3731 22.2768 36.7267 22.5414C37.0188 22.7599 37.2106 23.0083 37.3022 23.2866L36.3197 24.2151C36.2565 24.2757 36.1941 24.307 36.1327 24.309C36.0741 24.3071 36.0121 24.2818 35.9468 24.2329C35.8892 24.1897 35.8204 24.1173 35.7406 24.0157C35.6608 23.914 35.5383 23.8014 35.373 23.6777C35.0771 23.4563 34.7616 23.3492 34.4266 23.3563C34.0944 23.3596 33.7374 23.4642 33.3556 23.6701L30.5995 27.354L29.1755 26.2887Z" fill="white"/>
<path d="M38.4002 33.5634L37.7828 33.056C37.653 32.9494 37.5662 32.847 37.5225 32.749C37.4819 32.6473 37.4918 32.5218 37.5522 32.3727L37.7635 31.866C37.5122 31.877 37.2749 31.8746 37.0517 31.8589C36.8353 31.8426 36.6255 31.8069 36.4223 31.7517C36.2191 31.6966 36.0203 31.6171 35.826 31.5134C35.6317 31.4096 35.4326 31.274 35.2286 31.1064C34.9875 30.9083 34.7909 30.6939 34.6388 30.4633C34.4896 30.2289 34.3942 29.9859 34.3526 29.7342C34.3146 29.4855 34.334 29.2313 34.4109 28.9714C34.4878 28.7115 34.6313 28.4536 34.8416 28.1977C35.0184 27.9826 35.2477 27.8169 35.5296 27.7007C35.8183 27.5838 36.1628 27.55 36.5633 27.5995C36.9667 27.6453 37.433 27.7923 37.962 28.0407C38.4911 28.289 39.0862 28.6724 39.7474 29.1908L40.0216 28.8571C40.3355 28.4751 40.4855 28.1262 40.4717 27.8104C40.4646 27.4939 40.3071 27.2092 39.9993 26.9563C39.7768 26.7735 39.57 26.6471 39.379 26.5771C39.188 26.5071 39.0095 26.4598 38.8433 26.4351C38.684 26.4098 38.5366 26.385 38.4012 26.3607C38.2659 26.3365 38.1426 26.2786 38.0313 26.1872C37.9386 26.111 37.8787 26.0214 37.8515 25.9183C37.8244 25.8153 37.8194 25.7117 37.8365 25.6078L37.9473 24.9626C39.0973 24.9012 40.136 25.2514 41.0631 26.0133C41.3969 26.2875 41.6478 26.5869 41.816 26.9115C41.991 27.2354 42.0885 27.5703 42.1087 27.9162C42.132 28.2583 42.0788 28.6029 41.949 28.9498C41.823 29.2997 41.6274 29.636 41.3623 29.9587L38.4002 33.5634ZM36.434 30.5126C36.5749 30.6284 36.7154 30.7221 36.8554 30.7937C36.9954 30.8652 37.1387 30.9177 37.2852 30.9511C37.4354 30.9876 37.5892 31.0083 37.7465 31.0134C37.9107 31.0178 38.0855 31.0092 38.2709 30.9876L39.0617 30.0253C38.6459 29.7147 38.2814 29.4741 37.968 29.3036C37.6614 29.1324 37.3945 29.0187 37.1673 28.9625C36.9401 28.9063 36.7486 28.9012 36.5928 28.9471C36.4408 28.9961 36.3144 29.0818 36.2139 29.2042C36.0158 29.4452 35.9446 29.6756 36.0002 29.8952C36.0595 30.1179 36.2041 30.3237 36.434 30.5126Z" fill="white"/>
<path d="M51.2744 35.2148C51.6084 35.5392 51.863 35.8901 52.0383 36.2677C52.217 36.6487 52.3076 37.0411 52.3102 37.445C52.3161 37.8455 52.2304 38.2507 52.0531 38.6606C51.8791 39.0671 51.6066 39.4615 51.2354 39.8437C51.1418 39.9401 51.058 40.016 50.9841 40.0714C50.9171 40.1267 50.8531 40.1616 50.7922 40.1761C50.7381 40.1905 50.6837 40.1879 50.6291 40.1683C50.5779 40.1453 50.523 40.1054 50.4645 40.0485L47.1896 36.8684C46.6992 37.4493 46.4576 37.9909 46.465 38.4931C46.4724 38.9954 46.6861 39.4505 47.1062 39.8585C47.3128 40.0591 47.5136 40.2072 47.7085 40.3028C47.9068 40.4017 48.0895 40.4754 48.2565 40.5239C48.427 40.5757 48.577 40.6176 48.7065 40.6497C48.8394 40.6851 48.9454 40.7412 49.0246 40.8181C49.0763 40.8683 49.111 40.9221 49.1288 40.9795C49.1466 41.037 49.1509 41.098 49.1417 41.1626L49.0622 41.9887C48.7605 42.0169 48.4666 42.0025 48.1807 41.9456C47.898 41.8853 47.6269 41.7959 47.3671 41.6775C47.1142 41.559 46.8745 41.4166 46.648 41.2502C46.425 41.0871 46.2205 40.9153 46.0346 40.7347C45.6661 40.3769 45.382 39.9839 45.1822 39.5558C44.9858 39.1242 44.8859 38.6759 44.8824 38.2109C44.8823 37.7424 44.9857 37.2674 45.1925 36.7857C45.4026 36.3006 45.7334 35.8257 46.1848 35.3608C46.5359 34.9992 46.9238 34.7169 47.3486 34.5138C47.7766 34.3072 48.2128 34.1922 48.6572 34.1687C49.1083 34.1451 49.5574 34.2166 50.0045 34.3831C50.4551 34.553 50.8784 34.8302 51.2744 35.2148ZM50.4124 36.1541C50.0405 35.793 49.6475 35.6155 49.2335 35.6215C48.8194 35.6276 48.3959 35.7951 47.9628 36.1239L50.3595 38.4513C50.5201 38.286 50.6481 38.1093 50.7438 37.9212C50.8428 37.7296 50.8994 37.5336 50.9134 37.3331C50.9274 37.1327 50.894 36.9329 50.813 36.7338C50.7353 36.5313 50.6018 36.338 50.4124 36.1541Z" fill="white"/>
<path d="M56.838 46.0378L53.7644 48.7026L52.4957 47.2392L60.362 40.4192L62.442 42.8183C62.9074 43.355 63.2489 43.8625 63.4666 44.3408C63.6911 44.8196 63.809 45.2669 63.8202 45.6828C63.8345 46.1024 63.7508 46.4894 63.569 46.844C63.394 47.199 63.1397 47.5212 62.806 47.8104C62.5412 48.04 62.2564 48.217 61.9515 48.3416C61.6497 48.4698 61.3383 48.5429 61.0171 48.5609C60.6992 48.5825 60.3733 48.5473 60.0396 48.4555C59.709 48.3673 59.3807 48.2231 59.0547 48.023C59.1099 48.2991 59.0977 48.5892 59.0182 48.8931L57.8205 53.3811L56.6792 52.0645C56.5691 51.9376 56.5002 51.8068 56.4723 51.6721C56.4477 51.5411 56.4557 51.4038 56.4966 51.2604L57.5815 47.4229C57.6224 47.2795 57.6297 47.1524 57.6036 47.0417C57.5806 46.9346 57.5062 46.8085 57.3804 46.6634L56.838 46.0378ZM57.888 45.1275L58.6803 46.0414C58.9193 46.3171 59.1613 46.5266 59.4063 46.6699C59.6544 46.8169 59.8949 46.9038 60.1278 46.9306C60.3674 46.9579 60.599 46.9318 60.8224 46.8525C61.0458 46.7731 61.2573 46.647 61.4568 46.474C61.8557 46.1282 62.0474 45.7301 62.0318 45.2798C62.0194 44.8332 61.779 44.3397 61.3105 43.7993L60.4992 42.8636L57.888 45.1275Z" fill="white"/>
<path d="M65.4278 51.1736L59.6368 55.76L58.5327 54.3659L64.3237 49.7795L65.4278 51.1736ZM67.2809 50.0459C67.1605 50.1413 67.0282 50.2062 66.8841 50.2407C66.74 50.2753 66.5957 50.2824 66.4511 50.2622C66.3095 50.2458 66.171 50.2024 66.0357 50.132C65.9041 50.0586 65.7891 49.9599 65.6908 49.8357C65.5954 49.7153 65.5271 49.5826 65.4858 49.4378C65.4513 49.2937 65.4423 49.1508 65.4587 49.0092C65.4751 48.8676 65.5167 48.7306 65.5833 48.5983C65.6529 48.4697 65.7479 48.3577 65.8683 48.2623C65.9925 48.164 66.127 48.0942 66.2719 48.0529C66.4197 48.0154 66.5645 48.0049 66.7061 48.0213C66.8477 48.0377 66.9828 48.0808 67.1114 48.1504C67.2467 48.2207 67.3621 48.3161 67.4574 48.4365C67.5558 48.5607 67.6237 48.6967 67.6612 48.8446C67.7025 48.9895 67.7149 49.1327 67.6984 49.2743C67.685 49.4197 67.6431 49.56 67.5727 49.6954C67.5023 49.8307 67.405 49.9476 67.2809 50.0459Z" fill="white"/>
<path d="M64.321 62.0277C64.1854 61.8415 64.1837 61.6557 64.316 61.4703L64.8075 60.9344C64.5774 60.9119 64.3566 60.8737 64.1452 60.8198C63.9338 60.766 63.7294 60.6891 63.5321 60.5893C63.3376 60.4934 63.1526 60.3698 62.9771 60.2185C62.8006 60.0739 62.6361 59.8969 62.4835 59.6873C62.2462 59.3613 62.0966 59.0131 62.0347 58.6426C61.9727 58.2721 61.9978 57.8946 62.1098 57.5103C62.2286 57.1269 62.4385 56.7425 62.7397 56.357C63.0437 55.9754 63.4402 55.6066 63.9292 55.2506C64.3716 54.9286 64.8267 54.6893 65.2946 54.5327C65.7624 54.3761 66.218 54.3087 66.6613 54.3304C67.1045 54.352 67.5182 54.4635 67.9022 54.6648C68.2902 54.8633 68.6268 55.1586 68.9121 55.5505C69.1551 55.8842 69.3084 56.209 69.3721 56.5248C69.4396 56.8378 69.452 57.1524 69.4091 57.4686L72.564 55.1718L73.6106 56.6096L64.9609 62.9067L64.321 62.0277ZM63.9804 59.3457C64.1979 59.6445 64.445 59.8535 64.7218 59.9726C64.9985 60.0917 65.3192 60.1611 65.6837 60.1807L68.3613 58.2314C68.4406 57.9243 68.4503 57.6441 68.3905 57.3908C68.3336 57.1413 68.2246 56.906 68.0636 56.6848C67.9054 56.4675 67.7206 56.2992 67.5091 56.18C67.3005 56.0647 67.0676 56.0057 66.8103 56.003C66.5597 56.0014 66.2824 56.0608 65.9782 56.1813C65.678 56.299 65.3551 56.4835 65.0098 56.7349C64.6605 56.9892 64.3834 57.2325 64.1785 57.4648C63.9803 57.6982 63.8417 57.9237 63.7628 58.1415C63.6877 58.3565 63.6703 58.565 63.7107 58.7672C63.7549 58.9666 63.8448 59.1594 63.9804 59.3457Z" fill="white"/>
<path d="M73.3867 62.234L69.4452 64.7839C69.0664 65.0289 68.8283 65.3059 68.7308 65.6148C68.64 65.9251 68.708 66.2555 68.9348 66.6062C69.1017 66.8641 69.3145 67.0694 69.5734 67.2221C69.8363 67.3722 70.1336 67.4828 70.4655 67.5539L74.9511 64.652L75.9171 66.1452L69.7147 70.1578L69.1241 69.2449C68.999 69.0515 69.0075 68.8659 69.1498 68.6881L69.579 68.2647C69.3666 68.2191 69.1617 68.163 68.9642 68.0964C68.7708 68.0272 68.5849 67.9387 68.4067 67.8311C68.2351 67.7249 68.0704 67.5941 67.9128 67.4389C67.7538 67.2902 67.6077 67.1131 67.4748 66.9076C67.2558 66.569 67.1179 66.2323 67.0613 65.8973C67.0113 65.5638 67.0338 65.2406 67.1286 64.9277C67.2234 64.6148 67.384 64.3194 67.6101 64.0416C67.8429 63.7652 68.1326 63.5149 68.4792 63.2907L72.4207 60.7408L73.3867 62.234Z" fill="white"/>
<path d="M78.4873 73.6681C78.4028 73.6556 78.3307 73.636 78.2712 73.6092C78.2141 73.5866 78.1616 73.5336 78.114 73.4503C78.0687 73.3711 78.0476 73.2809 78.0505 73.1797C78.0576 73.0761 78.0606 72.9555 78.0594 72.818C78.0623 72.6781 78.045 72.5221 78.0074 72.3501C77.9764 72.1798 77.9002 71.9884 77.7787 71.7759C77.6238 71.5051 77.438 71.2961 77.2213 71.1491C77.0087 70.9997 76.7714 70.9087 76.5094 70.876C76.2498 70.8475 75.9697 70.875 75.6691 70.9584C75.3726 71.0395 75.0598 71.1741 74.7306 71.3623C74.3889 71.5577 74.105 71.767 73.8788 71.9903C73.655 72.2178 73.4907 72.4527 73.386 72.6951C73.2854 72.935 73.2432 73.1803 73.2594 73.431C73.2797 73.6792 73.3601 73.9263 73.5007 74.1721C73.6413 74.418 73.7836 74.5992 73.9277 74.7159C74.0784 74.8343 74.2189 74.9254 74.3493 74.9891C74.4839 75.0503 74.6018 75.1018 74.703 75.1435C74.8107 75.1869 74.892 75.2565 74.9468 75.3524C75.0183 75.4774 75.024 75.5985 74.9639 75.7158L74.6551 76.4813C74.3574 76.4248 74.0826 76.3358 73.8307 76.2144C73.583 76.0907 73.3556 75.9443 73.1483 75.7752C72.9477 75.608 72.7651 75.4193 72.6008 75.2092C72.4364 74.9991 72.2899 74.7815 72.1612 74.5565C71.9349 74.1606 71.7946 73.746 71.7403 73.3126C71.6902 72.8768 71.7317 72.4466 71.865 72.0221C72.0006 71.6017 72.2285 71.1977 72.5487 70.8101C72.8755 70.4242 73.3014 70.0811 73.8264 69.7809C74.2973 69.5117 74.7709 69.3294 75.2471 69.234C75.73 69.1404 76.1923 69.1415 76.634 69.2373C77.08 69.3306 77.4971 69.5234 77.8853 69.8156C78.2736 70.1079 78.6119 70.5061 78.9002 71.0103C79.1741 71.4895 79.3365 71.9523 79.3872 72.3988C79.4403 72.8495 79.4053 73.3008 79.2822 73.7527L78.4873 73.6681Z" fill="white"/>
<path d="M82.0494 77.0398L75.5071 80.4704L74.6813 78.8954L81.2236 75.4648L82.0494 77.0398ZM84.0797 76.276C83.9437 76.3473 83.8017 76.3866 83.6537 76.3937C83.5057 76.4009 83.3625 76.3811 83.2242 76.3344C83.0881 76.2919 82.9601 76.2236 82.8402 76.1293C82.7246 76.0327 82.6299 75.9143 82.5564 75.774C82.4851 75.638 82.4426 75.495 82.4289 75.3449C82.4218 75.1969 82.4394 75.0549 82.4819 74.9188C82.5244 74.7827 82.5906 74.6559 82.6807 74.5382C82.7729 74.4248 82.8871 74.3324 83.0231 74.261C83.1634 74.1875 83.3086 74.1439 83.4586 74.1303C83.6109 74.1209 83.755 74.1374 83.8911 74.1799C84.0272 74.2223 84.1519 74.2897 84.2654 74.382C84.3853 74.4763 84.4809 74.5915 84.5522 74.7275C84.6258 74.8678 84.6673 75.014 84.6766 75.1663C84.6903 75.3163 84.6759 75.4594 84.6334 75.5955C84.5932 75.7358 84.5259 75.8659 84.4316 75.9858C84.3373 76.1057 84.22 76.2025 84.0797 76.276Z" fill="white"/>
</svg>
