<svg width="111" height="110" viewBox="0 0 111 110" fill="none" xmlns="http://www.w3.org/2000/svg">
<path d="M10.0134 103.401C10.2157 104.065 10.2927 104.714 10.2445 105.35C10.1951 105.98 10.033 106.564 9.7582 107.099C9.48345 107.634 9.09995 108.105 8.6077 108.51C8.11418 108.912 7.52515 109.217 6.84061 109.425C6.15606 109.634 5.49497 109.71 4.85732 109.653C4.22258 109.591 3.63979 109.416 3.10895 109.126C2.58228 108.835 2.12246 108.441 1.72947 107.945C1.33521 107.445 1.03694 106.863 0.834644 106.199C0.632349 105.535 0.555934 104.888 0.605398 104.257C0.653591 103.622 0.815063 103.037 1.08981 102.502C1.36874 101.965 1.75496 101.496 2.24848 101.095C2.7449 100.688 3.33539 100.38 4.01993 100.171C4.70447 99.9628 5.36412 99.8894 5.99886 99.9514C6.63361 100.013 7.21431 100.19 7.74098 100.481C8.26637 100.768 8.7262 101.162 9.12045 101.662C9.51344 102.158 9.81108 102.738 10.0134 103.401ZM8.28532 103.928C8.13391 103.431 7.93163 103.007 7.67846 102.656C7.4282 102.298 7.13795 102.02 6.80771 101.819C6.47747 101.619 6.11269 101.5 5.71336 101.462C5.31821 101.423 4.89941 101.47 4.45696 101.605C4.01451 101.74 3.63816 101.935 3.32789 102.189C3.01763 102.443 2.77926 102.746 2.61279 103.098C2.45049 103.449 2.363 103.842 2.35029 104.28C2.33632 104.713 2.40503 105.178 2.55644 105.674C2.70784 106.171 2.91076 106.597 3.1652 106.953C3.41836 107.305 3.71007 107.581 4.04031 107.781C4.37345 107.976 4.73968 108.093 5.13901 108.131C5.53833 108.169 5.95922 108.12 6.40167 107.985C6.84412 107.85 7.21838 107.656 7.52447 107.404C7.83474 107.149 8.07165 106.849 8.23522 106.503C8.39752 106.152 8.48357 105.761 8.49337 105.329C8.50607 104.892 8.43672 104.425 8.28532 103.928Z" fill="white"/>
<path d="M13.2598 107.18L11.3555 102.022L10.7772 102.138C10.651 102.161 10.5397 102.156 10.4433 102.122C10.3511 102.086 10.2845 102.013 10.2437 101.902L10.0147 101.282L10.9542 100.935L10.7819 100.469C10.6489 100.109 10.5827 99.7655 10.5834 99.4397C10.5881 99.1123 10.6537 98.8113 10.7803 98.5367C10.9109 98.2605 11.1019 98.0156 11.3532 97.8018C11.6046 97.5881 11.9124 97.414 12.2767 97.2795C12.5674 97.1721 12.8519 97.1113 13.1303 97.0969L13.3807 97.8696C13.4164 97.9913 13.3883 98.0854 13.2966 98.1519C13.2048 98.2183 13.0914 98.2765 12.9563 98.3263C12.7762 98.3928 12.622 98.473 12.4939 98.5668C12.3683 98.6551 12.2745 98.7664 12.2125 98.901C12.1491 99.0314 12.1202 99.1862 12.1259 99.3655C12.1342 99.5392 12.1814 99.7428 12.2676 99.9761L12.4218 100.394L14.0612 99.7883L14.4602 100.869L12.8699 101.456L14.7764 106.62L13.2598 107.18Z" fill="white"/>
<path d="M19.2367 104.896L17.116 99.8237L16.5432 99.9639C16.418 99.9925 16.3066 99.9918 16.2089 99.9617C16.1152 99.93 16.0456 99.8597 16.0002 99.751L15.7452 99.1411L16.6692 98.7548L16.4773 98.2959C16.3292 97.9416 16.2486 97.6016 16.2354 97.276C16.2263 96.9488 16.2792 96.6453 16.394 96.3655C16.5128 96.0841 16.6933 95.8313 16.9353 95.6071C17.1774 95.383 17.4776 95.196 17.8359 95.0462C18.1218 94.9267 18.4035 94.8539 18.6811 94.8277L18.9639 95.5891C19.0047 95.7093 18.9806 95.8045 18.8918 95.8747C18.8029 95.945 18.692 96.0079 18.5592 96.0634C18.382 96.1375 18.2314 96.2241 18.1073 96.3232C17.9856 96.4167 17.8966 96.5319 17.8404 96.669C17.7825 96.8019 17.7602 96.9579 17.7735 97.1368C17.7891 97.31 17.8449 97.5113 17.9408 97.7408L18.1125 98.1514L19.7249 97.4774L20.1692 98.5402L18.6051 99.1941L20.7283 104.273L19.2367 104.896Z" fill="white"/>
<path d="M26.0568 95.9598C26.0466 96.0415 26.0262 96.1063 25.9955 96.1542C25.9629 96.1982 25.913 96.2358 25.8457 96.267C25.7745 96.3 25.6881 96.3161 25.5866 96.315C25.4891 96.3122 25.3759 96.3118 25.2469 96.3138C25.1162 96.312 24.9724 96.3233 24.8155 96.348C24.6625 96.3709 24.493 96.4254 24.3069 96.5117C24.018 96.6458 23.8188 96.8127 23.7095 97.0125C23.6001 97.2124 23.5914 97.4112 23.6832 97.6092C23.7438 97.7398 23.8367 97.8314 23.9621 97.8839C24.0896 97.9305 24.2382 97.9554 24.408 97.9585C24.5817 97.9596 24.7705 97.9466 24.9743 97.9194C25.1763 97.8883 25.385 97.8612 25.6005 97.8382C25.8159 97.8153 26.032 97.8041 26.2487 97.8046C26.4635 97.8011 26.6696 97.8306 26.8669 97.893C27.0663 97.9496 27.248 98.0457 27.4119 98.1813C27.5798 98.3151 27.7206 98.5047 27.8345 98.7502C27.9704 99.0431 28.0427 99.339 28.0515 99.638C28.0585 99.933 28.0012 100.219 27.8799 100.497C27.7566 100.77 27.5665 101.029 27.3094 101.274C27.0545 101.512 26.7311 101.722 26.3392 101.904C26.1294 102.001 25.9143 102.077 25.6941 102.131C25.4796 102.187 25.2638 102.225 25.0465 102.244C24.8332 102.261 24.6263 102.261 24.4257 102.243C24.2291 102.224 24.0466 102.188 23.8783 102.136L23.9578 101.421C23.9702 101.334 23.9978 101.259 24.0406 101.195C24.0835 101.132 24.1504 101.079 24.2415 101.037C24.3325 100.995 24.4296 100.981 24.5326 100.996C24.6396 101.009 24.7603 101.02 24.8947 101.03C25.0291 101.04 25.1795 101.037 25.3459 101.023C25.5163 101.006 25.7123 100.947 25.9339 100.844C26.1081 100.763 26.2474 100.674 26.3517 100.578C26.4582 100.476 26.5354 100.372 26.5834 100.268C26.6353 100.163 26.6589 100.058 26.6541 99.9542C26.6515 99.8448 26.6281 99.7426 26.584 99.6476C26.5179 99.5051 26.4202 99.4085 26.2909 99.3579C26.1656 99.3054 26.016 99.2786 25.8423 99.2774C25.6725 99.2743 25.4847 99.2893 25.2787 99.3223C25.0749 99.3495 24.8632 99.3755 24.6439 99.4003C24.4284 99.4233 24.2104 99.4354 23.9897 99.4368C23.7712 99.4323 23.5604 99.3978 23.3573 99.3333C23.1582 99.2669 22.971 99.1589 22.7957 99.0093C22.6245 98.8578 22.4764 98.6475 22.3516 98.3784C22.2359 98.129 22.1752 97.8685 22.1695 97.597C22.1638 97.3254 22.2174 97.0625 22.3303 96.8081C22.4453 96.5479 22.6224 96.3022 22.8615 96.071C23.1027 95.8341 23.4114 95.6284 23.7874 95.4539C24.207 95.2593 24.6212 95.1514 25.0298 95.1302C25.4385 95.109 25.8099 95.158 26.1442 95.2771L26.0568 95.9598Z" fill="white"/>
<path d="M30.332 92.1689C30.7059 91.9705 31.0807 91.8483 31.4564 91.8021C31.8358 91.7539 32.2006 91.7852 32.5508 91.8958C32.8989 92.0026 33.2255 92.1899 33.5306 92.4578C33.8337 92.7218 34.0987 93.0678 34.3257 93.4956C34.383 93.6036 34.4252 93.6972 34.4525 93.7766C34.4816 93.8501 34.4939 93.9152 34.4895 93.9719C34.4868 94.0227 34.4693 94.069 34.4372 94.1108C34.4029 94.1487 34.3531 94.185 34.2875 94.2198L30.6216 96.1646C30.9872 96.7512 31.3882 97.1114 31.8248 97.2453C32.2614 97.3792 32.7148 97.3215 33.1851 97.072C33.4164 96.9493 33.6006 96.817 33.7377 96.6751C33.8787 96.5311 33.9935 96.3937 34.0821 96.2627C34.1745 96.1297 34.2527 96.0117 34.3166 95.9086C34.3843 95.8035 34.4625 95.7274 34.5512 95.6804C34.609 95.6497 34.6652 95.6347 34.7199 95.6353C34.7746 95.636 34.8286 95.6493 34.8819 95.6754L35.5743 95.9749C35.5144 96.2438 35.4199 96.4939 35.2908 96.7255C35.1596 96.9531 35.0066 97.1627 34.8316 97.3544C34.6585 97.5401 34.4683 97.7077 34.2611 97.8571C34.0577 98.0045 33.8519 98.1334 33.6438 98.2439C33.2313 98.4627 32.812 98.5987 32.3858 98.6519C31.9575 98.7013 31.5418 98.6625 31.1385 98.5356C30.7332 98.4048 30.3511 98.1827 29.9922 97.8693C29.6312 97.552 29.3127 97.1331 29.0366 96.6127C28.8219 96.208 28.686 95.7935 28.6289 95.3694C28.5698 94.9413 28.5922 94.5318 28.6959 94.1409C28.8015 93.744 28.9888 93.3755 29.2578 93.0352C29.5307 92.6928 29.8887 92.4041 30.332 92.1689ZM30.9039 93.177C30.4876 93.3979 30.2242 93.6882 30.1138 94.0481C30.0034 94.408 30.03 94.8212 30.1935 95.2877L32.8764 93.8644C32.7783 93.6794 32.6612 93.5192 32.5252 93.3839C32.3871 93.2447 32.2333 93.1411 32.0638 93.0729C31.8943 93.0048 31.7121 92.9779 31.5173 92.9924C31.3204 93.003 31.1159 93.0645 30.9039 93.177Z" fill="white"/>
<path d="M39.9104 94.7093C39.4107 95.0044 38.9423 95.0909 38.5054 94.9688C38.0662 94.843 37.6991 94.5302 37.404 94.0304L35.4972 90.8008L34.911 91.1469C34.8358 91.1912 34.7557 91.2056 34.6704 91.1901C34.589 91.1723 34.5194 91.1145 34.4618 91.0168L34.1356 90.4645L34.9758 89.7632L34.3371 88.012C34.3077 87.9279 34.3071 87.8497 34.3354 87.7774C34.3673 87.7027 34.4246 87.641 34.5073 87.5922L35.2287 87.1663L36.3036 88.9868L37.8255 88.0883L38.4112 89.0803L36.8893 89.9788L38.7396 93.1126C38.8461 93.293 38.9744 93.4073 39.1245 93.4555C39.2746 93.5037 39.4248 93.4834 39.5751 93.3947C39.6615 93.3436 39.7273 93.2921 39.7726 93.24C39.8194 93.182 39.8568 93.1295 39.8849 93.0825C39.9166 93.0334 39.9439 92.9894 39.9666 92.9507C39.9871 92.9081 40.0143 92.8769 40.0481 92.8569C40.0894 92.8325 40.1299 92.8238 40.1695 92.8308C40.2069 92.8341 40.2529 92.8475 40.3073 92.8711L41.1238 93.3012C41.0207 93.5901 40.8631 93.8554 40.6511 94.0971C40.4391 94.3389 40.1922 94.5429 39.9104 94.7093Z" fill="white"/>
<path d="M43.9996 80.5166C44.3129 80.2947 44.6265 80.1447 44.9403 80.0668C45.2576 79.9864 45.5603 79.9645 45.8483 80.0011C46.1398 80.0353 46.4086 80.1203 46.6546 80.2561C46.9042 80.3895 47.1161 80.5603 47.2903 80.7684L46.5766 81.5387C46.5684 81.5499 46.5572 81.5605 46.543 81.5705C46.5323 81.5781 46.5216 81.5857 46.5109 81.5932C46.4504 81.6361 46.3838 81.6592 46.3113 81.6625C46.2398 81.6597 46.1646 81.6327 46.0856 81.5817C45.988 81.5118 45.8852 81.4536 45.7774 81.407C45.667 81.3569 45.5547 81.3268 45.4406 81.3167C45.324 81.303 45.205 81.3124 45.0837 81.3449C44.9598 81.3739 44.8355 81.4325 44.7109 81.5208C44.5614 81.6267 44.4467 81.748 44.3671 81.8847C44.2849 82.0178 44.2344 82.1578 44.2155 82.3049C44.1942 82.4483 44.2038 82.5939 44.2443 82.7417C44.2823 82.8859 44.3467 83.0221 44.4375 83.1503C44.5131 83.2571 44.597 83.3528 44.689 83.4374C44.7845 83.5194 44.8925 83.5927 45.013 83.657C45.1335 83.7214 45.2707 83.7793 45.4247 83.8306C45.5798 83.8759 45.7589 83.9174 45.9622 83.9552L49.5229 84.6334C49.4814 84.3258 49.4081 84.0222 49.3027 83.7225C49.1974 83.4228 49.0646 83.1372 48.9043 82.8657C48.8534 82.7788 48.8335 82.694 48.8444 82.6113C48.8554 82.5287 48.9018 82.4584 48.9837 82.4003L49.8116 81.8139C50.141 82.2864 50.3912 82.783 50.5621 83.3036C50.7331 83.8242 50.8231 84.3514 50.8321 84.8851L53.6386 85.4157L52.346 86.3314C52.2784 86.3793 52.2153 86.4186 52.1569 86.4493C52.102 86.4775 52.0451 86.4991 51.9862 86.5141C51.9247 86.5255 51.8613 86.5303 51.7959 86.5286C51.7304 86.5268 51.6569 86.5174 51.5753 86.5003L50.6515 86.3285C50.5064 86.8484 50.2793 87.3355 49.9701 87.7898C49.6645 88.2416 49.2678 88.6403 48.78 88.9859C48.4809 89.1978 48.1536 89.3548 47.7981 89.4569C47.4401 89.5554 47.0808 89.588 46.7203 89.5546C46.3597 89.5212 46.0142 89.4184 45.6836 89.2462C45.3541 89.0679 45.0682 88.8078 44.8261 88.466C44.6571 88.2274 44.5361 87.9735 44.463 87.7044C44.3875 87.4317 44.3536 87.1536 44.3613 86.8701C44.369 86.5865 44.4142 86.3031 44.497 86.0199C44.5834 85.7341 44.7026 85.4571 44.8548 85.1889C44.4769 85.0555 44.1539 84.894 43.8858 84.7042C43.6188 84.5084 43.3957 84.284 43.2166 84.0312C43.0274 83.7642 42.8964 83.4773 42.8235 83.1706C42.7517 82.8579 42.7453 82.5469 42.8043 82.2377C42.8669 81.926 42.997 81.6226 43.1944 81.3277C43.3894 81.0291 43.6577 80.7588 43.9996 80.5166ZM46.091 87.4094C46.2297 87.6053 46.3884 87.7576 46.5671 87.8663C46.7457 87.9751 46.9329 88.043 47.1286 88.0702C47.3218 88.0937 47.5163 88.0816 47.7123 88.0336C47.9094 87.9796 48.0951 87.8908 48.2696 87.7672C48.5829 87.5452 48.8337 87.2954 49.022 87.0176C49.2113 86.7338 49.351 86.429 49.441 86.1031L45.9358 85.4579C45.7821 85.8448 45.7214 86.2007 45.7536 86.5255C45.7893 86.8477 45.9018 87.1424 46.091 87.4094Z" fill="white"/>
<path d="M60.8096 76.5397C60.884 76.4791 60.9717 76.4555 61.0727 76.4689L62.086 76.6142C62.0888 77.2255 61.9518 77.807 61.6753 78.3588C61.4021 78.9078 60.9611 79.4304 60.3521 79.9265C59.8075 80.3702 59.2411 80.6768 58.6531 80.8463C58.0685 81.013 57.4872 81.0561 56.9093 80.9753C56.3313 80.8946 55.772 80.6917 55.2314 80.3667C54.6942 80.0389 54.2037 79.6027 53.7599 79.058C53.3107 78.5066 52.9913 77.9281 52.8019 77.3226C52.6098 76.7136 52.5444 76.1084 52.6058 75.5067C52.6673 74.9051 52.8536 74.3255 53.1649 73.768C53.4767 73.2043 53.9118 72.6951 54.47 72.2403C55.0146 71.7966 55.5616 71.4973 56.1109 71.3424C56.6608 71.1815 57.1984 71.1263 57.7236 71.1768L57.7837 72.1832C57.7897 72.2458 57.7831 72.3103 57.7639 72.3766C57.7481 72.4401 57.703 72.5022 57.6286 72.5628C57.5508 72.6262 57.4465 72.6605 57.3157 72.6658C57.1849 72.671 57.028 72.6891 56.8449 72.7201C56.6619 72.751 56.4491 72.8146 56.2067 72.9108C55.9676 73.0042 55.7009 73.1709 55.4066 73.4106C55.0615 73.6918 54.7931 74.0118 54.6014 74.3706C54.4103 74.7233 54.3009 75.0967 54.273 75.4908C54.2486 75.8822 54.3081 76.2869 54.4515 76.7047C54.5956 77.1164 54.8302 77.5219 55.1554 77.9211C55.4917 78.3338 55.8483 78.654 56.2251 78.8817C56.6054 79.1066 56.9849 79.2477 57.3636 79.305C57.7424 79.3623 58.1153 79.3399 58.4824 79.2378C58.8468 79.1323 59.1845 78.9528 59.4958 78.6992C59.6818 78.5476 59.841 78.401 59.9734 78.2595C60.109 78.1151 60.2216 77.97 60.3109 77.824C60.4036 77.6753 60.4783 77.5217 60.5348 77.363C60.5919 77.1983 60.635 77.0197 60.6639 76.8272C60.6729 76.7692 60.6892 76.7166 60.7126 76.6694C60.7333 76.6188 60.7656 76.5755 60.8096 76.5397Z" fill="white"/>
<path d="M58.8959 68.1944L65.3695 75.4538L64.1628 76.5299L57.6893 69.2705L58.8959 68.1944Z" fill="white"/>
<path d="M63.9599 67.5942L68.5759 72.4719L67.4017 73.5832L62.7856 68.7054L63.9599 67.5942ZM62.7906 66.0062C62.8866 66.1077 62.956 66.2222 62.9987 66.35C63.0415 66.4777 63.0595 66.6078 63.0528 66.7404C63.0492 66.8699 63.021 66.9988 62.9681 67.127C62.9121 67.252 62.8319 67.364 62.7273 67.463C62.6259 67.559 62.5112 67.6314 62.3833 67.6804C62.2556 67.7231 62.1269 67.7427 61.9974 67.7392C61.8678 67.7356 61.7405 67.7089 61.6153 67.6592C61.4933 67.6064 61.3843 67.5294 61.2883 67.4279C61.1893 67.3233 61.1153 67.2071 61.0664 67.0792C61.0206 66.9483 60.9995 66.8181 61.0031 66.6885C61.0067 66.559 61.0348 66.4332 61.0876 66.3112C61.1405 66.183 61.2177 66.0709 61.3191 65.9749C61.4237 65.876 61.5414 65.8036 61.6723 65.7578C61.8002 65.7088 61.929 65.6861 62.0585 65.6897C62.1912 65.6903 62.3217 65.717 62.4498 65.77C62.578 65.8229 62.6916 65.9016 62.7906 66.0062Z" fill="white"/>
<path d="M70.6243 70.5514L65.7629 65.9182L66.4448 65.2027C66.5893 65.0511 66.7552 65.0194 66.9425 65.1074L67.3748 65.3748C67.3614 65.1992 67.3588 65.028 67.3671 64.8611C67.3785 64.6911 67.4054 64.5269 67.4479 64.3685C67.4934 64.2069 67.5575 64.051 67.6404 63.9009C67.723 63.7445 67.8336 63.5937 67.9721 63.4484C68.2641 63.142 68.5871 62.9707 68.9412 62.9344C69.2951 62.8919 69.6562 62.9527 70.0243 63.1167C69.9355 62.8874 69.8884 62.6616 69.883 62.4395C69.8745 62.2144 69.8987 61.9993 69.9555 61.7943C70.0123 61.5892 70.0956 61.3943 70.2053 61.2096C70.3181 61.0217 70.4482 60.8503 70.5958 60.6955C70.8517 60.427 71.12 60.2277 71.4008 60.0975C71.6817 59.9673 71.9688 59.9064 72.2622 59.9147C72.5556 59.9231 72.8507 59.9994 73.1473 60.1435C73.447 60.2844 73.7437 60.4949 74.0375 60.7749L77.1316 63.7237L76.0162 64.894L72.9221 61.9452C72.6125 61.6502 72.3156 61.4968 72.0314 61.4851C71.744 61.4704 71.4754 61.5942 71.2255 61.8563C71.1111 61.9764 71.0248 62.1081 70.9665 62.2515C70.9112 62.3917 70.8854 62.5389 70.8891 62.6931C70.8927 62.8412 70.9318 62.993 71.0066 63.1487C71.0813 63.3043 71.1945 63.4543 71.3461 63.5988L74.4401 66.5477L73.3202 67.7227L70.2262 64.7739C69.9008 64.4638 69.6007 64.3044 69.3258 64.2955C69.0539 64.2836 68.796 64.4055 68.5521 64.6614C68.3926 64.8288 68.2847 65.0274 68.2285 65.2571C68.1721 65.4807 68.1564 65.7249 68.1813 65.9897L71.7397 69.3811L70.6243 70.5514Z" fill="white"/>
<path d="M81.8283 58.0722L81.3628 58.63C81.2649 58.7473 81.1713 58.8254 81.0819 58.8645C80.9891 58.9007 80.8751 58.8909 80.74 58.8349L80.2808 58.6394C80.2891 58.8679 80.2853 59.0835 80.2695 59.2863C80.2532 59.483 80.2193 59.6735 80.1677 59.8578C80.1162 60.0422 80.0426 60.2223 79.947 60.3982C79.8513 60.5742 79.7266 60.7543 79.5728 60.9385C79.3911 61.1563 79.1949 61.3336 78.9842 61.4703C78.7701 61.6043 78.5485 61.6893 78.3194 61.7255C78.0931 61.7583 77.8621 61.7389 77.6264 61.6672C77.3907 61.5955 77.1572 61.4633 76.926 61.2704C76.7317 61.1082 76.5827 60.8986 76.4789 60.6415C76.3746 60.3783 76.3463 60.0648 76.394 59.7012C76.4384 59.3347 76.5753 58.9118 76.8047 58.4326C77.0341 57.9534 77.3867 57.415 77.8625 56.8175L77.561 56.5659C77.2159 56.2779 76.8998 56.1392 76.6126 56.1496C76.3249 56.1539 76.065 56.2951 75.8329 56.5731C75.6652 56.7742 75.5488 56.9613 75.4839 57.1344C75.419 57.3076 75.3748 57.4696 75.3512 57.6204C75.3271 57.7651 75.3035 57.8989 75.2805 58.0218C75.2575 58.1447 75.2041 58.2564 75.1202 58.3569C75.0503 58.4407 74.9685 58.4945 74.8746 58.5185C74.7807 58.5425 74.6866 58.5463 74.5921 58.53L74.0064 58.4249C73.9585 57.379 74.284 56.4372 74.9829 55.5996C75.2345 55.2981 75.5085 55.072 75.8047 54.9213C76.1003 54.7645 76.4054 54.6781 76.72 54.6621C77.0312 54.6433 77.344 54.6941 77.6585 54.8144C77.9758 54.9314 78.2802 55.1115 78.5717 55.3547L81.8283 58.0722ZM79.0414 59.8386C79.1476 59.7113 79.2338 59.5843 79.2998 59.4575C79.3658 59.3307 79.4145 59.2009 79.4458 59.0679C79.48 58.9316 79.4999 58.7919 79.5056 58.6489C79.5107 58.4997 79.5041 58.3408 79.4858 58.172L78.6164 57.4466C78.3312 57.8224 78.11 58.1521 77.9528 58.4359C77.7951 58.7134 77.6899 58.9553 77.6372 59.1614C77.5846 59.3675 77.5786 59.5416 77.6193 59.6835C77.6628 59.8221 77.7398 59.9375 77.8504 60.0298C78.0682 60.2115 78.2771 60.2779 78.4771 60.2288C78.68 60.1764 78.8681 60.0464 79.0414 59.8386Z" fill="white"/>
<path d="M84.9034 54.2703C84.5514 54.7318 84.1501 54.9882 83.6993 55.0395C83.2451 55.0882 82.7872 54.9366 82.3258 54.5846L79.3436 52.3101L78.9308 52.8514C78.8779 52.9208 78.809 52.9643 78.7242 52.982C78.642 52.9961 78.5558 52.9688 78.4656 52.9L77.9556 52.511L78.47 51.5451L77.2192 50.163C77.1604 50.0962 77.1304 50.024 77.1293 49.9463C77.1308 49.8651 77.1607 49.7864 77.2189 49.7101L77.727 49.0439L79.4081 50.326L80.4798 48.9208L81.3958 49.6194L80.3241 51.0246L83.2177 53.2317C83.3843 53.3587 83.5462 53.4163 83.7033 53.4045C83.8605 53.3926 83.9921 53.3173 84.0979 53.1786C84.1588 53.0988 84.2004 53.0262 84.2227 52.9609C84.2443 52.8895 84.2592 52.8268 84.2674 52.7728C84.2784 52.7153 84.2871 52.6643 84.2936 52.6198C84.2966 52.5727 84.31 52.5336 84.3338 52.5023C84.3629 52.4642 84.3971 52.4409 84.4365 52.4325C84.4723 52.4214 84.5199 52.4166 84.5793 52.4179L85.4976 52.5091C85.5108 52.8156 85.4647 53.1207 85.3592 53.4244C85.2538 53.7281 85.1018 54.0101 84.9034 54.2703Z" fill="white"/>
<path d="M83.2381 44.7317C83.4786 44.3833 83.7549 44.1022 84.067 43.8881C84.3816 43.6705 84.7198 43.5302 85.0815 43.4671C85.4396 43.4015 85.8158 43.4172 86.2101 43.5144C86.6007 43.6091 86.9953 43.7941 87.3939 44.0693C87.4945 44.1387 87.5751 44.2023 87.6359 44.2602C87.6956 44.312 87.7365 44.3641 87.7587 44.4165C87.7797 44.4629 87.7856 44.512 87.7762 44.5639C87.7633 44.6133 87.7358 44.6685 87.6937 44.7296L85.336 48.1446C85.9306 48.4968 86.4526 48.6318 86.9018 48.5495C87.351 48.4672 87.7268 48.207 88.0292 47.7689C88.178 47.5535 88.2805 47.3512 88.3368 47.162C88.3957 46.9693 88.4342 46.7945 88.4525 46.6374C88.4733 46.4767 88.4882 46.336 88.4975 46.2151C88.5092 46.0906 88.5435 45.9871 88.6006 45.9045C88.6377 45.8506 88.6808 45.8114 88.7296 45.7867C88.7784 45.7621 88.8325 45.7491 88.8918 45.7476L89.6443 45.6945C89.715 45.9607 89.7464 46.2263 89.7385 46.4912C89.727 46.7537 89.6877 47.0103 89.6207 47.261C89.5526 47.5056 89.461 47.7419 89.3459 47.97C89.2333 48.1946 89.1101 48.4038 88.9762 48.5977C88.711 48.9819 88.4015 49.2958 88.0477 49.5395C87.6903 49.7806 87.3035 49.9377 86.8871 50.0108C86.4672 50.0815 86.0257 50.0604 85.5627 49.9476C85.0962 49.8323 84.6205 49.6073 84.1357 49.2726C83.7587 49.0123 83.4471 48.707 83.201 48.3569C82.9513 48.0042 82.7825 47.6305 82.6945 47.2357C82.6054 46.8348 82.6018 46.4214 82.6838 45.9954C82.7682 45.5659 82.953 45.1446 83.2381 44.7317ZM84.2101 45.3629C83.9423 45.7508 83.8424 46.1298 83.9102 46.5001C83.978 46.8704 84.192 47.2249 84.552 47.5636L86.2775 45.0642C86.1051 44.9452 85.9274 44.857 85.7444 44.7996C85.5577 44.7397 85.3735 44.7185 85.1916 44.7361C85.0098 44.7538 84.8357 44.8139 84.6694 44.9165C84.4995 45.0166 84.3464 45.1654 84.2101 45.3629Z" fill="white"/>
<path d="M98.1236 33.4009L97.4507 34.5844C97.3752 34.7172 97.2804 34.8088 97.1663 34.8594C97.0506 34.9041 96.9326 34.9173 96.8124 34.8992L94.7845 34.5593L92.8465 37.9676L94.1757 39.5365C94.2457 39.6165 94.2908 39.7224 94.3111 39.8545C94.3336 39.9827 94.3082 40.1113 94.2348 40.2403L93.5587 41.4295L87.1685 33.5194L88.0582 31.9546L98.1236 33.4009ZM91.9887 36.9603L93.4801 34.3372L90.1738 33.7825C90.0266 33.759 89.8552 33.7293 89.6597 33.6934C89.4626 33.6516 89.2522 33.6023 89.0286 33.5454C89.1918 33.7085 89.3418 33.8641 89.4785 34.0121C89.6174 34.1563 89.7354 34.2886 89.8326 34.4091L91.9887 36.9603Z" fill="white"/>
<path d="M96.2118 25.2585C96.2453 25.3286 96.2671 25.3929 96.2771 25.4514C96.2891 25.506 96.2757 25.5724 96.2371 25.6506C96.2004 25.725 96.1431 25.7867 96.0653 25.8359C95.9835 25.8831 95.8911 25.9421 95.788 26.0128C95.681 26.0816 95.5722 26.1739 95.4615 26.2896C95.3488 26.3994 95.2432 26.5541 95.1446 26.7536C95.019 27.0079 94.9558 27.2541 94.955 27.4922C94.9503 27.7283 95.0021 27.9535 95.1104 28.1676C95.2207 28.3778 95.3837 28.5751 95.5992 28.7595C95.8109 28.9419 96.0712 29.1095 96.3803 29.2622C96.7011 29.4206 97.0031 29.5285 97.2864 29.5857C97.5715 29.6389 97.8321 29.6435 98.068 29.5995C98.3 29.5535 98.5064 29.4608 98.6872 29.3213C98.8641 29.18 99.0096 28.9939 99.1236 28.7631C99.2377 28.5323 99.3021 28.3329 99.3169 28.165C99.3297 27.9912 99.327 27.839 99.3089 27.7084C99.2868 27.5758 99.2657 27.4607 99.2457 27.3633C99.2238 27.2599 99.235 27.1633 99.2795 27.0733C99.3374 26.9559 99.4259 26.8901 99.5449 26.8759L100.279 26.7202C100.387 26.9733 100.46 27.2257 100.496 27.4773C100.529 27.7269 100.534 27.9728 100.511 28.2149C100.487 28.4511 100.438 28.6846 100.363 28.9152C100.288 29.1458 100.198 29.3668 100.094 29.5781C99.9099 29.9497 99.6685 30.266 99.3692 30.527C99.066 30.7861 98.7205 30.9731 98.3327 31.0882C97.9469 31.1993 97.5265 31.2326 97.0716 31.1879C96.6147 31.1374 96.1398 30.9904 95.6468 30.7469C95.2047 30.5285 94.8268 30.2639 94.5131 29.9532C94.1974 29.6366 93.9635 29.2874 93.8114 28.9056C93.6554 28.5219 93.589 28.1095 93.6122 27.6684C93.6355 27.2272 93.764 26.77 93.9979 26.2966C94.2202 25.8467 94.4868 25.4892 94.7978 25.2243C95.1107 24.9554 95.4688 24.7527 95.8721 24.6161L96.2118 25.2585Z" fill="white"/>
<path d="M103.163 22.9612C102.928 23.4922 102.598 23.8355 102.172 23.991C101.742 24.1447 101.261 24.1045 100.73 23.8704L97.2983 22.3576L97.0237 22.9805C96.9885 23.0604 96.9317 23.1188 96.8534 23.1559C96.7769 23.1889 96.6867 23.1825 96.5829 23.1367L95.9959 22.878L96.2698 21.8185L94.7301 20.7678C94.6573 20.7166 94.6112 20.6534 94.5919 20.5781C94.5744 20.4989 94.585 20.4153 94.6237 20.3275L94.9617 19.5608L96.8963 20.4136L97.6091 18.7965L98.6632 19.2611L97.9504 20.8783L101.28 22.3462C101.472 22.4307 101.643 22.4488 101.793 22.4004C101.943 22.3521 102.053 22.2481 102.124 22.0884C102.164 21.9966 102.188 21.9163 102.194 21.8476C102.198 21.7732 102.198 21.7087 102.194 21.6542C102.191 21.5957 102.187 21.5441 102.183 21.4994C102.175 21.4529 102.179 21.4117 102.195 21.3757C102.214 21.3318 102.242 21.3012 102.278 21.2838C102.31 21.2646 102.356 21.2488 102.414 21.2362L103.328 21.1098C103.412 21.4046 103.439 21.712 103.408 22.032C103.376 22.352 103.295 22.6617 103.163 22.9612Z" fill="white"/>
<path d="M98.8063 15.655L105.037 18.1607L104.434 19.6607L98.2031 17.155L98.8063 15.655ZM97.0809 14.7001C97.2105 14.7522 97.3214 14.8273 97.4135 14.9256C97.5057 15.0238 97.5764 15.1345 97.6256 15.2578C97.6765 15.377 97.7046 15.5059 97.71 15.6444C97.7114 15.7814 97.6852 15.9167 97.6314 16.0503C97.5793 16.1798 97.5054 16.2935 97.4096 16.3914C97.3114 16.4836 97.2027 16.5551 97.0835 16.6059C96.9642 16.6568 96.8374 16.6857 96.7029 16.6927C96.57 16.6957 96.4387 16.6712 96.3092 16.6191C96.1756 16.5653 96.0598 16.4906 95.962 16.3948C95.8657 16.2949 95.7922 16.1854 95.7414 16.0662C95.6906 15.947 95.6636 15.8209 95.6606 15.688C95.6552 15.5495 95.6786 15.4154 95.7307 15.2859C95.7844 15.1523 95.8612 15.0373 95.961 14.9411C96.0568 14.8432 96.1643 14.7689 96.2835 14.718C96.4044 14.6632 96.5341 14.633 96.6727 14.6276C96.8112 14.6222 96.9473 14.6463 97.0809 14.7001Z" fill="white"/>
<path d="M100.549 10.6739C100.716 10.2006 100.943 9.7993 101.23 9.47012C101.519 9.13684 101.851 8.88364 102.226 8.71052C102.602 8.5374 103.017 8.44776 103.473 8.4416C103.928 8.43543 104.405 8.52002 104.903 8.69536C105.405 8.87216 105.832 9.10565 106.183 9.39583C106.534 9.68602 106.804 10.0169 106.992 10.3886C107.181 10.7602 107.283 11.1663 107.299 11.6068C107.317 12.0432 107.242 12.4981 107.075 12.9714C106.909 13.4448 106.681 13.8481 106.393 14.1814C106.104 14.5147 105.769 14.7692 105.388 14.945C105.009 15.1167 104.59 15.2076 104.133 15.2179C103.678 15.2241 103.199 15.1388 102.697 14.962C102.199 14.7866 101.774 14.5539 101.423 14.2637C101.073 13.9694 100.806 13.6371 100.622 13.2669C100.439 12.8926 100.34 12.4852 100.324 12.0447C100.308 11.6042 100.383 11.1472 100.549 10.6739ZM105.902 12.5585C106.088 12.0316 106.048 11.5803 105.782 11.2046C105.518 10.8248 105.044 10.5146 104.361 10.2741C103.678 10.0335 103.112 9.97781 102.664 10.1069C102.218 10.2319 101.902 10.5579 101.716 11.0847C101.528 11.6198 101.57 12.0787 101.842 12.4614C102.111 12.8427 102.584 13.1528 103.263 13.392C103.943 13.6311 104.506 13.686 104.954 13.5569C105.398 13.4264 105.714 13.0935 105.902 12.5585Z" fill="white"/>
<path d="M108.766 7.66098L102.318 5.78255L102.595 4.83364C102.653 4.63254 102.786 4.52804 102.993 4.52012L103.533 4.56159C103.437 4.39266 103.355 4.2211 103.287 4.04693C103.221 3.86856 103.172 3.68818 103.138 3.50579C103.106 3.31921 103.096 3.12765 103.108 2.93111C103.12 2.73457 103.157 2.52737 103.221 2.30952C103.323 1.95761 103.475 1.66319 103.676 1.42627C103.873 1.18813 104.106 1.01072 104.376 0.894042C104.644 0.771954 104.942 0.708766 105.27 0.704477C105.596 0.694779 105.939 0.742414 106.299 0.847381L110.403 2.04291L109.95 3.59511L105.847 2.39958C105.453 2.28485 105.122 2.28852 104.855 2.41061C104.585 2.52729 104.396 2.76787 104.29 3.13235C104.212 3.40048 104.2 3.66955 104.253 3.93955C104.306 4.20956 104.407 4.47981 104.555 4.75031L109.218 6.10879L108.766 7.66098Z" fill="white"/>
</svg>
