<svg width="71" height="81" viewBox="0 0 71 81" fill="none" xmlns="http://www.w3.org/2000/svg">
<path d="M11.1839 6.89225L9.87083 7.49921L8.67613 4.91472L1.39797 8.27911L0.65918 6.68089L7.93734 3.3165L6.73714 0.720123L8.05018 0.113159L11.1839 6.89225Z" fill="white"/>
<path d="M1.50905 14.6698L7.44664 11.5322L7.89006 12.3714C7.96753 12.518 7.99455 12.6345 7.97112 12.7209C7.94768 12.8073 7.87548 12.8948 7.75449 12.9834L7.08276 13.4494C7.56141 13.468 7.98226 13.5639 8.34532 13.7373C8.70838 13.9106 8.98369 14.1748 9.17125 14.5297C9.32619 14.823 9.38712 15.1017 9.35402 15.3659L8.18554 15.7465C8.10998 15.7716 8.04657 15.773 7.99532 15.7508C7.94793 15.7265 7.9069 15.6815 7.87224 15.6159C7.84166 15.5581 7.81337 15.4718 7.78737 15.3573C7.76137 15.2427 7.70454 15.1024 7.61688 14.9365C7.4599 14.6395 7.24239 14.4287 6.96437 14.3041C6.6902 14.1776 6.3562 14.1246 5.96236 14.1451L2.26439 16.0992L1.50905 14.6698Z" fill="white"/>
<path d="M6.77237 24.0401L6.40389 23.4139C6.32643 23.2823 6.28438 23.1678 6.27772 23.0705C6.27483 22.9709 6.32249 22.8669 6.4207 22.7585L6.75947 22.392C6.54154 22.3228 6.33975 22.2466 6.15411 22.1635C5.97445 22.0819 5.8065 21.9858 5.65029 21.8752C5.49407 21.7646 5.34924 21.6346 5.21581 21.4853C5.08237 21.336 4.95479 21.1579 4.83307 20.9511C4.68922 20.7066 4.5884 20.4622 4.53061 20.2177C4.47659 19.971 4.47113 19.7337 4.51423 19.5059C4.55955 19.2817 4.65564 19.0708 4.80251 18.8729C4.94938 18.6751 5.15257 18.4999 5.41206 18.3472C5.63018 18.2188 5.87774 18.1491 6.15474 18.1379C6.43771 18.1284 6.74238 18.2073 7.06874 18.3747C7.39887 18.54 7.75091 18.8112 8.12488 19.1886C8.49885 19.566 8.887 20.0793 9.28933 20.7286L9.6278 20.5294C10.0152 20.3015 10.2523 20.0506 10.3392 19.7766C10.4321 19.5043 10.3867 19.212 10.203 18.8999C10.0702 18.6742 9.93321 18.5017 9.79204 18.3822C9.65086 18.2628 9.51323 18.1666 9.37914 18.0936C9.25103 18.0221 9.13299 17.9549 9.02501 17.8919C8.91703 17.8288 8.82985 17.7409 8.76345 17.6281C8.70813 17.5341 8.68499 17.4388 8.69404 17.3424C8.7031 17.2459 8.73118 17.156 8.77829 17.0725L9.07456 16.5564C10.0755 16.8636 10.8526 17.4872 11.4059 18.4274C11.6051 18.7659 11.7257 19.0999 11.7678 19.4296C11.8159 19.7608 11.7945 20.0772 11.7036 20.3787C11.6165 20.6781 11.4633 20.9556 11.2441 21.2111C11.0271 21.4705 10.755 21.6964 10.4278 21.889L6.77237 24.0401ZM6.04768 20.8211C6.13178 20.964 6.2224 21.0879 6.31954 21.1927C6.41669 21.2976 6.52257 21.3872 6.63719 21.4615C6.75402 21.5396 6.87881 21.6054 7.01156 21.6589C7.15029 21.714 7.30219 21.7613 7.46724 21.8009L8.44316 21.2266C8.18534 20.8315 7.94933 20.5121 7.73512 20.2686C7.52689 20.0266 7.3346 19.8461 7.15825 19.7271C6.98189 19.6081 6.82004 19.5438 6.67269 19.5344C6.52756 19.5286 6.39293 19.5623 6.26883 19.6353C6.02438 19.7792 5.89155 19.9535 5.87035 20.1584C5.85136 20.367 5.91047 20.5879 6.04768 20.8211Z" fill="white"/>
<path d="M15.1637 27.2716C15.0863 27.265 15.0198 27.2513 14.9643 27.2304C14.9111 27.2131 14.8606 27.168 14.8126 27.0951C14.7671 27.0258 14.7428 26.9452 14.7397 26.8532C14.7403 26.7588 14.7362 26.6492 14.7273 26.5245C14.722 26.3974 14.6975 26.2568 14.6537 26.1029C14.6159 25.9501 14.5359 25.7808 14.4136 25.5948C14.2578 25.3579 14.0774 25.1788 13.8724 25.0577C13.6711 24.9342 13.4506 24.865 13.2111 24.8502C12.9739 24.839 12.7213 24.8798 12.4533 24.9725C12.1889 25.0628 11.9127 25.2027 11.6246 25.3921C11.3257 25.5887 11.0799 25.7947 10.8873 26.0101C10.6971 26.2292 10.5614 26.4516 10.4801 26.6774C10.4024 26.9008 10.378 27.1258 10.4068 27.3523C10.4393 27.5764 10.5263 27.796 10.6677 28.0111C10.8092 28.2262 10.9486 28.3826 11.0859 28.4803C11.2293 28.5793 11.362 28.6539 11.4839 28.7043C11.6095 28.7523 11.7194 28.7923 11.8136 28.8244C11.9138 28.8577 11.9915 28.9163 12.0466 29.0002C12.1186 29.1095 12.1306 29.2191 12.0827 29.329L11.8458 30.0409C11.5725 30.0065 11.3182 29.9414 11.0828 29.8455C10.851 29.7472 10.6363 29.6273 10.4388 29.4856C10.2472 29.3452 10.0709 29.1844 9.90988 29.003C9.74885 28.8217 9.6036 28.6325 9.47413 28.4357C9.24637 28.0893 9.09559 27.721 9.0218 27.3309C8.95166 26.9383 8.96504 26.5456 9.06191 26.1529C9.16119 25.7638 9.34513 25.3844 9.61372 25.0145C9.88836 24.6459 10.2554 24.3105 10.7148 24.0084C11.1268 23.7375 11.5461 23.5453 11.9728 23.4318C12.4056 23.3196 12.8251 23.2944 13.2314 23.3562C13.6413 23.4157 14.0307 23.567 14.3995 23.8102C14.7683 24.0534 15.0977 24.3955 15.3878 24.8367C15.6636 25.256 15.8371 25.6668 15.9084 26.069C15.982 26.4749 15.9758 26.8864 15.8897 27.3034L15.1637 27.2716Z" fill="white"/>
<path d="M21.7585 28.8961L17.2759 32.2026L17.4546 32.4449C17.5194 32.5327 17.5822 32.5921 17.643 32.6231C17.7039 32.6541 17.7884 32.6731 17.8965 32.6801L20.5466 32.7994C20.6608 32.8073 20.7619 32.8304 20.8497 32.8686C20.9411 32.9043 21.0269 32.9765 21.1072 33.0854L21.9853 34.2758L18.7389 34.0758C18.6212 34.0705 18.5074 34.0596 18.3975 34.043C18.2912 34.0238 18.188 33.9942 18.088 33.9541C18.0897 34.0667 18.0762 34.177 18.0474 34.285C18.0186 34.393 17.9845 34.5049 17.9452 34.6206L16.6508 38.357L15.7843 37.1824C15.7092 37.0805 15.6633 36.9815 15.6466 36.8854C15.6299 36.7893 15.643 36.682 15.6858 36.5637L16.7208 33.6775C16.7627 33.5652 16.7766 33.4737 16.7623 33.4029C16.748 33.3321 16.702 33.244 16.6243 33.1386L16.4067 32.8437L13.931 34.6698L12.9713 33.3687L20.7989 27.5951L21.7585 28.8961Z" fill="white"/>
<path d="M30.1239 39.4939C30.3795 39.7806 30.5634 40.0755 30.6758 40.3786C30.7912 40.685 30.8467 40.9834 30.8424 41.2736C30.841 41.5672 30.7865 41.8437 30.6789 42.1034C30.5742 42.3662 30.4281 42.5958 30.2407 42.7921L29.3956 42.1688C29.3836 42.1619 29.3719 42.152 29.3602 42.139C29.3515 42.1292 29.3428 42.1194 29.3341 42.1096C29.2847 42.0543 29.2544 41.9907 29.2431 41.919C29.2379 41.8476 29.2562 41.7698 29.2982 41.6857C29.3567 41.5809 29.4031 41.4723 29.4374 41.3599C29.4749 41.2446 29.4923 41.1297 29.4896 41.0152C29.4902 40.8978 29.4675 40.7806 29.4217 40.6636C29.3791 40.5437 29.307 40.4268 29.2054 40.3128C29.0834 40.176 28.9501 40.0756 28.8054 40.0117C28.664 39.9449 28.5192 39.9103 28.371 39.908C28.226 39.9027 28.0824 39.9285 27.94 39.9852C27.801 40.0391 27.6728 40.1182 27.5555 40.2228C27.4578 40.3099 27.3721 40.4039 27.2983 40.5047C27.2274 40.6088 27.1667 40.7243 27.1162 40.8512C27.0656 40.9781 27.0234 41.121 26.9896 41.2798C26.9619 41.4389 26.9406 41.6215 26.9257 41.8278L26.6488 45.4418C26.9498 45.3664 27.2434 45.2596 27.5295 45.1215C27.8156 44.9833 28.0846 44.8195 28.3365 44.63C28.4172 44.5697 28.4993 44.5404 28.5826 44.5421C28.666 44.5438 28.741 44.5821 28.8078 44.657L29.4829 45.4143C29.0501 45.7944 28.5845 46.0984 28.0862 46.3263C27.5879 46.5542 27.0741 46.7025 26.5447 46.771L26.3304 49.6191L25.2763 48.4367C25.2211 48.3748 25.175 48.3165 25.138 48.2619C25.1038 48.2105 25.076 48.1563 25.0546 48.0995C25.0364 48.0397 25.0245 47.9772 25.019 47.912C25.0134 47.8468 25.0146 47.7726 25.0224 47.6896L25.0901 46.7524C24.5573 46.6662 24.0479 46.4948 23.562 46.2383C23.0789 45.9849 22.6385 45.6351 22.2406 45.1889C21.9967 44.9153 21.8042 44.6076 21.6631 44.2657C21.5253 43.9209 21.4528 43.5675 21.4458 43.2055C21.4387 42.8435 21.5024 42.4886 21.6367 42.1409C21.7771 41.7935 22.0037 41.4805 22.3164 41.2017C22.5346 41.0072 22.7734 40.8586 23.0327 40.756C23.2953 40.6506 23.5679 40.5859 23.8505 40.5619C24.1331 40.5379 24.4198 40.5513 24.7105 40.602C25.0041 40.6559 25.2927 40.7435 25.5762 40.8649C25.6666 40.4745 25.7912 40.1355 25.9498 39.8479C26.1147 39.5606 26.3127 39.3139 26.544 39.1078C26.7883 38.89 27.0587 38.7278 27.3554 38.6212C27.6582 38.5149 27.9665 38.4739 28.2803 38.4981C28.5971 38.5255 28.913 38.6209 29.2282 38.7842C29.5466 38.9447 29.8452 39.1812 30.1239 39.4939ZM23.5074 42.341C23.3282 42.5007 23.1946 42.6753 23.1064 42.865C23.0183 43.0546 22.9717 43.2482 22.9665 43.4457C22.9646 43.6403 22.9984 43.8323 23.0679 44.0218C23.1435 44.2115 23.2525 44.3862 23.3948 44.5458C23.6503 44.8325 23.9266 45.0538 24.2236 45.21C24.5268 45.3664 24.8453 45.4712 25.1791 45.5244L25.4295 41.9691C25.0278 41.8595 24.6674 41.8388 24.3482 41.9071C24.0319 41.9785 23.7517 42.1232 23.5074 42.341Z" fill="white"/>
<path d="M34.0638 52.0573L31.5321 54.753L30.2486 53.5476L36.728 46.6485L38.8321 48.6245C39.3028 49.0666 39.6589 49.4938 39.9003 49.9061C40.1478 50.3182 40.296 50.7117 40.3448 51.0868C40.3968 51.4649 40.3571 51.8227 40.2257 52.1602C40.1005 52.4976 39.9004 52.8126 39.6256 53.1052C39.4075 53.3374 39.1664 53.524 38.9023 53.665C38.6413 53.8091 38.3665 53.9041 38.0777 53.9502C37.7922 53.9993 37.4942 53.9979 37.1839 53.9459C36.8767 53.8968 36.5664 53.797 36.253 53.6463C36.3286 53.8909 36.3446 54.1543 36.3009 54.4366L35.6353 58.6065L34.4807 57.5222C34.3694 57.4176 34.2949 57.3057 34.2572 57.1865C34.2226 57.0703 34.2172 56.9454 34.2408 56.8119L34.865 53.2407C34.8886 53.1072 34.8834 52.9916 34.8495 52.8939C34.8187 52.7991 34.7397 52.692 34.6125 52.5725L34.0638 52.0573ZM34.9286 51.1364L35.7302 51.8892C35.9719 52.1162 36.2102 52.2832 36.4451 52.39C36.6832 52.4999 36.9087 52.5561 37.1218 52.5586C37.3411 52.561 37.548 52.5159 37.7427 52.4234C37.9374 52.3308 38.1169 52.1971 38.2812 52.0221C38.6098 51.6723 38.7461 51.2944 38.6901 50.8887C38.6374 50.486 38.374 50.062 37.9001 49.6169L37.0794 48.8462L34.9286 51.1364Z" fill="white"/>
<path d="M43.833 56.593C44.1577 56.8646 44.4123 57.1656 44.5967 57.4961C44.7844 57.8294 44.893 58.179 44.9226 58.545C44.955 58.9077 44.9046 59.2808 44.7716 59.6644C44.6413 60.0447 44.4208 60.4206 44.1101 60.7922C44.0318 60.8859 43.961 60.9604 43.8977 61.0156C43.8407 61.0702 43.785 61.1062 43.7308 61.1234C43.6827 61.1401 43.6333 61.1414 43.5824 61.1274C43.5344 61.11 43.482 61.0775 43.425 61.0299L40.2415 58.3679C39.8361 58.9276 39.6537 59.4349 39.6942 59.8898C39.7348 60.3446 39.9593 60.7428 40.3677 61.0843C40.5686 61.2522 40.7606 61.373 40.9437 61.4464C41.1302 61.5227 41.3008 61.5772 41.4555 61.6099C41.6135 61.6453 41.7523 61.6732 41.8719 61.6935C41.9947 61.7167 42.0947 61.7604 42.1717 61.8248C42.2219 61.8668 42.257 61.9132 42.277 61.9641C42.2971 62.015 42.3051 62.07 42.3011 62.1292L42.2847 62.8834C42.0131 62.9294 41.7458 62.9362 41.4827 62.9039C41.2224 62.8683 40.9705 62.8055 40.727 62.7157C40.4897 62.6254 40.2628 62.5124 40.0463 62.3769C39.8331 62.2441 39.6361 62.1021 39.4553 61.951C39.0971 61.6515 38.813 61.3144 38.603 60.9397C38.3958 60.5617 38.275 60.162 38.2405 59.7407C38.2088 59.316 38.2704 58.8784 38.4253 58.4278C38.5831 57.9738 38.8509 57.5208 39.2288 57.0689C39.5227 56.7174 39.8553 56.4353 40.2267 56.2225C40.6008 56.0063 40.9885 55.8726 41.3897 55.8213C41.7971 55.7695 42.2091 55.804 42.6257 55.9248C43.0456 56.0484 43.4481 56.2712 43.833 56.593ZM43.115 57.5028C42.7534 57.2005 42.3852 57.0661 42.0103 57.0995C41.6353 57.133 41.2626 57.3134 40.8922 57.6407L43.2221 59.5889C43.3565 59.4282 43.4607 59.2594 43.5347 59.0824C43.6116 58.9021 43.6496 58.7206 43.6488 58.5379C43.648 58.3552 43.6041 58.1763 43.5173 58.0013C43.4332 57.8229 43.2991 57.6568 43.115 57.5028Z" fill="white"/>
<path d="M42.8856 66.5214L48.1988 59.3709L48.9921 59.9604C49.0762 60.0229 49.1337 60.0955 49.1646 60.1783C49.1955 60.2611 49.1898 60.3492 49.1474 60.4428L48.8816 61.02C49.2836 60.9327 49.6819 60.916 50.0766 60.9701C50.4749 61.0268 50.8631 61.1957 51.2414 61.4768C51.5356 61.6954 51.758 61.9558 51.9086 62.258C52.0627 62.5628 52.1401 62.8975 52.1408 63.2623C52.1477 63.6262 52.0709 64.0149 51.9104 64.4285C51.756 64.8411 51.5149 65.2681 51.1869 65.7094C50.8876 66.1122 50.5562 66.4448 50.1925 66.7074C49.8289 66.97 49.4518 67.1519 49.0613 67.2531C48.6743 67.3569 48.2838 67.374 47.8899 67.3042C47.5021 67.2334 47.1313 67.0667 46.7775 66.8038C46.4728 66.5774 46.2475 66.3392 46.1015 66.0894C45.9616 65.8387 45.8687 65.5686 45.8229 65.279L44.1833 67.4856L42.8856 66.5214ZM50.0335 62.1695C49.7639 61.9691 49.4897 61.8551 49.2112 61.8275C48.9388 61.7991 48.6435 61.827 48.3253 61.9113L46.5295 64.3281C46.5413 64.6195 46.6057 64.8658 46.7227 65.0669C46.8457 65.2671 47.0071 65.4413 47.2067 65.5897C47.4029 65.7354 47.6071 65.8301 47.8194 65.8736C48.0351 65.9198 48.2533 65.9079 48.4737 65.838C48.6977 65.7706 48.9241 65.6453 49.1528 65.4619C49.3841 65.2749 49.6156 65.0256 49.8472 64.7139C50.0815 64.3987 50.253 64.1129 50.3618 63.8567C50.4767 63.5997 50.5377 63.3677 50.5446 63.1608C50.5515 62.9539 50.5101 62.7682 50.4204 62.6037C50.3341 62.4417 50.2052 62.297 50.0335 62.1695Z" fill="white"/>
<path d="M57.4238 66.2625C57.8419 66.5399 58.1754 66.8581 58.4243 67.2169C58.6769 67.5783 58.8411 67.9621 58.917 68.3686C58.993 68.7751 58.9782 69.1999 58.8727 69.6431C58.7671 70.0863 58.5684 70.5279 58.2765 70.9678C57.9822 71.4115 57.6514 71.768 57.2841 72.0375C56.9167 72.307 56.5299 72.4876 56.1234 72.5792C55.717 72.6709 55.2982 72.6706 54.8672 72.5784C54.4398 72.4886 54.017 72.3049 53.5988 72.0275C53.1807 71.7501 52.8453 71.4307 52.5928 71.0694C52.3403 70.7081 52.1754 70.3212 52.0983 69.9086C52.0247 69.4985 52.0389 69.0707 52.1408 68.6251C52.2463 68.1819 52.4462 67.7385 52.7406 67.2949C53.0325 66.8549 53.3621 66.5002 53.7294 66.2307C54.1004 65.9636 54.4878 65.7861 54.8919 65.698C55.2995 65.6124 55.7189 65.6157 56.15 65.708C56.581 65.8002 57.0056 65.985 57.4238 66.2625ZM54.2864 70.9912C54.7518 71.3 55.1991 71.3716 55.6284 71.2061C56.0613 71.043 56.478 70.6596 56.8785 70.056C57.2789 69.4524 57.4714 68.9176 57.4558 68.4517C57.4439 67.9882 57.2053 67.6021 56.7398 67.2933C56.2671 66.9797 55.8119 66.9081 55.3742 67.0785C54.9389 67.2452 54.5222 67.6286 54.1241 68.2286C53.7261 68.8285 53.5348 69.3615 53.5504 69.8274C53.5683 70.2896 53.8137 70.6776 54.2864 70.9912Z" fill="white"/>
<path d="M58.1638 76.1047L61.5752 70.3201L62.3927 70.8022C62.5355 70.8864 62.6196 70.9715 62.645 71.0574C62.6703 71.1432 62.6547 71.2556 62.5981 71.3945L62.2704 72.1435C62.6877 71.9083 63.0964 71.7694 63.4965 71.7267C63.8965 71.684 64.2695 71.7646 64.6153 71.9685C64.9009 72.137 65.0989 72.3424 65.2093 72.5848L64.4137 73.5214C64.3626 73.5824 64.3093 73.6169 64.254 73.6248C64.2009 73.6289 64.1424 73.6122 64.0785 73.5745C64.0221 73.5412 63.9528 73.4827 63.8706 73.3987C63.7884 73.3148 63.6665 73.2251 63.5049 73.1298C63.2155 72.9591 62.9197 72.8936 62.6177 72.9334C62.3178 72.9693 62.0056 73.0993 61.681 73.3233L59.5564 76.926L58.1638 76.1047Z" fill="white"/>
<path d="M66.1216 80.5731C65.6099 80.2992 65.2928 79.9439 65.1702 79.5071C65.0498 79.0664 65.1264 78.5902 65.4003 78.0786L67.1702 74.7719L66.5701 74.4507C66.4931 74.4095 66.4392 74.3485 66.4083 74.2676C66.3812 74.1887 66.3944 74.0993 66.4479 73.9993L66.7506 73.4337L67.7862 73.7876L68.9512 72.3324C69.0078 72.2637 69.0743 72.2226 69.1508 72.2091C69.2312 72.1977 69.3137 72.2146 69.3983 72.2599L70.137 72.6553L69.1393 74.5192L70.6974 75.3532L70.1537 76.3689L68.5956 75.5349L66.8782 78.7434C66.7794 78.9281 66.7483 79.0971 66.785 79.2504C66.8218 79.4037 66.9171 79.5215 67.071 79.6039C67.1595 79.6512 67.2377 79.6807 67.3057 79.6924C67.3796 79.7022 67.4439 79.707 67.4986 79.7065C67.5571 79.7082 67.6088 79.7086 67.6537 79.7079C67.7007 79.7034 67.7415 79.7104 67.7761 79.7289C67.8185 79.7515 67.8469 79.7816 67.8615 79.8191C67.8781 79.8528 67.8905 79.899 67.8986 79.9578L67.955 80.8789C67.6546 80.9408 67.346 80.9439 67.0294 80.8882C66.7127 80.8326 66.4101 80.7275 66.1216 80.5731Z" fill="white"/>
</svg>
