<svg xmlns="http://www.w3.org/2000/svg" width="108" height="107" fill="none"><path fill="#fff" d="M7.932 99.682a.33.33 0 0 1 .176-.207l.918-.454c.348.502.565 1.059.65 1.67.085.607.017 1.288-.204 2.042-.198.674-.49 1.247-.88 1.72a4.195 4.195 0 0 1-1.364 1.094c-.522.26-1.098.41-1.727.448a5.796 5.796 0 0 1-1.954-.246 5.202 5.202 0 0 1-1.773-.888 4.474 4.474 0 0 1-1.19-1.385 4.472 4.472 0 0 1-.523-1.75 5.261 5.261 0 0 1 .21-1.998c.198-.674.48-1.23.845-1.67A4.25 4.25 0 0 1 2.35 97.01l.62.796c.04.048.071.105.093.17a.365.365 0 0 1-.006.23.515.515 0 0 1-.2.262 3.24 3.24 0 0 0-.775.83c-.144.212-.27.5-.377.865a3.155 3.155 0 0 0-.12 1.247c.042.399.164.769.364 1.11.201.336.48.636.834.899.352.258.775.459 1.27.604.51.15.985.212 1.425.186.44-.03.833-.128 1.178-.296.345-.167.64-.396.884-.688.24-.294.417-.633.53-1.018.068-.23.116-.441.145-.633.03-.196.04-.379.032-.55a2.385 2.385 0 0 0-.077-.507 2.99 2.99 0 0 0-.197-.514.547.547 0 0 1-.049-.158.323.323 0 0 1 .007-.162ZM5.416 93.002c.172-.471.403-.87.693-1.197.292-.33.626-.58 1.004-.75.377-.169.793-.254 1.249-.256.455-.001.931.088 1.428.268.5.182.924.42 1.273.714.348.293.614.627.799 1 .184.374.283.781.294 1.222.013.436-.066.89-.237 1.362a3.707 3.707 0 0 1-.695 1.203c-.292.33-.629.582-1.012.754a3.19 3.19 0 0 1-1.257.26 4.154 4.154 0 0 1-1.434-.27 4.135 4.135 0 0 1-1.267-.711 3.119 3.119 0 0 1-.791-1.005 3.002 3.002 0 0 1-.286-1.225c-.012-.44.068-.897.24-1.369Zm5.334 1.938c.19-.525.155-.976-.106-1.355-.26-.382-.731-.697-1.412-.944-.681-.248-1.246-.309-1.695-.184-.448.12-.767.443-.958.968-.194.533-.156.992.112 1.378.265.384.735.699 1.412.944.677.246 1.24.307 1.689.182.445-.126.764-.456.958-.989ZM13.639 90.428l-6.143-2.714.399-.904c.085-.192.23-.278.436-.258l.497.105a4.06 4.06 0 0 1-.18-.48 2.2 2.2 0 0 1 .09-1.534c.171-.388.417-.659.738-.813.319-.16.679-.225 1.08-.195a2.104 2.104 0 0 1-.512-1.221 2.385 2.385 0 0 1 .037-.635c.043-.215.107-.42.194-.616.15-.339.335-.617.555-.835.22-.218.47-.372.748-.463.28-.092.583-.12.91-.085.33.031.681.129 1.052.293l3.91 1.727-.653 1.479-3.91-1.727c-.391-.173-.723-.217-.994-.132-.275.084-.486.291-.633.623a1.257 1.257 0 0 0-.11.459c-.004.15.021.298.077.442.054.138.142.267.265.389.123.12.28.224.472.308l3.91 1.727-.656 1.485-3.91-1.727c-.411-.181-.748-.23-1.01-.145-.26.08-.46.283-.603.606a1.294 1.294 0 0 0-.103.67c.022.23.09.465.203.705l4.497 1.987-.653 1.479ZM18.071 80.598l-5.92-3.17.466-.871c.1-.185.25-.26.455-.225l.488.143a4.066 4.066 0 0 1-.145-.494 2.201 2.201 0 0 1 .207-1.523c.2-.373.465-.624.797-.753.33-.135.694-.173 1.092-.113a2.106 2.106 0 0 1-.419-1.256c0-.213.029-.423.085-.63a2.92 2.92 0 0 1 .24-.6c.175-.327.38-.59.616-.791.236-.2.497-.336.782-.406.285-.07.59-.075.914-.015.326.056.668.18 1.026.371l3.768 2.018-.763 1.425-3.768-2.018c-.377-.201-.704-.27-.981-.206-.28.063-.507.254-.678.573a1.257 1.257 0 0 0-.144.45c-.016.15-.002.298.043.446.043.142.121.278.235.408.113.13.262.244.447.343l3.768 2.018-.766 1.43-3.768-2.017c-.397-.212-.728-.285-.996-.22-.265.06-.481.246-.648.558-.11.204-.16.424-.153.66.005.231.055.47.15.72l4.333 2.32-.763 1.425ZM18.506 66.093l3.616 2.267c.347.218.667.308.959.27.29-.045.536-.228.738-.55.149-.236.236-.49.262-.763.023-.274 0-.561-.07-.862l-4.114-2.58.86-1.37 5.689 3.568-.526.837c-.11.178-.267.242-.468.193l-.514-.19c.044.192.077.382.098.57.017.186.015.373-.005.562a2.564 2.564 0 0 1-.133.557 2.555 2.555 0 0 1-.27.565c-.194.31-.419.554-.673.73-.255.169-.53.274-.825.316-.294.043-.599.024-.915-.056a3.527 3.527 0 0 1-.952-.427l-3.616-2.268.86-1.37ZM27.778 64.072l-5.475-3.889.572-.806c.121-.17.281-.226.479-.165l.497.216a3.209 3.209 0 0 1-.026-1.127c.03-.187.083-.37.159-.553.076-.181.18-.365.31-.55.213-.299.453-.527.72-.685.264-.16.543-.252.836-.273.293-.028.595.01.907.114.31.098.619.255.925.472l3.484 2.475-.936 1.319-3.485-2.476c-.334-.237-.647-.342-.94-.314-.294.021-.55.187-.77.496a1.684 1.684 0 0 0-.3.75c-.039.273-.032.561.02.865l3.959 2.813-.936 1.318ZM27.92 52.52l5.32 4.097-.986 1.282-5.321-4.097.986-1.281Zm-1.404-1.385c.11.085.197.188.26.307.062.12.1.245.114.377.017.129.009.26-.023.395a1.052 1.052 0 0 1-.186.37c-.085.11-.187.2-.306.268a1.109 1.109 0 0 1-.761.1 1.053 1.053 0 0 1-.633-.487 1.087 1.087 0 0 1-.124-.377 1.012 1.012 0 0 1 .025-.386.965.965 0 0 1 .176-.368.979.979 0 0 1 .315-.27.994.994 0 0 1 .37-.127 1.03 1.03 0 0 1 .773.198ZM33.616 47.776a.748.748 0 0 1 .018.202c0 .056-.03.118-.085.185a.458.458 0 0 1-.21.14c-.091.027-.195.063-.311.107-.12.042-.248.106-.383.193-.135.08-.274.206-.416.377-.182.218-.3.443-.357.674-.06.228-.062.46-.007.693.059.23.17.46.337.69.164.227.378.45.642.671.275.229.544.404.806.526.265.119.517.184.757.196.236.01.458-.032.667-.126.205-.096.39-.243.555-.44.164-.198.274-.377.327-.537.053-.166.086-.314.099-.446.01-.134.016-.25.02-.35a.434.434 0 0 1 .1-.274.328.328 0 0 1 .304-.13l.75.02c.046.272.058.534.035.787-.027.25-.08.49-.158.72-.079.225-.181.44-.308.647-.127.206-.266.4-.417.581-.265.319-.574.57-.926.754a2.806 2.806 0 0 1-1.139.303 3.345 3.345 0 0 1-1.25-.197 4.29 4.29 0 0 1-1.282-.762 4.304 4.304 0 0 1-.916-1.036 3.108 3.108 0 0 1-.438-1.183c-.062-.41-.03-.826.095-1.25.126-.423.358-.837.696-1.243.32-.386.664-.67 1.028-.856a3.212 3.212 0 0 1 1.186-.34l.18.704ZM43.09 45.22l-.495.533a.817.817 0 0 1-.293.22c-.094.03-.208.015-.34-.048l-.448-.22c-.004.229-.019.444-.045.645-.027.196-.071.384-.133.566a2.582 2.582 0 0 1-.249.528c-.105.17-.239.343-.402.52a2.654 2.654 0 0 1-.616.499c-.221.122-.447.195-.678.22a1.58 1.58 0 0 1-.688-.096 2.02 2.02 0 0 1-.679-.433 1.563 1.563 0 0 1-.413-.652c-.09-.269-.101-.583-.034-.944.063-.363.223-.778.477-1.245.255-.466.635-.985 1.142-1.556l-.287-.267c-.33-.306-.638-.462-.925-.467-.288-.01-.555.117-.801.382a2.003 2.003 0 0 0-.379.542c-.074.17-.127.329-.158.478-.032.143-.063.276-.092.397a.724.724 0 0 1-.178.326.467.467 0 0 1-.254.148.668.668 0 0 1-.282-.003l-.58-.136c.008-1.047.383-1.97 1.126-2.77.267-.287.552-.498.856-.633.304-.14.613-.211.928-.21.312-.002.622.065.93.202.31.133.604.33.882.588l3.108 2.887Zm-2.877 1.617c.113-.122.205-.244.278-.367.073-.123.128-.25.167-.382.041-.134.068-.272.082-.415a3.37 3.37 0 0 0 .005-.477l-.83-.77c-.304.36-.542.677-.715.952-.172.269-.29.505-.353.708-.064.203-.08.376-.046.52.036.14.107.26.212.358.208.193.413.27.616.232.205-.041.4-.161.584-.36ZM46.198 42.263c-.413.408-.846.606-1.3.594-.456-.015-.889-.229-1.297-.642l-2.636-2.667-.485.479a.339.339 0 0 1-.222.1c-.084.003-.165-.036-.245-.117l-.451-.456.644-.885-1.047-1.542a.33.33 0 0 1-.059-.227.398.398 0 0 1 .122-.222l.596-.589 1.486 1.503 1.257-1.242.81.82-1.257 1.242L44.673 41c.147.148.3.228.457.238a.533.533 0 0 0 .422-.169.798.798 0 0 0 .154-.198 1.4 1.4 0 0 0 .07-.18c.019-.055.035-.105.047-.148a.211.211 0 0 1 .056-.11.175.175 0 0 1 .112-.055.465.465 0 0 1 .143.005l.897.218c-.03.305-.118.601-.264.887a3.02 3.02 0 0 1-.57.775ZM46.632 32.386c.315-.282.65-.49 1.003-.626a2.532 2.532 0 0 1 1.085-.17c.364.02.726.123 1.086.31a3.58 3.58 0 0 1 1.211 1.06.444.444 0 0 1 .083.18c.01.05.003.1-.018.148a.543.543 0 0 1-.119.142l-3.093 2.766c.495.482.97.736 1.427.761.456.026.882-.14 1.279-.494.195-.175.342-.347.441-.518.103-.173.181-.334.236-.483.058-.15.105-.284.143-.4a.643.643 0 0 1 .173-.277.35.35 0 0 1 .153-.084.376.376 0 0 1 .167 0l.744.125c.006.275-.026.54-.096.796a3.577 3.577 0 0 1-.295.72c-.124.223-.268.43-.433.626a5.22 5.22 0 0 1-.507.523 3.631 3.631 0 0 1-1.124.697c-.404.15-.817.213-1.239.186a3.264 3.264 0 0 1-1.272-.372c-.427-.222-.836-.552-1.229-.991a3.687 3.687 0 0 1-.694-1.11 3.094 3.094 0 0 1-.229-1.209c.008-.41.101-.813.281-1.208.183-.398.461-.764.836-1.098Zm.796.842c-.351.314-.537.659-.558 1.035-.021.376.104.77.374 1.184l2.264-2.024a1.981 1.981 0 0 0-.456-.383 1.364 1.364 0 0 0-.523-.191 1.207 1.207 0 0 0-.55.053 1.482 1.482 0 0 0-.55.326ZM54.696 22.247c.308-.23.618-.387.93-.473.315-.088.617-.118.906-.088.292.026.563.105.812.234.253.127.469.293.648.496l-.694.788a.145.145 0 0 1-.033.033l-.031.024a.367.367 0 0 1-.198.074.451.451 0 0 1-.228-.075 1.662 1.662 0 0 0-.312-.167 1.028 1.028 0 0 0-.695-.045 1.068 1.068 0 0 0-.368.185 1.174 1.174 0 0 0-.476.796 1.05 1.05 0 0 0 .04.436c.041.143.109.278.203.404.078.105.164.198.258.28.098.08.208.15.33.212.122.061.26.116.416.163.156.042.336.079.54.111l3.577.59a4.587 4.587 0 0 0-.243-.906 4.837 4.837 0 0 0-.42-.846.394.394 0 0 1-.066-.253.306.306 0 0 1 .134-.214l.813-.607c.341.464.604.954.788 1.47.183.516.287 1.041.309 1.574l2.819.46-1.27.948c-.066.05-.128.09-.186.123a.814.814 0 0 1-.169.069.91.91 0 0 1-.19.02c-.065 0-.139-.008-.22-.023l-.928-.15a4.947 4.947 0 0 1-.645 1.479c-.294.459-.681.867-1.16 1.225-.294.22-.617.385-.97.495a2.991 2.991 0 0 1-1.075.125 2.78 2.78 0 0 1-1.044-.282 2.524 2.524 0 0 1-.877-.759 2.396 2.396 0 0 1-.382-.752 2.823 2.823 0 0 1-.122-.832c0-.283.038-.568.114-.853.08-.288.192-.568.337-.84a3.937 3.937 0 0 1-.98-.46c-.273-.189-.501-.408-.687-.656a2.462 2.462 0 0 1-.414-.85 2.244 2.244 0 0 1-.043-.933c.055-.313.178-.62.368-.92.187-.302.449-.58.784-.83Zm2.263 6.838c.144.193.306.341.488.445.181.104.37.168.566.19.194.019.388.002.583-.051.195-.059.379-.152.55-.28.308-.23.552-.486.734-.768.182-.289.314-.597.396-.925l-3.52-.558c-.145.391-.196.748-.156 1.072.044.321.164.613.36.875ZM68.44 13.164l.736 1.192-3.569 2.206 1.38 2.232 2.812-1.738.713 1.153-2.812 1.738 1.408 2.277 3.569-2.206.74 1.197-5.078 3.139-4.977-8.05 5.077-3.14ZM75.136 20.216l-3.203-5.903.87-.471c.183-.1.35-.08.502.062l.35.413a3.208 3.208 0 0 1 .473-1.023c.11-.154.24-.296.387-.426.148-.13.322-.249.521-.357.323-.175.638-.274.948-.298.308-.028.598.013.871.123.275.104.53.271.764.502.236.224.443.501.622.831l2.038 3.757-1.421.771-2.038-3.757c-.196-.36-.43-.593-.706-.697-.273-.11-.576-.074-.91.107a1.683 1.683 0 0 0-.6.541c-.154.228-.275.49-.363.785l2.316 4.27-1.421.77ZM81.023 9.45c.26-.124.517-.212.772-.266.253-.058.498-.08.736-.068l1.743-.83.26.544c.042.09.052.172.03.246-.023.074-.087.148-.192.222l-.496.36c.088.083.17.177.243.282.079.103.148.218.208.344a1.992 1.992 0 0 1 .001 1.753c-.128.27-.315.52-.562.754a3.768 3.768 0 0 1-1.574.836c-.134.204-.168.377-.1.52a.32.32 0 0 0 .295.192c.14.001.307-.03.5-.093.196-.064.412-.148.648-.25.234-.107.478-.209.732-.306.254-.096.509-.174.766-.234.255-.063.498-.085.73-.065.236.018.453.094.652.226.2.127.369.334.506.622.127.268.184.56.17.876-.01.314-.094.63-.252.946a3.224 3.224 0 0 1-.69.91 4.298 4.298 0 0 1-1.155.774c-.46.22-.882.364-1.264.435-.38.075-.718.09-1.014.048a1.684 1.684 0 0 1-.738-.272 1.326 1.326 0 0 1-.453-.524 1.142 1.142 0 0 1-.08-.839c.081-.275.248-.543.501-.804a1.114 1.114 0 0 1-.518-.16c-.156-.094-.287-.252-.392-.472a.968.968 0 0 1-.085-.3 1.283 1.283 0 0 1 .004-.358c.022-.126.062-.254.121-.384.058-.133.137-.266.24-.396a2.146 2.146 0 0 1-1.043-.316 1.975 1.975 0 0 1-.721-.845 2.004 2.004 0 0 1-.209-.894c.006-.303.075-.59.207-.86.134-.277.326-.53.574-.76.252-.23.552-.429.899-.594Zm4.669 5.679a.448.448 0 0 0-.245-.239.747.747 0 0 0-.37-.033 2.22 2.22 0 0 0-.477.11c-.171.058-.351.126-.54.207-.187.074-.38.154-.581.24-.199.08-.395.152-.587.215-.122.169-.205.341-.247.516a.729.729 0 0 0 .272.755.76.76 0 0 0 .37.121c.15.01.326-.01.528-.063.204-.049.44-.137.708-.265a3.66 3.66 0 0 0 .672-.4 1.71 1.71 0 0 0 .403-.402.78.78 0 0 0 .16-.395.687.687 0 0 0-.066-.367Zm-3.245-2.689c.18-.086.327-.184.439-.296a1.03 1.03 0 0 0 .232-.364.88.88 0 0 0 .052-.409 1.222 1.222 0 0 0-.12-.436c-.143-.299-.346-.492-.61-.58-.262-.092-.572-.053-.93.118-.36.17-.587.387-.684.651-.094.258-.07.536.072.836.068.142.152.263.254.365.105.1.223.174.353.223a1.1 1.1 0 0 0 .435.047c.16-.019.33-.07.507-.155ZM93.483 11.443l-.672.277a.815.815 0 0 1-.357.077c-.1-.01-.195-.072-.29-.185l-.315-.386a5.711 5.711 0 0 1-.31.567c-.106.167-.225.32-.356.46-.131.139-.28.264-.447.375a3.35 3.35 0 0 1-.582.305 2.646 2.646 0 0 1-.768.197 1.763 1.763 0 0 1-.708-.083 1.578 1.578 0 0 1-.586-.373 2.02 2.02 0 0 1-.436-.677 1.565 1.565 0 0 1-.104-.765c.03-.281.15-.572.362-.872.21-.304.527-.615.953-.932.426-.318.988-.631 1.687-.939l-.15-.363c-.172-.415-.387-.685-.646-.81-.257-.13-.553-.125-.887.014-.242.1-.432.211-.57.334a2.488 2.488 0 0 0-.344.37c-.088.116-.171.224-.249.322a.724.724 0 0 1-.297.222.468.468 0 0 1-.293.029.67.67 0 0 1-.255-.121l-.47-.365c.443-.949 1.169-1.631 2.177-2.048.363-.15.71-.223 1.043-.22.335 0 .645.065.93.197.285.127.539.318.761.57.227.251.413.552.558.903l1.62 3.92Zm-3.289.269c.154-.063.289-.136.406-.217.118-.082.221-.175.31-.278.094-.104.177-.219.248-.343.074-.13.142-.273.204-.431l-.432-1.047c-.428.2-.777.39-1.048.568a3.056 3.056 0 0 0-.616.496c-.143.158-.229.31-.259.454a.724.724 0 0 0 .044.414c.108.262.263.418.462.467.204.048.431.02.681-.083ZM94.747 3.683c.27-.098.536-.16.795-.188.257-.032.504-.03.739.006l1.818-.65.203.566a.334.334 0 0 1 .005.249c-.03.07-.1.138-.213.201l-.529.308c.08.092.15.194.214.306.067.11.124.23.172.362a1.99 1.99 0 0 1-.175 1.745 2.554 2.554 0 0 1-.635.693 3.447 3.447 0 0 1-.929.493 3.764 3.764 0 0 1-.72.182c-.155.19-.206.358-.153.506a.32.32 0 0 0 .274.222c.14.015.309 0 .507-.042.202-.045.425-.106.67-.185.244-.083.497-.16.76-.23.261-.07.523-.123.785-.156.26-.038.504-.035.733.008.233.042.441.139.625.29.187.147.334.37.442.67.1.28.127.576.082.888a2.275 2.275 0 0 1-.346.917 3.224 3.224 0 0 1-.78.835c-.331.263-.74.481-1.225.655-.48.172-.914.274-1.301.306a3.04 3.04 0 0 1-1.014-.054 1.684 1.684 0 0 1-.707-.345 1.327 1.327 0 0 1-.398-.566 1.141 1.141 0 0 1 .004-.843c.109-.266.302-.516.58-.75-.187-.03-.354-.1-.5-.21-.146-.11-.26-.28-.343-.51a.97.97 0 0 1-.054-.308c-.004-.114.01-.233.04-.355.034-.123.087-.247.16-.37.07-.127.162-.25.277-.37a2.145 2.145 0 0 1-1.005-.419 1.975 1.975 0 0 1-.633-.913 2.005 2.005 0 0 1-.118-.91c.036-.301.133-.58.292-.835.161-.262.377-.495.647-.698.274-.205.592-.372.954-.502ZM98.823 9.8a.448.448 0 0 0-.22-.262.748.748 0 0 0-.366-.07c-.143 0-.305.02-.485.062a7.35 7.35 0 0 0-.557.15c-.194.056-.395.117-.603.182-.206.06-.407.111-.605.154-.139.157-.238.32-.298.49a.728.728 0 0 0 .195.777.76.76 0 0 0 .356.158c.148.026.325.023.532-.01.207-.028.451-.092.73-.192.284-.101.52-.211.71-.33a1.71 1.71 0 0 0 .44-.36.78.78 0 0 0 .2-.377.686.686 0 0 0-.03-.372Zm-2.96-3c.19-.068.345-.152.467-.251.12-.103.21-.217.268-.34a.88.88 0 0 0 .092-.4 1.223 1.223 0 0 0-.076-.446c-.112-.313-.294-.525-.548-.638-.251-.119-.564-.111-.937.023-.374.133-.623.327-.745.58-.12.246-.125.526-.013.838a1.3 1.3 0 0 0 .216.389c.095.11.204.195.329.257a1.1 1.1 0 0 0 .428.09c.162-.002.335-.036.52-.102ZM103.463.839a3.23 3.23 0 0 1 1.174-.137c.382.028.733.13 1.055.308.32.174.603.422.849.745a3.582 3.582 0 0 1 .643 1.475.437.437 0 0 1-.003.199.245.245 0 0 1-.079.126.543.543 0 0 1-.168.077l-3.978 1.18c.242.648.564 1.08.965 1.298.402.218.858.251 1.368.1.251-.075.458-.168.62-.28.167-.113.307-.225.419-.336.117-.112.217-.213.3-.301a.646.646 0 0 1 .276-.177.348.348 0 0 1 .325.06l.619.43a2.78 2.78 0 0 1-.426.68 3.575 3.575 0 0 1-1.234.906c-.228.104-.455.19-.681.257a3.635 3.635 0 0 1-1.314.151 2.978 2.978 0 0 1-1.2-.36 3.257 3.257 0 0 1-.991-.88c-.291-.383-.521-.857-.688-1.421a3.676 3.676 0 0 1-.154-1.3 3.1 3.1 0 0 1 .309-1.19c.182-.369.438-.693.769-.974a3.367 3.367 0 0 1 1.225-.636Zm.361 1.101c-.452.134-.768.367-.947.698-.18.33-.235.741-.167 1.23l2.911-.864a1.95 1.95 0 0 0-.249-.54 1.363 1.363 0 0 0-.391-.396 1.204 1.204 0 0 0-.52-.187 1.478 1.478 0 0 0-.637.06Z"/></svg>