<svg width="118" height="119" viewBox="0 0 118 119" fill="none" xmlns="http://www.w3.org/2000/svg">
<path d="M14.2141 10.9977L4.30442 14.19L3.7812 12.5658L10.1821 10.5039C10.4379 10.4214 10.7187 10.3461 11.0245 10.2778L4.43333 9.09552C4.11815 9.04072 3.91346 8.86712 3.81926 8.57472L3.73537 8.3143C3.64118 8.0219 3.70605 7.76146 3.92998 7.53299L8.6012 2.68476C8.45484 2.74704 8.31004 2.80629 8.16678 2.86253C8.02352 2.91876 7.89021 2.96675 7.76686 3.00649L1.36599 5.06846L0.842773 3.44426L10.7525 0.251953L11.2006 1.64315C11.2271 1.72539 11.2476 1.79694 11.2622 1.8578C11.2768 1.91867 11.2823 1.97489 11.2787 2.02646C11.2766 2.08261 11.2609 2.13558 11.2316 2.18537C11.2037 2.23974 11.1614 2.29624 11.1046 2.35486L6.55746 7.09505C6.43627 7.21982 6.30832 7.33921 6.17358 7.45321C6.04032 7.57178 5.90176 7.68954 5.75788 7.80649C5.94753 7.816 6.13107 7.83 6.30848 7.84849C6.49047 7.86551 6.66707 7.8893 6.83829 7.91987L13.2704 9.07782C13.3507 9.0923 13.418 9.11347 13.4724 9.14134C13.5267 9.16922 13.5704 9.20305 13.6034 9.24286C13.6379 9.28722 13.667 9.33837 13.6907 9.39629C13.7144 9.45422 13.7395 9.52429 13.7659 9.60653L14.2141 10.9977Z" fill="white"/>
<path d="M13.0864 17.298C13.2899 17.806 13.3922 18.3002 13.3933 18.7806C13.3962 19.2655 13.3051 19.7157 13.1199 20.1311C12.9364 20.551 12.6585 20.9286 12.2861 21.264C11.9137 21.5993 11.4579 21.8749 10.9187 22.0909C10.3751 22.3086 9.85285 22.4247 9.35193 22.4392C8.851 22.4537 8.38702 22.3733 7.95999 22.1979C7.53474 22.0269 7.1558 21.7651 6.82317 21.4123C6.49232 21.0639 6.22516 20.6357 6.02169 20.1278C5.81644 19.6154 5.71237 19.1167 5.70947 18.6318C5.70656 18.1469 5.79905 17.6936 5.98692 17.272C6.17658 16.8547 6.45673 16.4762 6.82736 16.1364C7.19978 15.8011 7.6578 15.5246 8.20141 15.3068C8.74057 15.0909 9.26061 14.9757 9.76153 14.9612C10.2642 14.9511 10.726 15.0325 11.1468 15.2052C11.5694 15.3824 11.947 15.6474 12.2796 16.0002C12.6122 16.353 12.8812 16.7856 13.0864 17.298ZM7.29161 19.6191C7.52006 20.1895 7.88032 20.5338 8.3724 20.6521C8.86625 20.7749 9.48302 20.6881 10.2227 20.3919C10.9624 20.0956 11.4707 19.7317 11.7477 19.3001C12.0265 18.8731 12.0516 18.3743 11.8232 17.804C11.5912 17.2247 11.2229 16.8733 10.7183 16.7496C10.22 16.6286 9.60326 16.7154 8.86804 17.0099C8.13283 17.3044 7.62672 17.6674 7.34972 18.0989C7.07896 18.5331 7.05959 19.0399 7.29161 19.6191Z" fill="white"/>
<path d="M15.2228 24.0705C15.4207 24.142 15.6108 24.2252 15.7931 24.32C15.9818 24.417 16.154 24.5298 16.3096 24.6582C16.4717 24.789 16.6193 24.9398 16.7524 25.1106C16.8899 25.2794 17.0117 25.4768 17.1176 25.7028C17.2888 26.0679 17.3777 26.4212 17.3841 26.7627C17.3949 27.1023 17.3311 27.4185 17.1928 27.7113C17.0609 28.0065 16.8608 28.2753 16.5928 28.5176C16.3311 28.7623 16.0134 28.9722 15.6397 29.1475L11.383 31.1439L10.6278 29.5338L14.8845 27.5374C15.293 27.3458 15.5643 27.1046 15.6983 26.8138C15.8366 26.521 15.8161 26.1833 15.6368 25.8009C15.5063 25.5228 15.321 25.2916 15.0808 25.1073C14.8407 24.9231 14.561 24.7732 14.2418 24.6579L9.40494 26.9263L8.64981 25.3162L15.338 22.1795L15.7996 23.1638C15.8974 23.3724 15.8639 23.5552 15.6989 23.7121L15.2228 24.0705Z" fill="white"/>
<path d="M20.1768 31.5404L13.6263 34.9554L12.8009 33.3721L19.3513 29.9571L20.1768 31.5404ZM22.1989 30.7623C22.0627 30.8333 21.9206 30.8722 21.7726 30.879C21.6245 30.8858 21.4814 30.8657 21.3432 30.8186C21.2072 30.7758 21.0794 30.7072 20.9597 30.6126C20.8443 30.5158 20.75 30.3971 20.6767 30.2567C20.6057 30.1205 20.5636 29.9773 20.5503 29.8273C20.5435 29.6793 20.5615 29.5373 20.6043 29.4013C20.6471 29.2653 20.7136 29.1386 20.804 29.0211C20.8965 28.9079 21.0109 28.8158 21.1471 28.7448C21.2875 28.6716 21.4328 28.6283 21.5829 28.615C21.7351 28.606 21.8793 28.6229 22.0153 28.6657C22.1512 28.7085 22.2758 28.7761 22.389 28.8687C22.5087 28.9633 22.6041 29.0787 22.6751 29.2149C22.7483 29.3553 22.7894 29.5017 22.7984 29.654C22.8117 29.804 22.797 29.9471 22.7542 30.083C22.7136 30.2233 22.646 30.3532 22.5515 30.4729C22.4569 30.5926 22.3393 30.689 22.1989 30.7623Z" fill="white"/>
<path d="M16.2027 39.8951C15.886 39.3352 15.7992 38.8163 15.9424 38.3382C16.0921 37.862 16.4448 37.4667 17.0004 37.1524L20.5912 35.1209L20.2189 34.4629C20.1717 34.3794 20.1586 34.293 20.1799 34.2038C20.2011 34.1145 20.266 34.0392 20.3746 33.9778L20.9888 33.6303L21.7429 34.5686L23.6819 33.9018C23.7773 33.8754 23.8645 33.8785 23.9436 33.911C24.0226 33.9434 24.0881 34.0056 24.1401 34.0976L24.5939 34.8997L22.5698 36.0448L23.5412 37.7619L22.4383 38.3858L21.4669 36.6688L17.9826 38.6399C17.7821 38.7534 17.6526 38.8901 17.5942 39.05C17.5381 39.2141 17.5585 39.3817 17.6554 39.553C17.7098 39.6491 17.7651 39.7226 17.8215 39.7734C17.8843 39.8261 17.9413 39.8683 17.9924 39.9001C18.0458 39.936 18.0936 39.9669 18.1358 39.9927C18.1821 40.0161 18.2159 40.0466 18.2372 40.0842C18.2632 40.1302 18.2719 40.1749 18.2634 40.2183C18.259 40.2594 18.2433 40.3096 18.2163 40.369L17.7267 41.2582C17.411 41.1389 17.1224 40.9603 16.8609 40.7222C16.5994 40.4841 16.38 40.2084 16.2027 39.8951Z" fill="white"/>
<path d="M27.0183 42.9401C27.3091 43.4036 27.498 43.8716 27.5848 44.3442C27.6741 44.8207 27.6648 45.28 27.5567 45.7218C27.4511 46.1677 27.245 46.5888 26.9384 46.9852C26.6318 47.3816 26.2325 47.7341 25.7405 48.0428C25.2444 48.354 24.7513 48.5614 24.261 48.6651C23.7707 48.7687 23.2998 48.7723 22.8483 48.6759C22.3994 48.5836 21.9798 48.3935 21.5895 48.1057C21.2019 47.822 20.8626 47.4484 20.5718 46.9848C20.2784 46.5173 20.087 46.0452 19.9977 45.5686C19.9083 45.092 19.9184 44.6295 20.0281 44.181C20.1402 43.7367 20.3484 43.3143 20.6524 42.9138C20.9591 42.5174 21.3604 42.1636 21.8564 41.8524C22.3484 41.5437 22.8396 41.3375 23.3299 41.2339C23.8227 41.1343 24.2916 41.132 24.7364 41.2269C25.1838 41.3258 25.6027 41.5192 25.9929 41.807C26.3831 42.0948 26.7249 42.4725 27.0183 42.9401ZM21.7306 46.2578C22.0571 46.7782 22.473 47.0528 22.9783 47.0814C23.4861 47.1141 24.0775 46.9187 24.7525 46.4952C25.4274 46.0717 25.8627 45.623 26.0583 45.1489C26.2564 44.679 26.1922 44.1838 25.8656 43.6633C25.534 43.1348 25.1089 42.8546 24.5904 42.823C24.0785 42.7928 23.4871 42.9882 22.8162 43.4092C22.1453 43.8301 21.7121 44.2776 21.5165 44.7516C21.3276 45.2272 21.3989 45.7292 21.7306 46.2578Z" fill="white"/>
<path d="M29.9004 49.859C30.3942 49.7933 30.8342 49.8182 31.2207 49.9337C31.611 50.0464 31.9305 50.2794 32.1791 50.6327C32.3752 50.9114 32.4718 51.178 32.4689 51.4324L31.3132 52.1047C31.2287 52.1348 31.157 52.1413 31.098 52.1241C31.0456 52.1081 30.9973 52.0687 30.9532 52.0059C30.9117 51.947 30.8594 51.8518 30.7962 51.7202C30.7357 51.5925 30.6668 51.4737 30.5894 51.3638C30.4762 51.2029 30.3518 51.0762 30.2163 50.9837C30.0808 50.8912 29.932 50.8257 29.7699 50.7872C29.6145 50.7498 29.4464 50.736 29.2655 50.7459C29.0874 50.7597 28.8944 50.7899 28.6865 50.8364L24.965 53.4548L23.9416 52.0004L29.9832 47.7495L30.584 48.6034C30.6889 48.7525 30.7346 48.8759 30.7211 48.9734C30.7115 49.0682 30.6449 49.1738 30.5213 49.2901L29.9004 49.859Z" fill="white"/>
<path d="M32.5162 58.3203C32.1831 57.9286 31.8828 57.6148 31.6153 57.3786C31.3517 57.1396 31.1153 56.9674 30.9064 56.8619C30.6975 56.7565 30.512 56.7088 30.3499 56.7188C30.1878 56.7289 30.044 56.7824 29.9187 56.8792C29.6719 57.0701 29.5511 57.2787 29.5563 57.5052C29.5645 57.7356 29.6596 57.9684 29.8416 58.2039C30.0647 58.4925 30.3083 58.7016 30.5723 58.8312C30.843 58.9616 31.1625 59.0453 31.5308 59.0821L32.5162 58.3203ZM32.5585 53.1366C33.6933 53.3331 34.6263 53.9042 35.3573 54.8497C35.6215 55.1915 35.8009 55.5412 35.8954 55.8989C35.9937 56.2537 36.0142 56.6019 35.9568 56.9436C35.9032 57.2823 35.7745 57.6063 35.5706 57.9156C35.3698 58.2286 35.1041 58.5129 34.7738 58.7683L31.0826 61.6219L30.5894 60.9839C30.4866 60.851 30.4264 60.7338 30.4086 60.6323C30.3945 60.5279 30.4322 60.4078 30.5214 60.2721L30.846 59.8209C30.5986 59.7755 30.3693 59.7222 30.1582 59.661C29.9508 59.5968 29.7542 59.5152 29.5684 59.4162C29.3826 59.3171 29.2051 59.1934 29.0359 59.0452C28.8658 58.9037 28.7 58.7285 28.5386 58.5196C28.3477 58.2728 28.2039 58.02 28.107 57.7612C28.0138 57.4995 27.975 57.2413 27.9905 56.9867C28.006 56.732 28.0802 56.4866 28.213 56.2504C28.3459 56.0142 28.5434 55.7948 28.8054 55.5922C28.9535 55.4777 29.1188 55.3893 29.3012 55.3271C29.4875 55.262 29.6897 55.2331 29.9077 55.2405C30.1287 55.2517 30.3671 55.301 30.6228 55.3885C30.8785 55.4759 31.1498 55.615 31.4368 55.8057C31.7267 56.0002 32.0318 56.2497 32.3522 56.5542C32.6763 56.8557 33.0158 57.2242 33.3707 57.6597L33.7124 57.3955C34.1036 57.0931 34.3276 56.7864 34.3845 56.4755C34.4452 56.1616 34.3537 55.8471 34.11 55.5319C33.9339 55.304 33.7605 55.1347 33.5899 55.0239C33.4222 54.9169 33.2602 54.8329 33.1038 54.7718C32.9511 54.7078 32.8115 54.6489 32.685 54.595C32.5614 54.545 32.4555 54.463 32.3674 54.3491C32.2911 54.2503 32.2512 54.1477 32.2477 54.0412C32.248 53.9318 32.2662 53.8297 32.3023 53.7351L32.5585 53.1366Z" fill="white"/>
<path d="M42.994 68.3964C43.1641 68.2411 43.301 68.0706 43.4045 67.885C43.5149 67.6998 43.5831 67.5075 43.6091 67.3082C43.6351 67.109 43.6121 66.9058 43.54 66.6986C43.4746 66.4918 43.3529 66.2909 43.1749 66.096C42.8286 65.7167 42.447 65.5159 42.0301 65.4935C41.6164 65.4748 41.1836 65.6165 40.7316 65.9187L42.994 68.3964ZM39.9151 66.6155C39.6545 66.8925 39.457 67.1638 39.3226 67.4295C39.1918 67.692 39.1173 67.9485 39.0991 68.1991C39.0844 68.4465 39.1227 68.6877 39.214 68.9229C39.312 69.1584 39.4581 69.3825 39.6523 69.5952C39.8465 69.8079 40.038 69.9677 40.2268 70.0749C40.4189 70.1855 40.5968 70.27 40.7606 70.3284C40.9277 70.3904 41.0749 70.4412 41.2022 70.481C41.3327 70.5243 41.4352 70.5867 41.5096 70.6683C41.61 70.7781 41.6437 70.8969 41.6107 71.0245L41.4768 71.8389C41.174 71.849 40.8816 71.817 40.5995 71.743C40.321 71.6658 40.0557 71.5603 39.8036 71.4266C39.5582 71.2931 39.3275 71.1365 39.1114 70.9568C38.8986 70.7807 38.7048 70.5969 38.53 70.4055C38.1837 70.0262 37.9237 69.6169 37.75 69.1775C37.5798 68.7349 37.507 68.2814 37.5314 67.817C37.5595 67.3494 37.6912 66.8814 37.9265 66.4131C38.1654 65.9415 38.5241 65.4872 39.0026 65.0502C39.3748 64.7104 39.7789 64.4519 40.2151 64.2746C40.6548 64.0941 41.0971 64.0055 41.542 64.0087C41.9938 64.0122 42.4378 64.1106 42.8741 64.3036C43.3136 64.5003 43.7195 64.8024 44.0917 65.2101C44.4057 65.5539 44.6404 65.9213 44.7959 66.3123C44.9515 66.7033 45.0183 67.1005 44.9966 67.5038C44.9785 67.9039 44.8686 68.3032 44.667 68.7018C44.4722 69.1006 44.1781 69.4797 43.7846 69.8389C43.5861 70.0202 43.432 70.1219 43.3223 70.1441C43.2161 70.1631 43.108 70.1123 42.9979 69.9918L39.9151 66.6155Z" fill="white"/>
<path d="M51.813 75.8281C52.0809 76.0756 52.3445 76.2571 52.6038 76.3726C52.8667 76.4913 53.1153 76.5511 53.3497 76.5521C53.5909 76.5527 53.8181 76.5013 54.0315 76.3978C54.2448 76.2943 54.441 76.1456 54.6202 75.9517C54.9785 75.5639 55.1251 75.1471 55.06 74.7013C54.9983 74.2587 54.7049 73.7948 54.1796 73.3094L53.2701 72.4689L50.9246 75.0071L51.813 75.8281ZM51.7683 83.2177L50.4833 82.0303C50.2401 81.8056 50.1518 81.5475 50.2184 81.2561L50.8733 77.3223C50.8981 77.1753 50.8913 77.0482 50.8532 76.941C50.8185 76.8371 50.7306 76.72 50.5896 76.5897L49.9815 76.0277L47.2207 79.0154L45.7982 77.7009L52.864 70.0546L55.196 72.2095C55.7142 72.6884 56.1079 73.1535 56.3771 73.6048C56.653 74.0559 56.8195 74.4875 56.8766 74.8996C56.9371 75.3151 56.8984 75.7106 56.7603 76.0863C56.6256 76.4585 56.4083 76.8067 56.1086 77.131C55.8708 77.3884 55.6073 77.5958 55.318 77.7533C55.0322 77.914 54.7307 78.021 54.4135 78.0743C54.0998 78.1308 53.7721 78.1319 53.4303 78.0774C53.092 78.0262 52.7514 77.9174 52.4086 77.7509C52.4513 77.8885 52.4773 78.0301 52.4865 78.1758C52.4989 78.318 52.4912 78.4677 52.4634 78.6251L51.7683 83.2177Z" fill="white"/>
<path d="M60.3271 84.3586C60.4733 84.1805 60.5844 83.9922 60.6603 83.7938C60.7431 83.5946 60.7831 83.3946 60.7803 83.1936C60.7776 82.9927 60.7257 82.7949 60.6247 82.6002C60.5305 82.4048 60.3813 82.2234 60.1773 82.0559C59.7803 81.73 59.3739 81.5858 58.9581 81.6233C58.546 81.6639 58.1379 81.866 57.7337 82.2298L60.3271 84.3586ZM57.0252 83.0362C56.8069 83.3475 56.6502 83.6443 56.5552 83.9265C56.4632 84.205 56.4262 84.4695 56.444 84.7202C56.4649 84.9671 56.5373 85.2004 56.6612 85.4201C56.7919 85.6392 56.9686 85.84 57.1912 86.0228C57.4138 86.2055 57.6262 86.3364 57.8283 86.4154C58.0342 86.4975 58.2224 86.5557 58.3929 86.5901C58.5671 86.6275 58.7201 86.6568 58.8517 86.6779C58.9871 86.7021 59.0975 86.7492 59.1828 86.8193C59.2978 86.9137 59.3482 87.0264 59.3338 87.1574L59.3177 87.9826C59.0195 88.0359 58.7254 88.046 58.4357 88.0131C58.1491 87.9765 57.8714 87.9101 57.6027 87.8137C57.3408 87.7167 57.09 87.5947 56.8505 87.4478C56.6147 87.3039 56.3966 87.1497 56.1962 86.9852C55.7992 86.6594 55.4834 86.2914 55.2486 85.8814C55.0169 85.4676 54.88 85.0292 54.8379 84.5661C54.7988 84.0993 54.8622 83.6173 55.0281 83.1201C55.1971 82.6192 55.4872 82.1183 55.8983 81.6174C56.2181 81.2279 56.5811 80.9142 56.9875 80.6764C57.3968 80.4349 57.8219 80.284 58.2628 80.2235C58.7104 80.1624 59.1639 80.1963 59.6233 80.325C60.0865 80.4568 60.5314 80.6978 60.958 81.048C61.3179 81.3434 61.6028 81.6735 61.8126 82.0382C62.0224 82.403 62.1454 82.7865 62.1816 83.1888C62.2208 83.5874 62.1691 83.9983 62.0266 84.4216C61.8908 84.8442 61.6539 85.2614 61.3159 85.6732C61.1453 85.881 61.0074 86.0037 60.9019 86.0414C60.7995 86.0753 60.6853 86.0405 60.5591 85.937L57.0252 83.0362Z" fill="white"/>
<path d="M66.0459 86.5519C66.2537 86.5191 66.4604 86.5003 66.6658 86.4954C66.8779 86.4894 67.0831 86.5051 67.2814 86.5426C67.4864 86.579 67.6885 86.6399 67.8875 86.7253C68.0893 86.8069 68.2912 86.921 68.493 87.0679C68.8191 87.3051 69.0673 87.5717 69.2377 87.8678C69.4109 88.1601 69.5076 88.4678 69.5276 88.7911C69.5544 89.1133 69.5089 89.4452 69.3909 89.7868C69.2797 90.1273 69.1027 90.4645 68.8598 90.7983L66.094 94.6002L64.6558 93.554L67.4217 89.7521C67.6872 89.3872 67.8084 89.0451 67.7856 88.7257C67.7655 88.4024 67.5847 88.1166 67.2431 87.8681C66.9947 87.6874 66.7208 87.5742 66.4216 87.5286C66.1223 87.4831 65.8051 87.4867 65.4698 87.5396L62.3269 91.8598L60.8888 90.8136L65.2346 84.8399L66.1138 85.4795C66.3001 85.615 66.3588 85.7913 66.29 86.0083L66.0459 86.5519Z" fill="white"/>
<path d="M75.2255 94.0406C75.1893 93.7256 75.0978 93.4606 74.951 93.2456C74.8083 93.0331 74.6221 92.8526 74.3924 92.704C74.1668 92.5579 73.9359 92.4686 73.6998 92.4358C73.4637 92.4031 73.2251 92.4317 72.984 92.5215C72.7455 92.6073 72.506 92.761 72.2653 92.9827C72.0273 93.2003 71.7923 93.4884 71.5602 93.847C71.3255 94.2097 71.1542 94.5363 71.0463 94.8266C70.9451 95.1156 70.8967 95.3759 70.9012 95.6075C70.9083 95.8351 70.967 96.036 71.0772 96.2102C71.19 96.3804 71.3432 96.5281 71.5366 96.6533C71.8469 96.8541 72.1526 96.9604 72.4536 96.9723C72.7547 96.9841 73.0789 96.9338 73.4261 96.8212L75.2255 94.0406ZM79.5428 90.6425L73.73 99.625L72.8173 99.0343C72.6198 98.9065 72.5536 98.735 72.6185 98.5198L72.8789 97.8392C72.4439 97.9637 72.0058 98.0089 71.5646 97.975C71.1275 97.9437 70.6933 97.7885 70.2621 97.5095C69.9236 97.2904 69.659 97.0191 69.4682 96.6955C69.2774 96.3719 69.1652 96.0106 69.1318 95.6117C69.1051 95.2113 69.163 94.7771 69.3058 94.3092C69.4525 93.8439 69.6902 93.3573 70.0188 92.8496C70.3161 92.3902 70.655 92.0034 71.0354 91.6893C71.4159 91.3753 71.8169 91.1488 72.2384 91.0099C72.6599 90.871 73.086 90.8266 73.5167 90.8766C73.9501 90.9226 74.3702 91.0773 74.7773 91.3407C75.1238 91.565 75.3848 91.811 75.5602 92.0789C75.7356 92.3468 75.8601 92.636 75.9335 92.9465L78.0498 89.6764L79.5428 90.6425Z" fill="white"/>
<path d="M81.1689 96.1839L77.4066 102.541L75.8699 101.632L79.6322 95.2745L81.1689 96.1839ZM82.476 94.4559C82.3978 94.5881 82.2976 94.6961 82.1754 94.78C82.0533 94.8639 81.9211 94.9223 81.7789 94.9553C81.6408 94.9907 81.496 94.9998 81.3444 94.9826C81.1953 94.9613 81.0525 94.9103 80.9162 94.8296C80.784 94.7514 80.6727 94.652 80.5823 94.5315C80.4984 94.4094 80.4387 94.2793 80.4033 94.1412C80.3679 94.0031 80.3576 93.8603 80.3723 93.7129C80.3912 93.5679 80.4398 93.4293 80.518 93.2971C80.5987 93.1608 80.6992 93.0474 80.8197 92.957C80.9443 92.8689 81.0756 92.8072 81.2137 92.7718C81.3518 92.7364 81.4933 92.7281 81.6383 92.747C81.7899 92.7642 81.9318 92.8119 82.064 92.8902C82.2003 92.9708 82.3125 93.0735 82.4005 93.1981C82.4909 93.3185 82.5539 93.4478 82.5893 93.5859C82.6288 93.7264 82.64 93.8725 82.6228 94.024C82.6056 94.1756 82.5567 94.3196 82.476 94.4559Z" fill="white"/>
<path d="M87.2631 101.351C87.1847 101.385 87.1132 101.407 87.0485 101.415C86.988 101.426 86.9155 101.409 86.831 101.364C86.7507 101.32 86.6851 101.255 86.6341 101.167C86.5854 101.076 86.5241 100.972 86.4504 100.856C86.3789 100.735 86.2818 100.612 86.159 100.486C86.0426 100.358 85.8767 100.236 85.6612 100.12C85.3866 99.9715 85.1184 99.8924 84.8567 99.8822C84.5973 99.8678 84.3478 99.9159 84.1081 100.027C83.8727 100.14 83.6495 100.311 83.4384 100.541C83.2295 100.766 83.0352 101.046 82.8552 101.38C82.6685 101.726 82.5381 102.054 82.4642 102.363C82.3944 102.675 82.3792 102.961 82.4184 103.222C82.4599 103.479 82.5538 103.709 82.7 103.914C82.8484 104.114 83.0473 104.281 83.2966 104.415C83.5459 104.55 83.7625 104.628 83.9465 104.651C84.137 104.672 84.3044 104.675 84.4488 104.66C84.5954 104.641 84.7227 104.622 84.8306 104.604C84.9451 104.584 85.0509 104.6 85.1481 104.652C85.2748 104.721 85.3437 104.821 85.3547 104.952L85.4972 105.765C85.2146 105.874 84.9344 105.944 84.6564 105.974C84.3807 106 84.1102 105.996 83.845 105.962C83.5862 105.926 83.3315 105.863 83.0809 105.771C82.8345 105.682 82.5973 105.576 82.3691 105.453C81.9677 105.237 81.6294 104.959 81.3542 104.62C81.0813 104.276 80.8892 103.889 80.7779 103.458C80.6666 103.027 80.6443 102.563 80.7112 102.064C80.7846 101.564 80.9648 101.048 81.2518 100.515C81.5091 100.038 81.8148 99.6329 82.1686 99.3002C82.529 98.9655 82.922 98.722 83.3476 98.5697C83.7755 98.4133 84.2315 98.3564 84.7155 98.3992C85.1996 98.442 85.6972 98.6012 86.2085 98.8768C86.6944 99.1388 87.0769 99.4458 87.3559 99.798C87.6393 100.153 87.8481 100.554 87.9825 101.003L87.2631 101.351Z" fill="white"/>
<path d="M92.5367 101.817C93.0309 102.052 93.4416 102.346 93.7686 102.698C94.0999 103.052 94.3386 103.444 94.4847 103.875C94.6351 104.308 94.6874 104.773 94.6417 105.273C94.5959 105.772 94.4484 106.283 94.1992 106.808C93.9479 107.337 93.6432 107.777 93.2853 108.128C92.9274 108.478 92.5321 108.734 92.0995 108.895C91.6712 109.059 91.2152 109.124 90.7315 109.09C90.252 109.059 89.7652 108.926 89.2709 108.691C88.7723 108.455 88.3574 108.159 88.026 107.805C87.6947 107.451 87.4549 107.055 87.3065 106.618C87.1625 106.183 87.1112 105.715 87.1526 105.214C87.1984 104.715 87.3469 104.201 87.5982 103.672C87.8474 103.147 88.151 102.71 88.509 102.359C88.8712 102.01 89.2655 101.757 89.6917 101.598C90.1222 101.441 90.5794 101.379 91.0631 101.412C91.5469 101.445 92.0381 101.58 92.5367 101.817ZM89.858 107.456C90.4129 107.719 90.9112 107.728 91.3528 107.48C91.7988 107.235 92.1927 106.753 92.5346 106.033C92.8765 105.313 93.0027 104.701 92.9131 104.196C92.8278 103.693 92.5077 103.31 91.9527 103.046C91.3891 102.779 90.8801 102.771 90.4257 103.022C89.9777 103.272 89.5838 103.754 89.2439 104.47C88.904 105.185 88.7789 105.795 88.8685 106.3C88.9645 106.803 89.2943 107.188 89.858 107.456Z" fill="white"/>
<path d="M98.7846 105.721C98.9787 105.639 99.1749 105.572 99.3732 105.518C99.5778 105.462 99.7809 105.429 99.9824 105.418C100.19 105.404 100.401 105.416 100.615 105.451C100.83 105.482 101.053 105.545 101.284 105.64C101.657 105.793 101.962 105.993 102.198 106.24C102.435 106.483 102.603 106.759 102.699 107.068C102.801 107.374 102.836 107.708 102.803 108.067C102.776 108.425 102.684 108.794 102.527 109.176L100.745 113.527L99.0991 112.852L100.882 108.502C101.053 108.084 101.089 107.723 100.991 107.418C100.895 107.109 100.651 106.875 100.26 106.714C99.9761 106.598 99.6832 106.553 99.3817 106.58C99.0802 106.607 98.7729 106.686 98.4598 106.817L96.4342 111.76L94.7886 111.086L97.5896 104.251L98.5956 104.663C98.8088 104.75 98.9077 104.907 98.8924 105.135L98.7846 105.721Z" fill="white"/>
<path d="M105.893 115.266C105.286 115.051 104.881 114.715 104.676 114.261C104.477 113.803 104.484 113.273 104.698 112.671L106.079 108.784L105.367 108.531C105.277 108.499 105.21 108.442 105.168 108.361C105.125 108.279 105.125 108.18 105.167 108.062L105.403 107.397L106.587 107.612L107.615 105.838C107.67 105.755 107.738 105.701 107.819 105.673C107.9 105.646 107.99 105.65 108.09 105.685L108.958 105.994L108.179 108.185L110.038 108.846L109.614 110.04L107.755 109.379L106.415 113.152C106.338 113.369 106.329 113.557 106.39 113.716C106.455 113.877 106.58 113.99 106.766 114.056C106.87 114.093 106.96 114.112 107.036 114.113C107.118 114.112 107.188 114.107 107.248 114.097C107.312 114.089 107.368 114.081 107.417 114.073C107.467 114.06 107.513 114.061 107.553 114.076C107.603 114.093 107.639 114.121 107.661 114.16C107.685 114.194 107.706 114.242 107.724 114.305L107.937 115.297C107.62 115.414 107.285 115.468 106.932 115.459C106.578 115.451 106.232 115.386 105.893 115.266Z" fill="white"/>
<path d="M115.493 114.628C114.995 114.5 114.569 114.417 114.214 114.379C113.861 114.336 113.568 114.331 113.337 114.366C113.105 114.4 112.926 114.468 112.8 114.57C112.673 114.672 112.587 114.799 112.54 114.95C112.449 115.248 112.471 115.488 112.606 115.67C112.745 115.854 112.957 115.989 113.242 116.076C113.59 116.183 113.91 116.213 114.2 116.167C114.497 116.117 114.806 116.001 115.128 115.819L115.493 114.628ZM112.536 110.37C113.576 109.876 114.668 109.803 115.81 110.154C116.223 110.28 116.572 110.463 116.855 110.7C117.14 110.933 117.358 111.206 117.508 111.518C117.66 111.825 117.742 112.164 117.754 112.534C117.771 112.906 117.718 113.291 117.595 113.691L116.228 118.151L115.457 117.915C115.296 117.866 115.179 117.805 115.106 117.732C115.035 117.655 114.996 117.535 114.99 117.373L114.995 116.817C114.767 116.923 114.549 117.012 114.341 117.084C114.135 117.151 113.927 117.198 113.718 117.224C113.509 117.25 113.293 117.252 113.069 117.228C112.849 117.211 112.612 117.163 112.36 117.086C112.062 116.995 111.798 116.871 111.57 116.716C111.343 116.556 111.162 116.367 111.028 116.15C110.893 115.934 110.812 115.69 110.784 115.421C110.757 115.151 110.791 114.858 110.888 114.541C110.943 114.362 111.027 114.195 111.14 114.039C111.255 113.878 111.403 113.738 111.585 113.618C111.772 113.5 111.996 113.402 112.255 113.326C112.514 113.25 112.816 113.207 113.16 113.197C113.509 113.189 113.903 113.216 114.34 113.28C114.779 113.339 115.269 113.444 115.81 113.595L115.936 113.182C116.081 112.709 116.087 112.33 115.954 112.043C115.823 111.752 115.566 111.547 115.185 111.431C114.91 111.346 114.671 111.308 114.468 111.316C114.269 111.325 114.088 111.35 113.925 111.391C113.763 111.427 113.615 111.459 113.481 111.488C113.351 111.519 113.217 111.513 113.08 111.47C112.96 111.434 112.869 111.373 112.804 111.288C112.741 111.199 112.697 111.105 112.672 111.007L112.536 110.37Z" fill="white"/>
</svg>
