<svg width="111" height="111" viewBox="0 0 111 111" fill="none" xmlns="http://www.w3.org/2000/svg">
<path d="M9.48861 103.877C9.52263 103.777 9.59063 103.704 9.69262 103.658L10.7223 103.202C11.0816 103.77 11.2932 104.392 11.3573 105.068C11.423 105.74 11.3166 106.484 11.0383 107.302C10.7893 108.034 10.4402 108.65 9.99078 109.151C9.54293 109.648 9.02599 110.027 8.43996 110.289C7.85392 110.551 7.21402 110.688 6.52025 110.701C5.82803 110.709 5.11612 110.588 4.38451 110.339C3.64382 110.087 3.00849 109.734 2.47853 109.28C1.94403 108.824 1.52988 108.298 1.23609 107.701C0.942304 107.104 0.777864 106.455 0.742773 105.753C0.704685 105.046 0.813207 104.317 1.06834 103.567C1.31729 102.836 1.65269 102.238 2.07453 101.773C2.49338 101.302 2.96242 100.937 3.48165 100.677L4.12493 101.581C4.16709 101.635 4.19857 101.699 4.21936 101.772C4.2417 101.841 4.23587 101.925 4.20185 102.025C4.16628 102.13 4.08905 102.222 3.97014 102.304C3.85124 102.385 3.71547 102.493 3.56283 102.629C3.41019 102.765 3.24891 102.948 3.07898 103.179C2.91059 103.406 2.75914 103.717 2.62461 104.112C2.46689 104.576 2.40334 105.031 2.43395 105.477C2.46156 105.918 2.57739 106.33 2.78143 106.713C2.98702 107.093 3.2786 107.435 3.65617 107.741C4.03075 108.041 4.48614 108.282 5.02235 108.465C5.57673 108.653 6.09605 108.744 6.58032 108.736C7.06613 108.724 7.50234 108.634 7.88893 108.467C8.27553 108.299 8.6102 108.06 8.89295 107.751C9.17115 107.44 9.38138 107.076 9.52364 106.658C9.60868 106.408 9.67159 106.178 9.71236 105.969C9.75468 105.755 9.7749 105.554 9.77304 105.366C9.77273 105.173 9.75264 104.986 9.71279 104.805C9.66993 104.618 9.60586 104.427 9.52056 104.23C9.49512 104.171 9.47955 104.112 9.47384 104.055C9.46358 103.995 9.46851 103.936 9.48861 103.877Z" fill="white"/>
<path d="M7.04132 96.3789C7.25101 95.8682 7.52279 95.4402 7.85665 95.0947C8.19234 94.7448 8.57132 94.4853 8.9936 94.3163C9.41588 94.1472 9.87741 94.0721 10.3782 94.0909C10.879 94.1098 11.398 94.2295 11.9352 94.4501C12.477 94.6726 12.9326 94.9531 13.302 95.2916C13.6715 95.6302 13.9493 96.0089 14.1353 96.4277C14.3214 96.8466 14.4108 97.2985 14.4037 97.7833C14.3984 98.2637 14.2909 98.7592 14.0812 99.2698C13.8715 99.7805 13.5989 100.211 13.2632 100.561C12.9275 100.911 12.5454 101.171 12.1168 101.343C11.6901 101.51 11.2255 101.587 10.7229 101.572C10.2221 101.553 9.70083 101.433 9.15913 101.21C8.62186 100.99 8.16848 100.71 7.79899 100.372C7.43132 100.029 7.15669 99.6486 6.9751 99.2315C6.79533 98.8101 6.70901 98.3569 6.71612 97.872C6.72323 97.3872 6.83163 96.8895 7.04132 96.3789ZM12.8158 98.7502C13.0492 98.1818 13.0306 97.6838 12.7599 97.2562C12.4911 96.8241 11.9882 96.4567 11.2511 96.154C10.514 95.8513 9.89584 95.7583 9.39649 95.8749C8.89897 95.9872 8.53351 96.3274 8.30012 96.8958C8.06307 97.473 8.0834 97.9795 8.36108 98.4153C8.63433 98.8492 9.13727 99.2166 9.8699 99.5174C10.6025 99.8183 11.2185 99.9104 11.7179 99.7937C12.2128 99.6753 12.5787 99.3274 12.8158 98.7502Z" fill="white"/>
<path d="M16.0163 94.3145L9.38051 91.0684L9.85825 90.0918C9.9595 89.8848 10.123 89.7964 10.3486 89.8267L10.8908 89.9637C10.8184 89.784 10.7589 89.6052 10.7122 89.4275C10.6677 89.2454 10.6415 89.0642 10.6335 88.884C10.6276 88.6994 10.6431 88.5146 10.6802 88.3297C10.715 88.1383 10.7809 87.9435 10.878 87.7452C11.0826 87.3269 11.3645 87.04 11.7238 86.8845C12.0809 86.7225 12.4797 86.6665 12.9202 86.7163C12.7509 86.5053 12.6266 86.2842 12.5474 86.053C12.4638 85.8197 12.4177 85.5862 12.4092 85.3522C12.4008 85.1183 12.4234 84.8863 12.4773 84.6561C12.5332 84.4216 12.6128 84.1987 12.7162 83.9875C12.8955 83.621 13.1108 83.3229 13.3621 83.0931C13.6134 82.8634 13.8943 82.7042 14.2048 82.6157C14.5153 82.5271 14.8501 82.5092 15.209 82.5619C15.5701 82.6103 15.9511 82.7325 16.3521 82.9287L20.5754 84.9947L19.794 86.5922L15.5706 84.5262C15.1481 84.3195 14.7858 84.2572 14.4838 84.3392C14.1775 84.4192 13.9369 84.6381 13.7618 84.9959C13.6816 85.1598 13.6348 85.3266 13.6212 85.4963C13.6098 85.6617 13.6316 85.8246 13.6867 85.9851C13.7395 86.1392 13.831 86.2855 13.961 86.4239C14.091 86.5623 14.2594 86.6822 14.4664 86.7834L18.6898 88.8494L17.9051 90.4534L13.6818 88.3874C13.2377 88.1701 12.87 88.1025 12.5787 88.1844C12.2896 88.2621 12.0596 88.4755 11.8888 88.8248C11.777 89.0533 11.7297 89.2973 11.747 89.5569C11.7621 89.8101 11.8266 90.0715 11.9406 90.341L16.7977 92.717L16.0163 94.3145Z" fill="white"/>
<path d="M16.0188 78.138L20.0839 80.4857C20.4747 80.7114 20.8297 80.7973 21.1491 80.7434C21.4667 80.6829 21.7299 80.4718 21.9388 80.1102C22.0924 79.8442 22.1782 79.5612 22.1963 79.2612C22.2102 78.9588 22.1732 78.6437 22.0854 78.3158L17.4591 75.644L18.3486 74.104L24.7455 77.7985L24.2018 78.74C24.0866 78.9395 23.9174 79.0164 23.6944 78.9707L23.1219 78.7814C23.1781 78.9913 23.2215 79.1992 23.2521 79.4054C23.2786 79.6091 23.2845 79.8148 23.2698 80.0226C23.2534 80.2237 23.212 80.4298 23.1455 80.6409C23.0856 80.8502 22.9945 81.0608 22.872 81.2728C22.6704 81.622 22.4333 81.898 22.1609 82.101C21.8867 82.2974 21.5888 82.4246 21.267 82.4827C20.9452 82.5407 20.6092 82.5324 20.2588 82.4575C19.9068 82.3761 19.552 82.2322 19.1945 82.0257L15.1294 79.678L16.0188 78.138Z" fill="white"/>
<path d="M25.8331 76.0337L19.6415 72.0044L20.2345 71.0932C20.3602 70.9 20.5331 70.8322 20.7535 70.8897L21.309 71.1052C21.2614 70.8967 21.2299 70.69 21.2143 70.4852C21.2013 70.2763 21.2064 70.0705 21.2294 69.8679C21.2551 69.6613 21.3054 69.4564 21.3803 69.2532C21.4553 69.0499 21.5609 68.8438 21.697 68.6346C21.9169 68.2966 22.1703 68.0348 22.4572 67.8493C22.74 67.6611 23.0423 67.5485 23.3641 67.5117C23.6844 67.4682 24.0183 67.4964 24.3655 67.5964C24.7114 67.6898 25.0573 67.849 25.4033 68.0742L29.344 70.6386L28.3739 72.1292L24.4333 69.5648C24.0551 69.3187 23.7058 69.2174 23.3855 69.2609C23.0637 69.2977 22.7889 69.4911 22.5611 69.8412C22.3936 70.0986 22.2948 70.378 22.2649 70.6792C22.2349 70.9804 22.2551 71.2971 22.3253 71.6291L26.8031 74.5431L25.8331 76.0337Z" fill="white"/>
<path d="M25.5452 63.2505L31.5641 67.5336L30.533 68.9825L24.5142 64.6995L25.5452 63.2505ZM23.9457 61.7853C24.0708 61.8744 24.1701 61.9833 24.2434 62.1121C24.3167 62.2408 24.3638 62.3774 24.3847 62.5219C24.4084 62.6625 24.4053 62.8076 24.3755 62.9572C24.3417 63.104 24.2789 63.2419 24.187 63.371C24.098 63.4961 23.9896 63.5987 23.862 63.6787C23.7332 63.7521 23.5986 63.8006 23.458 63.8243C23.3174 63.8479 23.1743 63.8462 23.0286 63.8192C22.8857 63.7882 22.7517 63.7281 22.6265 63.6391C22.4975 63.5473 22.3929 63.4375 22.3129 63.3099C22.2357 63.1783 22.1852 63.0423 22.1615 62.9017C22.1378 62.7611 22.1415 62.6194 22.1725 62.4765C22.2024 62.3269 22.2618 62.1895 22.3509 62.0644C22.4427 61.9353 22.5544 61.8322 22.686 61.7549C22.8136 61.6749 22.9477 61.6231 23.0883 61.5994C23.2316 61.5718 23.3781 61.5729 23.5277 61.6028C23.6773 61.6326 23.8166 61.6935 23.9457 61.7853Z" fill="white"/>
<path d="M31.6764 57.7247C31.6971 57.8076 31.7065 57.8817 31.7045 57.947C31.7054 58.0084 31.6764 58.0771 31.6176 58.153C31.5617 58.225 31.4864 58.279 31.3917 58.3149C31.2932 58.3478 31.1807 58.3911 31.054 58.4448C30.9236 58.4954 30.786 58.571 30.6413 58.6713C30.4958 58.765 30.3479 58.9085 30.1979 59.1019C30.0066 59.3484 29.8844 59.5999 29.8313 59.8563C29.7743 60.1098 29.7808 60.3639 29.8505 60.6185C29.9232 60.8693 30.0555 61.1178 30.2474 61.3638C30.4354 61.6069 30.6793 61.8447 30.9789 62.0771C31.2898 62.3184 31.5917 62.501 31.8844 62.6248C32.1801 62.7448 32.4599 62.807 32.7239 62.8113C32.9841 62.8127 33.2269 62.7581 33.4524 62.6475C33.6742 62.534 33.8718 62.3654 34.0454 62.1416C34.219 61.9179 34.3322 61.7171 34.3851 61.5394C34.437 61.3549 34.4676 61.1903 34.4767 61.0455C34.4819 60.8977 34.4845 60.7691 34.4844 60.6596C34.4834 60.5434 34.5168 60.4417 34.5844 60.3545C34.6727 60.2407 34.7825 60.1892 34.9139 60.2L35.7392 60.1933C35.8006 60.49 35.8233 60.778 35.8072 61.0571C35.7873 61.3333 35.7388 61.5994 35.6617 61.8555C35.5837 62.1048 35.4789 62.3455 35.3474 62.5776C35.2159 62.8098 35.0708 63.0282 34.9119 63.233C34.6324 63.5933 34.3026 63.8812 33.9228 64.0968C33.5391 64.3095 33.1256 64.4352 32.6824 64.4741C32.242 64.5091 31.7816 64.4526 31.3011 64.3046C30.8197 64.1499 30.3401 63.8871 29.8623 63.5164C29.4337 63.1839 29.0845 62.8157 28.8145 62.4119C28.5438 62.0014 28.3683 61.5736 28.2882 61.1288C28.2043 60.6809 28.2233 60.2218 28.3453 59.7514C28.4672 59.281 28.7062 58.8164 29.0622 58.3575C29.4006 57.9214 29.7664 57.5947 30.1598 57.3774C30.5561 57.1563 30.9866 57.0164 31.4513 56.9578L31.6764 57.7247Z" fill="white"/>
<path d="M41.696 54.8586L41.176 55.4654C41.0667 55.593 40.9626 55.6776 40.8636 55.7193C40.7611 55.7579 40.6359 55.7454 40.488 55.6819L39.9858 55.4602C39.9916 55.7116 39.9843 55.9488 39.9641 56.1716C39.9433 56.3877 39.9032 56.5967 39.8439 56.7988C39.7846 57.0008 39.7011 57.1978 39.5933 57.39C39.4856 57.5821 39.3458 57.7784 39.1741 57.9789C38.9711 58.2158 38.7527 58.408 38.519 58.5553C38.2816 58.6996 38.0366 58.79 37.7841 58.8265C37.5347 58.8593 37.2809 58.8346 37.0227 58.7524C36.7644 58.6702 36.5096 58.5213 36.2581 58.3058C36.0466 58.1247 35.8857 57.892 35.7753 57.6077C35.6644 57.3167 35.6377 56.9716 35.6955 56.5722C35.7495 56.1698 35.9062 55.7066 36.1654 55.1828C36.4245 54.659 36.8201 54.0719 37.3521 53.4216L37.0241 53.1405C36.6486 52.8188 36.3029 52.6616 35.9869 52.669C35.6703 52.6696 35.3824 52.8211 35.1232 53.1236C34.9358 53.3423 34.8052 53.5465 34.7313 53.736C34.6574 53.9255 34.6064 54.103 34.5783 54.2686C34.5497 54.4274 34.5219 54.5742 34.4948 54.7091C34.4678 54.8439 34.4074 54.966 34.3137 55.0754C34.2356 55.1665 34.1448 55.2246 34.0412 55.2496C33.9376 55.2746 33.834 55.2775 33.7304 55.2582L33.0876 55.1342C33.0499 53.9831 33.4215 52.9519 34.2023 52.0406C34.4834 51.7126 34.7879 51.4678 35.1159 51.3064C35.4433 51.1382 35.7802 51.0475 36.1264 51.0344C36.4689 51.0182 36.8123 51.0786 37.1565 51.2154C37.5038 51.3487 37.836 51.5511 38.1531 51.8228L41.696 54.8586ZM38.6053 56.7615C38.724 56.623 38.8206 56.4845 38.895 56.346C38.9694 56.2075 39.0248 56.0653 39.0613 55.9195C39.1008 55.7701 39.1247 55.6168 39.133 55.4596C39.1408 55.2956 39.1358 55.1206 39.1181 54.9348L38.1722 54.1243C37.8531 54.5336 37.6051 54.8931 37.4282 55.2029C37.2507 55.506 37.1315 55.7705 37.0706 55.9964C37.0098 56.2224 37.0007 56.4137 37.0434 56.5704C37.0892 56.7235 37.1723 56.8515 37.2926 56.9546C37.5295 57.1576 37.7583 57.2336 37.9791 57.1825C38.2029 57.1278 38.4117 56.9875 38.6053 56.7615Z" fill="white"/>
<path d="M43.5445 42.0966C43.8753 41.7689 44.2312 41.5211 44.6121 41.3532C44.9965 41.1819 45.3906 41.0989 45.7945 41.1042C46.195 41.1061 46.5984 41.1997 47.0049 41.3849C47.4079 41.5667 47.7969 41.8468 48.1719 42.2254C48.2664 42.3208 48.3407 42.406 48.3947 42.481C48.4487 42.5491 48.4823 42.6138 48.4956 42.6749C48.5089 42.7293 48.5052 42.7836 48.4846 42.8378C48.4606 42.8886 48.4196 42.9427 48.3617 43.0001L45.1186 46.2126C45.6899 46.7143 46.2267 46.9663 46.729 46.9687C47.2313 46.971 47.6905 46.7662 48.1065 46.354C48.3111 46.1514 48.4631 45.9535 48.5625 45.7605C48.6652 45.5641 48.7424 45.3829 48.7941 45.2169C48.8492 45.0474 48.8941 44.8983 48.9286 44.7695C48.9666 44.6373 49.0248 44.5323 49.1032 44.4546C49.1544 44.404 49.2088 44.3703 49.2666 44.3536C49.3244 44.3369 49.3855 44.3338 49.4499 44.3443L50.2743 44.4398C50.2966 44.742 50.2765 45.0355 50.2141 45.3203C50.1483 45.6017 50.0537 45.8711 49.9302 46.1285C49.8069 46.379 49.6598 46.6159 49.489 46.8391C49.3217 47.059 49.1459 47.2601 48.9618 47.4425C48.5969 47.804 48.1985 48.0804 47.7665 48.2718C47.3312 48.4598 46.881 48.551 46.4161 48.5455C45.9477 48.5365 45.4748 48.4239 44.9972 48.2078C44.5163 47.9883 44.0478 47.6484 43.5918 47.188C43.2371 46.83 42.9623 46.4366 42.7675 46.0081C42.5692 45.5761 42.4627 45.1377 42.4478 44.693C42.433 44.2415 42.5132 43.7939 42.6884 43.3501C42.867 42.9029 43.1524 42.485 43.5445 42.0966ZM44.467 42.9766C44.0987 43.3414 43.9136 43.7309 43.9116 44.145C43.9097 44.5591 44.0689 44.9858 44.3892 45.4251L46.7627 43.074C46.6005 42.9103 46.4263 42.7788 46.2401 42.6795C46.0506 42.5768 45.8557 42.5165 45.6555 42.4986C45.4553 42.4807 45.2549 42.5103 45.0543 42.5874C44.8503 42.6611 44.6545 42.7908 44.467 42.9766Z" fill="white"/>
<path d="M60.1184 34.1661C60.1997 34.0987 60.2959 34.0719 60.4071 34.0857L61.5232 34.2358C61.532 34.9082 61.387 35.5492 61.0881 36.1587C60.7928 36.7652 60.3127 37.3443 59.6476 37.8958C59.0528 38.3891 58.4328 38.7318 57.7876 38.9239C57.1462 39.1128 56.5072 39.1657 55.8707 39.0825C55.2342 38.9992 54.6171 38.7814 54.0193 38.4291C53.4252 38.0736 52.8815 37.5985 52.3882 37.0036C51.8888 36.4014 51.532 35.7681 51.3178 35.1039C51.1006 34.4359 51.023 33.7708 51.0848 33.1084C51.1466 32.446 51.346 31.8067 51.683 31.1905C52.0207 30.5675 52.4943 30.0032 53.104 29.4976C53.6988 29.0043 54.2976 28.6699 54.9003 28.4943C55.5036 28.312 56.0944 28.2461 56.6726 28.2967L56.7483 29.4031C56.7555 29.4719 56.7489 29.5429 56.7285 29.616C56.7117 29.686 56.6627 29.7547 56.5814 29.8221C56.4964 29.8926 56.382 29.9314 56.2382 29.9384C56.0944 29.9454 55.9219 29.9668 55.7209 30.0026C55.5198 30.0384 55.2864 30.1104 55.0207 30.2185C54.7586 30.3236 54.4668 30.5094 54.1454 30.776C53.7685 31.0885 53.4764 31.4431 53.2689 31.8396C53.0621 32.2293 52.9453 32.6411 52.9184 33.075C52.8953 33.5057 52.9646 33.9502 53.1264 34.4085C53.2888 34.86 53.5507 35.3037 53.9123 35.7397C54.2861 36.1905 54.6814 36.5393 55.0981 36.7861C55.5185 37.0298 55.9373 37.1814 56.3545 37.2408C56.7716 37.3002 57.1816 37.272 57.5844 37.1562C57.9842 37.0366 58.354 36.8359 58.6939 36.554C58.8972 36.3855 59.0709 36.2228 59.215 36.0658C59.3629 35.9057 59.4853 35.745 59.5822 35.5836C59.6827 35.4191 59.7633 35.2494 59.824 35.0744C59.8853 34.8926 59.9309 34.6957 59.9609 34.4838C59.9703 34.4199 59.9876 34.3619 60.013 34.3097C60.0352 34.2538 60.0704 34.2059 60.1184 34.1661Z" fill="white"/>
<path d="M61.8953 26.5604C62.3413 26.2351 62.7969 26.0126 63.2622 25.8931C63.7314 25.7707 64.1902 25.748 64.6385 25.825C65.0868 25.902 65.5193 26.0796 65.9361 26.3578C66.3529 26.636 66.7325 27.0098 67.0747 27.479C67.4198 27.9521 67.6612 28.4296 67.7988 28.9115C67.9364 29.3934 67.9748 29.8614 67.914 30.3157C67.8532 30.77 67.6929 31.2018 67.4331 31.6112C67.1771 32.0177 66.8261 32.3837 66.3801 32.7089C65.9341 33.0342 65.4766 33.2581 65.0074 33.3805C64.5382 33.5029 64.0761 33.5251 63.6211 33.447C63.17 33.3661 62.7341 33.188 62.3134 32.9126C61.8965 32.6344 61.5156 32.2587 61.1705 31.7856C60.8282 31.3164 60.5883 30.8408 60.4507 30.3589C60.317 29.8742 60.2819 29.4067 60.3455 28.9563C60.413 28.5031 60.5767 28.0718 60.8366 27.6624C61.0964 27.253 61.4493 26.8857 61.8953 26.5604ZM65.574 31.6037C66.0703 31.2416 66.3152 30.8076 66.3085 30.3015C66.3056 29.7926 66.0695 29.2163 65.5999 28.5726C65.1303 27.9288 64.6523 27.526 64.1658 27.3639C63.6831 27.1991 63.1936 27.2977 62.6972 27.6598C62.1931 28.0275 61.9453 28.4697 61.9537 28.9863C61.9594 29.4991 62.1956 30.0754 62.6623 30.7153C63.129 31.3551 63.6057 31.7561 64.0922 31.9181C64.5759 32.0762 65.0698 31.9714 65.574 31.6037Z" fill="white"/>
<path d="M68.0063 22.456L72.1168 28.594L70.6392 29.5836L66.5287 23.4456L68.0063 22.456ZM67.0298 20.5191C67.1152 20.6467 67.1694 20.7837 67.1924 20.9301C67.2153 21.0765 67.211 21.2209 67.1793 21.3635C67.1516 21.5033 67.0973 21.6379 67.0164 21.7672C66.9328 21.8925 66.8252 21.9992 66.6936 22.0874C66.5659 22.1728 66.4283 22.2304 66.2806 22.26C66.1342 22.2829 65.9911 22.2805 65.8512 22.2529C65.7114 22.2252 65.5781 22.1729 65.4515 22.0959C65.3288 22.0163 65.2248 21.9127 65.1393 21.7851C65.0512 21.6535 64.9923 21.5138 64.9627 21.3661C64.9371 21.2157 64.9381 21.0706 64.9658 20.9308C64.9935 20.7909 65.0471 20.6597 65.1267 20.537C65.2077 20.4077 65.3119 20.3003 65.4396 20.2149C65.5712 20.1267 65.7122 20.0698 65.8626 20.0442C66.0103 20.0146 66.154 20.0137 66.2939 20.0413C66.4377 20.0663 66.5743 20.1193 66.7036 20.2002C66.8329 20.2812 66.9416 20.3875 67.0298 20.5191Z" fill="white"/>
<path d="M74.4893 27.0239L70.6505 20.7124L71.5794 20.1474C71.7763 20.0277 71.9616 20.0414 72.1353 20.1886L72.543 20.6232C72.5903 20.4147 72.6512 20.2147 72.7258 20.0232C72.8045 19.8293 72.8981 19.646 73.0065 19.4733C73.1191 19.2981 73.2531 19.1351 73.4086 18.9844C73.5641 18.8336 73.7485 18.6934 73.9617 18.5637C74.3062 18.3541 74.6479 18.2278 74.9868 18.1846C75.3232 18.1373 75.6445 18.1666 75.9505 18.2726C76.2582 18.372 76.5469 18.5419 76.8167 18.7823C77.0881 19.0161 77.3311 19.3094 77.5456 19.6621L79.9887 23.6791L78.4693 24.6032L76.0262 20.5862C75.7917 20.2007 75.5206 19.9583 75.213 19.8589C74.9069 19.7529 74.5755 19.8084 74.2187 20.0254C73.9563 20.185 73.7464 20.3941 73.589 20.6527C73.4317 20.9114 73.3129 21.2055 73.2325 21.5353L76.0087 26.0998L74.4893 27.0239Z" fill="white"/>
<path d="M85.7499 20.5367L84.3283 21.2985L78.2499 16.1747L79.5509 15.4776C79.6651 15.4163 79.7751 15.3928 79.8807 15.407C79.9905 15.4189 80.0829 15.4593 80.1579 15.528L83.2781 18.3325C83.4588 18.497 83.6246 18.6641 83.7754 18.8338C83.9305 19.0012 84.0792 19.172 84.2215 19.3462C84.1553 19.1312 84.0934 18.9139 84.0356 18.6944C83.9821 18.4725 83.939 18.2397 83.9063 17.9958L83.331 13.8277C83.3153 13.7272 83.3308 13.629 83.3775 13.5332C83.4242 13.4374 83.5004 13.3612 83.6062 13.3045L84.8437 12.6414L85.7499 20.5367Z" fill="white"/>
<path d="M89.2534 10.4422C89.7534 10.2084 90.2432 10.0774 90.7228 10.0492C91.2068 10.0189 91.6614 10.0845 92.0866 10.246C92.5118 10.4075 92.9024 10.6647 93.2582 11.0176C93.614 11.3705 93.9148 11.81 94.1609 12.3361C94.4089 12.8666 94.5543 13.3815 94.5971 13.8808C94.6398 14.3801 94.5878 14.8469 94.4411 15.2811C94.2945 15.7153 94.0544 16.1084 93.7209 16.4604C93.3917 16.8104 92.9771 17.1023 92.4771 17.3361C91.9771 17.5699 91.4851 17.702 91.0012 17.7322C90.5172 17.7625 90.0594 17.6957 89.6278 17.5319C89.2005 17.3661 88.8068 17.1077 88.4467 16.7569C88.0909 16.4039 87.789 15.9622 87.5409 15.4318C87.2949 14.9057 87.1505 14.3929 87.1078 13.8936C87.0694 13.3923 87.1246 12.9267 87.2733 12.4968C87.4263 12.0649 87.6696 11.673 88.0031 11.321C88.3366 10.969 88.7534 10.676 89.2534 10.4422ZM91.8976 16.0969C92.4542 15.8366 92.7777 15.4575 92.868 14.9596C92.9628 14.4596 92.8414 13.8487 92.5038 13.1269C92.1663 12.4051 91.7743 11.9181 91.3278 11.6659C90.8857 11.4116 90.3864 11.4146 89.8298 11.6749C89.2646 11.9392 88.9366 12.3257 88.846 12.8344C88.7533 13.3388 88.8747 13.9497 89.2102 14.6671C89.5456 15.3845 89.9366 15.8694 90.3831 16.1216C90.8276 16.3695 91.3324 16.3612 91.8976 16.0969Z" fill="white"/>
<path d="M94.7851 4.5228L98.926 14.3882L97.2862 15.0765L93.1453 5.21109L94.7851 4.5228Z" fill="white"/>
<path d="M101.149 5.44666C101.446 5.33585 101.736 5.26323 102.021 5.22881C102.303 5.18989 102.574 5.1886 102.834 5.22493L104.824 4.48201L105.055 5.10257C105.094 5.206 105.097 5.29701 105.065 5.37562C105.033 5.45422 104.956 5.52911 104.834 5.60028L104.256 5.94664C104.345 6.04677 104.425 6.15784 104.496 6.27985C104.571 6.40019 104.636 6.5323 104.69 6.6762C104.817 7.01796 104.864 7.35426 104.828 7.68511C104.796 8.00979 104.694 8.31413 104.524 8.59816C104.357 8.8805 104.128 9.13776 103.836 9.36992C103.546 9.59591 103.208 9.78109 102.821 9.92548C102.56 10.0229 102.297 10.093 102.031 10.1359C101.864 10.3469 101.811 10.5333 101.871 10.6952C101.923 10.8346 102.025 10.9145 102.176 10.9349C102.33 10.9492 102.515 10.9312 102.732 10.881C102.954 10.829 103.199 10.758 103.467 10.668C103.734 10.5734 104.011 10.4853 104.299 10.4037C104.586 10.3221 104.873 10.261 105.16 10.2204C105.445 10.1753 105.714 10.1749 105.966 10.2191C106.223 10.2616 106.454 10.365 106.659 10.5293C106.866 10.6875 107.031 10.9307 107.154 11.259C107.268 11.5648 107.303 11.8901 107.257 12.235C107.216 12.5782 107.094 12.9159 106.89 13.2482C106.691 13.5788 106.409 13.8888 106.046 14.1782C105.684 14.472 105.238 14.718 104.707 14.9161C104.181 15.1126 103.706 15.2313 103.28 15.2722C102.857 15.3177 102.485 15.3028 102.165 15.2276C101.851 15.1553 101.59 15.0324 101.381 14.8591C101.173 14.6858 101.025 14.4799 100.936 14.2416C100.815 13.9178 100.812 13.6088 100.928 13.3146C101.043 13.0204 101.252 12.7426 101.554 12.4812C101.348 12.4506 101.164 12.3759 101.002 12.2571C100.84 12.1384 100.711 11.9531 100.617 11.7012C100.579 11.5978 100.557 11.4854 100.553 11.3641C100.547 11.2382 100.56 11.1079 100.592 10.9731C100.628 10.8366 100.684 10.7002 100.761 10.5638C100.837 10.4229 100.937 10.2857 101.061 10.1522C100.64 10.0942 100.269 9.94568 99.9495 9.70645C99.6342 9.46555 99.3975 9.13374 99.2397 8.71104C99.1121 8.36929 99.0646 8.03607 99.0971 7.7114C99.1324 7.38055 99.2353 7.07311 99.406 6.78909C99.5794 6.49889 99.8132 6.23996 100.107 6.01229C100.406 5.78295 100.753 5.5944 101.149 5.44666ZM105.722 12.1165C105.672 11.9816 105.59 11.8865 105.477 11.8313C105.364 11.7761 105.23 11.752 105.074 11.7591C104.916 11.7616 104.738 11.787 104.541 11.835C104.348 11.8813 104.144 11.9395 103.93 12.0094C103.718 12.0731 103.498 12.1425 103.27 12.2174C103.044 12.2862 102.823 12.3457 102.606 12.396C102.456 12.5699 102.349 12.7506 102.286 12.9382C102.226 13.1196 102.23 13.3024 102.299 13.4868C102.344 13.6082 102.415 13.7097 102.512 13.7913C102.615 13.8758 102.747 13.9318 102.905 13.9596C103.069 13.9857 103.264 13.9795 103.49 13.9411C103.718 13.9071 103.985 13.8331 104.291 13.7189C104.601 13.6031 104.86 13.4784 105.066 13.345C105.274 13.2161 105.434 13.0821 105.546 12.9429C105.664 12.8066 105.735 12.6673 105.759 12.5252C105.785 12.3876 105.772 12.2514 105.722 12.1165ZM102.423 8.85974C102.63 8.78251 102.8 8.68837 102.933 8.57732C103.064 8.46178 103.16 8.33608 103.222 8.20021C103.289 8.06267 103.321 7.91496 103.318 7.75709C103.32 7.59754 103.29 7.43458 103.228 7.2682C103.1 6.92644 102.896 6.69524 102.615 6.57462C102.337 6.44781 101.994 6.4608 101.585 6.61358C101.175 6.76636 100.905 6.98254 100.774 7.26213C100.645 7.53554 100.645 7.84313 100.773 8.18488C100.833 8.34677 100.914 8.48818 101.015 8.60911C101.121 8.72836 101.243 8.82124 101.381 8.88773C101.521 8.94804 101.679 8.97889 101.853 8.98026C102.031 8.97546 102.221 8.93529 102.423 8.85974Z" fill="white"/>
<path d="M108.102 3.1613L110.406 10.1801L108.716 10.7347L106.412 3.71594L108.102 3.1613ZM107.683 1.03279C107.731 1.17873 107.747 1.32528 107.729 1.47243C107.712 1.61959 107.669 1.75752 107.6 1.88623C107.536 2.01344 107.447 2.1284 107.334 2.2311C107.22 2.32924 107.087 2.40301 106.937 2.45241C106.791 2.50031 106.643 2.51861 106.493 2.50729C106.346 2.48992 106.208 2.44907 106.081 2.38473C105.954 2.3204 105.84 2.23411 105.739 2.12587C105.642 2.01614 105.57 1.88831 105.522 1.74237C105.472 1.59187 105.453 1.44151 105.465 1.29128C105.481 1.13957 105.521 1.0001 105.585 0.872894C105.649 0.745684 105.736 0.633757 105.846 0.537114C105.959 0.434414 106.088 0.359111 106.234 0.311207C106.385 0.261806 106.536 0.245043 106.687 0.260918C106.838 0.272232 106.976 0.310057 107.104 0.374393C107.235 0.437231 107.353 0.525049 107.455 0.637845C107.558 0.750641 107.634 0.882289 107.683 1.03279Z" fill="white"/>
</svg>
