<svg width="108" height="108" viewBox="0 0 108 108" fill="none" xmlns="http://www.w3.org/2000/svg">
<path d="M8.62629 103.818C8.72564 103.782 8.82527 103.79 8.92518 103.84L9.92387 104.361C9.70384 104.996 9.34975 105.55 8.86159 106.022C8.37794 106.492 7.7297 106.873 6.91686 107.166C6.18982 107.428 5.49029 107.54 4.81826 107.501C4.15075 107.461 3.53179 107.294 2.9614 107C2.391 106.705 1.88452 106.291 1.44196 105.756C1.00391 105.22 0.6539 104.589 0.39193 103.862C0.126706 103.126 0.0061882 102.409 0.030376 101.711C0.0529366 101.009 0.20576 100.357 0.488846 99.7552C0.771932 99.1532 1.17662 98.6197 1.7029 98.1545C2.23206 97.6832 2.8692 97.3133 3.6143 97.0449C4.34134 96.7829 5.01811 96.6717 5.64462 96.7113C6.27401 96.7447 6.85204 96.8833 7.3787 97.1272L7.07416 98.1936C7.05756 98.2608 7.02723 98.3253 6.98317 98.3871C6.94363 98.4473 6.87418 98.4953 6.77483 98.5311C6.67097 98.5685 6.55021 98.5661 6.41254 98.5239C6.27487 98.4816 6.10541 98.4432 5.90416 98.4086C5.7029 98.3739 5.45893 98.3624 5.17224 98.3738C4.89007 98.3837 4.55255 98.4594 4.15968 98.6009C3.69907 98.7669 3.30387 99.0011 2.97409 99.3036C2.6472 99.6 2.39747 99.9476 2.22488 100.347C2.05681 100.744 1.97103 101.185 1.96756 101.671C1.96698 102.151 2.06269 102.658 2.25469 103.19C2.4532 103.741 2.70651 104.204 3.01463 104.577C3.32726 104.949 3.66967 105.234 4.04186 105.432C4.41406 105.629 4.80926 105.742 5.22748 105.77C5.64406 105.793 6.06008 105.73 6.47553 105.58C6.7239 105.491 6.94255 105.397 7.13148 105.298C7.32492 105.198 7.49461 105.088 7.64054 104.969C7.79099 104.849 7.92445 104.716 8.04093 104.572C8.1603 104.422 8.27008 104.253 8.37029 104.063C8.4008 104.006 8.43683 103.958 8.47837 103.917C8.51828 103.872 8.56759 103.839 8.62629 103.818Z" fill="white"/>
<path d="M12.5733 96.7025C13.0801 96.4837 13.5737 96.3674 14.0539 96.3535C14.5385 96.3378 14.9909 96.4169 15.4112 96.591C15.8314 96.7652 16.214 97.0339 16.5591 97.3973C16.9042 97.7607 17.1918 98.209 17.422 98.7422C17.6541 99.2799 17.784 99.7989 17.8118 100.299C17.8396 100.8 17.7737 101.265 17.6141 101.694C17.4545 102.124 17.2028 102.51 16.8589 102.852C16.5195 103.191 16.0963 103.471 15.5896 103.69C15.0828 103.908 14.587 104.026 14.1024 104.041C13.6178 104.057 13.1622 103.977 12.7357 103.8C12.3135 103.622 11.9277 103.352 11.5783 102.99C11.2332 102.627 10.9446 102.176 10.7125 101.639C10.4823 101.105 10.3533 100.589 10.3255 100.088C10.3022 99.586 10.3712 99.1222 10.5327 98.697C10.6986 98.2699 10.9535 97.8854 11.2974 97.5435C11.6412 97.2016 12.0666 96.9213 12.5733 96.7025ZM15.0474 102.434C15.6115 102.19 15.9461 101.821 16.0513 101.326C16.161 100.829 16.0579 100.215 15.7421 99.4831C15.4263 98.7516 15.049 98.2531 14.6103 97.9876C14.176 97.7203 13.6768 97.7083 13.1127 97.9519C12.5398 98.1992 12.2004 98.5757 12.0946 99.0814C11.9869 99.5828 12.09 100.197 12.4038 100.924C12.7177 101.651 13.0941 102.148 13.5328 102.413C13.9696 102.674 14.4745 102.681 15.0474 102.434Z" fill="white"/>
<path d="M21.1319 101.134L17.7678 94.5576L18.7358 94.0625C18.9409 93.9576 19.1247 93.9849 19.2871 94.1444L19.6389 94.5791C19.6887 94.3919 19.7482 94.2131 19.8175 94.0429C19.8911 93.8705 19.9787 93.7098 20.0804 93.5607C20.1863 93.4095 20.3095 93.271 20.4501 93.1451C20.5927 93.0129 20.7623 92.8965 20.9589 92.7959C21.3734 92.5839 21.771 92.5234 22.1518 92.6143C22.5347 92.6988 22.8875 92.8931 23.2101 93.1971C23.2012 92.9267 23.2343 92.6752 23.3095 92.4427C23.3825 92.2059 23.4857 91.9913 23.6192 91.7991C23.7526 91.6068 23.9099 91.4347 24.091 91.2828C24.2763 91.1286 24.4737 90.998 24.6831 90.8909C25.0463 90.7051 25.3974 90.5956 25.7363 90.5625C26.0751 90.5293 26.3954 90.5704 26.697 90.6857C26.9986 90.801 27.2772 90.9873 27.5329 91.2447C27.7928 91.5 28.0244 91.8263 28.2277 92.2237L30.3688 96.4095L28.7855 97.2193L26.6444 93.0336C26.4302 92.6148 26.1777 92.3477 25.8868 92.2323C25.5938 92.1126 25.2699 92.1435 24.9152 92.3249C24.7528 92.408 24.6153 92.5134 24.5027 92.6411C24.3944 92.7666 24.3141 92.9101 24.262 93.0715C24.2119 93.2266 24.1973 93.3984 24.2184 93.5872C24.2394 93.7759 24.3024 93.9728 24.4073 94.1779L26.5484 98.3637L24.9587 99.1768L22.8176 94.9911C22.5925 94.5509 22.3388 94.2763 22.0566 94.1673C21.7787 94.056 21.4666 94.089 21.1205 94.266C20.894 94.3819 20.7098 94.5489 20.568 94.767C20.4283 94.9786 20.3232 95.2265 20.2528 95.5105L22.7152 100.324L21.1319 101.134Z" fill="white"/>
<path d="M34.0864 97.0074L29.035 88.6106L29.9666 88.0502C30.0653 87.9908 30.1632 87.9627 30.2603 87.9659C30.3575 87.9691 30.4448 88.0118 30.5223 88.094L30.9983 88.6059C31.0776 88.1604 31.2273 87.7482 31.4475 87.3693C31.6718 86.9879 32.006 86.6636 32.4502 86.3964C32.7957 86.1885 33.1537 86.0712 33.5241 86.0444C33.8986 86.0152 34.2716 86.0765 34.643 86.2283C35.0161 86.3736 35.3794 86.6143 35.733 86.9506C36.0881 87.2803 36.4216 87.7043 36.7334 88.2225C37.0179 88.6955 37.2177 89.1719 37.3327 89.6517C37.4477 90.1315 37.475 90.5912 37.4146 91.0308C37.3583 91.468 37.2122 91.8724 36.9764 92.2439C36.7422 92.6089 36.4174 92.9163 36.002 93.1662C35.6442 93.3815 35.3077 93.5111 34.9924 93.5551C34.6788 93.5926 34.3652 93.574 34.0515 93.4994L35.6103 96.0907L34.0864 97.0074ZM32.6496 87.9149C32.3329 88.1054 32.1023 88.3366 31.9577 88.6084C31.8148 88.8737 31.7196 89.1858 31.6723 89.5447L33.3797 92.3828C33.6811 92.4927 33.9585 92.5302 34.212 92.4954C34.4672 92.4539 34.712 92.3627 34.9464 92.2216C35.1767 92.0831 35.3585 91.9149 35.4916 91.7172C35.6288 91.517 35.708 91.2901 35.7291 91.0365C35.7543 90.7805 35.7215 90.4978 35.6306 90.1883C35.5372 89.8748 35.3804 89.535 35.1601 89.169C34.9375 88.7988 34.7185 88.5048 34.5034 88.2869C34.29 88.0624 34.0795 87.9034 33.8719 87.8098C33.6644 87.7162 33.4581 87.6806 33.2532 87.7031C33.0523 87.7231 32.8511 87.7937 32.6496 87.9149Z" fill="white"/>
<path d="M39.354 81.962C39.7397 81.7011 40.1352 81.5233 40.5406 81.4287C40.95 81.3315 41.3527 81.3227 41.7486 81.4026C42.1419 81.4785 42.5211 81.645 42.8863 81.9021C43.2488 82.1553 43.5793 82.5025 43.8778 82.9438C43.9531 83.0552 44.0103 83.1526 44.0495 83.2362C44.09 83.3132 44.1111 83.3829 44.1128 83.4455C44.1159 83.5014 44.1023 83.5541 44.072 83.6035C44.039 83.649 43.9887 83.6946 43.9211 83.7403L40.1402 86.2981C40.6089 86.8966 41.0898 87.2435 41.5831 87.3387C42.0763 87.4339 42.5654 87.3174 43.0505 86.9893C43.289 86.8279 43.4749 86.6616 43.6082 86.4903C43.7455 86.3163 43.8549 86.1524 43.9364 85.9988C44.0219 85.8424 44.0935 85.7042 44.1513 85.584C44.213 85.4611 44.2896 85.3687 44.381 85.3068C44.4407 85.2665 44.5004 85.2435 44.5603 85.2377C44.6202 85.232 44.6808 85.2402 44.7422 85.2625L45.5346 85.5087C45.5007 85.8098 45.4268 86.0946 45.3128 86.3629C45.1961 86.6273 45.0533 86.8746 44.8844 87.1047C44.7169 87.3282 44.5286 87.5338 44.3195 87.7216C44.1144 87.9067 43.9045 88.0719 43.6898 88.2171C43.2644 88.5049 42.8217 88.7029 42.3618 88.8112C41.8993 88.9155 41.44 88.9219 40.9841 88.8305C40.5255 88.7351 40.0815 88.537 39.6521 88.2364C39.22 87.9318 38.8224 87.5111 38.4594 86.9744C38.177 86.557 37.9796 86.1196 37.8674 85.6624C37.7524 85.2012 37.7287 84.7507 37.7963 84.311C37.8652 83.8645 38.0267 83.4394 38.2809 83.0356C38.5391 82.6291 38.8968 82.2713 39.354 81.962ZM40.0979 82.9974C39.6685 83.2878 39.4146 83.6363 39.3362 84.0429C39.2577 84.4495 39.3353 84.8983 39.5689 85.3893L42.336 83.5174C42.2069 83.3266 42.0601 83.1651 41.8954 83.0331C41.7281 82.8971 41.5477 82.8018 41.3543 82.7472C41.1609 82.6926 40.9585 82.6847 40.7471 82.7234C40.533 82.7581 40.3166 82.8494 40.0979 82.9974Z" fill="white"/>
<path d="M48.2533 84.8831L43.7746 79.0085L44.6392 78.3494C44.8224 78.2097 45.0081 78.2039 45.1963 78.332L45.6472 78.7216C45.6725 78.5092 45.7121 78.304 45.7662 78.1058C45.8242 77.9047 45.898 77.7125 45.9878 77.5294C46.0813 77.3434 46.1976 77.1673 46.3364 77.0011C46.4753 76.8348 46.6439 76.6761 46.8424 76.5247C47.1631 76.2803 47.4896 76.1188 47.8222 76.0404C48.1518 75.9581 48.4743 75.9536 48.7898 76.027C49.1061 76.0936 49.4111 76.2323 49.7046 76.4431C49.999 76.6472 50.2713 76.9134 50.5216 77.2417L53.3721 80.9806L51.9579 82.0588L49.1074 78.3199C48.8338 77.9611 48.5388 77.7484 48.2225 77.6817C47.907 77.6084 47.5832 77.6983 47.2511 77.9515C47.0068 78.1377 46.82 78.3677 46.6906 78.6414C46.5613 78.915 46.4739 79.22 46.4286 79.5564L49.6676 83.8049L48.2533 84.8831Z" fill="white"/>
<path d="M54.993 71.0523C55.0061 71.1419 55.0034 71.2166 54.9849 71.2764C54.9633 71.3325 54.9214 71.387 54.8592 71.4398C54.7933 71.4957 54.7064 71.538 54.5985 71.5666C54.4943 71.5922 54.3741 71.6249 54.238 71.6649C54.0989 71.7012 53.9497 71.7554 53.7906 71.8276C53.6351 71.8966 53.4714 72.0041 53.2994 72.1501C53.0323 72.3769 52.87 72.6122 52.8126 72.8561C52.7553 73.1001 52.8042 73.3135 52.9596 73.4964C53.0621 73.6172 53.1875 73.687 53.3358 73.7059C53.4846 73.7181 53.6495 73.7009 53.8304 73.6544C54.0149 73.6048 54.2112 73.5357 54.4194 73.4471C54.6244 73.3549 54.8378 73.265 55.0595 73.1776C55.2812 73.0901 55.507 73.0149 55.7369 72.952C55.9637 72.8853 56.1908 72.8562 56.4183 72.8646C56.6463 72.8662 56.8671 72.9149 57.0806 73.0106C57.2978 73.1033 57.5027 73.263 57.6953 73.4899C57.9252 73.7607 58.0886 74.0533 58.1855 74.3677C58.2793 74.6784 58.3025 74.9987 58.2551 75.3286C58.2047 75.6548 58.0789 75.9851 57.8779 76.3194C57.6775 76.647 57.3962 76.9645 57.0339 77.2721C56.84 77.4367 56.6342 77.58 56.4165 77.7018C56.2056 77.8242 55.9877 77.9273 55.7629 78.0111C55.5418 78.0918 55.3223 78.1522 55.1045 78.1923C54.8904 78.2293 54.6865 78.245 54.4928 78.2394L54.3676 77.4579C54.3551 77.3615 54.3623 77.2735 54.3892 77.194C54.4161 77.1145 54.4717 77.039 54.5558 76.9675C54.64 76.8961 54.7388 76.8531 54.8524 76.8385C54.9696 76.8208 55.101 76.7975 55.2463 76.7685C55.3917 76.7395 55.5505 76.6929 55.7226 76.6286C55.8984 76.5613 56.0887 76.4406 56.2936 76.2666C56.4546 76.1299 56.5763 75.9951 56.6587 75.8623C56.7416 75.7226 56.7933 75.5906 56.8136 75.4663C56.8377 75.3388 56.832 75.2209 56.7966 75.1124C56.7617 74.9972 56.707 74.8957 56.6324 74.8078C56.5206 74.6761 56.3887 74.6023 56.2368 74.5865C56.0885 74.5676 55.9221 74.5829 55.7375 74.6326C55.5566 74.6791 55.3618 74.75 55.1531 74.8454C54.945 74.9339 54.7282 75.0235 54.5029 75.1141C54.2812 75.2015 54.0536 75.2783 53.82 75.3443C53.587 75.4036 53.3534 75.4288 53.1192 75.4199C52.8886 75.4079 52.6585 75.3482 52.4289 75.2409C52.2029 75.1305 51.9843 74.9509 51.7731 74.7021C51.5773 74.4716 51.4367 74.2132 51.3511 73.927C51.2655 73.6407 51.2453 73.3462 51.2905 73.0434C51.3362 72.7338 51.4519 72.4215 51.6377 72.1063C51.8241 71.7844 52.0911 71.4759 52.4387 71.1808C52.8265 70.8515 53.234 70.6157 53.6611 70.4735C54.0882 70.3313 54.4963 70.2744 54.8857 70.3028L54.993 71.0523Z" fill="white"/>
<path d="M65.352 70.4726L64.7665 71.0166C64.6434 71.1309 64.5304 71.2032 64.4274 71.2334C64.3211 71.26 64.1981 71.2334 64.0584 71.1536L63.5846 70.8763C63.5618 71.1268 63.5277 71.3616 63.4823 71.5807C63.4371 71.793 63.3736 71.9962 63.2918 72.1902C63.2099 72.3841 63.1046 72.5705 62.9757 72.7491C62.8469 72.9278 62.6858 73.107 62.4924 73.2867C62.2638 73.4991 62.025 73.6652 61.7761 73.7851C61.5239 73.9015 61.2703 73.9635 61.0153 73.9711C60.7638 73.9754 60.5144 73.9221 60.2671 73.8111C60.0199 73.7002 59.7835 73.5234 59.5581 73.2807C59.3686 73.0768 59.2351 72.8273 59.1577 72.5324C59.0805 72.2307 59.0932 71.8847 59.1958 71.4945C59.2952 71.1008 59.5034 70.6584 59.8203 70.1674C60.1372 69.6763 60.5969 69.1379 61.1992 68.5521L60.9051 68.2356C60.5686 67.8734 60.243 67.6781 59.9281 67.6495C59.6136 67.6142 59.3104 67.7321 59.0185 68.0033C58.8075 68.1993 58.6545 68.3873 58.5596 68.5672C58.4647 68.7471 58.3939 68.9177 58.3472 69.079C58.3008 69.2335 58.2565 69.3763 58.2143 69.5072C58.1721 69.6381 58.0983 69.7525 57.9928 69.8506C57.9049 69.9322 57.808 69.9796 57.7023 69.9927C57.5965 70.0058 57.4932 69.9969 57.3925 69.966L56.768 69.7699C56.8611 68.6219 57.3472 67.6395 58.2264 66.8228C58.5429 66.5287 58.8732 66.3201 59.2173 66.1969C59.5618 66.0669 59.9067 66.0151 60.2522 66.0413C60.5944 66.0641 60.9287 66.163 61.2551 66.338C61.585 66.5098 61.8921 66.7486 62.1763 67.0546L65.352 70.4726ZM62.0654 72.0126C62.199 71.8885 62.3107 71.7618 62.4003 71.6326C62.49 71.5035 62.5612 71.3685 62.6139 71.2278C62.6701 71.0839 62.7113 70.9342 62.7374 70.779C62.7637 70.6169 62.7786 70.4425 62.7821 70.2559L61.9343 69.3433C61.5708 69.7138 61.2836 70.0428 61.0727 70.3306C60.8619 70.6115 60.7135 70.8608 60.6274 71.0784C60.5413 71.296 60.5106 71.4851 60.5352 71.6456C60.5634 71.8029 60.6314 71.9395 60.7392 72.0556C60.9516 72.2841 61.1703 72.3856 61.3954 72.3599C61.6241 72.331 61.8474 72.2152 62.0654 72.0126Z" fill="white"/>
<path d="M67.6353 57.3031C67.9495 56.9594 68.2926 56.6944 68.6648 56.5078C69.0402 56.3178 69.4297 56.2154 69.8334 56.2007C70.2335 56.1828 70.6411 56.2563 71.0562 56.4212C71.4677 56.5828 71.8701 56.8434 72.2633 57.2029C72.3625 57.2936 72.4409 57.375 72.4985 57.4472C72.5557 57.5126 72.5925 57.5755 72.6088 57.6359C72.6248 57.6896 72.6238 57.744 72.6059 57.7991C72.5845 57.8511 72.5462 57.9071 72.4912 57.9674L69.4109 61.3363C70.0063 61.8091 70.5548 62.0342 71.0567 62.0117C71.5585 61.9893 72.007 61.762 72.4021 61.3298C72.5965 61.1172 72.7385 60.9121 72.8282 60.7144C72.9211 60.5132 72.9892 60.3284 73.0327 60.16C73.0793 59.988 73.1167 59.8369 73.1449 59.7065C73.1763 59.5726 73.2292 59.4649 73.3037 59.3834C73.3523 59.3303 73.405 59.2939 73.4619 59.2744C73.5188 59.2549 73.5797 59.2488 73.6445 59.256L74.4726 59.3107C74.5098 59.6114 74.5043 59.9056 74.456 60.1931C74.4042 60.4774 74.323 60.7512 74.2125 61.0143C74.1016 61.2707 73.9665 61.5146 73.8069 61.7459C73.6507 61.9738 73.4851 62.1833 73.3102 62.3746C72.9636 62.7537 72.5793 63.0495 72.1574 63.262C71.7319 63.4713 71.2868 63.5847 70.8221 63.6021C70.3539 63.6163 69.8759 63.5272 69.3883 63.335C68.8971 63.1396 68.4124 62.8232 67.9341 62.3859C67.5622 62.0459 67.2683 61.6666 67.0525 61.2482C66.8332 60.8265 66.7051 60.394 66.6683 59.9505C66.6311 59.5003 66.6891 59.0493 66.8421 58.5973C66.9984 58.1419 67.2628 57.7105 67.6353 57.3031ZM68.6001 58.1364C68.2503 58.519 68.0846 58.9172 68.1032 59.3308C68.1217 59.7445 68.3018 60.1628 68.6435 60.5858L70.8978 58.1202C70.7277 57.9648 70.5473 57.842 70.3564 57.752C70.1619 57.6588 69.9643 57.6082 69.7635 57.6002C69.5627 57.5922 69.364 57.6317 69.1675 57.7186C68.9674 57.8023 68.7782 57.9416 68.6001 58.1364Z" fill="white"/>
<path d="M77.047 44.2514C77.0985 44.3576 77.1193 44.4525 77.1096 44.5359C77.1029 44.6155 77.0702 44.6933 77.0116 44.7694C76.9531 44.8454 76.8587 44.909 76.7284 44.9602C76.5943 45.0084 76.4414 45.0694 76.2696 45.143C76.0977 45.2167 75.9159 45.319 75.7242 45.4501C75.5316 45.5743 75.3445 45.7544 75.1629 45.9902C74.9989 46.2032 74.882 46.41 74.8123 46.6107C74.7417 46.8047 74.7095 46.992 74.7159 47.1726C74.7251 47.3494 74.7739 47.5142 74.8622 47.667C74.9467 47.8169 75.0651 47.9504 75.2172 48.0675C75.4112 48.2169 75.6138 48.2881 75.8251 48.2812C76.0393 48.2704 76.2609 48.2108 76.4898 48.1024C76.7187 47.9939 76.9572 47.8534 77.2051 47.6809C77.4531 47.5083 77.7097 47.3364 77.9749 47.165C78.2393 46.9869 78.5145 46.8262 78.8005 46.6829C79.0827 46.5367 79.3762 46.4387 79.6812 46.3888C79.9824 46.336 80.2938 46.3486 80.6154 46.4266C80.9399 46.5008 81.2733 46.6697 81.6156 46.9332C81.9883 47.2202 82.2884 47.5543 82.5159 47.9354C82.7425 48.3099 82.8824 48.7144 82.9354 49.149C82.9876 49.5769 82.9479 50.0219 82.8162 50.4839C82.6808 50.9431 82.4374 51.4008 82.086 51.8572C81.8839 52.1196 81.6581 52.3577 81.4087 52.5715C81.163 52.7883 80.9019 52.9779 80.6252 53.1405C80.3515 53.2993 80.069 53.4301 79.7778 53.533C79.4895 53.6321 79.2021 53.6985 78.9155 53.7323L78.5222 52.7207C78.5012 52.6379 78.4956 52.5547 78.5052 52.4713C78.5141 52.3812 78.5463 52.3 78.602 52.2277C78.6752 52.1327 78.7942 52.0607 78.959 52.0119C79.1199 51.9602 79.3051 51.8968 79.5144 51.8217C79.7266 51.7428 79.9502 51.6333 80.1853 51.4932C80.4195 51.3464 80.6464 51.1304 80.8661 50.8451C81.2028 50.4078 81.3608 49.9902 81.3399 49.5925C81.3152 49.1918 81.1089 48.8422 80.721 48.5434C80.5042 48.3765 80.2849 48.2955 80.0631 48.3004C79.8442 48.3014 79.6203 48.3562 79.3913 48.4647C79.1586 48.5702 78.9221 48.7122 78.6817 48.8906C78.4414 49.069 78.1924 49.2468 77.9347 49.424C77.6771 49.6012 77.4072 49.763 77.125 49.9091C76.8428 50.0553 76.5473 50.1519 76.2386 50.1989C75.9298 50.2458 75.6055 50.2264 75.2658 50.1405C74.9252 50.0478 74.5666 49.8565 74.1901 49.5666C73.8897 49.3353 73.6422 49.0508 73.4477 48.7133C73.2562 48.372 73.138 48.0023 73.0931 47.6042C73.0512 47.2024 73.0925 46.7829 73.2171 46.3457C73.3417 45.9085 73.5695 45.4751 73.9004 45.0453C74.2752 44.5585 74.6969 44.1683 75.1653 43.8747C75.6337 43.5811 76.1161 43.3952 76.6124 43.317L77.047 44.2514Z" fill="white"/>
<path d="M81.1449 40.1812C81.4572 39.7261 81.8128 39.3647 82.2118 39.0971C82.6136 38.8256 83.0386 38.6515 83.487 38.575C83.9354 38.4984 84.4024 38.522 84.888 38.6456C85.3736 38.7693 85.8559 38.9954 86.3348 39.3241C86.8176 39.6554 87.2041 40.0254 87.4942 40.434C87.7843 40.8426 87.9763 41.2712 88.0701 41.7198C88.164 42.1684 88.1565 42.629 88.0476 43.1015C87.9415 43.5701 87.7323 44.032 87.42 44.4871C87.1077 44.9423 86.7506 45.3056 86.3489 45.5772C85.9472 45.8487 85.5188 46.0234 85.0638 46.1012C84.6114 46.175 84.1411 46.1521 83.6527 46.0323C83.1671 45.9087 82.6829 45.6812 82.2 45.3499C81.7211 45.0212 81.3366 44.6526 81.0465 44.244C80.7591 43.8314 80.5705 43.4022 80.4806 42.9563C80.3934 42.5064 80.4043 42.0452 80.5131 41.5727C80.622 41.1002 80.8325 40.6364 81.1449 40.1812ZM86.292 43.7131C86.6396 43.2065 86.7261 42.7157 86.5514 42.2407C86.3794 41.7618 85.9649 41.2969 85.3079 40.8461C84.6509 40.3953 84.066 40.1744 83.5533 40.1835C83.0433 40.1887 82.6145 40.4445 82.2669 40.9511C81.9139 41.4657 81.8273 41.9651 82.0072 42.4495C82.1831 42.9311 82.5976 43.396 83.2507 43.8441C83.9037 44.2922 84.4866 44.5117 84.9993 44.5026C85.5081 44.4908 85.939 44.2276 86.292 43.7131Z" fill="white"/>
<path d="M88.4377 31.6534C88.478 31.7345 88.4987 31.8063 88.4997 31.8689C88.4967 31.929 88.4738 31.9938 88.4311 32.0633C88.3859 32.137 88.3165 32.2042 88.2229 32.265C88.1318 32.3217 88.0278 32.3903 87.9109 32.4706C87.7899 32.5484 87.665 32.6464 87.5363 32.7645C87.41 32.8784 87.2879 33.0316 87.1699 33.2239C86.9866 33.5225 86.9057 33.7967 86.927 34.0463C86.9484 34.296 87.0614 34.4836 87.266 34.6091C87.401 34.6919 87.5419 34.7193 87.6887 34.6911C87.8339 34.6563 87.9852 34.5887 88.1427 34.4882C88.3026 34.3836 88.4677 34.2568 88.6379 34.1078C88.8041 33.9564 88.9789 33.8046 89.1623 33.6525C89.3458 33.5004 89.537 33.3586 89.7358 33.2272C89.9306 33.0934 90.1374 32.995 90.3562 32.9321C90.5734 32.8627 90.7984 32.8402 91.0311 32.8648C91.2663 32.8852 91.5108 32.9733 91.7644 33.1289C92.0672 33.3147 92.3135 33.5419 92.5035 33.8106C92.6894 34.0767 92.8111 34.3738 92.8687 34.7021C92.9223 35.0278 92.9056 35.3808 92.8187 35.7611C92.7301 36.1347 92.5616 36.5241 92.3131 36.9291C92.18 37.1459 92.029 37.3461 91.8601 37.5297C91.6977 37.7116 91.5228 37.8774 91.3352 38.027C91.1502 38.1725 90.9604 38.2982 90.7659 38.4041C90.5739 38.5059 90.385 38.5843 90.1992 38.6393L89.837 37.9355C89.7951 37.8478 89.7746 37.762 89.7754 37.678C89.7762 37.5941 89.8055 37.5051 89.8633 37.411C89.921 37.3169 90.0016 37.2452 90.105 37.196C90.2109 37.1428 90.3284 37.0797 90.4576 37.0069C90.5867 36.9341 90.7231 36.8404 90.8666 36.7257C91.0127 36.607 91.156 36.4331 91.2966 36.204C91.4071 36.024 91.4808 35.858 91.5177 35.7061C91.553 35.5476 91.561 35.406 91.5417 35.2815C91.5248 35.1529 91.4827 35.0426 91.4153 34.9506C91.3463 34.8519 91.2627 34.7725 91.1646 34.7122C91.0173 34.6218 90.869 34.5928 90.7197 34.625C90.5728 34.6532 90.4195 34.7196 90.2595 34.8242C90.1021 34.9247 89.9391 35.0527 89.7704 35.2083C89.6002 35.3572 89.422 35.5098 89.2361 35.666C89.0526 35.8181 88.8602 35.9619 88.6588 36.0974C88.4558 36.2263 88.2417 36.3229 88.0163 36.3874C87.7934 36.4477 87.5562 36.4626 87.3046 36.4321C87.0555 36.3975 86.7918 36.2949 86.5136 36.1241C86.2559 35.966 86.0418 35.7642 85.8714 35.5188C85.7009 35.2735 85.5901 34.9999 85.5387 34.698C85.4858 34.3896 85.4986 34.0568 85.5771 33.6994C85.654 33.3355 85.8117 32.9592 86.0502 32.5706C86.3163 32.1369 86.6302 31.7861 86.9918 31.518C87.3534 31.2499 87.7236 31.0688 88.1024 30.9746L88.4377 31.6534Z" fill="white"/>
<path d="M95.7529 31.0156C95.441 31.5726 95.0436 31.914 94.5606 32.0397C94.0735 32.163 93.5514 32.0687 92.9944 31.7569L89.3946 29.7414L89.0288 30.3948C88.9819 30.4785 88.9136 30.5366 88.824 30.5689C88.7367 30.5971 88.6387 30.5807 88.5298 30.5197L87.9141 30.175L88.3249 29.0434L86.7487 27.7319C86.6743 27.6682 86.6305 27.5942 86.6173 27.5097C86.6064 27.4211 86.6267 27.3308 86.6783 27.2386L87.1285 26.4345L89.1577 27.5706L90.1074 25.8744L91.2131 26.4934L90.2634 28.1896L93.7564 30.1453C93.9574 30.2579 94.1426 30.2956 94.312 30.2584C94.4813 30.2211 94.6129 30.1188 94.7067 29.9513C94.7606 29.8549 94.7947 29.7695 94.809 29.6949C94.8213 29.6139 94.8279 29.5432 94.8285 29.4831C94.8315 29.4188 94.8331 29.3619 94.8333 29.3125C94.8293 29.2607 94.8378 29.216 94.8589 29.1783C94.8847 29.1322 94.9184 29.1016 94.9599 29.0863C94.9973 29.0687 95.0484 29.0561 95.1132 29.0484L96.1273 29.0056C96.1892 29.3372 96.1862 29.6766 96.1184 30.0237C96.0506 30.3709 95.9287 30.7015 95.7529 31.0156Z" fill="white"/>
<path d="M91.81 22.4628L98.3702 25.859L97.5526 27.4383L90.9924 24.0421L91.81 22.4628ZM90.0206 21.2365C90.1571 21.3071 90.2706 21.401 90.3613 21.5182C90.4519 21.6354 90.5177 21.7641 90.5587 21.9042C90.6019 22.0401 90.6192 22.1841 90.6106 22.3365C90.5978 22.4866 90.5549 22.6319 90.4821 22.7726C90.4115 22.909 90.3186 23.0258 90.2035 23.1229C90.0863 23.2136 89.9597 23.2805 89.8239 23.3237C89.688 23.3669 89.5461 23.3853 89.398 23.3789C89.2522 23.3682 89.1111 23.3276 88.9747 23.257C88.834 23.1842 88.7151 23.0902 88.618 22.975C88.523 22.8556 88.454 22.728 88.4108 22.5921C88.3676 22.4563 88.3514 22.3154 88.362 22.1696C88.3706 22.0173 88.4102 21.873 88.4808 21.7365C88.5536 21.5959 88.6497 21.4781 88.7691 21.3831C88.8843 21.286 89.0098 21.2159 89.1456 21.1727C89.2837 21.1252 89.4289 21.1058 89.5812 21.1144C89.7335 21.123 89.88 21.1637 90.0206 21.2365Z" fill="white"/>
<path d="M94.6324 16.3718C94.8282 15.9493 95.0754 15.5931 95.3739 15.3029C95.6744 15.0084 96.0149 14.7932 96.3953 14.6574C96.7714 14.5196 97.1821 14.4667 97.6276 14.4986C98.0687 14.5285 98.531 14.6555 99.0144 14.8796C99.1363 14.9361 99.2356 14.9901 99.3123 15.0415C99.3866 15.0866 99.4407 15.1354 99.4745 15.1881C99.5059 15.2344 99.5214 15.2866 99.521 15.3446C99.5162 15.4006 99.4966 15.4656 99.4623 15.5396L97.5424 19.681C98.2527 19.9521 98.8436 20.0012 99.3153 19.8283C99.7869 19.6555 100.146 19.3034 100.392 18.7721C100.513 18.5108 100.587 18.2724 100.613 18.0569C100.641 17.837 100.65 17.6403 100.64 17.4666C100.633 17.2886 100.623 17.1332 100.61 17.0004C100.6 16.8632 100.618 16.7446 100.664 16.6444C100.695 16.5791 100.734 16.5286 100.782 16.4928C100.831 16.457 100.887 16.4328 100.951 16.4201L101.757 16.2224C101.883 16.4978 101.967 16.7799 102.007 17.0686C102.044 17.3553 102.049 17.6408 102.023 17.925C101.995 18.2029 101.939 18.4762 101.857 18.7449C101.777 19.0093 101.682 19.2591 101.573 19.4942C101.357 19.9602 101.08 20.3582 100.742 20.6881C100.399 21.0161 100.009 21.2585 99.5716 21.4153C99.1295 21.5701 98.6469 21.6295 98.124 21.5934C97.5967 21.5553 97.0392 21.4 96.4513 21.1275C95.994 20.9155 95.5994 20.6426 95.2674 20.3088C94.931 19.973 94.6784 19.5993 94.5094 19.1876C94.3382 18.7696 94.2573 18.3221 94.2668 17.8451C94.2784 17.3637 94.4002 16.8726 94.6324 16.3718ZM95.8037 16.8751C95.5857 17.3454 95.5479 17.775 95.6904 18.1638C95.8329 18.5526 96.1309 18.897 96.5843 19.1972L97.9894 16.1662C97.7803 16.0693 97.5713 16.0068 97.3621 15.9786C97.1486 15.9484 96.9449 15.9598 96.7511 16.0128C96.5572 16.0657 96.3797 16.1633 96.2185 16.3055C96.053 16.4457 95.9147 16.6356 95.8037 16.8751Z" fill="white"/>
<path d="M103.718 14.4075L96.8569 11.6705L97.2597 10.6607C97.345 10.4467 97.5014 10.3463 97.7287 10.3594L98.3157 10.4618C98.2282 10.2667 98.1567 10.0702 98.1012 9.87242C98.0475 9.67014 98.0121 9.46739 97.995 9.26418C97.9797 9.05652 97.9888 8.84571 98.0225 8.63175C98.0562 8.4178 98.1192 8.19491 98.2117 7.96307C98.3611 7.58856 98.5582 7.2822 98.8031 7.04398C99.0435 6.80398 99.3179 6.63436 99.6262 6.53513C99.9318 6.42966 100.265 6.3919 100.625 6.42186C100.982 6.44558 101.353 6.53392 101.736 6.68686L106.103 8.42879L105.444 10.0806L101.077 8.33869C100.658 8.17152 100.296 8.14067 99.9902 8.24614C99.6819 8.34538 99.4504 8.58894 99.2956 8.97682C99.1818 9.26215 99.1398 9.55544 99.1695 9.85669C99.1992 10.1579 99.281 10.4645 99.415 10.7763L104.377 12.7557L103.718 14.4075Z" fill="white"/>
<path d="M100.566 1.92095L107.531 4.38081L106.939 6.05771L99.9736 3.59785L100.566 1.92095ZM98.6246 0.95289C98.7694 1.00404 98.8948 1.08141 99.0007 1.185C99.1067 1.28859 99.1896 1.40696 99.2495 1.5401C99.311 1.66871 99.348 1.80903 99.3605 1.96107C99.3684 2.1115 99.346 2.2614 99.2933 2.41076C99.2421 2.55559 99.1662 2.68405 99.0656 2.79612C98.962 2.90208 98.8459 2.98579 98.7172 3.04727C98.5886 3.10876 98.4506 3.14654 98.3031 3.16062C98.1572 3.17018 98.0118 3.14939 97.867 3.09824C97.7176 3.0455 97.5869 2.96879 97.4748 2.86813C97.3643 2.76294 97.2784 2.64603 97.2169 2.51742C97.1554 2.38881 97.1199 2.25155 97.1103 2.10564C97.0978 1.9536 97.1171 1.80517 97.1683 1.66034C97.221 1.51098 97.3 1.38106 97.4052 1.27058C97.5059 1.1585 97.6205 1.07173 97.7491 1.01024C97.8793 0.944235 98.0204 0.904988 98.1725 0.892501C98.3245 0.880015 98.4752 0.900144 98.6246 0.95289Z" fill="white"/>
</svg>
