<svg width="90" height="89" viewBox="0 0 90 89" fill="none" xmlns="http://www.w3.org/2000/svg">
<path d="M6.72187 6.94485C6.73875 7.10206 6.74713 7.26291 6.74699 7.42741C6.75253 7.58947 6.75523 7.75275 6.75509 7.91724C6.87025 7.79417 6.98663 7.67394 7.10423 7.55655C7.22182 7.43915 7.34103 7.32945 7.46185 7.22745L12.0133 3.40378C12.0701 3.35602 12.122 3.32041 12.169 3.29695C12.2201 3.27511 12.2691 3.26421 12.3161 3.26425C12.3671 3.26592 12.4198 3.27528 12.4741 3.29234C12.5284 3.3094 12.5919 3.33255 12.6648 3.36178L13.8981 3.85629L10.3756 12.6411L8.9358 12.0638L11.211 6.3895C11.2533 6.28419 11.3016 6.16957 11.356 6.04564C11.4144 5.92333 11.4757 5.79981 11.5398 5.67508L6.88738 9.59226C6.78116 9.68131 6.66645 9.73874 6.54326 9.76457C6.4217 9.78635 6.29611 9.77125 6.16651 9.71928L5.94172 9.62915C5.81212 9.57718 5.71089 9.50133 5.63805 9.4016C5.56683 9.29782 5.52358 9.17705 5.5083 9.03929L4.8218 2.96018C4.78441 3.10034 4.74175 3.23603 4.69383 3.36726C4.65159 3.49606 4.60854 3.61514 4.56469 3.7245L2.28945 9.3988L0.849609 8.82146L4.3721 0.0366211L5.60538 0.531132C5.67828 0.560365 5.74025 0.587562 5.79128 0.612724C5.8423 0.637886 5.88482 0.666688 5.91883 0.699129C5.95688 0.733194 5.98683 0.77576 6.00866 0.826828C6.0305 0.877895 6.04544 0.940302 6.05348 1.01405L6.72187 6.94485Z" fill="white"/>
<path d="M17.3449 8.50858C17.7259 8.69294 18.0461 8.92299 18.3053 9.19871C18.5685 9.47634 18.7589 9.78906 18.8766 10.1369C18.9962 10.4808 19.0382 10.8549 19.0024 11.2594C18.9686 11.6599 18.8462 12.0782 18.6352 12.5142C18.582 12.6242 18.5314 12.7136 18.4835 12.7825C18.4414 12.8494 18.3962 12.8979 18.3478 12.9278C18.3052 12.9556 18.2576 12.9689 18.2049 12.9677C18.1541 12.9625 18.0953 12.9437 18.0285 12.9114L14.293 11.1038C14.0359 11.7454 13.9824 12.2818 14.1324 12.7131C14.2824 13.1444 14.597 13.476 15.0762 13.7079C15.3119 13.8219 15.5275 13.8923 15.723 13.9191C15.9225 13.9477 16.1012 13.9591 16.2592 13.9531C16.4211 13.9491 16.5625 13.9423 16.6834 13.933C16.8082 13.9255 16.9158 13.9436 17.0061 13.9873C17.065 14.0158 17.1104 14.0523 17.1422 14.0968C17.174 14.1413 17.1952 14.1927 17.2057 14.2511L17.3733 14.9867C17.121 15.0973 16.8634 15.169 16.6003 15.2016C16.3392 15.2304 16.0796 15.2308 15.8216 15.203C15.5695 15.173 15.3219 15.1187 15.0789 15.0399C14.8398 14.9629 14.6142 14.8732 14.4021 14.7705C13.9818 14.5672 13.6242 14.3093 13.3294 13.997C13.0364 13.6807 12.822 13.3224 12.686 12.9221C12.552 12.5179 12.5053 12.0784 12.546 11.6037C12.5885 11.125 12.7381 10.6205 12.9947 10.0902C13.1943 9.67777 13.4483 9.32318 13.7567 9.02643C14.067 8.72576 14.4105 8.50175 14.7872 8.35439C15.1698 8.20501 15.5778 8.13824 16.0113 8.15408C16.4487 8.17183 16.8932 8.28999 17.3449 8.50858ZM16.8697 9.5657C16.4455 9.36042 16.0556 9.31962 15.7001 9.44328C15.3446 9.56694 15.027 9.83258 14.7473 10.2402L17.4811 11.5631C17.5724 11.3745 17.6324 11.1854 17.6611 10.9957C17.6918 10.8021 17.6845 10.6168 17.6393 10.4398C17.5941 10.2628 17.508 10.1 17.3812 9.95135C17.2563 9.79879 17.0858 9.67024 16.8697 9.5657Z" fill="white"/>
<path d="M23.0432 19.2263L22.4072 18.8752C22.2735 18.8014 22.179 18.7243 22.1236 18.6439C22.0704 18.5597 22.0585 18.4459 22.0878 18.3026L22.1926 17.8147C21.9698 17.8662 21.7574 17.9034 21.5553 17.9264C21.3591 17.9477 21.1656 17.9505 20.9748 17.935C20.7841 17.9194 20.5932 17.8813 20.4024 17.8208C20.2115 17.7603 20.011 17.672 19.8009 17.556C19.5525 17.4189 19.3413 17.2599 19.167 17.079C18.9948 16.8942 18.8693 16.6928 18.7903 16.4748C18.7151 16.2588 18.6903 16.0283 18.7159 15.7833C18.7416 15.5382 18.8271 15.2839 18.9726 15.0203C19.095 14.7987 19.2725 14.6126 19.5052 14.462C19.7438 14.3096 20.0462 14.2223 20.4123 14.2001C20.7806 14.1741 21.2217 14.2283 21.7358 14.3625C22.2498 14.4968 22.8453 14.7408 23.5223 15.0945L23.7121 14.7507C23.9293 14.3572 24.0056 14.0205 23.9408 13.7405C23.882 13.4588 23.694 13.2305 23.377 13.0554C23.1477 12.9289 22.942 12.8502 22.7596 12.8193C22.5773 12.7885 22.4099 12.7758 22.2573 12.7813C22.1106 12.785 21.9748 12.7873 21.8498 12.7881C21.7248 12.7888 21.6049 12.7576 21.4903 12.6943C21.3948 12.6416 21.3264 12.5714 21.2851 12.4838C21.2437 12.3962 21.2221 12.3045 21.2201 12.2087L21.2121 11.6137C22.23 11.3681 23.2164 11.5089 24.1714 12.0361C24.5153 12.2259 24.7892 12.4519 24.9934 12.7141C25.2035 12.9747 25.3462 13.2578 25.4216 13.5636C25.4992 13.8656 25.5087 14.1824 25.4503 14.514C25.3956 14.8477 25.2766 15.1807 25.0931 15.5131L23.0432 19.2263ZM20.7799 16.8254C20.925 16.9056 21.0661 16.966 21.2031 17.0068C21.3401 17.0475 21.4769 17.0707 21.6134 17.0762C21.7537 17.0839 21.8946 17.077 22.0361 17.0554C22.1835 17.0321 22.3383 16.9955 22.5005 16.9454L23.0478 15.9541C22.6247 15.7454 22.2589 15.5909 21.9505 15.4904C21.648 15.3882 21.3906 15.3308 21.1782 15.3183C20.9659 15.3057 20.7939 15.3329 20.6622 15.3998C20.5344 15.4688 20.4357 15.5663 20.3661 15.6924C20.229 15.9407 20.2036 16.1584 20.2897 16.3455C20.3796 16.5347 20.543 16.6947 20.7799 16.8254Z" fill="white"/>
<path d="M31.8758 18.2787C31.802 18.3151 31.7366 18.3336 31.6797 18.3343C31.6252 18.3314 31.5663 18.3103 31.5032 18.2713C31.4364 18.23 31.3756 18.1667 31.3206 18.0813C31.2693 17.9983 31.2074 17.9035 31.1348 17.797C31.0644 17.6868 30.9758 17.5729 30.8689 17.4555C30.7657 17.3403 30.6269 17.2287 30.4524 17.1208C30.1816 16.9532 29.9326 16.8787 29.7056 16.8973C29.4786 16.9159 29.3076 17.018 29.1928 17.2035C29.1171 17.326 29.0917 17.454 29.1169 17.5876C29.148 17.7197 29.209 17.8575 29.2998 18.0009C29.3944 18.1467 29.5091 18.2972 29.6439 18.4525C29.781 18.604 29.9184 18.7634 30.0561 18.9307C30.1938 19.098 30.322 19.2723 30.4408 19.4535C30.5618 19.6311 30.6506 19.8194 30.707 20.0185C30.7694 20.2162 30.789 20.4208 30.7659 20.6323C30.7465 20.846 30.6657 21.068 30.5233 21.298C30.3534 21.5726 30.146 21.7958 29.9012 21.9676C29.6587 22.1357 29.3881 22.2454 29.0895 22.2967C28.7932 22.3443 28.4724 22.3279 28.127 22.2476C27.7875 22.1659 27.4342 22.0113 27.0668 21.784C26.8701 21.6623 26.6886 21.5244 26.5224 21.3702C26.3575 21.222 26.2074 21.0624 26.072 20.8914C25.9403 20.7227 25.8267 20.5498 25.7311 20.3726C25.6391 20.1977 25.5685 20.0257 25.5192 19.8566L26.1602 19.5297C26.2401 19.4919 26.3181 19.4735 26.3945 19.4745C26.4708 19.4756 26.5516 19.5025 26.637 19.5553C26.7223 19.6081 26.7872 19.6816 26.8315 19.7758C26.8796 19.8722 26.9365 19.9793 27.0023 20.0969C27.068 20.2146 27.1528 20.3389 27.2565 20.4698C27.364 20.603 27.5216 20.7338 27.7294 20.8624C27.8927 20.9634 28.0433 21.031 28.1813 21.0651C28.3253 21.0977 28.4539 21.1055 28.5672 21.0883C28.6841 21.0734 28.7846 21.0355 28.8685 20.9745C28.9584 20.9121 29.0309 20.8364 29.086 20.7474C29.1687 20.6138 29.1956 20.4791 29.1667 20.3432C29.1416 20.2096 29.0818 20.07 28.9872 19.9242C28.8964 19.7808 28.7806 19.6322 28.6397 19.4783C28.5049 19.323 28.3668 19.1606 28.2254 18.991C28.0877 18.8237 27.9576 18.6483 27.8352 18.4648C27.7187 18.2798 27.6315 18.0848 27.5737 17.8797C27.5196 17.6769 27.5068 17.4611 27.5354 17.2325C27.5677 17.0062 27.6619 16.7668 27.818 16.5145C27.9627 16.2807 28.1468 16.0868 28.3705 15.9327C28.5941 15.7786 28.8432 15.6787 29.1178 15.633C29.3983 15.586 29.7009 15.5987 30.0255 15.6713C30.356 15.7424 30.6976 15.887 31.0501 16.1052C31.4434 16.3485 31.7614 16.635 32.0038 16.9647C32.2463 17.2943 32.4097 17.6314 32.4941 17.9761L31.8758 18.2787Z" fill="white"/>
<path d="M35.3597 19.0243L32.9375 22.538C32.7047 22.8757 32.6012 23.1913 32.6269 23.4846C32.6587 23.7768 32.8308 24.0306 33.1434 24.2461C33.3733 24.4046 33.6236 24.5029 33.8941 24.541C34.1671 24.5755 34.4554 24.5648 34.7588 24.509L37.5153 20.5103L38.8464 21.4279L35.0349 26.9571L34.2212 26.3962C34.0487 26.2773 33.9913 26.1184 34.0488 25.9196L34.2618 25.4145C34.0676 25.4503 33.876 25.4745 33.687 25.4873C33.5004 25.4965 33.3136 25.487 33.1264 25.4586C32.9453 25.4292 32.7615 25.3767 32.5751 25.3012C32.3898 25.2317 32.2055 25.1339 32.0222 25.0076C31.7205 24.7995 31.4875 24.5647 31.3233 24.3031C31.1652 24.0405 31.0715 23.7612 31.0422 23.4654C31.0129 23.1696 31.0448 22.8657 31.138 22.5537C31.2373 22.2405 31.3934 21.9294 31.6064 21.6205L34.0285 18.1067L35.3597 19.0243Z" fill="white"/>
<path d="M37.4252 28.7443L41.5039 23.4091L42.2579 23.9855C42.3896 24.0862 42.4629 24.1807 42.4778 24.269C42.4927 24.3573 42.4638 24.467 42.391 24.5981L41.9761 25.3025C42.4185 25.119 42.8409 25.0299 43.2431 25.0354C43.6454 25.0408 44.0061 25.1655 44.325 25.4093C44.5885 25.6107 44.7605 25.8383 44.8411 26.0922L43.9392 26.927C43.8811 26.9814 43.8241 27.0092 43.7683 27.0105C43.715 27.0082 43.659 26.9846 43.6 26.9395C43.548 26.8998 43.4862 26.8333 43.4147 26.7402C43.3431 26.647 43.2328 26.5434 43.0837 26.4295C42.8168 26.2254 42.531 26.125 42.2263 26.1283C41.9244 26.1281 41.5989 26.2198 41.2498 26.4034L38.7096 29.7262L37.4252 28.7443Z" fill="white"/>
<path d="M48.8425 29.1713C49.1648 29.4457 49.4166 29.749 49.5981 30.0811C49.7828 30.4161 49.8883 30.7667 49.9146 31.133C49.9437 31.4959 49.89 31.8686 49.7535 32.251C49.6199 32.63 49.396 33.004 49.082 33.3728C49.0028 33.4658 48.9313 33.5396 48.8676 33.5943C48.81 33.6484 48.7541 33.6838 48.6997 33.7006C48.6515 33.7168 48.602 33.7177 48.5513 33.7032C48.5035 33.6854 48.4513 33.6524 48.3948 33.6043L45.2352 30.9139C44.8248 31.47 44.6378 31.9756 44.6743 32.4308C44.7109 32.886 44.9318 33.2862 45.3371 33.6313C45.5364 33.8011 45.7274 33.9235 45.9098 33.9986C46.0956 34.0766 46.2657 34.1326 46.4201 34.1667C46.5779 34.2035 46.7164 34.2327 46.8357 34.2541C46.9584 34.2783 47.0579 34.3229 47.1344 34.388C47.1842 34.4304 47.2189 34.4771 47.2385 34.5282C47.258 34.5793 47.2656 34.6344 47.261 34.6935L47.2379 35.4476C46.9659 35.4911 46.6985 35.4955 46.4357 35.4609C46.1757 35.4229 45.9244 35.3579 45.6818 35.266C45.4453 35.1735 45.2194 35.0585 45.0041 34.921C44.7921 34.7863 44.5964 34.6426 44.417 34.4898C44.0615 34.1871 43.7804 33.8475 43.5738 33.471C43.3699 33.0911 43.2527 32.6903 43.222 32.2687C43.1941 31.8438 43.2596 31.4067 43.4186 30.9575C43.5804 30.505 43.8523 30.0544 44.2342 29.6059C44.5312 29.2571 44.8664 28.9779 45.2396 28.7684C45.6156 28.5556 46.0045 28.4254 46.4062 28.3777C46.814 28.3295 47.2257 28.3677 47.6412 28.4922C48.06 28.6196 48.4605 28.846 48.8425 29.1713ZM48.1164 30.0746C47.7575 29.7691 47.3905 29.6314 47.0153 29.6615C46.64 29.6915 46.2658 29.8686 45.8924 30.1926L48.2048 32.1616C48.3406 32.0021 48.4463 31.8342 48.5219 31.6579C48.6004 31.4783 48.64 31.2971 48.6409 31.1144C48.6417 30.9317 48.5994 30.7525 48.5141 30.5767C48.4317 30.3976 48.2991 30.2302 48.1164 30.0746Z" fill="white"/>
<path d="M60.0671 35.8873C60.336 36.1614 60.5339 36.4472 60.6606 36.7446C60.7905 37.0452 60.8602 37.3405 60.8698 37.6306C60.8824 37.9239 60.8412 38.2028 60.7461 38.4672C60.6541 38.7348 60.5192 38.9711 60.3414 39.1762L59.4675 38.594C59.4552 38.5877 59.4429 38.5783 59.4307 38.5659C59.4215 38.5565 59.4124 38.5472 59.4032 38.5378C59.3512 38.4849 59.3179 38.4228 59.3031 38.3517C59.2945 38.2807 59.3092 38.2021 59.347 38.1161C59.4005 38.0086 59.4417 37.8979 59.4705 37.784C59.5025 37.6671 59.5144 37.5515 59.5062 37.4372C59.5011 37.3199 59.4729 37.2039 59.4216 37.0893C59.3733 36.9716 59.2957 36.8582 59.1887 36.7492C59.0604 36.6184 58.9224 36.5245 58.7748 36.4675C58.6304 36.4075 58.4841 36.3799 58.3359 36.3847C58.1908 36.3864 58.0486 36.419 57.9091 36.4825C57.7728 36.5429 57.6486 36.6281 57.5364 36.7381C57.443 36.8298 57.3618 36.9278 57.293 37.0321C57.2271 37.1394 57.172 37.2577 57.1276 37.3869C57.0832 37.5161 57.0479 37.6608 57.0217 37.821C57.0016 37.9812 56.9891 38.1647 56.984 38.3714L56.8803 41.9946C57.1773 41.9048 57.4655 41.7841 57.7446 41.6325C58.0238 41.4809 58.2846 41.3044 58.5272 41.103C58.605 41.0389 58.6855 41.0058 58.7689 41.0035C58.8522 41.0012 58.929 41.0358 58.9993 41.1075L59.7099 41.8316C59.2957 42.2319 58.8451 42.5578 58.3583 42.8093C57.8715 43.0608 57.3653 43.2335 56.8399 43.3272L56.7619 46.1823L55.6525 45.0517C55.5944 44.9925 55.5456 44.9365 55.506 44.8837C55.4694 44.8339 55.4391 44.7812 55.4149 44.7254C55.3939 44.6666 55.379 44.6047 55.3704 44.5399C55.3617 44.475 55.3593 44.4009 55.3632 44.3176L55.386 43.3782C54.8497 43.3176 54.3327 43.1708 53.835 42.9377C53.3404 42.7078 52.8837 42.3794 52.465 41.9527C52.2083 41.6911 52.0013 41.3929 51.844 41.0582C51.6898 40.7204 51.6006 40.3708 51.5762 40.0096C51.5519 39.6483 51.5985 39.2908 51.716 38.9371C51.8397 38.5834 52.0511 38.2599 52.3501 37.9665C52.5587 37.7617 52.7901 37.6019 53.0443 37.487C53.3015 37.3691 53.5707 37.2915 53.8518 37.254C54.133 37.2166 54.42 37.2162 54.7128 37.2529C55.0086 37.2928 55.3011 37.3665 55.5901 37.4742C55.6617 37.0799 55.7699 36.7353 55.9146 36.4404C56.0655 36.1456 56.2516 35.8897 56.4727 35.6728C56.7063 35.4435 56.9687 35.2686 57.2599 35.1479C57.5573 35.0273 57.8633 34.9716 58.1779 34.9808C58.4957 34.993 58.8158 35.0732 59.1384 35.2213C59.4641 35.3663 59.7737 35.5883 60.0671 35.8873ZM53.5942 39.0475C53.4228 39.2155 53.2977 39.3964 53.2187 39.5901C53.1397 39.7837 53.1024 39.9793 53.1067 40.1768C53.1141 40.3713 53.1571 40.5615 53.2355 40.7474C53.3202 40.9333 53.4374 41.1026 53.5871 41.2552C53.8561 41.5293 54.1426 41.7372 54.4467 41.8789C54.7571 42.0207 55.0802 42.1102 55.4162 42.1473L55.4963 38.5841C55.0898 38.4939 54.7288 38.4904 54.4133 38.5738C54.1008 38.6604 53.8278 38.8182 53.5942 39.0475Z" fill="white"/>
<path d="M63.8743 48.8111L61.0157 51.1574L59.8986 49.7964L67.2146 43.7916L69.0459 46.0228C69.4556 46.522 69.7536 46.9916 69.9397 47.4316C70.132 47.8722 70.2281 48.2816 70.2281 48.6598C70.2308 49.0415 70.1452 49.3912 69.9713 49.7089C69.8036 50.0272 69.5645 50.3137 69.2542 50.5684C69.008 50.7705 68.7448 50.9245 68.4647 51.0302C68.1873 51.1393 67.9024 51.1981 67.6102 51.2065C67.3207 51.2183 67.0254 51.1784 66.7244 51.0868C66.4261 50.9985 66.1313 50.8594 65.84 50.6695C65.8833 50.9218 65.8652 51.1851 65.7855 51.4594L64.587 55.5085L63.582 54.2841C63.4851 54.1661 63.4257 54.0455 63.4037 53.9224C63.3845 53.8027 63.3952 53.6782 63.4358 53.5489L64.5159 50.0881C64.5566 49.9588 64.5664 49.8435 64.5453 49.7422C64.5271 49.6443 64.4626 49.5278 64.3518 49.3929L63.8743 48.8111ZM64.8507 48.0096L65.5484 48.8596C65.7588 49.116 65.9735 49.3123 66.1927 49.4486C66.4146 49.5882 66.631 49.6731 66.842 49.7031C67.0591 49.7338 67.2701 49.7158 67.4751 49.6492C67.6801 49.5826 67.8754 49.4731 68.0609 49.3209C68.4319 49.0163 68.6159 48.6593 68.6128 48.2497C68.6125 47.8435 68.406 47.3891 67.9935 46.8866L67.2793 46.0163L64.8507 48.0096Z" fill="white"/>
<path d="M72.8101 55.2388C73.059 55.5812 73.2326 55.9351 73.3311 56.3005C73.432 56.6695 73.4523 57.035 73.392 57.3972C73.3351 57.7569 73.1955 58.1065 72.9731 58.4462C72.7542 58.7834 72.4489 59.0944 72.0571 59.3792C71.9583 59.451 71.8715 59.506 71.7967 59.5442C71.7281 59.5833 71.6653 59.6046 71.6086 59.6082C71.5579 59.6126 71.5096 59.6019 71.4637 59.5759C71.4214 59.5473 71.3784 59.503 71.3348 59.443L68.8946 56.0864C68.3652 56.5307 68.0648 56.9783 67.9935 57.4294C67.9222 57.8804 68.043 58.3213 68.3561 58.7519C68.51 58.9637 68.6669 59.1275 68.8266 59.2433C68.9889 59.3627 69.1412 59.457 69.2833 59.5264C69.4279 59.5992 69.5558 59.66 69.6668 59.7088C69.7803 59.7611 69.8666 59.8279 69.9256 59.9091C69.9641 59.962 69.9869 60.0156 69.9939 60.0698C70.001 60.124 69.9954 60.1794 69.9771 60.2358L69.7777 60.9634C69.5031 60.9419 69.2421 60.8834 68.9948 60.7881C68.7509 60.6902 68.5219 60.5681 68.3076 60.4217C68.0994 60.2764 67.9068 60.1116 67.7298 59.9274C67.5553 59.7467 67.3987 59.5611 67.2602 59.3705C66.9856 58.9929 66.7921 58.5968 66.6796 58.1823C66.5706 57.7652 66.5506 57.3481 66.6197 56.931C66.6923 56.5114 66.8585 56.1019 67.1185 55.7025C67.3819 55.3006 67.7519 54.9264 68.2284 54.5801C68.599 54.3106 68.9903 54.1179 69.4022 54.0018C69.8177 53.8832 70.2263 53.8479 70.628 53.8957C71.0357 53.9446 71.4269 54.0783 71.8016 54.2968C72.1789 54.5189 72.515 54.8329 72.8101 55.2388ZM71.8922 55.9465C71.6151 55.5653 71.2907 55.3453 70.9188 55.2866C70.547 55.2278 70.1416 55.3121 69.7027 55.5394L71.4886 57.996C71.658 57.8728 71.8001 57.7344 71.915 57.5808C72.0334 57.4246 72.1145 57.2578 72.1581 57.0803C72.2018 56.9029 72.2028 56.7188 72.1611 56.5279C72.123 56.3344 72.0334 56.1406 71.8922 55.9465Z" fill="white"/>
<path d="M72.4912 66.9594C72.3775 66.7834 72.3854 66.6147 72.5147 66.4531L72.9879 65.9914C72.7802 65.9594 72.5817 65.9137 72.3925 65.8541C72.2033 65.7945 72.0217 65.7145 71.8476 65.614C71.6759 65.5171 71.5142 65.3956 71.3626 65.2494C71.2097 65.1093 71.0692 64.9403 70.9413 64.7424C70.7423 64.4345 70.6241 64.1109 70.5865 63.7714C70.549 63.432 70.5908 63.0907 70.7118 62.7474C70.8389 62.4055 71.0489 62.0671 71.3417 61.7324C71.6369 61.4013 72.0154 61.0865 72.4771 60.788C72.8949 60.518 73.3201 60.3237 73.7526 60.2052C74.1852 60.0867 74.6021 60.0484 75.0034 60.0904C75.4046 60.1324 75.7745 60.2545 76.113 60.4565C76.4551 60.6563 76.7458 60.9412 76.985 61.3113C77.1887 61.6265 77.3115 61.929 77.3534 62.2189C77.3989 62.5064 77.3943 62.7926 77.3394 63.0775L80.3188 61.1517L81.1965 62.5094L73.0278 67.7894L72.4912 66.9594ZM72.3172 64.5077C72.4996 64.7899 72.7134 64.992 72.9586 65.1141C73.2038 65.2362 73.4913 65.3153 73.8213 65.3515L76.3499 63.717C76.4373 63.4423 76.4603 63.1885 76.4188 62.9555C76.3797 62.7262 76.2926 62.5071 76.1576 62.2982C76.025 62.0929 75.8657 61.9309 75.6798 61.8121C75.4962 61.6969 75.2877 61.6316 75.0544 61.6162C74.827 61.6021 74.5723 61.642 74.2901 61.7361C74.0116 61.8278 73.7093 61.979 73.3832 62.1898C73.0533 62.403 72.7896 62.6099 72.5919 62.8104C72.4002 63.0122 72.263 63.21 72.1804 63.4037C72.1014 63.595 72.0751 63.7835 72.1015 63.969C72.1316 64.1522 72.2035 64.3318 72.3172 64.5077Z" fill="white"/>
<path d="M80.8266 67.801L77.1137 69.905C76.7569 70.1072 76.526 70.3459 76.4211 70.621C76.3221 70.8978 76.3662 71.2013 76.5534 71.5316C76.6911 71.7746 76.8733 71.9723 77.1001 72.1246C77.3307 72.2748 77.5946 72.3911 77.892 72.4733L82.1175 70.0788L82.9146 71.4854L77.0718 74.7964L76.5845 73.9365C76.4813 73.7543 76.4989 73.5863 76.6375 73.4325L77.0496 73.0711C76.8593 73.0184 76.6763 72.9566 76.5006 72.8856C76.3288 72.8125 76.1648 72.7223 76.0088 72.6151C75.8587 72.5096 75.7163 72.3821 75.5815 72.2328C75.4451 72.0894 75.322 71.921 75.2123 71.7273C75.0316 71.4084 74.9244 71.0955 74.8909 70.7885C74.8633 70.4831 74.9009 70.191 75.0036 69.9121C75.1064 69.6331 75.2678 69.3737 75.4879 69.1336C75.7139 68.8952 75.9902 68.6834 76.3166 68.4984L80.0296 66.3944L80.8266 67.801Z" fill="white"/>
<path d="M84.9683 78.6419C84.8922 78.6263 84.8278 78.6049 84.775 78.5777C84.7243 78.5543 84.6793 78.5036 84.6402 78.4256C84.6031 78.3514 84.5884 78.2685 84.5961 78.1768C84.6077 78.0831 84.6164 77.9738 84.6221 77.8489C84.6317 77.7221 84.6238 77.5796 84.5982 77.4216C84.5786 77.2655 84.5189 77.088 84.4191 76.889C84.292 76.6354 84.1337 76.4366 83.9443 76.2923C83.7588 76.1462 83.5479 76.0517 83.3117 76.009C83.0775 75.9703 82.8219 75.9813 82.5448 76.042C82.2717 76.1009 81.981 76.2075 81.6728 76.362C81.353 76.5223 81.0848 76.6982 80.8684 76.8897C80.6539 77.0851 80.4931 77.2901 80.386 77.5049C80.2828 77.7177 80.2323 77.9383 80.2345 78.1666C80.2406 78.393 80.3013 78.6213 80.4167 78.8514C80.5321 79.0816 80.6523 79.2532 80.7773 79.3662C80.9081 79.4812 81.0312 79.5709 81.1464 79.6352C81.2655 79.6975 81.3699 79.7501 81.4597 79.7929C81.5554 79.8377 81.6257 79.905 81.6707 79.9947C81.7294 80.1117 81.7285 80.222 81.6681 80.3254L81.3497 81.0049C81.0823 80.9388 80.8373 80.8444 80.6147 80.7217C80.396 80.597 80.1968 80.4528 80.0171 80.2891C79.8433 80.1273 79.687 79.9469 79.5482 79.748C79.4095 79.5491 79.2873 79.3443 79.1817 79.1337C78.9959 78.7631 78.8892 78.3797 78.8614 77.9836C78.8376 77.5855 78.8967 77.1971 79.0388 76.8184C79.1828 76.4436 79.4098 76.0882 79.7198 75.7522C80.0356 75.4182 80.4392 75.128 80.9307 74.8816C81.3716 74.6606 81.8105 74.5187 82.2476 74.4558C82.6905 74.3948 83.1101 74.4188 83.5063 74.5277C83.9065 74.6346 84.2755 74.8303 84.6134 75.1149C84.9513 75.3995 85.2386 75.7778 85.4752 76.2498C85.7001 76.6984 85.8244 77.1266 85.8483 77.5345C85.8741 77.9462 85.8198 78.3541 85.6856 78.7582L84.9683 78.6419Z" fill="white"/>
<path d="M88.8294 83.4827C88.9982 83.8709 89.091 84.254 89.1079 84.6321C89.1265 85.0142 89.0671 85.3755 88.9297 85.716C88.7963 86.0547 88.5842 86.3658 88.2935 86.6493C88.0068 86.931 87.6413 87.1684 87.1971 87.3615C87.0851 87.4103 86.9884 87.4452 86.9072 87.4662C86.8316 87.4895 86.7658 87.4967 86.7096 87.4879C86.6591 87.4813 86.6143 87.4603 86.5752 87.425C86.54 87.3879 86.5077 87.3354 86.4781 87.2674L84.8233 83.4617C84.2102 83.7807 83.8199 84.1526 83.6525 84.5775C83.4852 85.0024 83.5077 85.4589 83.7199 85.9472C83.8243 86.1873 83.942 86.3812 84.0728 86.5289C84.2054 86.6806 84.3336 86.8057 84.4573 86.9042C84.5827 87.0066 84.6943 87.0937 84.7921 87.1654C84.8916 87.2411 84.9614 87.3249 85.0014 87.417C85.0275 87.477 85.0381 87.5342 85.0333 87.5887C85.0284 87.6432 85.0109 87.696 84.9808 87.7471L84.6285 88.4142C84.3651 88.3337 84.123 88.2201 83.9022 88.0734C83.6854 87.925 83.4883 87.7561 83.3108 87.5668C83.139 87.3798 82.9867 87.1772 82.8538 86.959C82.7226 86.7449 82.61 86.5297 82.516 86.3136C82.3298 85.8854 82.2267 85.4568 82.2067 85.0278C82.1907 84.597 82.2616 84.1855 82.4194 83.7933C82.5812 83.3994 82.8322 83.0356 83.1725 82.7021C83.5168 82.3668 83.9591 82.0817 84.4993 81.8468C84.9195 81.6641 85.3433 81.5607 85.7706 81.5367C86.2019 81.5109 86.6084 81.5649 86.9902 81.6987C87.3776 81.8348 87.7306 82.0501 88.049 82.3446C88.3692 82.6432 88.6293 83.0225 88.8294 83.4827ZM87.78 83.9747C87.5921 83.5425 87.323 83.2575 86.9727 83.1195C86.6225 82.9815 86.2085 82.976 85.7307 83.1029L86.9418 85.888C87.1339 85.8045 87.3027 85.7002 87.4481 85.5751C87.5975 85.4482 87.7128 85.303 87.7939 85.1392C87.875 84.9755 87.9158 84.7959 87.9165 84.6006C87.9212 84.4034 87.8757 84.1948 87.78 83.9747Z" fill="white"/>
</svg>
