<svg width="74" height="64" viewBox="0 0 74 64" fill="none" xmlns="http://www.w3.org/2000/svg">
<path d="M36.5665 41.1429C38.4665 41.1429 39.9951 39.6143 39.9951 37.7143V19.4286C39.9951 17.5357 38.4594 16 36.6951 16C34.9308 16 33.1379 17.5429 33.1379 19.4286V37.7143C33.1379 39.6143 34.6808 41.1429 36.5665 41.1429ZM36.5665 45.8714C34.0865 45.8714 32.0751 47.8829 32.0751 50.3629C32.0808 52.8429 34.0808 54.8571 36.5665 54.8571C39.0522 54.8571 41.0579 52.8457 41.0579 50.3657C41.0522 47.8857 39.0522 45.8714 36.5665 45.8714Z" fill="white"/>
<path d="M36.5665 41.1429C38.4665 41.1429 39.9951 39.6143 39.9951 37.7143V19.4286C39.9951 17.5357 38.4594 16 36.6951 16C34.9308 16 33.1379 17.5429 33.1379 19.4286V37.7143C33.1379 39.6143 34.6808 41.1429 36.5665 41.1429ZM36.5665 45.8714C34.0865 45.8714 32.0751 47.8829 32.0751 50.3629C32.0808 52.8429 34.0808 54.8571 36.5665 54.8571C39.0522 54.8571 41.0579 52.8457 41.0579 50.3657C41.0522 47.8857 39.0522 45.8714 36.5665 45.8714Z" fill="url(#paint0_linear_16677_251348)" fill-opacity="0.88"/>
<path d="M36.5665 41.1429C38.4665 41.1429 39.9951 39.6143 39.9951 37.7143V19.4286C39.9951 17.5357 38.4594 16 36.6951 16C34.9308 16 33.1379 17.5429 33.1379 19.4286V37.7143C33.1379 39.6143 34.6808 41.1429 36.5665 41.1429ZM36.5665 45.8714C34.0865 45.8714 32.0751 47.8829 32.0751 50.3629C32.0808 52.8429 34.0808 54.8571 36.5665 54.8571C39.0522 54.8571 41.0579 52.8457 41.0579 50.3657C41.0522 47.8857 39.0522 45.8714 36.5665 45.8714Z" fill="url(#paint1_linear_16677_251348)"/>
<g opacity="0.4">
<path d="M72.3236 55L41.8522 3C39.5193 -1 33.6322 -1 31.2836 3L0.826479 55C-1.51781 58.9857 1.40205 64 6.10076 64H67.0436C71.7236 64 74.6522 59 72.3236 55ZM33.1379 19.4286C33.1379 17.5357 34.6736 16 36.5665 16C38.4593 16 39.9951 17.5429 39.9951 19.4286V37.7143C39.9951 39.6071 38.4593 41.1429 36.6951 41.1429C34.9308 41.1429 33.1379 39.6143 33.1379 37.7143V19.4286ZM36.5665 54.8571C34.0865 54.8571 32.0751 52.8457 32.0751 50.3657C32.0751 47.8857 34.0851 45.8743 36.5665 45.8743C39.0479 45.8743 41.0579 47.8857 41.0579 50.3657C41.0522 52.8429 39.0522 54.8571 36.5665 54.8571Z" fill="white"/>
<path d="M72.3236 55L41.8522 3C39.5193 -1 33.6322 -1 31.2836 3L0.826479 55C-1.51781 58.9857 1.40205 64 6.10076 64H67.0436C71.7236 64 74.6522 59 72.3236 55ZM33.1379 19.4286C33.1379 17.5357 34.6736 16 36.5665 16C38.4593 16 39.9951 17.5429 39.9951 19.4286V37.7143C39.9951 39.6071 38.4593 41.1429 36.6951 41.1429C34.9308 41.1429 33.1379 39.6143 33.1379 37.7143V19.4286ZM36.5665 54.8571C34.0865 54.8571 32.0751 52.8457 32.0751 50.3657C32.0751 47.8857 34.0851 45.8743 36.5665 45.8743C39.0479 45.8743 41.0579 47.8857 41.0579 50.3657C41.0522 52.8429 39.0522 54.8571 36.5665 54.8571Z" fill="url(#paint2_linear_16677_251348)" fill-opacity="0.88"/>
<path d="M72.3236 55L41.8522 3C39.5193 -1 33.6322 -1 31.2836 3L0.826479 55C-1.51781 58.9857 1.40205 64 6.10076 64H67.0436C71.7236 64 74.6522 59 72.3236 55ZM33.1379 19.4286C33.1379 17.5357 34.6736 16 36.5665 16C38.4593 16 39.9951 17.5429 39.9951 19.4286V37.7143C39.9951 39.6071 38.4593 41.1429 36.6951 41.1429C34.9308 41.1429 33.1379 39.6143 33.1379 37.7143V19.4286ZM36.5665 54.8571C34.0865 54.8571 32.0751 52.8457 32.0751 50.3657C32.0751 47.8857 34.0851 45.8743 36.5665 45.8743C39.0479 45.8743 41.0579 47.8857 41.0579 50.3657C41.0522 52.8429 39.0522 54.8571 36.5665 54.8571Z" fill="url(#paint3_linear_16677_251348)"/>
</g>
<defs>
<linearGradient id="paint0_linear_16677_251348" x1="36.5665" y1="16" x2="36.5665" y2="54.8571" gradientUnits="userSpaceOnUse">
<stop stop-color="#15C8DC"/>
<stop offset="1" stop-color="#128E9C"/>
</linearGradient>
<linearGradient id="paint1_linear_16677_251348" x1="36.5665" y1="16" x2="36.5665" y2="54.8571" gradientUnits="userSpaceOnUse">
<stop stop-color="#15C8DC"/>
<stop offset="1" stop-color="#128E9C"/>
</linearGradient>
<linearGradient id="paint2_linear_16677_251348" x1="36.5701" y1="0" x2="36.5701" y2="64" gradientUnits="userSpaceOnUse">
<stop stop-color="#15C8DC"/>
<stop offset="1" stop-color="#128E9C"/>
</linearGradient>
<linearGradient id="paint3_linear_16677_251348" x1="36.5701" y1="0" x2="36.5701" y2="64" gradientUnits="userSpaceOnUse">
<stop stop-color="#15C8DC"/>
<stop offset="1" stop-color="#128E9C"/>
</linearGradient>
</defs>
</svg>
