<svg width="56" height="56" viewBox="0 0 56 56" fill="none" xmlns="http://www.w3.org/2000/svg">
<circle cx="28" cy="28" r="28" fill="white"/>
<circle cx="28" cy="28" r="28" fill="url(#paint0_linear_13_45)" fill-opacity="0.88"/>
<circle cx="28" cy="28" r="28" fill="url(#paint1_linear_13_45)"/>
<path d="M17.6307 15.9029C18.6806 15.5529 19.243 14.4218 18.893 13.3719C18.5431 12.322 17.4119 11.7596 16.3683 12.1033L14.7372 12.647C13.0999 13.1969 12 14.7218 12 16.4466V24.0021C12 29.5265 16.4745 34.001 21.999 34.001C27.5234 34.001 31.9979 29.5265 31.9979 24.0021V16.4466C31.9979 14.728 30.8981 13.1969 29.2607 12.6532L27.6296 12.1033C26.5798 11.7533 25.4486 12.322 25.0987 13.3657C24.7487 14.4093 25.3174 15.5467 26.361 15.8966L27.9984 16.4466V24.0021C27.9984 27.3142 25.3111 30.0015 21.999 30.0015C18.6868 30.0015 15.9996 27.3142 15.9996 24.0021V16.4466L17.6307 15.9029ZM41.9969 24.0021C41.9969 24.5324 41.7862 25.0411 41.4112 25.4161C41.0362 25.7912 40.5275 26.0019 39.9971 26.0019C39.4667 26.0019 38.9581 25.7912 38.5831 25.4161C38.208 25.0411 37.9973 24.5324 37.9973 24.0021C37.9973 23.4717 38.208 22.963 38.5831 22.588C38.9581 22.213 39.4667 22.0023 39.9971 22.0023C40.5275 22.0023 41.0362 22.213 41.4112 22.588C41.7862 22.963 41.9969 23.4717 41.9969 24.0021ZM39.9971 19.0026C38.6712 19.0026 37.3995 19.5293 36.462 20.4669C35.5244 21.4045 34.9976 22.6761 34.9976 24.0021C34.9976 25.328 35.5244 26.5997 36.462 27.5372C37.3995 28.4748 38.6712 29.0016 39.9971 29.0016C41.3231 29.0016 42.5947 28.4748 43.5323 27.5372C44.4699 26.5997 44.9966 25.328 44.9966 24.0021C44.9966 22.6761 44.4699 21.4045 43.5323 20.4669C42.5947 19.5293 41.3231 19.0026 39.9971 19.0026Z" fill="white"/>
<path opacity="0.4" d="M37.9976 28.5829V33.0012C37.9976 36.8695 34.8667 40.0004 30.9983 40.0004C27.3987 40.0004 24.4365 37.2882 24.0428 33.7948C23.3803 33.9323 22.6992 34.0011 21.9992 34.0011C21.3243 34.0011 20.6681 33.9323 20.0307 33.8073C20.4431 39.5067 25.1927 44 30.9983 44C37.0727 44 41.9972 39.0755 41.9972 33.0012V28.5829C41.3847 28.8516 40.7098 29.0016 39.9974 29.0016C39.285 29.0016 38.61 28.8516 37.9976 28.5829Z" fill="white"/>
<defs>
<linearGradient id="paint0_linear_13_45" x1="28" y1="0" x2="28" y2="56" gradientUnits="userSpaceOnUse">
<stop stop-color="#15C8DC"/>
<stop offset="1" stop-color="#128E9C"/>
</linearGradient>
<linearGradient id="paint1_linear_13_45" x1="28" y1="0" x2="28" y2="56" gradientUnits="userSpaceOnUse">
<stop stop-color="#15C8DC"/>
<stop offset="1" stop-color="#128E9C"/>
</linearGradient>
</defs>
</svg>
