<svg width="56" height="57" viewBox="0 0 56 57" fill="none" xmlns="http://www.w3.org/2000/svg">
<circle cx="28" cy="28.998" r="28" fill="url(#paint0_linear_100_385)"/>
<path d="M20.6228 16.2337L21.1157 15.7409L19.9085 15.1409C19.53 14.948 19.2871 14.5552 19.2871 14.1266C19.2871 13.5052 19.7942 12.998 20.4157 12.998H26.2371C33.1299 12.998 38.7156 18.5837 38.7156 25.4765C38.7156 26.298 38.637 27.1194 38.4727 27.9265L36.4299 38.1407H20.43V36.2622C20.43 34.1336 21.4157 32.1265 23.1085 30.8265L28.1942 26.9194C28.7728 26.4765 28.7656 25.598 28.1799 25.1551C27.7871 24.8623 27.2442 24.8623 26.8513 25.1551L24.0799 27.2337C23.9371 27.3408 23.7799 27.4408 23.6157 27.5194C22.6371 28.0122 21.4728 27.9337 20.5585 27.3265L20.3085 27.1551C19.6657 26.7408 19.2871 26.0265 19.2871 25.2623V19.4623C19.2871 18.248 19.7657 17.0837 20.6228 16.2266V16.2337ZM23.6299 20.7694C23.933 20.7694 24.2237 20.649 24.4381 20.4347C24.6524 20.2204 24.7728 19.9297 24.7728 19.6266C24.7728 19.3235 24.6524 19.0328 24.4381 18.8185C24.2237 18.6041 23.933 18.4837 23.6299 18.4837C23.3268 18.4837 23.0361 18.6041 22.8218 18.8185C22.6075 19.0328 22.4871 19.3235 22.4871 19.6266C22.4871 19.9297 22.6075 20.2204 22.8218 20.4347C23.0361 20.649 23.3268 20.7694 23.6299 20.7694Z" fill="white"/>
<path opacity="0.4" d="M36.4294 38.1406H20.4295L17.3438 42.2549C17.1224 42.5549 17.001 42.912 17.001 43.2834C17.001 44.2334 17.7653 44.9977 18.7153 44.9977H38.1437C39.0937 44.9977 39.858 44.2334 39.858 43.2834C39.858 42.912 39.7365 42.5549 39.5151 42.2549L36.4294 38.1406Z" fill="white"/>
<defs>
<linearGradient id="paint0_linear_100_385" x1="28" y1="0.998047" x2="28" y2="56.998" gradientUnits="userSpaceOnUse">
<stop stop-color="#00AF78"/>
<stop offset="1" stop-color="#00734F"/>
</linearGradient>
</defs>
</svg>
