<svg width="77" height="80" viewBox="0 0 77 80" fill="none" xmlns="http://www.w3.org/2000/svg">
<path d="M67.8835 25.3862L65.4154 35.2456C67.5028 37.1886 69.1832 39.5517 70.3385 42.1904H72.0845C74.4082 42.1904 76.2856 44.0678 76.2856 46.3915V58.9947C76.2856 61.3184 74.4082 63.1957 72.0845 63.1957H67.8835C66.6888 64.7842 65.2709 66.2021 63.6824 67.3968V75.7989C63.6824 78.1226 61.8051 79.9999 59.4814 79.9999H55.2803C52.9566 79.9999 51.0793 78.1226 51.0793 75.7989V71.5978H34.2751V75.7989C34.2751 78.1226 32.3977 79.9999 30.074 79.9999H25.8729C23.5492 79.9999 21.6719 78.1226 21.6719 75.7989V67.3968C17.0901 63.9572 13.9656 58.7058 13.3735 52.6931H9.59386C4.66288 52.6931 0.666626 48.7021 0.666626 43.7658C0.666626 38.8296 4.66288 34.8386 9.59386 34.8386H10.119C11.8585 34.8386 13.2698 36.2433 13.2698 37.9894C13.2698 39.7355 11.8585 41.1402 10.119 41.1402H9.59386C8.14319 41.1402 6.96821 42.2036 6.96821 43.7658C6.96821 45.21 8.14319 46.3915 9.59386 46.3915H13.6899C15.6329 36.6897 24.1138 29.5873 34.2751 29.5873H51.0793C52.1033 29.5873 53.1141 29.6661 54.0988 29.7973C56.4094 27.106 59.849 25.3862 63.6824 25.3862H67.8835ZM56.3306 50.5926C58.0766 50.5926 59.4814 49.1878 59.4814 47.4418C59.4814 45.6957 58.0766 44.291 56.3306 44.291C54.5845 44.291 53.1798 45.6957 53.1798 47.4418C53.1798 49.1878 54.5845 50.5926 56.3306 50.5926Z" fill="white"/>
<path d="M67.8835 25.3862L65.4154 35.2456C67.5028 37.1886 69.1832 39.5517 70.3385 42.1904H72.0845C74.4082 42.1904 76.2856 44.0678 76.2856 46.3915V58.9947C76.2856 61.3184 74.4082 63.1957 72.0845 63.1957H67.8835C66.6888 64.7842 65.2709 66.2021 63.6824 67.3968V75.7989C63.6824 78.1226 61.8051 79.9999 59.4814 79.9999H55.2803C52.9566 79.9999 51.0793 78.1226 51.0793 75.7989V71.5978H34.2751V75.7989C34.2751 78.1226 32.3977 79.9999 30.074 79.9999H25.8729C23.5492 79.9999 21.6719 78.1226 21.6719 75.7989V67.3968C17.0901 63.9572 13.9656 58.7058 13.3735 52.6931H9.59386C4.66288 52.6931 0.666626 48.7021 0.666626 43.7658C0.666626 38.8296 4.66288 34.8386 9.59386 34.8386H10.119C11.8585 34.8386 13.2698 36.2433 13.2698 37.9894C13.2698 39.7355 11.8585 41.1402 10.119 41.1402H9.59386C8.14319 41.1402 6.96821 42.2036 6.96821 43.7658C6.96821 45.21 8.14319 46.3915 9.59386 46.3915H13.6899C15.6329 36.6897 24.1138 29.5873 34.2751 29.5873H51.0793C52.1033 29.5873 53.1141 29.6661 54.0988 29.7973C56.4094 27.106 59.849 25.3862 63.6824 25.3862H67.8835ZM56.3306 50.5926C58.0766 50.5926 59.4814 49.1878 59.4814 47.4418C59.4814 45.6957 58.0766 44.291 56.3306 44.291C54.5845 44.291 53.1798 45.6957 53.1798 47.4418C53.1798 49.1878 54.5845 50.5926 56.3306 50.5926Z" fill="url(#paint0_linear_16677_251357)" fill-opacity="0.88"/>
<path d="M67.8835 25.3862L65.4154 35.2456C67.5028 37.1886 69.1832 39.5517 70.3385 42.1904H72.0845C74.4082 42.1904 76.2856 44.0678 76.2856 46.3915V58.9947C76.2856 61.3184 74.4082 63.1957 72.0845 63.1957H67.8835C66.6888 64.7842 65.2709 66.2021 63.6824 67.3968V75.7989C63.6824 78.1226 61.8051 79.9999 59.4814 79.9999H55.2803C52.9566 79.9999 51.0793 78.1226 51.0793 75.7989V71.5978H34.2751V75.7989C34.2751 78.1226 32.3977 79.9999 30.074 79.9999H25.8729C23.5492 79.9999 21.6719 78.1226 21.6719 75.7989V67.3968C17.0901 63.9572 13.9656 58.7058 13.3735 52.6931H9.59386C4.66288 52.6931 0.666626 48.7021 0.666626 43.7658C0.666626 38.8296 4.66288 34.8386 9.59386 34.8386H10.119C11.8585 34.8386 13.2698 36.2433 13.2698 37.9894C13.2698 39.7355 11.8585 41.1402 10.119 41.1402H9.59386C8.14319 41.1402 6.96821 42.2036 6.96821 43.7658C6.96821 45.21 8.14319 46.3915 9.59386 46.3915H13.6899C15.6329 36.6897 24.1138 29.5873 34.2751 29.5873H51.0793C52.1033 29.5873 53.1141 29.6661 54.0988 29.7973C56.4094 27.106 59.849 25.3862 63.6824 25.3862H67.8835ZM56.3306 50.5926C58.0766 50.5926 59.4814 49.1878 59.4814 47.4418C59.4814 45.6957 58.0766 44.291 56.3306 44.291C54.5845 44.291 53.1798 45.6957 53.1798 47.4418C53.1798 49.1878 54.5845 50.5926 56.3306 50.5926Z" fill="url(#paint1_linear_16677_251357)"/>
<g opacity="0.4">
<path fill-rule="evenodd" clip-rule="evenodd" d="M23.641 18.3796C23.641 8.22841 31.8676 0 42.0206 0C52.1736 0 60.4002 8.22841 60.4002 18.3796C60.4002 18.9832 60.3711 19.58 60.3143 20.1686C57.4264 20.7069 54.8821 22.2308 53.0486 24.3663C52.064 24.235 51.0531 24.1563 50.0291 24.1563H41.0069C39.7927 23.7466 38.7512 22.9646 38.0134 21.9457H44.1738C44.8381 21.9457 45.3817 21.4021 45.3817 20.7378C45.3817 20.0734 44.8381 19.5299 44.1738 19.5299H36.9716C36.9036 19.1599 36.8659 18.7749 36.8659 18.3823C36.8659 17.952 36.9112 17.5217 36.9942 17.114H44.1738C44.8381 17.114 45.3817 16.5705 45.3817 15.9061C45.3817 15.2418 44.8381 14.6982 44.1738 14.6982H38.0964C39.2062 13.2336 40.9728 12.2823 42.9583 12.2823H46.0536C47.0577 12.2823 47.8655 11.4745 47.8655 10.4705C47.8655 9.46638 47.0577 8.65858 46.0536 8.65858H42.9583C38.8891 8.65858 35.4088 11.1575 33.9593 14.6982H32.0946C31.4302 14.6982 30.8867 15.2418 30.8867 15.9061C30.8867 16.5705 31.4302 17.114 32.0946 17.114H33.3176C33.2648 17.5293 33.2346 17.952 33.2346 18.3823C33.2346 18.7749 33.2572 19.1524 33.3025 19.5299H32.0946C31.4302 19.5299 30.8867 20.0734 30.8867 20.7378C30.8867 21.4021 31.4302 21.9457 32.0946 21.9457H33.914C34.2266 22.7388 34.641 23.481 35.141 24.1563H33.2249C30.3722 24.1563 27.6519 24.7161 25.1716 25.736C24.1871 23.4836 23.641 20.9955 23.641 18.3796Z" fill="white"/>
<path fill-rule="evenodd" clip-rule="evenodd" d="M23.641 18.3796C23.641 8.22841 31.8676 0 42.0206 0C52.1736 0 60.4002 8.22841 60.4002 18.3796C60.4002 18.9832 60.3711 19.58 60.3143 20.1686C57.4264 20.7069 54.8821 22.2308 53.0486 24.3663C52.064 24.235 51.0531 24.1563 50.0291 24.1563H41.0069C39.7927 23.7466 38.7512 22.9646 38.0134 21.9457H44.1738C44.8381 21.9457 45.3817 21.4021 45.3817 20.7378C45.3817 20.0734 44.8381 19.5299 44.1738 19.5299H36.9716C36.9036 19.1599 36.8659 18.7749 36.8659 18.3823C36.8659 17.952 36.9112 17.5217 36.9942 17.114H44.1738C44.8381 17.114 45.3817 16.5705 45.3817 15.9061C45.3817 15.2418 44.8381 14.6982 44.1738 14.6982H38.0964C39.2062 13.2336 40.9728 12.2823 42.9583 12.2823H46.0536C47.0577 12.2823 47.8655 11.4745 47.8655 10.4705C47.8655 9.46638 47.0577 8.65858 46.0536 8.65858H42.9583C38.8891 8.65858 35.4088 11.1575 33.9593 14.6982H32.0946C31.4302 14.6982 30.8867 15.2418 30.8867 15.9061C30.8867 16.5705 31.4302 17.114 32.0946 17.114H33.3176C33.2648 17.5293 33.2346 17.952 33.2346 18.3823C33.2346 18.7749 33.2572 19.1524 33.3025 19.5299H32.0946C31.4302 19.5299 30.8867 20.0734 30.8867 20.7378C30.8867 21.4021 31.4302 21.9457 32.0946 21.9457H33.914C34.2266 22.7388 34.641 23.481 35.141 24.1563H33.2249C30.3722 24.1563 27.6519 24.7161 25.1716 25.736C24.1871 23.4836 23.641 20.9955 23.641 18.3796Z" fill="url(#paint2_linear_16677_251357)" fill-opacity="0.88"/>
<path fill-rule="evenodd" clip-rule="evenodd" d="M23.641 18.3796C23.641 8.22841 31.8676 0 42.0206 0C52.1736 0 60.4002 8.22841 60.4002 18.3796C60.4002 18.9832 60.3711 19.58 60.3143 20.1686C57.4264 20.7069 54.8821 22.2308 53.0486 24.3663C52.064 24.235 51.0531 24.1563 50.0291 24.1563H41.0069C39.7927 23.7466 38.7512 22.9646 38.0134 21.9457H44.1738C44.8381 21.9457 45.3817 21.4021 45.3817 20.7378C45.3817 20.0734 44.8381 19.5299 44.1738 19.5299H36.9716C36.9036 19.1599 36.8659 18.7749 36.8659 18.3823C36.8659 17.952 36.9112 17.5217 36.9942 17.114H44.1738C44.8381 17.114 45.3817 16.5705 45.3817 15.9061C45.3817 15.2418 44.8381 14.6982 44.1738 14.6982H38.0964C39.2062 13.2336 40.9728 12.2823 42.9583 12.2823H46.0536C47.0577 12.2823 47.8655 11.4745 47.8655 10.4705C47.8655 9.46638 47.0577 8.65858 46.0536 8.65858H42.9583C38.8891 8.65858 35.4088 11.1575 33.9593 14.6982H32.0946C31.4302 14.6982 30.8867 15.2418 30.8867 15.9061C30.8867 16.5705 31.4302 17.114 32.0946 17.114H33.3176C33.2648 17.5293 33.2346 17.952 33.2346 18.3823C33.2346 18.7749 33.2572 19.1524 33.3025 19.5299H32.0946C31.4302 19.5299 30.8867 20.0734 30.8867 20.7378C30.8867 21.4021 31.4302 21.9457 32.0946 21.9457H33.914C34.2266 22.7388 34.641 23.481 35.141 24.1563H33.2249C30.3722 24.1563 27.6519 24.7161 25.1716 25.736C24.1871 23.4836 23.641 20.9955 23.641 18.3796Z" fill="url(#paint3_linear_16677_251357)"/>
</g>
<defs>
<linearGradient id="paint0_linear_16677_251357" x1="38.4761" y1="25.3862" x2="38.4761" y2="79.9999" gradientUnits="userSpaceOnUse">
<stop stop-color="#15C8DC"/>
<stop offset="1" stop-color="#128E9C"/>
</linearGradient>
<linearGradient id="paint1_linear_16677_251357" x1="38.4761" y1="25.3862" x2="38.4761" y2="79.9999" gradientUnits="userSpaceOnUse">
<stop stop-color="#15C8DC"/>
<stop offset="1" stop-color="#128E9C"/>
</linearGradient>
<linearGradient id="paint2_linear_16677_251357" x1="42.0206" y1="0" x2="42.0206" y2="25.736" gradientUnits="userSpaceOnUse">
<stop stop-color="#15C8DC"/>
<stop offset="1" stop-color="#128E9C"/>
</linearGradient>
<linearGradient id="paint3_linear_16677_251357" x1="42.0206" y1="0" x2="42.0206" y2="25.736" gradientUnits="userSpaceOnUse">
<stop stop-color="#15C8DC"/>
<stop offset="1" stop-color="#128E9C"/>
</linearGradient>
</defs>
</svg>
