<svg width="81" height="64" viewBox="0 0 81 64" fill="none" xmlns="http://www.w3.org/2000/svg">
<path d="M46.3333 20C47.4333 20 48.3333 20.9 48.3333 22V26C48.3333 27.1 47.4333 28 46.3333 28H2.33325C1.22875 28 0.333252 27.1 0.333252 26V22C0.333252 20.9 1.22875 20 2.33325 20H46.3333ZM4.33325 32H44.3333V60C44.3333 62.2125 42.5458 64 40.3333 64H8.33325C6.1245 64 4.33325 62.2125 4.33325 60V32ZM18.3333 44H30.3333C31.4333 44 32.3333 43.1 32.3333 42C32.3333 40.9 31.4333 40 30.3333 40H18.3333C17.2333 40 16.3333 40.9 16.3333 42C16.3333 43.1 17.2333 44 18.3333 44Z" fill="white"/>
<path d="M46.3333 20C47.4333 20 48.3333 20.9 48.3333 22V26C48.3333 27.1 47.4333 28 46.3333 28H2.33325C1.22875 28 0.333252 27.1 0.333252 26V22C0.333252 20.9 1.22875 20 2.33325 20H46.3333ZM4.33325 32H44.3333V60C44.3333 62.2125 42.5458 64 40.3333 64H8.33325C6.1245 64 4.33325 62.2125 4.33325 60V32ZM18.3333 44H30.3333C31.4333 44 32.3333 43.1 32.3333 42C32.3333 40.9 31.4333 40 30.3333 40H18.3333C17.2333 40 16.3333 40.9 16.3333 42C16.3333 43.1 17.2333 44 18.3333 44Z" fill="url(#paint0_linear_16677_251370)" fill-opacity="0.88"/>
<path d="M46.3333 20C47.4333 20 48.3333 20.9 48.3333 22V26C48.3333 27.1 47.4333 28 46.3333 28H2.33325C1.22875 28 0.333252 27.1 0.333252 26V22C0.333252 20.9 1.22875 20 2.33325 20H46.3333ZM4.33325 32H44.3333V60C44.3333 62.2125 42.5458 64 40.3333 64H8.33325C6.1245 64 4.33325 62.2125 4.33325 60V32ZM18.3333 44H30.3333C31.4333 44 32.3333 43.1 32.3333 42C32.3333 40.9 31.4333 40 30.3333 40H18.3333C17.2333 40 16.3333 40.9 16.3333 42C16.3333 43.1 17.2333 44 18.3333 44Z" fill="url(#paint1_linear_16677_251370)"/>
<g opacity="0.4">
<path d="M74.3333 0C77.6458 0 80.3333 2.68625 80.3333 6V58C80.3333 61.3125 77.6458 64 74.3333 64H47.9958C48.2083 63.2625 48.3333 62.7 48.3333 62V31.6625C50.6583 30.8375 52.3333 28.6125 52.3333 26V22C52.3333 18.6875 49.6458 16 46.3333 16H32.3333V6C32.3333 2.68625 35.0208 0 38.3333 0H74.3333ZM63.7458 32.5875C62.9708 31.8 61.6958 31.8 60.9208 32.5875L52.9208 40.5875C52.1333 41.3625 52.1333 42.6375 52.9208 43.4125C53.6958 44.2 54.9708 44.2 55.7458 43.4125L60.3333 38.825V54C60.3333 55.1 61.2333 56 62.3333 56C63.4333 56 64.3333 55.1 64.3333 54V38.825L68.9208 43.4125C69.6958 44.2 70.9707 44.2 71.7458 43.4125C72.5332 42.6375 72.5332 41.3625 71.7458 40.5875L63.7458 32.5875Z" fill="white"/>
<path d="M74.3333 0C77.6458 0 80.3333 2.68625 80.3333 6V58C80.3333 61.3125 77.6458 64 74.3333 64H47.9958C48.2083 63.2625 48.3333 62.7 48.3333 62V31.6625C50.6583 30.8375 52.3333 28.6125 52.3333 26V22C52.3333 18.6875 49.6458 16 46.3333 16H32.3333V6C32.3333 2.68625 35.0208 0 38.3333 0H74.3333ZM63.7458 32.5875C62.9708 31.8 61.6958 31.8 60.9208 32.5875L52.9208 40.5875C52.1333 41.3625 52.1333 42.6375 52.9208 43.4125C53.6958 44.2 54.9708 44.2 55.7458 43.4125L60.3333 38.825V54C60.3333 55.1 61.2333 56 62.3333 56C63.4333 56 64.3333 55.1 64.3333 54V38.825L68.9208 43.4125C69.6958 44.2 70.9707 44.2 71.7458 43.4125C72.5332 42.6375 72.5332 41.3625 71.7458 40.5875L63.7458 32.5875Z" fill="url(#paint2_linear_16677_251370)" fill-opacity="0.88"/>
<path d="M74.3333 0C77.6458 0 80.3333 2.68625 80.3333 6V58C80.3333 61.3125 77.6458 64 74.3333 64H47.9958C48.2083 63.2625 48.3333 62.7 48.3333 62V31.6625C50.6583 30.8375 52.3333 28.6125 52.3333 26V22C52.3333 18.6875 49.6458 16 46.3333 16H32.3333V6C32.3333 2.68625 35.0208 0 38.3333 0H74.3333ZM63.7458 32.5875C62.9708 31.8 61.6958 31.8 60.9208 32.5875L52.9208 40.5875C52.1333 41.3625 52.1333 42.6375 52.9208 43.4125C53.6958 44.2 54.9708 44.2 55.7458 43.4125L60.3333 38.825V54C60.3333 55.1 61.2333 56 62.3333 56C63.4333 56 64.3333 55.1 64.3333 54V38.825L68.9208 43.4125C69.6958 44.2 70.9707 44.2 71.7458 43.4125C72.5332 42.6375 72.5332 41.3625 71.7458 40.5875L63.7458 32.5875Z" fill="url(#paint3_linear_16677_251370)"/>
</g>
<defs>
<linearGradient id="paint0_linear_16677_251370" x1="24.3333" y1="20" x2="24.3333" y2="64" gradientUnits="userSpaceOnUse">
<stop stop-color="#15C8DC"/>
<stop offset="1" stop-color="#128E9C"/>
</linearGradient>
<linearGradient id="paint1_linear_16677_251370" x1="24.3333" y1="20" x2="24.3333" y2="64" gradientUnits="userSpaceOnUse">
<stop stop-color="#15C8DC"/>
<stop offset="1" stop-color="#128E9C"/>
</linearGradient>
<linearGradient id="paint2_linear_16677_251370" x1="56.3333" y1="0" x2="56.3333" y2="64" gradientUnits="userSpaceOnUse">
<stop stop-color="#15C8DC"/>
<stop offset="1" stop-color="#128E9C"/>
</linearGradient>
<linearGradient id="paint3_linear_16677_251370" x1="56.3333" y1="0" x2="56.3333" y2="64" gradientUnits="userSpaceOnUse">
<stop stop-color="#15C8DC"/>
<stop offset="1" stop-color="#128E9C"/>
</linearGradient>
</defs>
</svg>
