<svg width="73" height="64" viewBox="0 0 73 64" fill="none" xmlns="http://www.w3.org/2000/svg">
<path d="M16.2208 4C16.2208 1.79125 18.1208 0 20.2208 0H36.2208C38.5458 0 40.3333 1.79125 40.3333 4V20C40.3333 22.2125 38.5458 24 36.2208 24C34.1208 24 32.2208 22.2125 32.2208 20V13.6625L7.162 38.825C5.5995 40.3875 3.067 40.3875 1.50475 38.825C-0.0572481 37.2625 -0.0572481 34.7375 1.50475 33.175L26.6708 8H20.2208C18.1208 8 16.2208 6.20875 16.2208 4Z" fill="white"/>
<path d="M16.2208 4C16.2208 1.79125 18.1208 0 20.2208 0H36.2208C38.5458 0 40.3333 1.79125 40.3333 4V20C40.3333 22.2125 38.5458 24 36.2208 24C34.1208 24 32.2208 22.2125 32.2208 20V13.6625L7.162 38.825C5.5995 40.3875 3.067 40.3875 1.50475 38.825C-0.0572481 37.2625 -0.0572481 34.7375 1.50475 33.175L26.6708 8H20.2208C18.1208 8 16.2208 6.20875 16.2208 4Z" fill="url(#paint0_linear_16677_251338)" fill-opacity="0.88"/>
<path d="M16.2208 4C16.2208 1.79125 18.1208 0 20.2208 0H36.2208C38.5458 0 40.3333 1.79125 40.3333 4V20C40.3333 22.2125 38.5458 24 36.2208 24C34.1208 24 32.2208 22.2125 32.2208 20V13.6625L7.162 38.825C5.5995 40.3875 3.067 40.3875 1.50475 38.825C-0.0572481 37.2625 -0.0572481 34.7375 1.50475 33.175L26.6708 8H20.2208C18.1208 8 16.2208 6.20875 16.2208 4Z" fill="url(#paint1_linear_16677_251338)"/>
<g opacity="0.4">
<path d="M60.3333 10C60.3333 6.68625 63.0208 4 66.3333 4C69.6458 4 72.3333 6.68625 72.3333 10C72.3333 13.3125 69.6458 16 66.3333 16C63.0208 16 60.3333 13.3125 60.3333 10ZM44.3333 26C44.3333 22.6875 47.0208 20 50.3333 20C53.6458 20 56.3333 22.6875 56.3333 26C56.3333 29.3125 53.6458 32 50.3333 32C47.0208 32 44.3333 29.3125 44.3333 26ZM56.3333 42C56.3333 45.3125 53.6458 48 50.3333 48C47.0208 48 44.3333 45.3125 44.3333 42C44.3333 38.6875 47.0208 36 50.3333 36C53.6458 36 56.3333 38.6875 56.3333 42ZM44.3333 58C44.3333 54.6875 47.0208 52 50.3333 52C53.6458 52 56.3333 54.6875 56.3333 58C56.3333 61.3125 53.6458 64 50.3333 64C47.0208 64 44.3333 61.3125 44.3333 58ZM60.3333 58C60.3333 54.6875 63.0208 52 66.3333 52C69.6458 52 72.3333 54.6875 72.3333 58C72.3333 61.3125 69.6458 64 66.3333 64C63.0208 64 60.3333 61.3125 60.3333 58ZM40.3333 42C40.3333 45.3125 37.6458 48 34.3333 48C31.0208 48 28.3333 45.3125 28.3333 42C28.3333 38.6875 31.0208 36 34.3333 36C37.6458 36 40.3333 38.6875 40.3333 42ZM28.3333 58C28.3333 54.6875 31.0208 52 34.3333 52C37.6458 52 40.3333 54.6875 40.3333 58C40.3333 61.3125 37.6458 64 34.3333 64C31.0208 64 28.3333 61.3125 28.3333 58ZM24.3333 58C24.3333 61.3125 21.6458 64 18.3333 64C15.0208 64 12.3333 61.3125 12.3333 58C12.3333 54.6875 15.0208 52 18.3333 52C21.6458 52 24.3333 54.6875 24.3333 58ZM60.3333 42C60.3333 38.6875 63.0208 36 66.3333 36C69.6458 36 72.3333 38.6875 72.3333 42C72.3333 45.3125 69.6458 48 66.3333 48C63.0208 48 60.3333 45.3125 60.3333 42ZM72.3333 26C72.3333 29.3125 69.6458 32 66.3333 32C63.0208 32 60.3333 29.3125 60.3333 26C60.3333 22.6875 63.0208 20 66.3333 20C69.6458 20 72.3333 22.6875 72.3333 26Z" fill="white"/>
<path d="M60.3333 10C60.3333 6.68625 63.0208 4 66.3333 4C69.6458 4 72.3333 6.68625 72.3333 10C72.3333 13.3125 69.6458 16 66.3333 16C63.0208 16 60.3333 13.3125 60.3333 10ZM44.3333 26C44.3333 22.6875 47.0208 20 50.3333 20C53.6458 20 56.3333 22.6875 56.3333 26C56.3333 29.3125 53.6458 32 50.3333 32C47.0208 32 44.3333 29.3125 44.3333 26ZM56.3333 42C56.3333 45.3125 53.6458 48 50.3333 48C47.0208 48 44.3333 45.3125 44.3333 42C44.3333 38.6875 47.0208 36 50.3333 36C53.6458 36 56.3333 38.6875 56.3333 42ZM44.3333 58C44.3333 54.6875 47.0208 52 50.3333 52C53.6458 52 56.3333 54.6875 56.3333 58C56.3333 61.3125 53.6458 64 50.3333 64C47.0208 64 44.3333 61.3125 44.3333 58ZM60.3333 58C60.3333 54.6875 63.0208 52 66.3333 52C69.6458 52 72.3333 54.6875 72.3333 58C72.3333 61.3125 69.6458 64 66.3333 64C63.0208 64 60.3333 61.3125 60.3333 58ZM40.3333 42C40.3333 45.3125 37.6458 48 34.3333 48C31.0208 48 28.3333 45.3125 28.3333 42C28.3333 38.6875 31.0208 36 34.3333 36C37.6458 36 40.3333 38.6875 40.3333 42ZM28.3333 58C28.3333 54.6875 31.0208 52 34.3333 52C37.6458 52 40.3333 54.6875 40.3333 58C40.3333 61.3125 37.6458 64 34.3333 64C31.0208 64 28.3333 61.3125 28.3333 58ZM24.3333 58C24.3333 61.3125 21.6458 64 18.3333 64C15.0208 64 12.3333 61.3125 12.3333 58C12.3333 54.6875 15.0208 52 18.3333 52C21.6458 52 24.3333 54.6875 24.3333 58ZM60.3333 42C60.3333 38.6875 63.0208 36 66.3333 36C69.6458 36 72.3333 38.6875 72.3333 42C72.3333 45.3125 69.6458 48 66.3333 48C63.0208 48 60.3333 45.3125 60.3333 42ZM72.3333 26C72.3333 29.3125 69.6458 32 66.3333 32C63.0208 32 60.3333 29.3125 60.3333 26C60.3333 22.6875 63.0208 20 66.3333 20C69.6458 20 72.3333 22.6875 72.3333 26Z" fill="url(#paint2_linear_16677_251338)" fill-opacity="0.88"/>
<path d="M60.3333 10C60.3333 6.68625 63.0208 4 66.3333 4C69.6458 4 72.3333 6.68625 72.3333 10C72.3333 13.3125 69.6458 16 66.3333 16C63.0208 16 60.3333 13.3125 60.3333 10ZM44.3333 26C44.3333 22.6875 47.0208 20 50.3333 20C53.6458 20 56.3333 22.6875 56.3333 26C56.3333 29.3125 53.6458 32 50.3333 32C47.0208 32 44.3333 29.3125 44.3333 26ZM56.3333 42C56.3333 45.3125 53.6458 48 50.3333 48C47.0208 48 44.3333 45.3125 44.3333 42C44.3333 38.6875 47.0208 36 50.3333 36C53.6458 36 56.3333 38.6875 56.3333 42ZM44.3333 58C44.3333 54.6875 47.0208 52 50.3333 52C53.6458 52 56.3333 54.6875 56.3333 58C56.3333 61.3125 53.6458 64 50.3333 64C47.0208 64 44.3333 61.3125 44.3333 58ZM60.3333 58C60.3333 54.6875 63.0208 52 66.3333 52C69.6458 52 72.3333 54.6875 72.3333 58C72.3333 61.3125 69.6458 64 66.3333 64C63.0208 64 60.3333 61.3125 60.3333 58ZM40.3333 42C40.3333 45.3125 37.6458 48 34.3333 48C31.0208 48 28.3333 45.3125 28.3333 42C28.3333 38.6875 31.0208 36 34.3333 36C37.6458 36 40.3333 38.6875 40.3333 42ZM28.3333 58C28.3333 54.6875 31.0208 52 34.3333 52C37.6458 52 40.3333 54.6875 40.3333 58C40.3333 61.3125 37.6458 64 34.3333 64C31.0208 64 28.3333 61.3125 28.3333 58ZM24.3333 58C24.3333 61.3125 21.6458 64 18.3333 64C15.0208 64 12.3333 61.3125 12.3333 58C12.3333 54.6875 15.0208 52 18.3333 52C21.6458 52 24.3333 54.6875 24.3333 58ZM60.3333 42C60.3333 38.6875 63.0208 36 66.3333 36C69.6458 36 72.3333 38.6875 72.3333 42C72.3333 45.3125 69.6458 48 66.3333 48C63.0208 48 60.3333 45.3125 60.3333 42ZM72.3333 26C72.3333 29.3125 69.6458 32 66.3333 32C63.0208 32 60.3333 29.3125 60.3333 26C60.3333 22.6875 63.0208 20 66.3333 20C69.6458 20 72.3333 22.6875 72.3333 26Z" fill="url(#paint3_linear_16677_251338)"/>
</g>
<defs>
<linearGradient id="paint0_linear_16677_251338" x1="20.3333" y1="0" x2="20.3333" y2="39.9969" gradientUnits="userSpaceOnUse">
<stop stop-color="#15C8DC"/>
<stop offset="1" stop-color="#128E9C"/>
</linearGradient>
<linearGradient id="paint1_linear_16677_251338" x1="20.3333" y1="0" x2="20.3333" y2="39.9969" gradientUnits="userSpaceOnUse">
<stop stop-color="#15C8DC"/>
<stop offset="1" stop-color="#128E9C"/>
</linearGradient>
<linearGradient id="paint2_linear_16677_251338" x1="42.3333" y1="4" x2="42.3333" y2="64" gradientUnits="userSpaceOnUse">
<stop stop-color="#15C8DC"/>
<stop offset="1" stop-color="#128E9C"/>
</linearGradient>
<linearGradient id="paint3_linear_16677_251338" x1="42.3333" y1="4" x2="42.3333" y2="64" gradientUnits="userSpaceOnUse">
<stop stop-color="#15C8DC"/>
<stop offset="1" stop-color="#128E9C"/>
</linearGradient>
</defs>
</svg>
