<svg width="73" height="72" viewBox="0 0 73 72" fill="none" xmlns="http://www.w3.org/2000/svg">
<path d="M18.9333 11.9167L15.7553 15.0961C14.8834 15.9821 13.4547 15.9821 12.5758 15.0961C11.6969 14.2243 11.6969 12.7941 12.5758 11.9167L15.7553 8.73438L18.9333 11.9167ZM30.1831 23.1679L27.0051 26.3459C26.1332 27.2319 24.6989 27.2319 23.827 26.3459C22.9411 25.4741 22.9411 24.0397 23.827 23.1679L27.0051 19.9898L30.1831 23.1679ZM41.433 34.4177L38.2549 37.5958C37.383 38.4817 35.9487 38.4817 35.0768 37.5958C34.1909 36.7239 34.1909 35.2895 35.0768 34.4177L38.2549 31.2396L41.433 34.4177ZM52.6828 45.6675L49.5047 48.8456C48.6328 49.7315 47.1985 49.7315 46.3266 48.8456C45.4407 47.9737 45.4407 46.5394 46.3266 45.6675L49.5047 42.4894L52.6828 45.6675ZM63.9326 56.9173L60.7545 60.0954C59.8826 60.9813 58.4483 60.9813 57.5764 60.0954C56.6905 59.2235 56.6905 57.7892 57.5764 56.9173L60.7545 53.7392L63.9326 56.9173Z" fill="white"/>
<path d="M18.9333 11.9167L15.7553 15.0961C14.8834 15.9821 13.4547 15.9821 12.5758 15.0961C11.6969 14.2243 11.6969 12.7941 12.5758 11.9167L15.7553 8.73438L18.9333 11.9167ZM30.1831 23.1679L27.0051 26.3459C26.1332 27.2319 24.6989 27.2319 23.827 26.3459C22.9411 25.4741 22.9411 24.0397 23.827 23.1679L27.0051 19.9898L30.1831 23.1679ZM41.433 34.4177L38.2549 37.5958C37.383 38.4817 35.9487 38.4817 35.0768 37.5958C34.1909 36.7239 34.1909 35.2895 35.0768 34.4177L38.2549 31.2396L41.433 34.4177ZM52.6828 45.6675L49.5047 48.8456C48.6328 49.7315 47.1985 49.7315 46.3266 48.8456C45.4407 47.9737 45.4407 46.5394 46.3266 45.6675L49.5047 42.4894L52.6828 45.6675ZM63.9326 56.9173L60.7545 60.0954C59.8826 60.9813 58.4483 60.9813 57.5764 60.0954C56.6905 59.2235 56.6905 57.7892 57.5764 56.9173L60.7545 53.7392L63.9326 56.9173Z" fill="url(#paint0_linear_16677_251329)" fill-opacity="0.88"/>
<path d="M18.9333 11.9167L15.7553 15.0961C14.8834 15.9821 13.4547 15.9821 12.5758 15.0961C11.6969 14.2243 11.6969 12.7941 12.5758 11.9167L15.7553 8.73438L18.9333 11.9167ZM30.1831 23.1679L27.0051 26.3459C26.1332 27.2319 24.6989 27.2319 23.827 26.3459C22.9411 25.4741 22.9411 24.0397 23.827 23.1679L27.0051 19.9898L30.1831 23.1679ZM41.433 34.4177L38.2549 37.5958C37.383 38.4817 35.9487 38.4817 35.0768 37.5958C34.1909 36.7239 34.1909 35.2895 35.0768 34.4177L38.2549 31.2396L41.433 34.4177ZM52.6828 45.6675L49.5047 48.8456C48.6328 49.7315 47.1985 49.7315 46.3266 48.8456C45.4407 47.9737 45.4407 46.5394 46.3266 45.6675L49.5047 42.4894L52.6828 45.6675ZM63.9326 56.9173L60.7545 60.0954C59.8826 60.9813 58.4483 60.9813 57.5764 60.0954C56.6905 59.2235 56.6905 57.7892 57.5764 56.9173L60.7545 53.7392L63.9326 56.9173Z" fill="url(#paint1_linear_16677_251329)"/>
<g opacity="0.4">
<path d="M15.7554 8.72702L12.576 11.9093C11.6971 12.7868 11.6971 14.2169 12.576 15.0888C13.4534 15.9747 14.8836 15.9747 15.7554 15.0888L18.9335 11.9093L27.0052 19.9825L23.8272 23.1605C22.9412 24.0324 22.9412 25.4667 23.8272 26.3386C24.699 27.2245 26.1334 27.2245 27.0052 26.3386L30.1833 23.1605L38.255 31.2323L35.077 34.4103C34.191 35.2822 34.191 36.7165 35.077 37.5884C35.9488 38.4743 37.3832 38.4743 38.255 37.5884L41.4331 34.4103L49.5048 42.4821L46.3268 45.6601C45.4409 46.532 45.4409 47.9663 46.3268 48.8382C47.1986 49.7241 48.633 49.7241 49.5048 48.8382L52.6829 45.6601L60.7547 53.7319L57.5766 56.9099C56.6907 57.7818 56.6907 59.2162 57.5766 60.088C58.4484 60.9739 59.8828 60.9739 60.7547 60.088L63.9327 56.9099L71.3435 64.3208C72.6373 65.6004 73.0169 67.541 72.3279 69.2144C71.6248 70.9019 69.9795 71.9987 68.1655 71.9987H9.66647C4.69546 71.9987 0.666626 67.9629 0.666626 62.9989V4.49991C0.666626 2.68025 1.76292 1.03918 3.44392 0.342681C5.12577 -0.353823 7.06214 0.0311317 8.34884 1.31804L15.7554 8.72702ZM18.6663 35.9994V53.9991H36.666L18.6663 35.9994Z" fill="white"/>
<path d="M15.7554 8.72702L12.576 11.9093C11.6971 12.7868 11.6971 14.2169 12.576 15.0888C13.4534 15.9747 14.8836 15.9747 15.7554 15.0888L18.9335 11.9093L27.0052 19.9825L23.8272 23.1605C22.9412 24.0324 22.9412 25.4667 23.8272 26.3386C24.699 27.2245 26.1334 27.2245 27.0052 26.3386L30.1833 23.1605L38.255 31.2323L35.077 34.4103C34.191 35.2822 34.191 36.7165 35.077 37.5884C35.9488 38.4743 37.3832 38.4743 38.255 37.5884L41.4331 34.4103L49.5048 42.4821L46.3268 45.6601C45.4409 46.532 45.4409 47.9663 46.3268 48.8382C47.1986 49.7241 48.633 49.7241 49.5048 48.8382L52.6829 45.6601L60.7547 53.7319L57.5766 56.9099C56.6907 57.7818 56.6907 59.2162 57.5766 60.088C58.4484 60.9739 59.8828 60.9739 60.7547 60.088L63.9327 56.9099L71.3435 64.3208C72.6373 65.6004 73.0169 67.541 72.3279 69.2144C71.6248 70.9019 69.9795 71.9987 68.1655 71.9987H9.66647C4.69546 71.9987 0.666626 67.9629 0.666626 62.9989V4.49991C0.666626 2.68025 1.76292 1.03918 3.44392 0.342681C5.12577 -0.353823 7.06214 0.0311317 8.34884 1.31804L15.7554 8.72702ZM18.6663 35.9994V53.9991H36.666L18.6663 35.9994Z" fill="url(#paint2_linear_16677_251329)" fill-opacity="0.88"/>
<path d="M15.7554 8.72702L12.576 11.9093C11.6971 12.7868 11.6971 14.2169 12.576 15.0888C13.4534 15.9747 14.8836 15.9747 15.7554 15.0888L18.9335 11.9093L27.0052 19.9825L23.8272 23.1605C22.9412 24.0324 22.9412 25.4667 23.8272 26.3386C24.699 27.2245 26.1334 27.2245 27.0052 26.3386L30.1833 23.1605L38.255 31.2323L35.077 34.4103C34.191 35.2822 34.191 36.7165 35.077 37.5884C35.9488 38.4743 37.3832 38.4743 38.255 37.5884L41.4331 34.4103L49.5048 42.4821L46.3268 45.6601C45.4409 46.532 45.4409 47.9663 46.3268 48.8382C47.1986 49.7241 48.633 49.7241 49.5048 48.8382L52.6829 45.6601L60.7547 53.7319L57.5766 56.9099C56.6907 57.7818 56.6907 59.2162 57.5766 60.088C58.4484 60.9739 59.8828 60.9739 60.7547 60.088L63.9327 56.9099L71.3435 64.3208C72.6373 65.6004 73.0169 67.541 72.3279 69.2144C71.6248 70.9019 69.9795 71.9987 68.1655 71.9987H9.66647C4.69546 71.9987 0.666626 67.9629 0.666626 62.9989V4.49991C0.666626 2.68025 1.76292 1.03918 3.44392 0.342681C5.12577 -0.353823 7.06214 0.0311317 8.34884 1.31804L15.7554 8.72702ZM18.6663 35.9994V53.9991H36.666L18.6663 35.9994Z" fill="url(#paint3_linear_16677_251329)"/>
</g>
<defs>
<linearGradient id="paint0_linear_16677_251329" x1="37.9246" y1="8.73437" x2="37.9246" y2="60.7598" gradientUnits="userSpaceOnUse">
<stop stop-color="#15C8DC"/>
<stop offset="1" stop-color="#128E9C"/>
</linearGradient>
<linearGradient id="paint1_linear_16677_251329" x1="37.9246" y1="8.73437" x2="37.9246" y2="60.7598" gradientUnits="userSpaceOnUse">
<stop stop-color="#15C8DC"/>
<stop offset="1" stop-color="#128E9C"/>
</linearGradient>
<linearGradient id="paint2_linear_16677_251329" x1="36.6665" y1="0" x2="36.6665" y2="71.9987" gradientUnits="userSpaceOnUse">
<stop stop-color="#15C8DC"/>
<stop offset="1" stop-color="#128E9C"/>
</linearGradient>
<linearGradient id="paint3_linear_16677_251329" x1="36.6665" y1="0" x2="36.6665" y2="71.9987" gradientUnits="userSpaceOnUse">
<stop stop-color="#15C8DC"/>
<stop offset="1" stop-color="#128E9C"/>
</linearGradient>
</defs>
</svg>
