<svg width="56" height="56" viewBox="0 0 56 56" fill="none" xmlns="http://www.w3.org/2000/svg">
<circle cx="28" cy="28" r="28" fill="white"/>
<circle cx="28" cy="28" r="28" fill="url(#paint0_linear_3_35)"/>
<path d="M11.5 15.3386C11.5 14.5996 12.0996 14 12.8386 14H16.8542C17.4956 14 18.0477 14.4568 18.1704 15.0881L21.5336 32.7397H38.7172C39.459 32.7397 40.0557 33.3365 40.0557 34.0783C40.0557 34.82 39.459 35.4168 38.7172 35.4168H20.3735C19.7823 35.4168 19.2301 34.9595 19.1074 34.3292L15.7466 16.6771H12.8386C12.0996 16.6771 11.5 16.0775 11.5 15.3386ZM23.9931 39.8786C23.9931 41.3566 22.794 42.5557 21.316 42.5557C19.8381 42.5557 18.6389 41.3566 18.6389 39.8786C18.6389 38.4007 19.8381 37.2015 21.316 37.2015C22.794 37.2015 23.9931 38.4007 23.9931 39.8786ZM34.7015 39.8786C34.7015 38.4007 35.9007 37.2015 37.3786 37.2015C38.8566 37.2015 40.0557 38.4007 40.0557 39.8786C40.0557 41.3566 38.8566 42.5557 37.3786 42.5557C35.9007 42.5557 34.7015 41.3566 34.7015 39.8786Z" fill="white"/>
<path opacity="0.4" d="M18.2541 15.7847H41.7177C42.8499 15.7847 43.7535 16.9141 43.4356 18.0525L40.4238 28.7631C40.2063 29.5328 39.5036 30.0626 38.706 30.0626H21.0204L18.2541 15.7847Z" fill="white"/>
<defs>
<linearGradient id="paint0_linear_3_35" x1="28" y1="0" x2="28" y2="56" gradientUnits="userSpaceOnUse">
<stop stop-color="#9BCA46"/>
<stop offset="1" stop-color="#659B02"/>
</linearGradient>
</defs>
</svg>
