<svg width="48" height="48" viewBox="0 0 48 48" fill="none" xmlns="http://www.w3.org/2000/svg">
<rect width="48" height="48" rx="24" fill="white"/>
<rect width="48" height="48" rx="24" fill="url(#paint0_linear_16677_251726)" fill-opacity="0.88"/>
<rect width="48" height="48" rx="24" fill="url(#paint1_linear_16677_251726)"/>
<path d="M18.655 26.9425C18.765 26.9425 18.8625 26.985 18.9475 27.07L19.7425 27.9325C19.3025 28.4775 18.76 28.895 18.115 29.185C17.475 29.475 16.705 29.62 15.805 29.62C15 29.62 14.275 29.4825 13.63 29.2075C12.99 28.9325 12.4425 28.55 11.9875 28.06C11.5325 27.57 11.1825 26.985 10.9375 26.305C10.6975 25.625 10.5775 24.8825 10.5775 24.0775C10.5775 23.2625 10.7075 22.5175 10.9675 21.8425C11.2275 21.1625 11.5925 20.5775 12.0625 20.0875C12.5375 19.5975 13.1025 19.2175 13.7575 18.9475C14.4125 18.6725 15.1375 18.535 15.9325 18.535C16.7225 18.535 17.4225 18.665 18.0325 18.925C18.6475 19.185 19.17 19.525 19.6 19.945L18.925 20.8825C18.885 20.9425 18.8325 20.995 18.7675 21.04C18.7075 21.085 18.6225 21.1075 18.5125 21.1075C18.4375 21.1075 18.36 21.0875 18.28 21.0475C18.2 21.0025 18.1125 20.95 18.0175 20.89C17.9225 20.825 17.8125 20.755 17.6875 20.68C17.5625 20.605 17.4175 20.5375 17.2525 20.4775C17.0875 20.4125 16.895 20.36 16.675 20.32C16.46 20.275 16.21 20.2525 15.925 20.2525C15.44 20.2525 14.995 20.34 14.59 20.515C14.19 20.685 13.845 20.935 13.555 21.265C13.265 21.59 13.04 21.99 12.88 22.465C12.72 22.935 12.64 23.4725 12.64 24.0775C12.64 24.6875 12.725 25.23 12.895 25.705C13.07 26.18 13.305 26.58 13.6 26.905C13.895 27.23 14.2425 27.48 14.6425 27.655C15.0425 27.825 15.4725 27.91 15.9325 27.91C16.2075 27.91 16.455 27.895 16.675 27.865C16.9 27.835 17.105 27.7875 17.29 27.7225C17.48 27.6575 17.6575 27.575 17.8225 27.475C17.9925 27.37 18.16 27.2425 18.325 27.0925C18.375 27.0475 18.4275 27.0125 18.4825 26.9875C18.5375 26.9575 18.595 26.9425 18.655 26.9425ZM31.2326 24.0775C31.2326 24.8725 31.1001 25.61 30.8351 26.29C30.5751 26.965 30.2051 27.55 29.7251 28.045C29.2451 28.54 28.6676 28.9275 27.9926 29.2075C27.3176 29.4825 26.5676 29.62 25.7426 29.62C24.9226 29.62 24.1751 29.4825 23.5001 29.2075C22.8251 28.9275 22.2451 28.54 21.7601 28.045C21.2801 27.55 20.9076 26.965 20.6426 26.29C20.3776 25.61 20.2451 24.8725 20.2451 24.0775C20.2451 23.2825 20.3776 22.5475 20.6426 21.8725C20.9076 21.1925 21.2801 20.605 21.7601 20.11C22.2451 19.615 22.8251 19.23 23.5001 18.955C24.1751 18.675 24.9226 18.535 25.7426 18.535C26.2926 18.535 26.8101 18.6 27.2951 18.73C27.7801 18.855 28.2251 19.035 28.6301 19.27C29.0351 19.5 29.3976 19.7825 29.7176 20.1175C30.0426 20.4475 30.3176 20.8175 30.5426 21.2275C30.7676 21.6375 30.9376 22.0825 31.0526 22.5625C31.1726 23.0425 31.2326 23.5475 31.2326 24.0775ZM29.1701 24.0775C29.1701 23.4825 29.0901 22.95 28.9301 22.48C28.7701 22.005 28.5426 21.6025 28.2476 21.2725C27.9526 20.9425 27.5926 20.69 27.1676 20.515C26.7476 20.34 26.2726 20.2525 25.7426 20.2525C25.2126 20.2525 24.7351 20.34 24.3101 20.515C23.8901 20.69 23.5301 20.9425 23.2301 21.2725C22.9351 21.6025 22.7076 22.005 22.5476 22.48C22.3876 22.95 22.3076 23.4825 22.3076 24.0775C22.3076 24.6725 22.3876 25.2075 22.5476 25.6825C22.7076 26.1525 22.9351 26.5525 23.2301 26.8825C23.5301 27.2075 23.8901 27.4575 24.3101 27.6325C24.7351 27.8075 25.2126 27.895 25.7426 27.895C26.2726 27.895 26.7476 27.8075 27.1676 27.6325C27.5926 27.4575 27.9526 27.2075 28.2476 26.8825C28.5426 26.5525 28.7701 26.1525 28.9301 25.6825C29.0901 25.2075 29.1701 24.6725 29.1701 24.0775ZM36.7019 28.35C36.8352 28.35 36.9402 28.3883 37.0169 28.465C37.0969 28.5383 37.1369 28.6367 37.1369 28.76V29.5H32.1769V29.09C32.1769 29.0067 32.1935 28.92 32.2269 28.83C32.2635 28.7367 32.3202 28.6533 32.3969 28.58L34.5919 26.38C34.7752 26.1933 34.9385 26.015 35.0819 25.845C35.2285 25.675 35.3502 25.5067 35.4469 25.34C35.5435 25.1733 35.6169 25.005 35.6669 24.835C35.7202 24.6617 35.7469 24.48 35.7469 24.29C35.7469 24.1167 35.7219 23.965 35.6719 23.835C35.6219 23.7017 35.5502 23.59 35.4569 23.5C35.3669 23.41 35.2569 23.3433 35.1269 23.3C35.0002 23.2533 34.8569 23.23 34.6969 23.23C34.5502 23.23 34.4135 23.2517 34.2869 23.295C34.1635 23.335 34.0535 23.3933 33.9569 23.47C33.8602 23.5433 33.7785 23.63 33.7119 23.73C33.6452 23.83 33.5952 23.94 33.5619 24.06C33.5052 24.2133 33.4319 24.315 33.3419 24.365C33.2519 24.415 33.1219 24.4267 32.9519 24.4L32.3019 24.285C32.3519 23.9383 32.4485 23.635 32.5919 23.375C32.7352 23.1117 32.9135 22.8933 33.1269 22.72C33.3435 22.5433 33.5902 22.4117 33.8669 22.325C34.1469 22.235 34.4469 22.19 34.7669 22.19C35.1002 22.19 35.4052 22.24 35.6819 22.34C35.9585 22.4367 36.1952 22.575 36.3919 22.755C36.5885 22.935 36.7419 23.1517 36.8519 23.405C36.9619 23.6583 37.0169 23.94 37.0169 24.25C37.0169 24.5167 36.9769 24.7633 36.8969 24.99C36.8202 25.2167 36.7152 25.4333 36.5819 25.64C36.4519 25.8467 36.2985 26.0467 36.1219 26.24C35.9452 26.4333 35.7602 26.63 35.5669 26.83L33.9369 28.495C34.0935 28.4483 34.2485 28.4133 34.4019 28.39C34.5585 28.3633 34.7069 28.35 34.8469 28.35H36.7019Z" fill="white"/>
<defs>
<linearGradient id="paint0_linear_16677_251726" x1="24" y1="0" x2="24" y2="48" gradientUnits="userSpaceOnUse">
<stop stop-color="#15C8DC"/>
<stop offset="1" stop-color="#128E9C"/>
</linearGradient>
<linearGradient id="paint1_linear_16677_251726" x1="24" y1="0" x2="24" y2="48" gradientUnits="userSpaceOnUse">
<stop stop-color="#15C8DC"/>
<stop offset="1" stop-color="#128E9C"/>
</linearGradient>
</defs>
</svg>
