<svg width="56" height="56" viewBox="0 0 56 56" fill="none" xmlns="http://www.w3.org/2000/svg">
<circle cx="28" cy="28" r="28" fill="white"/>
<circle cx="28" cy="28" r="28" fill="url(#paint0_linear_3_9)" fill-opacity="0.88"/>
<circle cx="28" cy="28" r="28" fill="url(#paint1_linear_3_9)"/>
<path d="M31 35C31 32.6131 31.9482 30.3239 33.636 28.636C35.3239 26.9482 37.6131 26 40 26C42.3869 26 44.6761 26.9482 46.364 28.636C48.0518 30.3239 49 32.6131 49 35C49 37.3869 48.0518 39.6761 46.364 41.364C44.6761 43.0518 42.3869 44 40 44C37.6131 44 35.3239 43.0518 33.636 41.364C31.9482 39.6761 31 37.3869 31 35ZM43.1562 30.8625C43.3312 30.55 43.2625 30.1687 42.9937 29.9312C42.725 29.6937 42.3312 29.6812 42.05 29.8937L36.05 34.3937C35.7937 34.5875 35.6875 34.925 35.7875 35.2313C35.8875 35.5375 36.175 35.7437 36.5 35.7437H38.725L36.8438 39.1313C36.6688 39.4438 36.7375 39.825 37.0063 40.0625C37.275 40.3 37.6688 40.3125 37.95 40.1L43.95 35.6C44.2063 35.4063 44.3125 35.0688 44.2125 34.7625C44.1125 34.4563 43.825 34.25 43.5 34.25H41.275L43.1562 30.8625Z" fill="white"/>
<path opacity="0.4" d="M21 14V20H17V14C17 12.8937 17.8937 12 19 12C20.1063 12 21 12.8937 21 14ZM33 14V20H29V14C29 12.8937 29.8937 12 31 12C32.1063 12 33 12.8937 33 14ZM13 24C13 22.8937 13.8937 22 15 22H35C36.1063 22 37 22.8937 37 24C37 24.1437 36.9812 24.2875 36.9562 24.425C32.3625 25.75 29 29.9812 29 35C29 35.7125 29.0688 36.4062 29.1938 37.0812C28.5 37.4 27.7625 37.6437 27 37.8V42C27 43.1063 26.1063 44 25 44C23.8937 44 23 43.1063 23 42V37.8C18.4375 36.875 15 32.8375 15 28V26C13.8937 26 13 25.1063 13 24Z" fill="white"/>
<defs>
<linearGradient id="paint0_linear_3_9" x1="28" y1="0" x2="28" y2="56" gradientUnits="userSpaceOnUse">
<stop stop-color="#15C8DC"/>
<stop offset="1" stop-color="#128E9C"/>
</linearGradient>
<linearGradient id="paint1_linear_3_9" x1="28" y1="0" x2="28" y2="56" gradientUnits="userSpaceOnUse">
<stop stop-color="#15C8DC"/>
<stop offset="1" stop-color="#128E9C"/>
</linearGradient>
</defs>
</svg>
