<svg width="56" height="56" viewBox="0 0 56 56" fill="none" xmlns="http://www.w3.org/2000/svg">
<circle cx="28" cy="28" r="28" fill="url(#paint0_linear_9687_88294)"/>
<path d="M45.3004 23.9999H42.9004V21.5999C42.9004 20.9399 42.3654 20.3999 41.7004 20.3999C41.0354 20.3999 40.5004 20.9374 40.5004 21.5999V23.9999H38.1004C37.4404 23.9999 36.9004 24.5399 36.9004 25.1999C36.9004 25.8599 37.4379 26.3999 38.1004 26.3999H40.5004V28.7999C40.5004 29.4649 41.0404 29.9999 41.7004 29.9999C42.3604 29.9999 42.9004 29.4624 42.9004 28.7999V26.3999H45.3004C45.9654 26.3999 46.5004 25.8649 46.5004 25.1999C46.5004 24.5349 45.9654 23.9999 45.3004 23.9999Z" fill="white"/>
<path opacity="0.4" d="M25.7 26.8C29.235 26.8 32.1 23.9345 32.1 20.4C32.1 16.8655 29.235 14 25.7 14C22.165 14 19.3 16.8655 19.3 20.4C19.3 23.9345 22.165 26.8 25.7 26.8ZM28.235 29.2H23.165C18.3805 29.2 14.5 33.08 14.5 37.865C14.5 38.825 15.276 39.6 16.233 39.6H35.168C36.125 39.6 36.9 38.825 36.9 37.865C36.9 33.08 33.02 29.2 28.235 29.2Z" fill="white"/>
<defs>
<linearGradient id="paint0_linear_9687_88294" x1="28" y1="0" x2="28" y2="56" gradientUnits="userSpaceOnUse">
<stop stop-color="#00DC97"/>
<stop offset="1" stop-color="#00BA80"/>
</linearGradient>
</defs>
</svg>
