<svg width="56" height="56" viewBox="0 0 56 56" fill="none" xmlns="http://www.w3.org/2000/svg">
<circle cx="28" cy="28" r="28" fill="url(#paint0_linear_8492_32548)"/>
<path d="M30.2741 17.2279C30.6298 17.4271 30.8504 17.8042 30.8504 18.2168C30.8504 19.0918 29.9042 19.6396 29.15 19.2057L27.4213 18.2239V26.5476H29.6978C30.331 26.5476 30.8361 27.0527 30.8361 27.6859C30.8361 28.3119 30.331 28.8242 29.6978 28.8242H27.4213V37.9304C27.4213 38.5565 26.9162 39.0687 26.283 39.0687C25.6569 39.0687 25.1447 38.5565 25.1447 37.9304V16.2845C25.1447 16.1728 25.1589 16.0597 25.1945 15.9495C25.166 15.8129 25.2941 15.6869 25.3724 15.5774C25.4577 15.4707 25.5502 15.381 25.6569 15.3106C25.8419 15.1911 26.0553 15.1221 26.283 15.1221H26.2901C26.3257 15.1221 26.3612 15.1242 26.3968 15.1271C26.5676 15.1434 26.7312 15.1996 26.8735 15.2864L30.2741 17.2279ZM32.5649 21.155C32.2092 20.9487 31.9886 20.5716 31.9886 20.1661C31.9886 19.291 32.9348 18.7432 33.6889 19.1772L38.8112 22.1012C39.359 22.4142 39.5511 23.1114 39.2381 23.6521C38.925 24.1999 38.2279 24.392 37.6872 24.0789L36.5275 23.4173V34.5156C36.5275 35.1416 36.0224 35.6539 35.3893 35.6539C34.7632 35.6539 34.251 35.1416 34.251 34.5156V22.1225L32.5649 21.155ZM22.8681 35.6539C22.8681 36.2088 22.4697 36.6854 21.9148 36.7779C21.367 36.8633 20.8335 36.5431 20.6556 36.0096L18.315 29.0091V33.3773C18.315 34.0034 17.8099 34.5156 17.1767 34.5156C16.5507 34.5156 16.042 34.0034 16.042 33.3773V21.9945C16.042 21.4324 16.4439 20.9558 16.9989 20.8704C17.5467 20.7779 18.0802 21.1052 18.2581 21.6316L20.5916 28.5752V19.7179C20.5916 19.0847 21.1038 18.5796 21.7299 18.5796C22.363 18.5796 22.8681 19.0847 22.8681 19.7179V35.6539Z" fill="white"/>
<path opacity="0.4" d="M24.9389 10.6864C26.5253 9.77119 28.4747 9.77119 30.0611 10.6864L40.9389 16.9648C42.5253 17.8825 43.5 19.5757 43.5 21.4041V33.9679C43.5 35.7963 42.5253 37.4895 40.9389 38.4001L30.0611 44.682C28.4747 45.5997 26.5253 45.5997 24.9389 44.682L14.0611 38.4001C12.4761 37.4895 11.5 35.7963 11.5 33.9679V21.4041C11.5 19.5757 12.4761 17.8825 14.0611 16.9648L24.9389 10.6864ZM30.8508 18.2169C30.8508 17.8043 30.6303 17.4272 30.2746 17.228L26.8739 15.2865C26.7317 15.1997 26.568 15.1435 26.3973 15.1272C26.3617 15.1243 26.3261 15.1222 26.2906 15.1222H26.2835C26.0558 15.1222 25.8424 15.1919 25.6574 15.3107C25.5507 15.3811 25.4582 15.4708 25.3728 15.5775C25.2946 15.6871 25.1665 15.813 25.195 15.9496C25.1594 16.0598 25.1452 16.173 25.1452 16.2847V37.9305C25.1452 38.5566 25.6574 39.0688 26.2835 39.0688C26.9166 39.0688 27.4217 38.5566 27.4217 37.9305V28.8243H29.6983C30.3315 28.8243 30.8366 28.312 30.8366 27.686C30.8366 27.0528 30.3315 26.5477 29.6983 26.5477H27.4217V18.224L29.1505 19.2058C29.9046 19.6397 30.8508 19.092 30.8508 18.2169ZM31.9891 20.1662C31.9891 20.5717 32.2097 20.9488 32.5654 21.1551L34.2514 22.1226V34.5157C34.2514 35.1418 34.7637 35.654 35.3897 35.654C36.0229 35.654 36.528 35.1418 36.528 34.5157V23.4174L37.6876 24.0791C38.2283 24.3921 38.9255 24.2 39.2386 23.6522C39.5516 23.1115 39.3595 22.4143 38.8117 22.1013L33.6894 19.1773C32.9353 18.7434 31.9891 19.2912 31.9891 20.1662ZM20.592 19.718V28.5753L18.2586 21.6317C18.0807 21.1053 17.5471 20.778 16.9993 20.8705C16.4444 20.9559 16.0425 21.4325 16.0425 21.9946V33.3774C16.0425 34.0035 16.5511 34.5157 17.1772 34.5157C17.8104 34.5157 18.3155 34.0035 18.3155 33.3774V29.0092L20.6561 36.0097C20.8339 36.5433 21.3675 36.8634 21.9153 36.778C22.4702 36.6855 22.8686 36.2089 22.8686 35.654V19.718C22.8686 19.0848 22.3635 18.5797 21.7303 18.5797C21.1043 18.5797 20.592 19.0848 20.592 19.718Z" fill="white"/>
<defs>
<linearGradient id="paint0_linear_8492_32548" x1="28" y1="0" x2="28" y2="56" gradientUnits="userSpaceOnUse">
<stop stop-color="#00DAF9"/>
<stop offset="1" stop-color="#00AFC8"/>
</linearGradient>
</defs>
</svg>
