<svg width="56" height="56" viewBox="0 0 56 56" fill="none" xmlns="http://www.w3.org/2000/svg">
<circle cx="28" cy="28" r="28" fill="url(#paint0_linear_8492_32535)"/>
<path d="M27.9946 32.0003C31.2239 32.0003 33.7939 29.3813 33.7939 26.1503C33.7939 22.9193 31.1761 20.3003 27.9946 20.3003C24.7653 20.3003 22.1952 22.9193 22.1952 26.1503C22.1446 29.379 24.7658 32.0003 27.9946 32.0003ZM30.8071 33.8003H25.1933C20.7777 33.8003 17.2002 37.1584 17.2002 41.2984C17.2002 42.1309 17.9146 42.8003 18.7977 42.8003H37.2027C38.0858 42.8003 38.8002 42.1309 38.8002 41.2984C38.8002 37.1584 35.2227 33.8003 30.8071 33.8003Z" fill="white"/>
<path opacity="0.4" d="M17.2 23C19.6851 23 21.7 20.9851 21.7 18.5C21.7 16.0149 19.6862 14 17.2 14C14.7149 14 12.7 16.0149 12.7 18.5C12.7 20.9851 14.7149 23 17.2 23ZM38.8 23C41.2851 23 43.3 20.9851 43.3 18.5C43.3 16.0149 41.2862 14 38.8 14C36.3149 14 34.3 16.0149 34.3 18.5C34.3 20.9851 36.3137 23 38.8 23ZM41.0444 24.8H37.5659C36.8459 24.8 36.1664 24.9708 35.5487 25.2635C35.5825 25.5594 35.6387 25.8463 35.6387 26.15C35.6387 28.0462 34.9199 29.7618 33.7735 31.1H45.0066C45.5556 31.1 46 30.6275 46 30.0481C46 27.1512 43.7837 24.8 41.0444 24.8ZM20.4344 25.2556C19.8212 24.9181 19.1462 24.8 18.4319 24.8H14.9545C12.2185 24.8 10 27.1512 10 30.0481C10 30.6275 10.4436 31.1 10.9911 31.1H22.213C21.0666 29.7618 20.3477 28.0462 20.3477 26.15C20.3444 25.8463 20.4006 25.5538 20.4344 25.2556Z" fill="white"/>
<defs>
<linearGradient id="paint0_linear_8492_32535" x1="28" y1="0" x2="28" y2="56" gradientUnits="userSpaceOnUse">
<stop stop-color="#00AF78"/>
<stop offset="1" stop-color="#00734F"/>
</linearGradient>
</defs>
</svg>
