<svg width="56" height="56" viewBox="0 0 56 56" fill="none" xmlns="http://www.w3.org/2000/svg">
<circle cx="28" cy="28" r="28" fill="white"/>
<circle cx="28" cy="28" r="28" fill="url(#paint0_linear_3_27)"/>
<path d="M27.9948 32.0001C31.2241 32.0001 33.7942 29.3811 33.7942 26.1501C33.7942 22.9191 31.1763 20.3001 27.9948 20.3001C24.7655 20.3001 22.1954 22.9191 22.1954 26.1501C22.1448 29.3789 24.7661 32.0001 27.9948 32.0001ZM30.8073 33.8001H25.1936C20.7779 33.8001 17.2004 37.1582 17.2004 41.2982C17.2004 42.1307 17.9148 42.8001 18.7979 42.8001H37.2029C38.0861 42.8001 38.8004 42.1307 38.8004 41.2982C38.8004 37.1582 35.2229 33.8001 30.8073 33.8001Z" fill="white"/>
<path opacity="0.4" d="M17.2 23C19.6851 23 21.7 20.9851 21.7 18.5C21.7 16.0149 19.6862 14 17.2 14C14.7149 14 12.7 16.0149 12.7 18.5C12.7 20.9851 14.7149 23 17.2 23ZM38.8 23C41.2851 23 43.3 20.9851 43.3 18.5C43.3 16.0149 41.2862 14 38.8 14C36.3149 14 34.3 16.0149 34.3 18.5C34.3 20.9851 36.3137 23 38.8 23ZM41.0444 24.8H37.5659C36.8459 24.8 36.1664 24.9708 35.5488 25.2635C35.5825 25.5594 35.6387 25.8463 35.6387 26.15C35.6387 28.0462 34.9199 29.7618 33.7735 31.1H45.0066C45.5556 31.1 46 30.6275 46 30.0481C46 27.1512 43.7838 24.8 41.0444 24.8ZM20.4344 25.2556C19.8212 24.9181 19.1462 24.8 18.4319 24.8H14.9545C12.2185 24.8 10 27.1512 10 30.0481C10 30.6275 10.4436 31.1 10.9911 31.1H22.213C21.0666 29.7618 20.3478 28.0462 20.3478 26.15C20.3444 25.8463 20.4006 25.5538 20.4344 25.2556Z" fill="white"/>
<defs>
<linearGradient id="paint0_linear_3_27" x1="28" y1="0" x2="28" y2="56" gradientUnits="userSpaceOnUse">
<stop stop-color="#9BCA46"/>
<stop offset="1" stop-color="#659B02"/>
</linearGradient>
</defs>
</svg>
